<?xml version="1.0" encoding="UTF-8"?>
<svg width="148px" height="72px" viewBox="0 0 148 72" version="1.1" xmlns="http://www.w3.org/2000/svg" xmlns:xlink="http://www.w3.org/1999/xlink">
    <!-- Generator: Sketch 50.2 (55047) - http://www.bohemiancoding.com/sketch -->
    <title>Logo</title>
    <desc>Created with Sketch.</desc>
    <defs></defs>
    <g id="WebDesign" stroke="none" stroke-width="1" fill="none" fill-rule="evenodd">
        <g id="Concept-Homepage-Alt" transform="translate(-85.000000, -30.000000)">
            <g id="Header" transform="translate(85.000000, 30.000000)">
                <g id="Logo">
                    <g id="beta" transform="translate(71.882812, 50.812500)">
                        <rect id="Rectangle-2" fill="#2E5266" x="0" y="0" width="76" height="21" rx="5"></rect>
                        <path d="M25.518,9.876 C26.0966696,10.0533342 26.5399985,10.3496646 26.848,10.765 C27.1560015,11.1803354 27.31,11.6913303 27.31,12.298 C27.31,12.839336 27.1676681,13.312998 26.883,13.719 C26.5983319,14.125002 26.192336,14.4399989 25.665,14.664 C25.137664,14.8880011 24.5193369,15 23.81,15 L18.896,15 L18.896,5.13 L23.67,5.13 C24.7060052,5.13 25.5296636,5.36099769 26.141,5.823 C26.7523364,6.28500231 27.058,6.90799608 27.058,7.692 C27.058,8.19600252 26.922668,8.64166473 26.652,9.029 C26.381332,9.41633527 26.0033358,9.69866578 25.518,9.876 Z M21.402,9.008 L23.236,9.008 C23.7213358,9.008 24.0759989,8.93333408 24.3,8.784 C24.5240011,8.63466592 24.636,8.3966683 24.636,8.07 C24.636,7.72466494 24.5240011,7.47266746 24.3,7.314 C24.0759989,7.15533254 23.7213358,7.076 23.236,7.076 L21.402,7.076 L21.402,9.008 Z M23.488,13.054 C24.0013359,13.054 24.3676656,12.9723342 24.587,12.809 C24.8063344,12.6456659 24.916,12.3773352 24.916,12.004 C24.916,11.6306648 24.8063344,11.3623341 24.587,11.199 C24.3676656,11.0356659 24.0013359,10.954 23.488,10.954 L21.402,10.954 L21.402,13.054 L23.488,13.054 Z M29.501,15 L29.501,5.13 L36.515,5.13 L36.515,7.118 L32.007,7.118 L32.007,8.994 L36.235,8.994 L36.235,10.968 L32.007,10.968 L32.007,13.012 L36.515,13.012 L36.515,15 L29.501,15 Z M41.184,15 L41.184,7.216 L38.23,7.216 L38.23,5.13 L46.742,5.13 L46.742,7.216 L43.788,7.216 L43.788,15 L41.184,15 Z M54.911,15 L54.029,12.956 L49.661,12.956 L48.779,15 L46.189,15 L50.795,5.13 L52.839,5.13 L57.459,15 L54.911,15 Z M50.487,11.024 L53.203,11.024 L51.845,7.86 L50.487,11.024 Z" id="BETA" fill="#20D7A4"></path>
                    </g>
                    <path d="M91.0989474,27.8320172 L88.5112782,21.2508155 L78.9428571,21.2508155 L76.5067669,27.8320172 L72.4330827,27.8320172 L82.4318797,1.93712446 L85.2956391,1.93712446 L95.5326316,27.8320172 L91.0989474,27.8320172 Z M84.7867669,10.9085408 C84.4094816,9.87112791 84.09493,8.81200965 83.844812,7.73690987 L83.8042105,7.73690987 C83.5335338,8.63729614 83.2168421,9.6539485 82.7864662,10.8706867 L80.2366917,17.8033906 L87.1768421,17.8033906 L84.7867669,10.9085408 Z" id="Shape" fill="#194164" fill-rule="nonzero"></path>
                    <polygon id="Shape" fill="#194164" fill-rule="nonzero" points="103.650226 27.9509871 100.63218 27.9509871 93.1804511 9.29433476 97.3759398 9.29433476 102.199398 22.6541202 102.277895 22.6541202 107.420752 9.29433476 111.380752 9.29433476"></polygon>
                    <path d="M123.769624,13.1419313 C123.140128,12.8136009 122.441545,12.6393743 121.731429,12.6336052 C120.513383,12.6336052 119.417143,13.2203433 117.966316,14.4749356 L117.966316,27.8320172 L113.887218,27.8320172 L113.887218,9.30244635 L117.300451,9.30244635 L117.768722,11.3411588 C119.934135,9.42141631 121.338947,8.83197425 122.868271,8.83197425 C123.734041,8.80817298 124.585664,9.05487845 125.304361,9.5376824 L123.769624,13.1419313 Z" id="Shape" fill="#194164" fill-rule="nonzero"></path>
                    <path d="M132.163308,3.54321888 C132.148438,4.95849733 130.992503,6.09628234 129.575639,6.09025751 C128.17256,6.06942502 127.050032,4.92001779 127.063884,3.51835738 C127.077736,2.11669697 128.222761,0.989650718 129.625978,0.996491902 C131.029196,1.00333309 132.163153,2.14149019 132.163308,3.54321888 Z M127.537444,27.8320172 L127.537444,9.30244635 L131.613835,9.30244635 L131.613835,27.8320172 L127.537444,27.8320172 Z" id="Shape" fill="#194164" fill-rule="nonzero"></path>
                    <path d="M140.713985,28.2240773 C137.890827,28.2240773 136.829774,26.5395708 136.829774,24.3467382 L136.829774,0.0957939914 L140.908872,0.0957939914 L140.908872,22.5838197 C140.908872,24.1115021 141.179549,24.5414163 142.243308,24.5414163 C142.653934,24.5490776 143.063448,24.496235 143.458647,24.3845923 L143.967519,27.402103 C142.971049,27.9490833 141.850963,28.2320623 140.713985,28.2240773 Z" id="Shape" fill="#194164" fill-rule="nonzero"></path>
                    <polygon id="Shape" fill="#00CC99" fill-rule="nonzero" points="72.3843609 42.8438627 72.3843609 34.2942489 73.7377444 34.2942489 73.7377444 41.675794 76.8721805 41.675794 76.8721805 42.8438627"></polygon>
                    <path d="M81.5142857,42.8438627 L81.243609,42.2706438 C80.7543536,42.7362563 80.1002307,42.9890681 79.4246617,42.9736481 C78.9022868,42.9972949 78.3937415,42.8020531 78.0216823,42.4350133 C77.6496232,42.0679734 77.447826,41.5624556 77.4649624,41.0403863 C77.4649624,39.7803863 78.398797,39.0665665 80.0093233,39.0151931 L81.1515789,38.9773391 L81.1515789,38.7961803 C81.1515789,37.9255365 80.6102256,37.6281116 79.92,37.6281116 C79.3492281,37.6268379 78.7914746,37.7984153 78.3203008,38.1202146 L77.8682707,37.2522747 C78.5416288,36.7647721 79.3597561,36.5180733 80.1906767,36.5519742 C81.592782,36.5519742 82.5157895,37.1360086 82.5157895,38.7312876 L82.5157895,40.9754936 C82.5157895,42.1435622 82.5293233,42.5978112 82.6321805,42.8438627 L81.5142857,42.8438627 Z M81.1515789,39.9750644 L80.1500752,40.0156223 C79.2162406,40.0534764 78.8264662,40.3644206 78.8264662,40.9349356 C78.8264662,41.5054506 79.1756391,41.8839914 79.8902256,41.8839914 C80.3593604,41.8906432 80.8123387,41.7129477 81.1515789,41.3891845 L81.1515789,39.9750644 Z" id="Shape" fill="#00CC99" fill-rule="nonzero"></path>
                    <path d="M89.9296241,42.8952361 L89.0093233,42.8952361 L85.552782,34.2942489 L87.0333835,34.2942489 L89.0093233,39.4180687 C89.2042105,39.923691 89.3720301,40.4049785 89.5506767,40.8700429 L89.5777444,40.8700429 C89.7323901,40.3847939 89.9131033,39.908223 90.1190977,39.4424034 L92.2845113,34.3050644 L93.6541353,34.3050644 L89.9296241,42.8952361 Z" id="Shape" fill="#00CC99" fill-rule="nonzero"></path>
                    <path d="M98.8538346,42.8438627 L97.9849624,40.6645494 L94.8180451,40.6645494 L94.006015,42.8438627 L92.6526316,42.8438627 L95.9819549,34.2618026 L96.9320301,34.2618026 L100.320902,42.8384549 L98.8538346,42.8438627 Z M96.7642105,37.2360515 C96.6382151,36.8921614 96.5333583,36.540907 96.4502256,36.1842489 L96.4366917,36.1842489 C96.3473684,36.4843777 96.2445113,36.8196567 96.1010526,37.2225322 L95.2565414,39.5181116 L97.5545865,39.5181116 L96.7642105,37.2360515 Z" id="Shape" fill="#00CC99" fill-rule="nonzero"></path>
                    <polygon id="Shape" fill="#00CC99" fill-rule="nonzero" points="101.398195 42.8438627 101.398195 34.2942489 105.972632 34.2942489 105.56391 35.4623176 102.762406 35.4623176 102.762406 37.895794 105.542256 37.895794 105.542256 39.0638627 102.762406 39.0638627 102.762406 41.6839056 105.983459 41.6839056 105.983459 42.8519742"></polygon>
                    <path d="M113.841203,34.9296567 C113.596396,34.8169266 113.331135,34.7552828 113.061654,34.7484979 C112.555489,34.7484979 112.309173,35.0837768 112.309173,35.6542918 L112.309173,36.695279 L113.933233,36.695279 L113.543459,37.776824 L112.309173,37.776824 L112.309173,42.8492704 L110.955789,42.8492704 L110.955789,37.776824 L110.100451,37.776824 L110.100451,36.695279 L110.955789,36.695279 L110.955789,35.7624464 C110.955789,34.0238627 112.163008,33.6480258 112.993985,33.6480258 C113.378303,33.6498731 113.75673,33.7425255 114.098346,33.918412 L113.841203,34.9296567 Z" id="Shape" fill="#00CC99" fill-rule="nonzero"></path>
                    <path d="M118.361504,42.8438627 L118.090827,42.2706438 C117.602727,42.7363526 116.949382,42.9892401 116.274586,42.9736481 C115.751753,42.9980729 115.242482,42.8031759 114.869818,42.4360462 C114.497153,42.0689165 114.294993,41.5629474 114.31218,41.0403863 C114.31218,39.7803863 115.246015,39.0665665 116.856541,39.0151931 L118.001504,38.9773391 L118.001504,38.7961803 C118.001504,37.9255365 117.46015,37.6281116 116.767218,37.6281116 C116.197216,37.626363 115.640188,37.7980074 115.170226,38.1202146 L114.715489,37.2522747 C115.38968,36.76438 116.208792,36.5176717 117.040602,36.5519742 C118.442707,36.5519742 119.363008,37.1360086 119.363008,38.7312876 L119.363008,40.9754936 C119.363008,42.1435622 119.376541,42.5978112 119.482105,42.8438627 L118.361504,42.8438627 Z M117.998797,39.9750644 L116.997293,40.0156223 C116.063459,40.0534764 115.673684,40.3644206 115.673684,40.9349356 C115.673684,41.5054506 116.025564,41.8839914 116.74015,41.8839914 C117.208512,41.8908055 117.660708,41.7130356 117.998797,41.3891845 L117.998797,39.9750644 Z" id="Shape" fill="#00CC99" fill-rule="nonzero"></path>
                    <path d="M123.558496,42.9736481 C121.59609,42.9736481 120.597293,41.51897 120.597293,39.8209442 C120.597293,38.0039485 121.818045,36.5519742 123.73985,36.5519742 C124.325126,36.5395825 124.903238,36.682323 125.415338,36.9656652 L125.401805,38.1202146 C124.946994,37.7976686 124.400356,37.6298716 123.842707,37.6416309 C122.713985,37.6416309 121.94797,38.5230901 121.94797,39.7560515 C121.94797,40.9106009 122.570526,41.8704721 123.818346,41.8704721 C124.343654,41.8662624 124.857016,41.7134503 125.298947,41.4297425 L125.661654,42.324721 C125.041915,42.7474497 124.308937,42.9736092 123.558496,42.9736481 Z" id="Shape" fill="#00CC99" fill-rule="nonzero"></path>
                    <path d="M128.284511,34.8025751 C128.280046,35.2719103 127.896317,35.6491815 127.426466,35.6461803 C126.96189,35.6387422 126.590592,35.2578174 126.595537,34.7937065 C126.600481,34.3295955 126.97981,33.9566502 127.444439,33.9590899 C127.909068,33.9615297 128.284452,34.3384379 128.284511,34.8025751 Z M126.752481,42.8465665 L126.752481,36.695279 L128.105865,36.695279 L128.105865,42.8330472 L126.752481,42.8465665 Z" id="Shape" fill="#00CC99" fill-rule="nonzero"></path>
                    <path d="M131.115789,42.9736481 C130.181955,42.9736481 129.830075,42.4139485 129.830075,41.6893133 L129.830075,33.6588412 L131.183459,33.6588412 L131.183459,41.105279 C131.183459,41.6109013 131.275489,41.754206 131.624662,41.754206 C131.761075,41.7568823 131.897092,41.7386445 132.02797,41.7001288 L132.198496,42.7005579 C131.866968,42.8827245 131.494151,42.9767599 131.115789,42.9736481 Z" id="Shape" fill="#00CC99" fill-rule="nonzero"></path>
                    <path d="M134.298947,40.0913305 C134.29299,40.5747329 134.487862,41.0389826 134.837178,41.3735768 C135.186494,41.708171 135.65901,41.8831819 136.142256,41.8569528 C136.686131,41.8531026 137.219325,41.705722 137.68782,41.4297425 L138.039699,42.3112017 C137.411947,42.750325 136.662261,42.9819866 135.89594,42.9736481 C133.830677,42.9736481 132.918496,41.4027039 132.918496,39.7290129 C132.918496,37.9769099 133.944361,36.5519742 135.606316,36.5519742 C137.268271,36.5519742 138.256241,37.8092704 138.256241,39.7154936 L138.256241,40.0913305 L134.298947,40.0913305 Z M135.571128,37.601073 C134.759098,37.601073 134.285414,38.3148927 134.285414,39.0936052 L136.843308,39.0936052 C136.843308,38.3662661 136.421053,37.601073 135.571128,37.601073 Z" id="Shape" fill="#00CC99" fill-rule="nonzero"></path>
                    <path d="M62.7969925,36.4972961 C62.7969924,49.1604566 55.1605507,60.5766699 43.4486449,65.4223989 C31.7367391,70.268128 18.2559225,67.5890506 9.29248517,58.6344573 C0.329047821,49.679864 -2.35174291,36.2132805 2.50020252,24.5143597 C7.35214796,12.8154389 18.7812831,5.18817675 31.4580451,5.18927039 C48.7665057,5.1907636 62.7969925,19.2074068 62.7969925,36.4972961" id="Shape" fill="#194164" fill-rule="nonzero"></path>
                    <path d="M47.5524812,6.17077253 L53.2366917,6.17077253 C53.9621588,6.17226366 54.5494752,6.76015957 54.5494737,7.48484979 C54.5503584,7.65147882 54.5191128,7.81671908 54.4574436,7.97154506 L36.9717293,51.698412 C36.7724686,52.1976198 36.2889817,52.5253099 35.7509774,52.525794 L29.0679699,52.525794 C28.5378919,52.5236143 28.0609117,52.2038368 27.8580451,51.7146352 L15.4908271,22.6616309 C15.216236,21.9978316 15.526047,21.2367792 16.1864662,20.9527897 C16.3489021,20.8829735 16.5239182,20.8470877 16.7007519,20.8473391 L22.3362406,20.8473391 C22.8680688,20.8480664 23.347366,21.1679659 23.5515789,21.6584979 L27.557594,31.2653219 L31.1657143,41.1317167 C31.3541975,41.6520336 31.8487777,41.9986582 32.4027068,41.9986582 C32.9566358,41.9986582 33.451216,41.6520336 33.6396992,41.1317167 L42.3257143,16.7374678 L46.3371429,7.00356223 C46.5339487,6.50405533 47.0151143,6.17434488 47.5524812,6.17077253 Z" id="Shape" fill="#20D7A4"></path>
                </g>
            </g>
        </g>
    </g>
</svg>