<svg xmlns="http://www.w3.org/2000/svg" width="33" height="33" viewBox="0 0 33 33">
    <path fill="#D9D9E0" fill-rule="evenodd" d="M16.5 33C25.613 33 33 25.613 33 16.5S25.613 0 16.5 0 0 7.387 0 16.5 7.387 33 16.5 33zm-6.453-21c-.151 0-.296.03-.426.087l6.541 5.533c.16.135.515.135.676 0l6.54-5.533a1.06 1.06 0 0 0-.425-.087H10.047zm-.933.568a1.034 1.034 0 0 0-.114.47v6.924A1.04 1.04 0 0 0 10.047 21h12.906A1.04 1.04 0 0 0 24 19.962v-6.924c0-.169-.042-.329-.114-.47l-6.596 5.576a1.232 1.232 0 0 1-1.58 0l-6.596-5.576z"/>
</svg>
