<svg xmlns="http://www.w3.org/2000/svg" width="33" height="33" viewBox="0 0 33 33">
    <path fill="#D9D9E0" fill-rule="evenodd" d="M16.5 33C25.613 33 33 25.613 33 16.5S25.613 0 16.5 0 0 7.387 0 16.5 7.387 33 16.5 33zM23 17.357V22h-2.786v-4.332c0-1.088-.403-1.83-1.412-1.83-.77 0-1.228.5-1.43.984-.073.173-.092.414-.092.656V22h-2.787s.037-7.337 0-8.097h2.787v1.148l-.019.026h.019v-.026c.37-.551 1.031-1.338 2.511-1.338 1.834 0 3.209 1.157 3.209 3.644zM11.577 10c-.953 0-1.577.604-1.577 1.399 0 .777.606 1.4 1.54 1.4h.019c.972 0 1.576-.623 1.576-1.4-.018-.795-.604-1.399-1.558-1.399zm-1.411 12v-8.097h2.786V22h-2.786z"/>
</svg>
