<svg xmlns="http://www.w3.org/2000/svg" width="33" height="33" viewBox="0 0 33 33">
    <path fill="#D9D9E0" fill-rule="evenodd" d="M16.5 33C7.387 33 0 25.613 0 16.5S7.387 0 16.5 0 33 7.387 33 16.5 25.613 33 16.5 33zM23 12.302c-.478.221-.992.37-1.532.437.55-.343.974-.887 1.173-1.536a5.21 5.21 0 0 1-1.694.674A2.616 2.616 0 0 0 19 11c-1.473 0-2.667 1.243-2.667 2.777 0 .218.024.43.07.633-2.217-.116-4.183-1.222-5.498-2.902a2.85 2.85 0 0 0-.361 1.396c0 .964.47 1.814 1.186 2.312a2.575 2.575 0 0 1-1.208-.348v.035c0 1.346.92 2.468 2.14 2.723a2.57 2.57 0 0 1-1.205.048c.34 1.103 1.325 1.906 2.492 1.928A5.219 5.219 0 0 1 10 20.752 7.333 7.333 0 0 0 14.088 22c4.906 0 7.589-4.231 7.589-7.901 0-.12-.003-.24-.008-.36A5.55 5.55 0 0 0 23 12.303z"/>
</svg>
