<svg xmlns="http://www.w3.org/2000/svg" width="26" height="26" viewBox="0 0 26 26">
    <g fill="none" fill-rule="evenodd">
        <rect width="26" height="26" fill="#783EB4" rx="5"/>
        <g fill="#FFF" fill-rule="nonzero">
            <path d="M18.316 14.161l2.09-2.09a1.308 1.308 0 0 0 0-1.858l-.851-.826c-.103-.103-.284-.129-.439-.026-.722.542-1.677.465-2.322-.18-.646-.646-.697-1.6-.181-2.323.103-.129.077-.31-.026-.439l-.826-.825a1.308 1.308 0 0 0-1.858 0l-2.09 2.09 6.503 6.477zM11.374 8.148L5.62 13.93a1.308 1.308 0 0 0 0 1.858l.826.826c.103.103.284.129.439.026.722-.542 1.677-.465 2.322.18.646.646.697 1.6.181 2.323-.103.129-.077.31.026.439l.826.825a1.308 1.308 0 0 0 1.858 0l5.78-5.78-6.503-6.478zm.723 8.052L9.8 13.903l.465-.464 2.296 2.296-.464.465zm1.342-.697l-2.942-2.942.49-.49 2.942 2.942-.49.49z"/>
        </g>
    </g>
</svg>
