<svg xmlns="http://www.w3.org/2000/svg" width="26" height="26" viewBox="0 0 26 26">
    <g fill="none" fill-rule="evenodd">
        <rect width="26" height="26" fill="#91D300" rx="5"/>
        <g fill="#FFF" fill-rule="nonzero">
            <path d="M21 5.866c0-.586-.097-1.03-.426-1.374-.427-.464-.95-.586-1.531-.424-.6.162-.95.586-1.085 1.192-.252 1.05.504 2.262 1.511 2.464.485.101.853-.1 1.124-.505.29-.424.407-.929.407-1.353zM21 14.066c-.666-.44-1.31-.88-1.976-1.32l-.6-.397c-.244-.154-.488-.132-.644.088-.222.287-.422.595-.644.903a.169.169 0 0 0 .09.044c.71.33 1.42.638 2.13.968.578.243 1.111.199 1.577-.22l.067-.066zM11.546 14.796c-.539.77-1.057 1.56-1.596 2.329a.322.322 0 0 1-.166.118c-1.244.415-3.193.948-4.436 1.362-.685.237-1.161.691-1.307 1.382-.02.079-.02.138-.02.237.062 0 .103 0 .166-.02 2.01-.415 4.706-.947 6.717-1.362a.389.389 0 0 0 .248-.138c.685-.69 1.348-1.382 2.032-2.072a.638.638 0 0 0-.166-1.027l-1.472-.809z"/>
            <path d="M20.855 21.822c-.435-1.973-.892-3.967-1.327-5.94-.02-.08-.062-.158-.145-.198-.995-.612-1.99-1.223-2.985-1.816l-.208-.098c.062-.04.104-.08.145-.119.602-.848 1.224-1.717 1.825-2.585.373-.533.58-1.105.56-1.757-.021-.612-.311-1.125-.726-1.54-.083-.078-.145-.177-.249-.256-.622-.552-1.43-.631-2.239-.296-1.16.474-2.322.947-3.462 1.44-.83.376-.933.711-.435 1.442.518.77 1.078 1.52 1.679 2.368-.29.415-.58.849-.87 1.263-.229.336-.105.79.269.987.808.415 2.052 1.066 2.239 1.145 1.036.493 2.073.967 3.089 1.46a.33.33 0 0 1 .207.277c.145.493.27.967.477 1.44.166.395.31.81.456 1.224.186.553.767 1.283 1.285 1.599.27.158.311.118.477.099-.041-.04-.041-.08-.062-.139zm-6.448-11.27c-.103.178-.27.356-.497.75a37.9 37.9 0 0 1-.456-1.006c-.104-.257-.021-.276.29-.474.228-.138.684-.355.933-.04.166.218-.166.593-.27.77z"/>
        </g>
    </g>
</svg>
