<svg xmlns="http://www.w3.org/2000/svg" width="26" height="26" viewBox="0 0 26 26">
    <g fill="none" fill-rule="evenodd">
        <rect width="26" height="26" fill="#D0D0D7" rx="5"/>
        <g fill="#FFF" fill-rule="nonzero" stroke="#FFF" stroke-width=".7">
            <path d="M12.837 16.911a5.43 5.43 0 0 1-5.424-5.424 5.43 5.43 0 0 1 5.424-5.424 5.43 5.43 0 0 1 5.424 5.424 5.43 5.43 0 0 1-5.424 5.424zm0-9.493a4.074 4.074 0 0 0-4.07 4.07 4.074 4.074 0 0 0 4.07 4.068 4.074 4.074 0 0 0 4.07-4.069 4.074 4.074 0 0 0-4.07-4.07z"/>
            <path d="M20.235 19.689a.675.675 0 0 1-.48-.198l-4.066-4.067a.677.677 0 1 1 .958-.958l4.066 4.067a.677.677 0 0 1-.478 1.156z"/>
        </g>
    </g>
</svg>
