<svg xmlns="http://www.w3.org/2000/svg" width="26" height="26" viewBox="0 0 26 26">
    <g fill="none" fill-rule="evenodd">
        <rect width="26" height="26" fill="#58BBFB" rx="5"/>
        <path fill="#FFF" fill-rule="nonzero" d="M23 20a2.74 2.74 0 0 1-1.168-.264 2.844 2.844 0 0 0-1.205-.273c-.432 0-.843.104-1.207.273a2.738 2.738 0 0 1-1.168.264c-.416 0-.814-.096-1.169-.264a2.89 2.89 0 0 0-1.206-.273c-.43 0-.842.104-1.207.273a2.747 2.747 0 0 1-1.168.264c-.416 0-.813-.096-1.172-.264a2.85 2.85 0 0 0-1.201-.273c-.43 0-.843.104-1.207.273A2.753 2.753 0 0 1 8.748 20c-.41 0-.812-.096-1.167-.264a2.858 2.858 0 0 0-1.206-.273c-.427 0-.837.104-1.202.273-.36.168-.757.264-1.173.264v-1.81c.416 0 .813-.099 1.173-.26a2.785 2.785 0 0 1 1.202-.278c.43 0 .842.103 1.206.278.355.161.757.26 1.167.26.417 0 .82-.099 1.174-.26a2.794 2.794 0 0 1 1.207-.278c.426 0 .836.103 1.201.278.36.161.756.26 1.172.26.412 0 .814-.099 1.168-.26a2.797 2.797 0 0 1 1.207-.278c.425 0 .837.103 1.206.278.355.161.753.26 1.169.26.416 0 .813-.099 1.168-.26a2.785 2.785 0 0 1 1.207-.278c.43 0 .842.103 1.205.278.355.161.752.26 1.168.26V20zm-2.752-5.12c-1.34 0-2.261-1.05-2.26-2.339 0-1.289 1.01-2.334 2.26-2.334 1.248 0 2.26 1.045 2.26 2.334 0 1.289-1.012 2.338-2.26 2.338zM7.084 16.192l6.631-3.765-1.768-3.295-.058-.142c-.358-.882.272-1.601.747-1.713l6.774-1.274C19.458 6 19.505 6 19.557 6c.71 0 1.29.59 1.29 1.328 0 .668-.467 1.19-1.11 1.317l-4.385.826 3.77 7.024a2.83 2.83 0 0 1-.87.142c-.416 0-.814-.099-1.168-.264a2.891 2.891 0 0 0-1.207-.279c-.43 0-.842.108-1.207.279a2.783 2.783 0 0 1-1.168.264c-.416 0-.813-.099-1.172-.264a2.847 2.847 0 0 0-1.201-.279c-.43 0-.842.108-1.207.279a2.79 2.79 0 0 1-1.173.264c-.41 0-.813-.099-1.167-.264a2.753 2.753 0 0 0-.498-.18z"/>
    </g>
</svg>
