
<svg width="100" height="22" viewBox="0 0 100 22" fill="none" xmlns="http://www.w3.org/2000/svg">
<g clip-path="url(#clip0)">
<path d="M11.7314 11.341C10.7297 11.0299 9.69483 10.8601 8.78194 10.7091C6.76513 10.3739 5.3088 10.1371 5.3088 8.76511C5.3088 7.54868 6.3311 6.79255 7.97665 6.79255C9.82397 6.79255 10.8463 7.55762 11.2946 9.27278L11.3431 9.46137L15.2529 8.5953L15.4628 8.54882L15.4027 8.34325C14.922 6.69066 14.0737 5.40988 12.8801 4.53576C11.6372 3.6259 10.0266 3.16382 8.09233 3.16382C6.05311 3.16382 4.30533 3.68757 3.03821 4.67698C1.67693 5.73968 0.957736 7.2877 0.957736 9.15391C0.957736 10.5652 1.37473 11.6672 2.23292 12.5225C2.83644 13.1232 3.66773 13.5736 4.77523 13.8999C5.86248 14.2091 6.96673 14.4556 8.08247 14.6381C10.1934 15.0171 11.1314 15.2298 11.1314 16.3157C11.1314 17.2158 10.6328 18.2883 8.26182 18.2883C6.054 18.2883 4.69093 17.3686 4.21027 15.5551L4.15736 15.3567L0 16.541L0.043941 16.7269C0.448378 18.4662 1.37114 19.7916 2.78802 20.6649C4.13315 21.4952 5.92666 21.9161 8.11385 21.9161C10.3459 21.9161 12.2058 21.3709 13.4944 20.3395C14.7947 19.2965 15.4816 17.7869 15.4816 15.9725C15.4816 14.5961 15.0601 13.478 14.2261 12.6495C13.6684 12.0935 12.8989 11.6904 11.7314 11.341Z" fill="#009DA7"/>
<path d="M32.4828 3.48462H27.6421L21.6087 11.4812V3.48462H17.2559V21.597H21.6087V16.3639L24.0533 13.3233L28.1586 21.4853L28.2151 21.597H32.9643L27.2224 10.5463L32.4828 3.48462Z" fill="#009DA7"/>
<path d="M38.5268 3.48462H34.1748V21.5961H38.5268V3.48462Z" fill="#009DA7"/>
<path d="M45.7123 3.48462H41.3604V21.597H52.7805V17.9915H45.7123V3.48462Z" fill="#009DA7"/>
<path d="M58.8178 3.48462H54.4658V21.597H65.886V17.9915H58.8178V3.48462Z" fill="#009DA7"/>
<path d="M98.1658 4.9093C96.9669 3.96368 95.2155 3.48462 92.9584 3.48462H85.709V21.5961H90.0609V15.4183H92.8409C95.1312 15.4183 96.9202 14.8552 98.1587 13.7452C99.3792 12.6503 99.9988 11.0907 99.9988 9.10826C100.002 7.28317 99.3836 5.87011 98.1658 4.9093ZM90.0609 7.02129H92.7763C94.6488 7.02129 95.5563 7.77117 95.5563 9.31383C95.5563 11.121 94.7124 11.9272 92.8194 11.9272H90.0601L90.0609 7.02129Z" fill="#063347"/>
<path d="M75.6752 6.98654H77.97V14.0965C77.97 15.4801 77.7144 16.4552 77.188 17.0782C76.6616 17.7011 75.8572 17.9907 74.7058 17.9907C72.2254 17.9907 71.1188 16.7895 71.1188 14.0965V3.48472H66.7695V14.5309C66.7695 16.9709 67.4358 18.8326 68.7496 20.0634C70.0633 21.2941 72.0523 21.9162 74.6619 21.9162C77.0831 21.9162 78.9663 21.2736 80.2666 20.0053C81.601 18.6995 82.278 16.7573 82.278 14.2333V6.98654H84.5638L80.1186 0.0830078L75.6752 6.98654Z" fill="#063347"/>
</g>
<defs>
<clipPath id="clip0">
<rect width="100" height="21.8341" fill="white" transform="translate(0 0.0830078)"/>
</clipPath>
</defs>
</svg>
