<svg width="248" height="294" viewBox="0 0 248 294" fill="none" xmlns="http://www.w3.org/2000/svg">
<circle cx="124" cy="124" r="124" fill="#009DA8"/>
<g clip-path="url(#clip0)">
<path d="M49.8925 124.419C47.9395 123.815 45.9236 123.483 44.1437 123.191C40.2133 122.544 37.3738 122.076 37.3791 119.437C37.3791 117.095 39.3793 115.645 42.5876 115.653C46.1911 115.653 48.1826 117.136 49.0463 120.44L49.1407 120.802L56.7656 119.15L57.1747 119.061L57.0593 118.665C56.1274 115.483 54.4786 113.015 52.155 111.329C49.7334 109.569 46.5967 108.675 42.8254 108.666C38.8495 108.666 35.4401 109.659 32.9643 111.559C30.3067 113.601 28.8992 116.579 28.8922 120.17C28.8922 122.885 29.6965 125.007 31.368 126.657C32.5412 127.816 34.1655 128.687 36.3178 129.318C38.4369 129.916 40.5893 130.394 42.7642 130.749C46.8782 131.487 48.6984 131.9 48.6931 133.99C48.6931 135.722 47.714 137.784 43.0824 137.774C38.7778 137.774 36.1237 135.99 35.1918 132.498L35.0904 132.116L27.0039 134.382L27.0878 134.741C27.8659 138.089 29.6615 140.643 32.424 142.33C35.0467 143.932 38.5435 144.749 42.8027 144.758C47.1545 144.766 50.7825 143.725 53.2932 141.74C55.804 139.755 57.1747 136.836 57.1817 133.345C57.1817 130.696 56.3687 128.544 54.7514 126.946C53.6639 125.867 52.1672 125.095 49.8925 124.419Z" fill="white"/>
<path d="M90.3807 109.373L80.9427 109.356L69.1478 124.722L69.1775 109.333L60.6924 109.318L60.626 144.174L69.1111 144.19L69.1303 134.119L73.9088 128.275L81.8833 144.001L81.9917 144.214L91.2514 144.231L80.0982 122.943L90.3807 109.373Z" fill="white"/>
<path d="M93.6803 109.381L93.6123 144.237L102.097 144.253L102.165 109.397L93.6803 109.381Z" fill="white"/>
<path d="M116.174 109.421L107.689 109.406L107.621 144.262L129.887 144.303L129.9 137.364L116.12 137.339L116.174 109.421Z" fill="white"/>
<path d="M141.726 109.469L133.241 109.454L133.173 144.31L155.439 144.352L155.451 137.413L141.672 137.387L141.726 109.469Z" fill="white"/>
<path d="M218.437 112.356C216.105 110.532 212.69 109.603 208.296 109.603L194.153 109.569L194.085 144.425L202.572 144.441L202.595 132.552L208.015 132.562C212.478 132.57 215.968 131.494 218.388 129.361C220.773 127.259 221.986 124.259 221.993 120.444C222.007 116.931 220.808 114.21 218.437 112.356ZM202.628 116.391L207.918 116.401C211.569 116.401 213.339 117.855 213.339 120.824C213.339 124.302 211.683 125.85 207.994 125.843L202.612 125.833L202.628 116.391Z" fill="#063347"/>
<path d="M174.581 116.271L179.055 116.279L179.029 129.963C179.029 132.626 178.522 134.502 177.494 135.699C176.466 136.897 174.896 137.45 172.647 137.445C167.811 137.437 165.654 135.121 165.669 129.937L165.71 109.516L157.225 109.499L157.183 130.759C157.183 135.455 158.466 139.04 161.029 141.412C163.592 143.784 167.462 144.991 172.548 145.002C177.268 145.01 180.952 143.779 183.484 141.345C186.091 138.835 187.418 135.099 187.427 130.243L187.455 116.295L191.912 116.303L183.274 103L174.581 116.271Z" fill="#063347"/>
</g>
<path d="M81.552 289.557V291H76.0465V281.601H77.795V289.557H81.552ZM94.5538 286.3C94.5538 286.989 94.439 287.629 94.2093 288.218C93.984 288.803 93.6633 289.31 93.2473 289.739C92.8313 290.168 92.3308 290.504 91.7458 290.746C91.1608 290.985 90.5108 291.104 89.7958 291.104C89.0852 291.104 88.4373 290.985 87.8523 290.746C87.2673 290.504 86.7647 290.168 86.3443 289.739C85.9283 289.31 85.6055 288.803 85.3758 288.218C85.1462 287.629 85.0313 286.989 85.0313 286.3C85.0313 285.611 85.1462 284.974 85.3758 284.389C85.6055 283.8 85.9283 283.291 86.3443 282.862C86.7647 282.433 87.2673 282.099 87.8523 281.861C88.4373 281.618 89.0852 281.497 89.7958 281.497C90.2725 281.497 90.721 281.553 91.1413 281.666C91.5617 281.774 91.9473 281.93 92.2983 282.134C92.6493 282.333 92.9635 282.578 93.2408 282.868C93.5225 283.154 93.7608 283.475 93.9558 283.83C94.1508 284.186 94.2982 284.571 94.3978 284.987C94.5018 285.403 94.5538 285.841 94.5538 286.3ZM92.7663 286.3C92.7663 285.785 92.697 285.323 92.5583 284.916C92.4197 284.504 92.2225 284.155 91.9668 283.869C91.7112 283.583 91.3992 283.365 91.0308 283.213C90.6668 283.061 90.2552 282.985 89.7958 282.985C89.3365 282.985 88.9227 283.061 88.5543 283.213C88.1903 283.365 87.8783 283.583 87.6183 283.869C87.3627 284.155 87.1655 284.504 87.0268 284.916C86.8882 285.323 86.8188 285.785 86.8188 286.3C86.8188 286.816 86.8882 287.28 87.0268 287.691C87.1655 288.099 87.3627 288.445 87.6183 288.731C87.8783 289.013 88.1903 289.23 88.5543 289.381C88.9227 289.533 89.3365 289.609 89.7958 289.609C90.2552 289.609 90.6668 289.533 91.0308 289.381C91.3992 289.23 91.7112 289.013 91.9668 288.731C92.2225 288.445 92.4197 288.099 92.5583 287.691C92.697 287.28 92.7663 286.816 92.7663 286.3ZM103.883 287.451L102.739 284.324C102.683 284.186 102.625 284.021 102.564 283.83C102.503 283.64 102.443 283.434 102.382 283.213C102.326 283.434 102.267 283.642 102.206 283.837C102.146 284.028 102.087 284.194 102.031 284.337L100.893 287.451H103.883ZM106.971 291H105.619C105.467 291 105.344 290.963 105.248 290.889C105.153 290.811 105.082 290.716 105.034 290.603L104.332 288.686H100.438L99.7364 290.603C99.7017 290.703 99.6345 290.794 99.5349 290.876C99.4352 290.959 99.3117 291 99.1644 291H97.7994L101.498 281.601H103.279L106.971 291ZM119.41 286.3C119.41 286.989 119.295 287.622 119.065 288.198C118.836 288.775 118.513 289.271 118.097 289.687C117.681 290.103 117.18 290.426 116.595 290.655C116.01 290.885 115.36 291 114.645 291H111.064V281.601H114.645C115.36 281.601 116.01 281.718 116.595 281.952C117.18 282.182 117.681 282.504 118.097 282.92C118.513 283.332 118.836 283.826 119.065 284.402C119.295 284.979 119.41 285.611 119.41 286.3ZM117.616 286.3C117.616 285.785 117.546 285.323 117.408 284.916C117.273 284.504 117.076 284.158 116.816 283.876C116.561 283.59 116.249 283.371 115.88 283.219C115.516 283.068 115.105 282.992 114.645 282.992H112.819V289.609H114.645C115.105 289.609 115.516 289.533 115.88 289.381C116.249 289.23 116.561 289.013 116.816 288.731C117.076 288.445 117.273 288.099 117.408 287.691C117.546 287.28 117.616 286.816 117.616 286.3ZM125.828 291H124.073V281.601H125.828V291ZM138.976 281.601V291H138.079C137.941 291 137.824 290.978 137.728 290.935C137.637 290.887 137.548 290.809 137.462 290.701L132.554 284.435C132.58 284.721 132.593 284.985 132.593 285.228V291H131.053V281.601H131.969C132.043 281.601 132.106 281.605 132.158 281.614C132.214 281.618 132.262 281.631 132.301 281.653C132.344 281.67 132.385 281.698 132.424 281.737C132.463 281.772 132.507 281.82 132.554 281.88L137.481 288.172C137.468 288.021 137.457 287.871 137.449 287.724C137.44 287.577 137.436 287.44 137.436 287.314V281.601H138.976ZM151.937 286.287V290.09C151.461 290.441 150.952 290.699 150.41 290.863C149.873 291.024 149.296 291.104 148.681 291.104C147.914 291.104 147.218 290.985 146.594 290.746C145.975 290.508 145.444 290.177 145.002 289.752C144.564 289.327 144.226 288.82 143.988 288.231C143.75 287.642 143.63 286.998 143.63 286.3C143.63 285.594 143.745 284.946 143.975 284.357C144.205 283.768 144.53 283.261 144.95 282.836C145.375 282.411 145.888 282.082 146.49 281.848C147.093 281.614 147.769 281.497 148.518 281.497C148.9 281.497 149.255 281.527 149.584 281.588C149.918 281.649 150.226 281.733 150.507 281.841C150.793 281.945 151.053 282.073 151.287 282.225C151.521 282.377 151.736 282.543 151.931 282.725L151.43 283.518C151.352 283.644 151.251 283.722 151.125 283.752C150.999 283.778 150.863 283.746 150.715 283.655C150.572 283.573 150.429 283.49 150.286 283.408C150.143 283.326 149.983 283.254 149.805 283.193C149.632 283.133 149.435 283.083 149.214 283.044C148.997 283.005 148.746 282.985 148.46 282.985C147.996 282.985 147.576 283.063 147.199 283.219C146.826 283.375 146.508 283.599 146.243 283.889C145.979 284.179 145.775 284.528 145.632 284.935C145.489 285.343 145.418 285.798 145.418 286.3C145.418 286.838 145.494 287.319 145.645 287.743C145.801 288.164 146.018 288.521 146.295 288.816C146.577 289.106 146.915 289.329 147.309 289.485C147.704 289.637 148.144 289.713 148.629 289.713C148.976 289.713 149.285 289.676 149.558 289.602C149.831 289.529 150.098 289.429 150.358 289.303V287.6H149.175C149.062 287.6 148.973 287.57 148.908 287.509C148.848 287.444 148.817 287.366 148.817 287.275V286.287H151.937ZM156.254 290.116C156.254 289.982 156.278 289.854 156.326 289.732C156.378 289.611 156.447 289.507 156.534 289.42C156.621 289.334 156.725 289.264 156.846 289.212C156.967 289.16 157.097 289.134 157.236 289.134C157.375 289.134 157.502 289.16 157.619 289.212C157.741 289.264 157.845 289.334 157.931 289.42C158.022 289.507 158.094 289.611 158.146 289.732C158.198 289.854 158.224 289.982 158.224 290.116C158.224 290.255 158.198 290.385 158.146 290.506C158.094 290.623 158.022 290.725 157.931 290.811C157.845 290.898 157.741 290.965 157.619 291.013C157.502 291.065 157.375 291.091 157.236 291.091C157.097 291.091 156.967 291.065 156.846 291.013C156.725 290.965 156.621 290.898 156.534 290.811C156.447 290.725 156.378 290.623 156.326 290.506C156.278 290.385 156.254 290.255 156.254 290.116ZM162.459 290.116C162.459 289.982 162.483 289.854 162.531 289.732C162.583 289.611 162.652 289.507 162.739 289.42C162.826 289.334 162.93 289.264 163.051 289.212C163.172 289.16 163.302 289.134 163.441 289.134C163.58 289.134 163.707 289.16 163.824 289.212C163.946 289.264 164.05 289.334 164.136 289.42C164.227 289.507 164.299 289.611 164.351 289.732C164.403 289.854 164.429 289.982 164.429 290.116C164.429 290.255 164.403 290.385 164.351 290.506C164.299 290.623 164.227 290.725 164.136 290.811C164.05 290.898 163.946 290.965 163.824 291.013C163.707 291.065 163.58 291.091 163.441 291.091C163.302 291.091 163.172 291.065 163.051 291.013C162.93 290.965 162.826 290.898 162.739 290.811C162.652 290.725 162.583 290.623 162.531 290.506C162.483 290.385 162.459 290.255 162.459 290.116ZM168.664 290.116C168.664 289.982 168.688 289.854 168.736 289.732C168.788 289.611 168.857 289.507 168.944 289.42C169.031 289.334 169.135 289.264 169.256 289.212C169.377 289.16 169.507 289.134 169.646 289.134C169.785 289.134 169.912 289.16 170.029 289.212C170.151 289.264 170.255 289.334 170.341 289.42C170.432 289.507 170.504 289.611 170.556 289.732C170.608 289.854 170.634 289.982 170.634 290.116C170.634 290.255 170.608 290.385 170.556 290.506C170.504 290.623 170.432 290.725 170.341 290.811C170.255 290.898 170.151 290.965 170.029 291.013C169.912 291.065 169.785 291.091 169.646 291.091C169.507 291.091 169.377 291.065 169.256 291.013C169.135 290.965 169.031 290.898 168.944 290.811C168.857 290.725 168.788 290.623 168.736 290.506C168.688 290.385 168.664 290.255 168.664 290.116Z" fill="#363636"/>
<defs>
<clipPath id="clip0">
<rect width="195" height="42" fill="white" transform="translate(27 103)"/>
</clipPath>
</defs>
</svg>
