<svg xmlns="http://www.w3.org/2000/svg">
<defs>
<font id="GTWalsheimRegular" horiz-adv-x="575" >
  <font-face 
    font-family="GT Walsheim Regular"
    font-weight="400"
    font-stretch="normal"
    units-per-em="1000"
    panose-1="2 0 5 3 3 0 0 2 0 3"
    ascent="750"
    descent="-250"
    x-height="454"
    cap-height="700"
    bbox="-145 -328 1191 976"
    underline-thickness="50"
    underline-position="-100"
    stemh="82"
    stemv="91"
    unicode-range="U+000D-FB04"
  />
<missing-glyph horiz-adv-x="800" 
d="M400 717c225 0 362 -177 362 -367s-137 -367 -362 -367s-362 177 -362 367s137 367 362 367zM400 695c-52 0 -99 -10 -143 -29c-40 -18 -76 -44 -106 -76c-29 -32 -52 -69 -67 -110c-16 -42 -24 -85 -24 -130s8 -88 24 -129c15 -42 38 -79 67 -110c30 -33 66 -59 106 -76
c44 -19 91 -29 143 -29c51 0 99 10 142 29c40 17 76 43 106 76c29 31 52 68 67 110c16 41 24 84 24 129s-8 88 -24 130c-15 41 -38 78 -67 110c-30 32 -66 58 -106 76c-43 19 -91 29 -142 29zM168 228c67 -40 113 -71 188 -71c55 0 158 5 220 37c1 0 2 1 3 2
c-17 -37 -59 -74 -107 -99c-37 -20 -72 -31 -106 -31c-65 0 -129 46 -198 162zM466 259h-247l179 268l-110 -243h178v-25zM230 169c39 -59 110 -77 136 -77c68 0 151 56 161 63c-57 -11 -103 -23 -169 -23c-34 0 -98 8 -128 37zM498 500c0 24 19 43 42 43
c24 0 43 -19 43 -43c0 -23 -19 -43 -43 -43c-23 0 -42 20 -42 43zM201 500c0 24 19 43 42 43c24 0 43 -19 43 -43c0 -23 -19 -43 -43 -43c-23 0 -42 20 -42 43zM616 157l-16 4c2 7 2 13 2 18c-1 6 -2 10 -4 13c-1 3 -2 4 -3 5c-1 0 -2 1 -3 2c-1 0 -3 1 -4 2l-14 5
c-10 5 -22 10 -33 19c-7 5 -13 12 -18 20l-4 11c-1 5 -3 9 -3 14c-2 10 -4 21 -4 31c1 7 1 14 3 19l15 -5c0 -2 -1 -6 -1 -10v-13c1 -9 2 -19 4 -27c2 -5 3 -10 5 -12c4 -8 11 -14 19 -20c8 -5 18 -9 26 -13l15 -6c3 -1 5 -3 7 -5c3 -2 6 -5 7 -9c3 -6 5 -12 6 -19
c0 -8 0 -16 -2 -24zM196 329l17 2c0 -7 1 -13 2 -20c1 -6 2 -13 2 -20s-3 -14 -7 -20c-4 -5 -9 -10 -14 -13c-1 0 -3 -1 -4 -1c-7 -3 -15 -6 -21 -10c-4 -1 -7 -3 -10 -5c-2 -2 -4 -4 -6 -5c-2 -3 -4 -8 -5 -13c-1 -6 -2 -12 -2 -17h-16c0 6 1 13 2 20c2 7 4 14 9 20

<glyph glyph-name="fi" unicode="fi" horiz-adv-x="623" 
d="M336 694v-74c-16 5 -31 8 -51 8c-37 0 -79 -4 -79 -86v-88h130v-73h-130v-381h-87v381h-98v73h98v79c0 165 101 173 155 173c28 0 49 -5 62 -12zM441 0v454h87v-454h-87zM418 625c0 38 29 68 66 68c38 0 68 -30 68 -68c0 -37 -30 -66 -68 -66c-37 0 -66 29 -66 66z" />
    <glyph glyph-name="fl" unicode="fl" horiz-adv-x="590" 
d="M336 694v-74c-16 5 -31 8 -51 8c-37 0 -79 -4 -79 -86v-88h130v-73h-130v-381h-87v381h-98v73h98v79c0 165 101 173 155 173c28 0 49 -5 62 -12zM425 0v700h87v-700h-87z" />
    <glyph glyph-name="IJ" unicode="IJ" horiz-adv-x="786" 
d="M716 700v-478c0 -137 -84 -238 -225 -238c-138 0 -227 102 -227 238h92c0 -93 52 -156 135 -156c85 0 133 62 133 156v478h92zM78 0v700h94v-700h-94z" />
    <glyph glyph-name="ij" unicode="ij" horiz-adv-x="481" 
d="M78 0v454h87v-454h-87zM52 626c0 39 31 71 69 71c39 0 71 -32 71 -71c0 -38 -32 -69 -71 -69c-38 0 -69 31 -69 69zM403 454v-576c0 -98 -47 -133 -98 -133c-33 0 -62 5 -79 12v73c21 -6 30 -8 45 -8c29 0 45 19 45 61v571h87zM290 626c0 39 31 71 70 71s70 -32 70 -71
c0 -38 -31 -69 -70 -69s-70 31 -70 69z" />
    <glyph glyph-name="uniFB04" unicode="ffl" horiz-adv-x="933" 
d="M336 694v-74c-16 5 -31 8 -51 8c-37 0 -79 -4 -79 -86v-88h130v-73h-130v-381h-87v381h-98v73h98v79c0 165 101 173 155 173c28 0 49 -5 62 -12zM683 694v-74c-16 5 -31 8 -51 8c-37 0 -79 -4 -79 -86v-88h130v-73h-130v-381h-87v381h-98v73h98v79c0 165 100 173 154 173
c29 0 50 -5 63 -12zM772 0v700h86v-700h-86z" />
    <glyph glyph-name="uniFB00" unicode="ff" horiz-adv-x="694" 
d="M336 694v-74c-16 5 -31 8 -51 8c-37 0 -79 -4 -79 -86v-88h130v-73h-130v-381h-87v381h-98v73h98v79c0 165 101 173 155 173c28 0 49 -5 62 -12zM683 694v-74c-16 5 -31 8 -51 8c-37 0 -79 -4 -79 -86v-88h130v-73h-130v-381h-87v381h-98v73h98v79c0 165 100 173 154 173
c29 0 50 -5 63 -12z" />
    <glyph glyph-name="uniFB03" unicode="ffi" horiz-adv-x="969" 
d="M336 694v-74c-16 5 -31 8 -51 8c-37 0 -79 -4 -79 -86v-88h130v-73h-130v-381h-87v381h-98v73h98v79c0 165 101 173 155 173c28 0 49 -5 62 -12zM683 694v-74c-16 5 -31 8 -51 8c-37 0 -79 -4 -79 -86v-88h130v-73h-130v-381h-87v381h-98v73h98v79c0 165 100 173 154 173
c29 0 50 -5 63 -12zM788 0v454h87v-454h-87zM762 626c0 39 31 71 69 71c39 0 71 -32 71 -71c0 -38 -32 -69 -71 -69c-38 0 -69 31 -69 69z" />
    <glyph glyph-name=".notdef" horiz-adv-x="800" 
d="M400 717c225 0 362 -177 362 -367s-137 -367 -362 -367s-362 177 -362 367s137 367 362 367zM400 695c-52 0 -99 -10 -143 -29c-40 -18 -76 -44 -106 -76c-29 -32 -52 -69 -67 -110c-16 -42 -24 -85 -24 -130s8 -88 24 -129c15 -42 38 -79 67 -110c30 -33 66 -59 106 -76
c44 -19 91 -29 143 -29c51 0 99 10 142 29c40 17 76 43 106 76c29 31 52 68 67 110c16 41 24 84 24 129s-8 88 -24 130c-15 41 -38 78 -67 110c-30 32 -66 58 -106 76c-43 19 -91 29 -142 29zM168 228c67 -40 113 -71 188 -71c55 0 158 5 220 37c1 0 2 1 3 2
c-17 -37 -59 -74 -107 -99c-37 -20 -72 -31 -106 -31c-65 0 -129 46 -198 162zM466 259h-247l179 268l-110 -243h178v-25zM230 169c39 -59 110 -77 136 -77c68 0 151 56 161 63c-57 -11 -103 -23 -169 -23c-34 0 -98 8 -128 37zM498 500c0 24 19 43 42 43
c24 0 43 -19 43 -43c0 -23 -19 -43 -43 -43c-23 0 -42 20 -42 43zM201 500c0 24 19 43 42 43c24 0 43 -19 43 -43c0 -23 -19 -43 -43 -43c-23 0 -42 20 -42 43zM616 157l-16 4c2 7 2 13 2 18c-1 6 -2 10 -4 13c-1 3 -2 4 -3 5c-1 0 -2 1 -3 2c-1 0 -3 1 -4 2l-14 5
c-10 5 -22 10 -33 19c-7 5 -13 12 -18 20l-4 11c-1 5 -3 9 -3 14c-2 10 -4 21 -4 31c1 7 1 14 3 19l15 -5c0 -2 -1 -6 -1 -10v-13c1 -9 2 -19 4 -27c2 -5 3 -10 5 -12c4 -8 11 -14 19 -20c8 -5 18 -9 26 -13l15 -6c3 -1 5 -3 7 -5c3 -2 6 -5 7 -9c3 -6 5 -12 6 -19
c0 -8 0 -16 -2 -24zM196 329l17 2c0 -7 1 -13 2 -20c1 -6 2 -13 2 -20s-3 -14 -7 -20c-4 -5 -9 -10 -14 -13c-1 0 -3 -1 -4 -1c-7 -3 -15 -6 -21 -10c-4 -1 -7 -3 -10 -5c-2 -2 -4 -4 -6 -5c-2 -3 -4 -8 -5 -13c-1 -6 -2 -12 -2 -17h-16c0 6 1 13 2 20c2 7 4 14 9 20
c2 3 5 5 9 8l11 7c7 4 16 7 24 10c0 0 1 0 1 1c3 1 6 4 9 8c2 3 4 7 4 10c0 6 -1 12 -2 18z" />
    <glyph glyph-name="Eth" unicode="&#xd0;" horiz-adv-x="697" 
d="M78 700h216c230 0 363 -173 363 -350s-133 -350 -363 -350h-216v318h-116v66h116v316zM289 384v-66h-120v-236h125c172 0 269 133 269 268c0 136 -97 268 -269 268h-125v-234h120z" />
    <glyph glyph-name="eth" unicode="&#xf0;" horiz-adv-x="565" 
d="M283 -11c-145 0 -239 110 -239 238c0 129 94 239 239 239c12 0 32 -4 38 -12l-53 87l-110 -61l-30 53l107 58l-67 109h105l39 -66l85 47l29 -52l-82 -46l130 -208c29 -46 48 -92 48 -148c0 -128 -94 -238 -239 -238zM283 67c93 0 153 73 153 160s-60 161 -153 161
s-153 -74 -153 -161s60 -160 153 -160z" />
    <glyph glyph-name="Lslash" unicode="&#x141;" horiz-adv-x="425" 
d="M169 82h229v-82h-320v269l-50 -23v74l50 23v357h91v-319l164 73v-73l-164 -74v-225z" />
    <glyph glyph-name="lslash" unicode="&#x142;" horiz-adv-x="243" 
d="M78 0v303l-76 -42v68l76 41v330h94v-280l81 43v-69l-81 -44v-350h-94z" />
    <glyph glyph-name="Scaron" unicode="&#x160;" horiz-adv-x="571" 
d="M45 223h91c0 -96 63 -157 158 -157c81 0 139 46 139 119c0 85 -72 109 -133 127c-126 40 -230 75 -230 217c0 111 95 187 220 187c127 0 217 -85 218 -214h-91c-1 80 -49 132 -127 132c-77 0 -129 -40 -129 -105c0 -76 63 -101 130 -121c108 -35 233 -77 233 -213
c0 -137 -104 -211 -237 -211c-135 0 -242 90 -242 239zM291 751l-174 153l51 55l124 -113l124 114l51 -56z" />
    <glyph glyph-name="scaron" unicode="&#x161;" horiz-adv-x="452" 
d="M270 253c69 -22 136 -42 136 -128c0 -91 -76 -136 -178 -136c-100 0 -188 54 -188 164h85c0 -69 46 -95 107 -95c55 0 91 20 91 65c0 51 -54 56 -145 87c-69 22 -123 43 -123 125c0 85 75 131 169 131c99 0 175 -62 175 -153h-84c0 53 -32 83 -92 83
c-48 0 -84 -22 -84 -63c0 -46 47 -53 131 -80zM225 524l-174 153l51 55l124 -113l125 114l50 -56z" />
    <glyph glyph-name="Yacute" unicode="&#xdd;" horiz-adv-x="591" 
d="M586 700l-352 -700h-100l140 278l-264 422h106l205 -327l165 327h100zM475 888l-249 -137l-41 69l249 137z" />
    <glyph glyph-name="yacute" unicode="&#xfd;" horiz-adv-x="573" 
d="M282 -256c-129 0 -209 66 -212 197h88c5 -82 51 -123 126 -123c78 0 127 31 127 135v128c-27 -55 -82 -92 -159 -92c-66 0 -110 21 -138 58c-25 34 -34 75 -34 142v265h87v-238c0 -88 26 -150 116 -150c87 0 128 73 128 155v233h87v-501c0 -145 -76 -209 -216 -209z
M435 640l-249 -137l-42 68l249 137z" />
    <glyph glyph-name="Thorn" unicode="&#xde;" horiz-adv-x="500" 
d="M78 0v700h82v-132h78c147 0 231 -108 231 -223c0 -114 -84 -222 -231 -222h-78v-123h-82zM238 495h-78v-299h78c94 0 149 72 149 149s-55 150 -149 150z" />
    <glyph glyph-name="thorn" unicode="&#xfe;" horiz-adv-x="594" 
d="M165 -246h-87v946h87v-324c29 55 92 90 158 90c140 0 234 -110 234 -239c0 -128 -94 -238 -234 -238c-66 0 -129 35 -158 90v-325zM319 67c91 0 151 73 151 160s-60 161 -151 161c-94 0 -154 -74 -154 -161s60 -160 154 -160z" />
    <glyph glyph-name="CR" unicode="&#xd;" horiz-adv-x="250" 
 />
    <glyph glyph-name="Zcaron" unicode="&#x17d;" horiz-adv-x="565" 
d="M293 748l-174 153l51 56l123 -114l125 114l51 -56zM35 618v82h521l-389 -618h392v-82h-545l389 618h-368z" />
    <glyph glyph-name="zcaron" unicode="&#x17e;" horiz-adv-x="434" 
d="M224 520l-174 153l51 56l124 -114l125 115l50 -57zM32 454h382l-243 -376h244v-78h-391l243 377h-235v77z" />
    <glyph glyph-name="onehalf" unicode="&#xbd;" horiz-adv-x="916" 
d="M67 582v52c71 0 87 20 87 66h63v-385h-72v267h-78zM553 0c0 124 40 161 107 196c47 25 83 43 83 88c0 34 -22 53 -56 53c-37 0 -62 -22 -62 -67h-71c0 70 49 122 133 122c71 0 127 -37 127 -113c0 -67 -60 -102 -102 -124c-60 -33 -78 -51 -78 -96h179v-59h-260zM154 -18
l419 776l69 -39l-418 -776z" />
    <glyph glyph-name="onequarter" unicode="&#xbc;" horiz-adv-x="916" 
d="M67 582v52c71 0 87 20 87 66h63v-385h-72v267h-78zM707 0v116h-152v269h71v-209h81v112h71v-112h53v-60h-53v-116h-71zM154 -18l419 776l69 -39l-418 -776z" />
    <glyph glyph-name="onesuperior" unicode="&#xb9;" horiz-adv-x="268" 
d="M47 582v52c72 0 87 20 87 66h64v-385h-73v267h-78z" />
    <glyph glyph-name="threequarters" unicode="&#xbe;" horiz-adv-x="916" 
d="M46 438h72c0 -45 28 -72 69 -72s64 27 64 60c0 37 -20 62 -67 62h-34v56h34c44 0 61 23 61 56c0 34 -23 52 -57 52c-43 0 -61 -25 -61 -63h-71c0 65 42 118 130 118c71 0 130 -37 130 -106c0 -44 -26 -76 -62 -86c40 -11 68 -45 68 -93c0 -72 -61 -114 -134 -114
c-89 0 -142 53 -142 130zM707 0v116h-152v269h71v-209h81v112h71v-112h53v-60h-53v-116h-71zM162 -18l419 776l70 -39l-419 -776z" />
    <glyph glyph-name="threesuperior" unicode="&#xb3;" horiz-adv-x="382" 
d="M48 438h71c0 -45 29 -72 70 -72s64 27 64 60c0 37 -21 62 -68 62h-33v56h33c45 0 62 23 62 56c0 34 -23 52 -57 52c-44 0 -61 -25 -61 -63h-71c0 65 41 118 130 118c71 0 130 -37 130 -106c0 -44 -26 -76 -62 -86c39 -11 68 -45 68 -93c0 -72 -61 -114 -134 -114
c-90 0 -142 53 -142 130z" />
    <glyph glyph-name="twosuperior" unicode="&#xb2;" horiz-adv-x="370" 
d="M55 315c0 124 41 161 107 196c47 25 84 43 84 88c0 34 -23 53 -57 53c-36 0 -62 -22 -62 -67h-71c0 70 50 122 133 122c71 0 127 -37 127 -113c0 -67 -60 -102 -101 -124c-60 -33 -78 -51 -78 -96h179v-59h-261z" />
    <glyph glyph-name="brokenbar" unicode="&#xa6;" horiz-adv-x="243" 
d="M160 328h-76v466h76v-466zM84 231h76v-465h-76v465z" />
    <glyph glyph-name="minus" unicode="&#x2212;" 
d="M490 247h-404v77h404v-77z" />
    <glyph glyph-name="multiply" unicode="&#xd7;" 
d="M284 343l115 116l62 -61l-116 -116l113 -113l-56 -54l-112 112l-115 -115l-61 61l114 115l-111 112l55 55z" />
    <glyph glyph-name="space" unicode=" " horiz-adv-x="253" 
 />
    <glyph glyph-name="exclam" unicode="!" horiz-adv-x="296" 
d="M101 213v491h94v-491h-94zM75 60c0 40 32 72 73 72c40 0 73 -32 73 -72s-33 -74 -73 -74c-41 0 -73 34 -73 74z" />
    <glyph glyph-name="quotedbl" unicode="&#x22;" horiz-adv-x="354" 
d="M80 466l-20 176v75h82v-75l-19 -176h-43zM231 466l-19 176v75h82v-75l-19 -176h-44z" />
    <glyph glyph-name="numbersign" unicode="#" horiz-adv-x="550" 
d="M294 0l29 209h-127l-29 -209h-71l29 209h-96v68h105l20 146h-95v68h105l29 209h72l-29 -209h126l29 209h72l-29 -209h87v-68h-97l-20 -146h87v-68h-97l-29 -209h-71zM226 423l-20 -146h126l20 146h-126z" />
    <glyph glyph-name="dollar" unicode="$" horiz-adv-x="571" 
d="M350 818v-105c111 -13 186 -94 187 -211h-91c-1 80 -48 132 -127 132c-77 0 -129 -40 -129 -105c0 -76 63 -101 130 -121c108 -35 233 -77 233 -213c0 -124 -85 -197 -203 -209v-104h-67v104c-120 13 -209 101 -209 237h91c0 -96 63 -157 158 -157c81 0 139 46 139 119
c0 85 -72 109 -133 127c-125 40 -230 75 -230 217c0 99 75 172 184 185v104h67z" />
    <glyph glyph-name="percent" unicode="%" horiz-adv-x="916" 
d="M842 259v-135c0 -72 -56 -132 -141 -132c-87 0 -141 61 -141 134v135c0 71 55 132 141 132s141 -62 141 -134zM632 126c0 -40 27 -74 69 -74s70 34 70 74v133c0 40 -28 73 -70 73s-69 -33 -69 -73v-133zM73 440c0 -72 54 -133 141 -133c85 0 141 60 141 131v136
c0 72 -55 133 -141 133s-141 -60 -141 -131v-136zM284 574v-134c0 -39 -28 -73 -70 -73s-69 34 -69 73v134c0 39 27 73 69 73s70 -34 70 -73zM202 -1l437 753l69 -40l-437 -753z" />
    <glyph glyph-name="ampersand" unicode="&#x26;" horiz-adv-x="599" 
d="M345 234v81h233v-81h-60c-1 -150 -102 -245 -235 -245c-125 0 -236 80 -236 214c0 83 51 132 124 162c-67 27 -109 73 -109 157c0 114 98 189 218 189c127 0 217 -85 217 -209h-91c0 75 -41 127 -130 127c-72 0 -122 -39 -122 -107c0 -66 34 -116 133 -116h15v-81h-15
c-104 0 -149 -55 -149 -132c0 -65 55 -122 145 -122c86 0 143 65 144 163h-82z" />
    <glyph glyph-name="quotesingle" unicode="'" horiz-adv-x="202" 
d="M80 466l-20 176v75h82v-75l-19 -176h-43z" />
    <glyph glyph-name="parenleft" unicode="(" horiz-adv-x="368" 
d="M340 794v-82c-89 0 -147 -71 -147 -156v-560c0 -85 58 -156 147 -156v-82c-144 0 -238 109 -238 238v560c0 129 94 238 238 238z" />
    <glyph glyph-name="parenright" unicode=")" horiz-adv-x="368" 
d="M28 712v82c144 0 238 -109 238 -238v-560c0 -129 -94 -238 -238 -238v82c89 0 147 71 147 156v560c0 85 -58 156 -147 156z" />
    <glyph glyph-name="asterisk" unicode="*" horiz-adv-x="458" 
d="M143 363l-50 36l106 128l-148 39l18 55l141 -57l-11 153h61l-11 -153l140 57l18 -55l-148 -39l106 -128l-50 -36l-86 138z" />
    <glyph glyph-name="plus" unicode="+" 
d="M331 86h-87v160h-156v77h156v162h87v-162h156v-77h-156v-160z" />
    <glyph glyph-name="comma" unicode="," horiz-adv-x="270" 
d="M58 64c0 39 30 71 71 71c50 0 84 -42 84 -101c0 -110 -57 -149 -150 -150v43c36 0 60 12 72 31c11 16 15 31 15 44c-4 -4 -14 -8 -23 -8c-42 0 -69 32 -69 70z" />
    <glyph glyph-name="hyphen" unicode="-" horiz-adv-x="294" 
d="M264 324v-78h-234v78h234z" />
    <glyph glyph-name="period" unicode="." horiz-adv-x="255" 
d="M58 64c0 40 31 71 69 71c39 0 71 -31 71 -71c0 -38 -32 -69 -71 -69c-38 0 -69 31 -69 69z" />
    <glyph glyph-name="slash" unicode="/" horiz-adv-x="436" 
d="M5 -37l364 846l79 -34l-364 -846z" />
    <glyph glyph-name="zero" unicode="0" horiz-adv-x="579" 
d="M50 226v248c0 129 94 238 238 238c147 0 241 -109 241 -238v-248c0 -128 -94 -238 -241 -238c-144 0 -238 110 -238 238zM438 226v248c0 85 -59 156 -150 156c-89 0 -147 -71 -147 -156v-248c0 -84 58 -156 147 -156c91 0 150 72 150 156z" />
    <glyph glyph-name="one" unicode="1" horiz-adv-x="345" 
d="M31 511v73c125 0 149 32 149 116h87v-700h-94v511h-142z" />
    <glyph glyph-name="two" unicode="2" horiz-adv-x="527" 
d="M47 0c0 221 75 285 197 349c72 36 149 73 149 167c0 73 -49 113 -123 113c-76 0 -132 -48 -132 -137h-91c0 137 102 219 224 219c125 0 213 -72 213 -203c0 -130 -128 -195 -189 -227c-117 -66 -144 -104 -144 -199h333v-82h-437z" />
    <glyph glyph-name="three" unicode="3" horiz-adv-x="559" 
d="M33 221h91c0 -93 65 -150 150 -150c86 0 138 57 138 125c0 74 -42 129 -142 129h-50v81h50c91 0 127 48 127 116s-49 107 -122 107c-91 0 -130 -52 -130 -127h-92c0 124 89 209 216 209c122 0 219 -75 219 -189c0 -81 -42 -136 -108 -157c73 -23 124 -79 124 -169
c0 -123 -103 -207 -233 -207c-129 0 -238 86 -238 232z" />
    <glyph glyph-name="four" unicode="4" horiz-adv-x="552" 
d="M328 0v225h-260v475h91v-393h169v216h91v-216h105v-82h-105v-225h-91z" />
    <glyph glyph-name="five" unicode="5" horiz-adv-x="598" 
d="M81 298v402h412v-82h-330v-234c29 55 102 80 157 80c146 0 226 -108 226 -237c0 -128 -95 -238 -241 -238c-144 0 -238 110 -238 238h91c0 -84 58 -156 147 -156c92 0 149 72 149 156c0 85 -57 155 -149 155c-59 0 -105 -28 -131 -84h-93z" />
    <glyph glyph-name="six" unicode="6" horiz-adv-x="556" 
d="M275 -11c-144 0 -238 110 -238 238c0 51 16 99 41 139l209 334h105l-160 -246c10 8 28 12 43 12c147 0 241 -110 241 -239c0 -128 -94 -238 -241 -238zM275 71c91 0 150 72 150 156c0 85 -59 156 -150 156c-89 0 -147 -71 -147 -156c0 -84 58 -156 147 -156z" />
    <glyph glyph-name="seven" unicode="7" horiz-adv-x="467" 
d="M38 700h434l-311 -700h-97l278 618h-304v82z" />
    <glyph glyph-name="eight" unicode="8" horiz-adv-x="580" 
d="M290 -11c-146 0 -235 93 -235 208c0 73 37 147 116 169c-71 25 -101 88 -101 151c0 108 83 194 220 194s220 -88 220 -194c0 -63 -30 -126 -101 -151c79 -22 116 -98 116 -169c0 -112 -88 -208 -235 -208zM290 397c81 0 128 52 128 116s-48 116 -128 116
c-79 0 -128 -52 -128 -116c0 -65 48 -116 128 -116zM290 71c90 0 144 57 144 126c0 68 -52 126 -144 126s-144 -57 -144 -126c0 -70 55 -126 144 -126z" />
    <glyph glyph-name="nine" unicode="9" horiz-adv-x="556" 
d="M281 711c144 0 238 -109 238 -238c0 -51 -17 -98 -42 -139l-208 -334h-105l159 244c-7 -7 -20 -9 -31 -9c-153 0 -252 102 -252 238c0 129 94 238 241 238zM281 629c-91 0 -150 -71 -150 -156s59 -156 150 -156c89 0 147 71 147 156s-58 156 -147 156z" />
    <glyph glyph-name="colon" unicode=":" horiz-adv-x="255" 
d="M58 398c0 40 31 71 69 71c39 0 71 -31 71 -71c0 -38 -32 -69 -71 -69c-38 0 -69 31 -69 69zM58 64c0 39 31 71 69 71c39 0 71 -32 71 -71c0 -38 -32 -70 -71 -70c-38 0 -69 32 -69 70z" />
    <glyph glyph-name="semicolon" unicode=";" horiz-adv-x="263" 
d="M58 64c0 39 30 71 71 71c50 0 84 -42 84 -101c0 -110 -57 -149 -150 -150v43c36 0 60 12 72 31c11 16 15 31 15 44c-4 -4 -14 -8 -23 -8c-42 0 -69 32 -69 70zM58 399c0 39 31 70 69 70c39 0 71 -31 71 -70s-32 -70 -71 -70c-38 0 -69 31 -69 70z" />
    <glyph glyph-name="less" unicode="&#x3c;" 
d="M541 72l-507 180v63l507 181v-83l-379 -129l379 -130v-82z" />
    <glyph glyph-name="equal" unicode="=" 
d="M490 326h-404v77h404v-77zM490 164h-404v78h404v-78z" />
    <glyph glyph-name="greater" unicode="&#x3e;" 
d="M541 252l-507 -180v82l379 130l-379 129v83l507 -181v-63z" />
    <glyph glyph-name="question" unicode="?" horiz-adv-x="504" 
d="M182 188c1 95 22 145 88 190c39 28 99 68 99 141s-49 111 -125 111c-74 0 -130 -48 -130 -137h-91c0 137 99 219 221 219c124 0 216 -74 216 -193c0 -98 -69 -148 -109 -177c-64 -48 -81 -66 -81 -154h-88zM154 60c0 40 31 72 72 72s74 -32 74 -72s-33 -74 -74 -74
s-72 34 -72 74z" />
    <glyph glyph-name="at" unicode="@" horiz-adv-x="854" 
d="M551 80c-25 -48 -81 -79 -138 -79c-120 0 -202 95 -202 205c0 111 82 206 202 206c57 0 113 -30 138 -79v70h73v-283c0 -62 22 -93 62 -93c46 0 80 51 80 232c0 180 -125 289 -320 289c-186 0 -346 -130 -346 -342c0 -171 120 -338 361 -338c56 0 130 11 202 50l27 -58
c-82 -46 -166 -58 -229 -58c-290 0 -435 199 -435 404c0 252 195 408 420 408c241 0 394 -132 394 -355c0 -212 -57 -299 -167 -299c-68 0 -108 45 -122 102v18zM416 67c82 0 135 64 135 139c0 76 -53 140 -135 140c-79 0 -131 -64 -131 -140c0 -75 52 -139 131 -139z" />
    <glyph glyph-name="A" unicode="A" horiz-adv-x="559" 
d="M554 0h-96l-37 107h-284l-36 -107h-96l241 700h66zM393 190l-113 361l-115 -361h228z" />
    <glyph glyph-name="B" unicode="B" horiz-adv-x="591" 
d="M78 0v700h239c169 0 213 -107 213 -187c0 -85 -61 -145 -125 -158c54 -4 130 -62 130 -161c0 -80 -48 -194 -217 -194h-240zM324 312h-155v-230h153c92 0 122 62 122 115c0 47 -33 115 -120 115zM169 395h150c91 0 120 64 120 111c0 48 -29 112 -122 112h-148v-223z" />
    <glyph glyph-name="C" unicode="C" horiz-adv-x="775" 
d="M636 216h100c-35 -131 -161 -232 -328 -232c-229 0 -367 171 -367 367c0 190 135 365 354 365c203 0 315 -115 341 -261h-96c-21 102 -104 179 -234 179c-172 0 -272 -136 -272 -283c0 -154 104 -285 285 -285c96 0 188 63 217 150z" />
    <glyph glyph-name="D" unicode="D" horiz-adv-x="697" 
d="M78 700h216c232 0 363 -173 363 -350s-131 -350 -363 -350h-216v700zM294 618h-125v-536h125c172 0 269 133 269 268c0 136 -97 268 -269 268z" />
    <glyph glyph-name="E" unicode="E" horiz-adv-x="544" 
d="M471 618h-302v-229h302v-82h-302v-225h302v-82h-393v700h393v-82z" />
    <glyph glyph-name="F" unicode="F" horiz-adv-x="538" 
d="M471 618h-302v-250h302v-82h-302v-286h-91v700h393v-82z" />
    <glyph glyph-name="G" unicode="G" horiz-adv-x="836" 
d="M473 255v82h337v-82h-75c-27 -161 -140 -271 -335 -271c-230 0 -359 177 -359 366c0 190 137 366 359 366c157 0 276 -95 293 -211h-92c-18 72 -97 129 -201 129c-166 0 -266 -137 -266 -284s93 -284 277 -284c136 0 213 84 227 189h-165z" />
    <glyph glyph-name="H" unicode="H" horiz-adv-x="664" 
d="M495 0v307h-326v-307h-91v700h91v-311h326v311h91v-700h-91z" />
    <glyph glyph-name="I" unicode="I" horiz-adv-x="250" 
d="M78 0v700h94v-700h-94z" />
    <glyph glyph-name="J" unicode="J" horiz-adv-x="536" 
d="M465 700v-478c0 -137 -84 -238 -224 -238c-139 0 -227 102 -227 238h91c0 -93 53 -156 136 -156c84 0 133 62 133 156v478h91z" />
    <glyph glyph-name="K" unicode="K" horiz-adv-x="590" 
d="M463 0l-294 318v-318h-91v700h91v-318l294 318h115l-320 -350l320 -350h-115z" />
    <glyph glyph-name="L" unicode="L" horiz-adv-x="425" 
d="M169 82h229v-82h-320v700h91v-618z" />
    <glyph glyph-name="M" unicode="M" horiz-adv-x="812" 
d="M734 700v-700h-92v488l-201 -488h-70l-202 488v-488h-91v700h88l240 -560l240 560h88z" />
    <glyph glyph-name="N" unicode="N" horiz-adv-x="663" 
d="M179 700l315 -541v541h91v-700h-101l-315 541v-541h-91v700h101z" />
    <glyph glyph-name="O" unicode="O" horiz-adv-x="803" 
d="M402 -16c-225 0 -361 177 -361 366c0 190 136 366 361 366c224 0 361 -176 361 -366c0 -189 -137 -366 -361 -366zM402 66c164 0 265 138 265 284c0 147 -101 284 -265 284c-165 0 -266 -137 -266 -284c0 -146 101 -284 266 -284z" />
    <glyph glyph-name="P" unicode="P" horiz-adv-x="596" 
d="M78 0v700h246c146 0 240 -110 240 -238c0 -129 -94 -239 -240 -239h-155v-223h-91zM324 306c91 0 149 71 149 156c0 84 -58 156 -149 156h-155v-312h155z" />
    <glyph glyph-name="Q" unicode="Q" horiz-adv-x="803" 
d="M763 350c0 -167 -104 -310 -263 -351l62 -87l-81 -40l-80 112c-225 1 -360 177 -360 366c0 190 136 366 361 366c224 0 361 -176 361 -366zM402 66c164 0 265 138 265 284c0 147 -101 284 -265 284c-165 0 -266 -137 -266 -284c0 -146 101 -284 266 -284z" />
    <glyph glyph-name="R" unicode="R" horiz-adv-x="606" 
d="M78 0v700h246c146 0 240 -110 240 -238c0 -102 -59 -191 -155 -224l147 -238h-104l-139 223h-144v-223h-91zM324 306c91 0 149 71 149 156c0 84 -58 156 -149 156h-155v-312h155z" />
    <glyph glyph-name="S" unicode="S" horiz-adv-x="571" 
d="M45 223h91c0 -96 63 -157 158 -157c81 0 139 46 139 119c0 85 -72 109 -133 127c-126 40 -230 75 -230 217c0 111 92 187 218 187c127 0 219 -85 220 -214h-91c-1 80 -49 132 -127 132c-77 0 -129 -40 -129 -105c0 -76 63 -101 130 -121c108 -35 233 -77 233 -213
c0 -137 -104 -211 -237 -211c-135 0 -242 90 -242 239z" />
    <glyph glyph-name="T" unicode="T" horiz-adv-x="478" 
d="M193 0v618h-181v82h454v-82h-182v-618h-91z" />
    <glyph glyph-name="U" unicode="U" horiz-adv-x="629" 
d="M71 227v473h91v-473c0 -87 60 -161 151 -161c94 0 154 74 154 161v473h91v-473c0 -132 -95 -243 -245 -243c-146 0 -242 111 -242 243z" />
    <glyph glyph-name="V" unicode="V" horiz-adv-x="563" 
d="M559 700l-244 -700h-66l-245 700h96l182 -550l181 550h96z" />
    <glyph glyph-name="W" unicode="W" horiz-adv-x="964" 
d="M652 0l-170 542l-169 -542h-68l-239 700h96l176 -542l170 542h69l170 -542l176 542h96l-240 -700h-67z" />
    <glyph glyph-name="X" unicode="X" horiz-adv-x="548" 
d="M274 429l161 271h104l-213 -350l213 -350h-104l-161 271l-161 -271h-103l212 350l-212 350h103z" />
    <glyph glyph-name="Y" unicode="Y" horiz-adv-x="591" 
d="M586 700l-352 -700h-100l140 278l-264 422h106l205 -327l165 327h100z" />
    <glyph glyph-name="Z" unicode="Z" horiz-adv-x="565" 
d="M35 618v82h521l-389 -618h392v-82h-545l389 618h-368z" />
    <glyph glyph-name="bracketleft" unicode="[" horiz-adv-x="335" 
d="M275 -234h-197v1029h197v-78h-110v-874h110v-77z" />
    <glyph glyph-name="backslash" unicode="\" horiz-adv-x="436" 
d="M74 809l364 -846l-79 -34l-364 846z" />
    <glyph glyph-name="bracketright" unicode="]" horiz-adv-x="335" 
d="M257 -234h-197v77h110v873h-110v78h197v-1028z" />
    <glyph glyph-name="asciicircum" unicode="^" horiz-adv-x="638" 
d="M578 323h-98l-162 318l-163 -318h-95l226 427h62z" />
    <glyph glyph-name="underscore" unicode="_" horiz-adv-x="560" 
d="M530 -111h-500v61h500v-61z" />
    <glyph glyph-name="grave" unicode="`" horiz-adv-x="495" 
d="M338 527l-249 137l42 68l249 -137z" />
    <glyph glyph-name="a" unicode="a" horiz-adv-x="597" 
d="M433 454h86v-454h-86v79c-29 -55 -93 -90 -159 -90c-139 0 -233 110 -233 238c0 129 94 239 233 239c66 0 130 -35 159 -90v78zM279 67c94 0 154 73 154 160s-60 161 -154 161c-92 0 -152 -74 -152 -161s60 -160 152 -160z" />
    <glyph glyph-name="b" unicode="b" horiz-adv-x="599" 
d="M165 79v-79h-87v700h87v-324c29 55 92 90 158 90c140 0 234 -110 234 -239c0 -128 -94 -238 -234 -238c-66 0 -129 35 -158 90zM319 67c91 0 151 73 151 160s-60 161 -151 161c-94 0 -154 -74 -154 -161s60 -160 154 -160z" />
    <glyph glyph-name="c" unicode="c" horiz-adv-x="529" 
d="M484 289h-87c-7 56 -41 99 -126 99c-94 0 -141 -76 -141 -161c0 -86 45 -160 146 -160c75 0 108 35 122 89h87c-14 -94 -83 -167 -215 -167c-148 0 -227 115 -227 238s79 239 226 239s207 -89 215 -177z" />
    <glyph glyph-name="d" unicode="d" horiz-adv-x="597" 
d="M433 0v79c-29 -55 -93 -90 -159 -90c-139 0 -233 110 -233 238c0 129 94 239 233 239c66 0 130 -35 159 -90v324h86v-700h-86zM279 67c94 0 154 73 154 160s-60 161 -154 161c-92 0 -152 -74 -152 -161s60 -160 152 -160z" />
    <glyph glyph-name="e" unicode="e" horiz-adv-x="525" 
d="M265 399c-78 0 -133 -47 -135 -129h263c0 79 -55 129 -128 129zM473 204h-344c4 -77 41 -142 141 -142c68 0 101 33 115 72h88c-15 -77 -89 -145 -203 -145c-153 0 -227 107 -227 238c0 137 81 239 224 239c118 0 210 -89 210 -205c0 -13 0 -32 -4 -57z" />
    <glyph glyph-name="f" unicode="f" horiz-adv-x="347" 
d="M336 694v-74c-16 5 -31 8 -51 8c-37 0 -79 -4 -79 -86v-88h130v-73h-130v-381h-87v381h-98v73h98v79c0 165 101 173 155 173c28 0 49 -5 62 -12z" />
    <glyph glyph-name="g" unicode="g" horiz-adv-x="595" 
d="M279 388c-92 0 -152 -74 -152 -161s60 -160 152 -160c94 0 154 73 154 160s-60 161 -154 161zM519 454v-483c0 -162 -91 -227 -242 -227c-155 0 -224 96 -230 198h88c5 -64 47 -121 142 -121c97 0 156 43 156 150v108c-29 -55 -93 -90 -159 -90c-139 0 -233 110 -233 238
c0 129 94 239 233 239c66 0 130 -35 159 -90v78h86z" />
    <glyph glyph-name="h" unicode="h" horiz-adv-x="565" 
d="M78 0v700h87v-326c27 55 83 92 160 92c63 0 109 -22 136 -60c25 -34 35 -74 35 -138v-268h-87v241c0 84 -30 148 -115 148c-87 0 -129 -74 -129 -155v-234h-87z" />
    <glyph glyph-name="i" unicode="i" horiz-adv-x="243" 
d="M78 0v454h87v-454h-87zM52 626c0 39 31 71 69 71c39 0 71 -32 71 -71c0 -38 -32 -69 -71 -69c-38 0 -69 31 -69 69z" />
    <glyph glyph-name="j" unicode="j" horiz-adv-x="243" 
d="M165 454v-576c0 -98 -51 -133 -106 -133c-30 0 -56 5 -71 12v77c21 -5 30 -6 44 -6c30 0 46 23 46 63v563h87zM52 626c0 39 31 71 69 71c40 0 71 -32 71 -71c0 -38 -31 -69 -71 -69c-38 0 -69 31 -69 69z" />
    <glyph glyph-name="k" unicode="k" horiz-adv-x="477" 
d="M465 454l-207 -227l207 -227h-110l-190 206v-206h-87v700h87v-453l190 207h110z" />
    <glyph glyph-name="l" unicode="l" horiz-adv-x="243" 
d="M78 0v700h87v-700h-87z" />
    <glyph glyph-name="m" unicode="m" horiz-adv-x="824" 
d="M753 0h-87v261c0 84 -34 128 -96 128c-67 0 -111 -52 -111 -158v-231h-87v256c0 92 -34 133 -95 133c-66 0 -112 -52 -112 -158v-231h-87v454h87v-81c17 50 67 93 134 93c84 0 129 -39 146 -97c19 52 75 97 146 97c121 0 162 -79 162 -179v-287z" />
    <glyph glyph-name="n" unicode="n" horiz-adv-x="565" 
d="M78 0v454h87v-80c27 55 83 92 160 92c63 0 109 -22 136 -60c25 -34 35 -74 35 -138v-268h-87v241c0 84 -30 148 -115 148c-87 0 -129 -74 -129 -155v-234h-87z" />
    <glyph glyph-name="o" unicode="o" horiz-adv-x="560" 
d="M279 -11c-144 0 -238 110 -238 238c0 129 94 239 238 239c146 0 240 -110 240 -239c0 -128 -94 -238 -240 -238zM279 67c94 0 154 73 154 160s-60 161 -154 161c-92 0 -152 -74 -152 -161s60 -160 152 -160z" />
    <glyph glyph-name="p" unicode="p" horiz-adv-x="599" 
d="M165 454v-78c29 55 92 90 158 90c140 0 234 -110 234 -239c0 -128 -94 -238 -234 -238c-66 0 -129 35 -158 90v-325h-87v700h87zM319 388c-94 0 -154 -74 -154 -161s60 -160 154 -160c91 0 151 73 151 160s-60 161 -151 161z" />
    <glyph glyph-name="q" unicode="q" horiz-adv-x="599" 
d="M434 376v78h87v-700h-87v325c-29 -55 -92 -90 -158 -90c-140 0 -234 110 -234 238c0 129 94 239 234 239c66 0 129 -35 158 -90zM280 388c-91 0 -151 -74 -151 -161s60 -160 151 -160c94 0 154 73 154 160s-60 161 -154 161z" />
    <glyph glyph-name="r" unicode="r" horiz-adv-x="365" 
d="M359 454v-80c-18 4 -27 5 -43 5c-101 0 -151 -71 -151 -180v-199h-87v454h87v-89c24 57 87 96 151 96c17 0 31 -2 43 -7z" />
    <glyph glyph-name="s" unicode="s" horiz-adv-x="452" 
d="M270 253c69 -22 136 -42 136 -128c0 -91 -76 -136 -178 -136c-100 0 -188 54 -188 164h85c0 -69 46 -95 107 -95c55 0 91 20 91 65c0 51 -54 56 -145 87c-69 22 -123 43 -123 125c0 85 75 131 169 131c99 0 175 -62 175 -153h-84c0 53 -32 83 -92 83
c-48 0 -84 -22 -84 -63c0 -46 47 -53 131 -80z" />
    <glyph glyph-name="t" unicode="t" horiz-adv-x="340" 
d="M325 77v-77c-17 -3 -49 -6 -78 -6c-56 0 -143 10 -143 159v228h-84v73h84v153h87v-153h118v-73h-118v-209c0 -88 31 -99 75 -99c18 0 46 2 59 4z" />
    <glyph glyph-name="u" unicode="u" horiz-adv-x="565" 
d="M400 454h87v-454h-87v81c-27 -55 -84 -92 -160 -92c-63 0 -110 22 -137 59c-25 34 -34 75 -34 138v268h87v-240c0 -84 30 -148 114 -148c88 0 130 73 130 155v233z" />
    <glyph glyph-name="v" unicode="v" horiz-adv-x="482" 
d="M4 454h94l142 -330l144 330h94l-208 -454h-60z" />
    <glyph glyph-name="w" unicode="w" horiz-adv-x="734" 
d="M494 0l-127 359l-127 -359h-60l-176 454h93l113 -320l114 320h86l113 -320l114 320h93l-176 -454h-60z" />
    <glyph glyph-name="x" unicode="x" horiz-adv-x="440" 
d="M270 229l154 -229h-100l-104 161l-104 -161h-100l154 229l-152 225h100l102 -158l102 158h100z" />
    <glyph glyph-name="y" unicode="y" horiz-adv-x="573" 
d="M282 -256c-129 0 -209 66 -212 197h88c5 -82 51 -123 126 -123c78 0 127 31 127 135v128c-27 -55 -82 -92 -159 -92c-66 0 -110 21 -138 58c-25 34 -34 75 -34 142v265h87v-238c0 -88 26 -150 116 -150c87 0 128 73 128 155v233h87v-501c0 -145 -76 -209 -216 -209z" />
    <glyph glyph-name="z" unicode="z" horiz-adv-x="434" 
d="M32 454h382l-243 -376h244v-78h-391l243 377h-235v77z" />
    <glyph glyph-name="braceleft" unicode="{" horiz-adv-x="420" 
d="M297 794h66v-66h-46c-50 0 -70 -41 -70 -86v-261c0 -79 -62 -106 -94 -112c32 -7 94 -30 94 -121v-230c0 -44 20 -86 70 -86h46v-66h-66c-65 0 -137 45 -137 139v232c0 69 -60 95 -92 95v72c32 0 92 25 92 88v263c0 94 72 139 137 139z" />
    <glyph glyph-name="bar" unicode="|" horiz-adv-x="243" 
d="M160 -234h-75v1028h75v-1028z" />
    <glyph glyph-name="braceright" unicode="}" horiz-adv-x="420" 
d="M58 794h66c65 0 137 -45 137 -139v-263c0 -63 60 -88 92 -88v-72c-32 0 -92 -26 -92 -95v-232c0 -94 -72 -139 -137 -139h-66v66h45c50 0 70 42 70 86v230c0 91 62 114 94 121c-32 6 -94 33 -94 112v261c0 45 -20 86 -70 86h-45v66z" />
    <glyph glyph-name="asciitilde" unicode="~" horiz-adv-x="518" 
d="M37 214v77c32 40 74 54 107 54c36 0 77 -15 118 -32c39 -16 80 -36 108 -36c45 0 83 29 110 55v-76c-32 -40 -74 -57 -111 -57c-36 0 -70 15 -110 35c-35 17 -75 33 -119 33c-38 0 -76 -25 -103 -53z" />
    <glyph glyph-name="Adieresis" unicode="&#xc4;" horiz-adv-x="559" 
d="M312 700l242 -700h-96l-37 107h-284l-36 -107h-96l241 700h66zM280 551l-115 -361h228zM325 843c0 39 31 71 70 71s70 -32 70 -71c0 -38 -31 -69 -70 -69s-70 31 -70 69zM96 843c0 39 31 71 69 71c39 0 71 -32 71 -71c0 -38 -32 -69 -71 -69c-38 0 -69 31 -69 69z" />
    <glyph glyph-name="Aring" unicode="&#xc5;" horiz-adv-x="559" 
d="M312 700l242 -700h-96l-37 107h-284l-36 -107h-96l241 700h66zM280 551l-115 -361h228zM280 976c68 0 123 -56 123 -123s-55 -123 -123 -123s-123 56 -123 123c0 68 55 123 123 123zM280 920c-38 0 -66 -30 -66 -67c0 -36 29 -65 66 -65s66 29 66 66c0 36 -29 66 -66 66z
" />
    <glyph glyph-name="Ccedilla" unicode="&#xc7;" horiz-adv-x="775" 
d="M736 455h-96c-21 102 -104 179 -234 179c-172 0 -272 -136 -272 -283c0 -154 104 -285 285 -285c96 0 188 63 217 150h100c-34 -127 -154 -226 -314 -231h-8v-51c10 11 27 18 48 18c40 0 77 -30 77 -81c0 -45 -33 -90 -99 -90c-24 0 -87 12 -97 79h53
c5 -20 21 -32 44 -32c27 0 46 18 46 43s-18 43 -43 43c-17 0 -32 -6 -41 -23h-45v96c-199 23 -316 183 -316 364c0 190 135 365 354 365c203 0 315 -115 341 -261z" />
    <glyph glyph-name="Eacute" unicode="&#xc9;" horiz-adv-x="544" 
d="M471 618h-302v-229h302v-82h-302v-225h302v-82h-393v700h393v-82zM423 886l-249 -137l-42 69l249 137z" />
    <glyph glyph-name="Ntilde" unicode="&#xd1;" horiz-adv-x="663" 
d="M179 700l315 -541v541h91v-700h-101l-315 541v-541h-91v700h101zM393 862c30 0 49 22 62 49l64 -33c-32 -60 -81 -85 -125 -85c-68 0 -98 49 -137 49c-30 0 -47 -21 -61 -49l-60 40c31 55 77 78 121 78c68 0 96 -49 136 -49z" />
    <glyph glyph-name="Odieresis" unicode="&#xd6;" horiz-adv-x="803" 
d="M402 -16c-225 0 -361 177 -361 366c0 190 136 366 361 366c224 0 361 -176 361 -366c0 -189 -137 -366 -361 -366zM136 350c0 -146 101 -284 266 -284c164 0 265 138 265 284c0 147 -101 284 -265 284c-165 0 -266 -137 -266 -284zM286 774c-38 0 -69 31 -69 69
c0 39 31 71 69 71c40 0 71 -32 71 -71c0 -38 -31 -69 -71 -69zM446 843c0 39 31 71 70 71s70 -32 70 -71c0 -38 -31 -69 -70 -69s-70 31 -70 69z" />
    <glyph glyph-name="Udieresis" unicode="&#xdc;" horiz-adv-x="629" 
d="M71 227v473h91v-473c0 -87 60 -161 151 -161c94 0 154 74 154 161v473h91v-473c0 -132 -95 -243 -245 -243c-146 0 -242 111 -242 243zM358 843c0 39 31 71 70 71s70 -32 70 -71c0 -38 -31 -69 -70 -69s-70 31 -70 69zM129 843c0 39 31 71 69 71c40 0 71 -32 71 -71
c0 -38 -31 -69 -71 -69c-38 0 -69 31 -69 69z" />
    <glyph glyph-name="aacute" unicode="&#xe1;" horiz-adv-x="597" 
d="M433 454h86v-454h-86v79c-29 -55 -93 -90 -159 -90c-139 0 -233 110 -233 238c0 129 94 239 233 239c66 0 130 -35 159 -90v78zM279 67c94 0 154 73 154 160s-60 161 -154 161c-92 0 -152 -74 -152 -161s60 -160 152 -160zM428 640l-249 -137l-42 68l249 137z" />
    <glyph glyph-name="agrave" unicode="&#xe0;" horiz-adv-x="597" 
d="M433 454h86v-454h-86v79c-29 -55 -93 -90 -159 -90c-139 0 -233 110 -233 238c0 129 94 239 233 239c66 0 130 -35 159 -90v78zM279 67c94 0 154 73 154 160s-60 161 -154 161c-92 0 -152 -74 -152 -161s60 -160 152 -160zM381 503l-249 137l42 68l249 -137z" />
    <glyph glyph-name="acircumflex" unicode="&#xe2;" horiz-adv-x="597" 
d="M433 454h86v-454h-86v79c-29 -55 -93 -90 -159 -90c-139 0 -233 110 -233 238c0 129 94 239 233 239c66 0 130 -35 159 -90v78zM279 67c94 0 154 73 154 160s-60 161 -154 161c-92 0 -152 -74 -152 -161s60 -160 152 -160zM105 585l177 154l178 -154l-50 -56l-127 115
l-127 -114z" />
    <glyph glyph-name="adieresis" unicode="&#xe4;" horiz-adv-x="597" 
d="M519 0h-86v79c-29 -55 -93 -90 -159 -90c-139 0 -233 110 -233 238c0 129 94 239 233 239c66 0 130 -35 159 -90v78h86v-454zM279 67c94 0 154 73 154 160s-60 161 -154 161c-92 0 -152 -74 -152 -161s60 -160 152 -160zM392 540c-38 0 -69 31 -69 70s31 70 69 70
c40 0 71 -31 71 -70s-31 -70 -71 -70zM93 610c0 -39 31 -70 70 -70s70 31 70 70s-31 70 -70 70s-70 -31 -70 -70z" />
    <glyph glyph-name="atilde" unicode="&#xe3;" horiz-adv-x="597" 
d="M433 454h86v-454h-86v79c-29 -55 -93 -90 -159 -90c-139 0 -233 110 -233 238c0 129 94 239 233 239c66 0 130 -35 159 -90v78zM279 67c94 0 154 73 154 160s-60 161 -154 161c-92 0 -152 -74 -152 -161s60 -160 152 -160zM366 640c30 0 49 23 62 49l64 -33
c-32 -60 -81 -84 -125 -84c-68 0 -98 49 -137 49c-30 0 -47 -22 -61 -49l-60 40c31 55 77 77 121 77c68 0 96 -49 136 -49z" />
    <glyph glyph-name="aring" unicode="&#xe5;" horiz-adv-x="597" 
d="M433 454h86v-454h-86v79c-29 -55 -93 -90 -159 -90c-139 0 -233 110 -233 238c0 129 94 239 233 239c66 0 130 -35 159 -90v78zM279 67c94 0 154 73 154 160s-60 161 -154 161c-92 0 -152 -74 -152 -161s60 -160 152 -160zM278 758c71 0 128 -58 128 -127
s-57 -127 -128 -127c-70 0 -127 58 -127 127c0 71 57 127 127 127zM278 705c-40 0 -71 -34 -71 -74c0 -39 31 -72 71 -72c41 0 72 33 72 73s-31 73 -72 73z" />
    <glyph glyph-name="ccedilla" unicode="&#xe7;" horiz-adv-x="529" 
d="M221 -109v102c-116 23 -178 125 -178 234c0 123 79 239 226 239s207 -89 215 -177h-87c-7 56 -41 99 -126 99c-94 0 -141 -76 -141 -161c0 -86 45 -160 146 -160c75 0 108 35 122 89h87c-14 -90 -78 -161 -200 -167c-2 0 -4 0 -6 1v-56c9 11 26 18 48 18
c40 0 76 -30 76 -81c0 -45 -33 -90 -99 -90c-23 0 -87 12 -97 79h53c6 -20 22 -32 44 -32c28 0 46 18 46 43s-18 43 -43 43c-16 0 -31 -6 -40 -23h-46z" />
    <glyph glyph-name="eacute" unicode="&#xe9;" horiz-adv-x="525" 
d="M473 204h-344c4 -77 41 -142 141 -142c68 0 101 33 115 72h88c-15 -77 -89 -145 -203 -145c-153 0 -227 107 -227 238c0 137 81 239 224 239c118 0 210 -89 210 -205c0 -13 0 -32 -4 -57zM265 399c-78 0 -133 -47 -135 -129h263c0 79 -55 129 -128 129zM403 640
l-249 -137l-41 68l249 137z" />
    <glyph glyph-name="egrave" unicode="&#xe8;" horiz-adv-x="525" 
d="M473 204h-344c4 -77 41 -142 141 -142c68 0 101 33 115 72h88c-15 -77 -89 -145 -203 -145c-153 0 -227 107 -227 238c0 137 81 239 224 239c118 0 210 -89 210 -205c0 -13 0 -32 -4 -57zM265 399c-78 0 -133 -47 -135 -129h263c0 79 -55 129 -128 129zM389 503l-249 137
l41 68l249 -137z" />
    <glyph glyph-name="ecircumflex" unicode="&#xea;" horiz-adv-x="525" 
d="M473 204h-344c4 -77 41 -142 141 -142c68 0 101 33 115 72h88c-15 -77 -89 -145 -203 -145c-153 0 -227 107 -227 238c0 137 81 239 224 239c118 0 210 -89 210 -205c0 -13 0 -32 -4 -57zM265 399c-78 0 -133 -47 -135 -129h263c0 79 -55 129 -128 129zM89 585l177 154
l178 -154l-50 -56l-127 115l-127 -114z" />
    <glyph glyph-name="edieresis" unicode="&#xeb;" horiz-adv-x="525" 
d="M473 204h-344c4 -77 41 -142 141 -142c68 0 101 33 115 72h88c-15 -77 -89 -145 -203 -145c-153 0 -227 107 -227 238c0 137 81 239 224 239c118 0 210 -89 210 -205c0 -13 0 -32 -4 -57zM265 399c-78 0 -133 -47 -135 -129h263c0 79 -55 129 -128 129zM310 609
c0 40 31 71 70 71s70 -31 70 -71c0 -38 -31 -69 -70 -69s-70 31 -70 69zM81 609c0 40 31 71 69 71c39 0 71 -31 71 -71c0 -38 -32 -69 -71 -69c-38 0 -69 31 -69 69z" />
    <glyph glyph-name="iacute" unicode="&#xed;" horiz-adv-x="243" 
d="M78 0v454h87v-454h-87zM267 655l-249 -137l-42 68l250 137z" />
    <glyph glyph-name="igrave" unicode="&#xec;" horiz-adv-x="243" 
d="M78 0v454h87v-454h-87zM225 518l-249 137l42 68l249 -137z" />
    <glyph glyph-name="icircumflex" unicode="&#xee;" horiz-adv-x="243" 
d="M78 0v454h87v-454h-87zM-56 585l177 154l178 -154l-50 -56l-127 115l-127 -114z" />
    <glyph glyph-name="idieresis" unicode="&#xef;" horiz-adv-x="243" 
d="M78 0v454h87v-454h-87zM160 610c0 39 31 70 69 70c40 0 71 -31 71 -70s-31 -70 -71 -70c-38 0 -69 31 -69 70zM-40 610c0 39 31 70 70 70s70 -31 70 -70s-31 -70 -70 -70s-70 31 -70 70z" />
    <glyph glyph-name="ntilde" unicode="&#xf1;" horiz-adv-x="565" 
d="M78 0v454h87v-80c27 55 83 92 160 92c63 0 109 -22 136 -60c25 -34 35 -74 35 -138v-268h-87v241c0 84 -30 148 -115 148c-87 0 -129 -74 -129 -155v-234h-87zM357 640c30 0 49 23 62 49l64 -33c-32 -60 -81 -84 -125 -84c-68 0 -98 49 -137 49c-30 0 -47 -22 -61 -49
l-60 40c31 55 77 77 121 77c68 0 96 -49 136 -49z" />
    <glyph glyph-name="oacute" unicode="&#xf3;" horiz-adv-x="560" 
d="M279 -11c-144 0 -238 110 -238 238c0 129 94 239 238 239c146 0 240 -110 240 -239c0 -128 -94 -238 -240 -238zM279 67c94 0 154 73 154 160s-60 161 -154 161c-92 0 -152 -74 -152 -161s60 -160 152 -160zM403 640l-249 -137l-41 68l249 137z" />
    <glyph glyph-name="ograve" unicode="&#xf2;" horiz-adv-x="560" 
d="M279 -11c-144 0 -238 110 -238 238c0 129 94 239 238 239c146 0 240 -110 240 -239c0 -128 -94 -238 -240 -238zM279 67c94 0 154 73 154 160s-60 161 -154 161c-92 0 -152 -74 -152 -161s60 -160 152 -160zM391 503l-249 137l41 68l249 -137z" />
    <glyph glyph-name="ocircumflex" unicode="&#xf4;" horiz-adv-x="560" 
d="M279 -11c-144 0 -238 110 -238 238c0 129 94 239 238 239c146 0 240 -110 240 -239c0 -128 -94 -238 -240 -238zM279 67c94 0 154 73 154 160s-60 161 -154 161c-92 0 -152 -74 -152 -161s60 -160 152 -160zM102 586l176 153l179 -153l-51 -57l-127 115l-126 -114z" />
    <glyph glyph-name="odieresis" unicode="&#xf6;" horiz-adv-x="560" 
d="M165 540c-39 0 -70 31 -70 70s31 70 70 70s70 -31 70 -70s-31 -70 -70 -70zM325 610c0 -39 31 -70 69 -70c39 0 71 31 71 70s-32 70 -71 70c-38 0 -69 -31 -69 -70zM279 -11c146 0 240 110 240 238c0 129 -94 239 -240 239c-144 0 -238 -110 -238 -239
c0 -128 94 -238 238 -238zM279 67c-92 0 -152 73 -152 160s60 161 152 161c94 0 154 -74 154 -161s-60 -160 -154 -160z" />
    <glyph glyph-name="otilde" unicode="&#xf5;" horiz-adv-x="560" 
d="M279 -11c-144 0 -238 110 -238 238c0 129 94 239 238 239c146 0 240 -110 240 -239c0 -128 -94 -238 -240 -238zM279 67c94 0 154 73 154 160s-60 161 -154 161c-92 0 -152 -74 -152 -161s60 -160 152 -160zM345 640c30 0 49 23 62 49l64 -33c-32 -60 -81 -84 -125 -84
c-68 0 -98 49 -137 49c-30 0 -47 -22 -61 -49l-60 40c31 55 77 77 121 77c68 0 96 -49 136 -49z" />
    <glyph glyph-name="uacute" unicode="&#xfa;" horiz-adv-x="565" 
d="M487 454v-454h-87v81c-27 -55 -84 -92 -160 -92c-63 0 -110 22 -137 59c-25 34 -34 75 -34 138v268h87v-240c0 -84 30 -148 114 -148c88 0 130 73 130 155v233h87zM424 640l-249 -137l-41 68l249 137z" />
    <glyph glyph-name="ugrave" unicode="&#xf9;" horiz-adv-x="565" 
d="M487 454v-454h-87v81c-27 -55 -84 -92 -160 -92c-63 0 -110 22 -137 59c-25 34 -34 75 -34 138v268h87v-240c0 -84 30 -148 114 -148c88 0 130 73 130 155v233h87zM387 503l-249 137l42 68l249 -137z" />
    <glyph glyph-name="ucircumflex" unicode="&#xfb;" horiz-adv-x="565" 
d="M487 454v-454h-87v81c-27 -55 -84 -92 -160 -92c-63 0 -110 22 -137 59c-25 34 -34 75 -34 138v268h87v-240c0 -84 30 -148 114 -148c88 0 130 73 130 155v233h87zM107 585l177 154l178 -154l-50 -56l-127 115l-127 -114z" />
    <glyph glyph-name="udieresis" unicode="&#xfc;" horiz-adv-x="565" 
d="M487 454v-454h-87v81c-27 -55 -84 -92 -160 -92c-63 0 -110 22 -137 59c-25 34 -34 75 -34 138v268h87v-240c0 -84 30 -148 114 -148c88 0 130 73 130 155v233h87zM324 610c0 39 31 70 69 70c39 0 71 -31 71 -70s-32 -70 -71 -70c-38 0 -69 31 -69 70zM94 610
c0 39 31 70 70 70s70 -31 70 -70s-31 -70 -70 -70s-70 31 -70 70z" />
    <glyph glyph-name="dagger" unicode="&#x2020;" horiz-adv-x="444" 
d="M266 -182h-87v561h-124v77h124v261h87v-261h123v-77h-123v-561z" />
    <glyph glyph-name="degree" unicode="&#xb0;" horiz-adv-x="329" 
d="M307 574c0 -80 -63 -143 -143 -143s-143 63 -143 143s63 143 143 143s143 -63 143 -143zM245 574c0 44 -36 82 -81 82c-44 0 -80 -38 -80 -82c0 -45 36 -81 80 -81c45 0 81 36 81 81z" />
    <glyph glyph-name="cent" unicode="&#xa2;" horiz-adv-x="564" 
d="M497 376h-87c-6 56 -41 99 -126 99c-93 0 -140 -76 -140 -161c0 -86 44 -160 146 -160c75 0 108 35 122 89h87c-14 -86 -72 -154 -182 -166v-107h-66v108c-127 15 -194 122 -194 236s68 221 194 237v107h66v-107c122 -13 173 -95 180 -175z" />
    <glyph glyph-name="sterling" unicode="&#xa3;" horiz-adv-x="588" 
d="M199 525c-2 -10 0 -77 0 -121h166v-66h-166c-1 -37 -3 -121 -6 -151c-4 -53 -12 -87 -28 -105h325v-82h-428v69c20 22 31 56 36 112c6 31 8 117 9 155h-68v67h68v109c0 117 98 199 219 199c129 0 220 -92 220 -219h-91c0 78 -42 136 -133 136c-68 0 -117 -38 -123 -103z
" />
    <glyph glyph-name="section" unicode="&#xa7;" horiz-adv-x="580" 
d="M276 80c-123 37 -232 76 -232 191c0 74 43 131 115 150c-49 31 -76 79 -76 141c0 109 100 177 222 177c125 0 221 -84 221 -203h-92c0 73 -53 126 -129 126c-74 0 -130 -33 -130 -100c0 -70 66 -95 132 -114c122 -37 232 -76 232 -191c0 -75 -57 -140 -113 -151
c54 -32 80 -79 80 -141c0 -111 -99 -175 -222 -175c-130 0 -229 85 -229 207h92c0 -76 56 -131 137 -131c75 0 130 30 130 99c0 64 -56 92 -138 115zM447 248c0 47 -27 67 -80 89c-22 13 -84 31 -124 43c-65 -3 -106 -48 -106 -100c0 -46 27 -70 84 -93
c25 -14 94 -33 121 -41c57 3 105 47 105 102z" />
    <glyph glyph-name="bullet" unicode="&#x2022;" horiz-adv-x="348" 
d="M58 312c0 65 52 117 116 117c65 0 117 -52 117 -117c0 -64 -52 -116 -117 -116c-64 0 -116 52 -116 116z" />
    <glyph glyph-name="paragraph" unicode="&#xb6;" horiz-adv-x="653" 
d="M231 -148v477c-123 0 -216 61 -216 191c0 176 162 197 249 197h319v-72h-53v-793h-83v792h-134v-792h-82z" />
    <glyph glyph-name="germandbls" unicode="&#xdf;" horiz-adv-x="562" 
d="M209 0v76c25 -6 58 -10 79 -10c75 0 143 44 143 131c0 57 -45 129 -145 129h-43v78h40c91 0 131 54 131 119c0 67 -56 112 -130 112c-76 0 -127 -54 -127 -132v-503h-86v503c0 124 86 209 213 209c120 0 217 -75 217 -189c0 -84 -45 -137 -117 -158
c76 -22 134 -86 134 -168c0 -141 -113 -209 -230 -209c-32 0 -63 6 -79 12z" />
    <glyph glyph-name="registered" unicode="&#xae;" horiz-adv-x="808" 
d="M404 -17c-225 0 -362 177 -362 367s137 367 362 367s362 -177 362 -367s-137 -367 -362 -367zM404 40c181 0 291 150 291 310c0 161 -110 310 -291 310s-291 -149 -291 -310c0 -160 110 -310 291 -310zM337 158h-63v407h158c84 0 139 -64 139 -139
c0 -59 -34 -110 -91 -129l87 -139h-71l-81 130h-78v-130zM337 343h89c48 0 78 38 78 83s-30 84 -78 84h-89v-167z" />
    <glyph glyph-name="copyright" unicode="&#xa9;" horiz-adv-x="806" 
d="M403 -17c-224 0 -361 177 -361 367s137 367 361 367s361 -177 361 -367s-137 -367 -361 -367zM532 273h63c-20 -74 -92 -130 -185 -130c-131 0 -208 96 -208 208c0 107 75 207 201 207c115 0 177 -65 192 -149h-61c-14 54 -57 96 -131 96c-89 0 -142 -74 -142 -154
c0 -83 56 -155 149 -155c58 0 104 33 122 77zM403 40c180 0 290 150 290 310c0 161 -110 310 -290 310s-290 -149 -290 -310c0 -160 110 -310 290 -310z" />
    <glyph glyph-name="trademark" unicode="&#x2122;" horiz-adv-x="811" 
d="M370 293v407h107l101 -294l101 294h107v-407h-65v334l-114 -334h-58l-114 334v-334h-65zM40 700h264v-59h-100v-348h-65v348h-99v59z" />
    <glyph glyph-name="acute" unicode="&#xb4;" horiz-adv-x="495" 
d="M351 664l-249 -137l-42 68l249 137z" />
    <glyph glyph-name="dieresis" unicode="&#xa8;" horiz-adv-x="556" 
d="M320 642c0 38 29 68 66 68c38 0 68 -30 68 -68c0 -37 -30 -66 -68 -66c-37 0 -66 29 -66 66zM90 642c0 38 30 68 67 68s67 -30 67 -68c0 -37 -30 -66 -67 -66s-67 29 -67 66z" />
    <glyph glyph-name="notequal" unicode="&#x2260;" 
d="M490 164h-223l-51 -112h-73l51 112h-108v78h142l40 84h-182v77h216l51 112h73l-51 -112h115v-77h-149l-40 -84h189v-78z" />
    <glyph glyph-name="AE" unicode="&#xc6;" horiz-adv-x="865" 
d="M788 618h-301v-229h301v-82h-301v-225h301v-82h-393v108h-241l-52 -108h-100l345 700h441v-82zM193 190h202v418z" />
    <glyph glyph-name="Oslash" unicode="&#xd8;" horiz-adv-x="803" 
d="M402 -16c-43 0 -83 6 -118 18l-37 -86l-62 27l37 86c-116 64 -181 189 -181 321c0 190 136 366 361 366c38 0 75 -5 107 -16l35 80l61 -27l-33 -78c121 -62 191 -190 191 -325c0 -189 -137 -366 -361 -366zM402 66c164 0 265 138 265 284c0 99 -48 195 -130 245
l-220 -515c25 -9 54 -14 85 -14zM136 350c0 -96 44 -188 121 -240l220 513c-23 7 -49 11 -75 11c-165 0 -266 -137 -266 -284z" />
    <glyph glyph-name="infinity" unicode="&#x221e;" horiz-adv-x="830" 
d="M600 491c134 0 204 -94 204 -202s-70 -202 -204 -202c-66 0 -135 37 -185 119c-51 -82 -119 -119 -185 -119c-136 0 -204 100 -204 202c0 103 68 202 204 202c66 0 134 -38 185 -119c50 81 119 119 185 119zM600 413c-48 0 -104 -39 -140 -124c36 -86 92 -124 140 -124
c80 0 122 58 122 124s-42 124 -122 124zM230 413c-80 0 -122 -58 -122 -124s42 -124 122 -124c47 0 103 38 140 124c-37 85 -93 124 -140 124z" />
    <glyph glyph-name="plusminus" unicode="&#xb1;" 
d="M331 219h-87v160h-156v78h156v161h87v-161h156v-78h-156v-160zM487 24h-399v78h399v-78z" />
    <glyph glyph-name="lessequal" unicode="&#x2264;" 
d="M487 334v-80l-399 144v63l399 145v-81l-274 -95zM487 24h-399v78h399v-78z" />
    <glyph glyph-name="greaterequal" unicode="&#x2265;" 
d="M88 254v80l274 96l-274 95v81l399 -145v-63zM487 24h-399v78h399v-78z" />
    <glyph glyph-name="yen" unicode="&#xa5;" horiz-adv-x="593" 
d="M-22 700h106l214 -330l211 330h105l-259 -406h146v-66h-162v-78h162v-66h-162v-84h-83v84h-159v66h159v78h-159v66h143z" />
    <glyph glyph-name="mu" unicode="&#x3bc;" 
d="M78 -246v700h87v-240c0 -84 30 -148 115 -148c87 0 129 73 129 155v233h87v-454h-87v81c-27 -55 -83 -92 -160 -92c-35 0 -63 9 -84 28v-263h-87z" />
    <glyph glyph-name="partialdiff" unicode="&#x2202;" 
d="M281 442c56 0 121 -25 159 -75v8c-7 211 -55 261 -151 261c-90 0 -144 -71 -144 -165h-91c0 136 90 245 235 245c162 0 239 -95 239 -407c0 -238 -97 -326 -249 -326c-140 0 -228 103 -228 227s90 232 230 232zM281 362c-88 0 -145 -68 -145 -152s55 -146 143 -146
c95 0 156 47 162 217c-38 58 -94 81 -160 81z" />
    <glyph glyph-name="summation" unicode="&#x2211;" 
d="M542 -246h-519v85l357 439l-357 438v78h519v-81h-404l356 -424l-356 -446h404v-89z" />
    <glyph glyph-name="product" unicode="&#x220f;" horiz-adv-x="645" 
d="M633 794v-81h-63v-959h-91v959h-313v-959h-91v959h-63v81h621z" />
    <glyph glyph-name="pi" unicode="&#x3c0;" 
d="M527 454v-77h-63v-377h-86v377h-181v-377h-86v377h-63v77h479z" />
    <glyph glyph-name="integral" unicode="&#x222b;" horiz-adv-x="286" 
d="M181 656v-779c0 -98 -47 -133 -98 -133c-33 0 -62 5 -78 12v73c20 -6 30 -8 44 -8c29 0 46 19 46 61v780c0 98 46 132 97 132c33 0 62 -4 79 -11v-74c-21 7 -30 9 -45 9c-29 0 -45 -19 -45 -62z" />
    <glyph glyph-name="ordfeminine" unicode="&#xaa;" horiz-adv-x="597" 
d="M433 454h86v-454h-86v79c-29 -55 -93 -90 -159 -90c-139 0 -233 110 -233 238c0 129 94 239 233 239c66 0 130 -35 159 -90v78zM279 67c94 0 154 73 154 160s-60 161 -154 161c-92 0 -152 -74 -152 -161s60 -160 152 -160z" />
    <glyph glyph-name="ordmasculine" unicode="&#xba;" horiz-adv-x="560" 
d="M279 -11c-144 0 -238 110 -238 238c0 129 94 239 238 239c146 0 240 -110 240 -239c0 -128 -94 -238 -240 -238zM279 67c94 0 154 73 154 160s-60 161 -154 161c-92 0 -152 -74 -152 -161s60 -160 152 -160z" />
    <glyph glyph-name="Omega" unicode="&#x3a9;" horiz-adv-x="718" 
d="M359 630c-145 0 -222 -105 -222 -227c0 -115 62 -219 184 -243v-160h-255v82h183v28c-125 43 -203 157 -203 289c0 169 118 313 313 313s313 -144 313 -313c0 -132 -78 -247 -203 -289v-28h183v-82h-255v160c122 24 184 128 184 243c0 122 -77 227 -222 227z" />
    <glyph glyph-name="ae" unicode="&#xe6;" horiz-adv-x="914" 
d="M433 454h86v-40c33 32 79 52 137 52c118 0 211 -89 211 -205c0 -13 0 -32 -4 -57h-342c1 -80 42 -142 138 -142c68 0 100 33 115 72h88c-16 -77 -89 -145 -203 -145c-61 0 -108 21 -140 52v-41h-86v79c-29 -55 -93 -90 -159 -90c-139 0 -233 110 -233 238
c0 129 94 239 233 239c66 0 130 -35 159 -90v78zM654 392c-75 0 -130 -45 -132 -122h260c0 73 -55 122 -128 122zM279 67c94 0 154 73 154 160c0 89 -62 161 -154 161s-152 -74 -152 -161s60 -160 152 -160z" />
    <glyph glyph-name="oslash" unicode="&#xf8;" horiz-adv-x="560" 
d="M426 507l-30 -69c77 -41 123 -121 123 -211c0 -128 -94 -238 -240 -238c-26 0 -51 3 -73 11l-32 -75l-54 22l32 76c-70 42 -111 119 -111 204c0 129 94 239 238 239c22 0 42 -4 62 -8l31 71zM279 67c94 0 154 73 154 160c0 56 -26 106 -70 135l-125 -290
c13 -4 26 -5 41 -5zM127 227c0 -51 22 -98 58 -128l124 285c-10 2 -20 4 -30 4c-92 0 -152 -74 -152 -161z" />
    <glyph glyph-name="questiondown" unicode="&#xbf;" horiz-adv-x="504" 
d="M322 266c-1 -94 -22 -144 -88 -190c-39 -28 -99 -67 -99 -141c0 -73 49 -111 125 -111c74 0 130 49 130 137h91c0 -137 -99 -219 -221 -219c-124 0 -216 74 -216 193c0 98 69 148 109 177c64 49 81 67 81 154h88zM350 395c0 -40 -31 -73 -72 -73s-74 33 -74 73
s33 73 74 73s72 -33 72 -73z" />
    <glyph glyph-name="exclamdown" unicode="&#xa1;" horiz-adv-x="296" 
d="M102 -246v488h95v-488h-95zM79 397c0 40 32 71 70 71c39 0 71 -31 71 -71c0 -38 -32 -70 -71 -70c-38 0 -70 32 -70 70z" />
    <glyph glyph-name="logicalnot" unicode="&#xac;" 
d="M403 155v149h-317v78h404v-227h-87z" />
    <glyph glyph-name="radical" unicode="&#x221a;" horiz-adv-x="686" 
d="M3 154v78h182l106 -316l296 878h96l-359 -1028h-66l-137 388h-118z" />
    <glyph glyph-name="florin" unicode="&#x192;" horiz-adv-x="426" 
d="M-63 -197l13 74c15 -5 30 -8 50 -8c37 0 75 5 95 86l75 426h-98l13 73h97l14 79c29 165 131 173 185 173c29 0 48 -5 61 -12l-13 -74c-15 5 -30 8 -50 8c-37 0 -80 -4 -95 -86l-15 -88h131l-13 -73h-131l-73 -417c-29 -165 -131 -173 -185 -173c-29 0 -48 5 -61 12z" />
    <glyph glyph-name="approxequal" unicode="&#x2248;" 
d="M65 155v77l1 1v71c32 41 74 55 107 55c36 0 77 -15 118 -32c39 -16 80 -36 108 -36c45 0 83 28 110 54v-76l-1 -1v-71c-32 -39 -74 -56 -110 -56s-71 15 -110 34c-35 17 -75 34 -119 34c-38 0 -76 -26 -104 -54z" />
    <glyph glyph-name="Delta" unicode="&#x394;" horiz-adv-x="559" 
d="M280 551l-149 -469h297zM312 700l242 -700h-549l241 700h66z" />
    <glyph glyph-name="guillemotleft" unicode="&#xab;" horiz-adv-x="472" 
d="M432 183v-85l-196 167v53l196 167v-86l-126 -108zM236 183v-85l-196 167v53l196 167v-86l-126 -108z" />
    <glyph glyph-name="guillemotright" unicode="&#xbb;" horiz-adv-x="472" 
d="M40 98v85l126 108l-126 108v86l196 -167v-53zM236 98v85l126 108l-126 108v86l196 -167v-53z" />
    <glyph glyph-name="ellipsis" unicode="&#x2026;" horiz-adv-x="939" 
d="M58 64c0 40 31 71 69 71c39 0 71 -31 71 -71c0 -38 -32 -69 -71 -69c-38 0 -69 31 -69 69zM400 64c0 39 31 70 69 70c39 0 71 -31 71 -70s-32 -70 -71 -70c-38 0 -69 31 -69 70zM742 63c0 39 31 70 69 70c39 0 71 -31 71 -70s-32 -70 -71 -70c-38 0 -69 31 -69 70z" />
    <glyph glyph-name="Agrave" unicode="&#xc0;" horiz-adv-x="559" 
d="M312 700l242 -700h-96l-37 107h-284l-36 -107h-96l241 700h66zM280 551l-115 -361h228zM400 749l-249 137l42 69l249 -137z" />
    <glyph glyph-name="Atilde" unicode="&#xc3;" horiz-adv-x="559" 
d="M312 700l242 -700h-96l-37 107h-284l-36 -107h-96l241 700h66zM280 551l-115 -361h228zM348 862c30 0 49 22 62 49l64 -33c-32 -60 -81 -85 -125 -85c-68 0 -98 49 -137 49c-30 0 -47 -21 -61 -49l-60 40c31 55 77 78 121 78c68 0 96 -49 136 -49z" />
    <glyph glyph-name="Otilde" unicode="&#xd5;" horiz-adv-x="803" 
d="M402 -16c-225 0 -361 177 -361 366c0 190 136 366 361 366c224 0 361 -176 361 -366c0 -189 -137 -366 -361 -366zM402 66c164 0 265 138 265 284c0 147 -101 284 -265 284c-165 0 -266 -137 -266 -284c0 -146 101 -284 266 -284zM473 862c29 0 49 22 62 49l63 -33
c-31 -60 -80 -85 -124 -85c-68 0 -98 49 -137 49c-30 0 -47 -21 -61 -49l-60 40c31 55 76 78 121 78c68 0 96 -49 136 -49z" />
    <glyph glyph-name="OE" unicode="&#x152;" horiz-adv-x="1133" 
d="M1060 618h-301v-229h301v-82h-301v-225h301v-82h-392v110c-57 -76 -148 -128 -266 -128c-225 0 -361 177 -361 367c0 189 136 366 361 366c118 0 209 -53 266 -128v113h392v-82zM402 65c164 0 265 137 265 284c0 146 -101 283 -265 283c-165 0 -266 -137 -266 -283
c0 -147 101 -284 266 -284z" />
    <glyph glyph-name="oe" unicode="&#x153;" horiz-adv-x="914" 
d="M863 204h-342c1 -79 42 -142 138 -142c68 0 100 33 115 72h88c-16 -77 -89 -145 -203 -145c-89 0 -152 41 -186 99c-39 -59 -107 -99 -194 -99c-144 0 -238 110 -238 238c0 129 94 239 238 239c86 0 153 -40 193 -99c35 60 98 99 184 99c118 0 211 -89 211 -205
c0 -13 0 -32 -4 -57zM654 392c-75 0 -130 -45 -132 -122h260c0 74 -55 122 -128 122zM279 67c92 0 154 70 154 160c0 89 -62 161 -154 161s-152 -74 -152 -161s60 -160 152 -160z" />
    <glyph glyph-name="endash" unicode="&#x2013;" horiz-adv-x="503" 
d="M453 246h-403v78h403v-78z" />
    <glyph glyph-name="emdash" unicode="&#x2014;" horiz-adv-x="1006" 
d="M956 246h-906v78h906v-78z" />
    <glyph glyph-name="quotedblleft" unicode="&#x201c;" horiz-adv-x="444" 
d="M384 567c0 -38 -29 -68 -69 -68c-49 0 -80 40 -80 97c0 105 54 143 143 144v-42c-34 0 -58 -11 -69 -30c-11 -15 -14 -30 -14 -42c3 4 13 7 22 7c40 0 67 -29 67 -66zM209 567c0 -38 -29 -68 -68 -68c-49 0 -81 40 -81 97c0 105 54 143 144 144v-42
c-35 0 -59 -11 -69 -30c-11 -15 -15 -30 -15 -42c4 4 14 7 22 7c41 0 67 -29 67 -66z" />
    <glyph glyph-name="quotedblright" unicode="&#x201d;" horiz-adv-x="444" 
d="M60 672c0 37 29 68 69 68c49 0 80 -40 80 -98c0 -105 -54 -143 -143 -143v41c35 0 58 12 69 31c11 16 14 29 14 42c-3 -4 -13 -7 -22 -7c-40 0 -67 29 -67 66zM235 672c0 37 29 68 68 68c49 0 81 -40 81 -98c0 -105 -54 -143 -144 -143v41c35 0 59 12 69 31
c11 16 15 29 15 42c-4 -4 -14 -7 -22 -7c-41 0 -67 29 -67 66z" />
    <glyph glyph-name="quoteleft" unicode="&#x2018;" horiz-adv-x="269" 
d="M209 567c0 -38 -29 -68 -68 -68c-49 0 -81 40 -81 97c0 105 54 143 144 144v-42c-35 0 -59 -11 -69 -30c-11 -15 -15 -30 -15 -42c4 4 14 7 22 7c41 0 67 -29 67 -66z" />
    <glyph glyph-name="quoteright" unicode="&#x2019;" horiz-adv-x="269" 
d="M60 672c0 37 29 68 69 68c49 0 80 -40 80 -98c0 -105 -54 -143 -143 -143v41c35 0 58 12 69 31c11 16 14 29 14 42c-3 -4 -13 -7 -22 -7c-40 0 -67 29 -67 66z" />
    <glyph glyph-name="divide" unicode="&#xf7;" 
d="M490 196h-404v77h404v-77zM218 393c0 39 31 70 70 70s70 -31 70 -70s-31 -70 -70 -70s-70 31 -70 70zM218 85c0 33 31 70 70 70s70 -37 70 -70c0 -39 -31 -70 -70 -70s-70 31 -70 70z" />
    <glyph glyph-name="lozenge" unicode="&#x25ca;" horiz-adv-x="475" 
d="M199 0l-194 396l194 398h78l193 -398l-193 -396h-78zM95 396l142 -304l143 304c-16 31 -126 273 -142 304z" />
    <glyph glyph-name="ydieresis" unicode="&#xff;" horiz-adv-x="573" 
d="M282 -256c-129 0 -209 66 -212 197h88c5 -82 51 -123 126 -123c78 0 127 31 127 135v128c-27 -55 -82 -92 -159 -92c-66 0 -110 21 -138 58c-25 34 -34 75 -34 142v265h87v-238c0 -88 26 -150 116 -150c87 0 128 73 128 155v233h87v-501c0 -145 -76 -209 -216 -209z
M344 609c0 38 29 68 66 68c38 0 68 -30 68 -68c0 -37 -30 -66 -68 -66c-37 0 -66 29 -66 66zM114 609c0 38 30 68 67 68s67 -30 67 -68c0 -37 -30 -66 -67 -66s-67 29 -67 66z" />
    <glyph glyph-name="Ydieresis" unicode="&#x178;" horiz-adv-x="591" 
d="M586 700l-352 -700h-100l140 278l-264 422h106l205 -327l165 327h100zM364 843c0 38 30 68 67 68c38 0 67 -30 67 -68c0 -37 -29 -66 -67 -66c-37 0 -67 29 -67 66zM135 843c0 38 29 68 66 68c38 0 68 -30 68 -68c0 -37 -30 -66 -68 -66c-37 0 -66 29 -66 66z" />
    <glyph glyph-name="fraction" unicode="&#x2044;" horiz-adv-x="217" 
d="M-145 -1l437 753l70 -40l-438 -753z" />
    <glyph glyph-name="currency" unicode="&#xa4;" horiz-adv-x="748" 
d="M568 108l-67 67c-38 -27 -86 -43 -142 -43c-55 0 -102 16 -140 43l-68 -67l-55 55l68 68c-28 39 -43 88 -43 139c0 52 15 100 43 139l-68 68l55 55l67 -68c38 28 86 45 141 45c56 0 104 -17 142 -44l67 67l55 -55l-67 -67c28 -40 44 -88 44 -140s-16 -101 -44 -140
l66 -67zM359 210c94 0 154 73 154 160s-60 161 -154 161c-91 0 -151 -74 -151 -161s60 -160 151 -160z" />
    <glyph glyph-name="guilsinglleft" unicode="&#x2039;" horiz-adv-x="276" 
d="M236 183v-85l-196 167v53l196 167v-86l-126 -108z" />
    <glyph glyph-name="guilsinglright" unicode="&#x203a;" horiz-adv-x="276" 
d="M40 98v85l126 108l-126 108v86l196 -167v-53z" />
    <glyph glyph-name="daggerdbl" unicode="&#x2021;" horiz-adv-x="444" 
d="M179 717h87v-261h123v-75h-123v-296h123v-76h-123v-191h-87v191h-124v76h124v296h-124v75h124v261z" />
    <glyph glyph-name="periodcentered" unicode="&#xb7;" horiz-adv-x="255" 
d="M58 312c0 39 31 71 69 71c39 0 71 -32 71 -71c0 -38 -32 -69 -71 -69c-38 0 -69 31 -69 69z" />
    <glyph glyph-name="quotesinglbase" unicode="&#x201a;" horiz-adv-x="269" 
d="M60 55c0 38 29 69 69 69c49 0 80 -41 80 -98c0 -105 -54 -143 -143 -144v42c35 0 58 11 69 30c11 15 14 30 14 42c-3 -4 -13 -7 -22 -7c-40 0 -67 29 -67 66z" />
    <glyph glyph-name="quotedblbase" unicode="&#x201e;" horiz-adv-x="444" 
d="M60 55c0 38 29 69 69 69c49 0 80 -41 80 -98c0 -105 -54 -143 -143 -144v42c35 0 58 11 69 30c11 15 14 30 14 42c-3 -4 -13 -7 -22 -7c-40 0 -67 29 -67 66zM235 55c0 38 29 69 68 69c49 0 81 -41 81 -98c0 -105 -54 -143 -144 -144v42c35 0 59 11 69 30
c11 15 15 30 15 42c-4 -4 -14 -7 -22 -7c-41 0 -67 29 -67 66z" />
    <glyph glyph-name="perthousand" unicode="&#x2030;" horiz-adv-x="1265" 
d="M980 126c0 -40 28 -73 69 -73c43 0 70 33 70 73v133c0 40 -27 74 -70 74c-41 0 -69 -34 -69 -74v-133zM1191 259v-135c0 -71 -56 -132 -142 -132s-140 62 -140 134v135c0 72 55 132 140 132c87 0 142 -61 142 -134zM701 393c86 0 141 -61 141 -134v-135
c0 -71 -56 -132 -141 -132c-87 0 -141 62 -141 134v135c0 72 55 132 141 132zM701 333c-42 0 -69 -34 -69 -74v-133c0 -40 27 -73 69 -73s70 33 70 73v133c0 40 -28 74 -70 74zM73 440v136c0 71 55 131 141 131s141 -61 141 -133v-136c0 -71 -56 -131 -141 -131
c-87 0 -141 61 -141 133zM284 440v134c0 39 -28 73 -70 73s-69 -34 -69 -73v-134c0 -39 27 -73 69 -73s70 34 70 73zM202 -1l437 753l69 -40l-437 -753z" />
    <glyph glyph-name="Acircumflex" unicode="&#xc2;" horiz-adv-x="559" 
d="M312 700l242 -700h-96l-37 107h-284l-36 -107h-96l241 700h66zM280 551l-115 -361h228zM102 804l177 153l178 -153l-50 -56l-127 114l-127 -114z" />
    <glyph glyph-name="Ecircumflex" unicode="&#xca;" horiz-adv-x="544" 
d="M471 618h-302v-229h302v-82h-302v-225h302v-82h-393v700h393v-82zM102 804l177 153l178 -153l-50 -56l-127 114l-126 -114z" />
    <glyph glyph-name="Aacute" unicode="&#xc1;" horiz-adv-x="559" 
d="M312 700l242 -700h-96l-37 107h-284l-36 -107h-96l241 700h66zM280 551l-115 -361h228zM425 872l-249 -137l-41 68l249 137z" />
    <glyph glyph-name="Edieresis" unicode="&#xcb;" horiz-adv-x="544" 
d="M471 618h-302v-229h302v-82h-302v-225h302v-82h-393v700h393v-82zM331 843c0 39 31 71 69 71c39 0 71 -32 71 -71c0 -38 -32 -69 -71 -69c-38 0 -69 31 -69 69zM101 843c0 39 31 71 70 71s70 -32 70 -71c0 -38 -31 -69 -70 -69s-70 31 -70 69z" />
    <glyph glyph-name="Egrave" unicode="&#xc8;" horiz-adv-x="544" 
d="M471 618h-302v-229h302v-82h-302v-225h302v-82h-393v700h393v-82zM394 736l-249 137l41 68l249 -137z" />
    <glyph glyph-name="Iacute" unicode="&#xcd;" horiz-adv-x="250" 
d="M78 0v700h94v-700h-94zM271 872l-249 -137l-42 68l249 137z" />
    <glyph glyph-name="Icircumflex" unicode="&#xce;" horiz-adv-x="250" 
d="M78 0v700h94v-700h-94zM-52 804l177 153l178 -153l-50 -56l-127 114l-127 -114z" />
    <glyph glyph-name="Idieresis" unicode="&#xcf;" horiz-adv-x="250" 
d="M78 0v700h94v-700h-94zM173 843c0 39 31 71 70 71s70 -32 70 -71c0 -38 -31 -69 -70 -69s-70 31 -70 69zM-56 843c0 39 31 71 69 71c40 0 71 -32 71 -71c0 -38 -31 -69 -71 -69c-38 0 -69 31 -69 69z" />
    <glyph glyph-name="Igrave" unicode="&#xcc;" horiz-adv-x="250" 
d="M78 0v700h94v-700h-94zM229 735l-249 137l42 68l249 -137z" />
    <glyph glyph-name="Oacute" unicode="&#xd3;" horiz-adv-x="803" 
d="M402 -16c-225 0 -361 177 -361 366c0 190 136 366 361 366c224 0 361 -176 361 -366c0 -189 -137 -366 -361 -366zM402 66c164 0 265 138 265 284c0 147 -101 284 -265 284c-165 0 -266 -137 -266 -284c0 -146 101 -284 266 -284zM558 886l-249 -137l-42 69l249 137z" />
    <glyph glyph-name="Ocircumflex" unicode="&#xd4;" horiz-adv-x="803" 
d="M402 -16c-225 0 -361 177 -361 366c0 190 136 366 361 366c224 0 361 -176 361 -366c0 -189 -137 -366 -361 -366zM402 66c164 0 265 138 265 284c0 147 -101 284 -265 284c-165 0 -266 -137 -266 -284c0 -146 101 -284 266 -284zM225 804l177 153l178 -153l-50 -56
l-128 114l-126 -114z" />
    <glyph glyph-name="apple" unicode="&#xf8ff;" horiz-adv-x="800" 
d="M400 717c225 0 362 -177 362 -367s-137 -367 -362 -367s-362 177 -362 367s137 367 362 367zM400 695c-52 0 -99 -10 -143 -29c-40 -18 -76 -44 -106 -76c-29 -32 -52 -69 -67 -110c-16 -42 -24 -85 -24 -130s8 -88 24 -129c15 -42 38 -79 67 -110c30 -33 66 -59 106 -76
c44 -19 91 -29 143 -29c51 0 99 10 142 29c40 17 76 43 106 76c29 31 52 68 67 110c16 41 24 84 24 129s-8 88 -24 130c-15 41 -38 78 -67 110c-30 32 -66 58 -106 76c-43 19 -91 29 -142 29zM168 228c67 -40 113 -71 188 -71c55 0 158 5 220 37c1 0 2 1 3 2
c-17 -37 -59 -74 -107 -99c-37 -20 -72 -31 -106 -31c-65 0 -129 46 -198 162zM466 259h-247l179 268l-110 -243h178v-25zM230 169c39 -59 110 -77 136 -77c68 0 151 56 161 63c-57 -11 -103 -23 -169 -23c-34 0 -98 8 -128 37zM498 500c0 24 19 43 42 43
c24 0 43 -19 43 -43c0 -23 -19 -43 -43 -43c-23 0 -42 20 -42 43zM201 500c0 24 19 43 42 43c24 0 43 -19 43 -43c0 -23 -19 -43 -43 -43c-23 0 -42 20 -42 43zM616 157l-16 4c2 7 2 13 2 18c-1 6 -2 10 -4 13c-1 3 -2 4 -3 5c-1 0 -2 1 -3 2c-1 0 -3 1 -4 2l-14 5
c-10 5 -22 10 -33 19c-7 5 -13 12 -18 20l-4 11c-1 5 -3 9 -3 14c-2 10 -4 21 -4 31c1 7 1 14 3 19l15 -5c0 -2 -1 -6 -1 -10v-13c1 -9 2 -19 4 -27c2 -5 3 -10 5 -12c4 -8 11 -14 19 -20c8 -5 18 -9 26 -13l15 -6c3 -1 5 -3 7 -5c3 -2 6 -5 7 -9c3 -6 5 -12 6 -19
c0 -8 0 -16 -2 -24zM196 329l17 2c0 -7 1 -13 2 -20c1 -6 2 -13 2 -20s-3 -14 -7 -20c-4 -5 -9 -10 -14 -13c-1 0 -3 -1 -4 -1c-7 -3 -15 -6 -21 -10c-4 -1 -7 -3 -10 -5c-2 -2 -4 -4 -6 -5c-2 -3 -4 -8 -5 -13c-1 -6 -2 -12 -2 -17h-16c0 6 1 13 2 20c2 7 4 14 9 20
c2 3 5 5 9 8l11 7c7 4 16 7 24 10c0 0 1 0 1 1c3 1 6 4 9 8c2 3 4 7 4 10c0 6 -1 12 -2 18z" />
    <glyph glyph-name="Ograve" unicode="&#xd2;" horiz-adv-x="803" 
d="M402 -16c-225 0 -361 177 -361 366c0 190 136 366 361 366c224 0 361 -176 361 -366c0 -189 -137 -366 -361 -366zM402 66c164 0 265 138 265 284c0 147 -101 284 -265 284c-165 0 -266 -137 -266 -284c0 -146 101 -284 266 -284zM491 749l-249 137l42 69l249 -137z" />
    <glyph glyph-name="Uacute" unicode="&#xda;" horiz-adv-x="629" 
d="M71 227v473h91v-473c0 -87 60 -161 151 -161c94 0 154 74 154 161v473h91v-473c0 -132 -95 -243 -245 -243c-146 0 -242 111 -242 243zM441 886l-249 -137l-41 69l249 137z" />
    <glyph glyph-name="Ucircumflex" unicode="&#xdb;" horiz-adv-x="629" 
d="M71 227v473h91v-473c0 -87 60 -161 151 -161c94 0 154 74 154 161v473h91v-473c0 -132 -95 -243 -245 -243c-146 0 -242 111 -242 243zM134 804l177 154l178 -154l-50 -56l-127 115l-127 -114z" />
    <glyph glyph-name="Ugrave" unicode="&#xd9;" horiz-adv-x="629" 
d="M71 227v473h91v-473c0 -87 60 -161 151 -161c94 0 154 74 154 161v473h91v-473c0 -132 -95 -243 -245 -243c-146 0 -242 111 -242 243zM429 749l-249 137l42 69l249 -137z" />
    <glyph glyph-name="dotlessi" unicode="&#x131;" horiz-adv-x="230" 
d="M72 0v454h87v-454h-87z" />
    <glyph glyph-name="circumflex" unicode="&#x2c6;" horiz-adv-x="469" 
d="M52 697l180 145l180 -145l-54 -61l-126 101l-125 -100z" />
    <glyph glyph-name="tilde" unicode="&#x2dc;" horiz-adv-x="498" 
d="M112 605l-38 57c59 38 85 38 103 38c28 0 115 -27 141 -27c22 0 33 4 80 27l34 -56c-51 -39 -85 -41 -104 -41c-34 0 -110 26 -141 26c-24 0 -44 -8 -75 -24z" />
    <glyph glyph-name="macron" unicode="&#xaf;" horiz-adv-x="542" 
d="M450 801v-78h-358v78h358z" />
    <glyph glyph-name="breve" unicode="&#x2d8;" horiz-adv-x="537" 
d="M74 851h74c16 -56 59 -88 120 -88s106 32 121 88h74c-14 -87 -97 -151 -195 -151s-179 64 -194 151z" />
    <glyph glyph-name="dotaccent" unicode="&#x2d9;" horiz-adv-x="484" 
d="M172 639c0 39 31 71 70 71s70 -32 70 -71c0 -38 -31 -69 -70 -69s-70 31 -70 69z" />
    <glyph glyph-name="ring" unicode="&#x2da;" horiz-adv-x="509" 
d="M254 835c68 0 123 -56 123 -123s-55 -123 -123 -123s-123 56 -123 123c0 68 55 123 123 123zM254 772c-33 0 -59 -28 -59 -60c0 -31 27 -58 59 -58s59 27 59 59s-26 59 -59 59z" />
    <glyph glyph-name="cedilla" unicode="&#xb8;" horiz-adv-x="478" 
d="M159 -118v118h58v-71c9 13 25 20 43 20c41 0 83 -33 83 -87c0 -47 -34 -96 -100 -96c-25 0 -89 14 -98 87h53c4 -24 20 -40 45 -40c28 0 47 20 47 49c0 27 -20 45 -46 45c-15 0 -29 -5 -39 -25h-46z" />
    <glyph glyph-name="hungarumlaut" unicode="&#x2dd;" horiz-adv-x="492" 
d="M268 568l125 166l76 -38l-158 -151zM73 568l125 166l76 -38l-158 -151z" />
    <glyph glyph-name="ogonek" unicode="&#x2db;" horiz-adv-x="488" 
d="M351 -133v-64c-21 -7 -55 -15 -90 -15c-76 0 -115 44 -115 97c0 43 26 77 80 115h63c-32 -23 -60 -49 -60 -87c0 -32 21 -59 58 -59c19 0 45 5 64 13z" />
    <glyph glyph-name="caron" unicode="&#x2c7;" horiz-adv-x="427" 
d="M212 604l-159 145l47 61l112 -105l114 105l47 -61z" />
    <glyph glyph-name=".null" horiz-adv-x="0" 
 />
    <glyph glyph-name=".null" horiz-adv-x="0" 
 />
    <glyph glyph-name="Amacron" unicode="&#x100;" horiz-adv-x="559" 
d="M312 700l242 -700h-96l-37 107h-284l-36 -107h-96l241 700h66zM280 551l-115 -361h228zM458 879v-77h-358v77h358z" />
    <glyph glyph-name="Abreve" unicode="&#x102;" horiz-adv-x="559" 
d="M312 700l242 -700h-96l-37 107h-284l-36 -107h-96l241 700h66zM280 551l-115 -361h228zM280 843c58 0 98 31 112 83h81c-15 -87 -95 -151 -193 -151c-100 0 -179 64 -194 151h82c14 -52 54 -83 112 -83z" />
    <glyph glyph-name="Aringacute" unicode="&#x1fa;" horiz-adv-x="559" 
d="M346 753c0 -25 -13 -47 -32 -57l240 -696h-96l-37 107h-284l-36 -107h-96l239 694c-21 11 -35 33 -35 59c0 37 31 68 69 68c37 0 68 -31 68 -68zM280 551l-115 -361h228zM278 784c-17 0 -31 -15 -31 -31s13 -30 31 -30c17 0 30 14 30 30s-13 31 -30 31zM406 922
l-249 -137l-27 44l249 137z" />
    <glyph glyph-name="Aogonek" unicode="&#x104;" horiz-adv-x="559" 
d="M280 551l-115 -361h228zM565 -135l-1 -63c-20 -7 -52 -14 -86 -14c-74 0 -112 42 -112 97c0 43 33 81 92 115l-37 107h-284l-36 -107h-96l241 700h66l242 -700h-34c-39 -21 -71 -47 -71 -88c0 -32 21 -58 56 -58c18 0 41 4 60 11z" />
    <glyph glyph-name="AEacute" unicode="&#x1fc;" horiz-adv-x="865" 
d="M788 618h-301v-229h301v-82h-301v-225h301v-82h-393v108h-241l-52 -108h-100l345 700h441v-82zM193 190h202v418zM651 886l-249 -137l-42 69l249 137z" />
    <glyph glyph-name="Cacute" unicode="&#x106;" horiz-adv-x="775" 
d="M636 216h100c-35 -131 -161 -232 -328 -232c-229 0 -367 171 -367 367c0 190 135 365 354 365c203 0 315 -115 341 -261h-96c-21 102 -104 179 -234 179c-172 0 -272 -136 -272 -283c0 -154 104 -285 285 -285c96 0 188 63 217 150zM538 886l-249 -137l-42 69l249 137z
" />
    <glyph glyph-name="Ccircumflex" unicode="&#x108;" horiz-adv-x="775" 
d="M636 216h100c-35 -131 -161 -232 -328 -232c-229 0 -367 171 -367 367c0 190 135 365 354 365c203 0 315 -115 341 -261h-96c-21 102 -104 179 -234 179c-172 0 -272 -136 -272 -283c0 -154 104 -285 285 -285c96 0 188 63 217 150zM220 804l177 153l178 -153l-50 -56
l-128 114l-126 -114z" />
    <glyph glyph-name="Ccaron" unicode="&#x10c;" horiz-adv-x="775" 
d="M636 216h100c-35 -131 -161 -232 -328 -232c-229 0 -367 171 -367 367c0 190 135 365 354 365c203 0 315 -115 341 -261h-96c-21 102 -104 179 -234 179c-172 0 -272 -136 -272 -283c0 -154 104 -285 285 -285c96 0 188 63 217 150zM388 748l-174 153l52 56l123 -114
l125 114l50 -56z" />
    <glyph glyph-name="Cdotaccent" unicode="&#x10a;" horiz-adv-x="775" 
d="M636 216h100c-35 -131 -161 -232 -328 -232c-229 0 -367 171 -367 367c0 190 135 365 354 365c203 0 315 -115 341 -261h-96c-21 102 -104 179 -234 179c-172 0 -272 -136 -272 -283c0 -154 104 -285 285 -285c96 0 188 63 217 150zM326 850c0 40 31 71 69 71
c39 0 71 -31 71 -71c0 -38 -32 -69 -71 -69c-38 0 -69 31 -69 69z" />
    <glyph glyph-name="Dcaron" unicode="&#x10e;" horiz-adv-x="697" 
d="M78 700h216c232 0 363 -173 363 -350s-131 -350 -363 -350h-216v700zM294 618h-125v-536h125c172 0 269 133 269 268c0 136 -97 268 -269 268zM329 748l-174 153l52 56l123 -114l125 114l50 -56z" />
    <glyph glyph-name="Dcroat" unicode="&#x110;" horiz-adv-x="697" 
d="M78 700h216c232 0 363 -173 363 -350s-131 -350 -363 -350h-216v313h-132v78h132v309zM305 391v-78h-136v-231h125c172 0 269 133 269 268c0 136 -97 268 -269 268h-125v-227h136z" />
    <glyph glyph-name="Ecaron" unicode="&#x11a;" horiz-adv-x="544" 
d="M471 618h-302v-229h302v-82h-302v-225h302v-82h-393v700h393v-82zM270 748l-174 153l51 56l124 -114l124 114l51 -56z" />
    <glyph glyph-name="Emacron" unicode="&#x112;" horiz-adv-x="544" 
d="M471 618h-302v-229h302v-82h-302v-225h302v-82h-393v700h393v-82zM451 879v-77h-358v77h358z" />
    <glyph glyph-name="Ebreve" unicode="&#x114;" horiz-adv-x="544" 
d="M471 618h-302v-229h302v-82h-302v-225h302v-82h-393v700h393v-82zM276 843c58 0 98 31 112 83h81c-15 -87 -95 -151 -193 -151c-100 0 -179 64 -194 151h82c14 -52 54 -83 112 -83z" />
    <glyph glyph-name="Edotaccent" unicode="&#x116;" horiz-adv-x="544" 
d="M471 618h-302v-229h302v-82h-302v-225h302v-82h-393v700h393v-82zM202 851c0 39 31 70 69 70c40 0 71 -31 71 -70s-31 -70 -71 -70c-38 0 -69 31 -69 70z" />
    <glyph glyph-name="Eogonek" unicode="&#x118;" horiz-adv-x="544" 
d="M345 0h-267v700h393v-82h-302v-229h302v-82h-302v-225h302v-82h-63c-32 -23 -60 -49 -60 -87c0 -32 21 -59 58 -59c20 0 45 5 64 13v-64c-21 -7 -55 -15 -90 -15c-76 0 -115 44 -115 97c0 43 26 77 80 115z" />
    <glyph glyph-name="Gcircumflex" unicode="&#x11c;" horiz-adv-x="836" 
d="M473 255v82h337v-82h-75c-27 -161 -140 -271 -335 -271c-230 0 -359 177 -359 366c0 190 137 366 359 366c157 0 276 -95 293 -211h-92c-18 72 -97 129 -201 129c-166 0 -266 -137 -266 -284s93 -284 277 -284c136 0 213 84 227 189h-165zM224 804l176 153l179 -153
l-51 -56l-127 114l-126 -114z" />
    <glyph glyph-name="Gbreve" unicode="&#x11e;" horiz-adv-x="836" 
d="M473 255v82h337v-82h-75c-27 -161 -140 -271 -335 -271c-230 0 -359 177 -359 366c0 190 137 366 359 366c157 0 276 -95 293 -211h-92c-18 72 -97 129 -201 129c-166 0 -266 -137 -266 -284s93 -284 277 -284c136 0 213 84 227 189h-165zM397 843c57 0 98 31 111 83h82
c-15 -87 -95 -151 -193 -151c-101 0 -179 64 -194 151h82c13 -52 54 -83 112 -83z" />
    <glyph glyph-name="Gdotaccent" unicode="&#x120;" horiz-adv-x="836" 
d="M473 255v82h337v-82h-75c-27 -161 -140 -271 -335 -271c-230 0 -359 177 -359 366c0 190 137 366 359 366c157 0 276 -95 293 -211h-92c-18 72 -97 129 -201 129c-166 0 -266 -137 -266 -284s93 -284 277 -284c136 0 213 84 227 189h-165zM330 851c0 39 31 70 69 70
c40 0 71 -31 71 -70s-31 -70 -71 -70c-38 0 -69 31 -69 70z" />
    <glyph glyph-name="Gcommaaccent" unicode="&#x122;" horiz-adv-x="836" 
d="M473 255v82h337v-82h-75c-27 -161 -140 -271 -335 -271c-230 0 -359 177 -359 366c0 190 137 366 359 366c157 0 276 -95 293 -211h-92c-18 72 -97 129 -201 129c-166 0 -266 -137 -266 -284s93 -284 277 -284c136 0 213 84 227 189h-165zM343 -85c0 31 25 56 57 56
c40 0 67 -34 67 -81c0 -87 -46 -118 -120 -119v36c29 0 48 8 58 23c9 13 11 25 12 35c-3 -3 -12 -6 -19 -6c-33 0 -55 25 -55 56z" />
    <glyph glyph-name="Hcircumflex" unicode="&#x124;" horiz-adv-x="664" 
d="M495 0v307h-326v-307h-91v700h91v-311h326v311h91v-700h-91zM155 804l177 153l178 -153l-50 -56l-128 114l-126 -114z" />
    <glyph glyph-name="Hbar" unicode="&#x126;" horiz-adv-x="664" 
d="M495 389v112h-326v-112h326zM78 700h91v-132h326v132h91v-700h-91v307h-326v-307h-91v700z" />
    <glyph glyph-name="Itilde" unicode="&#x128;" horiz-adv-x="250" 
d="M78 0v700h94v-700h-94zM190 862c30 0 49 22 62 49l64 -33c-32 -60 -81 -85 -125 -85c-68 0 -98 49 -137 49c-30 0 -47 -21 -61 -49l-60 40c31 55 77 78 121 78c68 0 96 -49 136 -49z" />
    <glyph glyph-name="Imacron" unicode="&#x12a;" horiz-adv-x="250" 
d="M78 0v700h94v-700h-94zM305 879v-77h-359v77h359z" />
    <glyph glyph-name="Ibreve" unicode="&#x12c;" horiz-adv-x="250" 
d="M78 0v700h94v-700h-94zM126 843c58 0 98 31 112 83h81c-15 -87 -95 -151 -193 -151c-100 0 -179 64 -194 151h82c14 -52 54 -83 112 -83z" />
    <glyph glyph-name="Idotaccent" unicode="&#x130;" horiz-adv-x="250" 
d="M78 0v700h94v-700h-94zM55 851c0 39 31 70 70 70s70 -31 70 -70s-31 -70 -70 -70s-70 31 -70 70z" />
    <glyph glyph-name="Iogonek" unicode="&#x12e;" horiz-adv-x="250" 
d="M172 700v-700h-14c-32 -23 -60 -49 -60 -87c0 -32 21 -59 58 -59c20 0 45 5 64 13v-64c-21 -7 -55 -15 -90 -15c-76 0 -115 44 -115 97c0 43 26 77 80 115h-17v700h94z" />
    <glyph glyph-name="Jcircumflex" unicode="&#x134;" horiz-adv-x="536" 
d="M465 700v-478c0 -137 -84 -238 -224 -238c-139 0 -227 102 -227 238h91c0 -93 53 -156 136 -156c84 0 133 62 133 156v478h91zM243 804l177 153l178 -153l-50 -56l-128 114l-126 -114z" />
    <glyph glyph-name="Kcommaaccent" unicode="&#x136;" horiz-adv-x="590" 
d="M578 0h-115l-294 318v-318h-91v700h91v-318l294 318h115l-320 -350zM243 -74c0 31 25 56 57 56c40 0 67 -34 67 -81c0 -87 -45 -118 -120 -119v36c30 0 49 8 58 23c9 13 12 25 12 35c-3 -3 -11 -6 -18 -6c-34 0 -56 25 -56 56z" />
    <glyph glyph-name="Lacute" unicode="&#x139;" horiz-adv-x="425" 
d="M169 82h229v-82h-320v700h91v-618zM297 886l-249 -137l-41 69l249 137z" />
    <glyph glyph-name="Lcaron" unicode="&#x13d;" horiz-adv-x="425" 
d="M169 82h229v-82h-320v700h91v-618zM282 662c0 38 29 69 69 69c49 0 80 -41 80 -98c0 -105 -54 -143 -143 -144v42c35 0 58 12 69 31c11 15 14 29 14 41c-3 -3 -13 -6 -22 -6c-40 0 -67 28 -67 65z" />
    <glyph glyph-name="Lcommaaccent" unicode="&#x13b;" horiz-adv-x="425" 
d="M78 0v700h91v-618h229v-82h-320zM162 -74c0 31 25 56 57 56c40 0 67 -34 67 -81c0 -87 -46 -119 -120 -119v35c29 0 48 9 58 24c9 13 12 24 12 35c-3 -3 -12 -6 -19 -6c-33 0 -55 25 -55 56z" />
    <glyph glyph-name="Ldot" unicode="&#x13f;" horiz-adv-x="425" 
d="M169 82h229v-82h-320v700h91v-618zM262 391c0 39 31 71 69 71c39 0 71 -32 71 -71c0 -38 -32 -69 -71 -69c-38 0 -69 31 -69 69z" />
    <glyph glyph-name="Nacute" unicode="&#x143;" horiz-adv-x="663" 
d="M179 700l315 -541v541h91v-700h-101l-315 541v-541h-91v700h101zM479 886l-249 -137l-42 69l249 137z" />
    <glyph glyph-name="Ncaron" unicode="&#x147;" horiz-adv-x="663" 
d="M179 700l315 -541v541h91v-700h-101l-315 541v-541h-91v700h101zM333 748l-174 153l52 56l123 -114l125 114l50 -56z" />
    <glyph glyph-name="Ncommaaccent" unicode="&#x145;" horiz-adv-x="663" 
d="M585 0h-101l-315 541v-541h-91v700h101l315 -541v541h91v-700zM274 -74c0 31 25 56 57 56c40 0 67 -34 67 -81c0 -87 -46 -119 -120 -119v35c29 0 48 9 58 24c9 13 12 24 12 35c-3 -3 -12 -6 -19 -6c-33 0 -55 25 -55 56z" />
    <glyph glyph-name="Omacron" unicode="&#x14c;" horiz-adv-x="803" 
d="M402 -16c-225 0 -361 177 -361 366c0 190 136 366 361 366c224 0 361 -176 361 -366c0 -189 -137 -366 -361 -366zM402 66c164 0 265 138 265 284c0 147 -101 284 -265 284c-165 0 -266 -137 -266 -284c0 -146 101 -284 266 -284zM581 879v-77h-358v77h358z" />
    <glyph glyph-name="Obreve" unicode="&#x14e;" horiz-adv-x="803" 
d="M402 -16c-225 0 -361 177 -361 366c0 190 136 366 361 366c224 0 361 -176 361 -366c0 -189 -137 -366 -361 -366zM402 66c164 0 265 138 265 284c0 147 -101 284 -265 284c-165 0 -266 -137 -266 -284c0 -146 101 -284 266 -284zM402 843c57 0 98 31 111 83h82
c-15 -87 -95 -151 -193 -151c-101 0 -179 64 -194 151h82c13 -52 54 -83 112 -83z" />
    <glyph glyph-name="Ohungarumlaut" unicode="&#x150;" horiz-adv-x="803" 
d="M402 -16c-225 0 -361 177 -361 366c0 190 136 366 361 366c224 0 361 -176 361 -366c0 -189 -137 -366 -361 -366zM402 66c164 0 265 138 265 284c0 147 -101 284 -265 284c-165 0 -266 -137 -266 -284c0 -146 101 -284 266 -284zM429 792l125 166l76 -38l-158 -151z
M234 792l125 166l76 -38l-158 -151z" />
    <glyph glyph-name="Oslashacute" unicode="&#x1fe;" horiz-adv-x="803" 
d="M402 -16c-43 0 -83 6 -118 18l-37 -86l-62 27l37 86c-116 64 -181 189 -181 321c0 190 136 366 361 366c38 0 75 -5 107 -16l35 80l61 -27l-33 -78c121 -62 191 -190 191 -325c0 -189 -137 -366 -361 -366zM136 350c0 -96 44 -188 121 -240l220 513c-23 7 -49 11 -75 11
c-165 0 -266 -137 -266 -284zM667 350c0 99 -48 195 -130 245l-220 -515c25 -9 54 -14 85 -14c164 0 265 138 265 284zM546 886l-249 -137l-41 68l249 137z" />
    <glyph glyph-name="Racute" unicode="&#x154;" horiz-adv-x="606" 
d="M78 0v700h246c146 0 240 -110 240 -238c0 -102 -59 -191 -155 -224l147 -238h-104l-139 223h-144v-223h-91zM324 306c91 0 149 71 149 156c0 84 -58 156 -149 156h-155v-312h155zM448 886l-249 -137l-41 69l249 137z" />
    <glyph glyph-name="Rcaron" unicode="&#x158;" horiz-adv-x="606" 
d="M78 0v700h246c146 0 240 -110 240 -238c0 -102 -59 -191 -155 -224l147 -238h-104l-139 223h-144v-223h-91zM324 306c91 0 149 71 149 156c0 84 -58 156 -149 156h-155v-312h155zM286 748l-174 153l51 56l123 -114l125 114l51 -56z" />
    <glyph glyph-name="Rcommaaccent" unicode="&#x156;" horiz-adv-x="606" 
d="M78 0v700h246c146 0 240 -110 240 -238c0 -102 -59 -191 -155 -224l147 -238h-104l-139 223h-144v-223h-91zM324 618h-155v-312h155c91 0 149 71 149 156c0 84 -58 156 -149 156zM243 -74c0 31 25 56 57 56c40 0 67 -34 67 -81c0 -87 -46 -119 -120 -119v35
c50 0 70 24 72 51c0 5 -1 7 -2 8c-3 -3 -12 -6 -19 -6c-33 0 -55 25 -55 56z" />
    <glyph glyph-name="Sacute" unicode="&#x15a;" horiz-adv-x="571" 
d="M45 223h91c0 -96 63 -157 158 -157c81 0 139 46 139 119c0 85 -72 109 -133 127c-126 40 -230 75 -230 217c0 111 92 187 218 187c127 0 219 -85 220 -214h-91c-1 80 -49 132 -127 132c-77 0 -129 -40 -129 -105c0 -76 63 -101 130 -121c108 -35 233 -77 233 -213
c0 -137 -104 -211 -237 -211c-135 0 -242 90 -242 239zM433 886l-249 -137l-41 69l249 137z" />
    <glyph glyph-name="Scircumflex" unicode="&#x15c;" horiz-adv-x="571" 
d="M45 223h91c0 -96 63 -157 158 -157c81 0 139 46 139 119c0 85 -72 109 -133 127c-126 40 -230 75 -230 217c0 111 92 187 218 187c127 0 219 -85 220 -214h-91c-1 80 -49 132 -127 132c-77 0 -129 -40 -129 -105c0 -76 63 -101 130 -121c108 -35 233 -77 233 -213
c0 -137 -104 -211 -237 -211c-135 0 -242 90 -242 239zM111 804l177 153l178 -153l-50 -56l-127 114l-127 -114z" />
    <glyph glyph-name="Scedilla" unicode="&#x15e;" horiz-adv-x="571" 
d="M253 -118v104c-119 14 -208 101 -208 237h91c0 -96 63 -157 158 -157c81 0 139 46 139 119c0 87 -74 109 -137 128c-122 39 -226 75 -226 216c0 111 92 187 218 187c127 0 219 -85 220 -214h-91c-1 80 -49 132 -127 132c-77 0 -129 -40 -129 -105c0 -76 64 -101 130 -121
c108 -36 233 -77 233 -213c0 -129 -90 -200 -213 -210v-56c9 13 25 20 43 20c41 0 83 -33 83 -87c0 -47 -34 -96 -100 -96c-25 0 -89 14 -98 87h53c4 -24 20 -40 45 -40c28 0 47 20 47 49c0 27 -20 45 -46 45c-15 0 -29 -5 -39 -25h-46z" />
    <glyph glyph-name="Scommaaccent" unicode="&#x218;" horiz-adv-x="571" 
d="M45 223h91c0 -96 63 -157 158 -157c81 0 139 46 139 119c0 85 -72 109 -133 127c-126 40 -230 75 -230 217c0 111 92 187 218 187c127 0 219 -85 220 -214h-91c-1 80 -49 132 -127 132c-77 0 -129 -40 -129 -105c0 -76 63 -101 130 -121c108 -35 233 -77 233 -213
c0 -137 -104 -211 -237 -211c-135 0 -242 90 -242 239zM231 -85c0 31 25 56 57 56c40 0 67 -34 67 -81c0 -87 -46 -118 -120 -119v36c50 0 70 23 72 50c0 5 -1 7 -2 8c-3 -3 -12 -6 -19 -6c-33 0 -55 25 -55 56z" />
    <glyph glyph-name="Tcaron" unicode="&#x164;" horiz-adv-x="478" 
d="M193 0v618h-181v82h454v-82h-182v-618h-91zM239 748l-174 153l51 56l123 -114l125 114l51 -56z" />
    <glyph glyph-name="Tcommaaccent" unicode="&#x162;" horiz-adv-x="478" 
d="M193 0v618h-181v82h454v-82h-182v-618h-91zM182 -74c0 31 24 56 56 56c41 0 68 -34 68 -81c0 -87 -46 -119 -120 -119v35c49 0 70 24 72 51c0 5 -1 7 -2 8c-4 -3 -12 -6 -19 -6c-33 0 -55 25 -55 56z" />
    <glyph glyph-name="Tbar" unicode="&#x166;" horiz-adv-x="478" 
d="M419 489v-66h-135v-423h-91v423h-132v66h132v129h-181v82h454v-82h-182v-129h135z" />
    <glyph glyph-name="uni021A" unicode="&#x21a;" horiz-adv-x="478" 
d="M193 0v618h-181v82h454v-82h-182v-618h-91zM182 -74c0 31 24 56 56 56c41 0 68 -34 68 -81c0 -87 -46 -119 -120 -119v35c49 0 70 24 72 51c0 5 -1 7 -2 8c-4 -3 -12 -6 -19 -6c-33 0 -55 25 -55 56z" />
    <glyph glyph-name="Utilde" unicode="&#x168;" horiz-adv-x="629" 
d="M71 227v473h91v-473c0 -87 60 -161 151 -161c94 0 154 74 154 161v473h91v-473c0 -132 -95 -243 -245 -243c-146 0 -242 111 -242 243zM383 862c29 0 49 22 62 49l63 -33c-31 -60 -80 -85 -124 -85c-68 0 -98 49 -137 49c-30 0 -47 -21 -61 -49l-60 40
c31 55 76 78 121 78c68 0 96 -49 136 -49z" />
    <glyph glyph-name="Umacron" unicode="&#x16a;" horiz-adv-x="629" 
d="M71 227v473h91v-473c0 -87 60 -161 151 -161c94 0 154 74 154 161v473h91v-473c0 -132 -95 -243 -245 -243c-146 0 -242 111 -242 243zM493 879v-77h-358v77h358z" />
    <glyph glyph-name="Ubreve" unicode="&#x16c;" horiz-adv-x="629" 
d="M71 227v473h91v-473c0 -87 60 -161 151 -161c94 0 154 74 154 161v473h91v-473c0 -132 -95 -243 -245 -243c-146 0 -242 111 -242 243zM311 843c58 0 98 31 112 83h81c-15 -87 -95 -151 -193 -151c-100 0 -179 64 -194 151h82c14 -52 54 -83 112 -83z" />
    <glyph glyph-name="Uring" unicode="&#x16e;" horiz-adv-x="629" 
d="M71 227v473h91v-473c0 -87 60 -161 151 -161c94 0 154 74 154 161v473h91v-473c0 -132 -95 -243 -245 -243c-146 0 -242 111 -242 243zM314 976c68 0 123 -56 123 -123s-55 -123 -123 -123s-123 56 -123 123c0 68 55 123 123 123zM314 920c-37 0 -66 -30 -66 -67
c0 -36 30 -65 66 -65c37 0 67 29 67 66c0 36 -29 66 -67 66z" />
    <glyph glyph-name="Uhungarumlaut" unicode="&#x170;" horiz-adv-x="629" 
d="M71 227v473h91v-473c0 -87 60 -161 151 -161c94 0 154 74 154 161v473h91v-473c0 -132 -95 -243 -245 -243c-146 0 -242 111 -242 243zM350 792l125 166l77 -38l-158 -151zM155 792l125 166l77 -38l-158 -151z" />
    <glyph glyph-name="Uogonek" unicode="&#x172;" horiz-adv-x="629" 
d="M419 -133l-1 -64c-21 -7 -54 -15 -89 -15c-76 0 -115 44 -115 97c0 38 20 69 62 102c-125 17 -205 120 -205 240v473h91v-473c0 -87 60 -161 151 -161c94 0 154 74 154 161v473h91v-473c0 -124 -86 -231 -221 -242c-24 -19 -40 -43 -40 -72c0 -32 20 -59 58 -59
c20 0 44 5 64 13z" />
    <glyph glyph-name="Wgrave" unicode="&#x1e80;" horiz-adv-x="964" 
d="M652 0l-170 542l-169 -542h-68l-239 700h96l176 -542l170 542h69l170 -542l176 542h96l-240 -700h-67zM586 749l-249 137l41 69l249 -137z" />
    <glyph glyph-name="Wacute" unicode="&#x1e82;" horiz-adv-x="964" 
d="M652 0l-170 542l-169 -542h-68l-239 700h96l176 -542l170 542h69l170 -542l176 542h96l-240 -700h-67zM627 886l-249 -137l-41 69l249 137z" />
    <glyph glyph-name="Wcircumflex" unicode="&#x174;" horiz-adv-x="964" 
d="M652 0l-170 542l-169 -542h-68l-239 700h96l176 -542l170 542h69l170 -542l176 542h96l-240 -700h-67zM306 804l177 153l178 -153l-50 -56l-127 114l-127 -114z" />
    <glyph glyph-name="Wdieresis" unicode="&#x1e84;" horiz-adv-x="964" 
d="M652 0l-170 542l-169 -542h-68l-239 700h96l176 -542l170 542h69l170 -542l176 542h96l-240 -700h-67zM529 854c0 37 30 67 67 67c38 0 67 -30 67 -67s-29 -67 -67 -67c-37 0 -67 30 -67 67zM300 854c0 37 29 67 66 67c38 0 68 -30 68 -67s-30 -67 -68 -67
c-37 0 -66 30 -66 67z" />
    <glyph glyph-name="Ygrave" unicode="&#x1ef2;" horiz-adv-x="591" 
d="M586 700l-352 -700h-100l140 278l-264 422h106l205 -327l165 327h100zM395 749l-249 137l42 69l249 -137z" />
    <glyph glyph-name="Ycircumflex" unicode="&#x176;" horiz-adv-x="591" 
d="M586 700l-352 -700h-100l140 278l-264 422h106l205 -327l165 327h100zM134 804l176 153l179 -153l-51 -56l-127 114l-126 -114z" />
    <glyph glyph-name="Zacute" unicode="&#x179;" horiz-adv-x="565" 
d="M35 618v82h521l-389 -618h392v-82h-545l389 618h-368zM434 888l-249 -137l-42 69l249 137z" />
    <glyph glyph-name="Zdotaccent" unicode="&#x17b;" horiz-adv-x="565" 
d="M35 618v82h521l-389 -618h392v-82h-545l389 618h-368zM214 851c0 39 31 70 69 70c39 0 71 -31 71 -70s-32 -70 -71 -70c-38 0 -69 31 -69 70z" />
    <glyph glyph-name="Eng" unicode="&#x14a;" horiz-adv-x="663" 
d="M170 700l324 -538v538h91v-718c0 -137 -84 -238 -225 -238c-74 0 -132 34 -172 84l60 58c30 -36 62 -59 112 -59c85 0 134 61 134 155v17l-325 542v-541h-91v700h92z" />
    <glyph glyph-name="amacron" unicode="&#x101;" horiz-adv-x="597" 
d="M433 454h86v-454h-86v79c-29 -55 -93 -90 -159 -90c-139 0 -233 110 -233 238c0 129 94 239 233 239c66 0 130 -35 159 -90v78zM279 67c94 0 154 73 154 160s-60 161 -154 161c-92 0 -152 -74 -152 -161s60 -160 152 -160zM453 649v-78h-358v78h358z" />
    <glyph glyph-name="abreve" unicode="&#x103;" horiz-adv-x="597" 
d="M433 454h86v-454h-86v79c-29 -55 -93 -90 -159 -90c-139 0 -233 110 -233 238c0 129 94 239 233 239c66 0 130 -35 159 -90v78zM279 67c94 0 154 73 154 160s-60 161 -154 161c-92 0 -152 -74 -152 -161s60 -160 152 -160zM278 617c56 0 96 32 109 83h82
c-15 -87 -95 -151 -191 -151c-99 0 -176 64 -191 151h81c14 -51 53 -83 110 -83z" />
    <glyph glyph-name="aringacute" unicode="&#x1fb;" horiz-adv-x="597" 
d="M433 376v78h86v-454h-86v79c-29 -55 -93 -90 -159 -90c-139 0 -233 110 -233 238c0 129 94 239 233 239c66 0 130 -35 159 -90zM279 388c-92 0 -152 -74 -152 -161s60 -160 152 -160c94 0 154 73 154 160c-3 90 -64 161 -154 161zM329 609c0 31 -24 57 -56 57
s-57 -26 -57 -58c0 -30 25 -56 57 -56c31 0 56 26 56 57zM170 608c0 57 46 103 103 103s103 -47 103 -103c0 -55 -46 -102 -103 -102s-103 47 -103 102zM161 711l-41 69l249 137l41 -69z" />
    <glyph glyph-name="aogonek" unicode="&#x105;" horiz-adv-x="597" 
d="M519 454v-454h-21c-42 -23 -78 -52 -78 -95c0 -28 19 -51 52 -51c18 0 41 4 60 11l-1 -63c-20 -7 -52 -14 -85 -14c-77 0 -117 42 -117 97c0 45 36 81 104 119v75c-29 -55 -93 -90 -159 -90c-139 0 -233 110 -233 238c0 129 94 239 233 239c66 0 130 -35 159 -90v78h86z
M279 67c94 0 154 73 154 160s-60 161 -154 161c-92 0 -152 -74 -152 -161s60 -160 152 -160z" />
    <glyph glyph-name="aeacute" unicode="&#x1fd;" horiz-adv-x="914" 
d="M433 454h86v-40c33 32 79 52 137 52c118 0 211 -89 211 -205c0 -13 0 -32 -4 -57h-342c1 -80 42 -142 138 -142c68 0 100 33 115 72h88c-16 -77 -89 -145 -203 -145c-61 0 -108 21 -140 52v-41h-86v79c-29 -55 -93 -90 -159 -90c-139 0 -233 110 -233 238
c0 129 94 239 233 239c66 0 130 -35 159 -90v78zM654 392c-75 0 -130 -45 -132 -122h260c0 73 -55 122 -128 122zM279 67c94 0 154 73 154 160c0 89 -62 161 -154 161s-152 -74 -152 -161s60 -160 152 -160zM602 627l-249 -137l-41 68l249 137z" />
    <glyph glyph-name="cacute" unicode="&#x107;" horiz-adv-x="529" 
d="M484 289h-87c-7 56 -41 99 -126 99c-94 0 -141 -76 -141 -161c0 -86 45 -160 146 -160c75 0 108 35 122 89h87c-14 -94 -83 -167 -215 -167c-148 0 -227 115 -227 238s79 239 226 239s207 -89 215 -177zM412 640l-249 -137l-42 68l249 137z" />
    <glyph glyph-name="ccircumflex" unicode="&#x109;" horiz-adv-x="529" 
d="M484 289h-87c-7 56 -41 99 -126 99c-94 0 -141 -76 -141 -161c0 -86 45 -160 146 -160c75 0 108 35 122 89h87c-14 -94 -83 -167 -215 -167c-148 0 -227 115 -227 238s79 239 226 239s207 -89 215 -177zM97 585l177 154l178 -154l-50 -56l-127 115l-126 -114z" />
    <glyph glyph-name="ccaron" unicode="&#x10d;" horiz-adv-x="529" 
d="M484 289h-87c-7 56 -41 99 -126 99c-94 0 -141 -76 -141 -161c0 -86 45 -160 146 -160c75 0 108 35 122 89h87c-14 -94 -83 -167 -215 -167c-148 0 -227 115 -227 238s79 239 226 239s207 -89 215 -177zM271 525l-174 154l51 55l124 -113l124 114l51 -56z" />
    <glyph glyph-name="cdotaccent" unicode="&#x10b;" horiz-adv-x="529" 
d="M484 289h-87c-7 56 -41 99 -126 99c-94 0 -141 -76 -141 -161c0 -86 45 -160 146 -160c75 0 108 35 122 89h87c-14 -94 -83 -167 -215 -167c-148 0 -227 115 -227 238s79 239 226 239s207 -89 215 -177zM201 609c0 39 31 70 70 70s70 -31 70 -70s-31 -70 -70 -70
s-70 31 -70 70z" />
    <glyph glyph-name="dcaron" unicode="&#x10f;" horiz-adv-x="722" 
d="M279 67c94 0 154 73 154 160s-60 161 -154 161c-92 0 -152 -74 -152 -161s60 -160 152 -160zM433 376v324h86v-700h-86v79c-29 -55 -93 -90 -159 -90c-139 0 -233 110 -233 238c0 129 94 239 233 239c66 0 130 -35 159 -90zM573 660c0 38 29 68 69 68c49 0 80 -40 80 -97
c0 -105 -54 -143 -144 -144v42c36 0 59 11 69 30c12 16 15 30 15 42c-3 -4 -14 -7 -22 -7c-41 0 -67 29 -67 66z" />
    <glyph glyph-name="dcroat" unicode="&#x111;" horiz-adv-x="597" 
d="M571 595v-59h-52v-536h-86v79c-29 -55 -93 -90 -159 -90c-139 0 -233 110 -233 238c0 129 94 239 233 239c66 0 130 -35 159 -90v160h-114v59h114v105h86v-105h52zM279 67c94 0 154 73 154 160s-60 161 -154 161c-92 0 -152 -74 -152 -161s60 -160 152 -160z" />
    <glyph glyph-name="ecaron" unicode="&#x11b;" horiz-adv-x="525" 
d="M473 204h-344c4 -77 41 -142 141 -142c68 0 101 33 115 72h88c-15 -77 -89 -145 -203 -145c-153 0 -227 107 -227 238c0 137 81 239 224 239c118 0 210 -89 210 -205c0 -13 0 -32 -4 -57zM265 399c-78 0 -133 -47 -135 -129h263c0 79 -55 129 -128 129zM263 525l-174 154
l51 55l124 -113l125 114l50 -56z" />
    <glyph glyph-name="emacron" unicode="&#x113;" horiz-adv-x="525" 
d="M473 204h-344c4 -77 41 -142 141 -142c68 0 101 33 115 72h88c-15 -77 -89 -145 -203 -145c-153 0 -227 107 -227 238c0 137 81 239 224 239c118 0 210 -89 210 -205c0 -13 0 -32 -4 -57zM265 399c-78 0 -133 -47 -135 -129h263c0 79 -55 129 -128 129zM449 649v-78h-358
v78h358z" />
    <glyph glyph-name="ebreve" unicode="&#x115;" horiz-adv-x="525" 
d="M473 204h-344c4 -77 41 -142 141 -142c68 0 101 33 115 72h88c-15 -77 -89 -145 -203 -145c-153 0 -227 107 -227 238c0 137 81 239 224 239c118 0 210 -89 210 -205c0 -13 0 -32 -4 -57zM265 399c-78 0 -133 -47 -135 -129h263c0 79 -55 129 -128 129zM266 617
c57 0 96 32 110 83h81c-15 -87 -94 -151 -191 -151c-99 0 -176 64 -191 151h82c13 -51 53 -83 109 -83z" />
    <glyph glyph-name="edotaccent" unicode="&#x117;" horiz-adv-x="525" 
d="M473 204h-344c4 -77 41 -142 141 -142c68 0 101 33 115 72h88c-15 -77 -89 -145 -203 -145c-153 0 -227 107 -227 238c0 137 81 239 224 239c118 0 210 -89 210 -205c0 -13 0 -32 -4 -57zM265 399c-78 0 -133 -47 -135 -129h263c0 79 -55 129 -128 129zM194 609
c0 39 31 70 69 70c40 0 71 -31 71 -70s-31 -70 -71 -70c-38 0 -69 31 -69 70z" />
    <glyph glyph-name="eogonek" unicode="&#x119;" horiz-adv-x="525" 
d="M373 -133l-1 -64c-21 -7 -54 -15 -89 -15c-76 0 -115 44 -115 97c0 40 22 72 67 107c-129 15 -192 121 -192 235c0 137 81 239 224 239c118 0 210 -89 210 -205c0 -13 0 -32 -4 -57h-341c0 -77 40 -142 138 -142c68 0 100 33 115 72h88c-15 -70 -77 -134 -175 -144
c-27 -20 -47 -45 -47 -77s21 -59 58 -59c20 0 45 5 64 13zM265 399c-78 0 -133 -47 -135 -129h263c0 79 -55 129 -128 129z" />
    <glyph glyph-name="gcircumflex" unicode="&#x11d;" horiz-adv-x="595" 
d="M279 388c-92 0 -152 -74 -152 -161s60 -160 152 -160c94 0 154 73 154 160s-60 161 -154 161zM519 454v-483c0 -162 -91 -227 -242 -227c-155 0 -224 96 -230 198h88c5 -64 47 -121 142 -121c97 0 156 43 156 150v108c-29 -55 -93 -90 -159 -90c-139 0 -233 110 -233 238
c0 129 94 239 233 239c66 0 130 -35 159 -90v78h86zM98 585l176 154l179 -154l-51 -56l-127 115l-126 -114z" />
    <glyph glyph-name="gbreve" unicode="&#x11f;" horiz-adv-x="595" 
d="M279 388c-92 0 -152 -74 -152 -161s60 -160 152 -160c94 0 154 73 154 160s-60 161 -154 161zM519 454v-483c0 -162 -91 -227 -242 -227c-155 0 -224 96 -230 198h88c5 -64 47 -121 142 -121c97 0 156 43 156 150v108c-29 -55 -93 -90 -159 -90c-139 0 -233 110 -233 238
c0 129 94 239 233 239c66 0 130 -35 159 -90v78h86zM279 617c56 0 96 32 109 83h82c-15 -87 -94 -151 -191 -151c-99 0 -176 64 -191 151h81c14 -51 53 -83 110 -83z" />
    <glyph glyph-name="gdotaccent" unicode="&#x121;" horiz-adv-x="595" 
d="M279 388c-92 0 -152 -74 -152 -161s60 -160 152 -160c94 0 154 73 154 160s-60 161 -154 161zM519 454v-483c0 -162 -91 -227 -242 -227c-155 0 -224 96 -230 198h88c5 -64 47 -121 142 -121c97 0 156 43 156 150v108c-29 -55 -93 -90 -159 -90c-139 0 -233 110 -233 238
c0 129 94 239 233 239c66 0 130 -35 159 -90v78h86zM199 609c0 39 31 70 69 70c40 0 71 -31 71 -70s-31 -70 -71 -70c-38 0 -69 31 -69 70z" />
    <glyph glyph-name="gcommaaccent" unicode="&#x123;" horiz-adv-x="595" 
d="M519 454v-483c0 -162 -91 -227 -242 -227c-155 0 -224 96 -230 198h88c5 -64 47 -121 142 -121c97 0 156 43 156 150v108c-29 -55 -93 -90 -159 -90c-139 0 -233 110 -233 238c0 129 94 239 233 239c66 0 130 -35 159 -90v78h86zM279 67c94 0 154 73 154 160
s-60 161 -154 161c-92 0 -152 -74 -152 -161s60 -160 152 -160zM345 597c0 -37 -30 -68 -69 -68c-49 0 -81 41 -81 98c0 105 54 143 144 144v-42c-34 0 -58 -12 -69 -31c-11 -15 -14 -29 -15 -41c4 3 14 6 22 6c41 0 68 -29 68 -66z" />
    <glyph glyph-name="hcircumflex" unicode="&#x125;" horiz-adv-x="565" 
d="M78 0v700h87v-326c27 55 83 92 160 92c63 0 109 -22 136 -60c25 -34 35 -74 35 -138v-268h-87v241c0 84 -30 148 -115 148c-87 0 -129 -74 -129 -155v-234h-87zM111 804l177 153l178 -153l-50 -56l-127 114l-126 -114z" />
    <glyph glyph-name="hbar" unicode="&#x127;" horiz-adv-x="565" 
d="M331 595v-59h-166v-162c27 55 83 92 160 92c63 0 109 -22 136 -60c25 -34 35 -74 35 -138v-268h-87v241c0 84 -30 148 -115 148c-87 0 -129 -74 -129 -155v-234h-87v536h-78v59h78v105h87v-105h166z" />
    <glyph glyph-name="itilde" unicode="&#x129;" horiz-adv-x="243" 
d="M78 0v454h87v-454h-87zM192 640c30 0 49 23 62 49l64 -33c-32 -60 -81 -84 -125 -84c-68 0 -98 49 -137 49c-30 0 -47 -22 -61 -49l-60 40c31 55 77 77 121 77c68 0 96 -49 136 -49z" />
    <glyph glyph-name="imacron" unicode="&#x12b;" horiz-adv-x="243" 
d="M78 0v454h87v-454h-87zM298 648v-78h-358v78h358z" />
    <glyph glyph-name="ibreve" unicode="&#x12d;" horiz-adv-x="243" 
d="M78 0v454h87v-454h-87zM122 617c57 0 96 32 110 83h81c-15 -87 -94 -151 -191 -151c-98 0 -176 64 -191 151h82c13 -51 53 -83 109 -83z" />
    <glyph glyph-name="iogonek" unicode="&#x12f;" horiz-adv-x="243" 
d="M215 -133l-1 -64c-21 -7 -54 -15 -89 -15c-76 0 -115 44 -115 97c0 43 26 77 79 115h-11v454h87v-454h-12c-32 -23 -60 -49 -60 -87c0 -32 21 -59 58 -59c20 0 45 5 64 13zM52 626c0 39 31 71 69 71c39 0 71 -32 71 -71c0 -38 -32 -69 -71 -69c-38 0 -69 31 -69 69z" />
    <glyph glyph-name="jcircumflex" unicode="&#x135;" horiz-adv-x="243" 
d="M165 454v-576c0 -98 -47 -133 -98 -133c-33 0 -62 5 -79 12v73c21 -6 30 -8 44 -8c30 0 46 19 46 61v571h87zM-53 585l177 154l178 -154l-50 -56l-127 115l-127 -114z" />
    <glyph glyph-name="kcommaaccent" unicode="&#x137;" horiz-adv-x="477" 
d="M355 454h110l-207 -227l207 -227h-110l-190 206v-206h-87v700h87v-453zM182 -74c0 31 25 56 57 56c40 0 67 -34 67 -81c0 -87 -45 -118 -120 -119v36c30 0 49 8 58 23c9 13 12 25 12 35c-3 -3 -11 -6 -18 -6c-34 0 -56 25 -56 56z" />
    <glyph glyph-name="lacute" unicode="&#x13a;" horiz-adv-x="243" 
d="M78 0v700h87v-700h-87zM267 888l-249 -137l-42 68l249 137z" />
    <glyph glyph-name="lcaron" unicode="&#x13e;" horiz-adv-x="368" 
d="M78 0v700h87v-700h-87zM218 662c0 38 30 69 69 69c49 0 81 -41 81 -98c0 -105 -54 -143 -144 -144v42c35 0 58 12 69 31c11 15 14 29 15 41c-4 -3 -14 -6 -22 -6c-41 0 -68 28 -68 65z" />
    <glyph glyph-name="lcommaaccent" unicode="&#x13c;" horiz-adv-x="243" 
d="M78 0v700h87v-700h-87zM61 -74c0 31 25 56 57 56c40 0 68 -34 68 -81c0 -87 -46 -118 -120 -119v36c29 0 48 8 58 23c9 13 12 25 11 35c-3 -3 -11 -6 -18 -6c-34 0 -56 25 -56 56z" />
    <glyph glyph-name="ldot" unicode="&#x140;" horiz-adv-x="341" 
d="M78 0v700h87v-700h-87zM228 339c0 39 31 71 70 71s70 -32 70 -71c0 -38 -31 -69 -70 -69s-70 31 -70 69z" />
    <glyph glyph-name="nacute" unicode="&#x144;" horiz-adv-x="565" 
d="M78 0v454h87v-80c27 55 83 92 160 92c63 0 109 -22 136 -60c25 -34 35 -74 35 -138v-268h-87v241c0 84 -30 148 -115 148c-87 0 -129 -74 -129 -155v-234h-87zM433 640l-249 -137l-41 68l249 137z" />
    <glyph glyph-name="ncaron" unicode="&#x148;" horiz-adv-x="565" 
d="M165 0h-87v454h87v-80c27 55 83 92 160 92c63 0 109 -22 136 -60c25 -34 35 -74 35 -138v-268h-87v241c0 84 -30 148 -115 148c-87 0 -129 -74 -129 -155v-234zM298 525l-174 154l51 55l123 -113l125 114l51 -56z" />
    <glyph glyph-name="ncommaaccent" unicode="&#x146;" horiz-adv-x="565" 
d="M165 0h-87v454h87v-80c27 55 83 92 160 92c63 0 109 -22 136 -60c25 -34 35 -74 35 -138v-268h-87v241c0 84 -30 148 -115 148c-87 0 -129 -74 -129 -155v-234zM237 -74c0 31 25 56 57 56c40 0 67 -34 67 -81c0 -87 -46 -118 -120 -119v36c29 0 48 8 58 23
c9 13 12 25 12 35c-3 -3 -12 -6 -19 -6c-33 0 -55 25 -55 56z" />
    <glyph glyph-name="napostrophe" unicode="&#x149;" horiz-adv-x="565" 
d="M165 0h-87v454h87v-80c27 55 83 92 160 92c63 0 109 -22 136 -60c25 -34 35 -74 35 -138v-268h-87v241c0 84 -30 148 -115 148c-87 0 -129 -74 -129 -155v-234zM-38 673c0 31 24 57 57 57c40 0 67 -34 67 -81c0 -88 -46 -119 -120 -120v36c29 0 48 9 58 23
c9 13 12 25 12 35c-3 -3 -12 -5 -19 -5c-33 0 -55 24 -55 55z" />
    <glyph glyph-name="omacron" unicode="&#x14d;" horiz-adv-x="560" 
d="M279 -11c-144 0 -238 110 -238 238c0 129 94 239 238 239c146 0 240 -110 240 -239c0 -128 -94 -238 -240 -238zM279 67c94 0 154 73 154 160s-60 161 -154 161c-92 0 -152 -74 -152 -161s60 -160 152 -160zM459 648v-78h-358v78h358z" />
    <glyph glyph-name="obreve" unicode="&#x14f;" horiz-adv-x="560" 
d="M279 -11c-144 0 -238 110 -238 238c0 129 94 239 238 239c146 0 240 -110 240 -239c0 -128 -94 -238 -240 -238zM279 67c94 0 154 73 154 160s-60 161 -154 161c-92 0 -152 -74 -152 -161s60 -160 152 -160zM279 617c56 0 96 32 109 83h82c-15 -87 -94 -151 -191 -151
c-99 0 -176 64 -191 151h81c14 -51 53 -83 110 -83z" />
    <glyph glyph-name="ohungarumlaut" unicode="&#x151;" horiz-adv-x="560" 
d="M279 -11c-144 0 -238 110 -238 238c0 129 94 239 238 239c146 0 240 -110 240 -239c0 -128 -94 -238 -240 -238zM279 67c94 0 154 73 154 160s-60 161 -154 161c-92 0 -152 -74 -152 -161s60 -160 152 -160zM120 555l125 166l77 -39l-158 -151zM517 682l-158 -151l-44 24
l125 166z" />
    <glyph glyph-name="oslashacute" unicode="&#x1ff;" horiz-adv-x="560" 
d="M426 507l-30 -69c77 -41 123 -121 123 -211c0 -128 -94 -238 -240 -238c-26 0 -51 3 -73 11l-32 -75l-54 22l32 76c-70 42 -111 119 -111 204c0 129 94 239 238 239c22 0 42 -4 62 -8l31 71zM279 67c94 0 154 73 154 160c0 56 -26 106 -70 135l-125 -290
c13 -4 26 -5 41 -5zM127 227c0 -51 22 -98 58 -128l124 285c-10 2 -20 4 -30 4c-92 0 -152 -74 -152 -161zM425 640l-249 -137l-42 68l249 137z" />
    <glyph glyph-name="racute" unicode="&#x155;" horiz-adv-x="365" 
d="M359 454v-80c-18 4 -27 5 -43 5c-101 0 -151 -71 -151 -180v-199h-87v454h87v-89c24 57 87 96 151 96c17 0 31 -2 43 -7zM337 655l-249 -137l-42 68l249 137z" />
    <glyph glyph-name="rcaron" unicode="&#x159;" horiz-adv-x="365" 
d="M359 454v-80c-18 4 -27 5 -43 5c-101 0 -151 -71 -151 -180v-199h-87v454h87v-89c24 57 87 96 151 96c17 0 31 -2 43 -7zM207 525l-174 154l51 55l124 -113l124 114l51 -56z" />
    <glyph glyph-name="rcommaaccent" unicode="&#x157;" horiz-adv-x="365" 
d="M359 454v-80c-18 4 -27 5 -43 5c-101 0 -151 -71 -151 -180v-199h-87v454h87v-89c24 57 87 96 151 96c17 0 31 -2 43 -7zM61 -74c0 31 25 56 57 56c40 0 68 -34 68 -81c0 -87 -46 -118 -120 -119v36c29 0 48 8 58 23c9 13 12 25 11 35c-3 -3 -11 -6 -18 -6
c-34 0 -56 25 -56 56z" />
    <glyph glyph-name="sacute" unicode="&#x15b;" horiz-adv-x="452" 
d="M270 253c69 -22 136 -42 136 -128c0 -91 -76 -136 -178 -136c-100 0 -188 54 -188 164h85c0 -69 46 -95 107 -95c55 0 91 20 91 65c0 51 -54 56 -145 87c-69 22 -123 43 -123 125c0 85 75 131 169 131c99 0 175 -62 175 -153h-84c0 53 -32 83 -92 83
c-48 0 -84 -22 -84 -63c0 -46 47 -53 131 -80zM371 640l-249 -137l-41 68l249 137z" />
    <glyph glyph-name="scircumflex" unicode="&#x15d;" horiz-adv-x="452" 
d="M270 253c69 -22 136 -42 136 -128c0 -91 -76 -136 -178 -136c-100 0 -188 54 -188 164h85c0 -69 46 -95 107 -95c55 0 91 20 91 65c0 51 -54 56 -145 87c-69 22 -123 43 -123 125c0 85 75 131 169 131c99 0 175 -62 175 -153h-84c0 53 -32 83 -92 83
c-48 0 -84 -22 -84 -63c0 -46 47 -53 131 -80zM49 585l176 154l179 -154l-51 -56l-127 115l-126 -114z" />
    <glyph glyph-name="scedilla" unicode="&#x15f;" horiz-adv-x="452" 
d="M190 -118v110c-84 12 -150 65 -150 161h85c0 -69 46 -95 107 -95c55 0 91 20 91 65c0 52 -54 56 -146 87c-68 22 -122 43 -122 125c0 85 75 131 169 131c99 0 175 -62 175 -153h-84c0 53 -32 83 -92 83c-48 0 -84 -22 -84 -63c0 -47 51 -53 134 -80
c68 -22 133 -44 133 -128c0 -85 -65 -130 -159 -135v-61c9 13 25 20 44 20c40 0 82 -33 82 -87c0 -47 -33 -96 -100 -96c-25 0 -89 14 -98 87h53c5 -24 21 -40 45 -40c28 0 47 20 47 49c0 26 -19 45 -46 45c-15 0 -29 -5 -39 -25h-45z" />
    <glyph glyph-name="scommaaccent" unicode="&#x219;" horiz-adv-x="452" 
d="M172 -73c0 32 24 57 56 57c41 0 68 -34 68 -81c0 -87 -46 -119 -120 -120v36c29 0 48 8 58 24c9 12 12 24 12 35c-4 -3 -12 -6 -19 -6c-33 0 -55 25 -55 55zM40 153h85c0 -69 46 -95 107 -95c55 0 91 20 91 65c0 51 -54 56 -145 87c-69 22 -123 43 -123 125
c0 85 75 131 169 131c99 0 175 -62 175 -153h-84c0 53 -32 83 -92 83c-48 0 -84 -22 -84 -63c0 -46 47 -53 131 -80c69 -22 136 -42 136 -128c0 -91 -76 -136 -178 -136c-100 0 -188 54 -188 164z" />
    <glyph glyph-name="tcaron" unicode="&#x165;" horiz-adv-x="500" 
d="M20 381v73h84v153h87v-153h118v-73h-118v-209c0 -88 31 -99 75 -99c18 0 46 2 59 4v-77c-17 -3 -49 -6 -78 -6c-56 0 -143 10 -143 159v228h-84zM297 645c0 38 29 68 69 68c49 0 80 -40 80 -97c0 -105 -54 -143 -143 -144v42c35 0 58 11 69 30c11 16 14 30 14 42
c-3 -4 -13 -7 -22 -7c-40 0 -67 29 -67 66z" />
    <glyph glyph-name="tcommaaccent" unicode="&#x163;" horiz-adv-x="340" 
d="M20 381v73h84v153h87v-153h118v-73h-118v-209c0 -88 31 -99 75 -99c18 0 46 2 59 4v-77c-17 -3 -49 -6 -78 -6c-56 0 -143 10 -143 159v228h-84zM144 -74c0 31 25 56 57 56c40 0 67 -34 67 -81c0 -87 -46 -118 -120 -119v36c29 0 48 8 58 23c9 13 12 25 12 35
c-3 -3 -12 -6 -19 -6c-33 0 -55 25 -55 56z" />
    <glyph glyph-name="tbar" unicode="&#x167;" horiz-adv-x="340" 
d="M325 77v-77c-17 -3 -49 -6 -78 -6c-56 0 -143 10 -143 159v64h-84v59h84v105h-84v73h84v153h87v-153h118v-73h-118v-105h97v-59h-97v-45c0 -88 31 -99 75 -99c18 0 46 2 59 4z" />
    <glyph glyph-name="uni021B" unicode="&#x21b;" horiz-adv-x="340" 
d="M20 381v73h84v153h87v-153h118v-73h-118v-209c0 -88 31 -99 75 -99c18 0 46 2 59 4v-77c-17 -3 -49 -6 -78 -6c-56 0 -143 10 -143 159v228h-84zM144 -74c0 31 25 56 57 56c40 0 67 -34 67 -81c0 -87 -46 -118 -120 -119v36c29 0 48 8 58 23c9 13 12 25 12 35
c-3 -3 -12 -6 -19 -6c-33 0 -55 25 -55 56z" />
    <glyph glyph-name="utilde" unicode="&#x169;" horiz-adv-x="565" 
d="M487 454v-454h-87v81c-27 -55 -84 -92 -160 -92c-63 0 -110 22 -137 59c-25 34 -34 75 -34 138v268h87v-240c0 -84 30 -148 114 -148c88 0 130 73 130 155v233h87zM346 640c30 0 49 23 62 49l64 -33c-32 -60 -81 -84 -125 -84c-68 0 -98 49 -137 49
c-30 0 -47 -22 -61 -49l-60 40c31 55 77 77 121 77c68 0 96 -49 136 -49z" />
    <glyph glyph-name="umacron" unicode="&#x16b;" horiz-adv-x="565" 
d="M487 454v-454h-87v81c-27 -55 -84 -92 -160 -92c-63 0 -110 22 -137 59c-25 34 -34 75 -34 138v268h87v-240c0 -84 30 -148 114 -148c88 0 130 73 130 155v233h87zM461 648v-78h-358v78h358z" />
    <glyph glyph-name="ubreve" unicode="&#x16d;" horiz-adv-x="565" 
d="M487 454v-454h-87v81c-27 -55 -84 -92 -160 -92c-63 0 -110 22 -137 59c-25 34 -34 75 -34 138v268h87v-240c0 -84 30 -148 114 -148c88 0 130 73 130 155v233h87zM279 617c56 0 96 32 109 83h82c-15 -87 -95 -151 -191 -151c-99 0 -176 64 -191 151h81
c14 -51 53 -83 110 -83z" />
    <glyph glyph-name="uring" unicode="&#x16f;" horiz-adv-x="565" 
d="M487 454v-454h-87v81c-27 -55 -84 -92 -160 -92c-63 0 -110 22 -137 59c-25 34 -34 75 -34 138v268h87v-240c0 -84 30 -148 114 -148c88 0 130 73 130 155v233h87zM278 758c71 0 128 -58 128 -127s-57 -127 -128 -127c-70 0 -127 58 -127 127c0 71 57 127 127 127z
M278 705c-40 0 -71 -34 -71 -74c0 -39 31 -72 71 -72c41 0 72 33 72 73s-31 73 -72 73z" />
    <glyph glyph-name="uhungarumlaut" unicode="&#x171;" horiz-adv-x="565" 
d="M400 454h87v-454h-87v81c-27 -55 -84 -92 -160 -92c-63 0 -110 22 -137 59c-25 34 -34 75 -34 138v268h87v-240c0 -84 30 -148 114 -148c88 0 130 73 130 155v233zM316 665l-158 -151l-44 23l125 166zM511 665l-158 -151l-44 23l125 166z" />
    <glyph glyph-name="uogonek" unicode="&#x173;" horiz-adv-x="565" 
d="M240 -11c-63 0 -110 22 -137 59c-25 34 -34 75 -34 138v268h87v-240c0 -84 30 -148 114 -148c88 0 130 73 130 155v233h87v-454h-21c-43 -23 -79 -52 -79 -95c0 -28 19 -51 52 -51c19 0 42 4 60 11v-63c-21 -7 -53 -14 -86 -14c-77 0 -116 42 -116 97c0 45 35 81 103 119
v77c-27 -55 -84 -92 -160 -92z" />
    <glyph glyph-name="wgrave" unicode="&#x1e81;" horiz-adv-x="734" 
d="M494 0l-127 359l-127 -359h-60l-176 454h93l113 -320l114 320h86l113 -320l114 320h93l-176 -454h-60zM471 503l-249 137l41 68l249 -137z" />
    <glyph glyph-name="wacute" unicode="&#x1e83;" horiz-adv-x="734" 
d="M494 0l-127 359l-127 -359h-60l-176 454h93l113 -320l114 320h86l113 -320l114 320h93l-176 -454h-60zM512 640l-249 -137l-41 68l249 137z" />
    <glyph glyph-name="wcircumflex" unicode="&#x175;" horiz-adv-x="734" 
d="M494 0l-127 359l-127 -359h-60l-176 454h93l113 -320l114 320h86l113 -320l114 320h93l-176 -454h-60zM192 585l177 154l178 -154l-50 -56l-128 115l-126 -114z" />
    <glyph glyph-name="wdieresis" unicode="&#x1e85;" horiz-adv-x="734" 
d="M494 0l-127 359l-127 -359h-60l-176 454h93l113 -320l114 320h86l113 -320l114 320h93l-176 -454h-60zM414 610c0 37 30 67 67 67s67 -30 67 -67s-30 -67 -67 -67s-67 30 -67 67zM185 610c0 37 29 67 66 67c38 0 68 -30 68 -67s-30 -67 -68 -67c-37 0 -66 30 -66 67z" />
    <glyph glyph-name="ygrave" unicode="&#x1ef3;" horiz-adv-x="573" 
d="M282 -256c-129 0 -209 66 -212 197h88c5 -82 51 -123 126 -123c78 0 127 31 127 135v128c-27 -55 -82 -92 -159 -92c-66 0 -110 21 -138 58c-25 34 -34 75 -34 142v265h87v-238c0 -88 26 -150 116 -150c87 0 128 73 128 155v233h87v-501c0 -145 -76 -209 -216 -209z
M390 503l-249 137l41 68l249 -137z" />
    <glyph glyph-name="ycircumflex" unicode="&#x177;" horiz-adv-x="573" 
d="M282 -256c-129 0 -209 66 -212 197h88c5 -82 51 -123 126 -123c78 0 127 31 127 135v128c-27 -55 -82 -92 -159 -92c-66 0 -110 21 -138 58c-25 34 -34 75 -34 142v265h87v-238c0 -88 26 -150 116 -150c87 0 128 73 128 155v233h87v-501c0 -145 -76 -209 -216 -209z
M111 585l177 154l178 -154l-50 -56l-127 115l-127 -114z" />
    <glyph glyph-name="zacute" unicode="&#x17a;" horiz-adv-x="434" 
d="M32 454h382l-243 -376h244v-78h-391l243 377h-235v77zM363 639l-249 -137l-42 68l249 137z" />
    <glyph glyph-name="zdotaccent" unicode="&#x17c;" horiz-adv-x="434" 
d="M32 454h382l-243 -376h244v-78h-391l243 377h-235v77zM148 609c0 39 31 70 69 70c39 0 71 -31 71 -70s-32 -70 -71 -70c-38 0 -69 31 -69 70z" />
    <glyph glyph-name="eng" unicode="&#x14b;" horiz-adv-x="565" 
d="M120 -181l56 55c30 -32 59 -52 105 -52c81 0 128 59 128 149v270c0 84 -30 148 -115 148c-87 0 -129 -74 -129 -155v-234h-87v454h87v-80c27 55 83 92 160 92c63 0 109 -22 136 -60c25 -34 35 -74 35 -138v-297c0 -131 -80 -227 -215 -227c-69 0 -123 30 -161 75z" />
    <glyph glyph-name="kgreenlandic" unicode="&#x138;" horiz-adv-x="477" 
d="M465 454l-207 -227l207 -227h-110l-190 206v-206h-87v454h87v-207l190 207h110z" />
    <glyph glyph-name="longs" unicode="&#x17f;" horiz-adv-x="347" 
d="M336 694v-74c-16 5 -31 8 -51 8c-37 0 -79 -4 -79 -86v-542h-87v381h-98v73h98v79c0 165 101 173 155 173c28 0 49 -5 62 -12z" />
    <glyph glyph-name="commaaccent" unicode="&#xf6c3;" horiz-adv-x="234" 
d="M58 58c0 31 25 56 57 56c40 0 68 -34 68 -81c0 -87 -46 -119 -120 -120v36c29 0 48 8 58 24c9 12 12 24 11 35c-3 -3 -11 -6 -18 -6c-34 0 -56 25 -56 56z" />
    <glyph glyph-name="commaturn" horiz-adv-x="234" 
d="M183 650c0 -32 -25 -57 -57 -57c-40 0 -68 34 -68 81c0 87 46 119 120 120v-36c-28 0 -48 -8 -57 -24c-10 -12 -12 -24 -12 -35c3 3 11 6 18 6c34 0 56 -25 56 -55z" />
    <glyph glyph-name="Euro" unicode="&#x20ac;" horiz-adv-x="593" 
d="M463 228h91c0 -129 -94 -239 -241 -239c-144 0 -238 110 -238 239v10h-63l16 67h47v89h-62l17 66h45v11c0 129 94 240 238 240c139 0 231 -99 240 -219h-92c-7 75 -64 136 -148 136c-89 0 -147 -72 -147 -157v-11h229l-17 -66h-212v-89h227l-16 -67h-211v-10
c0 -85 58 -157 147 -157c91 0 150 72 150 157z" />
    <glyph glyph-name="uni00B5" unicode="&#xb5;" 
d="M78 -246v700h87v-240c0 -84 30 -148 115 -148c87 0 129 73 129 155v233h87v-454h-87v81c-27 -55 -83 -92 -160 -92c-35 0 -63 9 -84 28v-263h-87z" />
    <glyph glyph-name="uni2206" unicode="&#x2206;" horiz-adv-x="559" 
d="M280 551l-149 -469h297zM312 700l242 -700h-549l241 700h66z" />
    <glyph glyph-name="uni2126" unicode="&#x2126;" horiz-adv-x="718" 
d="M359 630c-145 0 -222 -105 -222 -227c0 -115 62 -219 184 -243v-160h-255v82h183v28c-125 43 -203 157 -203 289c0 169 118 313 313 313s313 -144 313 -313c0 -132 -78 -247 -203 -289v-28h183v-82h-255v160c122 24 184 128 184 243c0 122 -77 227 -222 227z" />
    <glyph glyph-name="zero.slash" 
d="M286 -12c-144 0 -238 110 -238 238v248c0 129 94 238 238 238c147 0 241 -109 241 -238v-248c0 -128 -94 -238 -241 -238zM415 542l-195 -455c18 -11 41 -17 66 -17c91 0 150 72 150 156v248c0 25 -8 49 -21 68zM139 226c0 -28 8 -53 21 -74l198 460
c-21 11 -45 18 -72 18c-89 0 -147 -71 -147 -156v-248z" />
    <glyph glyph-name="zero.tlfslash" 
d="M48 226v248c0 129 94 238 238 238c147 0 241 -109 241 -238v-248c0 -128 -94 -238 -241 -238c-144 0 -238 110 -238 238zM436 226v248c0 25 -8 49 -21 68l-195 -455c18 -11 41 -17 66 -17c91 0 150 72 150 156zM139 226c0 -28 8 -53 21 -74l198 460c-21 11 -45 18 -72 18
c-89 0 -147 -71 -147 -156v-248z" />
    <glyph glyph-name="zero.tlf" 
d="M48 226v248c0 129 94 238 238 238c147 0 241 -109 241 -238v-248c0 -128 -94 -238 -241 -238c-144 0 -238 110 -238 238zM436 226v248c0 85 -59 156 -150 156c-89 0 -147 -71 -147 -156v-248c0 -84 58 -156 147 -156c91 0 150 72 150 156z" />
    <glyph glyph-name="one.tlf" 
d="M104 511v73h49c90 0 136 37 144 116h87v-700h-95v511h-185z" />
    <glyph glyph-name="two.tlf" 
d="M79 0c0 221 75 285 197 349c72 36 149 73 149 167c0 73 -49 113 -123 113c-76 0 -132 -48 -132 -137h-91c0 137 102 219 224 219c125 0 213 -72 213 -203c0 -130 -128 -195 -189 -227c-117 -66 -144 -104 -144 -199h333v-82h-437z" />
    <glyph glyph-name="three.tlf" 
d="M47 221h91c0 -93 65 -150 150 -150c86 0 138 57 138 125c0 74 -42 129 -142 129h-50v81h50c90 0 127 48 127 116s-49 107 -122 107c-91 0 -131 -52 -131 -127h-91c0 124 89 209 216 209c122 0 219 -75 219 -189c0 -81 -42 -136 -108 -157c72 -23 123 -79 123 -169
c0 -123 -102 -207 -233 -207c-128 0 -237 86 -237 232z" />
    <glyph glyph-name="four.tlf" 
d="M331 0v225h-261v475h91v-393h170v216h91v-216h105v-82h-105v-225h-91z" />
    <glyph glyph-name="five.tlf" 
d="M63 298v402h412v-82h-330v-234c29 55 102 80 157 80c146 0 226 -108 226 -237c0 -128 -95 -238 -241 -238c-144 0 -238 110 -238 238h91c0 -84 58 -156 147 -156c92 0 149 72 149 156c0 85 -57 155 -149 155c-59 0 -105 -28 -131 -84h-93z" />
    <glyph glyph-name="six.tlf" 
d="M286 -11c-144 0 -238 110 -238 238c0 51 16 99 41 139l209 334h105l-160 -246c10 8 28 12 43 12c147 0 241 -110 241 -239c0 -128 -94 -238 -241 -238zM286 71c91 0 150 72 150 156c0 85 -59 156 -150 156c-89 0 -147 -71 -147 -156c0 -84 58 -156 147 -156z" />
    <glyph glyph-name="seven.tlf" 
d="M91 700h434l-311 -700h-97l278 618h-304v82z" />
    <glyph glyph-name="eight.tlf" 
d="M280 -11c-147 0 -236 93 -236 208c0 73 38 147 117 169c-72 25 -101 88 -101 151c0 108 82 194 220 194c136 0 219 -88 219 -194c0 -63 -30 -126 -101 -151c79 -22 116 -98 116 -169c0 -112 -88 -208 -234 -208zM280 397c80 0 128 52 128 116s-49 116 -128 116
c-80 0 -129 -52 -129 -116c0 -65 48 -116 129 -116zM280 71c89 0 143 57 143 126c0 68 -52 126 -143 126c-93 0 -144 -57 -144 -126c0 -70 54 -126 144 -126z" />
    <glyph glyph-name="nine.tlf" 
d="M289 711c144 0 238 -109 238 -238c0 -51 -17 -98 -42 -139l-208 -334h-105l160 246c-7 -8 -31 -11 -43 -11c-147 0 -241 109 -241 238s94 238 241 238zM289 629c-91 0 -150 -71 -150 -156s59 -156 150 -156c89 0 147 71 147 156s-58 156 -147 156z" />
    <glyph glyph-name="zerosuperior" unicode="&#x2070;" horiz-adv-x="394" 
d="M56 441v135c2 72 55 132 140 132c87 0 142 -61 142 -134c0 0 -1 -132 -1 -135c0 -71 -55 -132 -141 -132s-140 62 -140 134zM266 441v133c0 40 -27 74 -70 74c-41 0 -69 -34 -69 -74v-133c0 -40 28 -73 69 -73c43 0 70 33 70 73z" />
    <glyph glyph-name="foursuperior" unicode="&#x2074;" horiz-adv-x="385" 
d="M216 315v116h-152v269h71v-209h81v112h72v-112h52v-60h-52v-116h-72z" />
    <glyph glyph-name="fivesuperior" unicode="&#x2075;" horiz-adv-x="401" 
d="M71 478v222h247v-56h-181v-110c15 26 50 39 82 39c83 0 125 -63 125 -130c0 -73 -53 -135 -141 -135s-141 62 -141 135h70c0 -41 27 -76 71 -76c43 0 71 35 71 76s-27 75 -71 75c-31 0 -52 -14 -65 -40h-67z" />
    <glyph glyph-name="sixsuperior" unicode="&#x2076;" horiz-adv-x="380" 
d="M189 309c-88 0 -141 61 -141 134c0 28 8 55 22 78l114 179h81l-83 -128c9 3 21 2 32 1c71 -8 116 -63 116 -130c0 -73 -54 -134 -141 -134zM189 368c43 0 71 35 71 75c0 42 -28 76 -71 76c-44 0 -71 -34 -71 -76c0 -40 27 -75 71 -75z" />
    <glyph glyph-name="sevensuperior" unicode="&#x2077;" horiz-adv-x="339" 
d="M50 700h262l-169 -385h-77l145 325h-161v60z" />
    <glyph glyph-name="eightsuperior" unicode="&#x2078;" horiz-adv-x="391" 
d="M196 308c-88 0 -140 51 -140 115c0 43 26 82 67 93c-37 12 -58 46 -58 83c0 60 48 108 131 108c82 0 130 -48 130 -108c0 -37 -21 -71 -58 -83c41 -12 67 -51 67 -93c0 -63 -52 -115 -139 -115zM196 539c38 0 62 26 62 57s-24 56 -62 56c-39 0 -62 -25 -62 -56
s22 -57 62 -57zM196 363c43 0 69 28 69 62c0 32 -25 61 -69 61c-45 0 -70 -28 -70 -61c0 -35 26 -62 70 -62z" />
    <glyph glyph-name="ninesuperior" unicode="&#x2079;" horiz-adv-x="380" 
d="M191 707c87 0 141 -62 141 -135c0 -29 -9 -55 -23 -77l-114 -180h-80l82 127c-3 -4 -9 -4 -13 -4c-83 3 -134 61 -134 134s53 135 141 135zM191 647c-43 0 -71 -34 -71 -75s28 -76 71 -76s71 35 71 76s-28 75 -71 75z" />
    <glyph glyph-name="plussuperior" unicode="&#x207a;" horiz-adv-x="390" 
d="M224 357h-58v87h-86v55h86v87h58v-87h86v-55h-86v-87z" />
    <glyph glyph-name="minussuperior" unicode="&#x207b;" horiz-adv-x="390" 
d="M311 445h-232v54h232v-54z" />
    <glyph glyph-name="equalsuperior" unicode="&#x207c;" horiz-adv-x="390" 
d="M311 493h-232v55h232v-55zM311 394h-232v55h232v-55z" />
    <glyph glyph-name="parenleftsuperior" unicode="&#x207d;" horiz-adv-x="268" 
d="M223 744v-61c-48 0 -79 -38 -79 -83v-269c0 -44 31 -82 79 -82v-62c-91 0 -148 66 -148 144v269c0 78 57 144 148 144z" />
    <glyph glyph-name="parenrightsuperior" unicode="&#x207e;" horiz-adv-x="268" 
d="M45 683v61c91 0 149 -66 149 -144v-269c0 -78 -58 -144 -149 -144v62c49 0 79 38 79 82v269c0 45 -30 83 -79 83z" />
    <glyph glyph-name="asuperior" unicode="&#xf6e9;" horiz-adv-x="402" 
d="M265 573h68v-258h-68v44c-13 -28 -49 -50 -87 -50c-76 0 -127 59 -127 134c0 76 51 135 127 135c38 0 74 -22 87 -50v45zM192 367c44 0 73 35 73 76c0 42 -29 78 -73 78c-45 0 -74 -36 -74 -78c0 -41 29 -76 74 -76z" />
    <glyph glyph-name="bsuperior" unicode="&#xf6ea;" horiz-adv-x="403" 
d="M137 359v-44h-68v385h68v-172c13 28 48 50 87 50c76 0 128 -59 128 -135c0 -75 -52 -134 -128 -134c-39 0 -74 22 -87 50zM211 367c44 0 73 35 73 76c0 42 -29 78 -73 78c-45 0 -74 -36 -74 -78c0 -41 29 -76 74 -76z" />
    <glyph glyph-name="csuperior" horiz-adv-x="368" 
d="M316 473h-68c-3 28 -20 48 -61 48c-46 0 -69 -36 -69 -77c0 -42 22 -77 72 -77c35 0 52 17 59 43h68c-8 -58 -50 -101 -131 -101c-88 0 -135 64 -135 135s47 135 135 135c86 0 125 -52 130 -106z" />
    <glyph glyph-name="dsuperior" unicode="&#xf6eb;" horiz-adv-x="402" 
d="M265 315v44c-13 -28 -49 -50 -87 -50c-76 0 -127 59 -127 134c0 76 51 135 127 135c38 0 74 -22 87 -50v172h68v-385h-68zM192 367c44 0 73 35 73 76c0 42 -29 78 -73 78c-45 0 -74 -36 -74 -78c0 -41 29 -76 74 -76z" />
    <glyph glyph-name="esuperior" unicode="&#xf6ec;" horiz-adv-x="368" 
d="M313 428h-194c0 -37 19 -70 68 -70c34 0 51 17 58 36h66c-8 -46 -53 -85 -123 -85c-90 0 -137 61 -137 135c0 76 48 135 135 135c77 0 129 -53 129 -117c0 -9 -1 -20 -2 -34zM185 530c-38 0 -64 -23 -65 -61h128c0 37 -27 61 -63 61z" />
    <glyph glyph-name="fsuperior" horiz-adv-x="261" 
d="M225 699v-51c-9 4 -17 5 -28 5c-19 0 -39 -4 -39 -42v-38h67v-52h-67v-206h-68v206h-50v52h50v34c0 91 54 98 92 98c20 0 33 -3 43 -6z" />
    <glyph glyph-name="gsuperior" horiz-adv-x="401" 
d="M192 521c-45 0 -74 -36 -74 -77c0 -42 29 -77 74 -77c44 0 73 35 73 77c0 41 -29 77 -73 77zM333 573v-263c0 -93 -48 -129 -143 -129c-94 0 -134 48 -137 109h68c3 -30 23 -58 69 -58s75 21 75 74v54c-15 -29 -48 -48 -86 -48c-77 0 -128 56 -128 132
c0 75 50 134 126 134c38 0 73 -19 88 -49v44h68z" />
    <glyph glyph-name="hsuperior" unicode="&#x2b0;" horiz-adv-x="383" 
d="M69 315v385h66v-172c14 30 46 50 88 50c33 0 57 -10 73 -29c16 -20 22 -46 22 -83v-151h-66v135c0 41 -15 71 -55 71c-41 0 -62 -34 -62 -76v-130h-66z" />
    <glyph glyph-name="isuperior" unicode="&#xf6ed;" horiz-adv-x="222" 
d="M65 663c0 25 20 46 46 46c27 0 47 -21 47 -46s-20 -46 -47 -46c-26 0 -46 21 -46 46zM77 573h68v-258h-68v258z" />
    <glyph glyph-name="jsuperior" unicode="&#x2b2;" horiz-adv-x="223" 
d="M147 573v-310c0 -63 -30 -81 -67 -81c-20 0 -40 2 -51 7v51c10 -3 16 -4 24 -4c17 0 27 10 27 32v305h67zM67 663c0 25 20 46 46 46s47 -21 47 -46s-21 -46 -47 -46s-46 21 -46 46z" />
    <glyph glyph-name="ksuperior" horiz-adv-x="347" 
d="M312 573l-110 -130l110 -128h-82l-93 112v-112h-68v385h68v-240l93 113h82z" />
    <glyph glyph-name="lsuperior" unicode="&#xf6ee;" horiz-adv-x="206" 
d="M69 315v385h68v-385h-68z" />
    <glyph glyph-name="msuperior" unicode="&#xf6ef;" horiz-adv-x="531" 
d="M465 315h-65v143c0 42 -16 63 -47 63c-32 0 -53 -25 -53 -76v-130h-66v140c0 46 -16 66 -45 66c-32 0 -54 -25 -54 -77v-129h-66v258h66v-45c10 27 38 50 77 50c46 0 70 -20 80 -52c12 29 42 52 83 52c68 0 90 -44 90 -104v-159z" />
    <glyph glyph-name="nsuperior" unicode="&#x207f;" horiz-adv-x="386" 
d="M69 315v258h68v-45c14 30 46 50 89 50c33 0 59 -10 74 -29c16 -20 21 -45 21 -82v-152h-67v135c0 41 -15 71 -55 71c-42 0 -62 -34 -62 -76v-130h-68z" />
    <glyph glyph-name="osuperior" unicode="&#xf6f0;" horiz-adv-x="382" 
d="M191 309c-88 0 -141 62 -141 134c0 74 53 136 141 136c87 0 141 -62 141 -136c0 -72 -54 -134 -141 -134zM191 367c44 0 73 35 73 76c0 43 -29 78 -73 78c-45 0 -74 -35 -74 -78c0 -41 29 -76 74 -76z" />
    <glyph glyph-name="psuperior" horiz-adv-x="403" 
d="M137 573v-44c13 27 48 49 87 49c76 0 128 -59 128 -134c0 -76 -52 -135 -128 -135c-39 0 -74 22 -87 50v-171h-68v385h68zM211 521c-45 0 -74 -36 -74 -77c0 -42 29 -77 74 -77c44 0 73 35 73 77c0 41 -29 77 -73 77z" />
    <glyph glyph-name="qsuperior" horiz-adv-x="403" 
d="M266 529v44h68v-385h-68v171c-13 -28 -49 -50 -87 -50c-76 0 -127 59 -127 135c0 75 51 134 127 134c38 0 74 -22 87 -49zM193 521c-45 0 -74 -36 -74 -77c0 -42 29 -77 74 -77c44 0 73 35 73 77c0 41 -29 77 -73 77z" />
    <glyph glyph-name="rsuperior" unicode="&#xf6f1;" horiz-adv-x="278" 
d="M246 573v-62c-12 3 -18 4 -29 4c-51 0 -80 -34 -80 -95v-105h-68v258h68v-50c13 32 46 54 83 54c11 0 18 -1 26 -4z" />
    <glyph glyph-name="ssuperior" unicode="&#xf6f2;" horiz-adv-x="331" 
d="M194 464c45 -14 84 -25 84 -75c0 -58 -47 -80 -111 -80c-70 0 -117 32 -117 93h67c0 -34 22 -47 52 -47c26 0 44 11 44 31c0 24 -25 29 -74 43c-44 12 -82 23 -82 73c0 52 44 77 109 77c71 0 108 -36 108 -86h-66c0 27 -16 41 -44 41c-23 0 -40 -11 -40 -31
c0 -22 25 -27 70 -39z" />
    <glyph glyph-name="tsuperior" unicode="&#xf6f3;" horiz-adv-x="261" 
d="M223 368v-53c-12 -2 -30 -4 -51 -4c-39 0 -88 6 -88 90v120h-44v52h44v83h68v-83h64v-52h-64v-105c0 -44 17 -50 39 -50c11 0 24 1 32 2z" />
    <glyph glyph-name="usuperior" horiz-adv-x="386" 
d="M317 573v-258h-68v45c-14 -30 -46 -51 -89 -51c-33 0 -59 11 -74 29c-16 21 -21 46 -21 83v152h67v-135c0 -42 15 -72 55 -72c42 0 62 35 62 77v130h68z" />
    <glyph glyph-name="vsuperior" horiz-adv-x="349" 
d="M31 573h71l72 -178l73 178h71l-117 -258h-54z" />
    <glyph glyph-name="wsuperior" unicode="&#x2b7;" horiz-adv-x="485" 
d="M303 315l-61 181l-60 -181h-54l-97 258h70l57 -171l53 171h63l53 -171l57 171h70l-97 -258h-54z" />
    <glyph glyph-name="xsuperior" unicode="&#x2e3;" horiz-adv-x="330" 
d="M205 445l90 -130h-78l-52 83l-52 -83h-78l90 130l-88 128h78l50 -82l51 82h78z" />
    <glyph glyph-name="ysuperior" unicode="&#x2b8;" horiz-adv-x="391" 
d="M188 181c-82 0 -122 43 -123 108h67c1 -34 18 -57 60 -57c43 0 63 20 63 73v58c-15 -30 -46 -51 -90 -51c-34 0 -58 11 -74 29c-16 20 -20 45 -20 84v148h67v-134c0 -43 13 -73 56 -73c41 0 61 35 61 77v130h68v-265c0 -92 -41 -127 -135 -127z" />
    <glyph glyph-name="zsuperior" horiz-adv-x="317" 
d="M49 573h227l-128 -200h125v-58h-231l128 200h-121v58z" />
    <glyph glyph-name="zeroinferior" unicode="&#x2080;" horiz-adv-x="394" 
d="M56 -74v135c2 72 55 132 140 132c87 0 142 -61 142 -134c0 0 -1 -132 -1 -135c0 -72 -55 -132 -141 -132s-140 61 -140 134zM266 -74v133c0 40 -27 74 -70 74c-41 0 -69 -34 -69 -74v-133c0 -40 28 -74 69 -74c43 0 70 34 70 74z" />
    <glyph glyph-name="oneinferior" unicode="&#x2081;" horiz-adv-x="268" 
d="M47 67v52c72 0 87 20 87 66h64v-385h-73v267h-78z" />
    <glyph glyph-name="twoinferior" unicode="&#x2082;" horiz-adv-x="370" 
d="M55 -200c0 124 41 161 107 196c47 25 84 43 84 88c0 34 -23 53 -57 53c-36 0 -62 -22 -62 -67h-71c0 70 50 122 133 122c71 0 127 -37 127 -113c0 -67 -60 -102 -101 -124c-60 -33 -78 -52 -78 -96h179v-59h-261z" />
    <glyph glyph-name="threeinferior" unicode="&#x2083;" horiz-adv-x="382" 
d="M48 -77h71c0 -45 29 -72 70 -72s64 27 64 60c0 37 -21 61 -68 61h-33v57h33c45 0 62 23 62 56c0 34 -23 52 -57 52c-44 0 -61 -25 -61 -63h-71c0 65 41 118 130 118c71 0 130 -37 130 -106c0 -44 -26 -76 -62 -86c39 -12 68 -45 68 -94c0 -71 -61 -113 -134 -113
c-90 0 -142 53 -142 130z" />
    <glyph glyph-name="fourinferior" unicode="&#x2084;" horiz-adv-x="385" 
d="M216 -200v116h-152v269h71v-209h81v112h72v-112h52v-60h-52v-116h-72z" />
    <glyph glyph-name="fiveinferior" unicode="&#x2085;" horiz-adv-x="401" 
d="M71 -38v223h247v-56h-181v-110c15 26 50 39 82 39c83 0 125 -63 125 -130c0 -73 -53 -135 -141 -135s-141 62 -141 134h70c0 -40 27 -75 71 -75c43 0 71 35 71 76s-27 75 -71 75c-31 0 -52 -14 -65 -41h-67z" />
    <glyph glyph-name="sixinferior" unicode="&#x2086;" horiz-adv-x="380" 
d="M189 -207c-88 0 -141 62 -141 135c0 28 8 55 22 78l114 179h81l-83 -128c9 3 21 2 32 1c71 -8 116 -64 116 -130c0 -73 -54 -135 -141 -135zM189 -147c43 0 71 34 71 75s-28 76 -71 76c-44 0 -71 -35 -71 -76s27 -75 71 -75z" />
    <glyph glyph-name="seveninferior" unicode="&#x2087;" horiz-adv-x="339" 
d="M50 185h262l-169 -385h-77l145 325h-161v60z" />
    <glyph glyph-name="eightinferior" unicode="&#x2088;" horiz-adv-x="391" 
d="M196 -207c-88 0 -140 51 -140 115c0 42 26 82 67 93c-37 12 -58 46 -58 83c0 60 48 108 131 108c82 0 130 -48 130 -108c0 -37 -21 -71 -58 -83c41 -12 67 -51 67 -93c0 -63 -52 -115 -139 -115zM196 24c38 0 62 26 62 57s-24 56 -62 56c-39 0 -62 -25 -62 -56
s22 -57 62 -57zM196 -152c43 0 69 28 69 61s-25 62 -69 62c-45 0 -70 -28 -70 -62s26 -61 70 -61z" />
    <glyph glyph-name="nineinferior" unicode="&#x2089;" horiz-adv-x="380" 
d="M191 192c87 0 141 -62 141 -135c0 -29 -9 -55 -23 -78l-114 -179h-80l83 127c-3 -3 -9 -5 -14 -5c-83 4 -134 62 -134 135s53 135 141 135zM191 132c-43 0 -71 -34 -71 -75s28 -76 71 -76s71 35 71 76s-28 75 -71 75z" />
    <glyph glyph-name="plusinferior" horiz-adv-x="390" 
d="M224 -158h-58v87h-86v55h86v87h58v-87h86v-55h-86v-87z" />
    <glyph glyph-name="minusinferior" horiz-adv-x="390" 
d="M311 -71h-232v55h232v-55z" />
    <glyph glyph-name="equalinferior" horiz-adv-x="390" 
d="M311 -22h-232v55h232v-55zM311 -121h-232v55h232v-55z" />
    <glyph glyph-name="parenleftinferior" unicode="&#x208d;" horiz-adv-x="268" 
d="M223 229v-61c-48 0 -79 -38 -79 -83v-269c0 -45 31 -83 79 -83v-61c-91 0 -148 66 -148 144v269c0 78 57 144 148 144z" />
    <glyph glyph-name="parenrightinferior" unicode="&#x208e;" horiz-adv-x="268" 
d="M45 168v61c91 0 149 -66 149 -144v-269c0 -78 -58 -144 -149 -144v61c49 0 79 38 79 83v269c0 45 -30 83 -79 83z" />
    <glyph glyph-name="arrowup" unicode="&#x2191;" horiz-adv-x="487" 
d="M28 464l216 236l216 -236l-53 -49l-128 144v-559h-72v557l-127 -142z" />
    <glyph glyph-name="arrowright" unicode="&#x2192;" horiz-adv-x="705" 
d="M466 566l237 -216l-237 -216l-48 52l143 128h-558v72h557l-142 127z" />
    <glyph glyph-name="arrowdown" unicode="&#x2193;" horiz-adv-x="487" 
d="M460 237l-216 -237l-216 237l52 48l128 -144v559h72v-558l127 143z" />
    <glyph glyph-name="arrowleft" unicode="&#x2190;" horiz-adv-x="705" 
d="M239 134l-236 216l236 216l49 -52l-144 -128h559v-72h-558l143 -127z" />
    <glyph glyph-name="uni2196" unicode="&#x2196;" horiz-adv-x="570" 
d="M39 277l-14 320l320 -14l-3 -72l-192 11l395 -394l-51 -51l-394 394l11 -190z" />
    <glyph glyph-name="uni2197" unicode="&#x2197;" horiz-adv-x="570" 
d="M225 583l320 14l-14 -320l-72 4l12 191l-395 -395l-51 51l394 394l-190 -11z" />
    <glyph glyph-name="uni2198" unicode="&#x2198;" horiz-adv-x="570" 
d="M531 423l14 -320l-320 14l4 72l191 -11l-395 394l51 51l394 -394l-11 191z" />
    <glyph glyph-name="uni2199" unicode="&#x2199;" horiz-adv-x="570" 
d="M345 117l-320 -14l14 320l72 -3l-11 -192l394 395l51 -51l-394 -394l191 11z" />
    <glyph glyph-name="afii61352" unicode="&#x2116;" horiz-adv-x="1069" 
d="M179 700l315 -541v541h91v-700h-101l-315 541v-541h-91v700h101zM838 319c-123 0 -200 90 -200 195c0 106 77 195 200 195c124 0 201 -89 201 -195c0 -105 -77 -195 -201 -195zM838 395c69 0 114 54 114 119s-45 119 -114 119c-68 0 -113 -54 -113 -119s45 -119 113 -119
zM1039 215h-401v78h401v-78z" />
    <glyph glyph-name="afii61289" unicode="&#x2113;" horiz-adv-x="405" 
d="M267 -11c-55 0 -158 5 -159 178v4l-64 -50l-39 66l103 77v243c0 133 40 210 141 210c91 0 139 -70 139 -175c0 -117 -86 -215 -204 -312v-69c0 -94 53 -97 93 -97c34 0 63 10 78 19l4 -71c-18 -13 -44 -23 -92 -23zM252 648c-48 0 -68 -52 -68 -126v-197
c93 86 129 146 129 220c0 58 -17 103 -61 103z" />
    <glyph glyph-name="estimated" unicode="&#x212e;" horiz-adv-x="525" 
d="M476 233h-332v-181c32 -26 73 -41 126 -41c93 0 158 52 177 113h23c-20 -73 -93 -135 -200 -135c-153 0 -227 115 -227 239c0 136 81 238 224 238c117 0 210 -88 210 -205c0 -7 0 -15 -1 -28zM267 444c-50 0 -91 -14 -123 -38v-151h236v153c-32 23 -71 36 -113 36z" />
    <glyph glyph-name="multiply.case" 
d="M284 343l115 116l62 -61l-116 -116l113 -113l-56 -54l-112 112l-115 -115l-61 61l114 115l-111 112l55 55z" />
    <glyph glyph-name="Iacute.smcp" horiz-adv-x="277" 
d="M93 0v560h91v-560h-91zM259 693l-208 -106l-33 62l208 106z" />
    <glyph glyph-name="parenleft.smcp" horiz-adv-x="363" 
d="M309 629v-78c-71 0 -116 -56 -116 -123v-416c0 -67 45 -123 116 -123v-79c-125 0 -204 93 -204 202v416c0 108 79 201 204 201z" />
    <glyph glyph-name="Ibreve.smcp" horiz-adv-x="277" 
d="M93 0v560h92v-560h-92zM-30 718h74c12 -36 46 -58 95 -58c48 0 85 23 95 58h74c-10 -76 -86 -126 -169 -126c-84 0 -155 51 -169 126z" />
    <glyph glyph-name="uni0438.002" horiz-adv-x="565" 
d="M400 454h87v-454h-87v81c-27 -55 -84 -92 -160 -92c-63 0 -109 22 -137 59c-24 34 -34 75 -34 138v268h87v-240c0 -84 30 -148 114 -148c88 0 130 73 130 155v233z" />
    <glyph glyph-name="Dcroat.smcp" horiz-adv-x="630" 
d="M93 560h183c186 0 291 -137 291 -280s-105 -280 -291 -280h-183v246h-99v70h99v244zM284 316v-70h-101v-167h91c128 0 202 99 202 201s-74 201 -202 201h-91v-165h101z" />
    <glyph glyph-name="Scaron.smcp" horiz-adv-x="534" 
d="M67 180h90c0 -72 46 -118 117 -118c60 0 103 34 103 87c0 62 -53 80 -105 96c-101 33 -187 62 -187 177c0 93 82 151 186 151c115 0 183 -73 184 -173h-90c-1 61 -35 100 -94 100c-58 0 -96 -29 -96 -77c0 -56 47 -76 101 -93c89 -28 190 -62 190 -173
c0 -109 -83 -170 -198 -170s-201 73 -201 193zM271 607l-134 120l43 53l91 -84l93 84l44 -53z" />
    <glyph glyph-name="Nacute.smcp" horiz-adv-x="613" 
d="M189 560l242 -417v417h89v-560h-95l-242 415v-415h-90v560h96zM429 703l-208 -107l-33 62l208 107z" />
    <glyph glyph-name="Q.smcp" horiz-adv-x="710" 
d="M647 280c0 -129 -79 -239 -199 -275l50 -67l-79 -41l-65 90c-182 1 -291 141 -291 293s110 293 292 293s292 -141 292 -293zM355 68c124 0 199 103 199 212c0 110 -75 212 -199 212s-199 -102 -199 -212c0 -109 75 -212 199 -212z" />
    <glyph glyph-name="Eth.smcp" horiz-adv-x="630" 
d="M93 560h183c184 0 291 -137 291 -280s-106 -280 -291 -280h-183v245h-89v71h89v244zM276 316v-71h-93v-166h90c129 0 202 99 202 201s-73 201 -202 201h-90v-165h93z" />
    <glyph glyph-name="Tbar.smcp" horiz-adv-x="456" 
d="M374 391v-69h-101v-322h-90v322h-99v69h99v90h-139v79h369v-79h-140v-90h101z" />
    <glyph glyph-name="Lcommaaccent.smcp" horiz-adv-x="414" 
d="M93 0v560h90v-481h176v-79h-266zM162 -64c0 28 21 50 49 50c35 0 58 -29 58 -70c0 -76 -39 -104 -104 -104v31c43 0 60 20 62 44c0 4 0 5 -1 6c-3 -3 -10 -5 -16 -5c-29 0 -48 22 -48 48z" />
    <glyph glyph-name="Y.smcp" horiz-adv-x="546" 
d="M517 560l-282 -560h-99l110 218l-208 342h105l150 -252l125 252h99z" />
    <glyph glyph-name="Ncaron.smcp" horiz-adv-x="613" 
d="M189 560l242 -417v417h89v-560h-95l-242 415v-415h-90v560h96zM309 596l-135 121l43 53l92 -85l93 85l43 -53z" />
    <glyph glyph-name="Uogonek.smcp" horiz-adv-x="574" 
d="M374 -106l-1 -52c-19 -6 -45 -12 -73 -12c-64 0 -96 36 -96 78c0 30 16 55 49 81c-103 14 -168 97 -168 194v377h90v-376c0 -64 44 -118 111 -118c69 0 114 54 114 118v376h89v-377c0 -101 -69 -186 -180 -195c-19 -15 -32 -34 -32 -57c0 -26 17 -48 46 -48
c16 0 35 4 51 11z" />
    <glyph glyph-name="Rcaron.smcp" horiz-adv-x="565" 
d="M93 0v560h211c119 0 196 -89 196 -194c0 -80 -46 -151 -121 -179l117 -187h-103l-109 173h-101v-173h-90zM298 484h-115v-235h114c68 0 112 54 112 117c0 64 -44 118 -111 118zM272 598l-135 119l42 54l93 -84l93 84l43 -54z" />
    <glyph glyph-name="three.denominator" horiz-adv-x="382" 
d="M48 123h71c0 -45 29 -72 70 -72s64 27 64 60c0 37 -21 62 -68 62h-33v56h33c45 0 62 23 62 56c0 34 -23 52 -57 52c-44 0 -61 -25 -61 -63h-71c0 65 41 118 130 118c71 0 130 -37 130 -106c0 -44 -26 -76 -62 -86c39 -11 68 -45 68 -93c0 -72 -61 -114 -134 -114
c-90 0 -142 53 -142 130z" />
    <glyph glyph-name="Obreve.smcp" horiz-adv-x="710" 
d="M355 -13c-182 0 -292 141 -292 293s110 293 292 293s292 -141 292 -293s-110 -293 -292 -293zM355 68c124 0 199 103 199 212c0 110 -75 212 -199 212s-199 -102 -199 -212c0 -109 75 -212 199 -212zM187 717h72c13 -36 46 -58 96 -58c48 0 84 24 95 58h73
c-9 -76 -85 -126 -168 -126c-84 0 -156 51 -168 126z" />
    <glyph glyph-name="Lacute.smcp" horiz-adv-x="414" 
d="M182 79h177v-79h-266v560h89v-481zM278 703l-208 -107l-32 62l208 107z" />
    <glyph glyph-name="two.plf.smcp" horiz-adv-x="520" 
d="M78 0c0 179 59 233 156 283c65 33 121 61 121 130c0 54 -35 83 -89 83c-57 0 -97 -35 -97 -102h-91c0 104 75 176 188 176c102 0 180 -55 180 -164c0 -100 -93 -150 -150 -180c-90 -50 -114 -78 -114 -149h263v-77h-367z" />
    <glyph glyph-name="C.smcp" horiz-adv-x="689" 
d="M531 181h97c-26 -109 -127 -194 -269 -194c-184 0 -296 137 -296 294c0 152 109 292 288 292c165 0 257 -96 277 -215h-94c-16 76 -78 135 -176 135c-130 0 -204 -102 -204 -212c0 -116 78 -213 212 -213c76 0 144 48 165 113z" />
    <glyph glyph-name="ampersand.smcp" horiz-adv-x="555" 
d="M310 187v74h196v-74h-46c-1 -118 -75 -197 -196 -197c-102 0 -196 62 -196 170c0 66 42 109 100 131c-54 20 -89 59 -89 126c0 96 82 153 182 153c116 0 183 -73 183 -169h-90c0 57 -29 96 -96 96c-53 0 -90 -29 -90 -81c0 -50 27 -87 100 -87h11v-74h-11
c-77 0 -110 -40 -110 -98c0 -48 40 -92 107 -92c65 0 106 49 107 122h-62z" />
    <glyph glyph-name="J.smcp" horiz-adv-x="510" 
d="M423 560v-378c0 -119 -71 -195 -188 -195c-120 0 -191 84 -191 195h90c0 -69 39 -116 101 -116s99 45 99 116v378h89z" />
    <glyph glyph-name="Amacron.smcp" horiz-adv-x="543" 
d="M309 560l197 -560h-97l-27 83h-222l-28 -83h-95l196 560h76zM271 436l-87 -278h174zM416 707v-69h-290v69h290z" />
    <glyph glyph-name="nine.denominator" horiz-adv-x="380" 
d="M191 392c87 0 141 -62 141 -135c0 -29 -9 -55 -23 -77l-114 -180h-80l82 127c-3 -4 -9 -4 -13 -4c-83 3 -134 61 -134 134s53 135 141 135zM191 332c-43 0 -71 -34 -71 -75s28 -76 71 -76s71 35 71 76s-28 75 -71 75z" />
    <glyph glyph-name="Aring.smcp" horiz-adv-x="543" 
d="M309 560l197 -560h-97l-27 83h-222l-28 -83h-95l196 560h76zM271 436l-87 -278h174zM272 787c56 0 102 -47 102 -103c0 -55 -46 -101 -102 -101c-57 0 -103 46 -103 101c0 57 46 103 103 103zM272 732c-27 0 -47 -21 -47 -48c0 -24 21 -45 47 -45c25 0 46 21 46 46
s-20 47 -46 47z" />
    <glyph glyph-name="Idotaccent.smcp" horiz-adv-x="277" 
d="M93 0v560h91v-560h-91zM78 680c0 34 26 61 60 61c35 0 62 -27 62 -61c0 -33 -27 -61 -62 -61c-34 0 -60 28 -60 61z" />
    <glyph glyph-name="Hcircumflex.smcp" horiz-adv-x="608" 
d="M426 0v239h-243v-239h-90v560h90v-243h243v243h89v-560h-89zM154 650l150 120l150 -120l-49 -53l-101 82l-101 -81z" />
    <glyph glyph-name="three.numerator" horiz-adv-x="382" 
d="M48 438h71c0 -45 29 -72 70 -72s64 27 64 60c0 37 -21 62 -68 62h-33v56h33c45 0 62 23 62 56c0 34 -23 52 -57 52c-44 0 -61 -25 -61 -63h-71c0 65 41 118 130 118c71 0 130 -37 130 -106c0 -44 -26 -76 -62 -86c39 -11 68 -45 68 -93c0 -72 -61 -114 -134 -114
c-90 0 -142 53 -142 130z" />
    <glyph glyph-name="uni0437.002" horiz-adv-x="465" 
d="M14 -64h84c3 -74 62 -118 128 -118c64 0 115 44 115 139c0 76 -31 151 -124 151h-38v62h39c66 0 107 46 107 118c0 61 -31 104 -91 104c-67 0 -98 -39 -98 -92h-84c0 96 75 162 185 162c107 0 171 -67 171 -162c0 -90 -44 -141 -111 -155c77 -12 130 -93 130 -185
c0 -143 -85 -216 -206 -216s-206 69 -207 192z" />
    <glyph glyph-name="Racute.smcp" horiz-adv-x="565" 
d="M93 0v560h211c119 0 196 -89 196 -194c0 -80 -46 -151 -121 -179l117 -187h-103l-109 173h-101v-173h-90zM298 484h-115v-235h114c68 0 112 54 112 117c0 64 -44 118 -111 118zM403 703l-208 -107l-33 62l208 107z" />
    <glyph glyph-name="Scommaaccent.smcp" horiz-adv-x="534" 
d="M67 180h90c0 -72 46 -118 117 -118c60 0 103 34 103 87c0 62 -53 80 -105 96c-101 33 -187 62 -187 177c0 93 81 151 185 151c114 0 184 -73 185 -173h-90c-1 61 -35 100 -94 100c-58 0 -96 -29 -96 -77c0 -56 47 -76 101 -93c89 -28 190 -62 190 -173
c0 -109 -83 -170 -198 -170s-201 73 -201 193zM220 -72c0 28 21 49 49 49c35 0 59 -29 59 -69c0 -76 -40 -104 -105 -105v31c43 0 60 21 63 44c0 4 -1 6 -2 6c-2 -2 -10 -4 -16 -4c-29 0 -48 21 -48 48z" />
    <glyph glyph-name="Icircumflex.smcp" horiz-adv-x="277" 
d="M93 0v560h91v-560h-91zM-10 649l148 121l150 -121l-47 -53l-102 82l-101 -81z" />
    <glyph glyph-name="A.smcp" horiz-adv-x="543" 
d="M309 560l197 -560h-97l-27 83h-222l-28 -83h-95l196 560h76zM271 436l-87 -278h174z" />
    <glyph glyph-name="E.smcp" horiz-adv-x="504" 
d="M416 485h-233v-170h233v-74h-233v-165h233v-76h-323v560h323v-75z" />
    <glyph glyph-name="AEacute.smcp" horiz-adv-x="769" 
d="M678 485h-232v-170h232v-74h-232v-165h232v-76h-322v84h-185l-39 -84h-98l274 560h370v-75zM206 159h150v315zM568 703l-208 -107l-32 62l208 107z" />
    <glyph glyph-name="Adieresis.001.smcp" horiz-adv-x="543" 
d="M315 696l-69 -104h-59l70 104h58zM414 696l-69 -104h-59l70 104h58zM309 560l197 -560h-97l-27 83h-222l-28 -83h-95l196 560h76zM271 436l-87 -278h174z" />
    <glyph glyph-name="Abreve.smcp" horiz-adv-x="543" 
d="M309 560l197 -560h-97l-27 83h-222l-28 -83h-95l196 560h76zM271 436l-87 -278h174zM102 718h74c12 -36 46 -58 95 -58c48 0 84 23 95 58h74c-11 -76 -85 -126 -169 -126s-155 51 -169 126z" />
    <glyph glyph-name="Udieresis.smcp" horiz-adv-x="574" 
d="M85 183v377h90v-376c0 -64 44 -118 111 -118c69 0 114 54 114 118v376h89v-377c0 -108 -78 -196 -203 -196c-122 0 -201 88 -201 196zM319 674c0 34 26 61 60 61c35 0 62 -27 62 -61s-27 -60 -62 -60c-34 0 -60 26 -60 60zM131 674c0 34 27 61 61 61s62 -27 62 -61
s-28 -60 -62 -60s-61 26 -61 60z" />
    <glyph glyph-name="six.numerator" horiz-adv-x="380" 
d="M189 309c-88 0 -141 61 -141 134c0 28 8 55 22 78l114 179h81l-83 -128c9 3 21 2 32 1c71 -8 116 -63 116 -130c0 -73 -54 -134 -141 -134zM189 368c43 0 71 35 71 75c0 42 -28 76 -71 76c-44 0 -71 -34 -71 -76c0 -40 27 -75 71 -75z" />
    <glyph glyph-name="Cacute.smcp" horiz-adv-x="689" 
d="M531 181h97c-26 -109 -127 -194 -269 -194c-184 0 -296 137 -296 294c0 152 109 292 288 292c165 0 257 -96 277 -215h-94c-16 76 -78 135 -176 135c-130 0 -204 -102 -204 -212c0 -116 78 -213 212 -213c76 0 144 48 165 113zM469 703l-209 -107l-32 62l209 107z" />
    <glyph glyph-name="minus.numerator" horiz-adv-x="390" 
d="M311 445h-232v54h232v-54z" />
    <glyph glyph-name="Uacute.smcp" horiz-adv-x="574" 
d="M85 183v377h90v-376c0 -64 44 -118 111 -118c69 0 114 54 114 118v376h89v-377c0 -108 -78 -196 -203 -196c-122 0 -201 88 -201 196zM395 703l-208 -107l-33 62l209 107z" />
    <glyph glyph-name="Aacute.smcp" horiz-adv-x="543" 
d="M309 560l197 -560h-97l-27 83h-222l-28 -83h-95l196 560h76zM271 436l-87 -278h174zM392 693l-208 -106l-33 62l209 106z" />
    <glyph glyph-name="Imacron.smcp" horiz-adv-x="277" 
d="M92 0v560h92v-560h-92zM284 707v-69h-290v69h290z" />
    <glyph glyph-name="equal.denominator" horiz-adv-x="390" 
d="M311 178h-232v55h232v-55zM311 79h-232v55h232v-55z" />
    <glyph glyph-name="F.smcp" horiz-adv-x="500" 
d="M416 482h-233v-187h233v-77h-233v-218h-90v560h323v-78z" />
    <glyph glyph-name="one.numerator" horiz-adv-x="268" 
d="M47 582v52c72 0 87 20 87 66h64v-385h-73v267h-78z" />
    <glyph glyph-name="parenleft.denominator" horiz-adv-x="268" 
d="M223 429v-61c-48 0 -79 -38 -79 -83v-269c0 -45 31 -83 79 -83v-61c-91 0 -148 66 -148 144v269c0 78 57 144 148 144z" />
    <glyph glyph-name="exclamdown.smcp" horiz-adv-x="311" 
d="M111 -4v384h92v-384h-92zM93 504c0 35 28 64 64 64c35 0 63 -29 63 -64c0 -34 -28 -63 -63 -63c-36 0 -64 29 -64 63z" />
    <glyph glyph-name="brokenbar.smcp" horiz-adv-x="325" 
d="M178 276h-85v353h85v-353zM93 191h85v-355h-85v355z" />
    <glyph glyph-name="D.smcp" horiz-adv-x="630" 
d="M93 560h183c185 0 291 -137 291 -280s-105 -280 -291 -280h-183v560zM273 481h-90v-402h90c129 0 202 99 202 201s-73 201 -202 201z" />
    <glyph glyph-name="Gdotaccent.smcp" horiz-adv-x="732" 
d="M402 204v73h280v-73h-59c-21 -129 -112 -217 -270 -217c-186 0 -290 139 -290 293c0 152 110 293 290 293c132 0 229 -79 242 -175h-93c-13 52 -71 96 -149 96c-125 0 -199 -103 -199 -215s69 -214 207 -214c101 0 158 61 169 139h-128zM292 680c0 34 27 61 60 61
c35 0 62 -27 62 -61c0 -33 -27 -61 -62 -61c-33 0 -60 28 -60 61z" />
    <glyph glyph-name="three.plf.smcp" horiz-adv-x="540" 
d="M66 178h91c0 -70 46 -112 109 -112s101 42 101 94c0 55 -32 95 -105 95h-46v75h46c68 0 95 35 95 86c0 52 -36 80 -89 80c-67 0 -96 -38 -96 -95h-91c0 95 64 169 183 169c101 0 184 -56 184 -153c0 -64 -37 -110 -89 -126c57 -17 99 -65 99 -136
c0 -101 -86 -165 -192 -165c-120 0 -200 74 -200 188z" />
    <glyph glyph-name="five.smcp" horiz-adv-x="553" 
d="M90 237v323h348v-75h-265v-172c23 41 77 60 123 60c119 0 181 -89 181 -188c0 -106 -77 -195 -200 -195s-200 89 -200 194h90c0 -63 42 -116 110 -116s110 54 110 117c0 62 -42 114 -110 114c-46 0 -80 -21 -99 -62h-88z" />
    <glyph glyph-name="Edieresis.001" horiz-adv-x="544" 
d="M337 870l-87 -130h-67l87 130h67zM455 870l-87 -130h-67l87 130h67zM471 618h-302v-229h302v-82h-302v-225h302v-82h-393v700h393v-82z" />
    <glyph glyph-name="Aringacute.smcp" horiz-adv-x="543" 
d="M506 0h-97l-27 83h-222l-28 -83h-95l194 555c-6 2 -22 28 -22 48c0 33 28 60 61 60s60 -28 60 -60c0 -20 -13 -46 -20 -47zM358 158l-87 278l-87 -278h174zM371 738l-194 -102l-22 40l195 102zM270 629c-14 0 -25 -12 -25 -26c0 -13 11 -25 25 -25s25 12 25 25
c0 14 -11 26 -25 26z" />
    <glyph glyph-name="Gcircumflex.smcp" horiz-adv-x="732" 
d="M402 204v73h280v-73h-59c-21 -129 -112 -217 -270 -217c-186 0 -290 139 -290 293c0 152 110 293 290 293c132 0 229 -79 242 -175h-93c-13 52 -71 96 -149 96c-125 0 -199 -103 -199 -215s69 -214 207 -214c101 0 158 61 169 139h-128zM203 652l150 119l150 -119
l-48 -54l-102 82l-101 -81z" />
    <glyph glyph-name="equal.numerator" horiz-adv-x="390" 
d="M311 493h-232v55h232v-55zM311 394h-232v55h232v-55z" />
    <glyph glyph-name="Egrave.smcp" horiz-adv-x="504" 
d="M416 485h-233v-170h233v-74h-233v-165h233v-76h-323v560h323v-75zM352 587l-208 107l33 62l208 -106z" />
    <glyph glyph-name="Edotaccent.smcp" horiz-adv-x="504" 
d="M416 485h-233v-170h233v-74h-233v-165h233v-76h-323v560h323v-75zM191 680c0 34 27 61 61 61s61 -27 61 -61c0 -33 -27 -61 -61 -61s-61 28 -61 61z" />
    <glyph glyph-name="R.smcp" horiz-adv-x="565" 
d="M93 0v560h211c119 0 196 -89 196 -194c0 -80 -46 -151 -121 -179l117 -187h-103l-109 173h-101v-173h-90zM297 249c68 0 112 54 112 117c0 64 -44 118 -111 118h-115v-235h114z" />
    <glyph glyph-name="P.smcp" horiz-adv-x="555" 
d="M93 0v560h211c119 0 196 -89 196 -194c0 -104 -77 -193 -196 -193h-121v-173h-90zM297 249c68 0 112 54 112 117c0 64 -44 118 -111 118h-115v-235h114z" />
    <glyph glyph-name="Ecaron.smcp" horiz-adv-x="504" 
d="M416 485h-233v-170h233v-74h-233v-165h233v-76h-323v560h323v-75zM252 596l-136 121l43 53l93 -85l92 85l43 -53z" />
    <glyph glyph-name="Uring.smcp" horiz-adv-x="574" 
d="M85 183v377h90v-376c0 -64 44 -118 111 -118c69 0 114 54 114 118v376h89v-377c0 -108 -78 -196 -203 -196c-122 0 -201 88 -201 196zM287 787c57 0 102 -47 102 -103c0 -55 -45 -101 -102 -101s-102 46 -102 101c0 57 45 103 102 103zM287 732c-26 0 -47 -21 -47 -48
c0 -24 21 -45 47 -45s46 21 46 46s-20 47 -46 47z" />
    <glyph glyph-name="Thorn.smcp" horiz-adv-x="478" 
d="M174 560v-101h55c124 0 194 -87 194 -183c0 -95 -70 -183 -194 -183h-55v-93h-82v560h82zM174 389v-225h55c71 0 112 54 112 112c0 59 -41 113 -112 113h-55z" />
    <glyph glyph-name="M.smcp" horiz-adv-x="737" 
d="M644 560v-560h-89v389l-152 -389h-68l-154 389v-389h-88v560h97l179 -435l179 435h96z" />
    <glyph glyph-name="Wcircumflex.smcp" horiz-adv-x="854" 
d="M555 0l-127 412l-129 -412h-71l-193 560h94l135 -418l128 418h70l129 -418l134 418h95l-194 -560h-71zM278 650l149 120l149 -120l-47 -53l-102 82l-101 -81z" />
    <glyph glyph-name="questiondown.smcp" horiz-adv-x="478" 
d="M300 401c0 -75 -18 -113 -72 -149c-31 -21 -76 -51 -76 -106c0 -54 36 -82 93 -82c55 0 95 36 95 104h89c0 -105 -73 -177 -184 -177c-102 0 -181 57 -181 155c0 81 57 119 87 142c47 34 61 49 61 113h88zM321 507c0 -35 -28 -64 -65 -64c-36 0 -65 29 -65 64
c0 36 29 66 65 66c37 0 65 -30 65 -66z" />
    <glyph glyph-name="Dcaron.smcp" horiz-adv-x="630" 
d="M93 560h183c185 0 291 -137 291 -280s-105 -280 -291 -280h-183v560zM273 481h-90v-402h90c129 0 202 99 202 201s-73 201 -202 201zM304 596l-135 121l43 53l92 -85l93 85l44 -53z" />
    <glyph glyph-name="two.denominator" horiz-adv-x="370" 
d="M55 0c0 124 41 161 107 196c47 25 84 43 84 88c0 34 -23 53 -57 53c-36 0 -62 -22 -62 -67h-71c0 70 50 122 133 122c71 0 127 -37 127 -113c0 -67 -60 -102 -101 -124c-60 -33 -78 -51 -78 -96h179v-59h-261z" />
    <glyph glyph-name="Kcommaaccent.smcp" horiz-adv-x="555" 
d="M515 0h-110l-222 250v-250h-90v560h90v-251l222 251h110l-249 -280zM231 -64c0 28 21 50 49 50c36 0 59 -29 59 -69c0 -77 -40 -105 -105 -105v31c43 0 61 21 63 44c0 4 -1 5 -2 6c-3 -2 -10 -5 -15 -5c-30 0 -49 22 -49 48z" />
    <glyph glyph-name="H.smcp" horiz-adv-x="608" 
d="M426 0v239h-243v-239h-90v560h90v-243h243v243h89v-560h-89z" />
    <glyph glyph-name="uni021A.smcp" horiz-adv-x="456" 
d="M183 0v481h-139v79h369v-79h-140v-481h-90zM177 -64c0 28 22 50 50 50c35 0 58 -29 58 -70c0 -76 -39 -104 -104 -104v31c42 0 60 20 63 44c0 4 -1 5 -2 6c-3 -3 -10 -5 -16 -5c-30 0 -49 22 -49 48z" />
    <glyph glyph-name="Otilde.smcp" horiz-adv-x="710" 
d="M355 -13c-182 0 -292 141 -292 293s110 293 292 293s292 -141 292 -293s-110 -293 -292 -293zM355 68c124 0 199 103 199 212c0 110 -75 212 -199 212s-199 -102 -199 -212c0 -109 75 -212 199 -212zM239 631l-32 53c48 30 69 30 84 30c24 0 95 -22 116 -22
c19 0 28 4 66 22l29 -52c-42 -31 -70 -33 -86 -33c-27 0 -91 21 -116 21c-20 0 -36 -7 -61 -19z" />
    <glyph glyph-name="braceleft.smcp" horiz-adv-x="408" 
d="M270 629h63v-68h-36c-41 0 -59 -33 -59 -70v-187c0 -63 -50 -85 -76 -89c26 -6 76 -24 76 -96v-165c0 -36 18 -70 59 -70h36v-67h-63c-60 0 -118 39 -118 117v170c0 54 -44 74 -72 74v73c28 0 72 19 72 69v191c0 78 58 118 118 118z" />
    <glyph glyph-name="G.smcp" horiz-adv-x="732" 
d="M402 204v73h280v-73h-59c-21 -129 -112 -217 -270 -217c-186 0 -290 139 -290 293c0 152 110 293 290 293c132 0 229 -79 242 -175h-93c-13 52 -71 96 -149 96c-125 0 -199 -103 -199 -215s69 -214 207 -214c101 0 158 61 169 139h-128z" />
    <glyph glyph-name="Ocircumflex.smcp" horiz-adv-x="710" 
d="M355 -13c-182 0 -292 141 -292 293s110 293 292 293s292 -141 292 -293s-110 -293 -292 -293zM355 68c124 0 199 103 199 212c0 110 -75 212 -199 212s-199 -102 -199 -212c0 -109 75 -212 199 -212zM206 649l149 121l150 -121l-48 -53l-102 82l-101 -81z" />
    <glyph glyph-name="Adieresis.smcp" horiz-adv-x="543" 
d="M309 560l197 -560h-97l-27 83h-222l-28 -83h-95l196 560h76zM271 436l-87 -278h174zM304 674c0 34 27 61 60 61c35 0 62 -27 62 -61c0 -33 -27 -60 -62 -60c-33 0 -60 27 -60 60zM117 674c0 34 26 61 60 61c35 0 62 -27 62 -61c0 -33 -27 -60 -62 -60
c-34 0 -60 27 -60 60z" />
    <glyph glyph-name="four.smcp" horiz-adv-x="553" 
d="M309 0v173h-217v387h91v-307h126v165h91v-165h80v-80h-80v-173h-91z" />
    <glyph glyph-name="Zcaron.smcp" horiz-adv-x="535" 
d="M277 586l-135 121l43 53l92 -85l93 85l43 -53zM64 482v78h430l-303 -482h303v-78h-449l303 482h-284z" />
    <glyph glyph-name="zero.denominator" horiz-adv-x="394" 
d="M56 126v135c2 72 55 132 140 132c87 0 142 -61 142 -134c0 0 -1 -132 -1 -135c0 -71 -55 -132 -141 -132s-140 62 -140 134zM266 126v133c0 40 -27 74 -70 74c-41 0 -69 -34 -69 -74v-133c0 -40 28 -73 69 -73c43 0 70 33 70 73z" />
    <glyph glyph-name="Aogonek.smcp" horiz-adv-x="543" 
d="M515 -106v-52c-19 -6 -45 -12 -73 -12c-64 0 -96 36 -96 78c0 34 21 62 63 92l-27 83h-222l-28 -83h-95l196 560h76l197 -560h-39c-26 -18 -48 -39 -48 -69c0 -26 16 -48 46 -48c15 0 35 4 50 11zM271 436l-87 -278h174z" />
    <glyph glyph-name="Ydieresis.smcp" horiz-adv-x="546" 
d="M517 560l-282 -560h-99l110 218l-208 342h105l150 -252l125 252h99zM325 674c0 33 26 60 59 60s59 -27 59 -60c0 -32 -26 -58 -59 -58s-59 26 -59 58zM138 674c0 33 26 60 58 60c34 0 60 -27 60 -60c0 -32 -26 -58 -60 -58c-32 0 -58 26 -58 58z" />
    <glyph glyph-name="bracketright.smcp" horiz-adv-x="344" 
d="M251 -183h-176v74h91v663h-91v75h176v-812z" />
    <glyph glyph-name="Rcommaaccent.smcp" horiz-adv-x="565" 
d="M93 0v560h211c119 0 196 -89 196 -194c0 -80 -46 -151 -121 -179l117 -187h-103l-109 173h-101v-173h-90zM298 484h-115v-235h114c68 0 112 54 112 117c0 64 -44 118 -111 118zM230 -64c0 28 22 50 50 50c35 0 58 -29 58 -70c0 -76 -39 -104 -104 -104v31
c42 0 60 20 62 44c0 4 -1 5 -1 6c-3 -3 -10 -5 -16 -5c-30 0 -49 22 -49 48z" />
    <glyph glyph-name="ordfeminine.smcp" horiz-adv-x="554" 
d="M377 369h85v-369h-85v64c-21 -42 -73 -73 -128 -73c-110 0 -185 87 -185 194s75 193 185 193c55 0 107 -30 128 -73v64zM262 65c70 0 115 55 115 120c0 64 -45 119 -115 119c-68 0 -113 -55 -113 -119c0 -65 45 -120 113 -120z" />
    <glyph glyph-name="Ccaron.smcp" horiz-adv-x="689" 
d="M531 181h97c-26 -109 -127 -194 -269 -194c-184 0 -296 137 -296 294c0 152 109 292 288 292c165 0 257 -96 277 -215h-94c-16 76 -78 135 -176 135c-130 0 -204 -102 -204 -212c0 -116 78 -213 212 -213c76 0 144 48 165 113zM346 598l-134 120l42 53l92 -84l93 84
l44 -53z" />
    <glyph glyph-name="Idieresis.smcp" horiz-adv-x="277" 
d="M93 0v560h91v-560h-91zM178 674c0 34 27 61 61 61s62 -27 62 -61c0 -33 -28 -60 -62 -60s-61 27 -61 60zM-9 674c0 34 27 61 60 61c35 0 62 -27 62 -61c0 -33 -27 -60 -62 -60c-33 0 -60 27 -60 60z" />
    <glyph glyph-name="Eacute.smcp" horiz-adv-x="504" 
d="M416 485h-233v-170h233v-74h-233v-165h233v-76h-323v560h323v-75zM378 703l-209 -107l-33 62l209 107z" />
    <glyph glyph-name="eight.numerator" horiz-adv-x="391" 
d="M196 308c-88 0 -140 51 -140 115c0 43 26 82 67 93c-37 12 -58 46 -58 83c0 60 48 108 131 108c82 0 130 -48 130 -108c0 -37 -21 -71 -58 -83c41 -12 67 -51 67 -93c0 -63 -52 -115 -139 -115zM196 539c38 0 62 26 62 57s-24 56 -62 56c-39 0 -62 -25 -62 -56
s22 -57 62 -57zM196 363c43 0 69 28 69 62c0 32 -25 61 -69 61c-45 0 -70 -28 -70 -61c0 -35 26 -62 70 -62z" />
    <glyph glyph-name="Udieresis.001" horiz-adv-x="629" 
d="M363 870l-87 -130h-67l87 130h67zM481 870l-87 -130h-67l87 130h67zM71 227v473h91v-473c0 -87 60 -161 151 -161c94 0 154 74 154 161v473h91v-473c0 -132 -95 -243 -245 -243c-146 0 -242 111 -242 243z" />
    <glyph glyph-name="Tcommaaccent.smcp" horiz-adv-x="456" 
d="M183 0v481h-139v79h369v-79h-140v-481h-90zM177 -64c0 28 22 50 50 50c35 0 58 -29 58 -70c0 -76 -39 -104 -104 -104v31c42 0 60 20 63 44c0 4 -1 5 -2 6c-3 -3 -10 -5 -16 -5c-30 0 -49 22 -49 48z" />
    <glyph glyph-name="plus.denominator" horiz-adv-x="390" 
d="M224 42h-58v87h-86v55h86v87h58v-87h86v-55h-86v-87z" />
    <glyph glyph-name="six.smcp" horiz-adv-x="552" 
d="M275 -9c-123 0 -199 88 -199 194c0 40 13 78 33 111l167 264h103l-125 -191c8 6 20 9 32 9c117 -4 189 -91 189 -193c0 -106 -76 -194 -200 -194zM275 69c68 0 111 53 111 116s-43 115 -111 115c-66 0 -109 -52 -109 -115s43 -116 109 -116z" />
    <glyph glyph-name="Z.smcp" horiz-adv-x="535" 
d="M64 482v78h430l-303 -482h303v-78h-449l303 482h-284z" />
    <glyph glyph-name="four.denominator" horiz-adv-x="385" 
d="M216 0v116h-152v269h71v-209h81v112h72v-112h52v-60h-52v-116h-72z" />
    <glyph glyph-name="uni04F8.001" horiz-adv-x="833" 
 />
    <glyph glyph-name="five.plf.smcp" horiz-adv-x="570" 
d="M102 237v323h348v-75h-265v-172c23 41 77 60 123 60c119 0 181 -89 181 -188c0 -106 -76 -195 -200 -195c-123 0 -199 89 -199 194h89c0 -63 43 -116 110 -116c68 0 110 54 110 117c0 62 -42 114 -110 114c-46 0 -79 -21 -99 -62h-88z" />
    <glyph glyph-name="Ubreve.smcp" horiz-adv-x="574" 
d="M85 183v377h90v-376c0 -64 44 -118 111 -118c69 0 114 54 114 118v376h89v-377c0 -108 -78 -196 -203 -196c-122 0 -201 88 -201 196zM119 719h73c12 -36 45 -59 95 -59c48 0 85 24 95 59h73c-9 -76 -85 -126 -168 -126c-84 0 -155 51 -168 126z" />
    <glyph glyph-name="Ccircumflex.smcp" horiz-adv-x="689" 
d="M531 181h97c-26 -109 -127 -194 -269 -194c-184 0 -296 137 -296 294c0 152 109 292 288 292c165 0 257 -96 277 -215h-94c-16 76 -78 135 -176 135c-130 0 -204 -102 -204 -212c0 -116 78 -213 212 -213c76 0 144 48 165 113zM202 655l149 119l150 -119l-48 -54l-102 82
l-101 -81z" />
    <glyph glyph-name="Lcaron.smcp" horiz-adv-x="414" 
d="M182 79h177v-79h-266v560h89v-481zM136 596l-135 121l43 53l92 -85l94 85l42 -53z" />
    <glyph glyph-name="parenleft.numerator" horiz-adv-x="268" 
d="M223 744v-61c-48 0 -79 -38 -79 -83v-269c0 -44 31 -82 79 -82v-62c-91 0 -148 66 -148 144v269c0 78 57 144 148 144z" />
    <glyph glyph-name="seven.smcp" horiz-adv-x="553" 
d="M108 560h369l-249 -560h-97l216 481h-239v79z" />
    <glyph glyph-name="Emacron.smcp" horiz-adv-x="504" 
d="M416 485h-233v-170h233v-74h-233v-165h233v-76h-323v560h323v-75zM397 707v-69h-290v69h290z" />
    <glyph glyph-name="IJ.smcp" horiz-adv-x="722" 
d="M636 560v-378c0 -119 -72 -195 -189 -195c-119 0 -191 84 -191 195h89c0 -69 40 -116 102 -116s99 45 99 116v378h90zM93 0v560h91v-560h-91z" />
    <glyph glyph-name="thinspace" unicode="&#x2009;" horiz-adv-x="206" 
 />
    <glyph glyph-name="Cdotaccent.smcp" horiz-adv-x="689" 
d="M531 181h97c-26 -109 -127 -194 -269 -194c-184 0 -296 137 -296 294c0 152 109 292 288 292c165 0 257 -96 277 -215h-94c-16 76 -78 135 -176 135c-130 0 -204 -102 -204 -212c0 -116 78 -213 212 -213c76 0 144 48 165 113zM289 679c0 34 28 62 62 62s61 -28 61 -62
c0 -33 -27 -60 -61 -60s-62 27 -62 60z" />
    <glyph glyph-name="Jcircumflex.smcp" horiz-adv-x="510" 
d="M423 560v-378c0 -119 -71 -195 -188 -195c-120 0 -191 84 -191 195h90c0 -69 39 -116 101 -116s99 45 99 116v378h89zM230 649l149 121l149 -121l-48 -53l-101 82l-101 -81z" />
    <glyph glyph-name="seven.numerator" horiz-adv-x="339" 
d="M50 700h262l-169 -385h-77l145 325h-161v60z" />
    <glyph glyph-name="Uhungarumlaut.smcp" horiz-adv-x="574" 
d="M85 183v377h90v-376c0 -64 44 -118 111 -118c69 0 114 54 114 118v376h89v-377c0 -108 -78 -196 -203 -196c-122 0 -201 88 -201 196zM309 629l100 137l66 -36l-128 -120zM153 629l100 137l66 -36l-128 -120z" />
    <glyph glyph-name="Itilde.smcp" horiz-adv-x="277" 
d="M93 0v560h91v-560h-91zM23 629l-32 54c48 30 70 30 85 30c23 0 94 -22 115 -22c19 0 28 4 66 22l30 -52c-43 -32 -71 -33 -87 -33c-27 0 -90 20 -116 20c-19 0 -36 -6 -61 -19z" />
    <glyph glyph-name="I.smcp" horiz-adv-x="277" 
d="M93 0v560h91v-560h-91z" />
    <glyph glyph-name="eight.plf.smcp" horiz-adv-x="555" 
d="M278 -10c-124 0 -198 74 -198 167c0 61 36 119 97 135c-56 18 -84 68 -84 122c0 86 69 156 185 156c115 0 184 -70 184 -156c0 -54 -28 -104 -84 -122c61 -17 96 -75 96 -135c0 -90 -73 -167 -196 -167zM278 323c60 0 96 39 96 87c0 47 -37 86 -96 86
c-60 0 -96 -38 -96 -86s35 -87 96 -87zM278 64c66 0 107 43 107 94s-39 95 -107 95c-69 0 -108 -42 -108 -95s41 -94 108 -94z" />
    <glyph glyph-name="five.numerator" horiz-adv-x="401" 
d="M71 478v222h247v-56h-181v-110c15 26 50 39 82 39c83 0 125 -63 125 -130c0 -73 -53 -135 -141 -135s-141 62 -141 135h70c0 -41 27 -76 71 -76c43 0 71 35 71 76s-27 75 -71 75c-31 0 -52 -14 -65 -40h-67z" />
    <glyph glyph-name="K.smcp" horiz-adv-x="555" 
d="M405 0l-222 250v-250h-90v560h90v-251l222 251h110l-249 -280l249 -280h-110z" />
    <glyph glyph-name="Ccedilla.smcp" horiz-adv-x="689" 
d="M628 181c-26 -105 -121 -187 -253 -193h-6v-32c6 8 18 15 36 15c35 0 66 -29 66 -71c0 -39 -27 -77 -81 -77c-26 0 -74 14 -81 69h47c3 -17 15 -29 34 -29c21 0 35 16 35 37c0 20 -15 35 -35 35c-13 0 -23 -5 -30 -19h-41v73c-161 18 -256 147 -256 292
c0 152 109 292 288 292c165 0 257 -96 277 -215h-94c-16 76 -78 135 -176 135c-130 0 -204 -102 -204 -212c0 -116 78 -213 212 -213c76 0 144 48 165 113h97z" />
    <glyph glyph-name="Umacron.smcp" horiz-adv-x="574" 
d="M85 183v377h90v-376c0 -64 44 -118 111 -118c69 0 114 54 114 118v376h89v-377c0 -108 -78 -196 -203 -196c-122 0 -201 88 -201 196zM432 713v-69h-290v69h290z" />
    <glyph glyph-name="Wdieresis.smcp" horiz-adv-x="854" 
d="M555 0l-127 412l-129 -412h-71l-193 560h94l135 -418l128 418h70l129 -418l134 418h95l-194 -560h-71zM461 682c0 32 26 59 59 59s59 -27 59 -59s-26 -59 -59 -59s-59 27 -59 59zM274 682c0 32 26 59 58 59c34 0 60 -27 60 -59s-26 -59 -60 -59c-32 0 -58 27 -58 59z" />
    <glyph glyph-name="seven.plf.smcp" horiz-adv-x="473" 
d="M69 560h369l-249 -560h-97l216 481h-239v79z" />
    <glyph glyph-name="Odieresis.001" horiz-adv-x="803" 
d="M285 740l87 130h68l-87 -130h-68zM558 870l-87 -130h-68l87 130h68zM402 -16c-225 0 -361 177 -361 366c0 190 136 366 361 366c224 0 361 -176 361 -366c0 -189 -137 -366 -361 -366zM402 66c164 0 265 138 265 284c0 147 -101 284 -265 284c-165 0 -266 -137 -266 -284
c0 -146 101 -284 266 -284z" />
    <glyph glyph-name="Ebreve.smcp" horiz-adv-x="504" 
d="M415 485h-232v-170h232v-74h-232v-165h232v-76h-322v560h322v-75zM84 717h73c12 -36 46 -58 96 -58c48 0 84 24 94 58h74c-10 -76 -85 -126 -168 -126c-84 0 -156 51 -169 126z" />
    <glyph glyph-name="six.denominator" horiz-adv-x="380" 
d="M189 -7c-88 0 -141 62 -141 135c0 28 8 55 22 78l114 179h81l-83 -128c9 3 21 2 32 1c71 -8 116 -63 116 -130c0 -73 -54 -135 -141 -135zM189 53c43 0 71 35 71 75c0 42 -28 76 -71 76c-44 0 -71 -34 -71 -76c0 -40 27 -75 71 -75z" />
    <glyph glyph-name="Scedilla.smcp" horiz-adv-x="534" 
d="M67 180h90c0 -72 46 -118 117 -118c60 0 103 34 103 87c0 64 -54 81 -108 97c-99 33 -184 62 -184 176c0 93 81 151 185 151c114 0 184 -73 185 -173h-90c-1 61 -35 100 -94 100c-58 0 -96 -29 -96 -77c0 -56 48 -76 102 -93c89 -29 189 -62 189 -173
c0 -103 -72 -161 -177 -169v-43c8 11 21 16 36 16c36 0 67 -28 67 -70c0 -40 -28 -78 -82 -78c-27 0 -75 15 -81 72h46c3 -19 16 -32 35 -32c22 0 36 16 36 38c0 20 -15 34 -35 34c-12 0 -23 -3 -31 -18h-40v81c-101 12 -173 82 -173 192z" />
    <glyph glyph-name="Igrave.smcp" horiz-adv-x="277" 
d="M93 0v560h91v-560h-91zM226 587l-208 106l33 63l208 -107z" />
    <glyph glyph-name="Odieresis.001.smcp" horiz-adv-x="710" 
d="M386 696l-70 -104h-59l70 104h59zM485 696l-70 -104h-59l70 104h59zM355 -13c-182 0 -292 141 -292 293s110 293 292 293s292 -141 292 -293s-110 -293 -292 -293zM355 68c124 0 199 103 199 212c0 110 -75 212 -199 212s-199 -102 -199 -212c0 -109 75 -212 199 -212z
" />
    <glyph glyph-name="Ugrave.smcp" horiz-adv-x="574" 
d="M85 183v377h90v-376c0 -64 44 -118 111 -118c69 0 114 54 114 118v376h89v-377c0 -108 -78 -196 -203 -196c-122 0 -201 88 -201 196zM382 596l-208 107l32 62l209 -107z" />
    <glyph glyph-name="OE.smcp" horiz-adv-x="965" 
d="M877 485h-233v-170h233v-74h-233v-165h233v-76h-322v92c-31 -58 -91 -106 -200 -106c-182 0 -292 141 -292 293s110 293 292 293c95 0 172 -48 200 -98v86h322v-75zM355 67c124 0 199 102 199 212s-75 212 -199 212s-199 -102 -199 -212s75 -212 199 -212z" />
    <glyph glyph-name="Gbreve.smcp" horiz-adv-x="732" 
d="M402 204v73h280v-73h-59c-21 -129 -112 -217 -270 -217c-186 0 -290 139 -290 293c0 152 110 293 290 293c132 0 229 -79 242 -175h-93c-13 52 -71 96 -149 96c-125 0 -199 -103 -199 -215s69 -214 207 -214c101 0 158 61 169 139h-128zM184 719h73c12 -37 47 -59 96 -59
c48 0 84 23 94 59h74c-10 -76 -85 -126 -168 -126c-84 0 -156 50 -169 126z" />
    <glyph glyph-name="uni00AD" unicode="&#xad;" horiz-adv-x="294" 
d="M264 295v-20h-234v20h234z" />
    <glyph glyph-name="minus.denominator" horiz-adv-x="390" 
d="M311 130h-232v54h232v-54z" />
    <glyph glyph-name="AE.smcp" horiz-adv-x="769" 
d="M678 485h-232v-170h232v-74h-232v-165h232v-76h-322v84h-185l-39 -84h-98l274 560h370v-75zM206 159h150v315z" />
    <glyph glyph-name="L.smcp" horiz-adv-x="414" 
d="M183 79h176v-79h-266v560h90v-481z" />
    <glyph glyph-name="Udieresis.001.smcp" horiz-adv-x="574" 
d="M326 696l-70 -104h-59l70 104h59zM425 696l-69 -104h-60l70 104h59zM85 183v377h90v-376c0 -64 44 -118 111 -118c69 0 114 54 114 118v376h89v-377c0 -108 -78 -196 -203 -196c-122 0 -201 88 -201 196z" />
    <glyph glyph-name="parenright.smcp" horiz-adv-x="363" 
d="M54 551v78c124 0 204 -93 204 -201v-416c0 -109 -80 -202 -204 -202v79c71 0 116 56 116 123v416c0 67 -45 123 -116 123z" />
    <glyph glyph-name="Ecircumflex.smcp" horiz-adv-x="504" 
d="M416 485h-233v-170h233v-74h-233v-165h233v-76h-323v560h323v-75zM107 649l148 121l150 -121l-47 -53l-102 82l-101 -81z" />
    <glyph glyph-name="Agrave.smcp" horiz-adv-x="543" 
d="M309 560l197 -560h-97l-27 83h-222l-28 -83h-95l196 560h76zM271 436l-87 -278h174zM370 596l-208 107l32 62l208 -107z" />
    <glyph glyph-name="Gcommaaccent.smcp" horiz-adv-x="732" 
d="M402 204v73h280v-73h-59c-21 -129 -112 -217 -270 -217c-186 0 -290 139 -290 293c0 152 110 293 290 293c132 0 229 -79 242 -175h-93c-13 52 -71 96 -149 96c-125 0 -199 -103 -199 -215s69 -214 207 -214c101 0 158 61 169 139h-128zM303 -72c0 28 22 49 50 49
c35 0 59 -29 59 -69c0 -76 -40 -104 -105 -105v31c43 0 60 21 63 44c0 4 -2 6 -2 6c-3 -2 -10 -4 -16 -4c-29 0 -49 21 -49 48z" />
    <glyph glyph-name="V.smcp" horiz-adv-x="541" 
d="M508 560l-200 -560h-76l-199 560h96l141 -434l141 434h97z" />
    <glyph glyph-name="Yacute.smcp" horiz-adv-x="546" 
d="M517 560l-282 -560h-99l110 218l-208 342h105l150 -252l125 252h99zM422 699l-208 -107l-32 62l208 107z" />
    <glyph glyph-name="slash.smcp" horiz-adv-x="428" 
d="M39 -24l286 667l80 -34l-287 -667z" />
    <glyph glyph-name="Omacron.smcp" horiz-adv-x="710" 
d="M355 -13c-182 0 -292 141 -292 293s110 293 292 293s292 -141 292 -293s-110 -293 -292 -293zM355 68c124 0 199 103 199 212c0 110 -75 212 -199 212s-199 -102 -199 -212c0 -109 75 -212 199 -212zM500 707v-69h-290v69h290z" />
    <glyph glyph-name="parenright.denominator" horiz-adv-x="268" 
d="M45 368v61c91 0 149 -66 149 -144v-269c0 -78 -58 -144 -149 -144v61c49 0 79 38 79 83v269c0 45 -30 83 -79 83z" />
    <glyph glyph-name="plus.numerator" horiz-adv-x="390" 
d="M224 357h-58v87h-86v55h86v87h58v-87h86v-55h-86v-87z" />
    <glyph glyph-name="Wacute.smcp" horiz-adv-x="854" 
d="M555 0l-127 412l-129 -412h-71l-193 560h94l135 -418l128 418h70l129 -418l134 418h95l-194 -560h-71zM548 703l-209 -107l-32 62l208 107z" />
    <glyph glyph-name="Zdotaccent.smcp" horiz-adv-x="535" 
d="M64 482v78h430l-303 -482h303v-78h-449l303 482h-284zM208 680c0 34 28 61 61 61c34 0 62 -27 62 -61c0 -33 -28 -61 -62 -61c-33 0 -61 28 -61 61z" />
    <glyph glyph-name="Ycircumflex.smcp" horiz-adv-x="546" 
d="M517 560l-282 -560h-99l110 218l-208 342h105l150 -252l125 252h99zM124 650l149 120l149 -120l-48 -53l-101 82l-101 -81z" />
    <glyph glyph-name="Tcaron.smcp" horiz-adv-x="456" 
d="M183 0v481h-139v79h369v-79h-140v-481h-90zM227 598l-135 119l43 54l92 -84l93 84l44 -54z" />
    <glyph glyph-name="Oslash.smcp" horiz-adv-x="710" 
d="M175 -37l27 64c-89 52 -139 150 -139 253c0 152 110 293 292 293c26 0 52 -3 76 -9l30 70l73 -32l-30 -68c91 -52 143 -150 143 -254c0 -152 -110 -293 -292 -293c-30 0 -56 4 -81 11l-28 -65zM554 280c0 69 -31 134 -85 172l-163 -377c15 -5 31 -7 49 -7
c124 0 199 103 199 212zM156 280c0 -67 29 -132 81 -171l160 378c-13 3 -27 5 -42 5c-124 0 -199 -102 -199 -212z" />
    <glyph glyph-name="question.smcp" horiz-adv-x="478" 
d="M179 161c0 75 18 113 72 149c31 21 75 50 75 106c0 54 -35 82 -92 82c-54 0 -96 -36 -96 -104h-89c0 105 74 177 185 177c102 0 181 -57 181 -155c0 -81 -57 -119 -87 -142c-47 -34 -62 -49 -62 -113h-87zM157 55c0 35 28 64 65 64s66 -29 66 -64c0 -37 -29 -66 -66 -66
s-65 29 -65 66z" />
    <glyph glyph-name="nine.numerator" horiz-adv-x="380" 
d="M191 707c87 0 141 -62 141 -135c0 -29 -9 -55 -23 -77l-114 -180h-80l82 127c-3 -4 -9 -4 -13 -4c-83 3 -134 61 -134 134s53 135 141 135zM191 647c-43 0 -71 -34 -71 -75s28 -76 71 -76s71 35 71 76s-28 75 -71 75z" />
    <glyph glyph-name="Ldot.smcp" horiz-adv-x="423" 
d="M183 79h176v-79h-266v560h90v-481zM248 243c0 36 28 64 64 64c35 0 63 -28 63 -64c0 -34 -28 -62 -63 -62c-36 0 -64 28 -64 62z" />
    <glyph glyph-name="one.denominator" horiz-adv-x="268" 
d="M47 267v52c72 0 87 20 87 66h64v-385h-73v267h-78z" />
    <glyph glyph-name="two.smcp" horiz-adv-x="553" 
d="M99 0c0 179 59 233 156 283c65 33 121 61 121 130c0 54 -35 83 -89 83c-57 0 -97 -35 -97 -102h-91c0 104 75 176 188 176c102 0 180 -55 180 -164c0 -100 -93 -150 -150 -180c-90 -50 -114 -78 -114 -149h263v-77h-367z" />
    <glyph glyph-name="Oslashacute.smcp" horiz-adv-x="710" 
d="M355 -13c-30 0 -56 4 -81 11l-28 -65l-71 30l27 64c-89 52 -139 150 -139 253c0 152 110 293 292 293c26 0 52 -3 76 -9l30 70l73 -32l-30 -68c91 -52 143 -150 143 -254c0 -152 -110 -293 -292 -293zM266 596l-32 62l209 107l32 -62zM306 75c15 -5 31 -7 49 -7
c124 0 199 103 199 212c0 69 -31 134 -85 172zM397 487c-13 3 -27 5 -42 5c-124 0 -199 -102 -199 -212c0 -67 29 -132 81 -171z" />
    <glyph glyph-name="Ucircumflex.smcp" horiz-adv-x="574" 
d="M85 183v377h90v-376c0 -64 44 -118 111 -118c69 0 114 54 114 118v376h89v-377c0 -108 -78 -196 -203 -196c-122 0 -201 88 -201 196zM135 650l149 120l149 -120l-47 -54l-102 82l-101 -81z" />
    <glyph glyph-name="four.numerator" horiz-adv-x="385" 
d="M216 315v116h-152v269h71v-209h81v112h72v-112h52v-60h-52v-116h-72z" />
    <glyph glyph-name="Lslash.smcp" horiz-adv-x="415" 
d="M183 79h177v-79h-266v213l-39 -17v75l39 16v273h89v-237l121 53v-73l-121 -55v-169z" />
    <glyph glyph-name="T.smcp" horiz-adv-x="456" 
d="M183 0v481h-139v79h369v-79h-140v-481h-90z" />
    <glyph glyph-name="Zacute.smcp" horiz-adv-x="535" 
d="M64 482v78h430l-303 -482h303v-78h-449l303 482h-284zM394 705l-208 -107l-33 62l208 107z" />
    <glyph glyph-name="eight.smcp" horiz-adv-x="553" 
d="M271 -10c-124 0 -197 74 -197 167c0 61 36 119 96 135c-55 18 -84 68 -84 122c0 86 69 156 185 156c115 0 184 -70 184 -156c0 -54 -28 -104 -84 -122c61 -17 97 -75 97 -135c0 -90 -74 -167 -197 -167zM271 323c60 0 96 39 96 87c0 47 -36 86 -96 86s-96 -38 -96 -86
s36 -87 96 -87zM271 64c66 0 107 43 107 94s-39 95 -107 95c-69 0 -107 -42 -107 -95s40 -94 107 -94z" />
    <glyph glyph-name="zero.plf.smcp" horiz-adv-x="556" 
d="M79 182v196c0 105 78 193 199 193c122 0 200 -88 200 -193v-196c0 -105 -79 -193 -200 -193c-122 0 -199 89 -199 193zM386 182v196c0 61 -42 114 -108 114s-108 -53 -108 -114v-196c0 -61 42 -114 108 -114s108 53 108 114z" />
    <glyph glyph-name="Hbar.smcp" horiz-adv-x="607" 
d="M426 317v88h-243v-88h243zM93 560h90v-94h243v94h89v-560h-89v239h-243v-239h-90v560z" />
    <glyph glyph-name="Ohungarumlaut.smcp" horiz-adv-x="710" 
d="M355 -13c-182 0 -292 141 -292 293s110 293 292 293s292 -141 292 -293s-110 -293 -292 -293zM355 68c124 0 199 103 199 212c0 110 -75 212 -199 212s-199 -102 -199 -212c0 -109 75 -212 199 -212zM373 649l100 138l66 -36l-128 -120zM217 649l100 138l66 -36
l-128 -120z" />
    <glyph glyph-name="Edieresis.smcp" horiz-adv-x="504" 
d="M416 485h-233v-170h233v-74h-233v-165h233v-76h-323v560h323v-75zM295 674c0 34 26 61 60 61c35 0 62 -27 62 -61c0 -33 -27 -60 -62 -60c-34 0 -60 27 -60 60zM107 674c0 34 27 61 61 61s62 -27 62 -61c0 -33 -28 -60 -62 -60s-61 27 -61 60z" />
    <glyph glyph-name="X.smcp" horiz-adv-x="519" 
d="M260 352l121 208h99l-169 -280l169 -280h-99l-121 207l-121 -207h-101l170 280l-170 280h101z" />
    <glyph glyph-name="Edieresis.001.smcp" horiz-adv-x="504" 
d="M304 696l-70 -104h-58l69 104h59zM403 696l-70 -104h-58l70 104h58zM416 485h-233v-170h233v-74h-233v-165h233v-76h-323v560h323v-75z" />
    <glyph glyph-name="Odieresis.smcp" horiz-adv-x="710" 
d="M355 -13c-182 0 -292 141 -292 293s110 293 292 293s292 -141 292 -293s-110 -293 -292 -293zM355 68c124 0 199 103 199 212c0 110 -75 212 -199 212s-199 -102 -199 -212c0 -109 75 -212 199 -212zM387 674c0 35 26 62 60 62c35 0 62 -27 62 -62c0 -33 -27 -60 -62 -60
c-34 0 -60 27 -60 60zM200 674c0 35 26 62 60 62c35 0 62 -27 62 -62c0 -33 -27 -60 -62 -60c-34 0 -60 27 -60 60z" />
    <glyph glyph-name="parenright.numerator" horiz-adv-x="268" 
d="M45 683v61c91 0 149 -66 149 -144v-269c0 -78 -58 -144 -149 -144v62c49 0 79 38 79 82v269c0 45 -30 83 -79 83z" />
    <glyph glyph-name="three.smcp" horiz-adv-x="553" 
d="M77 178h91c0 -70 45 -112 109 -112c63 0 100 42 100 94c0 55 -31 95 -105 95h-45v75h46c68 0 95 35 95 86c0 52 -36 80 -90 80c-67 0 -95 -38 -95 -95h-92c0 95 65 169 183 169c102 0 184 -56 184 -153c0 -64 -36 -110 -89 -126c58 -17 100 -65 100 -136
c0 -101 -87 -165 -193 -165c-120 0 -199 74 -199 188z" />
    <glyph glyph-name="two.numerator" horiz-adv-x="370" 
d="M55 315c0 124 41 161 107 196c47 25 84 43 84 88c0 34 -23 53 -57 53c-36 0 -62 -22 -62 -67h-71c0 70 50 122 133 122c71 0 127 -37 127 -113c0 -67 -60 -102 -101 -124c-60 -33 -78 -51 -78 -96h179v-59h-261z" />
    <glyph glyph-name="one.smcp" horiz-adv-x="553" 
d="M143 397v68c103 0 123 28 123 95h83v-560h-93v397h-113z" />
    <glyph glyph-name="Ygrave.smcp" horiz-adv-x="546" 
d="M517 560l-282 -560h-99l110 218l-208 342h105l150 -252l125 252h99zM361 596l-208 107l32 62l208 -107z" />
    <glyph glyph-name="O.smcp" horiz-adv-x="710" 
d="M355 -13c-182 0 -292 141 -292 293s110 293 292 293s292 -141 292 -293s-110 -293 -292 -293zM355 68c124 0 199 103 199 212c0 110 -75 212 -199 212s-199 -102 -199 -212c0 -109 75 -212 199 -212z" />
    <glyph glyph-name="seven.denominator" horiz-adv-x="339" 
d="M50 385h262l-169 -385h-77l145 325h-161v60z" />
    <glyph glyph-name="Adieresis.001" horiz-adv-x="559" 
d="M335 870l-87 -130h-67l87 130h67zM453 870l-87 -130h-67l87 130h67zM312 700l242 -700h-96l-37 107h-284l-36 -107h-96l241 700h66zM280 551l-115 -361h228z" />
    <glyph glyph-name="Scircumflex.smcp" horiz-adv-x="534" 
d="M67 180h90c0 -72 46 -118 117 -118c60 0 103 34 103 87c0 62 -53 80 -105 96c-101 33 -187 62 -187 177c0 93 81 151 185 151c114 0 184 -73 185 -173h-90c-1 61 -35 100 -94 100c-58 0 -96 -29 -96 -77c0 -56 47 -76 101 -93c89 -28 190 -62 190 -173
c0 -109 -83 -170 -198 -170s-201 73 -201 193zM121 650l150 120l149 -120l-48 -53l-101 82l-101 -81z" />
    <glyph glyph-name="four.plf.smcp" horiz-adv-x="541" 
d="M308 0v173h-217v387h91v-307h126v165h92v-165h79v-80h-79v-173h-92z" />
    <glyph glyph-name="Oacute.smcp" horiz-adv-x="710" 
d="M355 -13c-182 0 -292 141 -292 293s110 293 292 293s292 -141 292 -293s-110 -293 -292 -293zM355 68c124 0 199 103 199 212c0 110 -75 212 -199 212s-199 -102 -199 -212c0 -109 75 -212 199 -212zM464 703l-208 -107l-32 62l208 107z" />
    <glyph glyph-name="nine.smcp" horiz-adv-x="552" 
d="M276 569c123 0 199 -88 199 -193c0 -42 -12 -79 -32 -112l-167 -264h-104l125 191c-5 -6 -23 -9 -32 -9c-116 4 -189 91 -189 194c0 105 76 193 200 193zM276 491c-67 0 -110 -52 -110 -115c0 -64 43 -116 110 -116s110 52 110 116c0 63 -43 115 -110 115z" />
    <glyph glyph-name="Utilde.smcp" horiz-adv-x="574" 
d="M85 183v377h90v-376c0 -64 44 -118 111 -118c69 0 114 54 114 118v376h89v-377c0 -108 -78 -196 -203 -196c-122 0 -201 88 -201 196zM171 629l-32 54c49 30 70 30 84 30c24 0 95 -22 116 -22c19 0 28 4 67 22l29 -52c-43 -32 -71 -33 -86 -33c-28 0 -91 20 -116 20
c-20 0 -37 -6 -62 -19z" />
    <glyph glyph-name="Atilde.smcp" horiz-adv-x="543" 
d="M309 560l197 -560h-97l-27 83h-222l-28 -83h-95l196 560h76zM271 436l-87 -278h174zM158 631l-32 53c48 30 70 30 85 30c23 0 94 -22 116 -22c18 0 27 4 65 22l30 -52c-43 -31 -70 -33 -87 -33c-27 0 -90 21 -115 21c-20 0 -37 -7 -62 -19z" />
    <glyph glyph-name="Sacute.smcp" horiz-adv-x="534" 
d="M67 180h90c0 -72 46 -118 117 -118c60 0 103 34 103 87c0 62 -53 80 -105 96c-101 33 -187 62 -187 177c0 93 81 151 185 151c114 0 184 -73 185 -173h-90c-1 61 -35 100 -94 100c-58 0 -96 -29 -96 -77c0 -56 47 -76 101 -93c89 -28 190 -62 190 -173
c0 -109 -83 -170 -198 -170s-201 73 -201 193zM389 703l-208 -107l-33 62l208 107z" />
    <glyph glyph-name="S.smcp" horiz-adv-x="534" 
d="M67 180h90c0 -72 46 -118 117 -118c60 0 103 34 103 87c0 62 -53 80 -105 96c-101 33 -187 62 -187 177c0 93 81 151 185 151c114 0 184 -73 185 -173h-90c-1 61 -35 100 -94 100c-58 0 -96 -29 -96 -77c0 -56 47 -76 101 -93c89 -28 190 -62 190 -173
c0 -109 -83 -170 -198 -170s-201 73 -201 193z" />
    <glyph glyph-name="Eng.smcp" horiz-adv-x="613" 
d="M194 -139l54 56c24 -25 47 -43 84 -43c61 0 98 44 99 112v14l-248 415v-415h-90v560h91l247 -415v415h89v-569c0 -119 -71 -195 -188 -195c-59 0 -106 25 -138 65z" />
    <glyph glyph-name="ordmasculine.smcp" horiz-adv-x="524" 
d="M262 -9c-122 0 -199 89 -199 194s77 194 199 194c123 0 199 -89 199 -194s-76 -194 -199 -194zM262 65c69 0 114 54 114 120c0 64 -45 119 -114 119s-114 -55 -114 -119c0 -66 45 -120 114 -120z" />
    <glyph glyph-name="W.smcp" horiz-adv-x="854" 
d="M555 0l-127 412l-129 -412h-71l-193 560h94l135 -418l128 418h70l129 -418l134 418h95l-194 -560h-71z" />
    <glyph glyph-name="eight.denominator" horiz-adv-x="391" 
d="M196 -7c-88 0 -140 51 -140 115c0 43 26 82 67 93c-37 12 -58 46 -58 83c0 60 48 108 131 108c82 0 130 -48 130 -108c0 -37 -21 -71 -58 -83c41 -12 67 -51 67 -93c0 -63 -52 -115 -139 -115zM196 224c38 0 62 26 62 57s-24 56 -62 56c-39 0 -62 -25 -62 -56
s22 -57 62 -57zM196 48c43 0 69 28 69 62c0 32 -25 61 -69 61c-45 0 -70 -28 -70 -61c0 -35 26 -62 70 -62z" />
    <glyph glyph-name="zero.smcp" horiz-adv-x="552" 
d="M77 182v196c0 105 77 193 199 193c121 0 199 -88 199 -193v-196c0 -105 -78 -193 -199 -193c-122 0 -199 89 -199 193zM384 182v196c0 61 -42 114 -108 114s-108 -53 -108 -114v-196c0 -61 42 -114 108 -114s108 53 108 114z" />
    <glyph glyph-name="Ograve.smcp" horiz-adv-x="710" 
d="M355 -13c-182 0 -292 141 -292 293s110 293 292 293s292 -141 292 -293s-110 -293 -292 -293zM355 68c124 0 199 103 199 212c0 110 -75 212 -199 212s-199 -102 -199 -212c0 -109 75 -212 199 -212zM451 596l-208 107l32 62l209 -107z" />
    <glyph glyph-name="zero.plfslash.smcp" horiz-adv-x="552" 
d="M77 182v196c0 105 77 193 199 193c121 0 199 -88 199 -193v-196c0 -105 -78 -193 -199 -193c-122 0 -199 89 -199 193zM384 182v176c0 19 -5 37 -15 52l-141 -330c13 -7 29 -12 48 -12c66 0 108 53 108 114zM168 200c0 -20 6 -39 15 -55l143 334c-15 8 -32 13 -50 13
c-65 0 -108 -51 -108 -112v-180z" />
    <glyph glyph-name="bracketleft.smcp" horiz-adv-x="344" 
d="M269 -183h-176v812h176v-74h-91v-664h91v-74z" />
    <glyph glyph-name="braceright.smcp" horiz-adv-x="408" 
d="M75 629h63c61 0 118 -40 118 -118v-191c0 -50 44 -69 72 -69v-73c-28 0 -72 -20 -72 -74v-170c0 -78 -57 -117 -118 -117h-63v67h36c42 0 60 34 60 70v165c0 72 50 90 75 96c-25 4 -75 26 -75 89v187c0 37 -18 70 -60 70h-36v68z" />
    <glyph glyph-name="Ntilde.smcp" horiz-adv-x="613" 
d="M189 560l242 -417v417h89v-560h-95l-242 415v-415h-90v560h96zM187 631l-32 53c49 30 70 30 84 30c23 0 95 -21 116 -21c18 0 28 3 66 21l29 -52c-42 -31 -70 -33 -85 -33c-28 0 -91 21 -116 21c-21 0 -37 -7 -62 -19z" />
    <glyph glyph-name="Ncommaaccent.smcp" horiz-adv-x="613" 
d="M520 0h-95l-242 415v-415h-90v560h96l242 -417v417h89v-560zM256 -64c0 28 22 50 50 50c35 0 59 -29 59 -70c0 -76 -40 -104 -105 -104v31c43 0 60 20 62 44c0 4 -1 5 -2 6c-2 -3 -9 -5 -15 -5c-30 0 -49 22 -49 48z" />
    <glyph glyph-name="U.smcp" horiz-adv-x="574" 
d="M85 183v377h90v-376c0 -64 44 -118 111 -118c69 0 114 54 114 118v376h89v-377c0 -108 -78 -196 -203 -196c-122 0 -201 88 -201 196z" />
    <glyph glyph-name="six.plf.smcp" horiz-adv-x="537" 
d="M267 -9c-123 0 -199 88 -199 194c0 40 13 78 33 111l167 264h103l-125 -191c5 5 34 5 44 5c108 -7 177 -91 177 -189c0 -106 -76 -194 -200 -194zM267 69c68 0 111 53 111 116s-43 115 -111 115c-66 0 -109 -52 -109 -115s43 -116 109 -116z" />
    <glyph glyph-name="Acircumflex.smcp" horiz-adv-x="543" 
d="M309 560l197 -560h-97l-27 83h-222l-28 -83h-95l196 560h76zM271 436l-87 -278h174zM122 654l149 120l150 -120l-48 -53l-101 82l-101 -82z" />
    <glyph glyph-name="one.plf.smcp" horiz-adv-x="372" 
d="M65 397v68c103 0 124 28 124 95h83v-560h-94v397h-113z" />
    <glyph glyph-name="nine.plf.smcp" horiz-adv-x="537" 
d="M270 569c123 0 199 -88 199 -193c0 -42 -12 -80 -32 -112l-167 -264h-104l125 191c-5 -6 -15 -9 -24 -9c-121 4 -197 86 -197 194c0 105 76 193 200 193zM270 491c-67 0 -110 -52 -110 -115c0 -64 43 -116 110 -116s110 52 110 116c0 63 -43 115 -110 115z" />
    <glyph glyph-name="backslash.smcp" horiz-adv-x="428" 
d="M106 643l288 -667l-80 -34l-286 667z" />
    <glyph glyph-name="Eogonek.smcp" horiz-adv-x="503" 
d="M464 -106l-1 -52c-19 -6 -44 -12 -73 -12c-64 0 -95 36 -95 78c0 34 21 62 63 92h-265v560h323v-75h-233v-170h233v-74h-233v-165h233v-76c-26 -18 -48 -39 -48 -69c0 -26 16 -48 46 -48c15 0 35 4 50 11z" />
    <glyph glyph-name="germandbls.smcp" horiz-adv-x="524" 
d="M208 0v70c19 -5 43 -8 58 -8c56 0 105 34 105 98c0 44 -35 97 -107 97h-30v70h29c67 0 96 41 96 90c0 51 -40 84 -95 84c-57 0 -93 -41 -93 -100v-401h-87v401c0 96 63 170 180 170c100 0 182 -57 182 -153c0 -67 -39 -111 -95 -127c60 -17 106 -68 106 -136
c0 -109 -84 -165 -180 -165c-30 0 -54 4 -69 10z" />
    <glyph glyph-name="five.denominator" horiz-adv-x="401" 
d="M71 163v222h247v-56h-181v-110c15 26 50 39 82 39c83 0 125 -63 125 -130c0 -73 -53 -135 -141 -135s-141 62 -141 135h70c0 -41 27 -76 71 -76c43 0 71 35 71 76s-27 75 -71 75c-31 0 -52 -14 -65 -40h-67z" />
    <glyph glyph-name="zero.slash.smcp" horiz-adv-x="552" 
d="M77 182v196c0 105 77 193 199 193c121 0 199 -88 199 -193v-196c0 -105 -78 -193 -199 -193c-122 0 -199 89 -199 193zM384 182v176c0 19 -5 37 -15 52l-141 -330c13 -7 29 -12 48 -12c66 0 108 53 108 114zM168 200c0 -20 6 -39 15 -55l143 334c-15 8 -32 13 -50 13
c-65 0 -108 -51 -108 -112v-180z" />
    <glyph glyph-name="B.smcp" horiz-adv-x="550" 
d="M92 0v560h208c136 0 172 -91 172 -155c0 -72 -49 -112 -93 -123c40 -9 97 -47 97 -125c0 -63 -36 -157 -172 -157h-212zM294 247h-113v-173h111c69 0 93 48 93 87c0 36 -25 86 -91 86zM181 319h110c67 0 91 47 91 85c0 36 -22 84 -93 84h-108v-169z" />
    <glyph glyph-name="Wgrave.smcp" horiz-adv-x="854" 
d="M555 0l-127 412l-129 -412h-71l-193 560h94l135 -418l128 418h70l129 -418l134 418h95l-194 -560h-71zM515 596l-208 107l32 62l209 -107z" />
    <glyph glyph-name="N.smcp" horiz-adv-x="613" 
d="M189 560l242 -417v417h89v-560h-95l-242 415v-415h-90v560h96z" />
    <glyph glyph-name="exclam.smcp" horiz-adv-x="312" 
d="M111 177v386h91v-386h-91zM91 55c0 35 28 64 65 64s65 -29 65 -64c0 -37 -28 -66 -65 -66s-65 29 -65 66z" />
    <glyph glyph-name="zero.numerator" horiz-adv-x="394" 
d="M56 441v135c2 72 55 132 140 132c87 0 142 -61 142 -134c0 0 -1 -132 -1 -135c0 -71 -55 -132 -141 -132s-140 62 -140 134zM266 441v133c0 40 -27 74 -70 74c-41 0 -69 -34 -69 -74v-133c0 -40 28 -73 69 -73c43 0 70 33 70 73z" />
    <glyph glyph-name="Iogonek.smcp" horiz-adv-x="277" 
d="M183 0h-33c-26 -18 -48 -39 -48 -69c0 -26 16 -48 46 -48c15 0 35 4 50 11v-52c-19 -6 -45 -12 -73 -12c-64 0 -96 36 -96 78c0 34 20 62 63 92v560h91v-560z" />
    <glyph glyph-name="bar.smcp" horiz-adv-x="271" 
d="M178 -164h-85v793h85v-793z" />
    <glyph glyph-name="seven.003" horiz-adv-x="800" 
d="M292 542h262l-169 -385h-77l145 325h-161v60zM400 44c182 0 292 147 292 306s-110 307 -292 307c-181 0 -292 -148 -292 -307s111 -306 292 -306zM400 -17c-225 0 -362 177 -362 367s137 367 362 367s362 -177 362 -367s-137 -367 -362 -367z" />
    <glyph glyph-name="four.003" horiz-adv-x="800" 
d="M410 156v115h-152v270h71v-209h81v112h72v-112h52v-61h-52v-115h-72zM400 -17c-225 0 -362 177 -362 367s137 367 362 367s362 -177 362 -367s-137 -367 -362 -367zM400 44c182 0 292 147 292 306s-110 307 -292 307c-181 0 -292 -148 -292 -307s111 -306 292 -306z" />
    <glyph glyph-name="eight.003" horiz-adv-x="800" 
d="M400 151c-88 0 -139 51 -139 115c0 42 25 82 67 92c-38 12 -58 46 -58 84c0 60 48 108 130 108s130 -49 130 -108c0 -38 -21 -72 -58 -84c41 -11 67 -50 67 -92c0 -63 -52 -115 -139 -115zM400 382c39 0 62 26 62 57s-24 56 -62 56c-39 0 -62 -25 -62 -56s22 -57 62 -57z
M400 206c43 0 69 28 69 61s-25 62 -69 62s-70 -28 -70 -62s27 -61 70 -61zM400 44c182 0 292 147 292 306s-110 307 -292 307c-181 0 -292 -148 -292 -307s111 -306 292 -306zM400 -17c-225 0 -362 177 -362 367s137 367 362 367s362 -177 362 -367s-137 -367 -362 -367z
" />
    <glyph glyph-name="one.003" horiz-adv-x="800" 
d="M293 425v52c72 0 88 20 88 66h63v-385h-73v267h-78zM400 44c182 0 292 147 292 306s-110 307 -292 307c-181 0 -292 -148 -292 -307s111 -306 292 -306zM400 -17c-225 0 -362 177 -362 367s137 367 362 367s362 -177 362 -367s-137 -367 -362 -367z" />
    <glyph glyph-name="three.003" horiz-adv-x="800" 
d="M259 281h72c0 -45 28 -72 69 -72s64 27 64 60c0 37 -20 62 -67 62h-34v56h34c44 0 61 23 61 56c0 34 -23 52 -57 52c-43 0 -61 -25 -61 -63h-71c0 65 42 118 130 118c71 0 130 -37 130 -106c0 -44 -26 -76 -62 -86c40 -11 68 -45 68 -93c0 -72 -61 -114 -134 -114
c-89 0 -142 53 -142 130zM400 44c182 0 292 147 292 306s-110 307 -292 307c-181 0 -292 -148 -292 -307s111 -306 292 -306zM400 -17c-225 0 -362 177 -362 367s137 367 362 367s362 -177 362 -367s-137 -367 -362 -367z" />
    <glyph glyph-name="six.003" horiz-adv-x="800" 
d="M398 151c-87 0 -141 61 -141 134c0 28 8 55 22 78l115 179h81l-84 -128c9 3 21 2 32 1c71 -8 117 -63 117 -130c0 -73 -55 -134 -142 -134zM398 210c44 0 72 35 72 75c0 42 -28 76 -72 76s-71 -34 -71 -76c0 -40 27 -75 71 -75zM400 -17c-225 0 -362 177 -362 367
s137 367 362 367s362 -177 362 -367s-137 -367 -362 -367zM400 44c182 0 292 147 292 306s-110 307 -292 307c-181 0 -292 -148 -292 -307s111 -306 292 -306z" />
    <glyph glyph-name="two.003" horiz-adv-x="800" 
d="M269 158c0 124 41 161 107 196c47 24 84 43 84 88c0 34 -23 53 -57 53c-36 0 -62 -23 -62 -67h-71c0 70 50 122 133 122c71 0 127 -37 127 -113c0 -68 -60 -102 -101 -124c-60 -33 -78 -52 -78 -96h179v-59h-261zM400 44c182 0 292 147 292 306s-110 307 -292 307
c-181 0 -292 -148 -292 -307s111 -306 292 -306zM400 -17c-225 0 -362 177 -362 367s137 367 362 367s362 -177 362 -367s-137 -367 -362 -367z" />
    <glyph glyph-name="five.003" horiz-adv-x="800" 
d="M269 320v223h247v-57h-182v-110c16 27 51 40 83 40c82 0 125 -63 125 -130c0 -73 -54 -135 -142 -135c-87 0 -141 62 -141 134h70c0 -40 27 -75 71 -75s72 35 72 76s-27 75 -72 75c-31 0 -51 -14 -64 -41h-67zM400 44c182 0 292 147 292 306s-110 307 -292 307
c-181 0 -292 -148 -292 -307s111 -306 292 -306zM400 -17c-225 0 -362 177 -362 367s137 367 362 367s362 -177 362 -367s-137 -367 -362 -367z" />
    <glyph glyph-name="nine.003" horiz-adv-x="800" 
d="M400 -17c-225 0 -362 177 -362 367s137 367 362 367s362 -177 362 -367s-137 -367 -362 -367zM400 44c182 0 292 147 292 306s-110 307 -292 307c-181 0 -292 -148 -292 -307s111 -306 292 -306zM402 549c87 0 141 -62 141 -135c0 -29 -8 -55 -23 -77l-114 -180h-80
l83 127c-4 -3 -10 -4 -14 -4c-83 3 -134 61 -134 134s53 135 141 135zM402 489c-43 0 -71 -34 -71 -75s28 -76 71 -76c44 0 72 35 72 76s-28 75 -72 75z" />
    <glyph glyph-name="seven.004" horiz-adv-x="800" 
d="M292 542v-60h161l-145 -325h77l169 385h-262zM400 -17c-225 0 -362 177 -362 367s137 367 362 367s362 -177 362 -367s-137 -367 -362 -367z" />
    <glyph glyph-name="six.004" horiz-adv-x="800" 
d="M398 151c87 0 142 61 142 134c0 67 -46 122 -117 130c-11 1 -23 2 -32 -1l84 128h-81l-115 -179c-14 -23 -22 -50 -22 -78c0 -73 54 -134 141 -134zM398 210c-44 0 -71 35 -71 75c0 42 27 76 71 76s72 -34 72 -76c0 -40 -28 -75 -72 -75zM400 -17
c-225 0 -362 177 -362 367s137 367 362 367s362 -177 362 -367s-137 -367 -362 -367z" />
    <glyph glyph-name="parenleft.case" horiz-adv-x="368" 
d="M340 858v-82c-89 0 -147 -72 -147 -156v-560c0 -85 58 -156 147 -156v-83c-144 0 -238 110 -238 239v560c0 128 94 238 238 238z" />
    <glyph glyph-name="endash.case" horiz-adv-x="503" 
d="M453 310h-403v77h403v-77z" />
    <glyph glyph-name="bracketright.case" horiz-adv-x="335" 
d="M257 -170h-197v77h110v873h-110v78h197v-1028z" />
    <glyph glyph-name="eight.004" horiz-adv-x="800" 
d="M400 151c87 0 139 52 139 115c0 42 -26 81 -67 92c37 12 58 46 58 84c0 59 -48 108 -130 108s-130 -48 -130 -108c0 -38 20 -72 58 -84c-42 -10 -67 -50 -67 -92c0 -64 51 -115 139 -115zM400 382c-40 0 -62 26 -62 57s23 56 62 56c38 0 62 -25 62 -56s-23 -57 -62 -57z
M400 206c-43 0 -70 27 -70 61s26 62 70 62s69 -29 69 -62s-26 -61 -69 -61zM400 -17c-225 0 -362 177 -362 367s137 367 362 367s362 -177 362 -367s-137 -367 -362 -367z" />
    <glyph glyph-name="one.004" horiz-adv-x="800" 
d="M293 425h78v-267h73v385h-63c0 -46 -16 -66 -88 -66v-52zM400 -17c-225 0 -362 177 -362 367s137 367 362 367s362 -177 362 -367s-137 -367 -362 -367z" />
    <glyph glyph-name="guillemotleft.case" horiz-adv-x="472" 
d="M432 247v-86l-196 167v53l196 167v-85l-126 -108zM236 247v-86l-196 167v53l196 167v-85l-126 -108z" />
    <glyph glyph-name="parenright.case" horiz-adv-x="368" 
d="M28 776v82c144 0 238 -110 238 -238v-560c0 -129 -94 -239 -238 -239v83c89 0 147 71 147 156v560c0 84 -58 156 -147 156z" />
    <glyph glyph-name="three.004" horiz-adv-x="800" 
d="M259 281c0 -77 53 -130 142 -130c73 0 134 42 134 114c0 48 -28 82 -68 93c36 10 62 42 62 86c0 69 -59 106 -130 106c-88 0 -130 -53 -130 -118h71c0 38 18 63 61 63c34 0 57 -18 57 -52c0 -33 -17 -56 -61 -56h-34v-56h34c47 0 67 -25 67 -62c0 -33 -23 -60 -64 -60
s-69 27 -69 72h-72zM400 -17c-225 0 -362 177 -362 367s137 367 362 367s362 -177 362 -367s-137 -367 -362 -367z" />
    <glyph glyph-name="greater.case" 
d="M541 316l-507 -181v83l379 130l-379 129v82l507 -180v-63z" />
    <glyph glyph-name="notequal.case" 
d="M490 228h-223l-51 -112h-73l51 112h-108v77h142l40 84h-182v78h216l51 112h73l-51 -112h115v-78h-149l-40 -84h189v-77z" />
    <glyph glyph-name="plus.case" 
d="M331 149h-87v160h-156v78h156v161h87v-161h156v-78h-156v-160z" />
    <glyph glyph-name="minus.case" 
d="M490 310h-404v78h404v-78z" />
    <glyph glyph-name="five.004" horiz-adv-x="800" 
d="M400 -17c-225 0 -362 177 -362 367s137 367 362 367s362 -177 362 -367s-137 -367 -362 -367zM269 320h67c13 27 33 41 64 41c45 0 72 -34 72 -75s-28 -76 -72 -76s-71 35 -71 75h-70c0 -72 54 -134 141 -134c88 0 142 62 142 135c0 67 -43 130 -125 130
c-32 0 -67 -13 -83 -40v110h182v57h-247v-223z" />
    <glyph glyph-name="at.case" horiz-adv-x="854" 
d="M551 144c-25 -48 -81 -79 -138 -79c-120 0 -202 95 -202 205c0 111 82 206 202 206c57 0 113 -31 138 -79v69h73v-282c0 -62 22 -94 62 -94c46 0 80 52 80 232c0 181 -125 289 -320 289c-186 0 -346 -130 -346 -341c0 -171 120 -338 361 -338c56 0 130 10 202 49l27 -57
c-82 -46 -166 -58 -229 -58c-290 0 -435 199 -435 404c0 252 195 408 420 408c241 0 394 -132 394 -356c0 -211 -57 -298 -167 -298c-68 0 -108 45 -122 102v18zM416 131c82 0 135 64 135 139c0 76 -53 140 -135 140c-79 0 -131 -64 -131 -140c0 -75 52 -139 131 -139z" />
    <glyph glyph-name="less.case" 
d="M541 135l-507 181v63l507 180v-82l-379 -129l379 -130v-83z" />
    <glyph glyph-name="multiply.case.copy_1" 
d="M284 407l115 116l62 -61l-116 -116l113 -113l-56 -54l-112 112l-115 -115l-61 61l114 115l-111 112l55 55z" />
    <glyph glyph-name="guilsinglleft.case" horiz-adv-x="276" 
d="M236 247v-86l-196 167v53l196 167v-85l-126 -108z" />
    <glyph glyph-name="braceleft.case" horiz-adv-x="420" 
d="M297 858h66v-67h-46c-50 0 -70 -40 -70 -86v-261c0 -79 -62 -105 -94 -111c32 -7 94 -30 94 -121v-230c0 -45 20 -86 70 -86h46v-66h-66c-65 0 -137 45 -137 139v232c0 69 -60 95 -92 95v72c32 0 92 25 92 88v263c0 94 72 139 137 139z" />
    <glyph glyph-name="emdash.case" horiz-adv-x="1006" 
d="M956 310h-906v77h906v-77z" />
    <glyph glyph-name="four.004" horiz-adv-x="800" 
d="M410 156h72v115h52v61h-52v112h-72v-112h-81v209h-71v-270h152v-115zM400 -17c-225 0 -362 177 -362 367s137 367 362 367s362 -177 362 -367s-137 -367 -362 -367z" />
    <glyph glyph-name="logicalnot.case" 
d="M403 219v149h-317v78h404v-227h-87z" />
    <glyph glyph-name="divide.case" 
d="M490 260h-404v77h404v-77zM218 456c0 40 31 71 70 71s70 -31 70 -71c0 -38 -31 -69 -70 -69s-70 31 -70 69zM218 148c0 34 31 71 70 71s70 -37 70 -71c0 -38 -31 -69 -70 -69s-70 31 -70 69z" />
    <glyph glyph-name="colon.case" horiz-adv-x="255" 
d="M58 462c0 39 31 71 69 71c39 0 71 -32 71 -71c0 -38 -32 -69 -71 -69c-38 0 -69 31 -69 69zM58 128c0 39 31 70 69 70c39 0 71 -31 71 -70s-32 -70 -71 -70c-38 0 -69 31 -69 70z" />
    <glyph glyph-name="brokenbar.case" horiz-adv-x="243" 
d="M160 399h-76v466h76v-466zM84 302h76v-465h-76v465z" />
    <glyph glyph-name="equal.case" 
d="M490 389h-404v78h404v-78zM490 228h-404v77h404v-77z" />
    <glyph glyph-name="nine.004" horiz-adv-x="800" 
d="M400 -17c-225 0 -362 177 -362 367s137 367 362 367s362 -177 362 -367s-137 -367 -362 -367zM402 549c-88 0 -141 -62 -141 -135s51 -131 134 -134c4 0 10 1 14 4l-83 -127h80l114 180c15 22 23 48 23 77c0 73 -54 135 -141 135zM402 489c44 0 72 -34 72 -75
s-28 -76 -72 -76c-43 0 -71 35 -71 76s28 75 71 75zM410 285l-1 -1z" />
    <glyph glyph-name="two.004" horiz-adv-x="800" 
d="M269 158h261v59h-179c0 44 18 63 78 96c41 22 101 56 101 124c0 76 -56 113 -127 113c-83 0 -133 -52 -133 -122h71c0 44 26 67 62 67c34 0 57 -19 57 -53c0 -45 -37 -64 -84 -88c-66 -35 -107 -72 -107 -196zM400 -17c-225 0 -362 177 -362 367s137 367 362 367
s362 -177 362 -367s-137 -367 -362 -367z" />
    <glyph glyph-name="bracketleft.case" horiz-adv-x="335" 
d="M275 -170h-197v1029h197v-78h-110v-874h110v-77z" />
    <glyph glyph-name="guillemotright.case" horiz-adv-x="472" 
d="M40 161v86l126 108l-126 108v85l196 -167v-53zM236 161v86l126 108l-126 108v85l196 -167v-53z" />
    <glyph glyph-name="braceright.case" horiz-adv-x="420" 
d="M58 858h66c65 0 137 -45 137 -139v-263c0 -63 60 -88 92 -88v-72c-32 0 -92 -26 -92 -95v-232c0 -94 -72 -139 -137 -139h-66v66h45c50 0 70 41 70 86v230c0 91 62 114 94 121c-32 6 -94 32 -94 111v261c0 46 -20 86 -70 86h-45v67z" />
    <glyph glyph-name="guilsinglright.case" horiz-adv-x="276" 
d="M40 161v86l126 108l-126 108v85l196 -167v-53z" />
    <glyph glyph-name="hyphen.case" horiz-adv-x="294" 
d="M264 387v-77h-234v77h234z" />
    <glyph glyph-name="bar.case" horiz-adv-x="243" 
d="M160 -163h-75v1028h75v-1028z" />
    <glyph glyph-name="approxequal.case" 
d="M65 219v77l1 1v71c32 40 74 54 107 54c36 0 77 -15 118 -32c39 -16 80 -36 108 -36c45 0 83 29 110 55v-76l-1 -1v-71c-32 -40 -74 -57 -110 -57s-71 15 -110 35c-35 17 -75 33 -119 33c-38 0 -76 -25 -104 -53z" />
    <glyph glyph-name="exclamdown.case" horiz-adv-x="296" 
d="M102 0v488h95v-488h-95zM79 643c0 40 32 71 70 71c39 0 71 -31 71 -71c0 -38 -32 -70 -71 -70c-38 0 -70 32 -70 70z" />
    <glyph glyph-name="questiondown.case" horiz-adv-x="504" 
d="M322 512c-1 -94 -22 -144 -88 -190c-39 -28 -99 -67 -99 -141c0 -73 49 -111 125 -111c74 0 130 49 130 137h91c0 -137 -99 -219 -221 -219c-124 0 -216 74 -216 193c0 98 69 148 109 177c64 49 81 67 81 154h88zM350 641c0 -40 -31 -73 -72 -73s-74 33 -74 73
s33 73 74 73s72 -33 72 -73z" />
    </font>
</defs>
</svg>
