<svg xmlns="http://www.w3.org/2000/svg">
<defs>
<font id="GTWalsheimBold" horiz-adv-x="613" >
  <font-face 
    font-family="GT Walsheim Bold"
    font-weight="700"
    font-stretch="normal"
    units-per-em="1000"
    panose-1="2 0 5 3 4 0 0 2 0 3"
    ascent="750"
    descent="-250"
    x-height="482"
    cap-height="700"
    bbox="-150 -321 1242 1002"
    underline-thickness="50"
    underline-position="-100"
    stemh="130"
    stemv="153"
    unicode-range="U+0020-FB04"
  />
<missing-glyph horiz-adv-x="800" 
d="M400 717c225 0 362 -177 362 -367s-137 -367 -362 -367s-362 177 -362 367s137 367 362 367zM400 695c-52 0 -99 -10 -143 -29c-40 -18 -76 -44 -106 -76c-29 -32 -52 -69 -67 -110c-16 -42 -24 -85 -24 -130s8 -88 24 -129c15 -42 38 -79 67 -110c30 -33 66 -59 106 -76
c44 -19 91 -29 143 -29c51 0 99 10 142 29c40 17 76 43 106 76c29 31 52 68 67 110c16 41 24 84 24 129s-8 88 -24 130c-15 41 -38 78 -67 110c-30 32 -66 58 -106 76c-43 19 -91 29 -142 29zM201 500c0 24 19 43 42 43c24 0 43 -19 43 -43c0 -23 -19 -43 -43 -43
c-23 0 -42 20 -42 43zM498 500c0 24 19 43 42 43c24 0 43 -19 43 -43c0 -23 -19 -43 -43 -43c-23 0 -42 20 -42 43zM466 259h-247l179 268l-110 -243h178v-25zM148 207h-16c0 6 1 13 2 20c2 7 4 14 9 20c2 3 5 5 9 8l11 7c7 4 16 7 24 10c0 0 1 0 1 1c3 1 6 4 9 8
c2 3 4 7 4 10c0 6 -1 12 -2 18l-3 20l17 2c0 -7 1 -13 2 -20c1 -6 2 -13 2 -20s-3 -14 -7 -20c-4 -5 -9 -10 -14 -13c-1 0 -3 -1 -4 -1c-7 -3 -15 -6 -21 -10c-4 -1 -7 -3 -10 -5c-2 -2 -4 -4 -6 -5c-2 -3 -4 -8 -5 -13c-1 -6 -2 -12 -2 -17zM616 157l-16 4c2 7 2 13 2 18
c-1 6 -2 10 -4 13c-1 3 -2 4 -3 5c-1 0 -2 1 -3 2c-1 0 -3 1 -4 2l-14 5c-10 5 -22 10 -33 19c-7 5 -13 12 -18 20l-4 11c-1 5 -3 9 -3 14c-2 10 -4 21 -4 31c1 7 1 14 3 19l15 -5c0 -2 -1 -6 -1 -10v-13c1 -9 2 -19 4 -27c2 -5 3 -10 5 -12c4 -8 11 -14 19 -20
c8 -5 18 -9 26 -13l15 -6c3 -1 5 -3 7 -5c3 -2 6 -5 7 -9c3 -6 5 -12 6 -19c0 -8 0 -16 -2 -24zM168 228c67 -40 113 -71 188 -71c55 0 158 5 220 37c1 0 2 1 3 2c-17 -37 -59 -74 -107 -99c-37 -20 -72 -31 -106 -31c-65 0 -129 46 -198 162zM230 169

<glyph glyph-name="fi" unicode="fi" horiz-adv-x="698" 
d="M443 641c0 53 42 95 95 95c54 0 96 -42 96 -95c0 -52 -42 -94 -96 -94c-53 0 -95 42 -95 94zM367 698v-110c-16 4 -29 6 -47 6c-33 0 -65 -5 -65 -61v-51h112v-114h-112v-368h-153v368h-86v114h86v42c0 175 106 187 182 187c37 0 66 -6 83 -13zM462 0v482h153v-482h-153z
" />
    <glyph glyph-name="fl" unicode="fl" horiz-adv-x="662" 
d="M444 0v700h153v-700h-153zM367 698v-110c-16 4 -29 6 -47 6c-33 0 -65 -5 -65 -61v-51h112v-114h-112v-368h-153v368h-86v114h86v42c0 175 106 187 182 187c37 0 66 -6 83 -13z" />
    <glyph glyph-name="IJ" unicode="IJ" horiz-adv-x="881" 
d="M67 0v700h164v-700h-164zM822 700v-459c0 -166 -96 -258 -257 -258c-169 0 -255 113 -255 259h162c0 -69 31 -120 93 -120s95 45 95 119v459h162z" />
    <glyph glyph-name="ij" unicode="ij" horiz-adv-x="561" 
d="M321 642c0 54 43 97 98 97c56 0 99 -43 99 -97c0 -53 -43 -97 -99 -97c-55 0 -98 44 -98 97zM43 642c0 54 43 97 98 97c56 0 99 -43 99 -97c0 -53 -43 -97 -99 -97c-55 0 -98 44 -98 97zM65 482h153v-482h-153v482zM496 482v-557c0 -126 -59 -155 -129 -155
c-39 0 -84 6 -103 12v114c18 -5 27 -6 39 -6c27 0 40 13 40 48v544h153z" />
    <glyph glyph-name="uniFB04" unicode="ffl" horiz-adv-x="1041" 
d="M826 0v700h153v-700h-153zM748 698v-110c-16 4 -29 6 -47 6c-33 0 -65 -5 -65 -61v-51h112v-114h-112v-368h-153v368h-86v114h86v42c0 175 106 187 182 187c37 0 66 -6 83 -13zM368 698v-110c-16 4 -29 6 -47 6c-34 0 -66 -5 -66 -61v-51h113v-114h-112v-368h-153v368
h-87v114h87v42c0 175 106 187 182 187c36 0 65 -6 83 -13z" />
    <glyph glyph-name="uniFB00" unicode="ff" horiz-adv-x="761" 
d="M748 698v-110c-16 4 -29 6 -47 6c-33 0 -65 -5 -65 -61v-51h112v-114h-112v-368h-153v368h-86v114h86v42c0 175 106 187 182 187c37 0 66 -6 83 -13zM368 698v-110c-16 4 -29 6 -47 6c-34 0 -66 -5 -66 -61v-51h113v-114h-112v-368h-153v368h-87v114h87v42
c0 175 106 187 182 187c36 0 65 -6 83 -13z" />
    <glyph glyph-name="uniFB03" unicode="ffi" horiz-adv-x="1080" 
d="M822 642c0 54 43 97 98 97s98 -43 98 -97c0 -53 -43 -97 -98 -97s-98 44 -98 97zM748 698v-110c-16 4 -29 6 -47 6c-33 0 -65 -5 -65 -61v-51h112v-114h-112v-368h-153v368h-86v114h86v42c0 175 106 187 182 187c37 0 66 -6 83 -13zM368 698v-110c-16 4 -29 6 -47 6
c-34 0 -66 -5 -66 -61v-51h113v-114h-112v-368h-153v368h-87v114h87v42c0 175 106 187 182 187c36 0 65 -6 83 -13zM844 0v482h153v-482h-153z" />
    <glyph glyph-name=".notdef" horiz-adv-x="800" 
d="M400 717c225 0 362 -177 362 -367s-137 -367 -362 -367s-362 177 -362 367s137 367 362 367zM400 695c-52 0 -99 -10 -143 -29c-40 -18 -76 -44 -106 -76c-29 -32 -52 -69 -67 -110c-16 -42 -24 -85 -24 -130s8 -88 24 -129c15 -42 38 -79 67 -110c30 -33 66 -59 106 -76
c44 -19 91 -29 143 -29c51 0 99 10 142 29c40 17 76 43 106 76c29 31 52 68 67 110c16 41 24 84 24 129s-8 88 -24 130c-15 41 -38 78 -67 110c-30 32 -66 58 -106 76c-43 19 -91 29 -142 29zM201 500c0 24 19 43 42 43c24 0 43 -19 43 -43c0 -23 -19 -43 -43 -43
c-23 0 -42 20 -42 43zM498 500c0 24 19 43 42 43c24 0 43 -19 43 -43c0 -23 -19 -43 -43 -43c-23 0 -42 20 -42 43zM466 259h-247l179 268l-110 -243h178v-25zM148 207h-16c0 6 1 13 2 20c2 7 4 14 9 20c2 3 5 5 9 8l11 7c7 4 16 7 24 10c0 0 1 0 1 1c3 1 6 4 9 8
c2 3 4 7 4 10c0 6 -1 12 -2 18l-3 20l17 2c0 -7 1 -13 2 -20c1 -6 2 -13 2 -20s-3 -14 -7 -20c-4 -5 -9 -10 -14 -13c-1 0 -3 -1 -4 -1c-7 -3 -15 -6 -21 -10c-4 -1 -7 -3 -10 -5c-2 -2 -4 -4 -6 -5c-2 -3 -4 -8 -5 -13c-1 -6 -2 -12 -2 -17zM616 157l-16 4c2 7 2 13 2 18
c-1 6 -2 10 -4 13c-1 3 -2 4 -3 5c-1 0 -2 1 -3 2c-1 0 -3 1 -4 2l-14 5c-10 5 -22 10 -33 19c-7 5 -13 12 -18 20l-4 11c-1 5 -3 9 -3 14c-2 10 -4 21 -4 31c1 7 1 14 3 19l15 -5c0 -2 -1 -6 -1 -10v-13c1 -9 2 -19 4 -27c2 -5 3 -10 5 -12c4 -8 11 -14 19 -20
c8 -5 18 -9 26 -13l15 -6c3 -1 5 -3 7 -5c3 -2 6 -5 7 -9c3 -6 5 -12 6 -19c0 -8 0 -16 -2 -24zM168 228c67 -40 113 -71 188 -71c55 0 158 5 220 37c1 0 2 1 3 2c-17 -37 -59 -74 -107 -99c-37 -20 -72 -31 -106 -31c-65 0 -129 46 -198 162zM230 169
c39 -59 110 -77 136 -77c68 0 151 56 161 63c-57 -11 -103 -23 -169 -23c-34 0 -98 8 -128 37z" />
    <glyph glyph-name="Eth" unicode="&#xd0;" horiz-adv-x="720" 
d="M67 700h257c230 0 364 -171 364 -350s-133 -350 -364 -350h-257v306h-102v89h102v305zM333 395v-89h-104v-166h87c131 0 207 102 207 210s-76 210 -207 210h-87v-165h104z" />
    <glyph glyph-name="eth" unicode="&#xf0;" horiz-adv-x="596" 
d="M297 -15c-166 0 -267 116 -267 254c0 130 90 241 237 251h6l-33 51l-97 -47l-35 76l85 41l-67 106h182l27 -45l83 40l35 -74l-72 -36l141 -218c27 -42 43 -92 43 -145c0 -138 -100 -254 -268 -254zM297 116c70 0 116 56 116 123c0 68 -46 123 -116 123
c-69 0 -114 -55 -114 -123c0 -67 45 -123 114 -123z" />
    <glyph glyph-name="Lslash" unicode="&#x141;" horiz-adv-x="456" 
d="M232 140h199v-140h-361v256l-43 -20v96l43 20v348h162v-273l137 62v-96l-137 -62v-191z" />
    <glyph glyph-name="lslash" unicode="&#x142;" horiz-adv-x="290" 
d="M66 0v281l-64 -33v94l64 33v325h164v-248l66 35v-96l-66 -34v-357h-164z" />
    <glyph glyph-name="Scaron" unicode="&#x160;" horiz-adv-x="606" 
d="M308 742l-195 165l77 83l119 -108l120 108l76 -83zM38 232h162c0 -76 46 -121 112 -121c52 0 92 33 92 82c0 56 -48 75 -109 98c-129 47 -237 88 -237 230c0 129 120 197 248 197c166 0 247 -104 247 -223h-162c0 62 -31 101 -87 101c-46 0 -85 -24 -85 -72
c0 -46 41 -71 100 -92c115 -40 246 -86 246 -226c0 -144 -109 -224 -263 -224c-150 0 -264 90 -264 250z" />
    <glyph glyph-name="scaron" unicode="&#x161;" horiz-adv-x="510" 
d="M256 526l-195 165l76 82l120 -108l120 109l76 -83zM318 284c85 -25 155 -48 155 -142c0 -114 -98 -155 -218 -155c-137 0 -222 63 -222 174h150c0 -51 32 -71 77 -71c37 0 63 13 63 45c0 37 -38 42 -129 72c-80 25 -149 48 -149 141c0 100 83 147 213 147
c140 0 208 -71 208 -163h-151c0 40 -21 63 -63 63c-31 0 -57 -14 -57 -43c0 -35 42 -41 123 -68z" />
    <glyph glyph-name="Yacute" unicode="&#xdd;" horiz-adv-x="641" 
d="M522 866l-276 -128l-48 105l276 128zM649 700l-347 -700h-179l129 263l-248 437h189l149 -275l128 275h179z" />
    <glyph glyph-name="yacute" unicode="&#xfd;" horiz-adv-x="615" 
d="M470 637l-276 -128l-49 106l276 128zM303 -231c-78 0 -135 15 -178 50c-38 31 -66 79 -66 144h153c3 -54 42 -84 93 -84c59 0 94 24 94 99v99c-27 -52 -81 -81 -154 -81c-64 0 -113 24 -139 58c-30 37 -37 80 -37 149v279h152v-247c0 -69 21 -117 85 -117
c63 0 93 48 93 122v242h153v-494c0 -76 -26 -133 -66 -167c-44 -36 -99 -52 -183 -52z" />
    <glyph glyph-name="Thorn" unicode="&#xde;" horiz-adv-x="539" 
d="M64 0v700h148v-115h44c168 0 260 -114 260 -240c0 -125 -92 -240 -260 -240h-44v-105h-148zM256 458h-44v-226h44c71 0 111 54 111 113s-40 113 -111 113z" />
    <glyph glyph-name="thorn" unicode="&#xfe;" horiz-adv-x="632" 
d="M335 118c69 0 115 56 115 123c0 66 -46 123 -115 123s-115 -57 -115 -123c0 -67 46 -123 115 -123zM220 -218h-153v918h153v-287c23 44 85 81 147 81c139 0 235 -109 235 -253s-96 -253 -235 -253c-62 0 -124 36 -147 80v-286z" />
    <glyph glyph-name="CR" horiz-adv-x="250" 
 />
    <glyph glyph-name="Zcaron" unicode="&#x17d;" horiz-adv-x="632" 
d="M325 742l-196 165l77 83l119 -108l120 108l76 -83zM45 564v136h572l-343 -564h332v-136h-589l342 564h-314z" />
    <glyph glyph-name="zcaron" unicode="&#x17e;" horiz-adv-x="480" 
d="M250 526l-195 165l77 82l119 -108l120 109l76 -83zM31 482h436l-212 -352h205v-130h-442l213 352h-200v130z" />
    <glyph glyph-name="onehalf" unicode="&#xbd;" horiz-adv-x="955" 
d="M166 0l400 754l105 -53l-399 -754zM62 558v72c78 0 96 24 96 70h91v-385h-108v243h-79zM573 0c0 127 41 167 101 203c54 31 84 47 84 80c0 26 -16 37 -36 37c-24 0 -41 -14 -41 -51h-107c0 64 44 125 147 125c73 0 141 -33 141 -117c0 -61 -51 -98 -98 -126
c-50 -30 -68 -41 -68 -68h164v-83h-287z" />
    <glyph glyph-name="onequarter" unicode="&#xbc;" horiz-adv-x="955" 
d="M161 0l399 754l106 -53l-400 -754zM56 558v72c78 0 96 24 96 70h92v-385h-109v243h-79zM733 0v100h-163v285h107v-197h56v100h107v-100h42v-88h-42v-100h-107z" />
    <glyph glyph-name="onesuperior" unicode="&#xb9;" horiz-adv-x="298" 
d="M46 558v72c77 0 95 24 95 70h92v-385h-108v243h-79z" />
    <glyph glyph-name="threequarters" unicode="&#xbe;" horiz-adv-x="955" 
d="M173 0l400 754l105 -53l-399 -754zM33 445h107c0 -37 17 -58 47 -58c28 0 41 22 41 45c0 29 -13 45 -47 45h-41v79h40c36 0 46 15 46 40c0 27 -15 39 -37 39c-32 0 -40 -20 -40 -51h-107c0 62 33 125 146 125c75 0 143 -31 143 -109c0 -43 -29 -77 -60 -86
c35 -11 64 -45 64 -93c0 -77 -69 -115 -144 -115c-113 0 -158 61 -158 139zM738 0v100h-163v285h107v-197h56v100h107v-100h42v-88h-42v-100h-107z" />
    <glyph glyph-name="threesuperior" unicode="&#xb3;" horiz-adv-x="404" 
d="M47 445h107c0 -37 17 -58 47 -58c28 0 42 22 42 45c0 29 -14 45 -48 45h-41v79h41c35 0 45 15 45 40c0 27 -15 39 -37 39c-32 0 -40 -20 -40 -51h-107c0 62 33 125 147 125c75 0 143 -31 143 -109c0 -43 -30 -77 -60 -86c34 -11 64 -45 64 -93c0 -77 -70 -115 -145 -115
c-113 0 -158 61 -158 139z" />
    <glyph glyph-name="twosuperior" unicode="&#xb2;" horiz-adv-x="397" 
d="M54 315c0 127 41 167 101 203c54 31 84 47 84 80c0 26 -16 37 -36 37c-24 0 -40 -14 -40 -51h-107c0 64 43 125 147 125c73 0 141 -33 141 -117c0 -61 -51 -98 -98 -126c-51 -30 -69 -41 -69 -68h164v-83h-287z" />
    <glyph glyph-name="brokenbar" unicode="&#xa6;" horiz-adv-x="287" 
d="M208 341h-128v434h128v-434zM80 217h128v-440h-128v440z" />
    <glyph glyph-name="minus" unicode="&#x2212;" 
d="M520 223h-427v123h427v-123z" />
    <glyph glyph-name="multiply" unicode="&#xd7;" 
d="M303 374l108 108l92 -92l-108 -108l106 -105l-87 -86l-105 104l-108 -107l-92 92l108 107l-105 105l86 87z" />
    <glyph glyph-name="space" unicode=" " horiz-adv-x="243" 
 />
    <glyph glyph-name="exclam" unicode="!" horiz-adv-x="338" 
d="M87 242v458h164v-458h-164zM65 87c0 56 45 102 103 102c59 0 105 -46 105 -102s-46 -103 -105 -103c-58 0 -103 47 -103 103z" />
    <glyph glyph-name="quotedbl" unicode="&#x22;" horiz-adv-x="418" 
d="M273 432l-33 154v125h129v-125l-33 -154h-63zM81 432l-32 154v125h128v-125l-32 -154h-64z" />
    <glyph glyph-name="numbersign" unicode="#" horiz-adv-x="590" 
d="M256 412l-17 -124h103l17 124h-103zM302 0l24 180h-102l-26 -180h-111l25 180h-86v108h101l17 124h-88v108h103l25 180h112l-25 -180h103l25 180h111l-25 -180h80v-108h-95l-17 -124h82v-108h-97l-25 -180h-111z" />
    <glyph glyph-name="dollar" unicode="$" horiz-adv-x="606" 
d="M373 822v-107c139 -17 206 -113 206 -220h-162c0 62 -31 101 -87 101c-46 0 -85 -24 -85 -72c0 -46 41 -71 100 -92c115 -40 246 -86 246 -226c0 -129 -88 -207 -218 -221v-107h-89v107c-128 15 -220 103 -220 247h162c0 -76 46 -121 112 -121c52 0 92 33 92 82
c0 56 -48 75 -109 98c-129 47 -237 88 -237 230c0 113 91 180 200 194v107h89z" />
    <glyph glyph-name="percent" unicode="%" horiz-adv-x="955" 
d="M219 0l399 754l106 -53l-400 -754zM227 306c-97 0 -155 64 -155 139v125c0 75 58 139 155 139c95 0 155 -64 155 -139v-125c0 -75 -60 -139 -155 -139zM275 445v125c0 28 -19 52 -48 52s-48 -24 -48 -52v-125c0 -28 19 -52 48 -52s48 24 48 52zM882 255v-125
c0 -75 -60 -139 -155 -139c-97 0 -155 64 -155 139v125c0 75 58 139 155 139c95 0 155 -64 155 -139zM679 130c0 -28 19 -52 48 -52s48 24 48 52v125c0 28 -19 52 -48 52s-48 -24 -48 -52v-125z" />
    <glyph glyph-name="ampersand" unicode="&#x26;" horiz-adv-x="633" 
d="M346 231v126h265v-126h-46c-2 -147 -100 -246 -267 -246c-127 0 -258 74 -258 216c0 83 52 134 115 163c-57 25 -104 73 -104 155c0 131 116 196 243 196c173 0 248 -105 248 -224h-162c0 61 -21 102 -88 102c-47 0 -81 -25 -81 -78c0 -49 23 -86 100 -86v-125
c-80 0 -109 -39 -109 -99c0 -46 37 -90 101 -90c54 0 102 42 103 116h-60z" />
    <glyph glyph-name="quotesingle" unicode="'" horiz-adv-x="224" 
d="M80 432l-32 154v125h128v-125l-32 -154h-64z" />
    <glyph glyph-name="parenleft" unicode="(" horiz-adv-x="399" 
d="M362 775v-138c-80 0 -129 -63 -129 -138v-454c0 -75 49 -138 129 -138v-138c-176 0 -286 126 -286 276v454c0 150 110 276 286 276z" />
    <glyph glyph-name="parenright" unicode=")" horiz-adv-x="399" 
d="M36 637v138c177 0 287 -126 287 -276v-454c0 -150 -110 -276 -287 -276v138c81 0 130 63 130 138v454c0 75 -49 138 -130 138z" />
    <glyph glyph-name="asterisk" unicode="*" horiz-adv-x="466" 
d="M153 339l-75 53l96 118l-134 35l28 83l131 -53l-11 142h91l-11 -142l130 53l28 -83l-134 -35l96 -118l-75 -53l-80 131z" />
    <glyph glyph-name="plus" unicode="+" 
d="M372 71h-131v152h-148v123h148v152h131v-152h148v-123h-148v-152z" />
    <glyph glyph-name="comma" unicode="," horiz-adv-x="309" 
d="M46 90c0 56 45 101 100 101c67 0 113 -52 113 -128c0 -153 -77 -207 -208 -208v62c43 0 71 11 91 26c19 16 28 36 30 56c-3 -3 -15 -8 -26 -8c-61 0 -100 45 -100 99z" />
    <glyph glyph-name="hyphen" unicode="-" horiz-adv-x="317" 
d="M285 358v-122h-253v122h253z" />
    <glyph glyph-name="period" unicode="." horiz-adv-x="302" 
d="M50 91c0 55 44 100 101 100s101 -45 101 -100s-44 -100 -101 -100s-101 45 -101 100z" />
    <glyph glyph-name="slash" unicode="/" horiz-adv-x="491" 
d="M8 -19l351 816l124 -53l-351 -816z" />
    <glyph glyph-name="zero" unicode="0" horiz-adv-x="616" 
d="M41 235v230c0 135 103 250 266 250s268 -115 268 -250v-230c0 -135 -105 -250 -268 -250s-266 115 -266 250zM413 235v230c0 61 -41 113 -106 113c-64 0 -104 -52 -104 -113v-230c0 -61 40 -113 104 -113c65 0 106 52 106 113z" />
    <glyph glyph-name="one" unicode="1" horiz-adv-x="405" 
d="M29 463v114c136 0 166 39 166 123h143v-700h-165v463h-144z" />
    <glyph glyph-name="two" unicode="2" horiz-adv-x="577" 
d="M45 0c0 227 77 295 185 362c82 49 147 82 147 152c0 56 -35 79 -80 79c-50 0 -89 -29 -89 -102h-161c0 127 90 224 249 224c129 0 240 -64 240 -212c0 -118 -114 -189 -183 -230c-96 -64 -122 -86 -122 -142h300v-131h-486z" />
    <glyph glyph-name="three" unicode="3" horiz-adv-x="601" 
d="M32 235h162c0 -76 43 -120 105 -120c60 0 93 44 93 92c0 58 -27 97 -103 97h-63v125h63c72 0 93 35 93 86c0 53 -33 78 -80 78c-69 0 -89 -41 -89 -102h-162c0 119 74 224 247 224c129 0 244 -65 244 -196c0 -79 -47 -136 -103 -155c63 -23 114 -80 114 -169
c0 -133 -119 -210 -252 -210c-173 0 -269 102 -269 250z" />
    <glyph glyph-name="four" unicode="4" horiz-adv-x="611" 
d="M337 0v193h-280v507h162v-370h118v193h161v-193h85v-137h-85v-193h-161z" />
    <glyph glyph-name="five" unicode="5" horiz-adv-x="635" 
d="M69 295v405h473v-126h-324v-156c27 43 90 64 142 64c155 0 229 -120 229 -242c0 -139 -101 -255 -269 -255c-166 0 -267 116 -267 253h157c0 -65 43 -119 110 -119c69 0 112 55 112 121c0 63 -42 119 -111 119c-48 0 -80 -22 -101 -64h-151z" />
    <glyph glyph-name="six" unicode="6" horiz-adv-x="600" 
d="M298 -14c-166 0 -267 116 -267 254c0 53 16 103 43 145l202 315h182l-140 -210c15 -2 29 -6 42 -11c128 -16 206 -119 206 -239c0 -138 -100 -254 -268 -254zM298 121c68 0 112 54 112 119c0 66 -44 119 -112 119c-67 0 -110 -53 -110 -119c0 -65 43 -119 110 -119z" />
    <glyph glyph-name="seven" unicode="7" horiz-adv-x="531" 
d="M35 700h503l-298 -700h-173l243 564h-275v136z" />
    <glyph glyph-name="eight" unicode="8" horiz-adv-x="616" 
d="M309 -15c-167 0 -264 97 -264 215c0 75 47 146 113 165c-60 23 -95 85 -95 149c0 110 90 201 246 201c155 0 245 -92 245 -201c0 -64 -35 -126 -95 -149c66 -21 112 -92 112 -166c0 -114 -95 -214 -262 -214zM309 419c57 0 91 41 91 87s-34 87 -91 87
c-59 0 -93 -40 -93 -87c0 -46 34 -87 93 -87zM309 107c66 0 106 46 106 96s-38 97 -106 97c-69 0 -107 -45 -107 -97c0 -51 40 -96 107 -96z" />
    <glyph glyph-name="nine" unicode="9" horiz-adv-x="600" 
d="M324 0h-182l140 209c-154 9 -248 114 -248 251c0 138 100 254 268 254c166 0 267 -116 267 -254c0 -54 -17 -104 -43 -145zM302 579c-68 0 -112 -54 -112 -119c0 -66 44 -119 112 -119c67 0 110 53 110 119c0 65 -43 119 -110 119z" />
    <glyph glyph-name="colon" unicode=":" horiz-adv-x="303" 
d="M50 412c0 55 44 100 101 100s101 -45 101 -100s-44 -100 -101 -100s-101 45 -101 100zM50 91c0 55 45 100 101 100c57 0 102 -45 102 -100s-45 -100 -102 -100c-56 0 -101 45 -101 100z" />
    <glyph glyph-name="semicolon" unicode=";" horiz-adv-x="309" 
d="M50 412c0 55 44 100 101 100s101 -45 101 -100s-44 -100 -101 -100s-101 45 -101 100zM50 90c0 56 44 101 99 101c68 0 114 -52 114 -128c0 -153 -78 -207 -208 -208v62c42 0 71 11 91 26c18 16 27 36 30 56c-3 -3 -15 -8 -27 -8c-61 0 -99 45 -99 99z" />
    <glyph glyph-name="less" unicode="&#x3c;" 
d="M566 46l-525 178v120l525 177v-138l-324 -99l324 -99v-139z" />
    <glyph glyph-name="equal" unicode="=" 
d="M520 313h-427v122h427v-122zM520 132h-427v122h427v-122z" />
    <glyph glyph-name="greater" unicode="&#x3e;" 
d="M572 224l-524 -178v139l323 99l-323 99v138l524 -177v-120z" />
    <glyph glyph-name="question" unicode="?" horiz-adv-x="542" 
d="M176 218c1 86 17 136 88 184c38 26 85 59 85 115c0 52 -36 76 -84 76c-47 0 -86 -29 -86 -102h-160c0 127 88 224 246 224c128 0 242 -68 242 -198c0 -101 -71 -148 -107 -177c-50 -41 -64 -58 -64 -122h-160zM152 87c0 56 45 102 104 102c58 0 104 -46 104 -102
s-46 -103 -104 -103c-59 0 -104 47 -104 103z" />
    <glyph glyph-name="at" unicode="@" horiz-adv-x="871" 
d="M470 -194c-295 0 -450 202 -450 418c0 259 201 419 433 419c241 0 415 -137 415 -364c0 -214 -80 -294 -198 -294c-77 0 -128 45 -148 103c-19 -35 -70 -66 -120 -66c-114 0 -195 89 -195 202c0 114 84 203 195 203c50 0 101 -30 120 -65v56h116v-236
c0 -68 16 -95 52 -95c34 0 63 41 63 195c0 159 -123 257 -300 257c-175 0 -318 -116 -318 -315c0 -160 109 -315 335 -315c52 0 131 10 201 47l43 -89c-85 -48 -180 -61 -244 -61zM424 121c59 0 99 47 99 103c0 57 -40 104 -99 104c-57 0 -95 -47 -95 -104
c0 -56 38 -103 95 -103z" />
    <glyph glyph-name="A" unicode="A" horiz-adv-x="660" 
d="M413 212l-84 288l-86 -288h170zM656 0h-176l-27 85h-249l-27 -85h-173l250 700h149z" />
    <glyph glyph-name="B" unicode="B" horiz-adv-x="633" 
d="M63 0v700h290c192 0 227 -116 227 -189c0 -87 -66 -143 -122 -156c45 -1 128 -54 128 -159c0 -73 -38 -196 -230 -196h-293zM224 415h97c79 0 97 49 97 84c0 31 -15 82 -97 82h-97v-166zM326 296h-102v-172h101c79 0 97 47 97 86c0 32 -18 86 -96 86z" />
    <glyph glyph-name="C" unicode="C" horiz-adv-x="788" 
d="M585 251h172c-27 -149 -156 -269 -349 -269c-236 0 -376 172 -376 369c0 191 138 367 367 367c217 0 337 -130 357 -290h-169c-15 82 -78 144 -178 144c-137 0 -212 -106 -212 -221c0 -123 80 -223 220 -223c79 0 149 53 168 123z" />
    <glyph glyph-name="D" unicode="D" horiz-adv-x="720" 
d="M67 700h257c232 0 364 -171 364 -350s-131 -350 -364 -350h-257v700zM316 560h-87v-420h87c131 0 207 102 207 210s-76 210 -207 210z" />
    <glyph glyph-name="E" unicode="E" horiz-adv-x="555" 
d="M494 570h-265v-159h265v-127h-265v-154h265v-130h-427v700h427v-130z" />
    <glyph glyph-name="F" unicode="F" horiz-adv-x="550" 
d="M494 564h-265v-189h265v-133h-265v-242h-162v700h427v-136z" />
    <glyph glyph-name="G" unicode="G" horiz-adv-x="835" 
d="M455 249v121h363v-121h-72c-28 -159 -147 -267 -347 -267c-235 0 -367 172 -367 368c0 191 138 368 367 368c184 0 311 -112 323 -245h-173c-10 55 -66 105 -151 105c-132 0 -200 -111 -200 -229c0 -124 69 -230 214 -230c98 0 156 60 167 130h-124z" />
    <glyph glyph-name="H" unicode="H" horiz-adv-x="699" 
d="M471 0v278h-242v-278h-162v700h162v-283h242v283h161v-700h-161z" />
    <glyph glyph-name="I" unicode="I" horiz-adv-x="298" 
d="M67 0v700h164v-700h-164z" />
    <glyph glyph-name="J" unicode="J" horiz-adv-x="583" 
d="M523 700v-459c0 -166 -96 -258 -256 -258c-169 0 -255 113 -255 259h162c0 -69 31 -120 93 -120s95 45 95 119v459h161z" />
    <glyph glyph-name="K" unicode="K" horiz-adv-x="659" 
d="M455 0l-226 296v-296h-162v700h162v-297l226 297h195l-277 -350l277 -350h-195z" />
    <glyph glyph-name="L" unicode="L" horiz-adv-x="453" 
d="M229 140h199v-140h-361v700h162v-560z" />
    <glyph glyph-name="M" unicode="M" horiz-adv-x="877" 
d="M810 700v-700h-158v434l-151 -434h-120l-156 434v-434h-158v700h187l187 -487l185 487h184z" />
    <glyph glyph-name="N" unicode="N" horiz-adv-x="717" 
d="M236 700l253 -456v456h161v-700h-169l-252 450v-450h-162v700h169z" />
    <glyph glyph-name="O" unicode="O" horiz-adv-x="805" 
d="M403 -18c-233 0 -371 176 -371 368s138 368 371 368c232 0 370 -176 370 -368s-138 -368 -370 -368zM403 128c127 0 205 107 205 222s-78 222 -205 222c-128 0 -205 -107 -205 -222s77 -222 205 -222z" />
    <glyph glyph-name="P" unicode="P" horiz-adv-x="635" 
d="M67 0v700h293c155 0 255 -117 255 -253s-100 -253 -255 -253h-131v-194h-162zM340 326c68 0 112 56 112 121s-44 121 -112 121h-111v-242h111z" />
    <glyph glyph-name="Q" unicode="Q" horiz-adv-x="805" 
d="M773 350c0 -140 -75 -272 -205 -329l60 -81l-142 -72l-84 114c-233 1 -370 176 -370 368s138 368 371 368c232 0 370 -176 370 -368zM403 128c127 0 205 107 205 222s-78 222 -205 222c-128 0 -205 -107 -205 -222s77 -222 205 -222z" />
    <glyph glyph-name="R" unicode="R" horiz-adv-x="654" 
d="M340 326c68 0 112 56 112 121s-44 121 -112 121h-111v-242h111zM67 0v700h294c155 0 255 -117 255 -253c0 -98 -52 -185 -139 -226l140 -221h-188l-124 194h-76v-194h-162z" />
    <glyph glyph-name="S" unicode="S" horiz-adv-x="606" 
d="M38 232h162c0 -76 46 -121 112 -121c52 0 92 33 92 82c0 56 -48 75 -109 98c-129 47 -237 88 -237 230c0 129 118 197 246 197c166 0 249 -104 249 -223h-162c0 62 -31 101 -87 101c-46 0 -85 -24 -85 -72c0 -46 41 -71 100 -92c115 -40 246 -86 246 -226
c0 -144 -109 -224 -263 -224c-150 0 -264 90 -264 250z" />
    <glyph glyph-name="T" unicode="T" horiz-adv-x="509" 
d="M173 0v560h-158v140h479v-140h-159v-560h-162z" />
    <glyph glyph-name="U" unicode="U" horiz-adv-x="657" 
d="M56 239v461h162v-460c0 -64 44 -118 110 -118s111 54 111 118v460h162v-461c0 -144 -105 -257 -273 -257c-167 0 -272 113 -272 257z" />
    <glyph glyph-name="V" unicode="V" horiz-adv-x="644" 
d="M648 700l-253 -700h-149l-250 700h173l152 -494l151 494h176z" />
    <glyph glyph-name="W" unicode="W" horiz-adv-x="1035" 
d="M657 0l-139 440l-139 -440h-133l-247 700h171l143 -459l142 459h125l143 -459l142 459h171l-247 -700h-132z" />
    <glyph glyph-name="X" unicode="X" horiz-adv-x="609" 
d="M304 474l122 226h179l-208 -350l208 -350h-179l-122 225l-122 -225h-178l208 350l-208 350h178z" />
    <glyph glyph-name="Y" unicode="Y" horiz-adv-x="647" 
d="M649 700l-347 -700h-179l129 263l-248 437h189l149 -275l128 275h179z" />
    <glyph glyph-name="Z" unicode="Z" horiz-adv-x="632" 
d="M45 564v136h572l-343 -564h332v-136h-589l342 564h-314z" />
    <glyph glyph-name="bracketleft" unicode="[" horiz-adv-x="385" 
d="M325 -223h-258v998h258v-133h-105v-733h105v-132z" />
    <glyph glyph-name="backslash" unicode="\" horiz-adv-x="491" 
d="M132 797l351 -816l-124 -53l-351 816z" />
    <glyph glyph-name="bracketright" unicode="]" horiz-adv-x="385" 
d="M318 -223h-258v132h105v732h-105v134h258v-998z" />
    <glyph glyph-name="asciicircum" unicode="^" horiz-adv-x="636" 
d="M594 300h-149l-127 271l-130 -271h-146l232 450h87z" />
    <glyph glyph-name="underscore" unicode="_" horiz-adv-x="583" 
d="M562 -132h-540v92h540v-92z" />
    <glyph glyph-name="grave" unicode="`" horiz-adv-x="513" 
d="M359 503l-276 128l48 106l276 -128z" />
    <glyph glyph-name="a" unicode="a" horiz-adv-x="635" 
d="M302 118c69 0 115 56 115 123c0 66 -46 123 -115 123s-115 -57 -115 -123c0 -67 46 -123 115 -123zM417 482h153v-482h-153v68c-23 -44 -85 -80 -147 -80c-139 0 -235 109 -235 253s96 253 235 253c62 0 124 -37 147 -81v69z" />
    <glyph glyph-name="b" unicode="b" horiz-adv-x="637" 
d="M218 68v-68h-153v700h153v-287c23 44 85 81 148 81c139 0 235 -109 235 -253s-96 -253 -235 -253c-63 0 -125 36 -148 80zM334 118c68 0 114 56 114 123c0 66 -46 123 -114 123c-70 0 -116 -57 -116 -123c0 -67 46 -123 116 -123z" />
    <glyph glyph-name="c" unicode="c" horiz-adv-x="575" 
d="M541 293h-153c-6 43 -33 72 -95 72c-73 0 -107 -58 -107 -124c0 -67 33 -124 113 -124c53 0 77 23 90 64h153c-15 -109 -97 -194 -250 -194c-169 0 -259 120 -259 254c0 133 90 254 259 254c163 0 239 -98 249 -202z" />
    <glyph glyph-name="d" unicode="d" horiz-adv-x="635" 
d="M302 118c69 0 115 56 115 123c0 66 -46 123 -115 123s-115 -57 -115 -123c0 -67 46 -123 115 -123zM417 0v68c-23 -44 -85 -80 -147 -80c-139 0 -235 109 -235 253s96 253 235 253c62 0 124 -37 147 -81v287h153v-700h-153z" />
    <glyph glyph-name="e" unicode="e" horiz-adv-x="577" 
d="M533 204h-347c3 -58 27 -107 107 -107c53 0 79 24 89 55h150c-14 -91 -100 -165 -238 -165c-169 0 -260 105 -260 254c0 141 89 254 256 254c151 0 248 -102 248 -220c0 -20 0 -42 -5 -71zM289 393c-60 0 -103 -36 -103 -101h202c0 62 -41 101 -99 101z" />
    <glyph glyph-name="f" unicode="f" horiz-adv-x="380" 
d="M368 698v-110c-16 4 -29 6 -47 6c-34 0 -66 -5 -66 -61v-51h113v-114h-112v-368h-153v368h-87v114h87v42c0 175 106 187 182 187c36 0 65 -6 83 -13z" />
    <glyph glyph-name="g" unicode="g" horiz-adv-x="633" 
d="M302 364c-68 0 -114 -57 -114 -123c0 -67 46 -123 114 -123c70 0 116 56 116 123c0 66 -46 123 -116 123zM571 482v-479c0 -87 -26 -144 -76 -182c-45 -34 -106 -52 -195 -52c-90 0 -149 22 -189 56c-42 36 -68 85 -70 138h153c4 -41 40 -81 106 -81c72 0 118 34 118 109
v81c-26 -44 -85 -75 -147 -75c-139 0 -236 101 -236 244c0 144 93 253 234 253c61 0 122 -30 149 -81v69h153z" />
    <glyph glyph-name="h" unicode="h" horiz-adv-x="597" 
d="M65 0v700h148v-288c27 50 82 82 156 82c62 0 105 -21 131 -55c30 -37 39 -85 39 -154v-285h-148v247c0 69 -21 117 -85 117c-62 0 -93 -48 -93 -122v-242h-148z" />
    <glyph glyph-name="i" unicode="i" horiz-adv-x="283" 
d="M43 642c0 54 43 97 98 97c56 0 99 -43 99 -97c0 -53 -43 -97 -99 -97c-55 0 -98 44 -98 97zM65 0v482h153v-482h-153z" />
    <glyph glyph-name="j" unicode="j" horiz-adv-x="283" 
d="M43 642c0 54 43 97 98 97c56 0 99 -43 99 -97c0 -53 -43 -97 -99 -97c-55 0 -98 44 -98 97zM218 482v-557c0 -126 -62 -155 -136 -155c-36 0 -78 6 -96 12v117c18 -3 27 -3 39 -3c27 0 40 17 40 49v537h153z" />
    <glyph glyph-name="k" unicode="k" horiz-adv-x="554" 
d="M549 482l-188 -241l187 -241h-182l-148 202v-202h-153v700h153v-422l149 204h182z" />
    <glyph glyph-name="l" unicode="l" horiz-adv-x="283" 
d="M65 0v700h153v-700h-153z" />
    <glyph glyph-name="m" unicode="m" horiz-adv-x="878" 
d="M818 0h-147v260c0 65 -22 104 -74 104c-46 0 -81 -29 -81 -122v-242h-148v261c0 65 -21 103 -72 103c-47 0 -83 -30 -83 -125v-239h-148v482h148v-70c21 45 72 82 139 82c84 0 126 -38 146 -87c25 50 80 87 151 87c140 0 169 -95 169 -197v-297z" />
    <glyph glyph-name="n" unicode="n" horiz-adv-x="607" 
d="M65 0v482h153v-70c27 52 83 82 158 82c62 0 109 -21 135 -55c30 -37 38 -84 38 -153v-286h-153v247c0 69 -21 117 -85 117c-62 0 -93 -48 -93 -122v-242h-153z" />
    <glyph glyph-name="o" unicode="o" horiz-adv-x="599" 
d="M299 -13c-166 0 -267 116 -267 254s101 254 267 254c168 0 268 -116 268 -254s-100 -254 -268 -254zM299 118c70 0 116 55 116 123c0 67 -46 123 -116 123c-69 0 -114 -56 -114 -123c0 -68 45 -123 114 -123z" />
    <glyph glyph-name="p" unicode="p" horiz-adv-x="637" 
d="M334 364c-70 0 -116 -56 -116 -123s46 -123 116 -123c68 0 114 56 114 123s-46 123 -114 123zM218 482v-69c23 44 85 81 148 81c139 0 235 -109 235 -253s-96 -253 -235 -253c-63 0 -125 37 -148 81v-287h-153v700h153z" />
    <glyph glyph-name="q" unicode="q" horiz-adv-x="637" 
d="M419 413v69h152v-700h-152v287c-24 -44 -86 -81 -148 -81c-139 0 -235 109 -235 253s96 253 235 253c62 0 124 -37 148 -81zM303 364c-68 0 -114 -56 -114 -123s46 -123 114 -123c70 0 116 56 116 123s-46 123 -116 123z" />
    <glyph glyph-name="r" unicode="r" horiz-adv-x="417" 
d="M411 482v-139c-21 5 -33 7 -54 7c-84 0 -139 -44 -139 -162v-188h-153v482h153v-78c22 45 80 86 147 86c19 0 32 -2 46 -8z" />
    <glyph glyph-name="s" unicode="s" horiz-adv-x="510" 
d="M318 284c85 -25 155 -48 155 -142c0 -114 -98 -155 -218 -155c-137 0 -222 63 -222 174h150c0 -51 32 -71 77 -71c37 0 63 13 63 45c0 37 -38 42 -129 72c-80 25 -149 48 -149 141c0 100 83 147 213 147c140 0 208 -71 208 -163h-151c0 40 -21 63 -63 63
c-31 0 -57 -14 -57 -43c0 -35 42 -41 123 -68z" />
    <glyph glyph-name="t" unicode="t" horiz-adv-x="383" 
d="M366 117v-117c-23 -4 -57 -8 -102 -8c-72 0 -171 9 -171 170v206h-76v114h76v143h152v-143h110v-114h-110v-172c0 -71 28 -82 66 -82c19 0 41 1 55 3z" />
    <glyph glyph-name="u" unicode="u" horiz-adv-x="607" 
d="M389 482h153v-482h-153v69c-27 -51 -83 -81 -158 -81c-62 0 -109 21 -135 55c-30 37 -37 84 -37 153v286h152v-247c0 -69 21 -117 85 -117c63 0 93 48 93 122v242z" />
    <glyph glyph-name="v" unicode="v" horiz-adv-x="551" 
d="M-2 482h160l117 -303l118 303h160l-218 -482h-122z" />
    <glyph glyph-name="w" unicode="w" horiz-adv-x="803" 
d="M500 0l-98 307l-99 -307h-124l-180 482h158l89 -287l85 287h141l85 -287l89 287h158l-180 -482h-124z" />
    <glyph glyph-name="x" unicode="x" horiz-adv-x="514" 
d="M348 243l165 -243h-177l-79 140l-79 -140h-177l166 243l-163 239h177l76 -136l76 136h177z" />
    <glyph glyph-name="y" unicode="y" horiz-adv-x="615" 
d="M303 -231c-78 0 -135 15 -178 50c-38 32 -66 79 -66 144h153c3 -54 42 -84 93 -84c59 0 94 24 94 99v99c-27 -52 -81 -81 -154 -81c-64 0 -113 24 -139 58c-30 37 -37 80 -37 149v279h152v-247c0 -69 21 -117 85 -117c63 0 93 48 93 122v242h153v-494
c0 -75 -26 -133 -67 -167c-43 -36 -98 -52 -182 -52z" />
    <glyph glyph-name="z" unicode="z" horiz-adv-x="480" 
d="M31 482h436l-212 -352h205v-130h-442l213 352h-200v130z" />
    <glyph glyph-name="braceleft" unicode="{" horiz-adv-x="477" 
d="M309 775h101v-124h-42c-53 0 -68 -42 -68 -81v-188c0 -86 -69 -111 -99 -114c30 -4 99 -24 99 -120v-167c0 -38 15 -81 68 -81h42v-123h-101c-91 0 -162 55 -162 159v179c0 63 -50 85 -87 85v135c37 0 87 21 87 80v200c0 104 71 160 162 160z" />
    <glyph glyph-name="bar" unicode="|" horiz-adv-x="287" 
d="M208 -223h-127v998h127v-998z" />
    <glyph glyph-name="braceright" unicode="}" horiz-adv-x="477" 
d="M67 775h101c91 0 162 -56 162 -160v-200c0 -59 49 -80 87 -80v-135c-38 0 -87 -22 -87 -85v-179c0 -104 -71 -159 -162 -159h-101v123h41c54 0 68 43 68 81v167c0 96 69 116 99 120c-30 3 -99 28 -99 114v188c0 39 -14 81 -68 81h-41v124z" />
    <glyph glyph-name="asciitilde" unicode="~" horiz-adv-x="562" 
d="M35 193v120c37 44 85 59 122 59c40 0 85 -15 130 -32c43 -16 88 -36 119 -36c49 0 91 29 120 55v-120c-36 -44 -84 -59 -122 -59c-42 0 -80 15 -118 33s-82 35 -134 35c-45 0 -87 -29 -117 -55z" />
    <glyph glyph-name="Adieresis" unicode="&#xc4;" horiz-adv-x="660" 
d="M114 852c0 52 42 94 94 94c54 0 96 -42 96 -94c0 -51 -42 -93 -96 -93c-52 0 -94 42 -94 93zM355 852c0 52 41 94 94 94s95 -42 95 -94c0 -51 -42 -93 -95 -93s-94 42 -94 93zM329 500l-86 -288h170zM403 700l253 -700h-176l-27 85h-249l-27 -85h-173l250 700h149z" />
    <glyph glyph-name="Aring" unicode="&#xc5;" horiz-adv-x="660" 
d="M330 1002c74 0 134 -62 134 -135s-60 -134 -134 -134s-134 61 -134 134c0 75 60 135 134 135zM330 920c-29 0 -51 -24 -51 -53c0 -27 23 -50 51 -50s51 23 51 51s-22 52 -51 52zM329 500l-86 -288h170zM403 700l253 -700h-176l-27 85h-249l-27 -85h-173l250 700h149z" />
    <glyph glyph-name="Ccedilla" unicode="&#xc7;" horiz-adv-x="788" 
d="M756 428h-169c-15 82 -78 144 -178 144c-137 0 -212 -106 -212 -221c0 -123 80 -223 220 -223c79 0 149 53 168 123h172c-26 -141 -144 -256 -319 -267v-40c8 9 23 15 45 15c45 0 80 -36 80 -85c0 -50 -37 -98 -109 -98c-38 0 -101 19 -109 89h74c4 -16 17 -26 35 -26
c20 0 34 15 34 35c0 19 -14 34 -33 34c-14 0 -24 -7 -30 -17h-65v94c-207 21 -328 183 -328 366c0 191 138 367 367 367c217 0 337 -130 357 -290z" />
    <glyph glyph-name="Eacute" unicode="&#xc9;" horiz-adv-x="555" 
d="M442 868l-276 -128l-48 106l276 128zM494 570h-265v-159h265v-127h-265v-154h265v-130h-427v700h427v-130z" />
    <glyph glyph-name="Ntilde" unicode="&#xd1;" horiz-adv-x="717" 
d="M420 884c33 0 52 21 70 46l80 -70c-37 -59 -91 -83 -143 -83c-74 0 -111 47 -152 47c-33 0 -50 -19 -68 -46l-78 77c37 54 88 76 140 76c74 0 109 -47 151 -47zM236 700l253 -456v456h161v-700h-169l-252 450v-450h-162v700h169z" />
    <glyph glyph-name="Odieresis" unicode="&#xd6;" horiz-adv-x="805" 
d="M427 854c0 52 41 94 94 94s95 -42 95 -94c0 -51 -42 -93 -95 -93s-94 42 -94 93zM186 854c0 52 42 94 94 94c54 0 95 -42 95 -94c0 -51 -41 -93 -95 -93c-52 0 -94 42 -94 93zM403 -18c-233 0 -371 176 -371 368s138 368 371 368c232 0 370 -176 370 -368
s-138 -368 -370 -368zM198 350c0 -115 77 -222 205 -222c127 0 205 107 205 222s-78 222 -205 222c-128 0 -205 -107 -205 -222z" />
    <glyph glyph-name="Udieresis" unicode="&#xdc;" horiz-adv-x="657" 
d="M111 852c0 52 42 94 94 94c54 0 95 -42 95 -94c0 -51 -41 -93 -95 -93c-52 0 -94 42 -94 93zM352 852c0 52 41 94 94 94s95 -42 95 -94c0 -51 -42 -93 -95 -93s-94 42 -94 93zM56 239v461h162v-460c0 -64 44 -118 110 -118s111 54 111 118v460h162v-461
c0 -144 -105 -257 -273 -257c-167 0 -272 113 -272 257z" />
    <glyph glyph-name="aacute" unicode="&#xe1;" horiz-adv-x="635" 
d="M448 637l-276 -128l-49 106l276 128zM302 118c69 0 115 56 115 123c0 66 -46 123 -115 123s-115 -57 -115 -123c0 -67 46 -123 115 -123zM417 482h153v-482h-153v68c-23 -44 -85 -80 -147 -80c-139 0 -235 109 -235 253s96 253 235 253c62 0 124 -37 147 -81v69z" />
    <glyph glyph-name="agrave" unicode="&#xe0;" horiz-adv-x="635" 
d="M396 509l-276 128l48 106l276 -128zM302 118c69 0 115 56 115 123c0 66 -46 123 -115 123s-115 -57 -115 -123c0 -67 46 -123 115 -123zM417 482h153v-482h-153v68c-23 -44 -85 -80 -147 -80c-139 0 -235 109 -235 253s96 253 235 253c62 0 124 -37 147 -81v69z" />
    <glyph glyph-name="acircumflex" unicode="&#xe2;" horiz-adv-x="635" 
d="M118 617l195 164l197 -164l-76 -84l-120 107l-119 -106zM302 118c69 0 115 56 115 123c0 66 -46 123 -115 123s-115 -57 -115 -123c0 -67 46 -123 115 -123zM417 482h153v-482h-153v68c-23 -44 -85 -80 -147 -80c-139 0 -235 109 -235 253s96 253 235 253
c62 0 124 -37 147 -81v69z" />
    <glyph glyph-name="adieresis" unicode="&#xe4;" horiz-adv-x="635" 
d="M179 537c-52 0 -94 42 -94 93c0 52 42 94 94 94c54 0 95 -42 95 -94c0 -51 -41 -93 -95 -93zM420 537c-53 0 -94 42 -94 93c0 52 41 94 94 94s95 -42 95 -94c0 -51 -42 -93 -95 -93zM302 118c69 0 115 56 115 123c0 66 -46 123 -115 123s-115 -57 -115 -123
c0 -67 46 -123 115 -123zM570 0h-153v68c-23 -44 -85 -80 -147 -80c-139 0 -235 109 -235 253s96 253 235 253c62 0 124 -37 147 -81v69h153v-482z" />
    <glyph glyph-name="atilde" unicode="&#xe3;" horiz-adv-x="635" 
d="M397 680c33 0 52 20 69 46l81 -71c-37 -58 -91 -83 -143 -83c-74 0 -111 47 -152 47c-33 0 -50 -19 -69 -46l-78 77c38 54 88 76 141 76c74 0 109 -46 151 -46zM302 118c69 0 115 56 115 123c0 66 -46 123 -115 123s-115 -57 -115 -123c0 -67 46 -123 115 -123zM417 482
h153v-482h-153v68c-23 -44 -85 -80 -147 -80c-139 0 -235 109 -235 253s96 253 235 253c62 0 124 -37 147 -81v69z" />
    <glyph glyph-name="aring" unicode="&#xe5;" horiz-adv-x="635" 
d="M307 528c-76 0 -138 64 -138 138c0 77 62 138 138 138c77 0 138 -63 138 -138c0 -74 -61 -138 -138 -138zM307 726c-33 0 -58 -27 -58 -60c0 -31 26 -57 58 -57s58 26 58 59c0 31 -24 58 -58 58zM302 118c69 0 115 56 115 123c0 66 -46 123 -115 123s-115 -57 -115 -123
c0 -67 46 -123 115 -123zM417 482h153v-482h-153v68c-23 -44 -85 -80 -147 -80c-139 0 -235 109 -235 253s96 253 235 253c62 0 124 -37 147 -81v69z" />
    <glyph glyph-name="ccedilla" unicode="&#xe7;" horiz-adv-x="575" 
d="M237 -107v99c-134 23 -204 130 -204 249c0 133 90 254 259 254c163 0 239 -98 249 -202h-153c-6 43 -33 72 -95 72c-73 0 -107 -58 -107 -124c0 -67 33 -124 113 -124c53 0 77 23 90 64h153c-15 -104 -89 -185 -227 -193v-42c9 9 23 15 46 15c44 0 79 -36 79 -85
c0 -50 -36 -98 -109 -98c-37 0 -100 19 -108 89h74c4 -16 16 -26 34 -26c20 0 35 15 35 35c0 19 -15 34 -33 34c-15 0 -25 -7 -31 -17h-65z" />
    <glyph glyph-name="eacute" unicode="&#xe9;" horiz-adv-x="577" 
d="M444 637l-276 -128l-48 106l276 128zM533 204h-347c3 -58 27 -107 107 -107c53 0 79 24 89 55h150c-14 -91 -100 -165 -238 -165c-169 0 -260 105 -260 254c0 141 89 254 256 254c151 0 248 -102 248 -220c0 -20 0 -42 -5 -71zM289 393c-60 0 -103 -36 -103 -101h202
c0 62 -41 101 -99 101z" />
    <glyph glyph-name="egrave" unicode="&#xe8;" horiz-adv-x="577" 
d="M425 509l-276 128l48 106l276 -128zM533 204h-347c3 -58 27 -107 107 -107c53 0 79 24 89 55h150c-14 -91 -100 -165 -238 -165c-169 0 -260 105 -260 254c0 141 89 254 256 254c151 0 248 -102 248 -220c0 -20 0 -42 -5 -71zM289 393c-60 0 -103 -36 -103 -101h202
c0 62 -41 101 -99 101z" />
    <glyph glyph-name="ecircumflex" unicode="&#xea;" horiz-adv-x="577" 
d="M97 617l195 164l197 -164l-76 -84l-120 107l-120 -106zM533 204h-347c3 -58 27 -107 107 -107c53 0 79 24 89 55h150c-14 -91 -100 -165 -238 -165c-169 0 -260 105 -260 254c0 141 89 254 256 254c151 0 248 -102 248 -220c0 -20 0 -42 -5 -71zM289 393
c-60 0 -103 -36 -103 -101h202c0 62 -41 101 -99 101z" />
    <glyph glyph-name="edieresis" unicode="&#xeb;" horiz-adv-x="577" 
d="M73 630c0 52 41 94 94 94s95 -42 95 -94c0 -51 -42 -93 -95 -93s-94 42 -94 93zM313 630c0 52 42 94 94 94c54 0 95 -42 95 -94c0 -51 -41 -93 -95 -93c-52 0 -94 42 -94 93zM533 204h-347c3 -58 27 -107 107 -107c53 0 79 24 89 55h150c-14 -91 -100 -165 -238 -165
c-169 0 -260 105 -260 254c0 141 89 254 256 254c151 0 248 -102 248 -220c0 -20 0 -42 -5 -71zM289 393c-60 0 -103 -36 -103 -101h202c0 62 -41 101 -99 101z" />
    <glyph glyph-name="iacute" unicode="&#xed;" horiz-adv-x="283" 
d="M304 650l-276 -128l-48 106l276 128zM65 0v482h153v-482h-153z" />
    <glyph glyph-name="igrave" unicode="&#xec;" horiz-adv-x="283" 
d="M256 522l-276 128l48 106l276 -128zM65 0v482h153v-482h-153z" />
    <glyph glyph-name="icircumflex" unicode="&#xee;" horiz-adv-x="283" 
d="M-54 617l196 164l196 -164l-76 -84l-120 107l-119 -106zM65 0v482h153v-482h-153z" />
    <glyph glyph-name="idieresis" unicode="&#xef;" horiz-adv-x="283" 
d="M-54 630c0 52 42 94 94 94c54 0 96 -42 96 -94c0 -51 -42 -93 -96 -93c-52 0 -94 42 -94 93zM160 630c0 52 42 94 94 94c54 0 95 -42 95 -94c0 -51 -41 -93 -95 -93c-52 0 -94 42 -94 93zM65 0v482h153v-482h-153z" />
    <glyph glyph-name="ntilde" unicode="&#xf1;" horiz-adv-x="607" 
d="M381 680c33 0 52 20 69 46l81 -71c-37 -58 -91 -83 -143 -83c-74 0 -111 47 -152 47c-33 0 -50 -19 -69 -46l-78 77c38 54 88 76 141 76c74 0 109 -46 151 -46zM65 0v482h153v-70c27 52 83 82 158 82c62 0 109 -21 135 -55c30 -37 38 -84 38 -153v-286h-153v247
c0 69 -21 117 -85 117c-62 0 -93 -48 -93 -122v-242h-153z" />
    <glyph glyph-name="oacute" unicode="&#xf3;" horiz-adv-x="599" 
d="M439 637l-276 -128l-49 106l276 128zM299 -13c-166 0 -267 116 -267 254s101 254 267 254c168 0 268 -116 268 -254s-100 -254 -268 -254zM299 118c70 0 116 55 116 123c0 67 -46 123 -116 123c-69 0 -114 -56 -114 -123c0 -68 45 -123 114 -123z" />
    <glyph glyph-name="ograve" unicode="&#xf2;" horiz-adv-x="599" 
d="M423 509l-276 128l48 106l276 -128zM299 -13c-166 0 -267 116 -267 254s101 254 267 254c168 0 268 -116 268 -254s-100 -254 -268 -254zM299 118c70 0 116 55 116 123c0 67 -46 123 -116 123c-69 0 -114 -56 -114 -123c0 -68 45 -123 114 -123z" />
    <glyph glyph-name="ocircumflex" unicode="&#xf4;" horiz-adv-x="599" 
d="M103 617l195 164l197 -164l-76 -84l-120 107l-119 -106zM299 -13c-166 0 -267 116 -267 254s101 254 267 254c168 0 268 -116 268 -254s-100 -254 -268 -254zM299 118c70 0 116 55 116 123c0 67 -46 123 -116 123c-69 0 -114 -56 -114 -123c0 -68 45 -123 114 -123z" />
    <glyph glyph-name="odieresis" unicode="&#xf6;" horiz-adv-x="599" 
d="M418 537c-53 0 -94 42 -94 93c0 52 41 94 94 94s95 -42 95 -94c0 -51 -42 -93 -95 -93zM177 537c-52 0 -94 42 -94 93c0 52 42 94 94 94c54 0 95 -42 95 -94c0 -51 -41 -93 -95 -93zM567 241c0 -138 -100 -254 -268 -254c-166 0 -267 116 -267 254s101 254 267 254
c168 0 268 -116 268 -254zM185 241c0 -68 45 -123 114 -123c70 0 116 55 116 123c0 67 -46 123 -116 123c-69 0 -114 -56 -114 -123z" />
    <glyph glyph-name="otilde" unicode="&#xf5;" horiz-adv-x="599" 
d="M370 680c33 0 52 20 70 46l81 -71c-38 -58 -92 -83 -144 -83c-74 0 -111 47 -152 47c-33 0 -50 -19 -68 -46l-78 77c37 54 88 76 141 76c74 0 109 -46 150 -46zM299 -13c-166 0 -267 116 -267 254s101 254 267 254c168 0 268 -116 268 -254s-100 -254 -268 -254zM299 118
c70 0 116 55 116 123c0 67 -46 123 -116 123c-69 0 -114 -56 -114 -123c0 -68 45 -123 114 -123z" />
    <glyph glyph-name="uacute" unicode="&#xfa;" horiz-adv-x="607" 
d="M466 637l-276 -128l-48 106l276 128zM542 482v-482h-153v69c-27 -51 -83 -81 -158 -81c-62 0 -109 21 -135 55c-30 37 -37 84 -37 153v286h152v-247c0 -69 21 -117 85 -117c63 0 93 48 93 122v242h153z" />
    <glyph glyph-name="ugrave" unicode="&#xf9;" horiz-adv-x="607" 
d="M422 509l-276 128l48 106l276 -128zM542 482v-482h-153v69c-27 -51 -83 -81 -158 -81c-62 0 -109 21 -135 55c-30 37 -37 84 -37 153v286h152v-247c0 -69 21 -117 85 -117c63 0 93 48 93 122v242h153z" />
    <glyph glyph-name="ucircumflex" unicode="&#xfb;" horiz-adv-x="607" 
d="M110 617l195 164l197 -164l-76 -84l-120 107l-119 -106zM542 482v-482h-153v69c-27 -51 -83 -81 -158 -81c-62 0 -109 21 -135 55c-30 37 -37 84 -37 153v286h152v-247c0 -69 21 -117 85 -117c63 0 93 48 93 122v242h153z" />
    <glyph glyph-name="udieresis" unicode="&#xfc;" horiz-adv-x="607" 
d="M83 630c0 52 42 94 94 94c54 0 96 -42 96 -94c0 -51 -42 -93 -96 -93c-52 0 -94 42 -94 93zM324 630c0 52 41 94 94 94s95 -42 95 -94c0 -51 -42 -93 -95 -93s-94 42 -94 93zM542 482v-482h-153v69c-27 -51 -83 -81 -158 -81c-62 0 -109 21 -135 55
c-30 37 -37 84 -37 153v286h152v-247c0 -69 21 -117 85 -117c63 0 93 48 93 122v242h153z" />
    <glyph glyph-name="dagger" unicode="&#x2020;" horiz-adv-x="466" 
d="M295 -182h-124v531h-116v112h116v256h124v-256h115v-112h-115v-531z" />
    <glyph glyph-name="degree" unicode="&#xb0;" horiz-adv-x="344" 
d="M324 574c0 -85 -67 -152 -152 -152s-152 67 -152 152s67 152 152 152s152 -67 152 -152zM230 574c0 31 -27 59 -58 59s-58 -28 -58 -59c0 -32 27 -58 58 -58s58 26 58 58z" />
    <glyph glyph-name="cent" unicode="&#xa2;" horiz-adv-x="606" 
d="M553 370h-153c-6 43 -33 72 -95 72c-73 0 -107 -58 -107 -124c0 -67 33 -124 113 -124c53 0 77 24 90 64h153c-14 -98 -82 -176 -205 -191v-109h-89v109c-141 19 -215 129 -215 251c0 121 75 232 215 251v110h89v-110c132 -16 195 -105 204 -199z" />
    <glyph glyph-name="sterling" unicode="&#xa3;" horiz-adv-x="628" 
d="M266 500c0 -13 1 -77 1 -107h145v-88h-145c-1 -33 -2 -72 -6 -98c-3 -36 -9 -64 -19 -76h315v-131h-496v110c19 19 32 49 36 92c5 28 7 69 8 103h-70v88h70c0 28 -1 91 -1 107c0 124 107 215 250 215c148 0 250 -99 250 -233h-162c0 56 -27 96 -91 96
c-50 0 -85 -28 -85 -78z" />
    <glyph glyph-name="section" unicode="&#xa7;" horiz-adv-x="575" 
d="M412 258c0 32 -15 50 -41 66c-26 15 -64 27 -109 41c-49 -3 -95 -31 -95 -85c0 -33 19 -55 48 -72c29 -16 66 -28 100 -38c51 3 97 38 97 88zM269 60c-111 38 -231 81 -231 202c0 77 35 128 111 155c-51 33 -78 79 -78 144c0 115 108 179 228 179c141 0 227 -89 227 -203
h-137c0 60 -37 98 -91 98c-49 0 -90 -24 -90 -71c0 -46 43 -69 97 -87c109 -37 237 -78 237 -203c0 -81 -53 -141 -113 -155c51 -33 80 -80 80 -144c0 -114 -101 -186 -232 -186c-133 0 -233 82 -233 211h139c0 -62 40 -102 97 -102c50 0 91 26 91 73s-44 69 -102 89z" />
    <glyph glyph-name="bullet" unicode="&#x2022;" horiz-adv-x="363" 
d="M47 312c0 74 59 134 134 134c76 0 135 -60 135 -134c0 -73 -59 -133 -135 -133c-75 0 -134 60 -134 133z" />
    <glyph glyph-name="paragraph" unicode="&#xb6;" horiz-adv-x="679" 
d="M238 -166v464c-126 0 -224 76 -224 207c0 162 144 212 246 212h363v-107h-56v-776h-120v776h-88v-776h-121z" />
    <glyph glyph-name="germandbls" unicode="&#xdf;" horiz-adv-x="593" 
d="M241 0v119c20 -5 49 -8 61 -8c50 0 97 34 97 98c0 43 -30 96 -100 96h-29v122h27c67 0 92 40 92 88c0 52 -41 82 -89 82c-56 0 -88 -43 -88 -106v-491h-158v491c0 119 74 224 247 224c127 0 244 -65 244 -196c0 -82 -49 -134 -109 -155c64 -23 120 -85 120 -168
c0 -139 -102 -209 -222 -209c-44 0 -73 7 -93 13z" />
    <glyph glyph-name="registered" unicode="&#xae;" horiz-adv-x="808" 
d="M404 -18c-233 0 -371 176 -371 368s138 368 371 368s371 -176 371 -368s-138 -368 -371 -368zM404 65c170 0 272 137 272 285s-102 285 -272 285s-272 -137 -272 -285s102 -285 272 -285zM356 351h65c36 0 58 29 58 63c0 35 -22 65 -58 65h-65v-128zM356 164h-96v392h177
c86 0 142 -65 142 -142c0 -55 -29 -103 -78 -126l78 -124h-109l-70 109h-44v-109z" />
    <glyph glyph-name="copyright" unicode="&#xa9;" horiz-adv-x="808" 
d="M404 -18c-233 0 -371 176 -371 368s138 368 371 368s371 -176 371 -368s-138 -368 -371 -368zM404 65c170 0 272 137 272 285s-102 285 -272 285s-272 -137 -272 -285s102 -285 272 -285zM501 295h96c-15 -80 -85 -143 -187 -143c-128 0 -203 92 -203 199
c0 103 74 197 198 197c117 0 180 -69 191 -156h-94c-10 42 -41 75 -97 75c-67 0 -105 -56 -105 -116c0 -64 41 -117 110 -117c46 0 80 27 91 61z" />
    <glyph glyph-name="trademark" unicode="&#x2122;" horiz-adv-x="837" 
d="M32 700h274v-90h-86v-317h-103v317h-85v90zM350 293v407h157l76 -259l76 259h155v-407h-101v302l-88 -302h-83l-91 302v-302h-101z" />
    <glyph glyph-name="acute" unicode="&#xb4;" horiz-adv-x="513" 
d="M381 631l-276 -128l-48 106l276 128z" />
    <glyph glyph-name="dieresis" unicode="&#xa8;" horiz-adv-x="582" 
d="M81 616c0 51 40 92 91 92c52 0 93 -41 93 -92c0 -49 -41 -90 -93 -90c-51 0 -91 41 -91 90zM321 616c0 51 40 92 92 92s92 -41 92 -92c0 -49 -40 -90 -92 -90s-92 41 -92 90z" />
    <glyph glyph-name="notequal" unicode="&#x2260;" 
d="M520 132h-222l-44 -104h-116l44 104h-89v122h142l26 59h-168v122h221l44 104h116l-44 -104h90v-122h-143l-26 -59h169v-122z" />
    <glyph glyph-name="AE" unicode="&#xc6;" horiz-adv-x="919" 
d="M271 213h156v342zM854 570h-265v-159h265v-127h-265v-154h265v-130h-427v86h-212l-38 -86h-176l336 700h517v-130z" />
    <glyph glyph-name="Oslash" unicode="&#xd8;" horiz-adv-x="805" 
d="M198 350c0 -68 27 -133 76 -175l169 391c-12 4 -26 6 -40 6c-128 0 -205 -107 -205 -222zM608 350c0 71 -31 139 -84 180l-171 -396c14 -4 34 -6 50 -6c127 0 205 107 205 222zM403 -18c-40 0 -77 5 -111 15l-39 -90l-81 36l38 88c-114 65 -178 188 -178 319
c0 192 138 368 371 368c36 0 70 -5 101 -13l37 84l81 -37l-34 -79c118 -64 185 -190 185 -323c0 -192 -138 -368 -370 -368z" />
    <glyph glyph-name="infinity" unicode="&#x221e;" horiz-adv-x="846" 
d="M604 503c144 0 221 -100 221 -214s-77 -214 -221 -214c-65 0 -127 32 -181 104c-55 -72 -116 -104 -181 -104c-146 0 -221 104 -221 214s75 214 221 214c65 0 126 -33 181 -104c54 71 116 104 181 104zM243 381c-60 0 -92 -43 -92 -92s32 -92 92 -92c35 0 81 28 117 92
c-36 63 -82 92 -117 92zM603 381c-36 0 -82 -29 -117 -92c35 -64 81 -92 117 -92c60 0 92 43 92 92s-32 92 -92 92z" />
    <glyph glyph-name="plusminus" unicode="&#xb1;" 
d="M347 219h-130v153h-149v122h149v153h130v-153h149v-122h-149v-153zM496 0h-428v122h428v-122z" />
    <glyph glyph-name="lessequal" unicode="&#x2264;" 
d="M520 382v-135l-427 144v120l427 144v-135l-233 -69zM520 0h-427v122h427v-122z" />
    <glyph glyph-name="greaterequal" unicode="&#x2265;" 
d="M93 247v135l233 69l-233 69v135l427 -144v-120zM520 0h-427v122h427v-122z" />
    <glyph glyph-name="yen" unicode="&#xa5;" horiz-adv-x="630" 
d="M-23 700h188l151 -275l149 275h188l-237 -394h116v-88h-138v-57h138v-88h-138v-73h-154v73h-136v88h136v57h-136v88h110z" />
    <glyph glyph-name="mu" unicode="&#x3bc;" 
d="M65 -218v700h152v-249c1 -68 22 -115 85 -115s93 48 93 122v242h153v-482h-153v69c-25 -46 -73 -74 -137 -79c-15 0 -29 2 -41 6v-214h-152z" />
    <glyph glyph-name="partialdiff" unicode="&#x2202;" 
d="M300 -20c-161 0 -258 91 -258 237c0 123 94 234 243 234c46 0 94 -16 127 -37c-7 151 -42 184 -106 184c-61 0 -99 -47 -99 -119h-162c0 124 83 239 261 239c159 0 265 -83 265 -392c0 -256 -104 -346 -271 -346zM304 326c-67 0 -105 -56 -105 -112
c0 -62 38 -106 98 -106c68 0 113 35 117 183c-31 23 -62 35 -110 35z" />
    <glyph glyph-name="summation" unicode="&#x2211;" 
d="M594 -218h-575v141l357 370l-357 366v135h575v-140h-375l356 -346l-356 -380h375v-146z" />
    <glyph glyph-name="product" unicode="&#x220f;" horiz-adv-x="700" 
d="M703 794v-141h-70v-871h-162v871h-242v-871h-162v871h-70v141h706z" />
    <glyph glyph-name="pi" unicode="&#x3c0;" 
d="M592 482v-115h-70v-367h-153v367h-125v-367h-153v367h-70v115h571z" />
    <glyph glyph-name="integral" unicode="&#x222b;" horiz-adv-x="327" 
d="M239 626v-715c0 -126 -58 -155 -128 -155c-39 0 -84 6 -103 12v114c18 -5 27 -6 39 -6c27 0 40 13 40 48v715c0 126 59 155 129 155c39 0 84 -6 103 -12v-114c-19 5 -28 6 -39 6c-27 0 -41 -13 -41 -48z" />
    <glyph glyph-name="ordfeminine" unicode="&#xaa;" horiz-adv-x="635" 
d="M302 118c69 0 115 56 115 123c0 66 -46 123 -115 123s-115 -57 -115 -123c0 -67 46 -123 115 -123zM417 482h153v-482h-153v68c-23 -44 -85 -80 -147 -80c-139 0 -235 109 -235 253s96 253 235 253c62 0 124 -37 147 -81v69z" />
    <glyph glyph-name="ordmasculine" unicode="&#xba;" horiz-adv-x="599" 
d="M299 -13c-166 0 -267 116 -267 254s101 254 267 254c168 0 268 -116 268 -254s-100 -254 -268 -254zM299 118c70 0 116 55 116 123c0 67 -46 123 -116 123c-69 0 -114 -56 -114 -123c0 -68 45 -123 114 -123z" />
    <glyph glyph-name="Omega" unicode="&#x3a9;" horiz-adv-x="723" 
d="M362 567c-106 0 -161 -79 -161 -169c0 -85 40 -160 129 -180v-218h-275v127h150v15c-105 48 -166 147 -166 262c0 162 122 308 323 308c200 0 322 -146 322 -308c0 -115 -61 -215 -166 -262v-15h150v-127h-275v218c89 20 129 95 129 180c0 90 -54 169 -160 169z" />
    <glyph glyph-name="ae" unicode="&#xe6;" horiz-adv-x="961" 
d="M417 482h138v-12c33 15 73 25 119 25c151 0 248 -102 248 -220c0 -20 0 -42 -5 -71h-346c1 -58 28 -107 106 -107c53 0 78 24 89 55h150c-16 -91 -101 -165 -238 -165c-48 0 -89 10 -123 26v-13h-138v68c-23 -44 -85 -80 -147 -80c-139 0 -235 109 -235 253
s96 253 235 253c62 0 124 -37 147 -81v69zM672 387c-56 0 -99 -34 -100 -95h199c0 57 -40 95 -99 95zM302 118c69 0 115 56 115 123c0 68 -47 123 -115 123c-69 0 -115 -57 -115 -123c0 -67 46 -123 115 -123z" />
    <glyph glyph-name="oslash" unicode="&#xf8;" horiz-adv-x="599" 
d="M185 241c0 -36 12 -69 35 -92l93 213c-5 1 -9 2 -14 2c-69 0 -114 -56 -114 -123zM299 118c70 0 116 55 116 123c0 38 -15 73 -41 96l-95 -218c6 -1 13 -1 20 -1zM461 535l-30 -70c87 -43 136 -128 136 -224c0 -138 -100 -254 -268 -254c-27 0 -52 3 -76 9l-31 -74
l-61 26l31 72c-83 43 -130 127 -130 221c0 138 101 254 267 254c25 0 48 -4 70 -8l32 74z" />
    <glyph glyph-name="questiondown" unicode="&#xbf;" horiz-adv-x="542" 
d="M390 398c0 -56 -45 -103 -104 -103c-58 0 -104 47 -104 103s46 103 104 103c59 0 104 -47 104 -103zM366 266c-1 -86 -17 -135 -88 -183c-38 -27 -85 -59 -85 -116c0 -51 36 -75 84 -75c47 0 86 29 86 101h160c0 -127 -88 -223 -246 -223c-128 0 -242 68 -242 198
c0 101 71 148 107 177c50 41 64 58 64 121h160z" />
    <glyph glyph-name="exclamdown" unicode="&#xa1;" horiz-adv-x="338" 
d="M68 394c0 55 45 101 102 101s102 -46 102 -101s-45 -101 -102 -101s-102 46 -102 101zM88 -218v455h164v-455h-164z" />
    <glyph glyph-name="logicalnot" unicode="&#xac;" 
d="M390 134v179h-297v122h427v-301h-130z" />
    <glyph glyph-name="radical" unicode="&#x221a;" horiz-adv-x="773" 
d="M-4 121v136h247l88 -285l273 822h177l-376 -1028h-149l-130 355h-130z" />
    <glyph glyph-name="florin" unicode="&#x192;" horiz-adv-x="476" 
d="M-55 -176l19 110c15 -4 28 -6 46 -6c34 0 61 6 77 64l66 376h-87l20 114h87l7 42c31 175 139 187 215 187c36 0 64 -6 80 -13l-19 -110c-15 4 -28 6 -46 6c-33 0 -66 -5 -76 -61l-9 -51h112l-20 -114h-112l-65 -370c-30 -175 -139 -187 -215 -187c-36 0 -64 6 -80 13z
" />
    <glyph glyph-name="approxequal" unicode="&#x2248;" 
d="M78 257v119c34 44 79 59 114 59c36 0 78 -15 120 -32c40 -16 82 -36 110 -36c46 0 85 29 112 55v-119c-33 -44 -78 -59 -113 -59c-40 0 -74 15 -110 33c-35 18 -76 35 -125 35c-41 0 -80 -29 -108 -55zM78 76v119c34 44 79 59 114 59c36 0 78 -15 120 -32
c40 -16 82 -36 110 -36c46 0 85 29 112 55v-119c-33 -44 -78 -59 -113 -59c-40 0 -74 15 -110 33c-35 18 -76 35 -125 35c-41 0 -80 -29 -108 -55z" />
    <glyph glyph-name="Delta" unicode="&#x394;" horiz-adv-x="660" 
d="M403 700l253 -700h-652l250 700h149zM329 500l-111 -373h220z" />
    <glyph glyph-name="guillemotleft" unicode="&#xab;" horiz-adv-x="512" 
d="M250 211v-133l-213 173v80l213 173v-133l-103 -80zM470 211v-133l-213 173v80l213 173v-133l-103 -80z" />
    <glyph glyph-name="guillemotright" unicode="&#xbb;" horiz-adv-x="512" 
d="M262 78v133l102 80l-102 80v133l213 -173v-80zM42 78v133l102 80l-102 80v133l213 -173v-80z" />
    <glyph glyph-name="ellipsis" unicode="&#x2026;" horiz-adv-x="986" 
d="M50 91c0 56 44 101 101 101s101 -45 101 -101c0 -55 -44 -100 -101 -100s-101 45 -101 100zM392 90c0 56 44 101 101 101s101 -45 101 -101c0 -55 -44 -100 -101 -100s-101 45 -101 100zM734 90c0 55 44 100 101 100s101 -45 101 -100s-44 -100 -101 -100
s-101 45 -101 100z" />
    <glyph glyph-name="Agrave" unicode="&#xc0;" horiz-adv-x="660" 
d="M457 737l-276 128l48 106l276 -128zM329 500l-86 -288h170zM403 700l253 -700h-176l-27 85h-249l-27 -85h-173l250 700h149z" />
    <glyph glyph-name="Atilde" unicode="&#xc3;" horiz-adv-x="660" 
d="M400 884c33 0 52 21 70 46l80 -70c-37 -59 -91 -83 -143 -83c-74 0 -111 47 -152 47c-33 0 -50 -19 -68 -46l-78 77c37 54 88 76 140 76c74 0 109 -47 151 -47zM329 500l-86 -288h170zM403 700l253 -700h-176l-27 85h-249l-27 -85h-173l250 700h149z" />
    <glyph glyph-name="Otilde" unicode="&#xd5;" horiz-adv-x="805" 
d="M476 884c33 0 52 21 70 46l80 -70c-37 -59 -91 -83 -143 -83c-74 0 -111 47 -152 47c-33 0 -50 -19 -68 -46l-78 77c37 54 88 76 140 76c74 0 109 -47 151 -47zM403 -18c-233 0 -371 176 -371 368s138 368 371 368c232 0 370 -176 370 -368s-138 -368 -370 -368zM403 128
c127 0 205 107 205 222s-78 222 -205 222c-128 0 -205 -107 -205 -222s77 -222 205 -222z" />
    <glyph glyph-name="OE" unicode="&#x152;" horiz-adv-x="1097" 
d="M403 127c127 0 205 107 205 222c0 114 -78 221 -205 221c-128 0 -205 -107 -205 -221c0 -115 77 -222 205 -222zM1036 570h-266v-159h266v-127h-266v-154h266v-130h-427v47c-53 -41 -123 -66 -206 -66c-233 0 -371 176 -371 368c0 191 138 368 371 368
c83 0 153 -26 206 -67v50h427v-130z" />
    <glyph glyph-name="oe" unicode="&#x153;" horiz-adv-x="958" 
d="M914 204h-345c1 -58 27 -107 106 -107c53 0 78 24 89 55h150c-16 -91 -101 -165 -239 -165c-81 0 -144 27 -187 71c-45 -43 -110 -71 -189 -71c-166 0 -267 116 -267 254s101 254 267 254c79 0 143 -28 188 -71c43 44 105 71 185 71c151 0 248 -102 248 -220
c0 -20 -1 -42 -6 -71zM670 387c-57 0 -100 -34 -100 -95h199c0 58 -40 95 -99 95zM299 118c69 0 116 53 116 123c0 69 -47 123 -116 123s-114 -56 -114 -123c0 -68 45 -123 114 -123z" />
    <glyph glyph-name="endash" unicode="&#x2013;" horiz-adv-x="503" 
d="M463 236h-423v122h423v-122z" />
    <glyph glyph-name="emdash" unicode="&#x2014;" horiz-adv-x="1006" 
d="M961 236h-916v122h916v-122z" />
    <glyph glyph-name="quotedblleft" unicode="&#x201c;" horiz-adv-x="523" 
d="M252 516c0 -53 -42 -96 -95 -96c-64 0 -107 49 -107 122c0 145 73 197 197 198v-60c-40 0 -68 -10 -85 -25c-19 -14 -27 -33 -30 -52c3 2 15 7 25 7c58 0 95 -42 95 -94zM477 516c0 -53 -42 -96 -95 -96c-64 0 -107 49 -107 122c0 145 72 197 197 198v-60
c-40 0 -68 -10 -86 -25c-18 -14 -27 -33 -29 -52c2 2 14 7 25 7c58 0 95 -42 95 -94z" />
    <glyph glyph-name="quotedblright" unicode="&#x201d;" horiz-adv-x="523" 
d="M271 643c0 54 42 97 95 97c64 0 107 -50 107 -122c0 -145 -73 -197 -197 -198v59c40 0 68 10 85 25c19 15 27 34 30 53c-3 -3 -15 -7 -25 -7c-58 0 -95 42 -95 93zM46 643c0 54 42 97 95 97c64 0 107 -50 107 -122c0 -145 -72 -197 -197 -198v59c41 0 68 10 86 25
s27 34 29 53c-2 -3 -14 -7 -25 -7c-58 0 -95 42 -95 93z" />
    <glyph glyph-name="quoteleft" unicode="&#x2018;" horiz-adv-x="298" 
d="M252 516c0 -53 -42 -96 -95 -96c-64 0 -107 49 -107 122c0 145 73 197 197 198v-60c-40 0 -68 -10 -85 -25c-19 -14 -27 -33 -30 -52c3 2 15 7 25 7c58 0 95 -42 95 -94z" />
    <glyph glyph-name="quoteright" unicode="&#x2019;" horiz-adv-x="298" 
d="M46 643c0 54 42 97 95 97c64 0 107 -50 107 -122c0 -145 -72 -197 -197 -198v59c41 0 68 10 86 25s27 34 29 53c-3 -3 -14 -7 -25 -7c-58 0 -95 42 -95 93z" />
    <glyph glyph-name="divide" unicode="&#xf7;" 
d="M212 437c0 52 42 94 94 94c53 0 95 -42 95 -94c0 -51 -42 -93 -95 -93c-52 0 -94 42 -94 93zM520 190h-427v122h427v-122zM212 71c0 52 42 93 94 93c53 0 95 -41 95 -93c0 -51 -42 -93 -95 -93c-52 0 -94 42 -94 93z" />
    <glyph glyph-name="lozenge" unicode="&#x25ca;" horiz-adv-x="558" 
d="M193 0l-190 396l190 398h172l189 -398l-188 -396h-173zM167 396l112 -246l112 246l-112 246z" />
    <glyph glyph-name="ydieresis" unicode="&#xff;" horiz-adv-x="615" 
d="M101 630c0 50 40 91 91 91c53 0 93 -41 93 -91s-40 -91 -93 -91c-51 0 -91 41 -91 91zM342 630c0 50 40 91 91 91c52 0 92 -41 92 -91s-40 -91 -92 -91c-51 0 -91 41 -91 91zM303 -231c-78 0 -135 15 -178 50c-38 31 -66 79 -66 144h153c3 -54 42 -84 93 -84
c59 0 94 24 94 99v99c-27 -52 -81 -81 -154 -81c-64 0 -113 24 -139 58c-30 37 -37 80 -37 149v279h152v-247c0 -69 21 -117 85 -117c63 0 93 48 93 122v242h153v-494c0 -76 -26 -133 -66 -167c-44 -36 -99 -52 -183 -52z" />
    <glyph glyph-name="Ydieresis" unicode="&#x178;" horiz-adv-x="641" 
d="M129 852c0 51 41 92 92 92c52 0 92 -41 92 -92c0 -49 -40 -90 -92 -90c-51 0 -92 41 -92 90zM370 852c0 51 40 92 91 92c52 0 93 -41 93 -92c0 -49 -41 -90 -93 -90c-51 0 -91 41 -91 90zM649 700l-347 -700h-179l129 263l-248 437h189l149 -275l128 275h179z" />
    <glyph glyph-name="fraction" unicode="&#x2044;" horiz-adv-x="205" 
d="M-150 0l400 754l105 -53l-400 -754z" />
    <glyph glyph-name="currency" unicode="&#xa4;" horiz-adv-x="757" 
d="M575 81l-73 73c-40 -25 -88 -38 -143 -38c-54 0 -102 14 -142 39l-74 -74l-70 70l73 72c-29 42 -46 93 -46 147s17 105 45 147l-71 72l69 70l73 -74c40 26 89 41 143 41s102 -15 142 -41l74 74l70 -70l-73 -73c30 -41 47 -92 47 -146c0 -56 -16 -107 -46 -148l71 -71z
M359 247c70 0 116 56 116 123c0 68 -46 123 -116 123c-69 0 -114 -55 -114 -123c0 -67 45 -123 114 -123z" />
    <glyph glyph-name="guilsinglleft" unicode="&#x2039;" horiz-adv-x="292" 
d="M250 211v-133l-213 173v80l213 173v-133l-103 -80z" />
    <glyph glyph-name="guilsinglright" unicode="&#x203a;" horiz-adv-x="292" 
d="M42 78v133l102 80l-102 80v133l213 -173v-80z" />
    <glyph glyph-name="daggerdbl" unicode="&#x2021;" horiz-adv-x="466" 
d="M171 717h124v-235h115v-110h-115v-263h115v-109h-115v-182h-124v182h-116v109h116v263h-116v110h116v235z" />
    <glyph glyph-name="periodcentered" unicode="&#xb7;" horiz-adv-x="296" 
d="M47 312c0 55 44 100 100 100c58 0 102 -45 102 -100s-44 -100 -102 -100c-56 0 -100 45 -100 100z" />
    <glyph glyph-name="quotesinglbase" unicode="&#x201a;" horiz-adv-x="298" 
d="M46 75c0 54 42 97 95 97c64 0 107 -50 107 -122c0 -145 -72 -197 -197 -198v59c41 0 68 10 86 25c18 14 27 34 29 53c-2 -3 -14 -7 -25 -7c-58 0 -95 42 -95 93z" />
    <glyph glyph-name="quotedblbase" unicode="&#x201e;" horiz-adv-x="523" 
d="M271 75c0 54 42 97 95 97c64 0 107 -50 107 -122c0 -145 -73 -197 -197 -198v59c40 0 68 10 85 25c19 14 27 34 30 53c-3 -3 -15 -7 -25 -7c-58 0 -95 42 -95 93zM46 75c0 54 42 97 95 97c64 0 107 -50 107 -122c0 -145 -72 -197 -197 -198v59c41 0 68 10 86 25
c18 14 27 34 29 53c-2 -3 -14 -7 -25 -7c-58 0 -95 42 -95 93z" />
    <glyph glyph-name="perthousand" unicode="&#x2030;" horiz-adv-x="1315" 
d="M219 0l399 754l106 -53l-400 -754zM72 445v125c0 75 58 139 155 139c95 0 155 -64 155 -139v-125c0 -75 -60 -139 -155 -139c-97 0 -155 64 -155 139zM275 445v125c0 28 -19 52 -48 52s-48 -24 -48 -52v-125c0 -28 19 -52 48 -52s48 24 48 52zM727 394
c95 0 155 -64 155 -139v-125c0 -75 -60 -139 -155 -139c-97 0 -155 64 -155 139v125c0 75 58 139 155 139zM1242 255v-125c0 -75 -60 -139 -155 -139c-96 0 -155 64 -155 139v125c0 75 59 139 155 139c95 0 155 -64 155 -139zM727 307c-29 0 -48 -24 -48 -52v-125
c0 -28 19 -52 48 -52s48 24 48 52v125c0 28 -19 52 -48 52zM1039 130c0 -28 19 -52 48 -52c30 0 48 24 48 52v125c0 28 -18 52 -48 52c-29 0 -48 -24 -48 -52v-125z" />
    <glyph glyph-name="Acircumflex" unicode="&#xc2;" horiz-adv-x="660" 
d="M134 829l195 164l197 -164l-76 -84l-120 107l-120 -106zM329 500l-86 -288h170zM403 700l253 -700h-176l-27 85h-249l-27 -85h-173l250 700h149z" />
    <glyph glyph-name="Ecircumflex" unicode="&#xca;" horiz-adv-x="555" 
d="M88 829l195 164l197 -164l-76 -84l-120 107l-119 -106zM494 570h-265v-159h265v-127h-265v-154h265v-130h-427v700h427v-130z" />
    <glyph glyph-name="Aacute" unicode="&#xc1;" horiz-adv-x="660" 
d="M493 855l-276 -128l-49 106l276 128zM329 500l-86 -288h170zM403 700l253 -700h-176l-27 85h-249l-27 -85h-173l250 700h149z" />
    <glyph glyph-name="Edieresis" unicode="&#xcb;" horiz-adv-x="555" 
d="M76 852c0 52 42 94 94 94c54 0 96 -42 96 -94c0 -51 -42 -93 -96 -93c-52 0 -94 42 -94 93zM317 852c0 52 41 94 94 94s95 -42 95 -94c0 -51 -42 -93 -95 -93s-94 42 -94 93zM494 570h-265v-159h265v-127h-265v-154h265v-130h-427v700h427v-130z" />
    <glyph glyph-name="Egrave" unicode="&#xc8;" horiz-adv-x="555" 
d="M407 728l-276 128l48 106l276 -128zM494 570h-265v-159h265v-127h-265v-154h265v-130h-427v700h427v-130z" />
    <glyph glyph-name="Iacute" unicode="&#xcd;" horiz-adv-x="298" 
d="M311 855l-276 -128l-48 106l276 128zM67 0v700h164v-700h-164z" />
    <glyph glyph-name="Icircumflex" unicode="&#xce;" horiz-adv-x="298" 
d="M-46 829l195 164l197 -164l-76 -84l-120 107l-119 -106zM67 0v700h164v-700h-164z" />
    <glyph glyph-name="Idieresis" unicode="&#xcf;" horiz-adv-x="298" 
d="M-60 852c0 52 42 94 94 94c54 0 96 -42 96 -94c0 -51 -42 -93 -96 -93c-52 0 -94 42 -94 93zM181 852c0 52 41 94 94 94s95 -42 95 -94c0 -51 -42 -93 -95 -93s-94 42 -94 93zM67 0v700h164v-700h-164z" />
    <glyph glyph-name="Igrave" unicode="&#xcc;" horiz-adv-x="298" 
d="M263 727l-276 128l48 106l276 -128zM67 0v700h164v-700h-164z" />
    <glyph glyph-name="Oacute" unicode="&#xd3;" horiz-adv-x="805" 
d="M574 868l-276 -128l-48 106l276 128zM403 -18c-233 0 -371 176 -371 368s138 368 371 368c232 0 370 -176 370 -368s-138 -368 -370 -368zM403 128c127 0 205 107 205 222s-78 222 -205 222c-128 0 -205 -107 -205 -222s77 -222 205 -222z" />
    <glyph glyph-name="Ocircumflex" unicode="&#xd4;" horiz-adv-x="805" 
d="M208 829l195 164l197 -164l-76 -84l-120 107l-120 -106zM403 -18c-233 0 -371 176 -371 368s138 368 371 368c232 0 370 -176 370 -368s-138 -368 -370 -368zM403 128c127 0 205 107 205 222s-78 222 -205 222c-128 0 -205 -107 -205 -222s77 -222 205 -222z" />
    <glyph glyph-name="apple" unicode="&#xf8ff;" horiz-adv-x="800" 
d="M400 717c225 0 362 -177 362 -367s-137 -367 -362 -367s-362 177 -362 367s137 367 362 367zM400 695c-52 0 -99 -10 -143 -29c-40 -18 -76 -44 -106 -76c-29 -32 -52 -69 -67 -110c-16 -42 -24 -85 -24 -130s8 -88 24 -129c15 -42 38 -79 67 -110c30 -33 66 -59 106 -76
c44 -19 91 -29 143 -29c51 0 99 10 142 29c40 17 76 43 106 76c29 31 52 68 67 110c16 41 24 84 24 129s-8 88 -24 130c-15 41 -38 78 -67 110c-30 32 -66 58 -106 76c-43 19 -91 29 -142 29zM201 500c0 24 19 43 42 43c24 0 43 -19 43 -43c0 -23 -19 -43 -43 -43
c-23 0 -42 20 -42 43zM498 500c0 24 19 43 42 43c24 0 43 -19 43 -43c0 -23 -19 -43 -43 -43c-23 0 -42 20 -42 43zM466 259h-247l179 268l-110 -243h178v-25zM148 207h-16c0 6 1 13 2 20c2 7 4 14 9 20c2 3 5 5 9 8l11 7c7 4 16 7 24 10c0 0 1 0 1 1c3 1 6 4 9 8
c2 3 4 7 4 10c0 6 -1 12 -2 18l-3 20l17 2c0 -7 1 -13 2 -20c1 -6 2 -13 2 -20s-3 -14 -7 -20c-4 -5 -9 -10 -14 -13c-1 0 -3 -1 -4 -1c-7 -3 -15 -6 -21 -10c-4 -1 -7 -3 -10 -5c-2 -2 -4 -4 -6 -5c-2 -3 -4 -8 -5 -13c-1 -6 -2 -12 -2 -17zM616 157l-16 4c2 7 2 13 2 18
c-1 6 -2 10 -4 13c-1 3 -2 4 -3 5c-1 0 -2 1 -3 2c-1 0 -3 1 -4 2l-14 5c-10 5 -22 10 -33 19c-7 5 -13 12 -18 20l-4 11c-1 5 -3 9 -3 14c-2 10 -4 21 -4 31c1 7 1 14 3 19l15 -5c0 -2 -1 -6 -1 -10v-13c1 -9 2 -19 4 -27c2 -5 3 -10 5 -12c4 -8 11 -14 19 -20
c8 -5 18 -9 26 -13l15 -6c3 -1 5 -3 7 -5c3 -2 6 -5 7 -9c3 -6 5 -12 6 -19c0 -8 0 -16 -2 -24zM168 228c67 -40 113 -71 188 -71c55 0 158 5 220 37c1 0 2 1 3 2c-17 -37 -59 -74 -107 -99c-37 -20 -72 -31 -106 -31c-65 0 -129 46 -198 162zM230 169
c39 -59 110 -77 136 -77c68 0 151 56 161 63c-57 -11 -103 -23 -169 -23c-34 0 -98 8 -128 37z" />
    <glyph glyph-name="Ograve" unicode="&#xd2;" horiz-adv-x="805" 
d="M504 740l-276 128l48 106l276 -128zM403 -18c-233 0 -371 176 -371 368s138 368 371 368c232 0 370 -176 370 -368s-138 -368 -370 -368zM403 128c127 0 205 107 205 222s-78 222 -205 222c-128 0 -205 -107 -205 -222s77 -222 205 -222z" />
    <glyph glyph-name="Uacute" unicode="&#xda;" horiz-adv-x="657" 
d="M474 868l-276 -128l-48 106l276 128zM56 239v461h162v-460c0 -64 44 -118 110 -118s111 54 111 118v460h162v-461c0 -144 -105 -257 -273 -257c-167 0 -272 113 -272 257z" />
    <glyph glyph-name="Ucircumflex" unicode="&#xdb;" horiz-adv-x="657" 
d="M129 829l196 164l196 -164l-76 -84l-120 107l-119 -106zM56 239v461h162v-460c0 -64 44 -118 110 -118s111 54 111 118v460h162v-461c0 -144 -105 -257 -273 -257c-167 0 -272 113 -272 257z" />
    <glyph glyph-name="Ugrave" unicode="&#xd9;" horiz-adv-x="657" 
d="M452 740l-276 128l48 106l276 -128zM56 239v461h162v-460c0 -64 44 -118 110 -118s111 54 111 118v460h162v-461c0 -144 -105 -257 -273 -257c-167 0 -272 113 -272 257z" />
    <glyph glyph-name="dotlessi" unicode="&#x131;" horiz-adv-x="258" 
d="M53 0v482h153v-482h-153z" />
    <glyph glyph-name="circumflex" unicode="&#x2c6;" horiz-adv-x="488" 
d="M46 685l196 157l196 -157l-79 -88l-117 94l-116 -93z" />
    <glyph glyph-name="tilde" unicode="&#x2dc;" horiz-adv-x="513" 
d="M111 570l-50 92c63 38 90 38 110 38c30 0 122 -27 150 -27c24 0 35 4 85 27l46 -90c-55 -43 -98 -45 -116 -45c-31 0 -123 26 -150 26c-29 0 -50 -11 -75 -21z" />
    <glyph glyph-name="macron" unicode="&#xaf;" horiz-adv-x="519" 
d="M443 820v-115h-368v115h368z" />
    <glyph glyph-name="breve" unicode="&#x2d8;" horiz-adv-x="546" 
d="M57 855h116c15 -44 46 -74 100 -74s84 30 100 74h116c-19 -105 -108 -172 -216 -172c-109 0 -197 67 -216 172z" />
    <glyph glyph-name="dotaccent" unicode="&#x2d9;" horiz-adv-x="496" 
d="M153 622c0 52 42 94 94 94c54 0 96 -42 96 -94c0 -51 -42 -93 -96 -93c-52 0 -94 42 -94 93z" />
    <glyph glyph-name="ring" unicode="&#x2da;" horiz-adv-x="496" 
d="M248 846c74 0 134 -61 134 -134s-60 -134 -134 -134c-75 0 -135 61 -135 134c0 74 60 134 135 134zM248 758c-26 0 -45 -22 -45 -46c0 -23 21 -44 45 -44s44 21 44 45s-19 45 -44 45z" />
    <glyph glyph-name="cedilla" unicode="&#xb8;" horiz-adv-x="473" 
d="M144 -111v123h78v-67c8 9 21 15 42 15c44 0 83 -38 83 -89s-37 -101 -109 -101c-38 0 -101 20 -109 93h74c4 -18 16 -30 35 -30c20 0 34 16 34 38c0 20 -15 34 -33 34c-15 0 -24 -5 -30 -16h-65z" />
    <glyph glyph-name="hungarumlaut" unicode="&#x2dd;" horiz-adv-x="509" 
d="M64 568l125 179l106 -61l-169 -146zM259 568l125 179l106 -61l-169 -146z" />
    <glyph glyph-name="ogonek" unicode="&#x2db;" horiz-adv-x="477" 
d="M350 -119l-2 -78c-26 -9 -57 -15 -95 -15c-86 0 -126 44 -126 97c0 43 26 77 79 115h98c-27 -18 -56 -39 -56 -78c0 -28 17 -53 46 -53c16 0 37 4 56 12z" />
    <glyph glyph-name="caron" unicode="&#x2c7;" horiz-adv-x="461" 
d="M230 604l-182 157l73 88l109 -98l110 98l73 -88z" />
    <glyph glyph-name=".null" horiz-adv-x="0" 
 />
    <glyph glyph-name="nonbreakingspace" unicode="&#xa0;" horiz-adv-x="250" 
 />
    <glyph glyph-name="Amacron" unicode="&#x100;" horiz-adv-x="660" 
d="M512 909v-115h-368v115h368zM329 500l-86 -288h170zM403 700l253 -700h-176l-27 85h-249l-27 -85h-173l250 700h149z" />
    <glyph glyph-name="Abreve" unicode="&#x102;" horiz-adv-x="660" 
d="M329 868c51 0 80 31 91 72h123c-17 -104 -106 -172 -214 -172c-110 0 -198 68 -214 172h122c12 -41 41 -72 92 -72zM329 500l-86 -288h170zM403 700l253 -700h-176l-27 85h-249l-27 -85h-173l250 700h149z" />
    <glyph glyph-name="Aringacute" unicode="&#x1fa;" horiz-adv-x="660" 
d="M451 922l-235 -115l-31 66l235 114zM328 784c-16 0 -28 -13 -28 -28c0 -13 13 -26 28 -26c14 0 26 13 26 27s-11 27 -26 27zM329 500l-86 -288h170zM410 757c0 -23 -10 -43 -24 -57h17l253 -700h-176l-27 85h-249l-27 -85h-173l249 699h17c-16 14 -25 35 -25 58
c0 45 37 82 83 82c45 0 82 -38 82 -82z" />
    <glyph glyph-name="Aogonek" unicode="&#x104;" horiz-adv-x="660" 
d="M620 -119l-2 -78c-26 -9 -57 -15 -95 -15c-86 0 -126 44 -126 97c0 43 30 80 83 115l-27 85h-249l-27 -85h-173l250 700h149l253 -700h-82c-27 -18 -56 -39 -56 -78c0 -28 17 -53 46 -53c16 0 37 4 56 12zM329 500l-86 -288h170z" />
    <glyph glyph-name="AEacute" unicode="&#x1fc;" horiz-adv-x="919" 
d="M692 868l-276 -128l-49 106l276 128zM271 213h156v342zM854 570h-265v-159h265v-127h-265v-154h265v-130h-427v86h-212l-38 -86h-176l336 700h517v-130z" />
    <glyph glyph-name="Cacute" unicode="&#x106;" horiz-adv-x="788" 
d="M556 868l-276 -128l-48 105l276 128zM585 251h172c-27 -149 -156 -269 -349 -269c-236 0 -376 172 -376 369c0 191 138 367 367 367c217 0 337 -130 357 -290h-169c-15 82 -78 144 -178 144c-137 0 -212 -106 -212 -221c0 -123 80 -223 220 -223c79 0 149 53 168 123z
" />
    <glyph glyph-name="Ccircumflex" unicode="&#x108;" horiz-adv-x="788" 
d="M205 829l195 164l197 -164l-76 -84l-120 107l-119 -106zM585 251h172c-27 -149 -156 -269 -349 -269c-236 0 -376 172 -376 369c0 191 138 367 367 367c217 0 337 -130 357 -290h-169c-15 82 -78 144 -178 144c-137 0 -212 -106 -212 -221c0 -123 80 -223 220 -223
c79 0 149 53 168 123z" />
    <glyph glyph-name="Ccaron" unicode="&#x10c;" horiz-adv-x="788" 
d="M393 742l-196 165l77 83l119 -108l120 108l76 -83zM585 251h172c-27 -149 -156 -269 -349 -269c-236 0 -376 172 -376 369c0 191 138 367 367 367c217 0 337 -130 357 -290h-169c-15 82 -78 144 -178 144c-137 0 -212 -106 -212 -221c0 -123 80 -223 220 -223
c79 0 149 53 168 123z" />
    <glyph glyph-name="Cdotaccent" unicode="&#x10a;" horiz-adv-x="788" 
d="M305 860c0 52 41 95 94 95s95 -43 95 -95c0 -50 -42 -93 -95 -93s-94 43 -94 93zM585 251h172c-27 -149 -156 -269 -349 -269c-236 0 -376 172 -376 369c0 191 138 367 367 367c217 0 337 -130 357 -290h-169c-15 82 -78 144 -178 144c-137 0 -212 -106 -212 -221
c0 -123 80 -223 220 -223c79 0 149 53 168 123z" />
    <glyph glyph-name="Dcaron" unicode="&#x10e;" horiz-adv-x="720" 
d="M337 742l-196 165l77 83l119 -108l120 108l76 -83zM67 700h257c232 0 364 -171 364 -350s-131 -350 -364 -350h-257v700zM316 560h-87v-420h87c131 0 207 102 207 210s-76 210 -207 210z" />
    <glyph glyph-name="Dcroat" unicode="&#x110;" horiz-adv-x="720" 
d="M67 700h257c232 0 364 -171 364 -350s-131 -350 -364 -350h-257v301h-101v98h101v301zM334 399v-98h-105v-161h87c131 0 207 102 207 210s-76 210 -207 210h-87v-161h105z" />
    <glyph glyph-name="Ecaron" unicode="&#x11a;" horiz-adv-x="555" 
d="M276 742l-195 165l76 83l120 -108l120 108l76 -83zM494 570h-265v-159h265v-127h-265v-154h265v-130h-427v700h427v-130z" />
    <glyph glyph-name="Emacron" unicode="&#x112;" horiz-adv-x="555" 
d="M466 909v-115h-368v115h368zM494 570h-265v-159h265v-127h-265v-154h265v-130h-427v700h427v-130z" />
    <glyph glyph-name="Ebreve" unicode="&#x114;" horiz-adv-x="555" 
d="M283 868c51 0 80 31 91 72h123c-17 -104 -106 -172 -214 -172c-110 0 -198 68 -214 172h122c12 -41 41 -72 92 -72zM494 570h-265v-159h265v-127h-265v-154h265v-130h-427v700h427v-130z" />
    <glyph glyph-name="Edotaccent" unicode="&#x116;" horiz-adv-x="555" 
d="M183 860c0 52 41 95 94 95s95 -43 95 -95c0 -50 -42 -93 -95 -93s-94 43 -94 93zM494 570h-265v-159h265v-127h-265v-154h265v-130h-427v700h427v-130z" />
    <glyph glyph-name="Eogonek" unicode="&#x118;" horiz-adv-x="555" 
d="M350 0h-283v700h427v-130h-265v-159h265v-127h-265v-154h265v-130h-46c-27 -18 -56 -39 -56 -78c0 -28 17 -53 46 -53c16 0 37 4 56 12l-2 -78c-26 -9 -57 -15 -95 -15c-86 0 -126 44 -126 97c0 43 26 77 79 115z" />
    <glyph glyph-name="Gcircumflex" unicode="&#x11c;" horiz-adv-x="835" 
d="M208 829l195 164l197 -164l-76 -84l-120 107l-119 -106zM455 249v121h363v-121h-72c-28 -159 -147 -267 -347 -267c-235 0 -367 172 -367 368c0 191 138 368 367 368c184 0 311 -112 323 -245h-173c-10 55 -66 105 -150 105c-129 0 -201 -111 -201 -229
c0 -124 69 -230 214 -230c98 0 156 60 167 130h-124z" />
    <glyph glyph-name="Gbreve" unicode="&#x11e;" horiz-adv-x="835" 
d="M403 868c51 0 80 31 92 72h122c-16 -104 -106 -172 -214 -172c-110 0 -197 68 -214 172h123c11 -41 40 -72 91 -72zM455 249v121h363v-121h-72c-28 -159 -147 -267 -347 -267c-235 0 -367 172 -367 368c0 191 138 368 367 368c184 0 311 -112 323 -245h-173
c-10 55 -66 105 -150 105c-129 0 -201 -111 -201 -229c0 -124 69 -230 214 -230c98 0 156 60 167 130h-124z" />
    <glyph glyph-name="Gdotaccent" unicode="&#x120;" horiz-adv-x="835" 
d="M305 860c0 52 41 95 94 95s95 -43 95 -95c0 -50 -42 -93 -95 -93s-94 43 -94 93zM455 249v121h363v-121h-72c-28 -159 -147 -267 -347 -267c-235 0 -367 172 -367 368c0 191 138 368 367 368c184 0 311 -112 323 -245h-173c-10 55 -66 105 -150 105
c-129 0 -201 -111 -201 -229c0 -124 69 -230 214 -230c98 0 156 60 167 130h-124z" />
    <glyph glyph-name="Gcommaaccent" unicode="&#x122;" horiz-adv-x="835" 
d="M455 249v121h363v-121h-72c-28 -159 -147 -267 -347 -267c-235 0 -367 172 -367 368c0 191 138 368 367 368c184 0 311 -112 323 -245h-173c-10 55 -66 105 -150 105c-129 0 -201 -111 -201 -229c0 -124 69 -230 214 -230c98 0 156 60 167 130h-124zM325 -103
c0 42 34 77 76 77c51 0 86 -41 86 -98c0 -116 -59 -158 -158 -159v48c33 0 54 8 69 20c15 11 22 27 23 42c-2 -2 -12 -6 -20 -6c-46 0 -76 34 -76 76z" />
    <glyph glyph-name="Hcircumflex" unicode="&#x124;" horiz-adv-x="699" 
d="M154 829l196 164l196 -164l-76 -84l-120 107l-119 -106zM471 0v278h-242v-278h-162v700h162v-283h242v283h161v-700h-161z" />
    <glyph glyph-name="Hbar" unicode="&#x126;" horiz-adv-x="699" 
d="M471 417v89h-242v-89h242zM67 700h162v-106h242v106h161v-700h-161v278h-242v-278h-162v700z" />
    <glyph glyph-name="Itilde" unicode="&#x128;" horiz-adv-x="298" 
d="M219 884c33 0 52 21 69 46l81 -70c-37 -59 -91 -83 -143 -83c-74 0 -111 47 -152 47c-33 0 -50 -19 -69 -46l-78 77c38 54 88 76 141 76c74 0 109 -47 151 -47zM67 0v700h164v-700h-164z" />
    <glyph glyph-name="Imacron" unicode="&#x12a;" horiz-adv-x="298" 
d="M334 909v-115h-368v115h368zM67 0v700h164v-700h-164z" />
    <glyph glyph-name="Ibreve" unicode="&#x12c;" horiz-adv-x="298" 
d="M150 868c51 0 80 31 91 72h123c-17 -104 -106 -172 -214 -172c-110 0 -198 68 -214 172h122c12 -41 41 -72 92 -72zM67 0v700h164v-700h-164z" />
    <glyph glyph-name="Idotaccent" unicode="&#x130;" horiz-adv-x="298" 
d="M54 861c0 52 42 94 94 94c54 0 96 -42 96 -94c0 -51 -42 -93 -96 -93c-52 0 -94 42 -94 93zM67 0v700h164v-700h-164z" />
    <glyph glyph-name="Iogonek" unicode="&#x12e;" horiz-adv-x="298" 
d="M231 700v-700h-28c-27 -18 -56 -39 -56 -78c0 -28 17 -53 46 -53c16 0 37 4 56 12l-2 -78c-26 -9 -57 -15 -95 -15c-85 0 -125 44 -125 97c0 43 26 77 79 115h-39v700h164z" />
    <glyph glyph-name="Jcircumflex" unicode="&#x134;" horiz-adv-x="583" 
d="M247 829l195 164l197 -164l-76 -84l-120 107l-119 -106zM523 700v-459c0 -166 -96 -258 -256 -258c-169 0 -255 113 -255 259h162c0 -69 31 -120 93 -120s95 45 95 119v459h161z" />
    <glyph glyph-name="Kcommaaccent" unicode="&#x136;" horiz-adv-x="659" 
d="M650 0h-195l-226 296v-296h-162v700h162v-297l226 297h195l-277 -350zM253 -93c0 42 34 77 76 77c51 0 86 -41 86 -98c0 -116 -59 -158 -158 -159v48c32 0 54 8 69 20c14 11 21 27 23 42c-2 -2 -12 -6 -20 -6c-47 0 -76 34 -76 76z" />
    <glyph glyph-name="Lacute" unicode="&#x139;" horiz-adv-x="453" 
d="M311 868l-276 -128l-48 106l276 128zM229 140h199v-140h-361v700h162v-560z" />
    <glyph glyph-name="Lcaron" unicode="&#x13d;" horiz-adv-x="453" 
d="M312 643c0 54 42 97 94 97c65 0 108 -50 108 -122c0 -145 -73 -197 -198 -198v59c41 0 68 10 86 25s27 34 29 53c-2 -3 -14 -7 -25 -7c-58 0 -94 42 -94 93zM229 140h199v-140h-361v700h162v-560z" />
    <glyph glyph-name="Lcommaaccent" unicode="&#x13b;" horiz-adv-x="453" 
d="M67 0v700h162v-560h199v-140h-361zM145 -93c0 42 34 77 76 77c51 0 86 -41 86 -98c0 -116 -59 -158 -158 -159v48c33 0 54 8 69 20c15 11 22 27 23 42c-2 -2 -12 -6 -20 -6c-46 0 -76 34 -76 76z" />
    <glyph glyph-name="Ldot" unicode="&#x13f;" horiz-adv-x="478" 
d="M229 140h199v-140h-361v700h162v-560zM295 410c0 55 44 100 100 100c58 0 102 -45 102 -100s-44 -100 -102 -100c-56 0 -100 45 -100 100z" />
    <glyph glyph-name="Nacute" unicode="&#x143;" horiz-adv-x="717" 
d="M520 868l-276 -128l-48 106l276 128zM236 700l253 -456v456h161v-700h-169l-252 450v-450h-162v700h169z" />
    <glyph glyph-name="Ncaron" unicode="&#x147;" horiz-adv-x="717" 
d="M360 742l-195 165l76 83l120 -108l120 108l76 -83zM236 700l253 -456v456h161v-700h-169l-252 450v-450h-162v700h169z" />
    <glyph glyph-name="Ncommaaccent" unicode="&#x145;" horiz-adv-x="717" 
d="M650 0h-169l-252 450v-450h-162v700h169l253 -456v456h161v-700zM277 -93c0 42 34 77 76 77c51 0 86 -41 86 -98c0 -116 -59 -158 -158 -159v48c33 0 54 8 69 20c15 11 22 27 23 42c-2 -2 -12 -6 -20 -6c-46 0 -76 34 -76 76z" />
    <glyph glyph-name="Omacron" unicode="&#x14c;" horiz-adv-x="805" 
d="M587 909v-115h-368v115h368zM403 -18c-233 0 -371 176 -371 368s138 368 371 368c232 0 370 -176 370 -368s-138 -368 -370 -368zM403 128c127 0 205 107 205 222s-78 222 -205 222c-128 0 -205 -107 -205 -222s77 -222 205 -222z" />
    <glyph glyph-name="Obreve" unicode="&#x14e;" horiz-adv-x="805" 
d="M403 868c51 0 80 31 91 72h123c-17 -104 -106 -172 -214 -172c-110 0 -198 68 -214 172h122c12 -41 41 -72 92 -72zM403 -18c-233 0 -371 176 -371 368s138 368 371 368c232 0 370 -176 370 -368s-138 -368 -370 -368zM403 128c127 0 205 107 205 222s-78 222 -205 222
c-128 0 -205 -107 -205 -222s77 -222 205 -222z" />
    <glyph glyph-name="Ohungarumlaut" unicode="&#x150;" horiz-adv-x="805" 
d="M270 770l-62 28l125 180l106 -62zM403 798l125 180l106 -62l-169 -146zM403 -18c-233 0 -371 176 -371 368s138 368 371 368c232 0 370 -176 370 -368s-138 -368 -370 -368zM403 128c127 0 205 107 205 222s-78 222 -205 222c-128 0 -205 -107 -205 -222
s77 -222 205 -222z" />
    <glyph glyph-name="Oslashacute" unicode="&#x1fe;" horiz-adv-x="805" 
d="M564 868l-276 -128l-48 106l276 128zM443 566c-12 4 -26 6 -40 6c-128 0 -205 -107 -205 -222c0 -68 27 -133 76 -175zM608 350c0 71 -31 139 -84 180l-171 -396c14 -4 34 -6 50 -6c127 0 205 107 205 222zM403 -18c-40 0 -77 5 -111 15l-39 -90l-81 36l38 88
c-114 65 -178 188 -178 319c0 192 138 368 371 368c36 0 70 -5 101 -13l37 84l81 -37l-34 -79c118 -64 185 -190 185 -323c0 -192 -138 -368 -370 -368z" />
    <glyph glyph-name="Racute" unicode="&#x154;" horiz-adv-x="654" 
d="M489 868l-276 -128l-48 106l276 128zM340 326c68 0 112 56 112 121s-44 121 -112 121h-111v-242h111zM67 0v700h294c155 0 255 -117 255 -253c0 -98 -52 -185 -139 -226l140 -221h-188l-124 194h-76v-194h-162z" />
    <glyph glyph-name="Rcaron" unicode="&#x158;" horiz-adv-x="654" 
d="M304 742l-195 165l76 83l120 -108l120 108l76 -83zM340 326c68 0 112 56 112 121s-44 121 -112 121h-111v-242h111zM67 0v700h294c155 0 255 -117 255 -253c0 -98 -52 -185 -139 -226l140 -221h-188l-124 194h-76v-194h-162z" />
    <glyph glyph-name="Rcommaaccent" unicode="&#x156;" horiz-adv-x="654" 
d="M67 0v700h294c155 0 255 -117 255 -253c0 -98 -52 -185 -139 -226l140 -221h-188l-124 194h-76v-194h-162zM340 568h-111v-242h111c68 0 112 56 112 121s-44 121 -112 121zM246 -93c0 42 34 77 75 77c51 0 87 -41 87 -98c0 -116 -60 -158 -159 -159v48c64 0 89 32 92 62
c-1 -2 -12 -6 -20 -6c-46 0 -75 34 -75 76z" />
    <glyph glyph-name="Sacute" unicode="&#x15a;" horiz-adv-x="606" 
d="M465 868l-276 -128l-49 106l276 128zM38 232h162c0 -76 46 -121 112 -121c52 0 92 33 92 82c0 56 -48 75 -109 98c-129 47 -237 88 -237 230c0 129 118 197 246 197c166 0 249 -104 249 -223h-162c0 62 -31 101 -87 101c-46 0 -85 -24 -85 -72c0 -46 41 -71 100 -92
c115 -40 246 -86 246 -226c0 -144 -109 -224 -263 -224c-150 0 -264 90 -264 250z" />
    <glyph glyph-name="Scircumflex" unicode="&#x15c;" horiz-adv-x="606" 
d="M110 829l195 164l197 -164l-76 -84l-120 107l-119 -106zM38 232h162c0 -76 46 -121 112 -121c52 0 92 33 92 82c0 56 -48 75 -109 98c-129 47 -237 88 -237 230c0 129 118 197 246 197c166 0 249 -104 249 -223h-162c0 62 -31 101 -87 101c-46 0 -85 -24 -85 -72
c0 -46 41 -71 100 -92c115 -40 246 -86 246 -226c0 -144 -109 -224 -263 -224c-150 0 -264 90 -264 250z" />
    <glyph glyph-name="Scedilla" unicode="&#x15e;" horiz-adv-x="606" 
d="M263 -116v100c-131 15 -225 102 -225 248h162c0 -76 46 -121 112 -121c52 0 92 33 92 82c0 56 -48 75 -109 98c-129 47 -237 88 -237 230c0 129 118 197 246 197c166 0 249 -104 249 -223h-162c0 62 -31 101 -87 101c-46 0 -85 -24 -85 -72c0 -46 41 -71 100 -92
c115 -40 246 -86 246 -226c0 -132 -90 -209 -224 -222v-43c8 8 21 15 42 15c44 0 83 -38 83 -89s-36 -101 -109 -101c-37 0 -100 19 -108 93h74c4 -18 16 -30 34 -30c20 0 35 15 35 38c0 20 -15 34 -34 34c-15 0 -24 -6 -30 -17h-65z" />
    <glyph glyph-name="Scommaaccent" unicode="&#x218;" horiz-adv-x="606" 
d="M38 232h162c0 -76 46 -121 112 -121c52 0 92 33 92 82c0 56 -48 75 -109 98c-129 47 -237 88 -237 230c0 129 118 197 246 197c166 0 249 -104 249 -223h-162c0 62 -31 101 -87 101c-46 0 -85 -24 -85 -72c0 -46 41 -71 100 -92c115 -40 246 -86 246 -226
c0 -144 -109 -224 -263 -224c-150 0 -264 90 -264 250zM225 -103c0 42 34 77 75 77c51 0 87 -41 87 -98c0 -116 -60 -158 -159 -159v48c64 0 89 32 92 62c-1 -2 -12 -6 -20 -6c-46 0 -75 34 -75 76z" />
    <glyph glyph-name="Tcaron" unicode="&#x164;" horiz-adv-x="509" 
d="M254 742l-195 165l76 83l120 -108l120 108l76 -83zM173 0v560h-158v140h479v-140h-159v-560h-162z" />
    <glyph glyph-name="Tcommaaccent" unicode="&#x162;" horiz-adv-x="509" 
d="M173 0v560h-158v140h479v-140h-159v-560h-162zM176 -93c0 42 34 77 75 77c51 0 87 -41 87 -98c0 -116 -60 -158 -159 -159v48c64 0 89 32 92 62c-1 -2 -12 -6 -20 -6c-46 0 -75 34 -75 76z" />
    <glyph glyph-name="Tbar" unicode="&#x166;" horiz-adv-x="509" 
d="M438 457v-89h-103v-368h-162v368h-103v89h103v103h-158v140h479v-140h-159v-103h103z" />
    <glyph glyph-name="uni021A" unicode="&#x21a;" horiz-adv-x="509" 
d="M173 0v560h-158v140h479v-140h-159v-560h-162zM176 -93c0 42 34 77 75 77c51 0 87 -41 87 -98c0 -116 -60 -158 -159 -159v48c64 0 89 32 92 62c-1 -2 -12 -6 -20 -6c-46 0 -75 34 -75 76z" />
    <glyph glyph-name="Utilde" unicode="&#x168;" horiz-adv-x="657" 
d="M402 884c33 0 52 21 70 46l80 -70c-37 -59 -91 -83 -143 -83c-74 0 -111 47 -152 47c-33 0 -50 -19 -68 -46l-78 77c37 54 88 76 140 76c74 0 109 -47 151 -47zM56 239v461h162v-460c0 -64 44 -118 110 -118s111 54 111 118v460h162v-461c0 -144 -105 -257 -273 -257
c-167 0 -272 113 -272 257z" />
    <glyph glyph-name="Umacron" unicode="&#x16a;" horiz-adv-x="657" 
d="M515 909v-115h-368v115h368zM56 239v461h162v-460c0 -64 44 -118 110 -118s111 54 111 118v460h162v-461c0 -144 -105 -257 -273 -257c-167 0 -272 113 -272 257z" />
    <glyph glyph-name="Ubreve" unicode="&#x16c;" horiz-adv-x="657" 
d="M326 868c51 0 80 31 91 72h123c-16 -104 -106 -172 -214 -172c-110 0 -198 68 -214 172h123c11 -41 40 -72 91 -72zM56 239v461h162v-460c0 -64 44 -118 110 -118s111 54 111 118v460h162v-461c0 -144 -105 -257 -273 -257c-167 0 -272 113 -272 257z" />
    <glyph glyph-name="Uring" unicode="&#x16e;" horiz-adv-x="657" 
d="M328 1002c75 0 135 -62 135 -135s-60 -134 -135 -134c-74 0 -134 61 -134 134c0 75 60 135 134 135zM328 920c-29 0 -51 -24 -51 -53c0 -27 23 -50 51 -50s52 23 52 51s-22 52 -52 52zM56 239v461h162v-460c0 -64 44 -118 110 -118s111 54 111 118v460h162v-461
c0 -144 -105 -257 -273 -257c-167 0 -272 113 -272 257z" />
    <glyph glyph-name="Uhungarumlaut" unicode="&#x170;" horiz-adv-x="657" 
d="M143 798l125 180l106 -62l-169 -146zM338 798l125 180l106 -62l-169 -146zM56 239v461h162v-460c0 -64 44 -118 110 -118s111 54 111 118v460h162v-461c0 -144 -105 -257 -273 -257c-167 0 -272 113 -272 257z" />
    <glyph glyph-name="Uogonek" unicode="&#x172;" horiz-adv-x="657" 
d="M434 -119l-2 -78c-26 -9 -57 -15 -95 -15c-85 0 -125 44 -125 97c0 38 19 69 61 101c-135 22 -217 125 -217 253v461h162v-460c0 -64 44 -118 110 -118s111 54 111 118v460h162v-461c0 -133 -89 -239 -234 -254c-19 -15 -35 -34 -35 -63c0 -28 17 -53 46 -53
c16 0 37 4 56 12z" />
    <glyph glyph-name="Wgrave" unicode="&#x1e80;" horiz-adv-x="1035" 
d="M631 740l-276 128l49 106l276 -128zM657 0l-139 440l-139 -440h-133l-247 700h171l143 -459l142 459h125l143 -459l142 459h171l-247 -700h-132z" />
    <glyph glyph-name="Wacute" unicode="&#x1e82;" horiz-adv-x="1035" 
d="M680 868l-276 -128l-49 106l276 128zM657 0l-139 440l-139 -440h-133l-247 700h171l143 -459l142 459h125l143 -459l142 459h171l-247 -700h-132z" />
    <glyph glyph-name="Wcircumflex" unicode="&#x174;" horiz-adv-x="1035" 
d="M323 829l195 164l197 -164l-76 -84l-120 107l-120 -106zM657 0l-139 440l-139 -440h-133l-247 700h171l143 -459l142 459h125l143 -459l142 459h171l-247 -700h-132z" />
    <glyph glyph-name="Wdieresis" unicode="&#x1e84;" horiz-adv-x="1035" 
d="M305 863c0 51 40 92 91 92c53 0 93 -41 93 -92c0 -49 -40 -90 -93 -90c-51 0 -91 41 -91 90zM546 863c0 51 40 92 91 92c52 0 92 -41 92 -92c0 -49 -40 -90 -92 -90c-51 0 -91 41 -91 90zM657 0l-139 440l-139 -440h-133l-247 700h171l143 -459l142 459h125l143 -459
l142 459h171l-247 -700h-132z" />
    <glyph glyph-name="Ygrave" unicode="&#x1ef2;" horiz-adv-x="641" 
d="M434 740l-276 128l48 106l276 -128zM649 700l-347 -700h-179l129 263l-248 437h189l149 -275l128 275h179z" />
    <glyph glyph-name="Ycircumflex" unicode="&#x176;" horiz-adv-x="641" 
d="M140 829l195 164l197 -164l-76 -84l-120 107l-120 -106zM649 700l-347 -700h-179l129 263l-248 437h189l149 -275l128 275h179z" />
    <glyph glyph-name="Zacute" unicode="&#x179;" horiz-adv-x="632" 
d="M482 868l-276 -128l-48 106l276 128zM45 564v136h572l-343 -564h332v-136h-589l342 564h-314z" />
    <glyph glyph-name="Zdotaccent" unicode="&#x17b;" horiz-adv-x="632" 
d="M224 860c0 52 41 95 94 95s95 -43 95 -95c0 -50 -42 -93 -95 -93s-94 43 -94 93zM45 564v136h572l-343 -564h332v-136h-589l342 564h-314z" />
    <glyph glyph-name="Eng" unicode="&#x14a;" horiz-adv-x="717" 
d="M229 700l260 -456v456h161v-688c0 -165 -96 -257 -256 -257c-72 0 -128 30 -169 76l94 100c25 -22 43 -38 75 -38c59 0 91 43 93 108l-258 449v-450h-162v700h162z" />
    <glyph glyph-name="amacron" unicode="&#x101;" horiz-adv-x="635" 
d="M491 687v-114h-368v114h368zM302 118c69 0 115 56 115 123c0 66 -46 123 -115 123s-115 -57 -115 -123c0 -67 46 -123 115 -123zM417 482h153v-482h-153v68c-23 -44 -85 -80 -147 -80c-139 0 -235 109 -235 253s96 253 235 253c62 0 124 -37 147 -81v69z" />
    <glyph glyph-name="abreve" unicode="&#x103;" horiz-adv-x="635" 
d="M309 652c51 0 80 31 92 72h122c-16 -104 -106 -172 -214 -172c-110 0 -197 68 -214 172h123c11 -41 40 -72 91 -72zM302 118c69 0 115 56 115 123c0 66 -46 123 -115 123s-115 -57 -115 -123c0 -67 46 -123 115 -123zM417 482h153v-482h-153v68c-23 -44 -85 -80 -147 -80
c-139 0 -235 109 -235 253s96 253 235 253c62 0 124 -37 147 -81v69z" />
    <glyph glyph-name="aringacute" unicode="&#x1fb;" horiz-adv-x="635" 
d="M189 727l-46 96l257 122l46 -97zM305 521c-59 0 -107 49 -107 107c0 59 48 107 107 107s107 -49 107 -107s-48 -107 -107 -107zM305 588c22 0 40 18 40 41c0 22 -17 40 -40 40s-39 -19 -39 -42c0 -21 17 -39 39 -39zM417 241c0 66 -46 123 -115 123s-115 -57 -115 -123
c0 -67 46 -123 115 -123s115 56 115 123zM417 413v69h153v-482h-153v68c-23 -44 -85 -80 -147 -80c-139 0 -235 109 -235 253s96 253 235 253c62 0 124 -37 147 -81z" />
    <glyph glyph-name="aogonek" unicode="&#x105;" horiz-adv-x="635" 
d="M570 482v-482h-55c-30 -19 -63 -43 -63 -85c0 -24 16 -46 43 -46c16 0 37 4 56 12l-2 -78c-26 -9 -57 -15 -95 -15c-88 0 -129 44 -129 97c0 44 31 79 92 118v65c-23 -44 -85 -80 -147 -80c-139 0 -235 109 -235 253s96 253 235 253c62 0 124 -37 147 -81v69h153z
M302 118c69 0 115 56 115 123c0 66 -46 123 -115 123s-115 -57 -115 -123c0 -67 46 -123 115 -123z" />
    <glyph glyph-name="aeacute" unicode="&#x1fd;" horiz-adv-x="961" 
d="M642 626l-276 -128l-48 105l276 128zM417 482h138v-12c33 15 73 25 119 25c151 0 248 -102 248 -220c0 -20 0 -42 -5 -71h-346c1 -58 28 -107 106 -107c53 0 78 24 89 55h150c-16 -91 -101 -165 -238 -165c-48 0 -89 10 -123 26v-13h-138v68c-23 -44 -85 -80 -147 -80
c-139 0 -235 109 -235 253s96 253 235 253c62 0 124 -37 147 -81v69zM672 387c-56 0 -99 -34 -100 -95h199c0 57 -40 95 -99 95zM302 118c69 0 115 56 115 123c0 68 -47 123 -115 123c-69 0 -115 -57 -115 -123c0 -67 46 -123 115 -123z" />
    <glyph glyph-name="cacute" unicode="&#x107;" horiz-adv-x="575" 
d="M449 637l-276 -128l-48 106l276 128zM541 293h-153c-6 43 -33 72 -95 72c-73 0 -107 -58 -107 -124c0 -67 33 -124 113 -124c53 0 77 23 90 64h153c-15 -109 -97 -194 -250 -194c-169 0 -259 120 -259 254c0 133 90 254 259 254c163 0 239 -98 249 -202z" />
    <glyph glyph-name="ccircumflex" unicode="&#x109;" horiz-adv-x="575" 
d="M103 617l195 164l197 -164l-76 -84l-120 107l-120 -106zM541 293h-153c-6 43 -33 72 -95 72c-73 0 -107 -58 -107 -124c0 -67 33 -124 113 -124c53 0 77 23 90 64h153c-15 -109 -97 -194 -250 -194c-169 0 -259 120 -259 254c0 133 90 254 259 254
c163 0 239 -98 249 -202z" />
    <glyph glyph-name="ccaron" unicode="&#x10d;" horiz-adv-x="575" 
d="M292 526l-195 165l77 82l119 -108l120 109l76 -83zM541 293h-153c-6 43 -33 72 -95 72c-73 0 -107 -58 -107 -124c0 -67 33 -124 113 -124c53 0 77 23 90 64h153c-15 -109 -97 -194 -250 -194c-169 0 -259 120 -259 254c0 133 90 254 259 254c163 0 239 -98 249 -202z
" />
    <glyph glyph-name="cdotaccent" unicode="&#x10b;" horiz-adv-x="575" 
d="M197 629c0 52 42 94 94 94c54 0 96 -42 96 -94c0 -51 -42 -93 -96 -93c-52 0 -94 42 -94 93zM541 293h-153c-6 43 -33 72 -95 72c-73 0 -107 -58 -107 -124c0 -67 33 -124 113 -124c53 0 77 23 90 64h153c-15 -109 -97 -194 -250 -194c-169 0 -259 120 -259 254
c0 133 90 254 259 254c163 0 239 -98 249 -202z" />
    <glyph glyph-name="dcaron" unicode="&#x10f;" horiz-adv-x="810" 
d="M615 641c0 54 42 97 95 97c64 0 107 -50 107 -122c0 -145 -73 -197 -197 -198v59c40 0 68 10 85 25c19 15 27 34 30 53c-3 -3 -15 -7 -25 -7c-58 0 -95 42 -95 93zM302 118c69 0 115 56 115 123c0 66 -46 123 -115 123s-115 -57 -115 -123c0 -67 46 -123 115 -123z
M417 413v287h153v-700h-153v68c-23 -44 -85 -80 -147 -80c-139 0 -235 109 -235 253s96 253 235 253c62 0 124 -37 147 -81z" />
    <glyph glyph-name="dcroat" unicode="&#x111;" horiz-adv-x="635" 
d="M302 118c69 0 115 56 115 123c0 66 -46 123 -115 123s-115 -57 -115 -123c0 -67 46 -123 115 -123zM615 615v-82h-45v-533h-153v68c-23 -44 -85 -80 -147 -80c-139 0 -235 109 -235 253s96 253 235 253c62 0 124 -37 147 -81v120h-107v82h107v85h153v-85h45z" />
    <glyph glyph-name="ecaron" unicode="&#x11b;" horiz-adv-x="577" 
d="M290 526l-195 165l77 82l119 -108l120 109l76 -83zM533 204h-347c3 -58 27 -107 107 -107c53 0 79 24 89 55h150c-14 -91 -100 -165 -238 -165c-169 0 -260 105 -260 254c0 141 89 254 256 254c151 0 248 -102 248 -220c0 -20 0 -42 -5 -71zM289 393
c-60 0 -103 -36 -103 -101h202c0 62 -41 101 -99 101z" />
    <glyph glyph-name="emacron" unicode="&#x113;" horiz-adv-x="577" 
d="M479 687v-114h-368v114h368zM533 204h-347c3 -58 27 -107 107 -107c53 0 79 24 89 55h150c-14 -91 -100 -165 -238 -165c-169 0 -260 105 -260 254c0 141 89 254 256 254c151 0 248 -102 248 -220c0 -20 0 -42 -5 -71zM289 393c-60 0 -103 -36 -103 -101h202
c0 62 -41 101 -99 101z" />
    <glyph glyph-name="ebreve" unicode="&#x115;" horiz-adv-x="577" 
d="M291 652c51 0 80 31 91 72h123c-16 -104 -106 -172 -214 -172c-110 0 -198 68 -214 172h123c11 -41 40 -72 91 -72zM533 204h-347c3 -58 27 -107 107 -107c53 0 79 24 89 55h150c-14 -91 -100 -165 -238 -165c-169 0 -260 105 -260 254c0 141 89 254 256 254
c151 0 248 -102 248 -220c0 -20 0 -42 -5 -71zM289 393c-60 0 -103 -36 -103 -101h202c0 62 -41 101 -99 101z" />
    <glyph glyph-name="edotaccent" unicode="&#x117;" horiz-adv-x="577" 
d="M194 629c0 52 41 94 94 94s95 -42 95 -94c0 -51 -42 -93 -95 -93s-94 42 -94 93zM533 204h-347c3 -58 27 -107 107 -107c53 0 79 24 89 55h150c-14 -91 -100 -165 -238 -165c-169 0 -260 105 -260 254c0 141 89 254 256 254c151 0 248 -102 248 -220c0 -20 0 -42 -5 -71z
M289 393c-60 0 -103 -36 -103 -101h202c0 62 -41 101 -99 101z" />
    <glyph glyph-name="eogonek" unicode="&#x119;" horiz-adv-x="577" 
d="M397 -119l-2 -78c-26 -9 -57 -15 -95 -15c-85 0 -125 44 -125 97c0 40 21 72 66 106c-135 21 -207 123 -207 250c0 141 89 254 256 254c151 0 248 -102 248 -220c0 -20 0 -42 -5 -71h-345c0 -58 27 -107 105 -107c53 0 78 24 89 55h150c-14 -81 -83 -149 -196 -162
c-21 -16 -41 -36 -41 -68c0 -28 17 -53 46 -53c16 0 37 4 56 12zM289 393c-60 0 -103 -36 -103 -101h202c0 62 -41 101 -99 101z" />
    <glyph glyph-name="gcircumflex" unicode="&#x11d;" horiz-adv-x="633" 
d="M110 617l195 164l197 -164l-76 -84l-120 107l-119 -106zM302 364c-68 0 -114 -57 -114 -123c0 -67 46 -123 114 -123c70 0 116 56 116 123c0 66 -46 123 -116 123zM571 482v-479c0 -87 -26 -145 -75 -182c-46 -35 -107 -52 -196 -52c-90 0 -149 22 -189 56
c-42 35 -68 85 -70 138h153c4 -41 40 -81 106 -81c72 0 118 34 118 109v81c-26 -44 -85 -75 -147 -75c-139 0 -236 101 -236 244c0 144 93 253 234 253c61 0 122 -30 149 -81v69h153z" />
    <glyph glyph-name="gbreve" unicode="&#x11f;" horiz-adv-x="633" 
d="M309 652c51 0 80 31 92 72h122c-16 -104 -106 -172 -214 -172c-110 0 -197 68 -214 172h123c11 -41 40 -72 91 -72zM302 364c-68 0 -114 -57 -114 -123c0 -67 46 -123 114 -123c70 0 116 56 116 123c0 66 -46 123 -116 123zM571 482v-479c0 -87 -26 -145 -75 -182
c-46 -35 -107 -52 -196 -52c-90 0 -149 22 -189 56c-42 35 -68 85 -70 138h153c4 -41 40 -81 106 -81c72 0 118 34 118 109v81c-26 -44 -85 -75 -147 -75c-139 0 -236 101 -236 244c0 144 93 253 234 253c61 0 122 -30 149 -81v69h153z" />
    <glyph glyph-name="gdotaccent" unicode="&#x121;" horiz-adv-x="633" 
d="M199 628c0 52 42 95 94 95c54 0 96 -43 96 -95c0 -50 -42 -93 -96 -93c-52 0 -94 43 -94 93zM302 364c-68 0 -114 -57 -114 -123c0 -67 46 -123 114 -123c70 0 116 56 116 123c0 66 -46 123 -116 123zM571 482v-479c0 -87 -26 -145 -75 -182c-46 -35 -107 -52 -196 -52
c-90 0 -149 22 -189 56c-42 35 -68 85 -70 138h153c4 -41 40 -81 106 -81c72 0 118 34 118 109v81c-26 -44 -85 -75 -147 -75c-139 0 -236 101 -236 244c0 144 93 253 234 253c61 0 122 -30 149 -81v69h153z" />
    <glyph glyph-name="gcommaaccent" unicode="&#x123;" horiz-adv-x="633" 
d="M386 626c0 -50 -40 -91 -89 -91c-61 0 -101 47 -101 115c0 136 68 185 185 186v-56c-37 0 -64 -9 -80 -23c-18 -14 -26 -32 -28 -50c2 3 14 7 24 7c54 0 89 -40 89 -88zM302 364c-68 0 -114 -57 -114 -123c0 -67 46 -123 114 -123c70 0 116 56 116 123
c0 66 -46 123 -116 123zM571 482v-479c0 -87 -26 -145 -75 -182c-46 -35 -107 -52 -196 -52c-90 0 -149 22 -189 56c-42 35 -68 85 -70 138h153c4 -41 40 -81 106 -81c72 0 118 34 118 109v81c-26 -44 -85 -75 -147 -75c-139 0 -236 101 -236 244c0 144 93 253 234 253
c61 0 122 -30 149 -81v69h153z" />
    <glyph glyph-name="hcircumflex" unicode="&#x125;" horiz-adv-x="597" 
d="M104 820l195 164l197 -164l-76 -84l-120 107l-120 -106zM65 0v700h148v-288c27 50 82 82 156 82c62 0 105 -21 131 -55c30 -37 39 -85 39 -154v-285h-148v247c0 69 -21 117 -85 117c-62 0 -93 -48 -93 -122v-242h-148z" />
    <glyph glyph-name="hbar" unicode="&#x127;" horiz-adv-x="597" 
d="M347 615v-82h-134v-121c27 50 82 82 156 82c62 0 105 -21 131 -55c30 -37 39 -85 39 -154v-285h-148v247c0 69 -21 117 -85 117c-62 0 -93 -48 -93 -122v-242h-148v533h-66v82h66v85h148v-85h134z" />
    <glyph glyph-name="itilde" unicode="&#x129;" horiz-adv-x="283" 
d="M212 680c33 0 52 20 70 46l80 -71c-37 -58 -91 -83 -143 -83c-74 0 -111 47 -152 47c-33 0 -50 -19 -68 -46l-78 77c37 54 88 76 140 76c74 0 109 -46 151 -46zM65 0v482h153v-482h-153z" />
    <glyph glyph-name="imacron" unicode="&#x12b;" horiz-adv-x="283" 
d="M325 687v-115h-368v115h368zM65 0v482h153v-482h-153z" />
    <glyph glyph-name="ibreve" unicode="&#x12d;" horiz-adv-x="283" 
d="M143 652c51 0 80 31 91 72h123c-17 -104 -106 -172 -214 -172c-110 0 -198 68 -214 172h122c12 -41 41 -72 92 -72zM65 0v482h153v-482h-153z" />
    <glyph glyph-name="iogonek" unicode="&#x12f;" horiz-adv-x="283" 
d="M43 642c0 54 43 97 98 97c56 0 99 -43 99 -97c0 -53 -43 -97 -99 -97c-55 0 -98 44 -98 97zM239 -119l-2 -78c-26 -9 -57 -15 -95 -15c-86 0 -126 44 -126 97c0 43 26 77 79 115h-30v482h153v-482h-25c-27 -18 -56 -39 -56 -78c0 -28 17 -53 46 -53c16 0 37 4 56 12z" />
    <glyph glyph-name="jcircumflex" unicode="&#x135;" horiz-adv-x="283" 
d="M-53 617l195 164l197 -164l-76 -84l-120 107l-119 -106zM218 482v-557c0 -126 -59 -155 -129 -155c-39 0 -84 6 -103 12v114c18 -5 27 -6 39 -6c27 0 40 13 40 48v544h153z" />
    <glyph glyph-name="kcommaaccent" unicode="&#x137;" horiz-adv-x="554" 
d="M367 482h182l-188 -241l187 -241h-182l-148 202v-202h-153v700h153v-422zM197 -93c0 42 34 77 75 77c51 0 87 -41 87 -98c0 -116 -60 -158 -159 -159v48c33 0 55 8 70 20c14 11 21 27 22 42c-2 -2 -11 -6 -20 -6c-46 0 -75 34 -75 76z" />
    <glyph glyph-name="lacute" unicode="&#x13a;" horiz-adv-x="283" 
d="M304 875l-276 -128l-48 106l276 128zM65 0v700h153v-700h-153z" />
    <glyph glyph-name="lcaron" unicode="&#x13e;" horiz-adv-x="492" 
d="M280 643c0 54 42 97 94 97c65 0 108 -50 108 -122c0 -145 -73 -197 -198 -198v59c41 0 68 10 86 25s27 34 29 53c-2 -3 -14 -7 -25 -7c-58 0 -94 42 -94 93zM65 0v700h153v-700h-153z" />
    <glyph glyph-name="lcommaaccent" unicode="&#x13c;" horiz-adv-x="283" 
d="M65 0v700h153v-700h-153zM61 -93c0 42 34 77 75 77c51 0 87 -41 87 -98c0 -116 -60 -158 -159 -159v48c33 0 55 8 70 20c14 11 21 27 22 42c-2 -2 -11 -6 -20 -6c-46 0 -75 34 -75 76z" />
    <glyph glyph-name="ldot" unicode="&#x140;" horiz-adv-x="440" 
d="M65 0v700h153v-700h-153zM261 344c0 55 45 100 101 100c57 0 102 -45 102 -100s-45 -100 -102 -100c-56 0 -101 45 -101 100z" />
    <glyph glyph-name="nacute" unicode="&#x144;" horiz-adv-x="607" 
d="M466 637l-276 -128l-49 106l276 128zM65 0v482h153v-70c27 52 83 82 158 82c62 0 109 -21 135 -55c30 -37 38 -84 38 -153v-286h-153v247c0 69 -21 117 -85 117c-62 0 -93 -48 -93 -122v-242h-153z" />
    <glyph glyph-name="ncaron" unicode="&#x148;" horiz-adv-x="607" 
d="M312 526l-195 165l77 82l119 -108l120 109l76 -83zM218 0h-153v482h153v-70c27 52 83 82 158 82c62 0 109 -21 135 -55c30 -37 38 -84 38 -153v-286h-153v247c0 69 -21 117 -85 117c-62 0 -93 -48 -93 -122v-242z" />
    <glyph glyph-name="ncommaaccent" unicode="&#x146;" horiz-adv-x="607" 
d="M218 0h-153v482h153v-70c27 52 83 82 158 82c62 0 109 -21 135 -55c30 -37 38 -84 38 -153v-286h-153v247c0 69 -21 117 -85 117c-62 0 -93 -48 -93 -122v-242zM233 -93c0 42 34 77 75 77c51 0 87 -41 87 -98c0 -116 -60 -158 -159 -159v48c33 0 55 8 70 20
c14 11 21 27 22 42c-2 -2 -11 -6 -20 -6c-46 0 -75 34 -75 76z" />
    <glyph glyph-name="napostrophe" unicode="&#x149;" horiz-adv-x="607" 
d="M-83 718c0 45 36 82 81 82c54 0 92 -43 92 -105c0 -123 -64 -167 -169 -169v52c34 0 57 8 73 20c16 13 23 29 25 45c-2 -2 -13 -6 -21 -6c-50 0 -81 37 -81 81zM218 0h-153v482h153v-70c27 52 83 82 158 82c62 0 109 -21 135 -55c30 -37 38 -84 38 -153v-286h-153v247
c0 69 -21 117 -85 117c-62 0 -93 -48 -93 -122v-242z" />
    <glyph glyph-name="omacron" unicode="&#x14d;" horiz-adv-x="599" 
d="M484 687v-115h-368v115h368zM299 -13c-166 0 -267 116 -267 254s101 254 267 254c168 0 268 -116 268 -254s-100 -254 -268 -254zM299 118c70 0 116 55 116 123c0 67 -46 123 -116 123c-69 0 -114 -56 -114 -123c0 -68 45 -123 114 -123z" />
    <glyph glyph-name="obreve" unicode="&#x14f;" horiz-adv-x="599" 
d="M299 652c51 0 80 31 91 72h123c-16 -104 -106 -172 -214 -172c-110 0 -198 68 -214 172h123c11 -41 40 -72 91 -72zM299 -13c-166 0 -267 116 -267 254s101 254 267 254c168 0 268 -116 268 -254s-100 -254 -268 -254zM299 118c70 0 116 55 116 123
c0 67 -46 123 -116 123c-69 0 -114 -56 -114 -123c0 -68 45 -123 114 -123z" />
    <glyph glyph-name="ohungarumlaut" unicode="&#x151;" horiz-adv-x="599" 
d="M549 693l-169 -146l-62 28l125 179zM123 575l125 179l106 -61l-169 -146zM299 -13c-166 0 -267 116 -267 254s101 254 267 254c168 0 268 -116 268 -254s-100 -254 -268 -254zM299 118c70 0 116 55 116 123c0 67 -46 123 -116 123c-69 0 -114 -56 -114 -123
c0 -68 45 -123 114 -123z" />
    <glyph glyph-name="oslashacute" unicode="&#x1ff;" horiz-adv-x="599" 
d="M461 637l-276 -128l-48 106l276 128zM185 241c0 -37 12 -69 35 -92l94 213c-5 1 -10 2 -15 2c-69 0 -114 -56 -114 -123zM299 118c70 0 116 55 116 123c0 38 -15 72 -41 95l-95 -217c6 -1 13 -1 20 -1zM462 535l-31 -70c87 -43 136 -128 136 -224
c0 -138 -100 -254 -268 -254c-27 0 -52 3 -75 9l-32 -74l-60 26l30 72c-83 43 -130 127 -130 221c0 138 101 254 267 254c25 0 48 -3 70 -8l32 74z" />
    <glyph glyph-name="racute" unicode="&#x155;" horiz-adv-x="417" 
d="M371 650l-276 -128l-48 106l276 128zM411 482v-139c-21 5 -33 7 -54 7c-84 0 -139 -44 -139 -162v-188h-153v482h153v-78c22 45 80 86 147 86c19 0 32 -2 46 -8z" />
    <glyph glyph-name="rcaron" unicode="&#x159;" horiz-adv-x="417" 
d="M232 526l-195 165l77 82l119 -108l120 109l76 -83zM411 482v-139c-21 5 -33 7 -54 7c-84 0 -139 -44 -139 -162v-188h-153v482h153v-78c22 45 80 86 147 86c19 0 32 -2 46 -8z" />
    <glyph glyph-name="rcommaaccent" unicode="&#x157;" horiz-adv-x="417" 
d="M411 482v-139c-21 5 -33 7 -54 7c-84 0 -139 -44 -139 -162v-188h-153v482h153v-78c22 45 80 86 147 86c19 0 32 -2 46 -8zM61 -93c0 43 34 77 75 77c51 0 87 -40 87 -98c0 -116 -60 -157 -159 -158v48c33 0 55 7 70 19c14 12 21 27 22 43c-2 -3 -11 -7 -20 -7
c-46 0 -75 35 -75 76z" />
    <glyph glyph-name="sacute" unicode="&#x15b;" horiz-adv-x="510" 
d="M417 637l-276 -128l-48 106l276 128zM318 284c85 -25 155 -48 155 -142c0 -114 -98 -155 -218 -155c-137 0 -222 63 -222 175l150 -1c0 -51 32 -71 77 -71c37 0 63 13 63 45c0 37 -38 42 -129 72c-80 25 -149 48 -149 141c0 100 83 147 213 147c140 0 208 -71 208 -163
h-151c0 40 -21 63 -63 63c-31 0 -57 -14 -57 -43c0 -35 42 -41 123 -68z" />
    <glyph glyph-name="scircumflex" unicode="&#x15d;" horiz-adv-x="510" 
d="M61 617l195 164l197 -164l-76 -84l-120 107l-120 -106zM318 284c85 -25 155 -48 155 -142c0 -114 -98 -155 -218 -155c-137 0 -222 63 -222 175l150 -1c0 -51 32 -71 77 -71c37 0 63 13 63 45c0 37 -38 42 -129 72c-80 25 -149 48 -149 141c0 100 83 147 213 147
c140 0 208 -71 208 -163h-151c0 40 -21 63 -63 63c-31 0 -57 -14 -57 -43c0 -35 42 -41 123 -68z" />
    <glyph glyph-name="scedilla" unicode="&#x15f;" horiz-adv-x="510" 
d="M205 -114v105c-109 14 -172 74 -172 171l150 -1c0 -51 32 -71 77 -71c37 0 63 13 63 45c0 37 -38 42 -129 72c-80 25 -149 48 -149 141c0 100 83 147 213 147c140 0 208 -71 208 -163h-151c0 40 -21 63 -63 63c-31 0 -57 -14 -57 -43c0 -35 42 -41 123 -68
c85 -25 155 -48 155 -142c0 -105 -83 -147 -190 -153v-46c8 8 21 15 42 15c44 0 83 -38 83 -89s-36 -101 -109 -101c-37 0 -100 19 -108 93h74c4 -18 16 -30 34 -30c20 0 35 15 35 38c0 20 -15 34 -34 34c-15 0 -24 -6 -30 -17h-65z" />
    <glyph glyph-name="scommaaccent" unicode="&#x219;" horiz-adv-x="510" 
d="M33 162l150 -1c0 -51 32 -71 77 -71c37 0 63 13 63 45c0 37 -38 42 -129 72c-80 25 -149 48 -149 141c0 100 83 147 213 147c140 0 208 -71 208 -163h-151c0 40 -21 63 -63 63c-31 0 -57 -14 -57 -43c0 -35 42 -41 123 -68c85 -25 155 -48 155 -142
c0 -114 -98 -155 -218 -155c-137 0 -222 63 -222 175zM176 -95c0 43 34 77 76 77c51 0 86 -40 86 -98c0 -116 -59 -157 -158 -158v48c33 0 54 7 69 19s22 27 23 43c-2 -3 -12 -7 -20 -7c-46 0 -76 35 -76 76z" />
    <glyph glyph-name="tcaron" unicode="&#x165;" horiz-adv-x="635" 
d="M379 628c0 53 42 97 95 97c64 0 107 -50 107 -123c0 -145 -72 -197 -197 -198v60c41 0 68 10 86 25s27 34 29 53c-3 -3 -14 -7 -25 -7c-58 0 -95 42 -95 93zM17 368v114h76v143h152v-143h110v-114h-110v-172c0 -71 28 -82 66 -82c19 0 41 1 55 3v-117
c-23 -4 -57 -8 -102 -8c-72 0 -171 9 -171 170v206h-76z" />
    <glyph glyph-name="tcommaaccent" unicode="&#x163;" horiz-adv-x="383" 
d="M17 368v114h76v143h152v-143h110v-114h-110v-172c0 -71 28 -82 66 -82c19 0 41 1 55 3v-117c-23 -4 -57 -8 -102 -8c-72 0 -171 9 -171 170v206h-76zM143 -93c0 42 34 77 75 77c51 0 87 -41 87 -98c0 -116 -60 -158 -159 -159v48c33 0 55 8 70 20c14 11 21 27 22 42
c-2 -2 -11 -6 -20 -6c-46 0 -75 34 -75 76z" />
    <glyph glyph-name="tbar" unicode="&#x167;" horiz-adv-x="383" 
d="M366 117v-117c-23 -4 -57 -8 -102 -8c-72 0 -171 9 -171 170v47h-76v82h76v77h-76v114h76v143h152v-143h110v-114h-110v-77h91v-82h-89v-19c0 -67 28 -76 64 -76c19 0 41 1 55 3z" />
    <glyph glyph-name="uni021B" unicode="&#x21b;" horiz-adv-x="383" 
d="M17 368v114h76v143h152v-143h110v-114h-110v-172c0 -71 28 -82 66 -82c19 0 41 1 55 3v-117c-23 -4 -57 -8 -102 -8c-72 0 -171 9 -171 170v206h-76zM141 -93c0 42 34 77 76 77c51 0 86 -41 86 -98c0 -116 -59 -158 -158 -159v48c32 0 54 8 69 20c14 11 21 27 23 42
c-2 -2 -12 -6 -20 -6c-47 0 -76 34 -76 76z" />
    <glyph glyph-name="utilde" unicode="&#x169;" horiz-adv-x="607" 
d="M374 680c33 0 52 20 70 46l80 -71c-37 -58 -91 -83 -143 -83c-74 0 -111 47 -152 47c-33 0 -50 -19 -68 -46l-78 77c37 54 88 76 140 76c74 0 109 -46 151 -46zM542 482v-482h-153v69c-27 -51 -83 -81 -158 -81c-62 0 -109 21 -135 55c-30 37 -37 84 -37 153v286h152
v-247c0 -69 21 -117 85 -117c63 0 93 48 93 122v242h153z" />
    <glyph glyph-name="umacron" unicode="&#x16b;" horiz-adv-x="607" 
d="M487 687v-115h-368v115h368zM542 482v-482h-153v69c-27 -51 -83 -81 -158 -81c-62 0 -109 21 -135 55c-30 37 -37 84 -37 153v286h152v-247c0 -69 21 -117 85 -117c63 0 93 48 93 122v242h153z" />
    <glyph glyph-name="ubreve" unicode="&#x16d;" horiz-adv-x="607" 
d="M302 652c51 0 80 31 91 72h123c-16 -104 -106 -172 -214 -172c-110 0 -198 68 -214 172h123c11 -41 40 -72 91 -72zM542 482v-482h-153v69c-27 -51 -83 -81 -158 -81c-62 0 -109 21 -135 55c-30 37 -37 84 -37 153v286h152v-247c0 -69 21 -117 85 -117c63 0 93 48 93 122
v242h153z" />
    <glyph glyph-name="uring" unicode="&#x16f;" horiz-adv-x="607" 
d="M300 804c77 0 138 -63 138 -138c0 -74 -61 -138 -138 -138c-76 0 -138 64 -138 138c0 77 62 138 138 138zM300 726c-33 0 -58 -27 -58 -60c0 -31 26 -57 58 -57s58 26 58 59c0 31 -24 58 -58 58zM542 482v-482h-153v69c-27 -51 -83 -81 -158 -81c-62 0 -109 21 -135 55
c-30 37 -37 84 -37 153v286h152v-247c0 -69 21 -117 85 -117c63 0 93 48 93 122v242h153z" />
    <glyph glyph-name="uhungarumlaut" unicode="&#x171;" horiz-adv-x="607" 
d="M547 677l-169 -146l-62 28l125 180zM352 677l-169 -146l-62 28l125 180zM389 482h153v-482h-153v69c-27 -51 -83 -81 -158 -81c-62 0 -109 21 -135 55c-30 37 -37 84 -37 153v286h152v-247c0 -69 21 -117 85 -117c63 0 93 48 93 122v242z" />
    <glyph glyph-name="uogonek" unicode="&#x173;" horiz-adv-x="607" 
d="M231 -12c-62 0 -109 21 -135 55c-30 37 -37 84 -37 153v286h152v-247c0 -69 21 -117 85 -117c63 0 93 48 93 122v242h153v-482h-55c-30 -19 -63 -43 -63 -85c0 -24 16 -46 43 -46c16 0 37 4 56 12l-2 -78c-26 -9 -57 -15 -95 -15c-88 0 -129 44 -129 97
c0 44 31 79 92 118v66c-27 -51 -83 -81 -158 -81z" />
    <glyph glyph-name="wgrave" unicode="&#x1e81;" horiz-adv-x="803" 
d="M515 509l-276 128l49 106l276 -128zM500 0l-98 307l-99 -307h-124l-180 482h158l89 -287l85 287h141l85 -287l89 287h158l-180 -482h-124z" />
    <glyph glyph-name="wacute" unicode="&#x1e83;" horiz-adv-x="803" 
d="M564 637l-276 -128l-49 106l276 128zM500 0l-98 307l-99 -307h-124l-180 482h158l89 -287l85 287h141l85 -287l89 287h158l-180 -482h-124z" />
    <glyph glyph-name="wcircumflex" unicode="&#x175;" horiz-adv-x="803" 
d="M208 617l196 164l196 -164l-76 -84l-120 107l-119 -106zM500 0l-98 307l-99 -307h-124l-180 482h158l89 -287l85 287h141l85 -287l89 287h158l-180 -482h-124z" />
    <glyph glyph-name="wdieresis" unicode="&#x1e85;" horiz-adv-x="803" 
d="M189 629c0 51 40 92 91 92c53 0 93 -41 93 -92c0 -49 -40 -90 -93 -90c-51 0 -91 41 -91 90zM430 629c0 51 40 92 91 92c52 0 92 -41 92 -92c0 -49 -40 -90 -92 -90c-51 0 -91 41 -91 90zM500 0l-98 307l-99 -307h-124l-180 482h158l89 -287l85 287h141l85 -287l89 287
h158l-180 -482h-124z" />
    <glyph glyph-name="ygrave" unicode="&#x1ef3;" horiz-adv-x="615" 
d="M421 509l-276 128l48 106l276 -128zM303 -231c-78 0 -135 15 -178 50c-38 31 -66 79 -66 144h153c3 -54 42 -84 93 -84c59 0 94 24 94 99v99c-27 -52 -81 -81 -154 -81c-64 0 -113 24 -139 58c-30 37 -37 80 -37 149v279h152v-247c0 -69 21 -117 85 -117
c63 0 93 48 93 122v242h153v-494c0 -76 -26 -133 -66 -167c-44 -36 -99 -52 -183 -52z" />
    <glyph glyph-name="ycircumflex" unicode="&#x177;" horiz-adv-x="615" 
d="M113 617l196 164l196 -164l-76 -84l-120 107l-119 -106zM303 -231c-78 0 -135 15 -178 50c-38 31 -66 79 -66 144h153c3 -54 42 -84 93 -84c59 0 94 24 94 99v99c-27 -52 -81 -81 -154 -81c-64 0 -113 24 -139 58c-30 37 -37 80 -37 149v279h152v-247
c0 -69 21 -117 85 -117c63 0 93 48 93 122v242h153v-494c0 -76 -26 -133 -66 -167c-44 -36 -99 -52 -183 -52z" />
    <glyph glyph-name="zacute" unicode="&#x17a;" horiz-adv-x="480" 
d="M403 636l-276 -128l-49 106l276 128zM31 482h436l-212 -352h205v-130h-442l213 352h-200v130z" />
    <glyph glyph-name="zdotaccent" unicode="&#x17c;" horiz-adv-x="480" 
d="M146 629c0 52 41 94 94 94s95 -42 95 -94c0 -51 -42 -93 -95 -93s-94 42 -94 93zM31 482h436l-212 -352h205v-130h-442l213 352h-200v130z" />
    <glyph glyph-name="eng" unicode="&#x14b;" horiz-adv-x="607" 
d="M190 -171l59 95c20 -19 36 -32 65 -32c54 0 81 42 82 102v253c0 69 -21 117 -85 117c-62 0 -93 -48 -93 -122v-242h-153v482h153v-70c27 52 83 82 158 82c62 0 109 -21 135 -55c30 -37 38 -84 38 -153v-298c0 -141 -77 -219 -208 -219c-65 0 -114 24 -151 60z" />
    <glyph glyph-name="kgreenlandic" unicode="&#x138;" horiz-adv-x="554" 
d="M549 482l-188 -241l187 -241h-182l-148 202v-202h-153v482h153v-204l149 204h182z" />
    <glyph glyph-name="longs" unicode="&#x17f;" horiz-adv-x="380" 
d="M368 698v-110c-16 4 -29 6 -47 6c-34 0 -66 -5 -66 -61v-533h-152v368h-87v114h87v42c0 175 106 187 182 187c36 0 65 -6 83 -13z" />
    <glyph glyph-name="commaaccent" unicode="&#xf6c3;" horiz-adv-x="243" 
d="M44 46c0 43 34 77 75 77c51 0 87 -40 87 -98c0 -116 -60 -157 -159 -158v48c33 0 55 7 70 19c14 12 21 27 22 43c-2 -3 -11 -7 -20 -7c-46 0 -75 35 -75 76z" />
    <glyph glyph-name="commaturn" horiz-adv-x="243" 
d="M205 635c0 -42 -34 -77 -76 -77c-51 0 -86 41 -86 98c0 116 59 158 158 159v-48c-32 0 -54 -8 -68 -20c-15 -11 -21 -27 -24 -42c2 2 12 6 20 6c47 0 76 -34 76 -76z" />
    <glyph glyph-name="softhyphen" unicode="&#xad;" horiz-adv-x="294" 
d="M264 333v-97h-234v97h234z" />
    <glyph glyph-name="apostrophemod" unicode="&#x2bc;" horiz-adv-x="283" 
d="M60 662c0 43 34 78 77 78c52 0 86 -40 86 -99c0 -117 -58 -159 -159 -160v49c33 0 55 8 69 20c15 12 22 27 24 42c-2 -2 -12 -5 -20 -5c-47 0 -77 33 -77 75z" />
    <glyph glyph-name="Euro" unicode="&#x20ac;" horiz-adv-x="630" 
d="M442 236h162c0 -136 -105 -251 -268 -251s-266 116 -266 251h-62l20 88h42v52h-62l20 88h42c0 135 103 251 266 251c157 0 259 -105 267 -233h-162c-7 54 -46 96 -105 96c-64 0 -104 -52 -104 -114h171l-20 -88h-151v-52h171l-20 -88h-151c0 -62 40 -114 104 -114
c65 0 106 52 106 114z" />
    <glyph glyph-name="uni00B5" unicode="&#xb5;" 
d="M65 -218v700h152v-249c1 -68 22 -115 85 -115s93 48 93 122v242h153v-482h-153v69c-25 -46 -73 -74 -137 -79c-15 0 -29 2 -41 6v-214h-152z" />
    <glyph glyph-name="uni2206" unicode="&#x2206;" horiz-adv-x="660" 
d="M403 700l253 -700h-652l250 700h149zM329 500l-111 -373h220z" />
    <glyph glyph-name="uni2126" unicode="&#x2126;" horiz-adv-x="723" 
d="M362 567c-106 0 -161 -79 -161 -169c0 -85 40 -160 129 -180v-218h-275v127h150v15c-105 48 -166 147 -166 262c0 162 122 308 323 308c200 0 322 -146 322 -308c0 -115 -61 -215 -166 -262v-15h150v-127h-275v218c89 20 129 95 129 180c0 90 -54 169 -160 169z" />
    <glyph glyph-name="zero.slash" 
d="M306 -15c-164 0 -266 115 -266 250v230c0 135 102 250 266 250c163 0 268 -115 268 -250v-230c0 -135 -105 -250 -268 -250zM201 285c0 -12 2 -30 6 -40l139 324c-12 6 -26 9 -40 9c-62 0 -102 -48 -104 -107c-1 -2 -1 -186 -1 -186zM409 447l-138 -319
c10 -4 23 -6 35 -6c64 0 106 52 106 113v171c0 9 -1 32 -3 41z" />
    <glyph glyph-name="zero.tlfslash" 
d="M40 235v230c0 135 102 250 266 250c163 0 268 -115 268 -250v-230c0 -135 -105 -250 -268 -250c-164 0 -266 115 -266 250zM201 309c0 -12 2 -54 6 -64l139 324c-12 6 -26 9 -40 9c-62 0 -102 -48 -104 -107c-1 -2 -1 -160 -1 -162zM412 235v171c0 9 -1 32 -3 41
l-138 -319c10 -4 23 -6 35 -6c64 0 106 52 106 113z" />
    <glyph glyph-name="zero.tlf" 
d="M40 235v230c0 135 102 250 266 250c163 0 268 -115 268 -250v-230c0 -135 -105 -250 -268 -250c-164 0 -266 115 -266 250zM412 235v230c0 61 -42 113 -106 113s-105 -52 -105 -113v-230c0 -61 41 -113 105 -113s106 52 106 113z" />
    <glyph glyph-name="one.tlf" 
d="M92 463v114h47c101 0 150 42 160 123h142v-700h-164v463h-185z" />
    <glyph glyph-name="two.tlf" 
d="M67 0c0 227 77 295 185 362c82 49 147 82 147 152c0 56 -35 79 -80 79c-50 0 -89 -29 -89 -102h-161c0 127 90 224 249 224c129 0 240 -64 240 -212c0 -118 -114 -189 -183 -230c-96 -64 -122 -86 -122 -142h300v-131h-486z" />
    <glyph glyph-name="three.tlf" 
d="M41 235h161c0 -76 43 -120 106 -120c60 0 92 44 92 92c0 58 -27 97 -103 97h-63v125h63c73 0 94 35 94 86c0 53 -33 78 -80 78c-69 0 -89 -41 -89 -102h-162c0 119 73 224 246 224c130 0 245 -65 245 -196c0 -79 -48 -136 -104 -155c63 -23 115 -80 115 -169
c0 -133 -119 -210 -252 -210c-173 0 -269 102 -269 250z" />
    <glyph glyph-name="four.tlf" 
d="M334 0v193h-279v507h161v-370h118v193h162v-193h84v-137h-84v-193h-162z" />
    <glyph glyph-name="five.tlf" 
d="M55 295v405h473v-126h-324v-156c27 43 90 64 142 64c155 0 229 -120 229 -242c0 -139 -101 -255 -269 -255c-166 0 -267 116 -267 253h157c0 -65 43 -119 110 -119c69 0 112 55 112 121c0 63 -42 119 -111 119c-48 0 -80 -22 -101 -64h-151z" />
    <glyph glyph-name="six.tlf" 
d="M305 -14c-166 0 -267 116 -267 254c0 53 16 103 43 145l202 315h182l-140 -210c3 1 7 1 10 1c148 -10 238 -121 238 -251c0 -138 -100 -254 -268 -254zM305 121c68 0 112 54 112 119c0 66 -44 119 -112 119c-67 0 -110 -53 -110 -119c0 -65 43 -119 110 -119z" />
    <glyph glyph-name="seven.tlf" 
d="M75 700h503l-298 -700h-173l243 564h-275v136z" />
    <glyph glyph-name="eight.tlf" 
d="M300 -15c-166 0 -263 97 -263 215c0 75 46 146 113 165c-60 23 -96 85 -96 149c0 110 90 201 246 201s246 -92 246 -201c0 -64 -36 -126 -96 -149c67 -21 113 -92 113 -166c0 -114 -96 -214 -263 -214zM300 419c58 0 92 41 92 87s-34 87 -92 87s-92 -40 -92 -87
c0 -46 34 -87 92 -87zM300 107c67 0 106 46 106 96s-38 97 -106 97c-69 0 -107 -45 -107 -97c0 -51 40 -96 107 -96z" />
    <glyph glyph-name="nine.tlf" 
d="M306 714c167 0 267 -116 267 -254c0 -54 -16 -103 -43 -145l-202 -315h-182l140 209h-10c-148 10 -238 121 -238 251c0 138 101 254 268 254zM306 579c-67 0 -111 -54 -111 -119c0 -66 44 -119 111 -119s111 53 111 119c0 65 -44 119 -111 119z" />
    <glyph glyph-name="zerosuperior" unicode="&#x2070;" horiz-adv-x="413" 
d="M52 445v125c0 75 58 139 154 139c95 0 156 -64 156 -139v-125c0 -75 -61 -139 -156 -139c-96 0 -154 64 -154 139zM255 445v125c0 28 -19 52 -49 52c-29 0 -47 -24 -47 -52v-125c0 -28 18 -52 47 -52c30 0 49 24 49 52z" />
    <glyph glyph-name="foursuperior" unicode="&#x2074;" horiz-adv-x="416" 
d="M222 315v100h-163v285h107v-197h56v100h106v-100h43v-88h-43v-100h-106z" />
    <glyph glyph-name="fivesuperior" unicode="&#x2075;" horiz-adv-x="420" 
d="M65 476v224h279v-78h-179v-72c14 21 44 32 75 32c87 0 126 -69 126 -132c0 -79 -56 -144 -155 -144c-100 0 -156 65 -156 142h103c0 -31 20 -57 53 -57c32 0 53 26 53 59c0 29 -20 56 -53 56c-26 0 -39 -11 -49 -30h-97z" />
    <glyph glyph-name="sixsuperior" unicode="&#x2076;" horiz-adv-x="402" 
d="M200 307c-99 0 -155 65 -155 143c0 29 7 57 22 80l112 170h120l-74 -110c12 -3 23 -7 33 -11c62 -17 98 -68 98 -129c0 -78 -57 -143 -156 -143zM200 393c33 0 53 25 53 57c0 31 -20 56 -53 56c-32 0 -53 -25 -53 -56c0 -32 21 -57 53 -57z" />
    <glyph glyph-name="sevensuperior" unicode="&#x2077;" horiz-adv-x="372" 
d="M48 700h299l-164 -385h-115l127 297h-147v88z" />
    <glyph glyph-name="eightsuperior" unicode="&#x2078;" horiz-adv-x="410" 
d="M205 306c-98 0 -154 53 -154 118c0 44 31 82 66 91c-31 11 -56 44 -56 83c0 61 52 111 144 111s144 -50 144 -111c0 -39 -24 -72 -56 -83c35 -11 66 -47 66 -91c0 -64 -56 -118 -154 -118zM205 551c28 0 44 20 44 42s-16 42 -44 42s-44 -20 -44 -42s16 -42 44 -42z
M205 380c32 0 51 23 51 47c0 25 -18 47 -51 47s-51 -21 -51 -47c0 -25 19 -47 51 -47z" />
    <glyph glyph-name="ninesuperior" unicode="&#x2079;" horiz-adv-x="402" 
d="M223 315h-119l74 110c-83 9 -132 67 -132 140c0 78 57 143 156 143c98 0 156 -65 156 -143c0 -30 -8 -57 -24 -80zM202 622c-32 0 -53 -25 -53 -57c0 -31 21 -56 53 -56s53 25 53 56c0 32 -21 57 -53 57z" />
    <glyph glyph-name="plussuperior" unicode="&#x207a;" horiz-adv-x="410" 
d="M245 349h-80v84h-82v77h82v84h80v-84h82v-77h-82v-84z" />
    <glyph glyph-name="minussuperior" unicode="&#x207b;" horiz-adv-x="410" 
d="M327 433h-244v77h244v-77z" />
    <glyph glyph-name="equalsuperior" unicode="&#x207c;" horiz-adv-x="410" 
d="M327 487h-244v77h244v-77zM327 378h-244v77h244v-77z" />
    <glyph glyph-name="parenleftsuperior" unicode="&#x207d;" horiz-adv-x="283" 
d="M234 733v-88c-45 0 -71 -34 -71 -75v-213c0 -40 26 -74 71 -74v-89c-108 0 -174 74 -174 163v213c0 89 66 163 174 163z" />
    <glyph glyph-name="parenrightsuperior" unicode="&#x207e;" horiz-adv-x="283" 
d="M49 645v88c108 0 173 -74 173 -163v-213c0 -89 -65 -163 -173 -163v89c44 0 71 34 71 74v213c0 41 -27 75 -71 75z" />
    <glyph glyph-name="asuperior" unicode="&#xf6e9;" horiz-adv-x="422" 
d="M203 392c33 0 55 27 55 58c0 32 -22 58 -55 58c-32 0 -55 -26 -55 -58c0 -31 23 -58 55 -58zM258 586h101v-271h-101v40c-10 -24 -45 -47 -83 -47c-75 0 -127 58 -127 142s52 142 127 142c38 0 73 -23 83 -46v40z" />
    <glyph glyph-name="bsuperior" unicode="&#xf6ea;" horiz-adv-x="423" 
d="M164 355v-40h-101v385h101v-154c10 23 45 46 82 46c76 0 128 -58 128 -142s-52 -142 -128 -142c-37 0 -72 23 -82 47zM219 392c32 0 54 27 54 58c0 32 -22 58 -54 58c-33 0 -55 -26 -55 -58c0 -31 22 -58 55 -58z" />
    <glyph glyph-name="csuperior" horiz-adv-x="392" 
d="M345 475h-100c-4 21 -17 35 -46 35c-37 0 -53 -28 -53 -60c0 -31 17 -58 55 -58c25 0 37 11 44 30h101c-8 -64 -57 -114 -148 -114c-100 0 -153 66 -153 142c0 77 53 144 153 144c94 0 141 -56 147 -119z" />
    <glyph glyph-name="dsuperior" unicode="&#xf6eb;" horiz-adv-x="422" 
d="M203 392c33 0 55 27 55 58c0 32 -22 58 -55 58c-32 0 -55 -26 -55 -58c0 -31 23 -58 55 -58zM258 315v40c-10 -24 -45 -47 -83 -47c-75 0 -127 58 -127 142s52 142 127 142c38 0 73 -23 83 -46v154h101v-385h-101z" />
    <glyph glyph-name="esuperior" unicode="&#xf6ec;" horiz-adv-x="395" 
d="M344 428h-196c0 -28 12 -53 51 -53c26 0 40 13 46 29h97c-8 -55 -59 -96 -142 -96c-97 0 -154 59 -154 142c0 79 52 144 152 144c94 0 149 -61 149 -125c0 -13 -1 -25 -3 -41zM198 528c-30 0 -50 -18 -50 -49h98c0 30 -19 49 -48 49z" />
    <glyph glyph-name="fsuperior" horiz-adv-x="278" 
d="M241 700v-68c-9 3 -15 4 -26 4c-18 0 -32 -5 -32 -29v-21h58v-72h-58v-199h-101v199h-44v72h44v17c0 95 55 105 106 105c23 0 41 -4 53 -8z" />
    <glyph glyph-name="gsuperior" horiz-adv-x="421" 
d="M204 508c-33 0 -55 -26 -55 -58c0 -31 22 -58 55 -58c32 0 54 27 54 58c0 32 -22 58 -54 58zM360 586v-260c0 -96 -45 -132 -158 -132c-107 0 -151 39 -152 106h101c2 -19 19 -38 51 -38c34 0 56 17 56 56v39c-13 -24 -44 -42 -81 -42c-76 0 -129 51 -129 135
s49 142 126 142c37 0 70 -16 84 -46v40h102z" />
    <glyph glyph-name="hsuperior" unicode="&#x2b0;" horiz-adv-x="400" 
d="M63 315v385h96v-154c15 27 45 46 87 46c32 0 55 -9 70 -26c19 -22 24 -52 24 -92v-159h-97v138c0 34 -10 55 -40 55c-29 0 -44 -21 -44 -60v-133h-96z" />
    <glyph glyph-name="isuperior" unicode="&#xf6ed;" horiz-adv-x="243" 
d="M61 670c0 33 27 60 60 60c35 0 61 -27 61 -60c0 -32 -26 -59 -61 -59c-33 0 -60 27 -60 59zM71 586h101v-271h-101v271z" />
    <glyph glyph-name="jsuperior" unicode="&#x2b2;" horiz-adv-x="248" 
d="M65 670c0 33 26 60 61 60c34 0 61 -27 61 -60c0 -32 -27 -59 -61 -59c-35 0 -61 27 -61 59zM177 586v-299c0 -77 -36 -93 -84 -93c-23 0 -51 3 -64 7v72c9 -2 15 -3 23 -3c16 0 24 7 24 26v290h101z" />
    <glyph glyph-name="ksuperior" horiz-adv-x="386" 
d="M355 586l-100 -136l100 -135h-119l-72 110v-110h-101v385h101v-225l73 111h118z" />
    <glyph glyph-name="lsuperior" unicode="&#xf6ee;" horiz-adv-x="227" 
d="M63 315v385h101v-385h-101z" />
    <glyph glyph-name="msuperior" unicode="&#xf6ef;" horiz-adv-x="559" 
d="M499 315h-96v143c0 32 -11 50 -35 50c-23 0 -39 -14 -39 -58v-135h-96v143c0 32 -10 50 -34 50c-23 0 -40 -15 -40 -60v-133h-96v271h96v-40c12 25 41 46 80 46c46 0 69 -20 80 -48c15 28 45 48 86 48c77 0 94 -51 94 -113v-164z" />
    <glyph glyph-name="nsuperior" unicode="&#x207f;" horiz-adv-x="409" 
d="M63 315v271h101v-40c14 29 46 46 89 46c32 0 58 -10 73 -27c19 -21 23 -50 23 -90v-160h-101v138c0 34 -10 55 -40 55c-29 0 -44 -21 -44 -60v-133h-101z" />
    <glyph glyph-name="osuperior" unicode="&#xf6f0;" horiz-adv-x="402" 
d="M201 308c-99 0 -156 65 -156 142c0 79 57 144 156 144c98 0 156 -65 156 -144c0 -77 -58 -142 -156 -142zM201 392c33 0 54 26 54 58c0 33 -21 58 -54 58s-55 -25 -55 -58c0 -32 22 -58 55 -58z" />
    <glyph glyph-name="psuperior" horiz-adv-x="423" 
d="M219 508c-33 0 -55 -26 -55 -58c0 -31 22 -58 55 -58c32 0 54 27 54 58c0 32 -22 58 -54 58zM164 586v-40c10 23 45 46 82 46c76 0 128 -58 128 -142c0 -83 -52 -142 -128 -142c-37 0 -72 24 -82 47v-154h-101v385h101z" />
    <glyph glyph-name="qsuperior" horiz-adv-x="423" 
d="M258 546v40h102v-385h-102v154c-10 -23 -45 -47 -82 -47c-75 0 -128 59 -128 142c0 84 53 142 128 142c37 0 72 -23 82 -46zM204 508c-32 0 -55 -26 -55 -58c0 -31 23 -58 55 -58s54 27 54 58c0 32 -22 58 -54 58z" />
    <glyph glyph-name="rsuperior" unicode="&#xf6f1;" horiz-adv-x="305" 
d="M273 587v-92c-14 4 -22 5 -35 5c-43 0 -74 -21 -74 -86v-99h-101v271h101v-44c12 26 43 49 82 49c11 0 18 -1 27 -4z" />
    <glyph glyph-name="ssuperior" unicode="&#xf6f2;" horiz-adv-x="362" 
d="M218 479c54 -14 96 -26 96 -81c0 -70 -59 -90 -132 -90c-90 0 -135 36 -135 98h100c0 -25 15 -35 37 -35c18 0 30 7 30 21c0 17 -17 21 -65 35c-50 13 -97 25 -97 81c0 60 47 86 132 86c93 0 126 -41 126 -91h-100c0 20 -12 30 -31 30c-14 0 -27 -6 -27 -20
c0 -17 23 -22 66 -34z" />
    <glyph glyph-name="tsuperior" unicode="&#xf6f3;" horiz-adv-x="283" 
d="M244 388v-73c-14 -2 -34 -5 -63 -5c-48 0 -103 6 -103 96v108h-40v72h40v79h101v-79h61v-72h-61v-86c0 -36 16 -42 35 -42c12 0 22 1 30 2z" />
    <glyph glyph-name="usuperior" horiz-adv-x="409" 
d="M346 586v-271h-101v40c-14 -29 -46 -47 -89 -47c-32 0 -58 11 -73 28c-19 21 -23 50 -23 90v160h100v-138c0 -34 11 -55 41 -55c29 0 44 21 44 60v133h101z" />
    <glyph glyph-name="vsuperior" horiz-adv-x="385" 
d="M28 586h105l59 -164l61 164h104l-122 -271h-86z" />
    <glyph glyph-name="wsuperior" unicode="&#x2b7;" horiz-adv-x="520" 
d="M306 315l-46 154l-45 -154h-88l-98 271h102l45 -154l38 154h91l39 -154l45 154h103l-99 -271h-87z" />
    <glyph glyph-name="xsuperior" unicode="&#x2e3;" horiz-adv-x="370" 
d="M245 452l96 -137h-116l-40 73l-40 -73h-117l97 137l-95 134h117l38 -71l38 71h117z" />
    <glyph glyph-name="ysuperior" unicode="&#x2b8;" horiz-adv-x="413" 
d="M200 194c-98 0 -140 38 -140 106h100c0 -22 13 -38 43 -38c33 0 46 16 46 57v43c-14 -29 -46 -47 -89 -47c-32 0 -57 11 -72 28c-19 21 -23 50 -23 90v153h100v-138c0 -34 11 -55 41 -55c29 0 43 21 43 60v133h102v-260c0 -97 -38 -132 -151 -132z" />
    <glyph glyph-name="zsuperior" horiz-adv-x="341" 
d="M48 586h255l-113 -187h107v-84h-259l114 187h-104v84z" />
    <glyph glyph-name="zeroinferior" unicode="&#x2080;" horiz-adv-x="413" 
d="M52 -70v125c0 75 58 139 154 139c95 0 156 -64 156 -139v-125c0 -75 -61 -139 -156 -139c-96 0 -154 64 -154 139zM255 -70v125c0 28 -19 52 -49 52c-29 0 -47 -24 -47 -52v-125c0 -28 18 -52 47 -52c30 0 49 24 49 52z" />
    <glyph glyph-name="oneinferior" unicode="&#x2081;" horiz-adv-x="298" 
d="M46 43v72c77 0 95 24 95 70h92v-385h-108v243h-79z" />
    <glyph glyph-name="twoinferior" unicode="&#x2082;" horiz-adv-x="397" 
d="M54 -200c0 127 41 167 101 203c54 31 84 47 84 80c0 26 -16 37 -36 37c-24 0 -40 -14 -40 -51h-107c0 64 43 125 147 125c73 0 141 -33 141 -117c0 -61 -51 -98 -98 -126c-51 -30 -69 -41 -69 -68h164v-83h-287z" />
    <glyph glyph-name="threeinferior" unicode="&#x2083;" horiz-adv-x="404" 
d="M47 -70h107c0 -37 17 -58 47 -58c28 0 42 22 42 45c0 29 -14 45 -48 45h-41v79h41c35 0 45 15 45 40c0 27 -15 39 -37 39c-32 0 -40 -20 -40 -51h-107c0 62 33 125 147 125c75 0 143 -31 143 -109c0 -43 -30 -77 -60 -86c34 -11 64 -45 64 -93c0 -77 -70 -115 -145 -115
c-113 0 -158 61 -158 139z" />
    <glyph glyph-name="fourinferior" unicode="&#x2084;" horiz-adv-x="416" 
d="M222 -200v100h-163v285h107v-197h56v100h106v-100h43v-88h-43v-100h-106z" />
    <glyph glyph-name="fiveinferior" unicode="&#x2085;" horiz-adv-x="420" 
d="M65 -39v224h279v-78h-179v-72c14 21 44 32 75 32c87 0 126 -69 126 -132c0 -79 -56 -144 -155 -144c-100 0 -156 65 -156 142h103c0 -31 20 -57 53 -57c32 0 53 26 53 59c0 29 -20 56 -53 56c-26 0 -39 -11 -49 -30h-97z" />
    <glyph glyph-name="sixinferior" unicode="&#x2086;" horiz-adv-x="402" 
d="M200 -208c-99 0 -155 65 -155 143c0 29 7 57 22 80l112 170h120l-74 -110c12 -3 23 -7 33 -11c62 -17 98 -68 98 -129c0 -78 -57 -143 -156 -143zM200 -122c33 0 53 25 53 57c0 31 -20 56 -53 56c-32 0 -53 -25 -53 -56c0 -32 21 -57 53 -57z" />
    <glyph glyph-name="seveninferior" unicode="&#x2087;" horiz-adv-x="372" 
d="M48 185h299l-164 -385h-115l127 297h-147v88z" />
    <glyph glyph-name="eightinferior" unicode="&#x2088;" horiz-adv-x="410" 
d="M205 -209c-98 0 -154 53 -154 118c0 44 31 82 66 91c-31 11 -56 44 -56 83c0 61 52 111 144 111s144 -50 144 -111c0 -39 -24 -72 -56 -83c35 -11 66 -47 66 -91c0 -64 -56 -118 -154 -118zM205 36c28 0 44 20 44 42s-16 42 -44 42s-44 -20 -44 -42s16 -42 44 -42z
M205 -135c32 0 51 23 51 47c0 25 -18 47 -51 47s-51 -21 -51 -47c0 -25 19 -47 51 -47z" />
    <glyph glyph-name="nineinferior" unicode="&#x2089;" horiz-adv-x="402" 
d="M223 -200h-119l74 110c-83 9 -132 67 -132 140c0 78 57 143 156 143c98 0 156 -65 156 -143c0 -30 -8 -57 -24 -80zM202 107c-32 0 -53 -25 -53 -57c0 -31 21 -56 53 -56s53 25 53 56c0 32 -21 57 -53 57z" />
    <glyph glyph-name="plusinferior" horiz-adv-x="410" 
d="M245 -166h-80v84h-82v77h82v84h80v-84h82v-77h-82v-84z" />
    <glyph glyph-name="minusinferior" horiz-adv-x="410" 
d="M327 -82h-244v77h244v-77z" />
    <glyph glyph-name="equalinferior" horiz-adv-x="410" 
d="M327 -28h-244v77h244v-77zM327 -137h-244v77h244v-77z" />
    <glyph glyph-name="parenleftinferior" unicode="&#x208d;" horiz-adv-x="283" 
d="M234 218v-88c-45 0 -71 -34 -71 -75v-213c0 -40 26 -74 71 -74v-89c-108 0 -174 74 -174 163v213c0 89 66 163 174 163z" />
    <glyph glyph-name="parenrightinferior" unicode="&#x208e;" horiz-adv-x="283" 
d="M49 130v88c108 0 173 -74 173 -163v-213c0 -89 -65 -163 -173 -163v89c44 0 71 34 71 74v213c0 41 -27 75 -71 75z" />
    <glyph glyph-name="arrowup" unicode="&#x2191;" horiz-adv-x="540" 
d="M30 440l240 260l240 -260l-77 -71l-108 121v-490h-111v489l-108 -120z" />
    <glyph glyph-name="arrowright" unicode="&#x2192;" horiz-adv-x="720" 
d="M450 590l260 -240l-260 -240l-71 77l121 108h-490v111h489l-120 107s70 77 71 77z" />
    <glyph glyph-name="arrowdown" unicode="&#x2193;" horiz-adv-x="540" 
d="M510 260l-240 -260l-240 260l76 71l109 -122v491h110v-490l108 121z" />
    <glyph glyph-name="arrowleft" unicode="&#x2190;" horiz-adv-x="720" 
d="M270 110l-260 240l260 240l70 -77l-121 -108h491v-111h-490l120 -107z" />
    <glyph glyph-name="uni2196" unicode="&#x2196;" horiz-adv-x="593" 
d="M43 244l-13 353l353 -13l-5 -105l-162 9l347 -346l-78 -79l-346 346l9 -161z" />
    <glyph glyph-name="uni2197" unicode="&#x2197;" horiz-adv-x="593" 
d="M210 584l353 13l-13 -353l-105 4l10 162l-347 -347l-78 79l345 346l-160 -9s-5 104 -5 105z" />
    <glyph glyph-name="uni2198" unicode="&#x2198;" horiz-adv-x="593" 
d="M550 456l13 -353l-353 13l5 105l162 -9l-347 346l78 79l346 -346l-9 161z" />
    <glyph glyph-name="uni2199" unicode="&#x2199;" horiz-adv-x="593" 
d="M383 116l-353 -13l13 353l105 -4l-9 -162l346 347l78 -79l-345 -346l160 9s5 -104 5 -105z" />
    <glyph glyph-name="afii61352" unicode="&#x2116;" horiz-adv-x="1159" 
d="M914 299c-140 0 -221 94 -221 206c0 113 81 206 221 206s221 -93 221 -206c0 -112 -81 -206 -221 -206zM914 414c51 0 85 41 85 91s-34 90 -85 90s-85 -40 -85 -90s34 -91 85 -91zM236 700l253 -456v456h161v-700h-169l-252 450v-450h-162v700h169zM1135 172h-442v109
h442v-109z" />
    <glyph glyph-name="afii61289" unicode="&#x2113;" horiz-adv-x="477" 
d="M309 -14c-78 0 -177 5 -187 154l-63 -43l-57 109l117 77v224c0 133 68 210 177 210c129 0 170 -97 170 -184c0 -130 -94 -217 -208 -300v-58c0 -64 44 -70 85 -70c34 0 63 3 80 7v-114c-23 -8 -62 -12 -114 -12zM305 605c-29 0 -44 -35 -46 -81c-1 -8 -1 -132 -1 -141
c59 52 85 95 85 150c0 37 -9 72 -38 72z" />
    <glyph glyph-name="estimated" unicode="&#x212e;" horiz-adv-x="533" 
d="M494 247h-327v-210c29 -17 65 -27 108 -27c98 0 169 57 189 122h22c-20 -78 -98 -144 -211 -144c-163 0 -241 122 -241 254c0 145 86 253 238 253c123 0 223 -94 223 -218c0 -7 0 -16 -1 -30zM272 473c-41 0 -76 -9 -105 -26v-178h198v180c-27 15 -60 24 -93 24z" />
    <glyph glyph-name="colon.case" horiz-adv-x="303" 
d="M50 478c0 56 44 101 101 101s101 -45 101 -101c0 -55 -44 -100 -101 -100s-101 45 -101 100zM50 158c0 55 45 100 101 100c57 0 102 -45 102 -100s-45 -100 -102 -100c-56 0 -101 45 -101 100z" />
    <glyph glyph-name="at.case" horiz-adv-x="871" 
d="M470 -127c-295 0 -450 201 -450 418c0 259 201 418 433 418c241 0 415 -136 415 -363c0 -214 -80 -294 -198 -294c-77 0 -128 44 -148 103c-19 -36 -70 -66 -120 -66c-114 0 -195 89 -195 202c0 114 84 203 195 203c50 0 101 -30 120 -66v56h116v-235
c0 -68 16 -95 52 -95c34 0 63 41 63 195c0 159 -123 256 -300 256c-175 0 -318 -116 -318 -314c0 -161 109 -315 335 -315c52 0 131 9 201 47l43 -89c-85 -48 -180 -61 -244 -61zM424 188c59 0 99 47 99 103c0 57 -40 104 -99 104c-57 0 -95 -47 -95 -104
c0 -56 38 -103 95 -103z" />
    <glyph glyph-name="bar.case" horiz-adv-x="287" 
d="M208 -148h-127v998h127v-998z" />
    <glyph glyph-name="brokenbar.case" horiz-adv-x="287" 
d="M208 416h-128v434h128v-434zM80 292h128v-440h-128v440z" />
    <glyph glyph-name="plus.case" 
d="M372 138h-131v152h-148v122h148v153h131v-153h148v-122h-148v-152z" />
    <glyph glyph-name="minus.case" 
d="M520 290h-427v122h427v-122z" />
    <glyph glyph-name="multiply.case" 
d="M303 374l108 108l92 -92l-108 -108l106 -105l-87 -86l-105 104l-108 -107l-92 92l108 107l-105 105l86 87z" />
    <glyph glyph-name="divide.case" 
d="M212 504c0 51 42 93 94 93c53 0 95 -42 95 -93c0 -52 -42 -94 -95 -94c-52 0 -94 42 -94 94zM520 257h-427v122h427v-122zM212 138c0 51 42 93 94 93c53 0 95 -42 95 -93c0 -52 -42 -94 -95 -94c-52 0 -94 42 -94 94z" />
    <glyph glyph-name="equal.case" 
d="M520 380h-427v122h427v-122zM520 198h-427v123h427v-123z" />
    <glyph glyph-name="notequal.case" 
d="M520 198h-222l-44 -103h-116l44 103h-89v123h142l26 59h-168v122h221l44 104h116l-44 -104h90v-122h-143l-26 -59h169v-123z" />
    <glyph glyph-name="approxequal.case" 
d="M78 323v120c34 44 79 59 114 59c36 0 78 -15 120 -32c40 -16 82 -36 110 -36c46 0 85 29 112 55v-120c-33 -44 -78 -58 -113 -58c-40 0 -74 14 -110 32c-35 18 -76 35 -125 35c-41 0 -80 -29 -108 -55zM78 142v120c34 44 79 59 114 59c36 0 78 -15 120 -32
c40 -16 82 -36 110 -36c46 0 85 29 112 55v-120c-33 -44 -78 -59 -113 -59c-40 0 -74 15 -110 33c-35 18 -76 35 -125 35c-41 0 -80 -29 -108 -55z" />
    <glyph glyph-name="logicalnot.case" 
d="M390 200v180h-297v122h427v-302h-130z" />
    <glyph glyph-name="parenleft.case" horiz-adv-x="399" 
d="M362 841v-137c-80 0 -129 -63 -129 -139v-453c0 -76 49 -139 129 -139v-137c-176 0 -286 126 -286 276v453c0 150 110 276 286 276z" />
    <glyph glyph-name="parenright.case" horiz-adv-x="399" 
d="M36 704v137c177 0 287 -126 287 -276v-453c0 -150 -110 -276 -287 -276v137c81 0 130 63 130 139v453c0 76 -49 139 -130 139z" />
    <glyph glyph-name="hyphen.case" horiz-adv-x="317" 
d="M285 425v-122h-253v122h253z" />
    <glyph glyph-name="bracketleft.case" horiz-adv-x="385" 
d="M325 -157h-258v999h258v-133h-105v-733h105v-133z" />
    <glyph glyph-name="bracketright.case" horiz-adv-x="385" 
d="M318 -157h-258v133h105v732h-105v133h258v-998z" />
    <glyph glyph-name="braceleft.case" horiz-adv-x="477" 
d="M309 841h101v-123h-42c-53 0 -68 -42 -68 -81v-188c0 -86 -69 -111 -99 -114c30 -4 99 -25 99 -121v-166c0 -38 15 -81 68 -81h42v-124h-101c-91 0 -162 56 -162 160v179c0 63 -50 85 -87 85v134c37 0 87 22 87 81v200c0 104 71 159 162 159z" />
    <glyph glyph-name="braceright.case" horiz-adv-x="477" 
d="M67 841h101c91 0 162 -55 162 -159v-200c0 -59 49 -81 87 -81v-134c-38 0 -87 -22 -87 -85v-179c0 -104 -71 -160 -162 -160h-101v124h41c54 0 68 43 68 81v166c0 96 69 117 99 121c-30 3 -99 28 -99 114v188c0 39 -14 81 -68 81h-41v123z" />
    <glyph glyph-name="guillemotleft.case" horiz-adv-x="512" 
d="M250 278v-134l-213 174v79l213 174v-133l-103 -80zM470 278v-134l-213 174v79l213 174v-133l-103 -80z" />
    <glyph glyph-name="guillemotright.case" horiz-adv-x="512" 
d="M262 144v134l102 80l-102 80v133l213 -174v-79zM42 144v134l102 80l-102 80v133l213 -174v-79z" />
    <glyph glyph-name="endash.case" horiz-adv-x="503" 
d="M463 303h-423v122h423v-122z" />
    <glyph glyph-name="emdash.case" horiz-adv-x="1006" 
d="M961 303h-916v122h916v-122z" />
    <glyph glyph-name="guilsinglleft.case" horiz-adv-x="292" 
d="M250 278v-134l-213 174v79l213 174v-133l-103 -80z" />
    <glyph glyph-name="guilsinglright.case" horiz-adv-x="292" 
d="M42 144v134l102 80l-102 80v133l213 -174v-79z" />
    <glyph glyph-name="less.case" 
d="M566 113l-525 177v120l525 178v-139l-324 -98l324 -100v-138z" />
    <glyph glyph-name="greater.case" 
d="M572 290l-524 -177v138l323 100l-323 98v139l524 -178v-120z" />
    <glyph glyph-name="Iacute.smcp" horiz-adv-x="308" 
d="M289 678l-233 -98l-37 95l233 97zM78 0v560h152v-560h-152z" />
    <glyph glyph-name="parenleft.smcp" horiz-adv-x="376" 
d="M322 611v-126c-64 0 -103 -50 -103 -110v-318c0 -59 39 -109 103 -109v-126c-154 0 -248 107 -248 235v318c0 128 94 236 248 236z" />
    <glyph glyph-name="Ibreve.smcp" horiz-adv-x="308" 
d="M-34 737h108c12 -27 36 -49 80 -49s68 23 80 49h108c-15 -92 -95 -145 -188 -145s-170 54 -188 145zM78 0v560h152v-560h-152z" />
    <glyph glyph-name="seven.003" horiz-adv-x="800" 
d="M400 -18c-233 0 -371 176 -371 368s138 368 371 368s371 -176 371 -368s-138 -368 -371 -368zM400 68c171 0 273 135 273 282s-102 282 -273 282s-273 -135 -273 -282s102 -282 273 -282zM272 536h299l-164 -385h-114l127 298h-148v87z" />
    <glyph glyph-name="seven.004" horiz-adv-x="800" 
d="M400 -18c-233 0 -371 176 -371 368s138 368 371 368s371 -176 371 -368s-138 -368 -371 -368zM272 536v-87h148l-127 -298h114l164 385h-299z" />
    <glyph glyph-name="uni0438.002" horiz-adv-x="607" 
d="M389 482h153v-482h-153v69c-27 -51 -83 -81 -158 -81c-62 0 -109 21 -135 55c-30 37 -37 84 -37 153v286h152v-247c0 -69 21 -117 85 -117c63 0 93 48 93 122v242z" />
    <glyph glyph-name="Dcroat.smcp" horiz-adv-x="639" 
d="M78 560h219c186 0 292 -135 292 -280s-105 -280 -292 -280h-219v229h-73v101h73v230zM305 330v-101h-76v-100h58c93 0 148 73 148 151s-55 151 -148 151h-58v-101h76z" />
    <glyph glyph-name="Scaron.smcp" horiz-adv-x="556" 
d="M281 599l-156 131l65 75l91 -79l92 79l66 -75zM55 188h152c0 -55 31 -87 78 -87c37 0 63 22 63 55c0 37 -31 51 -86 72c-103 39 -193 72 -193 186c0 111 104 161 212 161c151 0 210 -90 210 -181h-151c0 47 -21 74 -62 74c-31 0 -58 -16 -58 -49c0 -32 29 -51 78 -68
c95 -34 201 -70 201 -184c0 -116 -87 -182 -221 -182c-132 0 -223 73 -223 203z" />
    <glyph glyph-name="Nacute.smcp" horiz-adv-x="652" 
d="M461 686l-233 -98l-37 94l233 98zM233 560l191 -346v346h151v-560h-155l-191 337v-337h-151v560h155z" />
    <glyph glyph-name="Udieresis.001.smcp" horiz-adv-x="586" 
d="M451 696l-69 -104h-84l70 104h83zM335 696l-70 -104h-83l70 104h83zM66 193v367h151v-365c0 -44 31 -81 76 -81s77 37 77 81v365h150v-367c0 -119 -86 -208 -227 -208s-227 89 -227 208z" />
    <glyph glyph-name="Q.smcp" horiz-adv-x="701" 
d="M651 280c0 -106 -54 -206 -149 -255l48 -63c-13 -7 -120 -62 -133 -68l-67 91c-190 1 -300 141 -300 295s111 295 300 295c190 0 301 -141 301 -295zM350 123c92 0 147 75 147 157s-55 157 -147 157s-147 -75 -147 -157s55 -157 147 -157z" />
    <glyph glyph-name="Eth.smcp" horiz-adv-x="639" 
d="M78 560h219c184 0 292 -135 292 -280s-106 -280 -292 -280h-219v225h-84v110h84v225zM308 335v-110h-79v-96h58c93 0 147 73 147 151s-54 151 -147 151h-58v-96h79z" />
    <glyph glyph-name="Tbar.smcp" horiz-adv-x="473" 
d="M386 363v-100h-74v-263h-151v263h-74v100h74v67h-120v130h391v-130h-120v-67h74z" />
    <glyph glyph-name="Y.smcp" horiz-adv-x="584" 
d="M566 560l-278 -560h-169l100 203l-192 357h177l102 -208l92 208h168z" />
    <glyph glyph-name="Ncaron.smcp" horiz-adv-x="652" 
d="M326 582l-156 132l65 76l91 -79l92 79l65 -76zM233 560l191 -346v346h151v-560h-155l-191 337v-337h-151v560h155z" />
    <glyph glyph-name="six.004" horiz-adv-x="800" 
d="M400 -18c-233 0 -371 176 -371 368c0 191 138 368 371 368c232 0 370 -177 370 -368c0 -192 -138 -368 -370 -368zM399 151c98 0 155 64 155 142c0 61 -36 113 -97 130c-10 4 -22 8 -34 10l74 111h-120l-111 -170c-16 -23 -23 -52 -23 -81c0 -78 57 -142 156 -142z
M399 237c-33 0 -53 25 -53 56c0 32 20 57 53 57c32 0 53 -25 53 -57c0 -31 -21 -56 -53 -56z" />
    <glyph glyph-name="Rcaron.smcp" horiz-adv-x="597" 
d="M290 586l-156 131l65 76l91 -79l92 79l65 -76zM307 441h-78v-174h77c49 0 80 40 80 87s-31 87 -79 87zM78 0v560h255c126 0 207 -95 207 -206c0 -78 -39 -146 -106 -181l112 -173h-177l-90 148h-50v-148h-151z" />
    <glyph glyph-name="three.denominator" horiz-adv-x="404" 
d="M47 130h107c0 -37 17 -58 47 -58c28 0 42 22 42 45c0 29 -14 45 -48 45h-41v79h41c35 0 45 15 45 40c0 27 -15 39 -37 39c-32 0 -40 -20 -40 -51h-107c0 62 33 125 147 125c75 0 143 -31 143 -109c0 -43 -30 -77 -60 -86c34 -11 64 -45 64 -93c0 -77 -70 -115 -145 -115
c-113 0 -158 61 -158 139z" />
    <glyph glyph-name="Obreve.smcp" horiz-adv-x="701" 
d="M163 736h107c13 -27 35 -49 80 -49s68 23 80 49h108c-15 -92 -95 -145 -188 -145s-171 54 -187 145zM350 -15c-189 0 -300 141 -300 295s111 295 300 295c190 0 301 -141 301 -295s-111 -295 -301 -295zM350 123c92 0 147 75 147 157s-55 157 -147 157
s-147 -75 -147 -157s55 -157 147 -157z" />
    <glyph glyph-name="Lacute.smcp" horiz-adv-x="427" 
d="M288 686l-233 -98l-37 94l233 98zM228 130h152v-130h-302v560h150v-430z" />
    <glyph glyph-name="C.smcp" horiz-adv-x="690" 
d="M482 212h160c-20 -124 -123 -227 -288 -227c-191 0 -304 138 -304 296c0 153 112 294 298 294c178 0 277 -108 293 -240h-158c-11 58 -55 103 -129 103c-98 0 -150 -75 -150 -157c0 -89 57 -159 154 -159c63 0 111 40 124 90z" />
    <glyph glyph-name="ampersand.smcp" horiz-adv-x="576" 
d="M306 185v111h225v-111h-34c-2 -114 -71 -198 -226 -198c-105 0 -214 56 -214 170c0 67 42 112 93 133c-46 16 -87 60 -87 125c0 111 98 158 205 158c160 0 212 -91 212 -180h-152c0 44 -13 74 -61 74c-32 0 -55 -18 -55 -57c0 -36 19 -62 71 -62v-111
c-54 0 -75 -26 -75 -69c0 -33 25 -65 70 -65c39 0 70 30 72 82h-44z" />
    <glyph glyph-name="J.smcp" horiz-adv-x="542" 
d="M471 560v-361c0 -146 -82 -213 -217 -213c-147 0 -217 93 -217 213h151c0 -48 22 -85 66 -85c42 0 67 30 67 85v361h150z" />
    <glyph glyph-name="nine.denominator" horiz-adv-x="402" 
d="M223 0h-119l74 110c-83 9 -132 67 -132 140c0 78 57 143 156 143c98 0 156 -65 156 -143c0 -30 -8 -57 -24 -80zM202 307c-32 0 -53 -25 -53 -57c0 -31 21 -56 53 -56s53 25 53 56c0 32 -21 57 -53 57z" />
    <glyph glyph-name="Idotaccent.smcp" horiz-adv-x="308" 
d="M72 687c0 45 35 82 81 82c47 0 83 -37 83 -82c0 -44 -36 -81 -83 -81c-46 0 -81 37 -81 81zM78 0v560h152v-560h-152z" />
    <glyph glyph-name="Hcircumflex.smcp" horiz-adv-x="629" 
d="M150 662l165 131l164 -131l-69 -76l-95 77l-95 -76zM400 0v214h-171v-214h-151v560h151v-218h171v218h152v-560h-152z" />
    <glyph glyph-name="three.numerator" horiz-adv-x="404" 
d="M47 445h107c0 -37 17 -58 47 -58c28 0 42 22 42 45c0 29 -14 45 -48 45h-41v79h41c35 0 45 15 45 40c0 27 -15 39 -37 39c-32 0 -40 -20 -40 -51h-107c0 62 33 125 147 125c75 0 143 -31 143 -109c0 -43 -30 -77 -60 -86c34 -11 64 -45 64 -93c0 -77 -70 -115 -145 -115
c-113 0 -158 61 -158 139z" />
    <glyph glyph-name="uni0437.002" horiz-adv-x="508" 
d="M7 -25h152c2 -64 43 -96 89 -96c43 0 77 33 77 109c0 61 -23 119 -101 119h-39v103h40c56 0 88 36 88 98c0 49 -18 82 -59 82c-47 0 -64 -30 -64 -72h-150c0 90 64 171 220 171c118 0 202 -60 202 -176c0 -98 -52 -142 -113 -151c72 -6 128 -77 128 -170
c0 -150 -106 -222 -232 -222c-162 0 -237 79 -238 205z" />
    <glyph glyph-name="Racute.smcp" horiz-adv-x="597" 
d="M434 686l-234 -98l-37 94l234 98zM307 441h-78v-174h77c49 0 80 40 80 87s-31 87 -79 87zM78 0v560h255c126 0 207 -95 207 -206c0 -78 -39 -146 -106 -181l112 -173h-177l-90 148h-50v-148h-151z" />
    <glyph glyph-name="Scommaaccent.smcp" horiz-adv-x="556" 
d="M55 188h152c0 -55 31 -87 78 -87c37 0 63 22 63 55c0 37 -31 51 -86 72c-103 39 -193 72 -193 186c0 111 103 161 211 161c151 0 211 -90 211 -181h-151c0 47 -21 74 -62 74c-31 0 -58 -16 -58 -49c0 -32 29 -51 78 -68c95 -34 201 -70 201 -184
c0 -116 -87 -182 -221 -182c-132 0 -223 73 -223 203zM211 -89c0 37 29 67 65 67c45 0 76 -35 76 -86c0 -101 -52 -137 -138 -138v42c56 0 76 28 80 54c-1 -1 -10 -5 -18 -5c-40 0 -65 30 -65 66z" />
    <glyph glyph-name="Icircumflex.smcp" horiz-adv-x="308" 
d="M-10 661l164 132l164 -132l-68 -75l-96 76l-95 -76zM78 0v560h152v-560h-152z" />
    <glyph glyph-name="four.numerator" horiz-adv-x="416" 
d="M222 315v100h-163v285h107v-197h56v100h106v-100h43v-88h-43v-100h-106z" />
    <glyph glyph-name="A.smcp" horiz-adv-x="623" 
d="M310 395l-64 -216h126zM385 560l208 -560h-167l-20 66h-193l-20 -66h-163l204 560h151z" />
    <glyph glyph-name="E.smcp" horiz-adv-x="503" 
d="M431 444h-202v-110h202v-112h-202v-106h202v-116h-353v560h353v-116z" />
    <glyph glyph-name="V.smcp" horiz-adv-x="604" 
d="M584 560l-208 -560h-152l-203 560h163l116 -388l116 388h168z" />
    <glyph glyph-name="AEacute.smcp" horiz-adv-x="805" 
d="M602 686l-233 -98l-37 94l233 98zM268 179h110v248zM731 444h-201v-110h201v-112h-201v-106h201v-116h-353v66h-158l-28 -66h-165l266 560h438v-116z" />
    <glyph glyph-name="Adieresis.001.smcp" horiz-adv-x="623" 
d="M473 696l-69 -104h-84l70 104h83zM357 696l-69 -104h-84l70 104h83zM310 395l-64 -216h126zM385 560l208 -560h-167l-20 66h-193l-20 -66h-163l204 560h151z" />
    <glyph glyph-name="Udieresis.smcp" horiz-adv-x="586" 
d="M109 680c0 45 36 81 82 81c47 0 83 -36 83 -81c0 -44 -36 -81 -83 -81c-46 0 -82 37 -82 81zM307 680c0 45 36 81 82 81c47 0 83 -36 83 -81c0 -44 -36 -81 -83 -81c-46 0 -82 37 -82 81zM66 193v367h151v-365c0 -44 31 -81 76 -81s77 37 77 81v365h150v-367
c0 -119 -86 -208 -227 -208s-227 89 -227 208z" />
    <glyph glyph-name="Lcommaaccent.smcp" horiz-adv-x="427" 
d="M78 0v560h151v-430h151v-130h-302zM143 -80c0 37 29 67 66 67c44 0 75 -35 75 -85c0 -102 -52 -138 -138 -138v42c57 0 77 27 80 54c0 -1 -10 -6 -17 -6c-40 0 -66 30 -66 66z" />
    <glyph glyph-name="eight.004" horiz-adv-x="800" 
d="M400 -18c-233 0 -371 176 -371 368c0 191 138 368 371 368c232 0 370 -177 370 -368c0 -192 -138 -368 -370 -368zM400 149c98 0 154 54 154 118c0 44 -31 80 -66 91c32 11 56 44 56 83c0 61 -52 111 -144 111s-144 -50 -144 -111c0 -39 25 -72 56 -83
c-35 -9 -66 -47 -66 -91c0 -65 56 -118 154 -118zM400 394c-28 0 -44 20 -44 42s16 42 44 42s44 -20 44 -42s-16 -42 -44 -42zM400 223c-32 0 -51 22 -51 47c0 26 18 47 51 47s51 -22 51 -47c0 -24 -19 -47 -51 -47z" />
    <glyph glyph-name="eight.003" horiz-adv-x="800" 
d="M400 -18c-233 0 -371 176 -371 368c0 191 138 368 371 368c232 0 370 -177 370 -368c0 -192 -138 -368 -370 -368zM400 68c171 0 272 135 272 282s-101 282 -272 282s-273 -135 -273 -282s102 -282 273 -282zM400 149c-98 0 -154 53 -154 118c0 44 31 82 66 91
c-31 11 -56 44 -56 83c0 61 52 111 144 111s144 -50 144 -111c0 -39 -24 -72 -56 -83c35 -11 66 -47 66 -91c0 -64 -56 -118 -154 -118zM400 394c28 0 44 20 44 42s-16 42 -44 42s-44 -20 -44 -42s16 -42 44 -42zM400 223c32 0 51 23 51 47c0 25 -18 47 -51 47
s-51 -21 -51 -47c0 -25 19 -47 51 -47z" />
    <glyph glyph-name="six.numerator" horiz-adv-x="402" 
d="M200 307c-99 0 -155 65 -155 143c0 29 7 57 22 80l112 170h120l-74 -110c12 -3 23 -7 33 -11c62 -17 98 -68 98 -129c0 -78 -57 -143 -156 -143zM200 393c33 0 53 25 53 57c0 31 -20 56 -53 56c-32 0 -53 -25 -53 -56c0 -32 21 -57 53 -57z" />
    <glyph glyph-name="Cacute.smcp" horiz-adv-x="690" 
d="M480 686l-234 -99l-37 94l234 99zM482 212h160c-20 -124 -123 -227 -288 -227c-191 0 -304 138 -304 296c0 153 112 294 298 294c178 0 277 -108 293 -240h-158c-11 58 -55 103 -129 103c-98 0 -150 -75 -150 -157c0 -89 57 -159 154 -159c63 0 111 40 124 90z" />
    <glyph glyph-name="minus.numerator" horiz-adv-x="410" 
d="M327 433h-244v77h244v-77z" />
    <glyph glyph-name="nine.plf.smcp" horiz-adv-x="557" 
d="M305 0h-162l109 163c-121 11 -194 95 -194 203c0 112 82 205 222 205c139 0 221 -93 221 -205c0 -43 -13 -84 -34 -117zM280 453c-50 0 -82 -39 -82 -87c0 -49 32 -88 82 -88c49 0 82 39 82 88c0 48 -33 87 -82 87z" />
    <glyph glyph-name="one.003" horiz-adv-x="800" 
d="M400 -18c-233 0 -371 176 -371 368c0 191 138 368 371 368c232 0 370 -177 370 -368c0 -192 -138 -368 -370 -368zM400 68c171 0 272 135 272 282s-101 282 -272 282s-273 -135 -273 -282s102 -282 273 -282zM274 400v72c78 0 96 24 96 70h92v-385h-109v243h-79z" />
    <glyph glyph-name="one.004" horiz-adv-x="800" 
d="M400 -18c-233 0 -371 176 -371 368c0 191 138 368 371 368c232 0 370 -177 370 -368c0 -192 -138 -368 -370 -368zM274 400h79v-243h109v385h-92c0 -46 -18 -70 -96 -70v-72z" />
    <glyph glyph-name="Uacute.smcp" horiz-adv-x="586" 
d="M419 686l-234 -98l-37 94l234 98zM66 193v367h151v-365c0 -44 31 -81 76 -81s77 37 77 81v365h150v-367c0 -119 -86 -208 -227 -208s-227 89 -227 208z" />
    <glyph glyph-name="Imacron.smcp" horiz-adv-x="308" 
d="M304 731v-100h-300v100h300zM77 0v560h153v-560h-153z" />
    <glyph glyph-name="equal.denominator" horiz-adv-x="410" 
d="M327 172h-244v77h244v-77zM327 63h-244v77h244v-77z" />
    <glyph glyph-name="F.smcp" horiz-adv-x="499" 
d="M431 435h-202v-135h202v-121h-202v-179h-151v560h353v-125z" />
    <glyph glyph-name="one.numerator" horiz-adv-x="298" 
d="M46 558v72c77 0 95 24 95 70h92v-385h-108v243h-79z" />
    <glyph glyph-name="parenleft.denominator" horiz-adv-x="283" 
d="M234 418v-88c-45 0 -71 -34 -71 -75v-213c0 -40 26 -74 71 -74v-89c-108 0 -174 74 -174 163v213c0 89 66 163 174 163z" />
    <glyph glyph-name="exclamdown.smcp" horiz-adv-x="336" 
d="M78 476c0 49 40 90 91 90s91 -41 91 -90c0 -48 -40 -89 -91 -89s-91 41 -91 89zM93 -6v356h153v-356h-153z" />
    <glyph glyph-name="brokenbar.smcp" horiz-adv-x="503" 
d="M221 318h-143v293h143v-293zM78 204h143v-301h-143v301z" />
    <glyph glyph-name="D.smcp" horiz-adv-x="639" 
d="M78 560h219c185 0 292 -135 292 -280s-105 -280 -292 -280h-219v560zM287 431h-58v-302h58c93 0 147 73 147 151s-54 151 -147 151z" />
    <glyph glyph-name="Gdotaccent.smcp" horiz-adv-x="720" 
d="M265 689c0 45 35 82 81 82c47 0 83 -37 83 -82c0 -43 -36 -80 -83 -80c-46 0 -81 37 -81 80zM377 200v104h305v-104h-55c-21 -128 -118 -215 -281 -215c-190 0 -296 135 -296 295c0 153 110 295 296 295c156 0 260 -93 270 -204h-165c-6 37 -44 74 -104 74
c-94 0 -143 -81 -143 -167c0 -92 49 -168 152 -168c69 0 108 41 117 90h-96z" />
    <glyph glyph-name="three.plf.smcp" horiz-adv-x="559" 
d="M59 189h144c0 -57 29 -90 75 -90c44 0 67 34 67 70c0 42 -21 70 -76 70h-55v108h55c55 0 70 25 70 64c0 40 -23 58 -58 58c-50 0 -64 -30 -64 -76h-144c0 91 52 180 206 180c107 0 203 -48 203 -158c0 -63 -41 -110 -85 -125c50 -17 92 -65 92 -136
c0 -108 -99 -167 -207 -167c-154 0 -223 85 -223 202z" />
    <glyph glyph-name="thinspace" unicode="&#x2009;" horiz-adv-x="204" 
 />
    <glyph glyph-name="Itilde.smcp" horiz-adv-x="308" 
d="M33 615l-42 83c53 30 76 30 92 30c25 0 101 -22 124 -22c20 0 30 4 71 22l39 -81c-47 -35 -82 -36 -97 -36c-26 0 -102 20 -125 20c-24 0 -41 -8 -62 -16zM78 0v560h152v-560h-152z" />
    <glyph glyph-name="Aringacute.smcp" horiz-adv-x="623" 
d="M406 738l-181 -81l-24 59l182 81zM309 630c-13 0 -23 -10 -23 -24c0 -11 10 -22 23 -22s23 11 23 23c0 13 -9 23 -23 23zM372 179l-62 216l-64 -216h126zM593 0h-167l-20 66h-193l-20 -66h-163l204 559h17c-3 5 -15 29 -15 48c0 41 33 73 73 73c41 0 73 -33 73 -73
c0 -18 -10 -42 -13 -47h16z" />
    <glyph glyph-name="OE.smcp" horiz-adv-x="922" 
d="M350 122c92 0 147 75 147 157s-55 158 -147 158s-147 -76 -147 -158s55 -157 147 -157zM850 444h-201v-110h201v-112h-201v-106h201v-116h-352v43c-30 -32 -71 -58 -148 -58c-189 0 -300 140 -300 294s111 295 300 295c65 0 124 -27 148 -52v38h352v-116z" />
    <glyph glyph-name="Gcircumflex.smcp" horiz-adv-x="720" 
d="M182 663l164 131l165 -131l-69 -76l-96 77l-95 -76zM377 200v104h305v-104h-55c-21 -128 -118 -215 -281 -215c-190 0 -296 135 -296 295c0 153 110 295 296 295c156 0 260 -93 270 -204h-165c-6 37 -44 74 -104 74c-94 0 -143 -81 -143 -167c0 -92 49 -168 152 -168
c69 0 108 41 117 90h-96z" />
    <glyph glyph-name="equal.numerator" horiz-adv-x="410" 
d="M327 487h-244v77h244v-77zM327 378h-244v77h244v-77z" />
    <glyph glyph-name="Egrave.smcp" horiz-adv-x="503" 
d="M359 581l-233 98l36 94l234 -98zM431 444h-202v-110h202v-112h-202v-106h202v-116h-353v560h353v-116z" />
    <glyph glyph-name="three.003" horiz-adv-x="800" 
d="M400 -18c-233 0 -371 176 -371 368c0 191 138 368 371 368c232 0 370 -177 370 -368c0 -192 -138 -368 -370 -368zM400 68c171 0 272 135 272 282s-101 282 -272 282s-273 -135 -273 -282s102 -282 273 -282zM245 288h107c0 -37 17 -58 47 -58c28 0 41 22 41 45
c0 29 -13 45 -47 45h-41v79h40c36 0 46 15 46 40c0 27 -15 39 -37 39c-32 0 -40 -20 -40 -51h-107c0 62 33 125 146 125c75 0 143 -31 143 -109c0 -43 -29 -77 -60 -86c35 -11 64 -45 64 -93c0 -77 -69 -115 -144 -115c-113 0 -158 61 -158 139z" />
    <glyph glyph-name="three.004" horiz-adv-x="800" 
d="M400 -18c-233 0 -371 176 -371 368c0 191 138 368 371 368c232 0 370 -177 370 -368c0 -192 -138 -368 -370 -368zM245 288c0 -78 45 -139 158 -139c75 0 144 38 144 115c0 48 -29 82 -64 93c31 9 60 43 60 86c0 78 -68 109 -143 109c-113 0 -146 -63 -146 -125h107
c0 31 8 51 40 51c22 0 37 -12 37 -39c0 -25 -10 -40 -46 -40h-40v-79h41c34 0 47 -16 47 -45c0 -23 -13 -45 -41 -45c-30 0 -47 21 -47 58h-107z" />
    <glyph glyph-name="Edotaccent.smcp" horiz-adv-x="503" 
d="M169 686c0 45 36 82 81 82c48 0 83 -37 83 -82c0 -43 -35 -81 -83 -81c-45 0 -81 38 -81 81zM431 444h-202v-110h202v-112h-202v-106h202v-116h-353v560h353v-116z" />
    <glyph glyph-name="R.smcp" horiz-adv-x="597" 
d="M306 267c49 0 80 40 80 87s-31 87 -79 87h-78v-174h77zM78 0v560h255c126 0 207 -95 207 -206c0 -78 -39 -146 -106 -181l112 -173h-177l-90 139h-50v-139h-151z" />
    <glyph glyph-name="P.smcp" horiz-adv-x="579" 
d="M78 0v560h254c127 0 208 -95 208 -206s-81 -206 -208 -206h-103v-148h-151zM306 267c49 0 80 40 80 87s-31 87 -79 87h-78v-174h77z" />
    <glyph glyph-name="six.003" horiz-adv-x="800" 
d="M400 -18c-233 0 -371 176 -371 368c0 191 138 368 371 368c232 0 370 -177 370 -368c0 -192 -138 -368 -370 -368zM400 68c171 0 272 135 272 282s-101 282 -272 282s-273 -135 -273 -282s102 -282 273 -282zM399 151c-99 0 -156 64 -156 142c0 29 7 58 23 81l111 170
h120l-74 -111c12 -2 24 -6 34 -10c61 -17 97 -69 97 -130c0 -78 -57 -142 -155 -142zM399 237c32 0 53 25 53 56c0 32 -21 57 -53 57c-33 0 -53 -25 -53 -57c0 -31 20 -56 53 -56z" />
    <glyph glyph-name="Uring.smcp" horiz-adv-x="586" 
d="M293 803c63 0 113 -52 113 -113s-50 -112 -113 -112s-113 51 -113 112c0 63 50 113 113 113zM293 728c-21 0 -36 -18 -36 -38c0 -18 17 -34 36 -34s36 16 36 35s-15 37 -36 37zM66 193v367h151v-365c0 -44 31 -81 76 -81s77 37 77 81v365h150v-367
c0 -119 -86 -208 -227 -208s-227 89 -227 208z" />
    <glyph glyph-name="M.smcp" horiz-adv-x="786" 
d="M708 560v-560h-147v347l-109 -347h-112l-116 347v-347h-146v560h186l131 -374l131 374h182z" />
    <glyph glyph-name="Atilde.smcp" horiz-adv-x="623" 
d="M192 615l-41 83c52 30 75 30 91 30c25 0 102 -22 125 -22c19 0 29 4 70 22l39 -81c-46 -35 -82 -36 -97 -36c-26 0 -102 20 -124 20c-25 0 -42 -8 -63 -16zM310 395l-64 -216h126zM385 560l208 -560h-167l-20 66h-193l-20 -66h-163l204 560h151z" />
    <glyph glyph-name="Wcircumflex.smcp" horiz-adv-x="905" 
d="M288 658l164 132l165 -132l-69 -75l-96 77l-95 -76zM554 0l-101 324l-101 -324h-129l-200 560h160l106 -348l104 348h119l105 -348l105 348h160l-200 -560h-128z" />
    <glyph glyph-name="questiondown.smcp" horiz-adv-x="501" 
d="M349 484c0 -50 -39 -91 -91 -91s-93 41 -93 91c0 49 41 91 93 91s91 -42 91 -91zM333 373c0 -68 -16 -105 -74 -142c-30 -20 -63 -43 -63 -84c0 -35 24 -52 57 -52s59 21 59 75h149c0 -95 -62 -181 -208 -181c-106 0 -204 51 -204 159c0 85 60 120 87 142
c32 26 46 41 46 83h151z" />
    <glyph glyph-name="Dcaron.smcp" horiz-adv-x="639" 
d="M311 584l-156 132l65 75l91 -79l92 79l66 -75zM78 560h219c185 0 292 -135 292 -280s-105 -280 -292 -280h-219v560zM287 431h-58v-302h58c93 0 147 73 147 151s-54 151 -147 151z" />
    <glyph glyph-name="two.denominator" horiz-adv-x="397" 
d="M54 0c0 127 41 167 101 203c54 31 84 47 84 80c0 26 -16 37 -36 37c-24 0 -40 -14 -40 -51h-107c0 64 43 125 147 125c73 0 141 -33 141 -117c0 -61 -51 -98 -98 -126c-51 -30 -69 -41 -69 -68h164v-83h-287z" />
    <glyph glyph-name="Kcommaaccent.smcp" horiz-adv-x="604" 
d="M573 0h-178l-166 232v-232h-151v560h151v-233l166 233h178l-212 -280zM235 -80c0 37 29 67 65 67c45 0 75 -35 75 -85c0 -102 -51 -138 -138 -138v42c57 0 77 27 81 54c-1 -1 -11 -6 -18 -6c-40 0 -65 30 -65 66z" />
    <glyph glyph-name="H.smcp" horiz-adv-x="629" 
d="M400 0v214h-171v-214h-151v560h151v-218h171v218h152v-560h-152z" />
    <glyph glyph-name="uni021A.smcp" horiz-adv-x="473" 
d="M161 0v430h-120v130h391v-130h-120v-430h-151zM167 -80c0 37 30 67 66 67c45 0 75 -35 75 -85c0 -102 -51 -138 -138 -138v42c56 0 77 27 81 54c-1 -1 -11 -6 -18 -6c-41 0 -66 30 -66 66z" />
    <glyph glyph-name="Otilde.smcp" horiz-adv-x="701" 
d="M229 615l-41 83c52 30 74 30 91 30c25 0 102 -22 124 -22c20 0 30 4 71 22l38 -81c-46 -35 -81 -36 -96 -36c-26 0 -102 20 -125 20c-24 0 -41 -8 -62 -16zM350 -15c-189 0 -300 141 -300 295s111 295 300 295c190 0 301 -141 301 -295s-111 -295 -301 -295zM350 123
c92 0 147 75 147 157s-55 157 -147 157s-147 -75 -147 -157s55 -157 147 -157z" />
    <glyph glyph-name="braceleft.smcp" horiz-adv-x="442" 
d="M274 611h95v-118h-32c-46 0 -61 -35 -61 -68v-120c0 -68 -56 -88 -80 -91c24 -3 80 -20 80 -95v-107c0 -32 15 -68 61 -68h32v-117h-95c-85 0 -142 49 -142 136v122c0 48 -34 64 -67 64v130c33 0 67 15 67 61v133c0 88 57 138 142 138z" />
    <glyph glyph-name="G.smcp" horiz-adv-x="720" 
d="M377 200v104h305v-104h-55c-21 -128 -118 -215 -281 -215c-190 0 -296 135 -296 295c0 153 110 295 296 295c156 0 260 -93 270 -204h-165c-6 37 -44 74 -104 74c-94 0 -143 -81 -143 -167c0 -92 49 -168 152 -168c69 0 108 41 117 90h-96z" />
    <glyph glyph-name="two.003" horiz-adv-x="800" 
d="M400 -18c-233 0 -371 176 -371 368c0 191 138 368 371 368c232 0 370 -177 370 -368c0 -192 -138 -368 -370 -368zM400 68c171 0 272 135 272 282s-101 282 -272 282s-273 -135 -273 -282s102 -282 273 -282zM254 160c0 127 41 167 101 202c54 32 84 48 84 81
c0 25 -16 36 -36 36c-24 0 -40 -13 -40 -50h-107c0 64 43 125 147 125c73 0 141 -33 141 -117c0 -62 -51 -99 -98 -126c-51 -30 -69 -41 -69 -68h164v-83h-287z" />
    <glyph glyph-name="Umacron.smcp" horiz-adv-x="586" 
d="M443 754v-101h-300v101h300zM66 193v367h151v-365c0 -44 31 -81 76 -81s77 37 77 81v365h150v-367c0 -119 -86 -208 -227 -208s-227 89 -227 208z" />
    <glyph glyph-name="four.smcp" horiz-adv-x="569" 
d="M305 0v149h-232v411h145v-291h87v149h144v-149h64v-120h-64v-149h-144z" />
    <glyph glyph-name="Zcaron.smcp" horiz-adv-x="585" 
d="M301 576l-157 132l66 76l91 -79l91 79l66 -76zM68 435v125h476l-265 -435h252v-125h-489l264 435h-238z" />
    <glyph glyph-name="zero.denominator" horiz-adv-x="413" 
d="M52 130v125c0 75 58 139 154 139c95 0 156 -64 156 -139v-125c0 -75 -61 -139 -156 -139c-96 0 -154 64 -154 139zM255 130v125c0 28 -19 52 -49 52c-29 0 -47 -24 -47 -52v-125c0 -28 18 -52 47 -52c30 0 49 24 49 52z" />
    <glyph glyph-name="Aogonek.smcp" horiz-adv-x="623" 
d="M548 -95l-2 -63c-23 -7 -46 -12 -78 -12c-73 0 -106 36 -106 78c0 34 21 62 64 92l-20 66h-193l-20 -66h-163l204 560h151l208 -560h-81c-22 -14 -45 -31 -45 -62c0 -23 13 -43 37 -43c12 0 29 3 44 10zM310 395l-64 -216h126z" />
    <glyph glyph-name="Hbar.smcp" horiz-adv-x="628" 
d="M400 342v66h-171v-66h171zM78 560h151v-70h171v70h152v-560h-152v214h-171v-214h-151v560z" />
    <glyph glyph-name="Ydieresis.smcp" horiz-adv-x="584" 
d="M125 680c0 44 36 81 80 81c47 0 82 -37 82 -81c0 -43 -35 -78 -82 -78c-44 0 -80 35 -80 78zM323 680c0 44 35 81 81 81c45 0 81 -37 81 -81c0 -43 -36 -78 -81 -78c-46 0 -81 35 -81 78zM566 560l-278 -560h-169l100 203l-192 357h177l102 -208l92 208h168z" />
    <glyph glyph-name="bracketright.smcp" horiz-adv-x="375" 
d="M298 -173h-233v123h90v537h-90v124h233v-784z" />
    <glyph glyph-name="Rcommaaccent.smcp" horiz-adv-x="597" 
d="M307 441h-78v-174h77c49 0 80 40 80 87s-31 87 -79 87zM78 0v560h255c126 0 207 -95 207 -206c0 -78 -39 -146 -106 -181l112 -173h-177l-90 148h-50v-148h-151zM228 -80c0 37 30 67 66 67c45 0 75 -35 75 -85c0 -102 -52 -138 -138 -138v42c56 0 77 27 81 54
c-1 -1 -11 -6 -18 -6c-41 0 -66 30 -66 66z" />
    <glyph glyph-name="ordfeminine.smcp" horiz-adv-x="577" 
d="M277 110c49 0 82 39 82 86s-33 87 -82 87c-48 0 -81 -40 -81 -87s33 -86 81 -86zM359 393h143v-393h-143v57c-16 -33 -66 -67 -120 -67c-110 0 -186 85 -186 206s76 206 186 206c54 0 104 -33 120 -67v58z" />
    <glyph glyph-name="Ccaron.smcp" horiz-adv-x="690" 
d="M345 593l-156 131l65 75l91 -78l91 78l66 -75zM482 212h160c-20 -124 -123 -227 -288 -227c-191 0 -304 138 -304 296c0 153 112 294 298 294c178 0 277 -108 293 -240h-158c-11 58 -55 103 -129 103c-98 0 -150 -75 -150 -157c0 -89 57 -159 154 -159
c63 0 111 40 124 90z" />
    <glyph glyph-name="five.003" horiz-adv-x="800" 
d="M400 -18c-233 0 -371 176 -371 368c0 191 138 368 371 368c232 0 370 -177 370 -368c0 -192 -138 -368 -370 -368zM400 68c171 0 272 135 272 282s-101 282 -272 282s-273 -135 -273 -282s102 -282 273 -282zM256 316v224h279v-78h-179v-72c14 21 44 32 75 32
c87 0 126 -69 126 -132c0 -79 -56 -144 -155 -144c-100 0 -156 65 -156 142h103c0 -31 20 -57 53 -57c32 0 53 26 53 59c0 29 -20 56 -53 56c-26 0 -39 -11 -49 -30h-97z" />
    <glyph glyph-name="Idieresis.smcp" horiz-adv-x="308" 
d="M-19 680c0 45 36 82 82 82c47 0 83 -37 83 -82c0 -43 -36 -80 -83 -80c-46 0 -82 37 -82 80zM179 680c0 45 36 82 82 82s83 -37 83 -82c0 -43 -37 -80 -83 -80s-82 37 -82 80zM78 0v560h152v-560h-152z" />
    <glyph glyph-name="Eacute.smcp" horiz-adv-x="503" 
d="M390 686l-234 -98l-37 94l234 98zM431 444h-202v-110h202v-112h-202v-106h202v-116h-353v560h353v-116z" />
    <glyph glyph-name="five.004" horiz-adv-x="800" 
d="M400 -18c-233 0 -371 176 -371 368c0 191 138 368 371 368c232 0 370 -177 370 -368c0 -192 -138 -368 -370 -368zM256 316h97c10 19 23 30 49 30c33 0 53 -27 53 -56c0 -33 -21 -59 -53 -59c-33 0 -53 26 -53 57h-103c0 -77 56 -142 156 -142c99 0 155 65 155 144
c0 63 -39 132 -126 132c-31 0 -61 -11 -75 -32v72h179v78h-279v-224z" />
    <glyph glyph-name="eight.numerator" horiz-adv-x="410" 
d="M205 306c-98 0 -154 53 -154 118c0 44 31 82 66 91c-31 11 -56 44 -56 83c0 61 52 111 144 111s144 -50 144 -111c0 -39 -24 -72 -56 -83c35 -11 66 -47 66 -91c0 -64 -56 -118 -154 -118zM205 551c28 0 44 20 44 42s-16 42 -44 42s-44 -20 -44 -42s16 -42 44 -42z
M205 380c32 0 51 23 51 47c0 25 -18 47 -51 47s-51 -21 -51 -47c0 -25 19 -47 51 -47z" />
    <glyph glyph-name="Udieresis.001" horiz-adv-x="657" 
d="M519 870l-87 -130h-96l87 130h96zM382 870l-87 -130h-96l87 130h96zM56 239v461h162v-460c0 -64 44 -118 110 -118s111 54 111 118v460h162v-461c0 -144 -105 -257 -273 -257c-167 0 -272 113 -272 257z" />
    <glyph glyph-name="Tcommaaccent.smcp" horiz-adv-x="473" 
d="M161 0v430h-120v130h391v-130h-120v-430h-151zM167 -80c0 37 30 67 66 67c45 0 75 -35 75 -85c0 -102 -51 -138 -138 -138v42c56 0 77 27 81 54c-1 -1 -11 -6 -18 -6c-41 0 -66 30 -66 66z" />
    <glyph glyph-name="plus.denominator" horiz-adv-x="410" 
d="M245 34h-80v84h-82v77h82v84h80v-84h82v-77h-82v-84z" />
    <glyph glyph-name="six.smcp" horiz-adv-x="568" 
d="M283 -11c-140 0 -221 93 -221 205c0 43 12 83 34 117l163 249h161l-110 -163h7c118 -11 187 -99 187 -203c0 -112 -81 -205 -221 -205zM283 107c50 0 82 39 82 87c0 49 -32 88 -82 88s-82 -39 -82 -88c0 -48 32 -87 82 -87z" />
    <glyph glyph-name="four.denominator" horiz-adv-x="416" 
d="M222 0v100h-163v285h107v-197h56v100h106v-100h43v-88h-43v-100h-106z" />
    <glyph glyph-name="eight.smcp" horiz-adv-x="569" 
d="M280 -13c-139 0 -219 78 -219 172c0 63 43 119 94 132c-47 17 -79 66 -79 120c0 89 74 162 204 162s204 -74 204 -162c0 -54 -32 -103 -79 -120c51 -15 93 -70 93 -133c0 -91 -79 -171 -218 -171zM280 340c43 0 68 30 68 65c0 33 -25 64 -68 64s-69 -30 -69 -64
c0 -35 26 -65 69 -65zM280 91c49 0 79 35 79 72s-28 72 -79 72s-79 -33 -79 -72s29 -72 79 -72z" />
    <glyph glyph-name="five.plf.smcp" horiz-adv-x="584" 
d="M86 235v325h395v-109h-261v-112c22 32 68 48 112 48c126 0 183 -98 183 -193c0 -113 -81 -207 -221 -207s-221 94 -221 205h139c0 -48 31 -87 82 -87s82 40 82 89c0 47 -31 88 -82 88c-37 0 -60 -17 -75 -47h-133z" />
    <glyph glyph-name="Ubreve.smcp" horiz-adv-x="586" 
d="M105 738h108c12 -28 35 -50 80 -50c44 0 68 23 80 50h108c-15 -92 -95 -146 -188 -146c-94 0 -170 54 -188 146zM66 193v367h151v-365c0 -44 31 -81 76 -81s77 37 77 81v365h150v-367c0 -119 -86 -208 -227 -208s-227 89 -227 208z" />
    <glyph glyph-name="Ccircumflex.smcp" horiz-adv-x="690" 
d="M185 675l164 131l164 -131l-68 -75l-96 75l-95 -75zM482 212h160c-20 -124 -123 -227 -288 -227c-191 0 -304 138 -304 296c0 153 112 294 298 294c178 0 277 -108 293 -240h-158c-11 58 -55 103 -129 103c-98 0 -150 -75 -150 -157c0 -89 57 -159 154 -159
c63 0 111 40 124 90z" />
    <glyph glyph-name="Lcaron.smcp" horiz-adv-x="427" 
d="M152 586l-156 132l65 75l91 -79l92 79l65 -75zM229 130h152v-130h-303v560h151v-430z" />
    <glyph glyph-name="parenleft.numerator" horiz-adv-x="283" 
d="M234 733v-88c-45 0 -71 -34 -71 -75v-213c0 -40 26 -74 71 -74v-89c-108 0 -174 74 -174 163v213c0 89 66 163 174 163z" />
    <glyph glyph-name="Aacute.smcp" horiz-adv-x="623" 
d="M447 678l-234 -98l-37 95l234 97zM310 395l-64 -216h126zM385 560l208 -560h-167l-20 66h-193l-20 -66h-163l204 560h151z" />
    <glyph glyph-name="IJ.smcp" horiz-adv-x="796" 
d="M78 0v560h152v-560h-152zM726 560v-361c0 -146 -84 -213 -218 -213c-147 0 -217 93 -217 213h151c0 -48 22 -85 66 -85c42 0 66 30 66 85v361h152z" />
    <glyph glyph-name="five.smcp" horiz-adv-x="569" 
d="M77 235v325h394v-109h-260v-112c22 32 68 48 112 48c125 0 183 -98 183 -193c0 -113 -81 -207 -222 -207c-139 0 -221 94 -221 205h140c0 -48 31 -87 81 -87c51 0 83 40 83 89c0 47 -31 88 -82 88c-37 0 -61 -17 -76 -47h-132z" />
    <glyph glyph-name="Edieresis.001" horiz-adv-x="555" 
d="M485 870l-87 -130h-97l87 130h97zM347 870l-87 -130h-96l87 130h96zM494 570h-265v-159h265v-127h-265v-154h265v-130h-427v700h427v-130z" />
    <glyph glyph-name="multiply.case.copy_1" 
d="M303 441l108 108l92 -92l-108 -108l106 -106l-87 -86l-105 105l-108 -108l-92 92l108 108l-105 105l86 87z" />
    <glyph glyph-name="Cdotaccent.smcp" horiz-adv-x="690" 
d="M266 689c0 45 36 82 82 82c47 0 83 -37 83 -82c0 -43 -36 -80 -83 -80c-46 0 -82 37 -82 80zM482 212h160c-20 -124 -123 -227 -288 -227c-191 0 -304 138 -304 296c0 153 112 294 298 294c178 0 277 -108 293 -240h-158c-11 58 -55 103 -129 103
c-98 0 -150 -75 -150 -157c0 -89 57 -159 154 -159c63 0 111 40 124 90z" />
    <glyph glyph-name="zero.plf.smcp" horiz-adv-x="571" 
d="M65 189v182c0 109 84 202 221 202c134 0 220 -93 220 -202v-182c0 -109 -86 -202 -220 -202c-137 0 -221 93 -221 202zM361 189v182c0 44 -29 82 -75 82c-47 0 -76 -38 -76 -82v-182c0 -44 29 -82 76 -82c46 0 75 38 75 82z" />
    <glyph glyph-name="Abreve.smcp" horiz-adv-x="623" 
d="M123 737h108c13 -27 36 -49 80 -49s68 23 79 49h109c-16 -92 -95 -145 -188 -145s-171 54 -188 145zM310 395l-64 -216h126zM385 560l208 -560h-167l-20 66h-193l-20 -66h-163l204 560h151z" />
    <glyph glyph-name="Uhungarumlaut.smcp" horiz-adv-x="586" 
d="M136 637l100 150l90 -56l-136 -116zM292 637l100 150l90 -56l-136 -116zM66 193v367h151v-365c0 -44 31 -81 76 -81s77 37 77 81v365h150v-367c0 -119 -86 -208 -227 -208s-227 89 -227 208z" />
    <glyph glyph-name="Z.smcp" horiz-adv-x="585" 
d="M68 435v125h476l-265 -435h252v-125h-489l264 435h-238z" />
    <glyph glyph-name="braceright.smcp" horiz-adv-x="442" 
d="M74 611h94c86 0 142 -50 142 -138v-133c0 -46 35 -61 67 -61v-130c-32 0 -67 -16 -67 -64v-122c0 -87 -56 -136 -142 -136h-94v117h32c45 0 61 36 61 68v107c0 75 55 92 79 95c-24 3 -79 23 -79 91v120c0 33 -16 68 -61 68h-32v118z" />
    <glyph glyph-name="Emacron.smcp" horiz-adv-x="503" 
d="M401 731v-100h-299v100h299zM431 444h-202v-110h202v-112h-202v-106h202v-116h-353v560h353v-116z" />
    <glyph glyph-name="I.smcp" horiz-adv-x="308" 
d="M78 0v560h152v-560h-152z" />
    <glyph glyph-name="two.smcp" horiz-adv-x="569" 
d="M83 0c0 183 60 240 147 293c73 43 120 67 120 119c0 40 -25 57 -57 57c-37 0 -64 -22 -64 -76h-145c0 96 67 180 208 180c105 0 200 -50 200 -170c0 -92 -82 -147 -145 -184c-75 -47 -98 -63 -98 -105h239v-114h-405z" />
    <glyph glyph-name="eight.plf.smcp" horiz-adv-x="569" 
d="M285 -13c-139 0 -219 78 -219 172c0 63 43 119 94 132c-47 17 -80 66 -80 120c0 89 75 162 205 162c129 0 204 -74 204 -162c0 -54 -33 -103 -80 -120c52 -15 94 -70 94 -133c0 -91 -79 -171 -218 -171zM285 340c43 0 68 30 68 65c0 33 -25 64 -68 64
c-44 0 -69 -30 -69 -64c0 -35 25 -65 69 -65zM285 91c49 0 79 35 79 72s-29 72 -79 72c-51 0 -80 -33 -80 -72s30 -72 80 -72z" />
    <glyph glyph-name="K.smcp" horiz-adv-x="604" 
d="M395 0l-166 232v-232h-151v560h151v-233l166 233h178l-212 -280l212 -280h-178z" />
    <glyph glyph-name="Ccedilla.smcp" horiz-adv-x="690" 
d="M642 212c-19 -117 -112 -214 -259 -225v-26c6 6 17 13 36 13c40 0 68 -34 68 -73c0 -43 -30 -82 -90 -82c-40 0 -85 22 -90 76h64c2 -13 11 -23 26 -23s26 12 26 29c0 15 -11 26 -25 26c-13 0 -19 -5 -23 -13h-58v73c-169 16 -267 147 -267 294c0 153 112 294 298 294
c178 0 277 -108 293 -240h-158c-11 58 -55 103 -129 103c-98 0 -150 -75 -150 -157c0 -89 57 -159 154 -159c63 0 111 40 124 90h160z" />
    <glyph glyph-name="Wdieresis.smcp" horiz-adv-x="905" 
d="M273 688c0 43 35 80 80 80c46 0 81 -37 81 -80s-35 -80 -81 -80c-45 0 -80 37 -80 80zM470 688c0 43 35 80 81 80s81 -37 81 -80s-35 -80 -81 -80s-81 37 -81 80zM554 0l-101 324l-101 -324h-129l-200 560h160l106 -348l104 348h119l105 -348l105 348h160l-200 -560h-128
z" />
    <glyph glyph-name="Odieresis.001" horiz-adv-x="805" 
d="M583 870l-87 -130h-96l87 130h96zM359 740h-97l87 130h97zM693 350c0 -156 -108 -299 -290 -299s-290 143 -290 299s108 299 290 299s290 -143 290 -299zM161 396c-28 -127 47 -266 197 -291c150 -24 257 73 286 199c28 127 -47 266 -197 291c-150 24 -257 -73 -286 -199
z" />
    <glyph glyph-name="germandbls.smcp" horiz-adv-x="541" 
d="M232 0v106c13 -3 33 -6 41 -6c33 0 65 24 65 70c0 34 -22 68 -68 68h-18v109h17c46 0 64 28 64 63c0 37 -27 59 -60 59c-38 0 -60 -31 -60 -76v-393h-149v393c0 89 50 180 210 180c107 0 206 -47 206 -158c0 -65 -43 -111 -89 -125c50 -17 96 -68 96 -137
c0 -106 -73 -164 -174 -164c-40 0 -63 5 -81 11z" />
    <glyph glyph-name="four.004" horiz-adv-x="800" 
d="M400 -18c-233 0 -371 176 -371 368s138 368 371 368s371 -176 371 -368s-138 -368 -371 -368zM405 155h107v100h42v88h-42v100h-107v-100h-56v197h-107v-285h163v-100z" />
    <glyph glyph-name="four.003" horiz-adv-x="800" 
d="M400 -18c-233 0 -371 176 -371 368s138 368 371 368s371 -176 371 -368s-138 -368 -371 -368zM400 68c171 0 273 135 273 282s-102 282 -273 282s-273 -135 -273 -282s102 -282 273 -282zM405 155v100h-163v285h107v-197h56v100h107v-100h42v-88h-42v-100h-107z" />
    <glyph glyph-name="Igrave.smcp" horiz-adv-x="308" 
d="M252 581l-233 98l37 94l233 -98zM78 0v560h152v-560h-152z" />
    <glyph glyph-name="Odieresis.001.smcp" horiz-adv-x="701" 
d="M501 696l-70 -104h-83l70 104h83zM385 696l-70 -104h-83l70 104h83zM350 -15c-189 0 -300 141 -300 295s111 295 300 295c190 0 301 -141 301 -295s-111 -295 -301 -295zM497 280c0 82 -55 157 -147 157s-147 -75 -147 -157s55 -157 147 -157s147 75 147 157z" />
    <glyph glyph-name="Gbreve.smcp" horiz-adv-x="720" 
d="M158 738h108c12 -28 36 -50 80 -50s68 23 80 50h108c-15 -92 -95 -146 -188 -146s-171 54 -188 146zM377 200v104h305v-104h-55c-21 -128 -118 -215 -281 -215c-190 0 -296 135 -296 295c0 153 110 295 296 295c156 0 260 -93 270 -204h-165c-6 37 -44 74 -104 74
c-94 0 -143 -81 -143 -167c0 -92 49 -168 152 -168c69 0 108 41 117 90h-96z" />
    <glyph glyph-name="minus.denominator" horiz-adv-x="410" 
d="M327 118h-244v77h244v-77z" />
    <glyph glyph-name="AE.smcp" horiz-adv-x="805" 
d="M268 179h110v248zM731 444h-201v-110h201v-112h-201v-106h201v-116h-353v66h-158l-28 -66h-165l266 560h438v-116z" />
    <glyph glyph-name="Ucircumflex.smcp" horiz-adv-x="586" 
d="M127 661l164 132l164 -132l-68 -75l-96 76l-95 -76zM66 193v367h151v-365c0 -44 31 -81 76 -81s77 37 77 81v365h150v-367c0 -119 -86 -208 -227 -208s-227 89 -227 208z" />
    <glyph glyph-name="L.smcp" horiz-adv-x="427" 
d="M229 130h151v-130h-302v560h151v-430z" />
    <glyph glyph-name="parenright.smcp" horiz-adv-x="376" 
d="M54 485v126c154 0 248 -108 248 -236v-318c0 -128 -94 -235 -248 -235v126c65 0 103 50 103 109v318c0 60 -38 110 -103 110z" />
    <glyph glyph-name="Agrave.smcp" horiz-adv-x="623" 
d="M416 584l-234 99l37 94l234 -99zM310 395l-64 -216h126zM385 560l208 -560h-167l-20 66h-193l-20 -66h-163l204 560h151z" />
    <glyph glyph-name="Aring.smcp" horiz-adv-x="623" 
d="M312 803c62 0 112 -52 112 -113s-50 -112 -112 -112c-63 0 -114 51 -114 112c0 63 51 113 114 113zM312 728c-21 0 -37 -18 -37 -38c0 -18 17 -34 37 -34c19 0 35 16 35 35s-15 37 -35 37zM310 395l-64 -216h126zM385 560l208 -560h-167l-20 66h-193l-20 -66h-163
l204 560h151z" />
    <glyph glyph-name="Gcommaaccent.smcp" horiz-adv-x="720" 
d="M377 200v104h305v-104h-55c-21 -128 -118 -215 -281 -215c-190 0 -296 135 -296 295c0 153 110 295 296 295c156 0 260 -93 270 -204h-165c-6 37 -44 74 -104 74c-94 0 -143 -81 -143 -167c0 -92 49 -168 152 -168c69 0 108 41 117 90h-96zM283 -88c0 38 30 67 66 67
c45 0 75 -35 75 -85c0 -101 -52 -137 -138 -138v42c56 0 77 27 81 54c-1 -1 -11 -5 -18 -5c-41 0 -66 29 -66 65z" />
    <glyph glyph-name="Yacute.smcp" horiz-adv-x="584" 
d="M459 683l-234 -98l-37 94l234 98zM566 560l-278 -560h-169l100 203l-192 357h177l102 -208l92 208h168z" />
    <glyph glyph-name="slash.smcp" horiz-adv-x="465" 
d="M36 -1l274 638l136 -57l-275 -639z" />
    <glyph glyph-name="Thorn.smcp" horiz-adv-x="502" 
d="M214 560v-85h26c143 0 221 -93 221 -199s-78 -199 -221 -199h-26v-77h-141v560h141zM214 357v-162h26c50 0 80 38 80 81s-30 81 -80 81h-26z" />
    <glyph glyph-name="parenright.denominator" horiz-adv-x="283" 
d="M49 330v88c108 0 173 -74 173 -163v-213c0 -89 -65 -163 -173 -163v89c44 0 71 34 71 74v213c0 41 -27 75 -71 75z" />
    <glyph glyph-name="plus.numerator" horiz-adv-x="410" 
d="M245 349h-80v84h-82v77h82v84h80v-84h82v-77h-82v-84z" />
    <glyph glyph-name="Wacute.smcp" horiz-adv-x="905" 
d="M588 686l-234 -98l-37 94l234 98zM554 0l-101 324l-101 -324h-129l-200 560h160l106 -348l104 348h119l105 -348l105 348h160l-200 -560h-128z" />
    <glyph glyph-name="Zdotaccent.smcp" horiz-adv-x="585" 
d="M213 686c0 45 36 82 82 82s83 -37 83 -82c0 -43 -37 -81 -83 -81s-82 38 -82 81zM68 435v125h476l-265 -435h252v-125h-489l264 435h-238z" />
    <glyph glyph-name="Zacute.smcp" horiz-adv-x="585" 
d="M433 686l-234 -98l-37 94l234 98zM68 435v125h476l-265 -435h252v-125h-489l264 435h-238z" />
    <glyph glyph-name="Tcaron.smcp" horiz-adv-x="473" 
d="M236 585l-157 132l65 75l92 -78l92 78l65 -75zM161 0v430h-120v130h391v-130h-120v-430h-151z" />
    <glyph glyph-name="Oslash.smcp" horiz-adv-x="701" 
d="M203 280c0 -44 16 -88 46 -117l117 273c-96 8 -163 -69 -163 -156zM497 280c0 44 -17 87 -47 117l-118 -273c91 -15 165 69 165 156zM166 -28l23 55c-89 52 -139 149 -139 253c0 154 111 295 300 295c26 0 51 -3 74 -8l26 60l85 -37l-25 -56c91 -54 141 -150 141 -254
c0 -154 -111 -295 -301 -295c-27 0 -52 3 -76 9l-24 -58z" />
    <glyph glyph-name="nine.numerator" horiz-adv-x="402" 
d="M223 315h-119l74 110c-83 9 -132 67 -132 140c0 78 57 143 156 143c98 0 156 -65 156 -143c0 -30 -8 -57 -24 -80zM202 622c-32 0 -53 -25 -53 -57c0 -31 21 -56 53 -56s53 25 53 56c0 32 -21 57 -53 57z" />
    <glyph glyph-name="Ldot.smcp" horiz-adv-x="459" 
d="M229 130h151v-130h-302v560h151v-430zM268 280c0 49 40 90 91 90s91 -41 91 -90s-40 -89 -91 -89s-91 40 -91 89z" />
    <glyph glyph-name="one.denominator" horiz-adv-x="298" 
d="M46 243v72c77 0 95 24 95 70h92v-385h-108v243h-79z" />
    <glyph glyph-name="seven.numerator" horiz-adv-x="372" 
d="M48 700h299l-164 -385h-115l127 297h-147v88z" />
    <glyph glyph-name="U.smcp" horiz-adv-x="586" 
d="M66 193v367h151v-365c0 -44 31 -81 76 -81s77 37 77 81v365h150v-367c0 -119 -86 -208 -227 -208s-227 89 -227 208z" />
    <glyph glyph-name="Oslashacute.smcp" horiz-adv-x="701" 
d="M251 588l-37 94l234 98l37 -94zM203 280c0 -44 16 -88 46 -117l117 273c-96 8 -163 -69 -163 -156zM497 280c0 44 -17 87 -47 117l-118 -273c91 -15 165 69 165 156zM166 -28l23 55c-89 52 -139 149 -139 253c0 154 111 295 300 295c26 0 51 -3 74 -8l26 60l85 -37
l-25 -56c91 -54 141 -150 141 -254c0 -154 -111 -295 -301 -295c-27 0 -52 3 -76 9l-24 -58z" />
    <glyph glyph-name="Eng.smcp" horiz-adv-x="652" 
d="M357 -196c-56 0 -102 22 -136 59l83 93c20 -14 32 -25 53 -25c39 0 62 27 65 71l-193 335v-337h-151v560h151l195 -346v346h151v-544c0 -146 -83 -212 -218 -212z" />
    <glyph glyph-name="Lslash.smcp" horiz-adv-x="431" 
d="M233 130h151v-130h-303v198l-32 -12v107l32 12v255h152v-201l95 37v-107l-95 -37v-122z" />
    <glyph glyph-name="T.smcp" horiz-adv-x="473" 
d="M161 0v430h-120v130h391v-130h-120v-430h-151z" />
    <glyph glyph-name="Ecircumflex.smcp" horiz-adv-x="503" 
d="M92 661l163 132l165 -132l-68 -75l-96 76l-95 -76zM431 444h-202v-110h202v-112h-202v-106h202v-116h-353v560h353v-116z" />
    <glyph glyph-name="seven.plf.smcp" horiz-adv-x="509" 
d="M60 560h421l-239 -560h-154l189 440h-217v120z" />
    <glyph glyph-name="Ycircumflex.smcp" horiz-adv-x="584" 
d="M128 662l164 131l165 -131l-70 -76l-95 77l-95 -76zM566 560l-278 -560h-169l100 203l-192 357h177l102 -208l92 208h168z" />
    <glyph glyph-name="Ugrave.smcp" horiz-adv-x="586" 
d="M397 588l-234 98l37 94l234 -98zM66 193v367h151v-365c0 -44 31 -81 76 -81s77 37 77 81v365h150v-367c0 -119 -86 -208 -227 -208s-227 89 -227 208z" />
    <glyph glyph-name="Ecaron.smcp" horiz-adv-x="503" 
d="M251 586l-157 132l65 75l92 -79l92 79l65 -75zM431 444h-202v-110h202v-112h-202v-106h202v-116h-353v560h353v-116z" />
    <glyph glyph-name="question.smcp" horiz-adv-x="501" 
d="M168 189c1 68 17 105 75 143c30 19 63 41 63 83c0 35 -24 52 -58 52c-32 0 -59 -21 -59 -74h-149c0 94 62 180 208 180c106 0 205 -50 205 -159c0 -84 -60 -119 -87 -142c-32 -26 -46 -40 -46 -83h-152zM152 79c0 49 40 90 92 90s93 -41 93 -90c0 -51 -41 -92 -93 -92
s-92 41 -92 92z" />
    <glyph glyph-name="nine.003" horiz-adv-x="800" 
d="M400 -18c-233 0 -371 176 -371 368c0 191 138 368 371 368c232 0 370 -177 370 -368c0 -192 -138 -368 -370 -368zM400 68c171 0 272 135 272 282s-101 282 -272 282s-273 -135 -273 -282s102 -282 273 -282zM403 547c98 0 156 -64 156 -142c0 -30 -8 -58 -24 -81
l-111 -170h-119l74 110c-83 9 -132 68 -132 141c0 78 57 142 156 142zM403 461c-32 0 -53 -25 -53 -56c0 -32 21 -57 53 -57s53 25 53 57c0 31 -21 56 -53 56z" />
    <glyph glyph-name="nine.004" horiz-adv-x="800" 
d="M400 -18c-233 0 -371 176 -371 368c0 191 138 368 371 368c232 0 370 -177 370 -368c0 -192 -138 -368 -370 -368zM403 547c-99 0 -156 -64 -156 -142c0 -73 49 -132 132 -141l-74 -110h119l111 170c16 23 24 51 24 81c0 78 -58 142 -156 142zM403 461
c32 0 53 -25 53 -56c0 -32 -21 -57 -53 -57s-53 25 -53 57c0 31 21 56 53 56z" />
    <glyph glyph-name="Edieresis.smcp" horiz-adv-x="503" 
d="M78 680c0 45 37 82 83 82s83 -37 83 -82c0 -43 -37 -80 -83 -80s-83 37 -83 80zM277 680c0 45 35 82 81 82c47 0 83 -37 83 -82c0 -43 -36 -80 -83 -80c-46 0 -81 37 -81 80zM431 444h-202v-110h202v-112h-202v-106h202v-116h-354v560h354v-116z" />
    <glyph glyph-name="X.smcp" horiz-adv-x="561" 
d="M281 391l88 169h165l-166 -280l166 -280h-165l-88 168l-88 -168h-166l166 280l-166 280h166z" />
    <glyph glyph-name="Ohungarumlaut.smcp" horiz-adv-x="701" 
d="M242 615l-55 22l100 150l90 -56zM343 637l100 150l90 -56l-135 -116zM350 -15c-189 0 -300 141 -300 295s111 295 300 295c190 0 301 -141 301 -295s-111 -295 -301 -295zM350 123c92 0 147 75 147 157s-55 157 -147 157s-147 -75 -147 -157s55 -157 147 -157z" />
    <glyph glyph-name="Edieresis.001.smcp" horiz-adv-x="503" 
d="M422 696l-69 -104h-84l70 104h83zM306 696l-70 -104h-83l70 104h83zM431 444h-202v-110h202v-112h-202v-106h202v-116h-353v560h353v-116z" />
    <glyph glyph-name="seven.smcp" horiz-adv-x="569" 
d="M89 560h421l-239 -560h-154l189 440h-217v120z" />
    <glyph glyph-name="Odieresis.smcp" horiz-adv-x="701" 
d="M365 682c0 46 35 82 81 82c47 0 83 -36 83 -82c0 -44 -36 -80 -83 -80c-46 0 -81 36 -81 80zM249 602c-46 0 -82 36 -82 80c0 46 36 82 82 82c47 0 82 -36 82 -82c0 -44 -35 -80 -82 -80zM350 -15c-189 0 -300 141 -300 295s111 295 300 295c190 0 301 -141 301 -295
s-111 -295 -301 -295zM350 123c92 0 147 75 147 157s-55 157 -147 157s-147 -75 -147 -157s55 -157 147 -157z" />
    <glyph glyph-name="parenright.numerator" horiz-adv-x="283" 
d="M49 645v88c108 0 173 -74 173 -163v-213c0 -89 -65 -163 -173 -163v89c44 0 71 34 71 74v213c0 41 -27 75 -71 75z" />
    <glyph glyph-name="three.smcp" horiz-adv-x="569" 
d="M65 189h145c0 -57 29 -90 74 -90c44 0 67 34 67 70c0 42 -21 70 -75 70h-56v108h56c54 0 70 25 70 64c0 40 -24 58 -58 58c-50 0 -64 -30 -64 -76h-145c0 91 53 180 206 180c107 0 203 -48 203 -158c0 -63 -40 -110 -85 -125c50 -17 93 -65 93 -136
c0 -108 -100 -167 -207 -167c-154 0 -224 85 -224 202z" />
    <glyph glyph-name="two.numerator" horiz-adv-x="397" 
d="M54 315c0 127 41 167 101 203c54 31 84 47 84 80c0 26 -16 37 -36 37c-24 0 -40 -14 -40 -51h-107c0 64 43 125 147 125c73 0 141 -33 141 -117c0 -61 -51 -98 -98 -126c-51 -30 -69 -41 -69 -68h164v-83h-287z" />
    <glyph glyph-name="one.smcp" horiz-adv-x="569" 
d="M125 361v99c111 0 136 33 136 100h126v-560h-147v361h-115z" />
    <glyph glyph-name="Ygrave.smcp" horiz-adv-x="584" 
d="M390 588l-233 98l37 94l233 -98zM566 560l-278 -560h-169l100 203l-192 357h177l102 -208l92 208h168z" />
    <glyph glyph-name="two.004" horiz-adv-x="800" 
d="M400 -18c-233 0 -371 176 -371 368c0 191 138 368 371 368c232 0 370 -177 370 -368c0 -192 -138 -368 -370 -368zM254 160h287v83h-164c0 27 18 38 69 68c47 27 98 64 98 126c0 84 -68 117 -141 117c-104 0 -147 -61 -147 -125h107c0 37 16 50 40 50c20 0 36 -11 36 -36
c0 -33 -30 -49 -84 -81c-60 -35 -101 -75 -101 -202z" />
    <glyph glyph-name="two.plf.smcp" horiz-adv-x="546" 
d="M69 0c0 183 61 240 148 293c72 43 120 67 120 119c0 40 -26 57 -57 57c-37 0 -64 -22 -64 -76h-145c0 96 67 180 208 180c105 0 199 -50 199 -170c0 -92 -82 -147 -144 -184c-75 -47 -98 -63 -98 -105h238v-114h-405z" />
    <glyph glyph-name="O.smcp" horiz-adv-x="701" 
d="M350 -15c-189 0 -300 141 -300 295s111 295 300 295c190 0 301 -141 301 -295s-111 -295 -301 -295zM350 123c92 0 147 75 147 157s-55 157 -147 157s-147 -75 -147 -157s55 -157 147 -157z" />
    <glyph glyph-name="Amacron.smcp" horiz-adv-x="623" 
d="M459 731v-100h-299v100h299zM310 395l-64 -216h126zM385 560l208 -560h-167l-20 66h-193l-20 -66h-163l204 560h151z" />
    <glyph glyph-name="seven.denominator" horiz-adv-x="372" 
d="M48 385h299l-164 -385h-115l127 297h-147v88z" />
    <glyph glyph-name="Adieresis.001" horiz-adv-x="660" 
d="M525 870l-87 -130h-96l87 130h96zM388 870l-87 -130h-97l87 130h97zM329 500l-86 -288h170zM403 700l253 -700h-176l-27 85h-249l-27 -85h-173l250 700h149z" />
    <glyph glyph-name="Scircumflex.smcp" horiz-adv-x="556" 
d="M117 663l164 132l164 -132l-69 -75l-95 77l-95 -76zM55 188h152c0 -55 31 -87 78 -87c37 0 63 22 63 55c0 37 -31 51 -86 72c-103 39 -193 72 -193 186c0 111 103 161 211 161c151 0 211 -90 211 -181h-151c0 47 -21 74 -62 74c-31 0 -58 -16 -58 -49
c0 -32 29 -51 78 -68c95 -34 201 -70 201 -184c0 -116 -87 -182 -221 -182c-132 0 -223 73 -223 203z" />
    <glyph glyph-name="zero.plfslash.smcp" horiz-adv-x="568" 
d="M64 189v182c0 109 83 202 220 202c134 0 220 -93 220 -202v-182c0 -109 -86 -202 -220 -202c-137 0 -220 93 -220 202zM208 264c0 -9 2 -40 4 -48l99 231c-9 4 -17 6 -27 6c-44 0 -74 -34 -75 -76c-1 -1 -1 -111 -1 -113zM360 189v117c0 7 -1 25 -2 32l-97 -227
c6 -2 15 -4 23 -4c46 0 76 38 76 82z" />
    <glyph glyph-name="four.plf.smcp" horiz-adv-x="572" 
d="M308 0v149h-231v411h144v-291h87v149h145v-149h64v-120h-64v-149h-145z" />
    <glyph glyph-name="Oacute.smcp" horiz-adv-x="701" 
d="M477 686l-233 -98l-37 94l233 98zM350 -15c-189 0 -300 141 -300 295s111 295 300 295c190 0 301 -141 301 -295s-111 -295 -301 -295zM350 123c92 0 147 75 147 157s-55 157 -147 157s-147 -75 -147 -157s55 -157 147 -157z" />
    <glyph glyph-name="Ebreve.smcp" horiz-adv-x="503" 
d="M64 736h108c12 -27 35 -49 80 -49c44 0 68 23 79 49h109c-16 -92 -96 -145 -188 -145c-94 0 -171 54 -188 145zM430 444h-201v-110h201v-112h-201v-106h201v-116h-352v560h352v-116z" />
    <glyph glyph-name="nine.smcp" horiz-adv-x="568" 
d="M283 571c140 0 221 -93 221 -205c0 -43 -12 -83 -34 -117l-162 -249h-162l110 163h-7c-118 11 -187 99 -187 203c0 112 81 205 221 205zM283 453c-50 0 -82 -39 -82 -87c0 -49 32 -88 82 -88s82 39 82 88c0 48 -32 87 -82 87z" />
    <glyph glyph-name="Utilde.smcp" horiz-adv-x="586" 
d="M172 615l-42 83c53 30 75 30 91 30c26 0 102 -22 125 -22c20 0 30 4 71 22l38 -81c-46 -35 -82 -36 -96 -36c-26 0 -102 20 -125 20c-24 0 -41 -8 -62 -16zM66 193v367h151v-365c0 -44 31 -81 76 -81s77 37 77 81v365h150v-367c0 -119 -86 -208 -227 -208
s-227 89 -227 208z" />
    <glyph glyph-name="Sacute.smcp" horiz-adv-x="556" 
d="M412 686l-233 -98l-37 94l233 98zM55 188h152c0 -55 31 -87 78 -87c37 0 63 22 63 55c0 37 -31 51 -86 72c-103 39 -193 72 -193 186c0 111 103 161 211 161c151 0 211 -90 211 -181h-151c0 47 -21 74 -62 74c-31 0 -58 -16 -58 -49c0 -32 29 -51 78 -68
c95 -34 201 -70 201 -184c0 -116 -87 -182 -221 -182c-132 0 -223 73 -223 203z" />
    <glyph glyph-name="exclam.smcp" horiz-adv-x="337" 
d="M92 202v358h153v-358h-153zM76 75c0 50 40 91 92 91c53 0 92 -41 92 -91s-39 -91 -92 -91c-52 0 -92 41 -92 91z" />
    <glyph glyph-name="ordmasculine.smcp" horiz-adv-x="548" 
d="M274 -11c-142 0 -224 95 -224 207c0 114 82 208 224 208s224 -94 224 -208c0 -112 -82 -207 -224 -207zM274 110c50 0 81 38 81 86s-31 87 -81 87c-49 0 -81 -39 -81 -87s32 -86 81 -86z" />
    <glyph glyph-name="W.smcp" horiz-adv-x="905" 
d="M554 0l-101 324l-101 -324h-129l-200 560h160l106 -348l104 348h119l105 -348l105 348h160l-200 -560h-128z" />
    <glyph glyph-name="eight.denominator" horiz-adv-x="410" 
d="M205 -9c-98 0 -154 53 -154 118c0 44 31 82 66 91c-31 11 -56 44 -56 83c0 61 52 111 144 111s144 -50 144 -111c0 -39 -24 -72 -56 -83c35 -11 66 -47 66 -91c0 -64 -56 -118 -154 -118zM205 236c28 0 44 20 44 42s-16 42 -44 42s-44 -20 -44 -42s16 -42 44 -42zM205 65
c32 0 51 23 51 47c0 25 -18 47 -51 47s-51 -21 -51 -47c0 -25 19 -47 51 -47z" />
    <glyph glyph-name="zero.smcp" horiz-adv-x="568" 
d="M64 189v182c0 109 83 202 220 202c134 0 220 -93 220 -202v-182c0 -109 -86 -202 -220 -202c-137 0 -220 93 -220 202zM360 189v182c0 44 -30 82 -76 82s-76 -38 -76 -82v-182c0 -44 30 -82 76 -82s76 38 76 82z" />
    <glyph glyph-name="Ocircumflex.smcp" horiz-adv-x="701" 
d="M186 661l164 132l165 -132l-69 -75l-95 76l-96 -76zM350 -15c-189 0 -300 141 -300 295s111 295 300 295c190 0 301 -141 301 -295s-111 -295 -301 -295zM350 123c92 0 147 75 147 157s-55 157 -147 157s-147 -75 -147 -157s55 -157 147 -157z" />
    <glyph glyph-name="Jcircumflex.smcp" horiz-adv-x="542" 
d="M232 658l164 132l164 -132l-67 -74l-97 75l-97 -74zM471 560v-361c0 -146 -82 -213 -217 -213c-147 0 -217 93 -217 213h151c0 -48 22 -85 66 -85c42 0 67 30 67 85v361h150z" />
    <glyph glyph-name="uni0423.002" horiz-adv-x="612" 
d="M607 700l-347 -700h-126l139 280l-262 420h133l187 -301l150 301h126z" />
    <glyph glyph-name="bracketleft.smcp" horiz-adv-x="375" 
d="M310 -173h-232v784h232v-123h-89v-538h89v-123z" />
    <glyph glyph-name="Uogonek.smcp" horiz-adv-x="586" 
d="M383 -95l-2 -63c-23 -7 -47 -12 -78 -12c-73 0 -106 36 -106 78c0 30 16 55 48 81c-112 17 -179 99 -179 204v367h151v-365c0 -44 31 -81 76 -81s77 37 77 81v365h150v-367c0 -109 -72 -193 -191 -205c-16 -12 -28 -27 -28 -50s14 -43 37 -43c13 0 30 3 45 10z" />
    <glyph glyph-name="Ntilde.smcp" horiz-adv-x="652" 
d="M202 615l-42 83c53 30 75 30 91 30c25 0 102 -21 125 -21c19 0 30 3 70 21l39 -81c-46 -35 -82 -36 -96 -36c-26 0 -103 21 -125 21c-25 0 -41 -9 -62 -17zM233 560l191 -346v346h151v-560h-155l-191 337v-337h-151v560h155z" />
    <glyph glyph-name="Ncommaaccent.smcp" horiz-adv-x="652" 
d="M575 0h-155l-191 337v-337h-151v560h155l191 -346v346h151v-560zM255 -80c0 37 30 67 66 67c45 0 76 -35 76 -85c0 -102 -52 -138 -138 -138v42c56 0 77 27 80 54c-1 -1 -10 -6 -18 -6c-40 0 -66 30 -66 66z" />
    <glyph glyph-name="five.numerator" horiz-adv-x="420" 
d="M65 476v224h279v-78h-179v-72c14 21 44 32 75 32c87 0 126 -69 126 -132c0 -79 -56 -144 -155 -144c-100 0 -156 65 -156 142h103c0 -31 20 -57 53 -57c32 0 53 26 53 59c0 29 -20 56 -53 56c-26 0 -39 -11 -49 -30h-97z" />
    <glyph glyph-name="Scedilla.smcp" horiz-adv-x="556" 
d="M55 188h152c0 -55 31 -87 78 -87c37 0 63 22 63 55c0 37 -31 51 -86 72c-103 39 -193 72 -193 186c0 111 103 161 211 161c151 0 211 -90 211 -181h-151c0 47 -21 74 -62 74c-31 0 -58 -16 -58 -49c0 -32 29 -51 78 -68c95 -34 201 -70 201 -184
c0 -106 -73 -170 -189 -180v-32c7 7 18 13 36 13c39 0 68 -34 68 -73c0 -43 -31 -82 -90 -82c-40 0 -85 22 -91 77h65c2 -14 11 -23 26 -23s26 11 26 28c0 15 -12 26 -26 26c-11 0 -19 -5 -23 -12h-57v78c-114 12 -189 82 -189 201z" />
    <glyph glyph-name="Adieresis.smcp" horiz-adv-x="623" 
d="M129 680c0 45 36 82 81 82c48 0 83 -37 83 -82c0 -43 -35 -80 -83 -80c-45 0 -81 37 -81 80zM327 680c0 45 35 82 81 82c47 0 83 -37 83 -82c0 -43 -36 -80 -83 -80c-46 0 -81 37 -81 80zM310 395l-64 -216h126zM385 560l208 -560h-167l-20 66h-193l-20 -66h-163l204 560
h151z" />
    <glyph glyph-name="six.plf.smcp" horiz-adv-x="557" 
d="M277 -11c-139 0 -221 93 -221 205c0 43 13 83 34 117l163 249h161l-109 -163c9 -3 35 -8 42 -13c95 -19 152 -98 152 -190c0 -112 -82 -205 -222 -205zM277 107c50 0 83 39 83 87c0 49 -33 88 -83 88c-49 0 -81 -39 -81 -88c0 -48 32 -87 81 -87z" />
    <glyph glyph-name="uni0427.002" horiz-adv-x="524" 
d="M451 0h-114v222h-152c-69 0 -118 24 -145 63c-23 35 -30 74 -30 138v277h114v-236c0 -80 23 -141 101 -141h112v377h114v-700z" />
    <glyph glyph-name="Omacron.smcp" horiz-adv-x="701" 
d="M500 731v-100h-299v100h299zM350 -15c-189 0 -300 141 -300 295s111 295 300 295c190 0 301 -141 301 -295s-111 -295 -301 -295zM350 123c92 0 147 75 147 157s-55 157 -147 157s-147 -75 -147 -157s55 -157 147 -157z" />
    <glyph glyph-name="Acircumflex.smcp" horiz-adv-x="623" 
d="M147 674l164 132l165 -132l-69 -75l-95 77l-96 -76zM310 395l-64 -216h126zM385 560l208 -560h-167l-20 66h-193l-20 -66h-163l204 560h151z" />
    <glyph glyph-name="six.denominator" horiz-adv-x="402" 
d="M200 -8c-99 0 -155 65 -155 143c0 29 7 57 22 80l112 170h120l-74 -110c12 -3 23 -7 33 -11c62 -17 98 -68 98 -129c0 -78 -57 -143 -156 -143zM200 78c33 0 53 25 53 57c0 31 -20 56 -53 56c-32 0 -53 -25 -53 -56c0 -32 21 -57 53 -57z" />
    <glyph glyph-name="one.plf.smcp" horiz-adv-x="403" 
d="M57 361v99c111 0 136 33 136 100h125v-560h-146v361h-115z" />
    <glyph glyph-name="backslash.smcp" horiz-adv-x="464" 
d="M157 637l275 -638l-136 -58l-274 639z" />
    <glyph glyph-name="Eogonek.smcp" horiz-adv-x="502" 
d="M467 -95l-3 -63c-23 -7 -45 -12 -77 -12c-73 0 -106 36 -106 78c0 34 21 62 63 92h-266v560h353v-116h-202v-110h202v-112h-202v-106h202v-116c-22 -14 -45 -31 -45 -62c0 -23 13 -43 37 -43c12 0 29 3 44 10z" />
    <glyph glyph-name="five.denominator" horiz-adv-x="420" 
d="M65 161v224h279v-78h-179v-72c14 21 44 32 75 32c87 0 126 -69 126 -132c0 -79 -56 -144 -155 -144c-100 0 -156 65 -156 142h103c0 -31 20 -57 53 -57c32 0 53 26 53 59c0 29 -20 56 -53 56c-26 0 -39 -11 -49 -30h-97z" />
    <glyph glyph-name="zero.slash.smcp" horiz-adv-x="568" 
d="M64 189v182c0 109 83 202 220 202c134 0 220 -93 220 -202v-182c0 -109 -86 -202 -220 -202c-137 0 -220 93 -220 202zM208 264c0 -9 2 -40 4 -48l99 231c-9 4 -17 6 -27 6c-44 0 -74 -34 -75 -76c-1 -1 -1 -111 -1 -113zM360 189v117c0 7 -1 25 -2 32l-97 -227
c6 -2 15 -4 23 -4c46 0 76 38 76 82z" />
    <glyph glyph-name="B.smcp" horiz-adv-x="577" 
d="M72 0v560h257c154 0 182 -96 182 -155c0 -73 -51 -111 -89 -122c33 -8 94 -43 94 -125c0 -58 -29 -158 -182 -158h-262zM223 337h65c55 0 72 33 72 61c0 23 -12 60 -72 60h-65v-121zM290 233h-67v-123h67c56 0 72 34 72 62c0 24 -14 61 -72 61z" />
    <glyph glyph-name="Wgrave.smcp" horiz-adv-x="905" 
d="M551 588l-234 98l37 94l234 -98zM554 0l-101 324l-101 -324h-129l-200 560h160l106 -348l104 348h119l105 -348l105 348h160l-200 -560h-128z" />
    <glyph glyph-name="N.smcp" horiz-adv-x="652" 
d="M233 560l191 -346v346h151v-560h-155l-191 337v-337h-151v560h155z" />
    <glyph glyph-name="S.smcp" horiz-adv-x="556" 
d="M55 188h152c0 -55 31 -87 78 -87c37 0 63 22 63 55c0 37 -31 51 -86 72c-103 39 -193 72 -193 186c0 111 103 161 211 161c151 0 211 -90 211 -181h-151c0 47 -21 74 -62 74c-31 0 -58 -16 -58 -49c0 -32 29 -51 78 -68c95 -34 201 -70 201 -184
c0 -116 -87 -182 -221 -182c-132 0 -223 73 -223 203z" />
    <glyph glyph-name="Ograve.smcp" horiz-adv-x="701" 
d="M455 588l-234 98l37 94l234 -98zM350 -15c-189 0 -300 141 -300 295s111 295 300 295c190 0 301 -141 301 -295s-111 -295 -301 -295zM350 123c92 0 147 75 147 157s-55 157 -147 157s-147 -75 -147 -157s55 -157 147 -157z" />
    <glyph glyph-name="zero.numerator" horiz-adv-x="413" 
d="M52 445v125c0 75 58 139 154 139c95 0 156 -64 156 -139v-125c0 -75 -61 -139 -156 -139c-96 0 -154 64 -154 139zM255 445v125c0 28 -19 52 -49 52c-29 0 -47 -24 -47 -52v-125c0 -28 18 -52 47 -52c30 0 49 24 49 52z" />
    <glyph glyph-name="Iogonek.smcp" horiz-adv-x="308" 
d="M165 0c-22 -14 -45 -31 -45 -62c0 -23 13 -43 37 -43c12 0 29 3 44 10l-2 -63c-23 -7 -46 -12 -78 -12c-73 0 -106 36 -106 78c0 34 20 62 63 92v560h152v-560h-65z" />
    <glyph glyph-name="bar.smcp" horiz-adv-x="298" 
d="M221 -97h-143v708h143v-708z" />
    <glyph glyph-name="exclamdown.case" horiz-adv-x="338" 
d="M68 612c0 55 45 101 102 101s102 -46 102 -101s-45 -101 -102 -101s-102 46 -102 101zM88 0v455h164v-455h-164z" />
    <glyph glyph-name="questiondown.case" horiz-adv-x="542" 
d="M390 616c0 -56 -45 -103 -104 -103c-58 0 -104 47 -104 103s46 103 104 103c59 0 104 -47 104 -103zM366 484c-1 -86 -17 -135 -88 -183c-38 -27 -85 -59 -85 -116c0 -51 36 -75 84 -75c47 0 86 29 86 101h160c0 -127 -88 -223 -246 -223c-128 0 -242 68 -242 198
c0 101 71 148 107 177c50 41 64 58 64 121h160z" />
    </font>
</defs>
</svg>
