<svg xmlns="http://www.w3.org/2000/svg" viewBox="0 0 935.06 723.37"><defs><style>.cls-1{opacity:0.3;}.cls-11,.cls-2{fill:#fff;}.cls-2{opacity:0.5;}.cls-3{fill:#ffe269;}.cls-4{fill:#f7d443;}.cls-5{fill:#54cadd;}.cls-6{fill:#2796af;}.cls-7{fill:#ffd3ae;}.cls-8{fill:#e5b48f;}.cls-9{fill:#e4eaf8;}.cls-10{fill:#d8dce5;}</style></defs><title>Asset 1</title><g id="Layer_2" data-name="Layer 2"><g id="Capa_1" data-name="Capa 1"><circle class="cls-1" cx="32.38" cy="454.72" r="32.38"/><circle class="cls-2" cx="258.31" cy="56.42" r="44.33"/><circle class="cls-2" cx="907.09" cy="299.54" r="27.97"/><circle class="cls-1" cx="660.2" cy="125.34" r="27.97"/><circle class="cls-1" cx="64.76" cy="12.09" r="12.09"/><path class="cls-3" d="M498.15,196.7l30.6,61a5.17,5.17,0,0,0,3.91,2.8l67.56,9.35a5.17,5.17,0,0,1,2.92,8.79l-48.53,47.94a5.16,5.16,0,0,0-1.45,4.57l12,67.16a5.16,5.16,0,0,1-7.45,5.48L497.1,372.43a5.16,5.16,0,0,0-4.8,0L432.14,404.6a5.15,5.15,0,0,1-7.52-5.38l11.08-67.31a5.17,5.17,0,0,0-1.52-4.56L385,280.06a5.15,5.15,0,0,1,2.8-8.81L455.26,261a5.18,5.18,0,0,0,3.86-2.85l29.78-61.37A5.16,5.16,0,0,1,498.15,196.7Z"/><path class="cls-4" d="M554.61,326.55a5.13,5.13,0,0,0-1.44,4.57l12,67.15a5.15,5.15,0,0,1-7.44,5.49l-21.56-11.15-9.63-54a5.16,5.16,0,0,1,1.46-4.58l48.53-47.93a5.17,5.17,0,0,0-2.92-8.79L506,268a5.14,5.14,0,0,1-3.91-2.79l-23.59-47,10.4-21.42a5.15,5.15,0,0,1,9.25-.06l30.6,61a5.1,5.1,0,0,0,3.89,2.79l67.57,9.36a5.16,5.16,0,0,1,2.92,8.78Z"/><path class="cls-3" d="M282.29,235.25l21.08,42a3.57,3.57,0,0,0,2.69,1.92l46.56,6.45a3.56,3.56,0,0,1,2,6.05l-33.44,33a3.54,3.54,0,0,0-1,3.15l8.25,46.27a3.55,3.55,0,0,1-5.13,3.78l-41.74-21.59a3.55,3.55,0,0,0-3.31,0l-41.45,22.15a3.55,3.55,0,0,1-5.18-3.71l7.63-46.37a3.56,3.56,0,0,0-1-3.14l-33.88-32.58a3.56,3.56,0,0,1,1.93-6.08l46.47-7.07a3.55,3.55,0,0,0,2.66-2l20.52-42.28A3.55,3.55,0,0,1,282.29,235.25Z"/><path class="cls-4" d="M321.19,324.71a3.58,3.58,0,0,0-1,3.15l8.26,46.27a3.55,3.55,0,0,1-5.13,3.78l-14.86-7.68-6.63-37.18a3.54,3.54,0,0,1,1-3.15l33.44-33a3.56,3.56,0,0,0-2-6.05l-46.56-6.45a3.56,3.56,0,0,1-2.69-1.93l-16.25-32.38,7.16-14.76a3.55,3.55,0,0,1,6.37,0l21.09,42a3.53,3.53,0,0,0,2.68,1.92l46.55,6.45a3.56,3.56,0,0,1,2,6.05Z"/><path class="cls-5" d="M287.16,498.42l-123.39,46.5a12.18,12.18,0,0,0-7.11,15.69L215,715.48a12.18,12.18,0,0,0,15.69,7.11l21.45-8.09,101.94-38.41Z"/><path class="cls-6" d="M342.06,651.1h0L209.58,701,215,715.48a12.18,12.18,0,0,0,15.69,7.11l21.45-8.09,101.94-38.41-9.74-25.86Z"/><path class="cls-7" d="M561.79,494.49s-1.5-29.1-32.12-29.1c-84.78,0-95.53-1.46-114.19,5.64h0l-67.8,28,51.77,137.38c53.42-22.14,32.6-18.85,131-18.85,11.74-.56,37.67-4.49,57.24-26.92l0,0L713.21,455.77c4-4.55,23.07-29.64,1.61-50.72h0c-23.91-22-48.77,2.83-50.91,4.78L561.79,494.49"/><polygon class="cls-8" points="374.83 487.84 347.68 499.07 399.45 636.45 426.6 625.2 374.83 487.84"/><path class="cls-8" d="M553.42,522.33c5.69-8.21,7.89-18.47,8.32-28.46-.36-3.54-3-21.31-20.6-26.83,2.79,12.24,5.48,33.81-2.39,45.13S518.58,520,461.92,520a8.93,8.93,0,0,0,0,17.85C519,537.83,539.31,542.67,553.42,522.33Z"/><path class="cls-9" d="M331.32,481.78l-46.24,17.43L352,676.87l46.24-17.42a10.76,10.76,0,0,0,6.27-13.85L345.16,488A10.74,10.74,0,0,0,331.32,481.78Z"/><path class="cls-10" d="M404.54,645.61,398,628.3a11.75,11.75,0,0,1-5,3.59L342.28,651,352,676.87l46.24-17.42A10.75,10.75,0,0,0,404.54,645.61Z"/><path class="cls-3" d="M711.27,235.25l21.08,42a3.57,3.57,0,0,0,2.69,1.92l46.55,6.45a3.55,3.55,0,0,1,2,6.05l-33.43,33a3.54,3.54,0,0,0-1,3.15l8.25,46.27a3.55,3.55,0,0,1-5.13,3.78l-41.74-21.59a3.55,3.55,0,0,0-3.31,0l-41.45,22.15a3.56,3.56,0,0,1-5.19-3.71l7.64-46.37a3.56,3.56,0,0,0-1-3.14l-33.88-32.58a3.56,3.56,0,0,1,1.93-6.08l46.46-7.07a3.55,3.55,0,0,0,2.67-2L704.9,235.3A3.55,3.55,0,0,1,711.27,235.25Z"/><path class="cls-4" d="M750.17,324.71a3.55,3.55,0,0,0-1,3.15l8.25,46.27a3.55,3.55,0,0,1-5.13,3.78l-14.85-7.68-6.63-37.18a3.54,3.54,0,0,1,1-3.15l33.44-33a3.56,3.56,0,0,0-2-6.05l-46.55-6.45a3.56,3.56,0,0,1-2.69-1.93l-16.26-32.38,7.17-14.76a3.55,3.55,0,0,1,6.37,0l21.08,42a3.55,3.55,0,0,0,2.69,1.92l46.55,6.45a3.55,3.55,0,0,1,2,6.05Z"/><path class="cls-11" d="M431.14,182.19a8,8,0,0,1-1.88-1.21l-26.19-22.75a7.84,7.84,0,0,1,10.28-11.84l26.19,22.76a7.84,7.84,0,0,1-8.4,13Z"/><path class="cls-11" d="M542.65,173.7a7.56,7.56,0,0,1-1.87-1.21,7.83,7.83,0,0,1-.78-11.05l22.75-26.19a7.84,7.84,0,0,1,11.84,10.28l-22.76,26.19A7.82,7.82,0,0,1,542.65,173.7Z"/><path class="cls-11" d="M485.67,160.45a7.84,7.84,0,0,1-4.56-6.58l-2.43-34.61a7.84,7.84,0,0,1,15.64-1.09l2.43,34.6a7.84,7.84,0,0,1-7.27,8.37A7.72,7.72,0,0,1,485.67,160.45Z"/></g></g></svg>