<svg xmlns="http://www.w3.org/2000/svg" viewBox="0 0 900.6 761.52"><defs><style>.cls-1{opacity:0.4;}.cls-2{fill:#fff;opacity:0.5;}.cls-3{fill:#3855b2;}.cls-4{fill:#142276;}.cls-5{fill:#fec007;}.cls-6{fill:#cc750d;}.cls-7{fill:#83279a;}.cls-8{fill:#41144c;}.cls-9{fill:#546b13;}.cls-10{fill:#404c0f;}.cls-11{fill:#d0dce7;}.cls-12{fill:#ffe17d;}.cls-13{fill:#ffd164;}.cls-14{fill:#edebed;}.cls-15{fill:#dbd9dc;}.cls-16{fill:#ffc350;}.cls-17{fill:#9c969e;}</style></defs><title>Asset 1</title><g id="Layer_2" data-name="Layer 2"><g id="Capa_1" data-name="Capa 1"><circle class="cls-1" cx="32.38" cy="360.09" r="32.38"/><circle class="cls-2" cx="110.7" cy="45.65" r="44.33"/><circle class="cls-2" cx="636.95" cy="19.7" r="19.7"/><circle class="cls-1" cx="872.62" cy="47.68" r="27.97"/><circle class="cls-1" cx="829.29" cy="228.55" r="12.09"/><path class="cls-3" d="M254.65,228.55H171.46a26.2,26.2,0,0,1-26.2-26.2V119.16A26.2,26.2,0,0,1,171.46,93h83.19a26.2,26.2,0,0,1,26.2,26.2v83.19A26.2,26.2,0,0,1,254.65,228.55Z"/><path class="cls-4" d="M280.85,119.16v83.19a26.2,26.2,0,0,1-26.2,26.2H242.6a26.2,26.2,0,0,0,26.2-26.2V119.16A26.2,26.2,0,0,0,242.6,93h12.05A26.2,26.2,0,0,1,280.85,119.16Z"/><path class="cls-5" d="M417.94,228.55H334.75a26.2,26.2,0,0,1-26.2-26.2V119.16A26.2,26.2,0,0,1,334.75,93h83.19a26.2,26.2,0,0,1,26.2,26.2v83.19A26.2,26.2,0,0,1,417.94,228.55Z"/><path class="cls-6" d="M444.14,119.16v83.19a26.19,26.19,0,0,1-26.2,26.2h-12a26.2,26.2,0,0,0,26.19-26.2V119.16A26.2,26.2,0,0,0,405.9,93h12A26.19,26.19,0,0,1,444.14,119.16Z"/><path class="cls-7" d="M254.65,390.09H171.46a26.2,26.2,0,0,1-26.2-26.2V280.7a26.2,26.2,0,0,1,26.2-26.2h83.19a26.2,26.2,0,0,1,26.2,26.2v83.19A26.2,26.2,0,0,1,254.65,390.09Z"/><path class="cls-8" d="M280.85,280.7v83.2a26.2,26.2,0,0,1-26.2,26.19H242.6a26.2,26.2,0,0,0,26.2-26.19V280.7a26.2,26.2,0,0,0-26.2-26.2h12.05A26.2,26.2,0,0,1,280.85,280.7Z"/><path class="cls-9" d="M417.94,390.09H334.75a26.2,26.2,0,0,1-26.2-26.2V280.7a26.2,26.2,0,0,1,26.2-26.2h83.19a26.2,26.2,0,0,1,26.2,26.2v83.19A26.2,26.2,0,0,1,417.94,390.09Z"/><path class="cls-10" d="M444.14,280.7v83.2a26.19,26.19,0,0,1-26.2,26.19h-12a26.2,26.2,0,0,0,26.19-26.19V280.7a26.2,26.2,0,0,0-26.19-26.2h12A26.19,26.19,0,0,1,444.14,280.7Z"/><path class="cls-11" d="M213.05,184.32a4.51,4.51,0,0,1-4.51-4.51V141.7a4.51,4.51,0,1,1,9,0v38.11A4.51,4.51,0,0,1,213.05,184.32Z"/><path class="cls-11" d="M232.11,165.27H194a4.51,4.51,0,1,1,0-9h38.11a4.51,4.51,0,0,1,0,9Z"/><path class="cls-11" d="M394.79,165.27h-38.1a4.51,4.51,0,1,1,0-9h38.1a4.51,4.51,0,1,1,0,9Z"/><path class="cls-11" d="M199.58,336.77a4.51,4.51,0,0,1-3.19-7.7l27-26.94a4.51,4.51,0,0,1,6.37,6.38l-26.94,26.94A4.51,4.51,0,0,1,199.58,336.77Z"/><path class="cls-11" d="M226.53,336.77a4.49,4.49,0,0,1-3.19-1.32l-27-26.94a4.51,4.51,0,1,1,6.38-6.38l26.94,26.94a4.51,4.51,0,0,1-3.18,7.7Z"/><path class="cls-11" d="M394.79,315h-38.1a4.51,4.51,0,0,1,0-9h38.1a4.51,4.51,0,1,1,0,9Z"/><path class="cls-11" d="M394.79,331.59h-38.1a4.51,4.51,0,0,1,0-9h38.1a4.51,4.51,0,1,1,0,9Z"/><circle class="cls-12" cx="550.12" cy="505.52" r="256"/><path class="cls-13" d="M717.79,611.14a197.65,197.65,0,0,0,29.47-126.27c-9.38-92.49-84-167.12-176.5-176.49A197.64,197.64,0,0,0,444.5,337.85c-6.2,3.91-14.18-1.33-12.64-8.49a246,246,0,0,1,21.82-61c-93.57,38.09-159.56,129.89-159.56,237.15a255.13,255.13,0,0,0,256,256c107.26,0,199.06-66,237.15-159.56a246,246,0,0,1-61,21.82C719.12,625.32,713.88,617.34,717.79,611.14Z"/><circle class="cls-14" cx="550.12" cy="505.52" r="181.68"/><path class="cls-15" d="M419,419.46a156.3,156.3,0,0,0-24.79,104c8,71.84,66.08,129.9,137.91,137.93a156.3,156.3,0,0,0,104-24.79,5.77,5.77,0,0,0-2.3-10.48A247.93,247.93,0,0,1,429.49,421.76,5.77,5.77,0,0,0,419,419.46Z"/><path class="cls-13" d="M550.12,736.75c-127.5,0-231.23-103.73-231.23-231.23S422.62,274.3,550.12,274.3,781.34,378,781.34,505.52,677.62,736.75,550.12,736.75Zm0-445.94c-118.4,0-214.71,96.32-214.71,214.71s96.31,214.71,214.71,214.71,214.71-96.31,214.71-214.71S668.51,290.81,550.12,290.81Z"/><path class="cls-16" d="M729.71,623c-38.39,58.5-104.53,97.24-179.59,97.24-118.4,0-214.71-96.31-214.71-214.71,0-75.06,38.74-141.2,97.24-179.59q2.75-11.88,6.62-23.27C367.6,342,318.89,418.16,318.89,505.52c0,127.5,103.73,231.23,231.23,231.23,87.36,0,163.54-48.71,202.86-120.38C745.38,618.93,737.63,621.16,729.71,623Z"/><path class="cls-17" d="M611.16,572.4c-14.69,14.12-33.44,21.9-52.79,21.9-35,0-64.86-24.87-75.89-59.41h84.15a10.33,10.33,0,1,0,0-20.65H478.26c-.26-2.87-.4-5.78-.4-8.72s.14-5.85.4-8.72h88.37a10.32,10.32,0,1,0,0-20.64H482.48c11-34.55,40.84-59.41,75.89-59.41,19.35,0,38.1,7.77,52.79,21.89a10.33,10.33,0,0,0,14.31-14.89c-18.56-17.83-42.39-27.65-67.1-27.65-46.36,0-85.44,34-97.35,80.06H442.76a10.32,10.32,0,0,0,0,20.64h14.86c-.21,2.89-.41,5.78-.41,8.72s.2,5.83.41,8.72H442.76a10.33,10.33,0,0,0,0,20.65H461c11.91,46.09,51,80.05,97.35,80.05,24.71,0,48.54-9.82,67.1-27.65a10.33,10.33,0,0,0-14.31-14.89Z"/></g></g></svg>