<svg xmlns="http://www.w3.org/2000/svg" width="27.33" height="11.151"><path d="M2.963 11.15H2.1c-1.155 0-2.1-.943-2.1-2.098v-.017c0-1.155.945-2.1 2.1-2.1h.863c1.154 0 2.098.945 2.098 2.1v.017a2.104 2.104 0 0 1-2.098 2.099m7.423-.001h-.863c-1.156 0-2.1-.943-2.1-2.098V6.793c0-1.154.944-2.098 2.1-2.098h.863c1.153 0 2.099.944 2.099 2.098v2.259a2.105 2.105 0 0 1-2.1 2.099m7.425-.001h-.865a2.104 2.104 0 0 1-2.099-2.098V4.019c0-1.154.944-2.099 2.1-2.099h.863c1.153 0 2.097.945 2.097 2.099v5.033a2.104 2.104 0 0 1-2.097 2.099m7.421-.001h-.862c-1.154 0-2.1-.943-2.1-2.098V2.097c0-1.153.946-2.097 2.1-2.097h.863c1.155 0 2.099.944 2.099 2.097v6.955a2.104 2.104 0 0 1-2.1 2.099" fill="#e4e4e4"/></svg>