<svg xmlns="http://www.w3.org/2000/svg" height="18.333" width="36"><g fill="#ffcb03"><path d="M3.333 18.333A3.343 3.343 0 0 1 0 15v-.263c0-1.833 1.5-3.333 3.333-3.333 1.834 0 3.334 1.5 3.334 3.333V15c0 1.833-1.5 3.333-3.334 3.333"/><path d="M12.235 18.191c-.913-.258-1.628-.859-2.122-1.784-.23-.43-.237-.534-.237-3.387 0-2.867.006-2.954.24-3.394a3.545 3.545 0 0 1 1.567-1.547c.508-.253.742-.304 1.398-.305 1.365-.003 2.456.69 3.036 1.926.275.587.275.591.275 3.32 0 2.722 0 2.735-.272 3.31-.39.83-.754 1.21-1.51 1.583-.775.382-1.647.484-2.375.278zm9.775 0c-.914-.259-1.628-.86-2.123-1.784-.235-.44-.237-.485-.267-5.429-.035-5.712-.034-5.717.798-6.642 1.6-1.779 4.407-1.405 5.454.726l.295.6v10.092l-.272.578c-.38.806-.721 1.173-1.452 1.562-.743.396-1.681.511-2.433.298zm9.775 0c-.915-.259-1.629-.86-2.123-1.784l-.237-.444-.03-6.564c-.034-7.693-.077-7.32.97-8.366.505-.505.764-.676 1.252-.828 1.618-.503 3.294.208 4.032 1.71l.292.595v13.348l-.359.662c-.4.737-.737 1.064-1.5 1.45-.627.318-1.62.413-2.297.221z" stroke-width=".105"/></g></svg>