<?xml version="1.0" encoding="UTF-8"?>
<svg width="1145px" height="1145px" viewBox="0 0 850 600" version="1.1" xmlns="http://www.w3.org/2000/svg" xmlns:xlink="http://www.w3.org/1999/xlink">
    <!-- Generator: Sketch 52.5 (67469) - http://www.bohemiancoding.com/sketch -->
    <title>like</title>
    <desc>Created with Sketch.</desc>
    <g id="like" stroke="none" stroke-width="1" fill="none" fill-rule="evenodd" transform="translate(-200 -250)">
        <g id="Group-5">
            <path d="M810.57,256.56 L841.16,317.56 C841.928657,319.07345 843.388836,320.115368 845.07,320.35 L912.64,329.71 C914.583183,329.982711 916.203522,331.333969 916.820849,333.196558 C917.438177,335.059147 916.945644,337.110685 915.55,338.49 L867.03,386.4 C865.816975,387.59196 865.270605,389.305915 865.57,390.98 L877.57,458.13 C877.92058,460.062811 877.141116,462.026727 875.560507,463.193064 C873.979898,464.359401 871.873454,464.525005 870.13,463.62 L809.54,432.28 C808.033864,431.490468 806.236136,431.490468 804.73,432.28 L744.57,464.43 C742.837757,465.353923 740.731285,465.214801 739.135599,464.071084 C737.539913,462.927368 736.731497,460.977229 737.05,459.04 L748.13,391.73 C748.403775,390.055546 747.83524,388.353684 746.61,387.18 L697.45,339.89 C696.034605,338.528552 695.514757,336.481674 696.108991,334.609838 C696.703224,332.738003 698.308505,331.365769 700.25,331.07 L767.69,320.81 C769.367653,320.554017 770.811502,319.487962 771.55,317.96 L801.33,256.59 C802.196453,254.833786 803.982396,253.71941 805.940708,253.713052 C807.89902,253.706694 809.692161,254.80945 810.57,256.56 Z" id="Path" fill="#FEC007"></path>
            <path d="M867.02,386.4 C865.818949,387.594611 865.280749,389.302646 865.58,390.97 L877.58,458.13 C877.925097,460.063565 877.14254,462.025377 875.561368,463.190563 C873.980196,464.355749 871.874635,464.522228 870.13,463.62 L848.57,452.47 L838.94,398.47 C838.642293,396.799046 839.188658,395.088851 840.4,393.9 L888.9,346 C890.29609,344.619314 890.787587,342.565927 890.167945,340.702756 C889.548303,338.839585 887.924917,337.489554 885.98,337.22 L818.41,327.86 C816.726134,327.624903 815.26484,326.578452 814.5,325.06 L790.9,278 L801.3,256.58 C802.15323,254.808852 803.940377,253.677978 805.906288,253.665226 C807.872199,253.652474 809.673866,254.760069 810.55,256.52 L841.15,317.52 C841.901399,319.041268 843.358892,320.090364 845.04,320.32 L912.62,329.68 C914.567724,329.945527 916.194414,331.296657 916.812847,333.162582 C917.43128,335.028506 916.933576,337.083735 915.53,338.46 L867.02,386.4 Z" id="Path" fill="#F2940E"></path>
            <path d="M411.47,360.92 L432.55,402.92 C433.078606,403.9615 434.083244,404.678565 435.24,404.84 L481.79,411.29 C483.130614,411.475555 484.249091,412.407227 484.673884,413.692228 C485.098678,414.977229 484.755875,416.391969 483.79,417.34 L450.36,450.34 C449.526908,451.160419 449.152664,452.339287 449.36,453.49 L457.61,499.76 C457.850038,501.092029 457.311761,502.444649 456.222131,503.247534 C455.1325,504.05042 453.681137,504.163851 452.48,503.54 L410.75,482 C409.714177,481.454156 408.475823,481.454156 407.44,482 L365.99,504.15 C364.79626,504.786898 363.344665,504.692046 362.243957,503.905219 C361.143248,503.118393 360.583714,501.775618 360.8,500.44 L368.44,454.06 C368.638579,452.912892 368.265368,451.74101 367.44,450.92 L333.56,418.34 C332.584884,417.402988 332.226838,415.993343 332.636612,414.704573 C333.046385,413.415804 334.152793,412.471792 335.49,412.27 L381.9,405.21 C383.06591,405.025732 384.065368,404.277074 384.57,403.21 L405.1,361 C405.681983,359.778809 406.90743,358.994523 408.260102,358.977535 C409.612775,358.960547 410.857532,359.71381 411.47,360.92 Z" id="Path" fill="#FEC007"></path>
            <path d="M450.37,450.38 C449.536908,451.200419 449.162664,452.379287 449.37,453.53 L457.62,499.8 C457.860038,501.132029 457.321761,502.484649 456.232131,503.287534 C455.1425,504.09042 453.691137,504.203851 452.49,503.58 L437.64,495.9 L431.01,458.72 C430.800975,457.566155 431.175224,456.383528 432.01,455.56 L465.45,422.56 C466.408003,421.608947 466.745679,420.197862 466.321977,418.916165 C465.898275,417.634467 464.786095,416.702673 463.45,416.51 L416.9,410 C415.740536,409.838106 414.73478,409.116504 414.21,408.07 L397.9,375.72 L405.1,361 C405.697376,359.786493 406.932426,359.017889 408.285,359.017889 C409.637574,359.017889 410.872624,359.786493 411.47,361 L432.55,403 C433.072053,404.048828 434.079208,404.771434 435.24,404.93 L481.79,411.38 C483.130614,411.565555 484.249091,412.497227 484.673884,413.782228 C485.098678,415.067229 484.755875,416.481969 483.79,417.43 L450.37,450.38 Z" id="Path" fill="#F2940E"></path>
            <path d="M949.9,583.29 L970.98,625.29 C971.50478,626.336504 972.510536,627.058106 973.67,627.22 L1020.23,633.67 C1021.56609,633.862673 1022.67828,634.794467 1023.10198,636.076165 C1023.52568,637.357862 1023.188,638.768947 1022.23,639.72 L988.79,672.72 C987.956908,673.540419 987.582664,674.719287 987.79,675.87 L996.04,722.14 C996.320982,723.487768 995.79737,724.876466 994.696488,725.703199 C993.595606,726.529932 992.115986,726.645605 990.9,726 L949.16,704.41 C948.124177,703.864156 946.885823,703.864156 945.85,704.41 L904.4,726.53 C903.205777,727.171445 901.750505,727.076793 900.649432,726.28606 C899.548358,725.495328 898.993719,724.146569 899.22,722.81 L906.9,676.44 C907.098579,675.292892 906.725368,674.12101 905.9,673.3 L871.9,640.72 C870.924884,639.782988 870.566838,638.373343 870.976612,637.084573 C871.386385,635.795804 872.492793,634.851792 873.83,634.65 L920.3,627.58 C921.46218,627.392665 922.457305,626.644451 922.96,625.58 L943.48,583.29 C944.066497,582.048182 945.31665,581.256047 946.69,581.256047 C948.06335,581.256047 949.313503,582.048182 949.9,583.29 Z" id="Path" fill="#FEC007"></path>
            <path d="M988.78,672.75 C987.951456,673.573202 987.577985,674.749637 987.78,675.9 L996.04,722.16 C996.302637,723.502505 995.772795,724.87676 994.676899,725.695484 C993.581002,726.514208 992.112909,726.632575 990.9,726 L976.04,718.31 L969.41,681.13 C969.202664,679.979287 969.576908,678.800419 970.41,677.98 L1003.85,644.98 C1004.77835,644.026126 1005.09702,642.634046 1004.67611,641.371298 C1004.25519,640.10855 1003.165,639.186091 1001.85,638.98 L955.29,632.53 C954.130536,632.368106 953.12478,631.646504 952.6,630.6 L936.35,598.21 L943.51,583.45 C944.107376,582.236493 945.342426,581.467889 946.695,581.467889 C948.047574,581.467889 949.282624,582.236493 949.88,583.45 L970.97,625.45 C971.487362,626.498499 972.491575,627.221682 973.65,627.38 L1020.2,633.83 C1021.53609,634.022673 1022.64828,634.954467 1023.07198,636.236165 C1023.49568,637.517862 1023.158,638.928947 1022.2,639.88 L988.78,672.75 Z" id="Path" fill="#F2940E"></path>
            <path d="M533.04,348.31 C532.301239,348.204163 531.580922,347.995473 530.9,347.69 L499.26,333.44 C495.438016,331.589911 493.783584,327.033335 495.528223,323.162079 C497.272862,319.290822 501.78238,317.512122 505.7,319.15 L537.34,333.4 C540.889066,335.005375 542.721241,338.972966 541.641849,342.715694 C540.562457,346.458422 536.898895,348.841059 533.04,348.31 Z" id="Path" fill="#F44D4D"></path>
            <path d="M637.39,308.06 C636.647056,307.958703 635.922803,307.749849 635.24,307.44 C633.345897,306.586523 631.868621,305.015292 631.133406,303.072225 C630.398192,301.129158 630.465316,298.973558 631.32,297.08 L645.56,265.45 C646.708609,262.888406 649.136562,261.134171 651.929272,260.848098 C654.721982,260.562025 657.45517,261.787576 659.099272,264.063098 C660.743373,266.338619 661.048609,269.318406 659.9,271.88 L645.66,303.52 C644.224177,306.708198 640.850638,308.560177 637.39,308.06 Z" id="Path" fill="#F44D4D"></path>
            <path d="M579,311.78 C576.157861,311.384491 573.759747,309.466 572.75,306.78 L560.45,274.34 C559.456802,271.72303 559.935185,268.774984 561.704949,266.606364 C563.474713,264.437743 566.266987,263.378013 569.029949,263.826364 C571.792911,264.274714 574.106802,266.163029 575.1,268.78 L587.4,301.22 C588.953457,305.259932 586.939119,309.79443 582.9,311.35 C581.658298,311.825048 580.315371,311.973114 579,311.78 Z" id="Path" fill="#F44D4D"></path>
            <path d="M408.65,576.56 L408.65,797.420006 L327.65,797.42 C325.463802,797.422658 323.366381,796.555371 321.820505,795.009495 C320.274629,793.463619 319.407342,791.366198 319.41,789.18 L319.41,584.81 C319.407346,582.622884 320.274314,580.524438 321.819902,578.976975 C323.365489,577.429511 325.462882,576.559998 327.65,576.56 L408.65,576.56 Z" id="Path" fill="#54CADD"></path>
            <rect id="Rectangle" fill="#2796AF" x="352" y="576.57" width="56.65" height="220.85"></rect>
            <path d="M831.43,554.1 L831.43,573.66 C831.424479,589.225002 818.805003,601.840001 803.24,601.84 L787.24,601.84 C800.902521,602.834927 811.483813,614.20131 811.5,627.9 L811.5,649.75 C811.500001,664.193865 799.793864,675.904479 785.35,675.91 L762.9,675.91 C769.162575,675.907346 775.169413,678.393968 779.597722,682.822278 C784.026032,687.250587 786.512654,693.257425 786.51,699.52 L786.51,718.35 C786.52062,724.618689 784.037835,730.634266 779.608949,735.070655 C775.180064,739.507044 769.168698,742.000009 762.9,742 L741.2,742 C747.466146,741.999999 753.475502,744.489901 757.905399,748.921673 C762.335296,753.353445 764.822653,759.363854 764.82,765.63 L764.82,779.69 C764.814479,792.73106 754.241062,803.300001 741.2,803.3 L423.96,803.3 L423.96,574.94 C460.59,574.94 490.03,571.26 513.63,564.87 C589.15,544.48 604.9,496.67 604.9,454.74 L604.9,377.56 C604.897347,372.744588 606.808402,368.125495 610.212475,364.719547 C613.616548,361.313599 618.234588,359.399999 623.05,359.4 C638.565058,359.394694 653.44633,365.554992 664.418071,376.524858 C675.389812,387.494723 681.552654,402.374941 681.55,417.89 L681.55,493.49 C681.55552,511.381739 696.058261,525.88448 713.95,525.89 L803.25,525.89 C818.818236,525.906556 831.430009,538.531755 831.43,554.1 Z" id="Path" fill="#B27214"></path>
            <path d="M507.43,566.44 C484.93,571.85 457.43,574.94 423.96,574.94 L423.96,803.26 L507.43,803.26 L507.43,566.44 Z" id="Path" fill="#995C0D"></path>
            <path d="M479.02,823.88 L382.22,823.88 C377.669174,823.88 373.98,820.190826 373.98,815.64 L373.98,558.35 C373.98,553.799174 377.669174,550.11 382.22,550.11 L479.02,550.11 C481.206198,550.107342 483.303619,550.974629 484.849495,552.520505 C486.395371,554.066381 487.262658,556.163802 487.26,558.35 L487.26,815.64 C487.262658,817.826198 486.395371,819.923619 484.849495,821.469495 C483.303619,823.015371 481.206198,823.882658 479.02,823.88 Z" id="Path" fill="#54CADD"></path>
            <path d="M430.62,801.21 C428.572529,801.21 426.608916,800.396645 425.161136,798.948864 C423.713355,797.501084 422.9,795.537471 422.9,793.49 L422.9,790.88 C423.049636,786.721713 426.464022,783.427984 430.625,783.427984 C434.785978,783.427984 438.200364,786.721713 438.35,790.88 L438.35,793.49 C438.344482,797.755255 434.885259,801.210004 430.62,801.21 Z" id="Path" fill="#D7F4F9"></path>
            <path d="M430.62,771.75 C428.56732,771.750015 426.599148,770.932544 425.150502,769.478268 C423.701855,768.023992 422.892023,766.052664 422.9,764 L422.9,761.39 C422.798301,758.563835 424.24803,755.90772 426.680015,754.464461 C429.112001,753.021201 432.137999,753.021201 434.569985,754.464461 C437.00197,755.90772 438.451699,758.563835 438.35,761.39 L438.35,764 C438.355313,766.053587 437.543251,768.024884 436.093019,769.478869 C434.642786,770.932854 432.673593,771.750007 430.62,771.75 Z" id="Path" fill="#D7F4F9"></path>
        </g>
    </g>
</svg>
