<svg xmlns="http://www.w3.org/2000/svg" viewBox="0 0 942.59 758.37"><defs><style>.cls-1,.cls-2{opacity:0.4;}.cls-2{fill:#fff;}.cls-3{fill:#595c63;}.cls-4{fill:#55b5e0;}.cls-5{fill:#188eb7;}.cls-6{fill:#e6e6e6;}.cls-7{fill:#2f3033;}.cls-8{fill:#bac6cc;}.cls-9{fill:#f44d4d;}.cls-10{fill:#db3b3b;}</style></defs><title>Asset 1</title><g id="Layer_2" data-name="Layer 2"><g id="Capa_1" data-name="Capa 1"><circle class="cls-1" cx="32.38" cy="454.72" r="32.38"/><circle class="cls-2" cx="213.97" cy="191.22" r="44.33"/><circle class="cls-1" cx="322.99" cy="41.41" r="27.97"/><circle class="cls-2" cx="895.27" cy="33.14" r="27.97"/><circle class="cls-1" cx="64.76" cy="12.09" r="12.09"/><path class="cls-3" d="M684.69,90.78,666.08,103A122.44,122.44,0,0,0,631,272.55h0a122.46,122.46,0,0,0,155,43.35l89.21,135.85a27.82,27.82,0,0,0,46.52-30.54l-3.06-4.66,14-9.16a22.26,22.26,0,0,0,6.39-30.83h0a22.27,22.27,0,0,0-30.83-6.38l-14,9.16-12.21-18.61,13.95-9.16a22.26,22.26,0,0,0,6.39-30.83h0a22.26,22.26,0,0,0-30.83-6.39l-14,9.17-12.22-18.61-12.85-19.56a122.45,122.45,0,0,0,21.81-159.43h0A122.45,122.45,0,0,0,684.69,90.78Zm92.2,59.3a33.38,33.38,0,0,1-9.58,46.24L730.1,220.76a33.4,33.4,0,0,1-46.24-9.58h0a33.38,33.38,0,0,1,9.58-46.24l37.21-24.44a33.38,33.38,0,0,1,46.24,9.58Z"/><path class="cls-4" d="M662.33,198.68,439,345.31a44.51,44.51,0,0,1-61.65-12.78l-36.66-55.82a44.53,44.53,0,0,1,12.78-61.65L576.8,68.43A44.52,44.52,0,0,1,638.45,81.2L675.11,137A44.51,44.51,0,0,1,662.33,198.68Z"/><path class="cls-5" d="M371,256.85a8.34,8.34,0,0,1,2.4-11.56l74.43-48.87a8.34,8.34,0,1,1,9.16,14l-74.43,48.88A8.34,8.34,0,0,1,371,256.85Zm95.15-32.52L391.69,273.2a8.35,8.35,0,0,0,9.17,14l74.43-48.88a8.35,8.35,0,0,0-9.17-13.95Zm18.33,27.91L410,301.12a8.35,8.35,0,1,0,9.17,13.95l74.43-48.87a8.35,8.35,0,0,0-9.17-14Z"/><path class="cls-6" d="M632.62,31.77a30.64,30.64,0,0,0-8.78,42.39l72,109.72a30.61,30.61,0,0,0,51.17-33.6l-9.43-14.36-6.11-9.31L693.34,68.46l-8.71-13.25L675,40.55A30.64,30.64,0,0,0,632.62,31.77Zm38,32.6,8.71,13.26,38.19,58.15,6.11,9.3,9.43,14.36a13.91,13.91,0,0,1-23.26,15.28L637.79,65a13.91,13.91,0,1,1,23.26-15.27Z"/><path class="cls-7" d="M904.55,445.86,748.7,208.54l-18.6,12.22a33.4,33.4,0,0,1-46.24-9.58h0a33.38,33.38,0,0,1,9.58-46.24l18.61-12.22L675.39,96.89,666.08,103A122.44,122.44,0,0,0,631,272.55h0a122.46,122.46,0,0,0,155,43.35h0l89.21,135.85A27.81,27.81,0,0,0,923.24,449C913.65,449.52,904,445.09,904.55,445.86Z"/><rect class="cls-6" x="283.78" y="268.18" width="417.35" height="431.93"/><rect class="cls-8" x="283.78" y="685.14" width="417.35" height="41.99"/><rect class="cls-6" x="248.53" y="700.11" width="487.87" height="58.26"/><rect class="cls-3" x="322.99" y="306.97" width="149.87" height="354.35"/><rect class="cls-3" x="512.07" y="306.97" width="149.87" height="354.35"/><path class="cls-9" d="M661.94,307H512.07V366.3S531.31,518.48,656,523.19h0c-67.86,41.71-80.06,138.14-80.06,138.14h86V519.74h0V307Zm-6,216.22a2.26,2.26,0,0,0,.26-.16A.36.36,0,0,1,656,523.19Z"/><path class="cls-9" d="M323,307V519.74h0V661.33h86S396.82,564.9,329,523.19h0c124.65-4.71,143.9-156.89,143.9-156.89V307Zm5.77,216.1.19.11A.26.26,0,0,1,328.75,523.07Z"/><rect class="cls-10" x="322.98" y="306.97" width="149.87" height="51.28"/><rect class="cls-10" x="512.07" y="306.97" width="149.87" height="51.28"/></g></g></svg>