<?xml version="1.0" encoding="UTF-8"?>
<svg width="330px" height="366px" viewBox="0 0 330 366" version="1.1" xmlns="http://www.w3.org/2000/svg" xmlns:xlink="http://www.w3.org/1999/xlink">
    <!-- Generator: Sketch 60.1 (88133) - https://sketch.com -->
    <title>Artboard</title>
    <desc>Created with Sketch.</desc>
    <defs>
        <polygon id="path-1" points="0.537143396 0.10545779 62.8069307 0.10545779 62.8069307 71 0.537143396 71"></polygon>
    </defs>
    <g id="Artboard" stroke="none" stroke-width="1" fill="none" fill-rule="evenodd">
        <g id="Group-86">
            <path d="M17.832,91.9248 L19.747,88.4858 C19.923,88.1688 20.033,87.8268 20.079,87.4618 C20.124,87.0968 20.106,86.7448 20.025,86.4058 C19.945,86.0698 19.801,85.7568 19.594,85.4708 C19.387,85.1848 19.115,84.9468 18.78,84.7608 C18.445,84.5728 18.101,84.4688 17.749,84.4438 C17.396,84.4178 17.051,84.4578 16.712,84.5618 C16.374,84.6658 16.063,84.8288 15.781,85.0498 C15.499,85.2728 15.269,85.5408 15.093,85.8578 L13.163,89.3248 L17.832,91.9248 Z M9.515,87.2568 L10.621,85.2728 C10.788,84.9748 10.901,84.6588 10.964,84.3268 C11.026,83.9958 11.026,83.6668 10.964,83.3388 C10.903,83.0118 10.785,82.7078 10.611,82.4278 C10.437,82.1478 10.193,81.9208 9.875,81.7428 C9.577,81.5768 9.271,81.4928 8.956,81.4878 C8.64,81.4838 8.337,81.5338 8.046,81.6418 C7.755,81.7478 7.483,81.9068 7.23,82.1198 C6.977,82.3328 6.772,82.5798 6.617,82.8598 L5.434,84.9848 L9.515,87.2568 Z M23.633,82.2628 C24.183,83.0078 24.557,83.8148 24.757,84.6838 C24.957,85.5518 24.987,86.4528 24.845,87.3868 C24.703,88.3208 24.388,89.2268 23.9,90.1028 C23.662,90.5318 23.324,91.1378 22.888,91.9198 C22.463,92.6848 22.017,93.4858 21.55,94.3248 C21.082,95.1628 20.636,95.9658 20.21,96.7288 C19.785,97.4928 19.462,98.0948 19.243,98.5338 L1.349,88.5708 C0.698,88.2068 0.278,87.6878 0.094,87.0108 C-0.091,86.3338 -0.002,85.6688 0.362,85.0168 L2.852,80.5428 C3.309,79.7238 3.875,79.0008 4.553,78.3768 C5.229,77.7528 5.974,77.2818 6.786,76.9658 C7.598,76.6478 8.451,76.5068 9.347,76.5408 C10.243,76.5768 11.13,76.8388 12.005,77.3248 C12.789,77.7628 13.411,78.3218 13.872,79.0068 C14.333,79.6908 14.593,80.4638 14.65,81.3248 C14.77,81.1968 14.961,81.0288 15.224,80.8208 C15.486,80.6138 15.705,80.4608 15.882,80.3638 C16.725,79.8568 17.638,79.6088 18.622,79.6178 C19.604,79.6288 20.544,79.8828 21.439,80.3808 C22.352,80.8898 23.083,81.5168 23.633,82.2628 L23.633,82.2628 Z" id="Fill-1" fill="#8CC63F"></path>
            <path d="M28.3413,82.7266 L15.9203,74.3586 C15.3373,73.9636 14.9873,73.4336 14.8723,72.7646 C14.7573,72.0946 14.8903,71.4776 15.2723,70.9126 C15.4623,70.6276 15.6953,70.4066 15.9723,70.2456 C16.2483,70.0836 16.5413,69.9726 16.8533,69.9126 C17.1633,69.8506 17.4783,69.8506 17.7973,69.9126 C18.1163,69.9726 18.4083,70.0916 18.6743,70.2706 L31.0943,78.6396 L28.3413,82.7266 Z M11.4253,66.9696 C11.9203,66.8656 12.3723,66.9506 12.7783,67.2246 C13.2033,67.5106 13.4633,67.8986 13.5583,68.3866 C13.6533,68.8746 13.5643,69.3236 13.2893,69.7306 C13.0153,70.1376 12.6313,70.3926 12.1363,70.4966 C11.6413,70.6006 11.1823,70.5086 10.7583,70.2236 C10.3513,69.9496 10.1003,69.5686 10.0043,69.0796 C9.9093,68.5906 9.9983,68.1436 10.2723,67.7356 C10.5473,67.3296 10.9313,67.0746 11.4253,66.9696 L11.4253,66.9696 Z" id="Fill-3" fill="#8CC63F"></path>
            <path d="M31.6303,61.5771 C31.2703,61.3111 30.8693,61.1011 30.4283,60.9501 C29.9883,60.7981 29.5523,60.7181 29.1183,60.7101 C28.6863,60.7011 28.2653,60.7781 27.8583,60.9421 C27.4503,61.1051 27.0913,61.3781 26.7813,61.7581 C26.4443,62.1721 26.2313,62.5951 26.1393,63.0291 C26.0473,63.4641 26.0493,63.8911 26.1463,64.3131 C26.2423,64.7371 26.4103,65.1481 26.6483,65.5481 C26.8863,65.9481 27.1673,66.3201 27.4913,66.6671 L31.6103,61.6021 L31.6303,61.5771 Z M36.3173,59.5931 C36.2753,60.0681 36.0193,60.5951 35.5473,61.1751 L29.6513,68.4231 C30.5933,68.8871 31.5543,69.0091 32.5323,68.7861 C33.5103,68.5641 34.3423,68.0301 35.0283,67.1861 C35.3913,66.7401 35.7133,66.2521 35.9933,65.7231 C36.2723,65.1941 36.5433,64.6651 36.8083,64.1381 L40.1613,65.9991 C39.9223,66.7671 39.6233,67.4791 39.2663,68.1391 C38.9093,68.7961 38.4753,69.4401 37.9643,70.0691 C37.1433,71.0791 36.2133,71.8841 35.1753,72.4831 C34.1383,73.0831 33.0543,73.4601 31.9263,73.6141 C30.7963,73.7681 29.6623,73.6841 28.5223,73.3611 C27.3813,73.0381 26.2903,72.4541 25.2473,71.6051 C24.2873,70.8251 23.5323,69.9301 22.9803,68.9161 C22.4293,67.9041 22.0923,66.8471 21.9713,65.7441 C21.8503,64.6421 21.9443,63.5371 22.2553,62.4281 C22.5663,61.3191 23.1113,60.2851 23.8923,59.3251 C24.5793,58.4811 25.4083,57.8081 26.3803,57.3061 C27.3523,56.8051 28.3633,56.4991 29.4133,56.3911 C30.4643,56.2831 31.5153,56.3681 32.5673,56.6461 C33.6203,56.9251 34.5773,57.4151 35.4373,58.1141 C36.0663,58.6261 36.3593,59.1191 36.3173,59.5931 L36.3173,59.5931 Z" id="Fill-5" fill="#8CC63F"></path>
            <path d="M53.9751,51.1982 C54.0971,51.5102 54.1551,51.8242 54.1481,52.1412 C54.1411,52.4582 54.0751,52.7652 53.9481,53.0652 C53.8211,53.3642 53.6341,53.6322 53.3891,53.8682 C52.8961,54.3412 52.3141,54.5742 51.6431,54.5672 C50.9721,54.5622 50.4001,54.3122 49.9261,53.8192 L44.2091,47.8642 C43.6491,47.2782 42.9601,46.9782 42.1451,46.9622 C41.3311,46.9442 40.6311,47.2182 40.0471,47.7782 C39.4621,48.3402 39.1651,49.0172 39.1571,49.8082 C39.1481,50.6002 39.4241,51.2892 39.9861,51.8742 L47.1881,59.3762 L43.6321,62.7892 L33.2611,51.9852 C33.0261,51.7392 32.8501,51.4642 32.7361,51.1592 C32.6211,50.8552 32.5591,50.5452 32.5511,50.2272 C32.5421,49.9112 32.5981,49.5992 32.7171,49.2932 C32.8361,48.9852 33.0191,48.7142 33.2661,48.4772 C33.7581,48.0052 34.2741,47.8352 34.8151,47.9662 C35.3561,48.0972 35.8561,48.3422 36.3161,48.6982 C36.1681,47.8042 36.2621,46.9472 36.5961,46.1242 C36.9291,45.3012 37.4191,44.5792 38.0661,43.9592 C38.7261,43.3232 39.4541,42.8332 40.2461,42.4862 C41.0371,42.1412 41.8411,41.9542 42.6561,41.9252 C43.4711,41.8962 44.2681,42.0422 45.0471,42.3582 C45.8251,42.6772 46.5461,43.1812 47.2101,43.8742 L53.4381,50.3612 C53.6741,50.6072 53.8531,50.8862 53.9751,51.1982" id="Fill-7" fill="#8CC63F"></path>
            <path d="M59.6206,31.8955 C59.7426,32.2315 59.9106,32.7415 60.1226,33.4245 C60.3356,34.1065 60.5586,34.8755 60.7936,35.7295 C61.0286,36.5825 61.2706,37.4715 61.5186,38.3955 C61.7666,39.3205 61.9876,40.1705 62.1796,40.9505 C62.3716,41.7295 62.5216,42.3935 62.6306,42.9405 C62.7396,43.4885 62.7796,43.8125 62.7496,43.9155 C62.8786,44.4355 62.8956,44.9515 62.8046,45.4635 C62.7126,45.9765 62.4366,46.4075 61.9796,46.7565 C61.4706,47.1445 60.9696,47.3325 60.4766,47.3195 C59.9836,47.3065 59.4756,47.1505 58.9526,46.8505 L45.9576,39.2555 L48.1726,35.1935 L57.6206,41.1465 L54.5616,32.3325 C54.3866,31.8215 54.3836,31.3155 54.5496,30.8115 C54.7166,30.3095 55.0116,29.8965 55.4356,29.5735 C55.9786,29.1595 56.5866,28.9975 57.2596,29.0885 C57.9326,29.1795 58.4686,29.4875 58.8706,30.0125 C59.1416,30.3695 59.3916,30.9975 59.6206,31.8955" id="Fill-9" fill="#8CC63F"></path>
            <path d="M72.8711,27.3164 C72.6231,26.9424 72.3201,26.6084 71.9591,26.3144 C71.5981,26.0204 71.2161,25.7944 70.8121,25.6364 C70.4081,25.4794 69.9861,25.4074 69.5481,25.4204 C69.1091,25.4334 68.6781,25.5654 68.2561,25.8164 C67.7981,26.0874 67.4511,26.4134 67.2151,26.7884 C66.9791,27.1654 66.8341,27.5674 66.7801,27.9974 C66.7251,28.4264 66.7411,28.8704 66.8261,29.3284 C66.9131,29.7864 67.0481,30.2334 67.2331,30.6694 L72.8441,27.3334 L72.8711,27.3164 Z M77.9541,27.0674 C77.7511,27.4994 77.3281,27.9054 76.6871,28.2864 L68.6551,33.0614 C69.3801,33.8214 70.2401,34.2664 71.2351,34.3944 C72.2291,34.5244 73.1941,34.3094 74.1291,33.7534 C74.6251,33.4594 75.0941,33.1124 75.5391,32.7114 C75.9831,32.3104 76.4201,31.9074 76.8491,31.5034 L79.3571,34.4054 C78.8681,35.0444 78.3431,35.6104 77.7801,36.1054 C77.2191,36.6014 76.5891,37.0554 75.8931,37.4704 C74.7741,38.1354 73.6241,38.5704 72.4441,38.7764 C71.2631,38.9814 70.1161,38.9624 69.0021,38.7174 C67.8901,38.4734 66.8531,38.0044 65.8941,37.3094 C64.9341,36.6144 64.1121,35.6884 63.4251,34.5344 C62.7931,33.4694 62.3921,32.3684 62.2221,31.2264 C62.0531,30.0874 62.1011,28.9794 62.3671,27.9014 C62.6331,26.8264 63.1031,25.8214 63.7771,24.8864 C64.4511,23.9534 65.3181,23.1704 66.3821,22.5374 C67.3171,21.9814 68.3271,21.6354 69.4131,21.4994 C70.4971,21.3624 71.5521,21.4244 72.5761,21.6844 C73.5991,21.9454 74.5571,22.3854 75.4491,23.0104 C76.3411,23.6334 77.0711,24.4224 77.6371,25.3764 C78.0511,26.0734 78.1571,26.6364 77.9541,27.0674 L77.9541,27.0674 Z" id="Fill-11" fill="#8CC63F"></path>
            <path d="M97.3999,25.3242 C97.4059,25.6592 97.3499,25.9732 97.2349,26.2682 C97.1189,26.5642 96.9499,26.8302 96.7269,27.0652 C96.5039,27.3032 96.2359,27.4892 95.9229,27.6252 C95.2969,27.8982 94.6709,27.9152 94.0439,27.6772 C93.4169,27.4382 92.9659,27.0072 92.6929,26.3812 L89.3949,18.8102 C89.0719,18.0682 88.5309,17.5482 87.7729,17.2502 C87.0149,16.9522 86.2639,16.9652 85.5209,17.2882 C84.7769,17.6122 84.2639,18.1432 83.9819,18.8842 C83.6989,19.6242 83.7199,20.3652 84.0439,21.1082 L88.1979,30.6422 L83.6799,32.6102 L77.6979,18.8822 C77.5619,18.5692 77.4929,18.2502 77.4908423,17.9252 C77.4889,17.6002 77.5389,17.2882 77.6409,16.9862 C77.7429,16.6862 77.9019,16.4132 78.1209,16.1662 C78.3389,15.9202 78.6049,15.7282 78.9179,15.5932 C79.5439,15.3202 80.0869,15.3392 80.5479,15.6492 C81.0099,15.9612 81.3939,16.3632 81.7029,16.8562 C81.8739,15.9682 82.2579,15.1962 82.8569,14.5402 C83.4559,13.8842 84.1649,13.3762 84.9869,13.0182 C85.8269,12.6512 86.6789,12.4432 87.5429,12.3932 C88.4039,12.3442 89.2229,12.4462 89.9979,12.7022 C90.7719,12.9582 91.4699,13.3702 92.0889,13.9372 C92.7089,14.5062 93.2109,15.2292 93.5939,16.1092 L97.1849,24.3532 C97.3219,24.6662 97.3939,24.9902 97.3999,25.3242" id="Fill-13" fill="#8CC63F"></path>
            <path d="M111.7573,20.5723 C110.7843,22.1123 109.1213,23.2363 106.7733,23.9433 C104.4243,24.6513 102.4133,24.6333 100.7403,23.8873 C99.0683,23.1433 97.8693,21.5663 97.1443,19.1563 L94.2843,9.6573 L95.6023,9.2603 L99.0033,8.2363 L101.8443,17.6753 C102.1153,18.5733 102.5573,19.2253 103.1693,19.6323 C103.7803,20.0383 104.5683,20.0953 105.5283,19.8063 C106.4673,19.5243 107.0823,19.0503 107.3713,18.3833 C107.6603,17.7163 107.6673,16.9243 107.3913,16.0053 L105.1393,8.5283 C105.0413,8.2013 105.0093,7.8713 105.0413,7.5383 C105.0753,7.2043 105.1673,6.8983 105.3173,6.6193 C105.4663,6.3413 105.6663,6.0963 105.9163,5.8883 C106.1643,5.6783 106.4523,5.5253 106.7793,5.4273 C107.4333,5.2313 108.0593,5.2923 108.6563,5.6143 C109.2553,5.9353 109.6523,6.4233 109.8493,7.0773 L112.1193,14.6143 C112.8513,17.0463 112.7303,19.0313 111.7573,20.5723" id="Fill-15" fill="#8CC63F"></path>
            <path d="M125.7182,9.123 C125.6212,8.685 125.4592,8.264 125.2282,7.858 C124.9982,7.454 124.7222,7.105 124.4032,6.813 C124.0832,6.521 123.7152,6.302 123.3012,6.156 C122.8872,6.01 122.4392,5.977 121.9552,6.06 C121.4282,6.147 120.9882,6.325 120.6332,6.591 C120.2782,6.856 119.9972,7.181 119.7912,7.561 C119.5842,7.942 119.4402,8.361 119.3542,8.818 C119.2692,9.276 119.2342,9.743 119.2492,10.216 L125.6862,9.128 L125.7182,9.123 Z M130.5482,10.724 C130.2032,11.053 129.6622,11.279 128.9272,11.404 L119.7132,12.961 C120.1152,13.932 120.7572,14.656 121.6382,15.134 C122.5202,15.613 123.4972,15.762 124.5702,15.58 C125.1382,15.483 125.7002,15.329 126.2602,15.116 C126.8192,14.903 127.3722,14.685 127.9192,14.463 L129.2102,18.074 C128.5242,18.493 127.8292,18.832 127.1272,19.092 C126.4242,19.351 125.6732,19.548 124.8742,19.683 C123.5912,19.9 122.3622,19.891 121.1862,19.657 C120.0102,19.423 118.9472,18.991 117.9972,18.362 C117.0472,17.733 116.2502,16.921 115.6062,15.927 C114.9622,14.933 114.5282,13.772 114.3042,12.447 C114.0982,11.227 114.1212,10.056 114.3752,8.931 C114.6282,7.806 115.0732,6.79 115.7092,5.881 C116.3462,4.973 117.1462,4.206 118.1122,3.577 C119.0752,2.948 120.1682,2.531 121.3882,2.325 C122.4612,2.144 123.5282,2.185 124.5902,2.449 C125.6512,2.714 126.6122,3.151 127.4742,3.764 C128.3342,4.376 129.0682,5.133 129.6752,6.036 C130.2812,6.94 130.6782,7.938 130.8632,9.032 C130.9982,9.832 130.8932,10.395 130.5482,10.724 L130.5482,10.724 Z" id="Fill-17" fill="#8CC63F"></path>
            <path d="M155.5361,14.8174 C155.1031,15.4854 154.5501,16.0424 153.8741,16.4834 C153.2001,16.9264 152.4441,17.2514 151.6111,17.4584 C150.7771,17.6644 149.9651,17.7644 149.1761,17.7574 C148.0021,17.7484 146.7991,17.5354 145.5661,17.1204 C144.3311,16.7054 143.2471,16.1724 142.3141,15.5254 L143.7831,11.9854 C144.1221,12.1794 144.5261,12.3854 144.9941,12.6024 C145.4601,12.8204 145.9351,13.0214 146.4131,13.2064 C146.8921,13.3924 147.3701,13.5464 147.8491,13.6664 C148.3281,13.7884 148.7611,13.8504 149.1441,13.8534 C149.3781,13.8544 149.6241,13.8304 149.8801,13.7784 C150.1371,13.7284 150.3721,13.6384 150.5861,13.5124 C150.8001,13.3864 150.9781,13.2274 151.1191,13.0374 C151.2591,12.8464 151.3301,12.6124 151.3321,12.3354 C151.3361,11.9084 151.1251,11.5594 150.7011,11.2904 C150.2761,11.0194 149.7441,10.7694 149.1071,10.5404 C148.4691,10.3114 147.7771,10.0714 147.0331,9.8194 C146.2881,9.5684 145.5981,9.2424 144.9611,8.8424 C144.3251,8.4434 143.7951,7.9484 143.3731,7.3584 C142.9511,6.7674 142.7441,6.0244 142.7511,5.1294 C142.7581,4.2544 142.9781,3.4934 143.4101,2.8454 C143.8421,2.1984 144.3901,1.6654 145.0551,1.2434 C145.7191,0.8224 146.4531,0.5084 147.2551,0.3004 C148.0571,0.0944 148.8411,-0.0056 149.6101,0.0004 C150.0361,0.0044 150.6011,0.0624 151.3041,0.1744 C152.0071,0.2874 152.6941,0.4634 153.3641,0.7034 C154.0341,0.9444 154.6121,1.2684 155.1001,1.6774 C155.5871,2.0874 155.8291,2.5794 155.8241,3.1554 C155.8201,3.6674 155.6341,4.0974 155.2691,4.4474 C154.9041,4.7964 154.4751,4.9684 153.9851,4.9644 C153.6651,4.9624 153.3341,4.8954 152.9941,4.7644 C152.6541,4.6334 152.2921,4.4864 151.9111,4.3244 C151.5281,4.1604 151.1231,4.0124 150.6981,3.8814 C150.2721,3.7504 149.8251,3.6824 149.3551,3.6784 C149.1421,3.6764 148.9231,3.7024 148.6991,3.7534 C148.4741,3.8044 148.2761,3.8934 148.1051,4.0204 C147.9321,4.1264 147.7931,4.2634 147.6851,4.4324 C147.5771,4.6024 147.5221,4.8044 147.5201,5.0404 C147.5171,5.3804 147.7281,5.6714 148.1531,5.9084 C148.5781,6.1474 149.1141,6.3854 149.7631,6.6264 C150.4111,6.8664 151.1141,7.1324 151.8691,7.4264 C152.6231,7.7214 153.3251,8.0854 153.9721,8.5164 C154.6191,8.9494 155.1531,9.4814 155.5751,10.1144 C155.9961,10.7474 156.2031,11.5224 156.1961,12.4384 C156.1881,13.3564 155.9681,14.1494 155.5361,14.8174" id="Fill-19" fill="#8CC63F"></path>
            <path d="M171.2866,17.7266 C169.7746,18.7456 167.8026,19.1066 165.3676,18.8076 C162.9326,18.5096 161.0986,17.6846 159.8676,16.3296 C158.6356,14.9746 158.1736,13.0486 158.4786,10.5496 L159.6836,0.7036 L161.0506,0.8706 L164.5756,1.3016 L163.3786,11.0836 C163.2646,12.0166 163.4056,12.7916 163.8036,13.4096 C164.2006,14.0276 164.8966,14.3976 165.8916,14.5196 C166.8656,14.6396 167.6196,14.4526 168.1526,13.9576 C168.6856,13.4646 169.0106,12.7416 169.1276,11.7886 L170.0766,4.0386 C170.1176,3.7006 170.2206,3.3836 170.3856,3.0926 C170.5496,2.8016 170.7566,2.5576 171.0066,2.3626 C171.2566,2.1676 171.5366,2.0246 171.8486,1.9336 C172.1606,1.8426 172.4856,1.8186 172.8256,1.8606 C173.5026,1.9426 174.0506,2.2516 174.4686,2.7866 C174.8876,3.3216 175.0546,3.9266 174.9716,4.6056 L174.0156,12.4186 C173.7066,14.9386 172.7976,16.7076 171.2866,17.7266" id="Fill-21" fill="#8CC63F"></path>
            <path d="M187.6933,8.4697 C187.4433,8.7087 187.1493,8.8937 186.8143,9.0257 C186.4763,9.1567 186.1103,9.2547 185.7133,9.3177 C185.3163,9.3807 184.9073,9.4687 184.4883,9.5807 C184.0683,9.6947 183.6603,9.8527 183.2653,10.0587 C182.8683,10.2637 182.5063,10.5597 182.1783,10.9447 C181.9103,11.2547 181.7073,11.6197 181.5683,12.0357 C181.4313,12.4537 181.3083,12.9017 181.1993,13.3797 L179.4863,20.9317 L174.6733,19.8727 L177.9923,5.2377 C178.0583,4.9457 178.1843,4.7287 178.3703,4.5837 C178.5553,4.4407 178.7813,4.3117 179.0483,4.1977 C179.3863,4.0547 179.6803,4.0617 179.9303,4.2157 C180.1793,4.3707 180.3873,4.6107 180.5553,4.9327 C180.7233,5.2547 180.8543,5.6177 180.9473,6.0227 C181.0423,6.4267 181.1113,6.8197 181.1563,7.2007 C181.1863,7.1647 181.3333,7.0497 181.5953,6.8587 C181.8573,6.6667 182.2303,6.4227 182.7123,6.1267 C183.1943,5.8317 183.6883,5.5877 184.1913,5.3957 C184.5963,5.2467 185.0513,5.1197 185.5563,5.0167 C186.0613,4.9107 186.5163,4.9277 186.9243,5.0647 C187.3873,5.2347 187.7493,5.5457 188.0083,5.9987 C188.2663,6.4507 188.3373,6.9377 188.2183,7.4567 C188.1193,7.8947 187.9443,8.2327 187.6933,8.4697" id="Fill-23" fill="#8CC63F"></path>
            <path d="M232.2636,223.0635 L232.2636,175.4485 C232.2636,173.8345 232.8506,172.4655 234.0246,171.3395 C235.1986,170.2155 236.5666,169.6525 238.1336,169.6525 C239.7466,169.6525 241.1156,170.2275 242.2416,171.3765 C243.3656,172.5265 243.9286,173.8835 243.9286,175.4485 L243.9286,223.0635 L232.2636,223.0635 Z" id="Fill-25" fill="#231F20"></path>
            <path d="M133.0561,224.4951 L128.6721,211.3451 L102.9991,211.3451 C102.8201,211.8821 102.5071,212.7021 102.0591,213.8051 C101.6121,214.9091 101.1201,216.0411 100.5831,217.2041 C100.0471,218.3671 99.4941,219.4271 98.9281,220.3801 C98.3611,221.3351 97.8691,221.9011 97.4521,222.0801 C96.9741,222.6161 96.3931,223.0631 95.7081,223.4221 C95.0221,223.7791 94.2621,223.9581 93.4271,223.9581 C91.5171,223.9581 89.8631,223.3171 88.4621,222.0351 C87.0611,220.7531 86.3601,219.1281 86.3601,217.1601 C86.3601,216.5041 86.4351,215.8631 86.5841,215.2361 C86.7331,214.6101 86.9271,213.9991 87.1651,213.4021 L105.1461,165.9911 C106.0401,163.6651 107.3511,161.7421 109.0821,160.2211 C110.8111,158.7001 112.9871,157.9401 115.6121,157.9401 C118.4151,157.9401 120.6801,158.6551 122.4111,160.0871 C124.1401,161.5171 125.4821,163.4861 126.4361,165.9911 L147.0111,220.8271 L133.0561,224.4951 Z M115.7911,172.8791 L107.0241,199.0901 L124.4681,199.0901 L115.7911,172.8791 Z" id="Fill-27" fill="#231F20"></path>
            <path d="M193.1709,223.0635 C192.8129,223.0635 192.2769,223.0185 191.5609,222.9295 C190.8449,222.8395 190.0989,222.6625 189.3249,222.3925 C188.5489,222.1255 187.8779,221.7085 187.3119,221.1405 C186.7439,220.5745 186.4619,219.8435 186.4619,218.9485 L186.4619,165.0065 C186.4619,163.0395 187.1619,161.3395 188.5639,159.9075 C189.9649,158.4765 191.6499,157.7605 193.6189,157.7605 C195.5869,157.7605 197.2549,158.4765 198.6279,159.9075 C199.9989,161.3395 200.6859,163.0395 200.6859,165.0065 L200.6859,210.4505 L221.2599,210.4505 L221.3499,222.9745 L193.1709,223.0635 Z" id="Fill-29" fill="#231F20"></path>
            <path d="M242.6879,153.543 C244.0889,154.903 244.7899,156.532 244.7899,158.429 C244.7899,160.407 244.1099,162.077 242.7499,163.438 C241.3889,164.798 239.7609,165.479 237.8649,165.479 C235.9669,165.479 234.3179,164.798 232.9169,163.438 C231.5139,162.077 230.8149,160.407 230.8149,158.429 C230.8149,156.532 231.4949,154.903 232.8549,153.543 C234.2159,152.183 235.8429,151.502 237.7409,151.502 C239.6369,151.502 241.2849,152.183 242.6879,153.543" id="Fill-31" fill="#D91C5B"></path>
            <g id="Group-35" transform="translate(221.000000, 295.272000)">
                <mask id="mask-2" fill="white">
                    <use xlink:href="#path-1"></use>
                </mask>
                <g id="Clip-34"></g>
                <path d="M60.5947,55.3481 L17.4087,3.5371 C14.0347,-0.5099 8.0177,-1.0559 3.9697,2.3181 C-0.0783,5.6921 -0.6243,11.7081 2.7497,15.7561 L45.9347,67.5681 C49.3097,71.6161 55.3257,72.1611 59.3747,68.7871 C63.4217,65.4131 63.9687,59.3961 60.5947,55.3481" id="Fill-33" fill="#D91C5B" mask="url(#mask-2)"></path>
            </g>
            <path d="M229.7856,281.0615 L229.8106,281.0405 C232.7046,278.7545 233.2436,274.5065 231.0146,271.5715 L229.9646,270.1875 L229.8346,270.0105 C227.7026,267.1755 223.6796,266.4635 220.6786,268.3885 C205.0146,278.4185 186.8436,283.7205 168.1286,283.7205 C148.9476,283.7205 130.2866,278.1225 114.1626,267.5325 C110.8596,265.3605 106.4966,266.0025 104.0236,269.0145 L103.8236,269.2545 C102.4626,270.9135 101.8616,273.0805 102.1746,275.2015 C102.4896,277.3415 103.7046,279.2625 105.5076,280.4725 C124.0286,292.9105 145.6826,299.4845 168.1286,299.4845 C189.7766,299.4845 210.3246,293.4245 229.2076,281.4685 C229.3956,281.3485 229.5846,281.2155 229.7856,281.0615" id="Fill-36" fill="#D91C5B"></path>
            <path d="M265.0947,116.9819 C243.5617,90.7559 213.0437,74.4779 179.1647,71.1469 C146.1457,67.8989 113.5757,77.5859 87.4587,98.4199 C61.3387,119.2569 44.6637,148.8589 40.5057,181.7739 C38.1877,200.1299 39.9447,218.5429 45.4607,235.9149 C46.0877,237.9459 46.7627,239.9699 47.4927,241.9819 C58.8897,273.3919 81.6107,298.6509 111.4697,313.1089 C128.8147,321.5059 147.6257,325.7489 166.6207,325.7489 C179.6637,325.7489 192.7957,323.7479 205.5957,319.7169 C207.5657,319.0969 209.1597,317.6549 209.9667,315.7609 C210.7677,313.8829 210.7077,311.7569 209.8007,309.9249 C208.2587,306.8199 204.7297,305.3249 201.4067,306.3739 C173.8747,315.0739 144.5257,313.1969 118.7647,301.0899 C101.9137,293.1699 87.5517,281.3859 76.6087,266.7779 C76.3827,266.1039 76.0707,265.4469 75.6287,264.8419 C68.3637,254.9059 62.8327,244.0379 59.1077,232.6529 C50.7657,206.3659 52.1837,178.3519 63.2637,153.1239 C75.5297,125.1879 97.9177,103.7949 126.3027,92.8849 C154.6917,81.9739 185.6387,82.8609 213.4427,95.3839 C238.2697,106.5659 258.2717,126.4239 269.7637,151.3029 C270.0107,151.8359 270.3337,152.3079 270.6867,152.7459 C278.2457,170.1749 281.3147,189.3409 279.4017,208.8229 C276.7397,235.9199 264.3137,261.2179 244.4127,280.0599 C241.9247,282.4179 241.4987,286.1879 243.3987,289.0199 C244.5427,290.7309 246.3707,291.8419 248.4137,292.0709 C248.6757,292.1009 248.9367,292.1139 249.1977,292.1139 C250.9927,292.1139 252.7297,291.4259 254.0537,290.1699 C264.9827,279.8049 273.9027,267.8039 280.5657,254.4989 C287.5077,240.6379 291.8017,225.7319 293.3267,210.1899 C296.6547,176.3109 286.6277,143.2089 265.0947,116.9819" id="Fill-38" fill="#9E1F62"></path>
            <path d="M96.8486,75.1811 L91.5606,78.2151 L92.9586,82.7711 L89.9296,84.5101 L83.4756,61.6141 L86.5926,59.8261 L103.1066,76.9471 L100.1056,78.6701 L96.8486,75.1811 Z M94.7066,72.8381 L90.3656,68.1871 C89.3246,67.0361 87.9106,65.3031 87.1606,64.3271 L87.0756,64.3751 C87.5396,65.5151 88.3526,67.5941 88.7916,69.0891 L90.6476,75.1681 L94.7066,72.8381 Z" id="Fill-40" fill="#9E1F62"></path>
            <path d="M102.0063,69.7764 L95.5193,55.0914 L98.6263,53.7204 L105.1123,68.4054 C106.2453,70.9694 107.9543,71.6554 109.8533,70.8154 C111.7823,69.9624 112.4263,68.2374 111.2933,65.6754 L104.8073,50.9884 L107.8833,49.6304 L114.3703,64.3144 C116.2743,68.6274 114.9273,72.1054 111.1583,73.7714 C107.4193,75.4244 103.9123,74.0894 102.0063,69.7764" id="Fill-42" fill="#9E1F62"></path>
            <polygon id="Fill-44" fill="#9E1F62" points="125.9311 47.2007 121.3301 48.6097 127.1531 67.6477 123.9081 68.6417 118.0841 49.6027 113.5131 51.0007 112.5881 47.9767 125.0061 44.1777"></polygon>
            <path d="M132.2451,58.5596 L130.6831,50.2706 C129.7921,45.5436 131.8411,42.1746 136.1791,41.3586 C140.5181,40.5396 143.6511,42.9336 144.5411,47.6596 L146.1021,55.9506 C146.9941,60.6766 144.9451,64.0466 140.6081,64.8646 C136.2681,65.6806 133.1351,63.2876 132.2451,58.5596 M142.7361,56.5836 L141.1751,48.2966 C140.6371,45.4456 139.1141,44.1226 136.7841,44.5626 C134.4201,45.0086 133.5151,46.7866 134.0501,49.6376 L135.6131,57.9246 C136.1491,60.7736 137.6411,62.1046 140.0041,61.6596 C142.3351,61.2186 143.2721,59.4346 142.7361,56.5836" id="Fill-46" fill="#9E1F62"></path>
            <polygon id="Fill-48" fill="#9E1F62" points="143.9921 49.7788 152.0381 49.0748 152.2841 51.9028 144.2381 52.6028"></polygon>
            <path d="M161.7915,38.9214 L167.5245,38.9814 C172.0035,39.0264 174.6125,41.6894 174.5655,46.2334 L174.4795,54.8654 C174.4325,59.4454 171.7695,62.0874 167.3225,62.0424 L161.5565,61.9814 L161.7915,38.9214 Z M167.3555,58.8774 C169.7265,58.9034 171.0915,57.4984 171.1195,54.7654 L171.2055,46.2654 C171.2325,43.5654 169.9295,42.1674 167.5245,42.1434 L165.0855,42.1184 L164.9165,58.8524 L167.3555,58.8774 Z" id="Fill-50" fill="#9E1F62"></path>
            <polygon id="Fill-52" fill="#9E1F62" points="180.4287 39.5781 183.7397 39.9011 181.4927 62.8621 178.1797 62.5391"></polygon>
            <path d="M195.1709,60.293 L189.1749,59.196 L187.3009,63.576 L183.8669,62.948 L193.7209,41.307 L197.2539,41.951 L198.8069,65.681 L195.4029,65.059 L195.1709,60.293 Z M195.0469,57.121 L194.7349,50.768 C194.6839,49.218 194.7259,46.981 194.7819,45.753 L194.6849,45.735 C194.3039,46.905 193.5819,49.016 192.9529,50.44 L190.4459,56.279 L195.0469,57.121 Z" id="Fill-54" fill="#9E1F62"></path>
            <path d="M202.4018,59.5659 L205.1288,50.5809 C206.4878,46.1039 209.6748,44.4549 213.6798,45.6699 C217.5898,46.8579 219.2348,49.9389 218.0718,54.3389 L214.9188,53.3819 C215.5678,50.7879 214.7688,49.3419 212.7498,48.7299 C210.7328,48.1159 209.1798,48.9179 208.3668,51.5969 L205.6488,60.5529 C204.8338,63.2329 205.7418,64.7819 207.7898,65.4019 C209.9038,66.0449 211.5198,65.2609 212.2848,62.7389 L213.1278,59.9659 L209.6278,58.9029 L210.4898,56.0649 L217.1098,58.0739 L215.4068,63.6879 C214.0318,67.9879 210.8038,69.6569 206.8318,68.4519 C202.8598,67.2449 201.0418,64.0419 202.4018,59.5659" id="Fill-56" fill="#9E1F62"></path>
            <path d="M225.9443,50.166 L228.9893,51.512 L229.0833,64.416 C229.0903,66.112 229.0083,68.417 228.9613,69.909 L229.0773,69.889 C229.7563,67.703 230.9733,64.459 231.8013,62.591 L235.4363,54.364 L238.4503,55.695 L229.1243,76.791 L226.0803,75.446 L225.9493,63.03 C226.0083,61.182 226.1073,58.596 226.1963,57.015 L226.0793,57.035 C225.3563,59.237 224.1093,62.468 223.2283,64.456 L219.6323,72.594 L216.6183,71.26 L225.9443,50.166 Z" id="Fill-58" fill="#9E1F62"></path>
            <path d="M236.1357,72.1909 L240.4787,64.9599 C242.9547,60.8339 246.7257,59.6769 250.5097,61.9529 C254.2947,64.2249 255.0437,68.0959 252.5677,72.2209 L248.2237,79.4499 C245.7477,83.5739 241.9787,84.7319 238.1937,82.4579 C234.4087,80.1839 233.6597,76.3129 236.1357,72.1909 M245.2867,77.6859 L249.6297,70.4549 C251.1227,67.9709 250.8647,65.9709 248.8297,64.7479 C246.7677,63.5109 244.9087,64.2379 243.4167,66.7229 L239.0727,73.9529 C237.5787,76.4399 237.8097,78.4219 239.8717,79.6619 C241.9067,80.8809 243.7927,80.1709 245.2867,77.6859" id="Fill-60" fill="#9E1F62"></path>
            <path d="M250.1372,81.9658 L252.8262,84.0348 C251.4052,85.9338 251.7202,87.6328 253.3402,88.8788 C255.0892,90.2268 256.7552,89.8438 257.8802,88.3818 C260.6752,84.7518 253.1832,78.6538 257.3652,73.2238 C259.3942,70.5848 262.8532,70.0878 265.9362,72.4608 C269.0682,74.8728 269.4012,78.3318 267.0882,81.4968 L264.3982,79.4288 C265.6932,77.6368 265.4222,76.0978 264.0112,75.0138 C262.5242,73.8678 261.0192,74.0408 260.0132,75.3458 C257.2602,78.9238 264.9372,84.8318 260.5762,90.4988 C258.4872,93.2148 254.7922,94.0708 251.3702,91.4378 C248.1312,88.9458 247.5922,85.3278 250.1372,81.9658" id="Fill-62" fill="#9E1F62"></path>
            <polygon id="Fill-64" fill="#9E1F62" points="281.0717 90.5776 277.5827 87.2666 263.8797 101.6906 261.4207 99.3536 275.1237 84.9296 271.6607 81.6386 273.8397 79.3456 283.2487 88.2866"></polygon>
            <polygon id="Fill-66" fill="#9E1F62" points="286.292 91.6621 288.518 94.1361 271.366 109.5671 269.139 107.0921"></polygon>
            <path d="M279.3667,108.2817 L286.9427,102.5627 C290.6767,99.7457 294.2707,100.2937 296.7137,103.5287 C299.2337,106.8697 298.7247,110.3517 295.1887,113.2687 L293.2037,110.6387 C295.2407,108.8517 295.4977,107.1687 294.1687,105.4077 C292.9967,103.8557 291.1977,103.6057 288.9877,105.2727 L281.4117,110.9917 C279.2287,112.6367 278.9767,114.4397 280.1877,116.0437 C281.5377,117.8337 283.2517,118.0237 285.4957,116.6187 L287.4817,119.2517 C283.7127,121.8067 280.2237,121.3427 277.6627,117.9497 C275.2217,114.7137 275.6577,111.0787 279.3667,108.2817" id="Fill-68" fill="#9E1F62"></path>
            <polygon id="Fill-70" fill="#9E1F62" points="295.6479 140.7007 292.8789 142.1597 287.4529 131.8697 307.8609 121.1097 313.1329 131.1097 310.3619 132.5697 306.6429 125.5147 300.7259 128.6347 304.1529 135.1357 301.4419 136.5647 298.0139 130.0637 291.7739 133.3537"></polygon>
            <path d="M315.7661,136.8032 L316.9661,139.9042 L307.9101,149.0992 C306.7161,150.3012 305.0261,151.8752 303.9391,152.8962 L304.0361,152.9642 C306.0601,151.8982 309.2171,150.4662 311.1221,149.7292 L319.5101,146.4822 L320.7001,149.5552 L299.1881,157.8782 L297.9861,154.7742 L306.6731,145.9022 C308.0211,144.6372 309.9211,142.8792 311.1001,141.8212 L311.0031,141.7542 C308.9351,142.8012 305.7691,144.2022 303.7411,144.9882 L295.4431,148.1982 L294.2531,145.1252 L315.7661,136.8032 Z" id="Fill-72" fill="#9E1F62"></path>
            <polygon id="Fill-74" fill="#9E1F62" points="307.6245 179.0518 304.5275 179.7008 302.2755 168.9578 324.8555 164.2248 325.5375 167.4808 306.0555 171.5688"></polygon>
            <polygon id="Fill-76" fill="#9E1F62" points="327.6235 179.1514 328.0565 182.4524 305.1875 185.4494 304.7565 182.1494"></polygon>
            <path d="M312.58,188.8838 L321.963,188.4838 C326.638,188.2808 329.249,190.7408 329.43,194.9238 C329.604,199.0048 327.241,201.5808 322.704,201.9408 L322.563,198.6488 C325.226,198.4038 326.326,197.1668 326.236,195.0598 C326.146,192.9518 324.873,191.7538 322.076,191.8758 L312.724,192.2748 C309.927,192.3938 308.764,193.7628 308.856,195.9038 C308.95,198.1088 310.226,199.3748 312.859,199.2618 L315.757,199.1378 L315.6,195.4838 L318.564,195.3578 L318.86,202.2688 L313,202.5198 C308.486,202.6498 305.84,200.1568 305.663,196.0068 C305.484,191.8608 307.905,189.0848 312.58,188.8838" id="Fill-78" fill="#9E1F62"></path>
            <path d="M329.2456,208.0527 L328.9756,211.3707 L316.8196,215.7117 C315.2176,216.2787 313.0146,216.9607 311.5896,217.4077 L311.6456,217.5127 C313.9336,217.4327 317.4006,217.5157 319.4386,217.6797 L328.4086,218.4057 L328.1436,221.6887 L305.1426,219.8287 L305.4106,216.5127 L317.0956,212.2957 C318.8596,211.7437 321.3346,210.9867 322.8596,210.5447 L322.8016,210.4427 C320.4836,210.4867 317.0186,210.3707 314.8506,210.1967 L305.9786,209.4807 L306.2436,206.1937 L329.2456,208.0527 Z" id="Fill-80" fill="#9E1F62"></path>
            <polygon id="Fill-82" fill="#9E1F62" points="305.2441 236.0762 302.1741 235.4612 304.4591 224.0522 327.0831 228.5832 324.8621 239.6692 321.7921 239.0532 323.3591 231.2332 316.7971 229.9202 315.3541 237.1252 312.3481 236.5242 313.7911 229.3152 306.8751 227.9302"></polygon>
            <path d="M170.4804,181.0498 L152.5984,181.0498 C148.7614,181.0498 145.6494,184.1598 145.6494,187.9968 C145.6494,191.8348 148.7614,194.9458 152.5984,194.9458 L170.4804,194.9458 C174.3184,194.9458 177.4284,191.8348 177.4284,187.9968 C177.4284,184.1598 174.3184,181.0498 170.4804,181.0498" id="Fill-84" fill="#D91C5B"></path>
        </g>
    </g>
</svg>