<svg xmlns="http://www.w3.org/2000/svg" viewBox="0 0 986.37 789.92"><defs><style>.cls-1{opacity:0.4;}.cls-2{fill:#fff;opacity:0.5;}.cls-3{fill:#1ba39e;}.cls-4{fill:#126660;}.cls-5{fill:#f2940e;}.cls-6{fill:#55b5e0;}.cls-7{fill:#fec007;}.cls-8{fill:#188eb7;}.cls-9{fill:#dedede;}.cls-10{fill:#f0f0f0;}.cls-11{fill:#e86464;}.cls-12{fill:#dee1e9;}.cls-13{fill:#5a5c60;}.cls-14{fill:#404347;}</style></defs><title>Asset 1</title><g id="Layer_2" data-name="Layer 2"><g id="Capa_1" data-name="Capa 1"><circle class="cls-1" cx="958.39" cy="331.19" r="27.97"/><circle class="cls-1" cx="27.97" cy="382.63" r="27.97"/><circle class="cls-2" cx="116.07" cy="43.74" r="12.09"/><circle class="cls-2" cx="930.42" cy="486.37" r="10.5"/><path class="cls-3" d="M770.43,712.39c-29.54,21.91-62.61,34.73-95.06,38.74-41.68,5.13-82.36-4.29-113.28-27.71h0l-79.87,59.27a36.05,36.05,0,0,1-6.39,3.81,36.69,36.69,0,0,1-37.34-62.73l14.16-10.51,65.72-48.76c-13.53-36.57-10.66-78.49,6.58-117.08,13.25-29.66,35-57.37,64.34-79.13,57.41-42.61,128.12-50.86,181.81-26.73a132.67,132.67,0,0,1,52.63,42C873.74,551,849.88,653.41,770.43,712.39Z"/><path class="cls-4" d="M747.4,600.11c-20,31.6-46.72,55.74-76.11,71.13-31,16.22-64.87,22.73-96.82,18A135.24,135.24,0,0,1,557,685.47l-47.5,63.87-3.48,5.5a36.76,36.76,0,0,1-36.41,16.69c-4.9-.73-11.91,12.24-16.38,9.42a36.69,36.69,0,0,1-11.4-50.62l10.79-17.07,65.72-48.77c-13.53-36.56-10.66-78.49,6.58-117.07,13.25-29.67,35-57.37,64.34-79.13,57.4-42.61,128.12-50.87,181.81-26.73C786.85,489.86,779.8,548.85,747.4,600.11Z"/><path class="cls-5" d="M675.37,751.13c-41.68,5.13-82.36-4.29-113.28-27.71h0l-79.87,59.27a36.69,36.69,0,0,1-43.73-58.92l79.88-59.27c-13.53-36.57-10.66-78.49,6.58-117.08l150.49,202.8Z"/><path class="cls-6" d="M718.89,577.73c-20,31.59-46.72,55.73-76.11,71.12-31,16.23-64.86,22.74-96.82,18a135.12,135.12,0,0,1-17.44-3.78l-53.15,84.07a36.69,36.69,0,1,1-62-39.2l53.16-84.07h0c-25.81-29.24-38.23-69.37-36-111.56h0A196.87,196.87,0,0,1,447.2,443,210,210,0,0,1,462,415.3a205.17,205.17,0,0,1,52-56.05c53.18-39,120.51-46.85,172.22-14.16C757.11,389.94,771.76,494.1,718.89,577.73Z"/><path class="cls-7" d="M643.9,647.25l-1.12,1.6c-31,16.23-64.86,22.74-96.82,18a135.49,135.49,0,0,1-17.44-3.78l-53.16,84.07a36.68,36.68,0,1,1-62-39.2l53.16-84.07h0c-25.79-29.24-38.22-69.37-36-111.56Z"/><path class="cls-8" d="M555.22,423.42A57.94,57.94,0,0,1,447.2,443,209.35,209.35,0,0,1,462,415.3a205.17,205.17,0,0,1,52-56.05A58,58,0,0,1,555.22,423.42Z"/><circle class="cls-9" cx="518.22" cy="412.94" r="57.95"/><path class="cls-10" d="M575.54,421.42a58,58,0,0,1-49.3,48.91,58,58,0,0,1,16.29-110A58,58,0,0,1,575.54,421.42Z"/><path class="cls-7" d="M938.18,24.38A35.64,35.64,0,0,0,913,34.8a35.59,35.59,0,0,0-25.21-10.42,35.7,35.7,0,0,1,7.29.75c-30.85,20.32-9.39,80.15,17.92,108.52,28.9-13.39,60.94-46.23,60.94-73.55A35.72,35.72,0,0,0,938.18,24.38Z"/><path class="cls-5" d="M895,25.13a35.74,35.74,0,0,0-43,35c0,27.32,32.05,60.16,60.94,73.55C885.65,105.28,864.19,45.45,895,25.13Z"/><path class="cls-11" d="M900,154.82a15.85,15.85,0,0,1,1.48,1.06A15.85,15.85,0,0,0,900,154.82Z"/><path class="cls-11" d="M898.32,153.85a16.72,16.72,0,0,1,1.65.94A16.72,16.72,0,0,0,898.32,153.85Z"/><path class="cls-7" d="M921.37,165.53a18.23,18.23,0,0,0-13.94-1.08,18.27,18.27,0,0,0-5.95-8.57c-18.81,2.14-22.86,34.46-16.94,53.75,16.31.57,38.56-7,44.89-19.5A18.3,18.3,0,0,0,921.37,165.53Z"/><path class="cls-5" d="M901.48,155.88h0a15.85,15.85,0,0,0-1.48-1.06l0,0c-.53-.34-1.08-.65-1.65-.94a18.31,18.31,0,0,0-24.6,8.05c-6.33,12.49.72,34.92,10.82,47.73C878.62,190.34,882.67,158,901.48,155.88Z"/><path class="cls-7" d="M808.84,94.37c12.8-12.57,23.59-36.05,18.43-50.55a20.12,20.12,0,0,0-37.12-1.9,20.08,20.08,0,0,0-15.35-.76,20,20,0,0,1,4-1C766.29,56.79,789,84.48,808.84,94.37Z"/><path class="cls-5" d="M808.84,94.37c-19.86-9.89-42.55-37.58-30-54.19A20.12,20.12,0,0,0,762.6,66.87C767.77,81.36,791,92.72,808.84,94.37Z"/><path class="cls-10" d="M824.26,114.3,711,139.46A36.42,36.42,0,0,0,682.51,175V318.74a56.61,56.61,0,0,0-18.21-3,59,59,0,0,1,9.8.84c-16.05,3.17-28,15.16-28,29.51s12,26.34,28,29.51a58.85,58.85,0,0,1-7.26.78c22.28-.93,39.95-14.14,39.95-30.29V182.22l115.35-25.63V282.31a56.67,56.67,0,0,0-18.22-3,57.94,57.94,0,0,1,9.81.85c-16.06,3.16-28,15.16-28,29.5s12,26.35,28,29.51a59,59,0,0,1-7.27.79c22.29-.94,40-14.14,40-30.3V132.07A18.21,18.21,0,0,0,824.26,114.3Z"/><path class="cls-12" d="M806.43,340c-.83,0-1.66.06-2.51.06C804.77,340.06,805.6,340,806.43,340Z"/><path class="cls-12" d="M666.8,376.43c-.82,0-1.66.05-2.5.05C665.14,376.48,666,376.46,666.8,376.43Z"/><path class="cls-9" d="M646.09,346.13c0-14.35,12-26.34,28-29.51a59,59,0,0,0-9.8-.84c-23.47,0-42.5,13.58-42.5,30.35s19,30.35,42.5,30.35c.84,0,1.68,0,2.5-.05h0a58.85,58.85,0,0,0,7.26-.78C658.05,372.47,646.09,360.48,646.09,346.13Z"/><path class="cls-9" d="M785.71,309.7c0-14.34,12-26.34,28-29.5a57.94,57.94,0,0,0-9.81-.85c-23.46,0-42.49,13.59-42.49,30.35s19,30.36,42.49,30.36c.85,0,1.68,0,2.51-.06h0a59,59,0,0,0,7.27-.79C797.67,336.05,785.71,324.05,785.71,309.7Z"/><path class="cls-2" d="M267.72,423.17A7.79,7.79,0,0,1,259,411.73l38.36-66a7.79,7.79,0,1,1,13.47,7.83l-38.36,66A7.81,7.81,0,0,1,267.72,423.17Z"/><path class="cls-2" d="M148.19,628.83a7.78,7.78,0,0,1-8.72-11.44l104-179A7.78,7.78,0,1,1,257,446.21l-104,179A7.74,7.74,0,0,1,148.19,628.83Z"/><path class="cls-1" d="M194.12,477.2a7.79,7.79,0,0,1-8.73-11.44l88.24-151.85a7.79,7.79,0,1,1,13.47,7.83L198.86,473.58A7.79,7.79,0,0,1,194.12,477.2Z"/><path class="cls-2" d="M115.26,473.4A7.78,7.78,0,0,1,106.53,462L227.9,253.12a7.79,7.79,0,0,1,13.47,7.82L120,469.79A7.74,7.74,0,0,1,115.26,473.4Z"/><path class="cls-1" d="M134.45,323.61a7.78,7.78,0,0,1-8.73-11.44l88.74-152.7a7.79,7.79,0,1,1,13.47,7.83L139.19,320A7.77,7.77,0,0,1,134.45,323.61Z"/><path class="cls-1" d="M316.34,539.65a7.79,7.79,0,0,1-8.73-11.44l99.39-171A7.79,7.79,0,1,1,420.46,365L321.08,536A7.76,7.76,0,0,1,316.34,539.65Z"/><path class="cls-10" d="M533.86,85.39q2.43,5.16,4.45,10.4A148.92,148.92,0,0,1,269.73,222.55q-2.78-4.89-5.21-10A148.92,148.92,0,1,1,533.86,85.39Z"/><path class="cls-9" d="M477,271c3.56-.63,7.12-1.38,10.66-2.28a149,149,0,0,1-217.95-46.21q-2.76-4.89-5.2-10a149,149,0,0,1,98.41-208,147.5,147.5,0,0,0-14,11.75,149,149,0,0,0-32.15,171.62q2.43,5.16,5.2,10A149,149,0,0,0,477,271Z"/><path class="cls-13" d="M380.93,1.12c-7.71,17-19.79,34.71-30.32,44.9a129.8,129.8,0,0,1-25.81-.14,173.78,173.78,0,0,1-28.13-5,149.91,149.91,0,0,1,66.26-36.4A146.07,146.07,0,0,1,380.93,1.12Z"/><path class="cls-14" d="M362.93,4.48a148.18,148.18,0,0,0-38.13,41.4,173.78,173.78,0,0,1-28.13-5A150.1,150.1,0,0,1,362.93,4.48Z"/><path class="cls-13" d="M370.56,88.29c-15.87,15.38-35.3,47.88-37.91,69.14,9.84,20.85,34,46.47,54.05,57.42h0A122.76,122.76,0,0,0,458,181.19h0c4.29-22.44-1.78-60.84-10-78.22C430,91.47,392.52,85.82,370.56,88.29Z"/><rect class="cls-13" x="469.12" y="157.47" width="15.35" height="70.69" transform="translate(61.77 496.58) rotate(-58.22)"/><polygon class="cls-13" points="396.82 197.23 388.45 259.25 385.88 278.3 370.66 276.25 374 251.52 381.61 195.18 396.82 197.23"/><polygon class="cls-13" points="346.15 147.12 348.96 162.21 309.53 169.55 279.47 175.13 276.65 160.05 305.59 154.66 346.15 147.12"/><rect class="cls-13" x="420.82" y="82.34" width="85.34" height="15.35" transform="translate(50.53 318.89) rotate(-39.99)"/><rect class="cls-13" x="352.93" y="30.16" width="15.35" height="73.98" transform="translate(5.83 160.33) rotate(-25.26)"/><path class="cls-14" d="M293,164.82c-2.51,16.66-11.92,40.79-23.24,57.73q-2.78-4.89-5.21-10A148.31,148.31,0,0,1,253,120.43C268.92,132.4,285.11,150.71,293,164.82Z"/><path class="cls-13" d="M533.86,85.39q2.43,5.16,4.45,10.4C518,93.76,493.42,85.69,479,77c-5.9-15-9.75-39.17-8.87-59A148.17,148.17,0,0,1,533.86,85.39Z"/><path class="cls-14" d="M424.79,295.68a149.07,149.07,0,0,1-96.21-15.61c16.19-10.31,37.18-18.77,52.21-21.44C394.56,265.84,412.43,280.68,424.79,295.68Z"/><path class="cls-13" d="M545.3,177.78A149.1,149.1,0,0,1,496.2,262c-3.73-19.08-3.83-42.3-.64-57.52C507.17,194.56,527.05,183.73,545.3,177.78Z"/><path class="cls-14" d="M305.59,154.66a144.66,144.66,0,0,0,3.94,14.89l-30.06,5.58-2.82-15.08Z"/><path class="cls-14" d="M388.45,259.24l-2.57,19.06-15.22-2.05L374,251.52c2.23,1.37,4.5,2.66,6.8,3.89Q384.57,257.45,388.45,259.24Z"/></g></g></svg>