<svg xmlns="http://www.w3.org/2000/svg" viewBox="0 0 935.06 751.28"><defs><style>.cls-1{fill:#595c63;}.cls-2{fill:#2f3033;}.cls-3{fill:#cca97a;}.cls-4{fill:#fffaf2;}.cls-5{fill:#ffeacc;}.cls-6{fill:#868491;}.cls-7{fill:#b4b6bc;}.cls-8{fill:#f44d4d;}.cls-9{fill:#ffcd00;}.cls-10{fill:#f28181;}.cls-11{fill:#f2b6b6;}.cls-12{fill:#5c546a;}.cls-13{fill:#54cadd;}.cls-14{fill:#2796af;}.cls-15{fill:#fff;opacity:0.5;}.cls-16{opacity:0.4;}</style></defs><title>Asset 1</title><g id="Layer_2" data-name="Layer 2"><g id="Capa_1" data-name="Capa 1"><path class="cls-1" d="M674.73,322.89H158.4a27.69,27.69,0,0,0-27.66,27.66V654.81a27.69,27.69,0,0,0,27.66,27.66H674.73a27.69,27.69,0,0,0,27.66-27.66V350.55A27.69,27.69,0,0,0,674.73,322.89Z"/><rect class="cls-2" x="388.9" y="636.37" width="55.32" height="46.1"/><path class="cls-3" d="M665.76,608.71v27.66a9.22,9.22,0,0,1-9.22,9.22H177.1a9.22,9.22,0,0,1-9.22-9.22V608.71l55.06-27.66,221.28,9.22,184.41-9.22Z"/><path class="cls-4" d="M180.81,621.44a292.36,292.36,0,0,1,236,5.71V295.23a292.35,292.35,0,0,0-243.47-2.51,9.34,9.34,0,0,0-5.47,8.52V613A9.25,9.25,0,0,0,180.81,621.44Z"/><path class="cls-5" d="M416.82,627.15a292.33,292.33,0,0,1,236-5.71A9.26,9.26,0,0,0,665.76,613V301.24a9.35,9.35,0,0,0-5.48-8.52,292.32,292.32,0,0,0-243.46,2.51Z"/><path class="cls-6" d="M453.7,566.94a9.22,9.22,0,0,1-2.77-18c9.33-2.94,18.93-5.44,28.54-7.45a9.22,9.22,0,0,1,3.78,18c-9,1.9-18,4.25-26.79,7A9.18,9.18,0,0,1,453.7,566.94Z"/><path class="cls-6" d="M628.88,566.94a9.24,9.24,0,0,1-2.77-.43A281.39,281.39,0,0,0,519,554.38,9.22,9.22,0,0,1,517.51,536a300.37,300.37,0,0,1,114.13,12.93,9.22,9.22,0,0,1-2.76,18Z"/><path class="cls-6" d="M628.88,530a9.24,9.24,0,0,1-2.77-.43,281.74,281.74,0,0,0-169.65,0,9.22,9.22,0,0,1-5.53-17.59,300.05,300.05,0,0,1,180.71,0,9.22,9.22,0,0,1-2.76,18Z"/><path class="cls-6" d="M453.7,493.18a9.22,9.22,0,0,1-2.77-18,300.91,300.91,0,0,1,104.63-13.52,9.22,9.22,0,0,1-.88,18.42,282.63,282.63,0,0,0-98.22,12.69A9.18,9.18,0,0,1,453.7,493.18Z"/><path class="cls-6" d="M628.88,493.18a9.24,9.24,0,0,1-2.77-.43A283.56,283.56,0,0,0,590.39,484a9.22,9.22,0,1,1,3.2-18.16,302,302,0,0,1,38,9.29,9.22,9.22,0,0,1-2.76,18Z"/><path class="cls-6" d="M628.88,456.19a9.24,9.24,0,0,1-2.77-.43,281.74,281.74,0,0,0-169.65,0,9.22,9.22,0,0,1-5.53-17.59,300.05,300.05,0,0,1,180.71,0,9.22,9.22,0,0,1-2.76,18Z"/><path class="cls-6" d="M453.7,419.31a9.22,9.22,0,0,1-2.77-18,301.41,301.41,0,0,1,57.08-12,9.22,9.22,0,1,1,2,18.32,283.89,283.89,0,0,0-53.58,11.28A9.18,9.18,0,0,1,453.7,419.31Z"/><path class="cls-6" d="M628.88,419.31a9.24,9.24,0,0,1-2.77-.43,282.35,282.35,0,0,0-80.35-13,9.23,9.23,0,0,1-9.07-9.37c.08-5.09,4.53-9.37,9.36-9.07a300.93,300.93,0,0,1,85.59,13.82,9.22,9.22,0,0,1-2.76,18Z"/><path class="cls-6" d="M453.7,382.54a9.23,9.23,0,0,1-2.77-18,299.66,299.66,0,0,1,123.64-12,9.22,9.22,0,0,1,8.15,10.18,9.11,9.11,0,0,1-10.18,8.15,281.28,281.28,0,0,0-116.08,11.28A9.18,9.18,0,0,1,453.7,382.54Z"/><path class="cls-6" d="M628.88,382.54a9.24,9.24,0,0,1-2.77-.43c-5.85-1.84-11.85-3.51-17.86-5a9.22,9.22,0,1,1,4.38-17.91c6.38,1.55,12.77,3.34,19,5.29a9.23,9.23,0,0,1-2.76,18Z"/><path class="cls-6" d="M453.7,345.55a9.22,9.22,0,0,1-2.76-18c6.34-2,12.73-3.77,19-5.3a9.22,9.22,0,1,1,4.36,17.92c-5.89,1.43-11.9,3.1-17.86,5A9.11,9.11,0,0,1,453.7,345.55Z"/><path class="cls-6" d="M628.88,345.55a9.24,9.24,0,0,1-2.77-.43A281.56,281.56,0,0,0,510,333.84a9.22,9.22,0,1,1-2-18.32,299.51,299.51,0,0,1,123.64,12,9.22,9.22,0,0,1-2.76,18Z"/><path class="cls-7" d="M204.76,493.18a9.22,9.22,0,0,1-2.77-18,301,301,0,0,1,104.63-13.52,9.22,9.22,0,1,1-.89,18.42,282.55,282.55,0,0,0-98.21,12.69A9.18,9.18,0,0,1,204.76,493.18Z"/><path class="cls-7" d="M204.76,456.19a9.22,9.22,0,0,1-2.77-18,301.57,301.57,0,0,1,161.68-5.3,9.22,9.22,0,1,1-4.35,17.92,283,283,0,0,0-151.8,5A9.18,9.18,0,0,1,204.76,456.19Z"/><path class="cls-7" d="M204.76,419.31a9.22,9.22,0,0,1-2.77-18,301.41,301.41,0,0,1,57.08-12,9.22,9.22,0,1,1,2,18.32,283.89,283.89,0,0,0-53.58,11.28A9.18,9.18,0,0,1,204.76,419.31Z"/><path class="cls-7" d="M361.51,414.17a9.7,9.7,0,0,1-2.19-.26,283.23,283.23,0,0,0-62.5-8,9.21,9.21,0,0,1-9.07-9.36,9,9,0,0,1,9.36-9.08A302.5,302.5,0,0,1,363.68,396a9.22,9.22,0,0,1-2.17,18.18Z"/><path class="cls-7" d="M204.76,382.54a9.23,9.23,0,0,1-2.77-18,299.69,299.69,0,0,1,123.64-12,9.22,9.22,0,0,1,8.15,10.18,9.13,9.13,0,0,1-10.18,8.15,281.27,281.27,0,0,0-116.08,11.28A9.18,9.18,0,0,1,204.76,382.54Z"/><path class="cls-7" d="M204.76,345.55a9.22,9.22,0,0,1-2.76-18c6.34-2,12.73-3.77,19-5.3a9.22,9.22,0,1,1,4.35,17.92c-5.88,1.43-11.89,3.1-17.85,5A9.11,9.11,0,0,1,204.76,345.55Z"/><path class="cls-7" d="M361.51,340.41a9.18,9.18,0,0,1-2.19-.27,282.67,282.67,0,0,0-98.23-6.3,9.22,9.22,0,0,1-2-18.33,300.7,300.7,0,0,1,104.61,6.72,9.22,9.22,0,0,1-2.16,18.18Z"/><path class="cls-8" d="M361.5,438.13a4.61,4.61,0,0,0,7.16,3.84l20.5-13.66L409.65,442a4.62,4.62,0,0,0,7.17-3.84V296a9.29,9.29,0,0,0-5.46-8.48,290.25,290.25,0,0,0-44.09-15.46,4.64,4.64,0,0,0-5.8,4.51Z"/><path class="cls-5" d="M821.06,123.84l-46.65-45a6.49,6.49,0,0,0-9.17.16L553.58,298.25l-44.81,98.09a3.2,3.2,0,0,0,4.34,4.19l96.45-48.24L821.23,133A6.48,6.48,0,0,0,821.06,123.84Z"/><path class="cls-4" d="M640,264.49l-130.6,135.3.31.31a3.09,3.09,0,0,0,3.41.43l96.45-48.24,58.55-60.66Z"/><path class="cls-9" d="M821.06,123.84l-46.65-45a6.49,6.49,0,0,0-9.17.16L553.58,298.25a13,13,0,1,1,18.66,18,13,13,0,1,1,18.66,18,13,13,0,1,1,18.66,18L821.23,133A6.48,6.48,0,0,0,821.06,123.84Z"/><path class="cls-10" d="M572.24,316.26A12.94,12.94,0,0,1,592,332.88L806.94,110.2l-18.66-18L573.34,314.87A14.26,14.26,0,0,1,572.24,316.26Z"/><path class="cls-8" d="M553.58,298.25a12.94,12.94,0,0,1,19.76,16.62L788.28,92.19l-14-13.51a6.48,6.48,0,0,0-9.17.16l-210.44,218A12,12,0,0,1,553.58,298.25Z"/><path class="cls-11" d="M609.31,352A12.94,12.94,0,0,0,592,332.88L806.94,110.2l14,13.51a6.5,6.5,0,0,1,.16,9.17l-210.44,218A13.25,13.25,0,0,0,609.31,352Z"/><path class="cls-12" d="M527.87,354.54l-19.1,41.8a3.2,3.2,0,0,0,4.34,4.19L554.21,380Z"/><path class="cls-6" d="M509.37,399.81a3.09,3.09,0,0,0,3.74.72L554.21,380l-13.3-12.84-31.54,32.68Z"/><path class="cls-13" d="M579.38,515.83,736.53,673l117-117a45.82,45.82,0,0,0,0-64.7L761.13,398.8a45.82,45.82,0,0,0-64.71,0Z"/><path class="cls-10" d="M462.19,633a45.83,45.83,0,0,0,0,64.71l51.63,51.63a6.54,6.54,0,0,0,4.63,1.92H655.52a6.5,6.5,0,0,0,4.62-1.92L736.53,673,579.38,515.83Z"/><path class="cls-8" d="M827.9,751.28H808.29a6.54,6.54,0,1,1,0-13.07H827.9a6.54,6.54,0,1,1,0,13.07Z"/><path class="cls-8" d="M723.32,725.13a6.54,6.54,0,0,1-2.93-12.38l13.08-6.54a6.54,6.54,0,1,1,5.84,11.7l-13.07,6.53A6.49,6.49,0,0,1,723.32,725.13Z"/><path class="cls-8" d="M769.07,725.13h-6.53a6.54,6.54,0,1,1,0-13.07h6.53a6.54,6.54,0,1,1,0,13.07Z"/><path class="cls-8" d="M749.46,699a6.54,6.54,0,0,1-4.62-11.16l6.54-6.54a6.54,6.54,0,0,1,9.24,9.25l-6.53,6.53A6.52,6.52,0,0,1,749.46,699Z"/><path class="cls-8" d="M782.16,705.52a6.67,6.67,0,0,1-4.64-1.89,6.66,6.66,0,0,1-.07-9.22,6.78,6.78,0,0,1,9.28-.06,6.53,6.53,0,0,1-4.57,11.17Z"/><path class="cls-8" d="M782.16,672.84a6.45,6.45,0,0,1-6.53-6.53,6.55,6.55,0,0,1,1.82-4.58,6.78,6.78,0,0,1,9.28-.06,6.53,6.53,0,0,1-4.57,11.17Z"/><path class="cls-8" d="M782.14,738.21H502.67l11.15,11.15a6.54,6.54,0,0,0,4.63,1.92H782.14a6.54,6.54,0,1,0,0-13.07Z"/><path class="cls-14" d="M715.13,417.63l-117,117L736.46,673l.07-.06h0l117-117a45.81,45.81,0,0,0,1.87-62.7l-75.6-75.61A45.83,45.83,0,0,0,715.13,417.63Z"/><path class="cls-8" d="M598.09,534.67,480.9,651.86a45.82,45.82,0,0,0-1.88,62.7l34.8,34.8a6.54,6.54,0,0,0,4.63,1.92H655.52a6.5,6.5,0,0,0,4.62-1.92L736.46,673Z"/><circle class="cls-15" cx="32.38" cy="454.72" r="32.38"/><circle class="cls-16" cx="213.97" cy="191.22" r="44.33"/><circle class="cls-16" cx="907.09" cy="299.54" r="27.97"/><circle class="cls-15" cx="493.96" cy="125.34" r="27.97"/><circle class="cls-15" cx="64.76" cy="12.09" r="12.09"/></g></g></svg>