<svg xmlns="http://www.w3.org/2000/svg" viewBox="0 0 920.25 703.27"><defs><style>.cls-1{fill:#f44d4d;}.cls-2{fill:#db3b3b;}.cls-3{fill:#f0f0f0;}.cls-4{fill:#595c63;}.cls-5{fill:#ecf6ff;}.cls-6{fill:#fce381;}.cls-7{fill:#e29f33;}.cls-8{opacity:0.4;}.cls-9{fill:#fff;opacity:0.5;}</style></defs><title>Asset 1</title><g id="Layer_2" data-name="Layer 2"><g id="Capa_1" data-name="Capa 1"><path class="cls-1" d="M610.25,451c-161.62-98.17-231-199.26-231-280.52,0-37,14.4-69.92,41-96.55a132.33,132.33,0,0,1,172.4-12.72A130.18,130.18,0,0,1,607.41,74h5.66c1.6-1.6,3.22-3.14,4.88-4.63A132.3,132.3,0,0,1,800.2,74a145.89,145.89,0,0,1,23.51,30.42h0C874.13,191.89,819.5,323.91,610.25,451Z"/><path class="cls-2" d="M610.25,451c-161.62-98.17-231-199.26-231-280.52,0-37,14.4-69.92,41-96.55a132.31,132.31,0,0,1,187.13,0h2.12l.25,2.82-29.32,29.33s-73.09-36.35-118,44.39C411.92,241.56,459.05,320.85,610.25,451Z"/><path class="cls-3" d="M584.51,346.57h-.39A8,8,0,0,1,577,341.3L518.93,183l-38.34,65.56a8,8,0,0,1-6.94,4H347.73a8,8,0,1,1,0-16.07H469l44.63-76.31a8,8,0,0,1,14.48,1.3l57.34,156.46L650,183.28a8,8,0,0,1,14.36-.27l38.35,73L723,223.86a8,8,0,0,1,6.79-3.75h143a8,8,0,0,1,0,16.08H734.19l-25.38,40.16a8,8,0,0,1-13.91-.56l-37.37-71.13L591.75,342A8,8,0,0,1,584.51,346.57Z"/><path class="cls-4" d="M512.74,240.42H553a57.38,57.38,0,0,1,57.37,57.38V645.89A57.38,57.38,0,0,1,553,703.27H257.71a57.38,57.38,0,0,1-57.37-57.38V297.8a57.38,57.38,0,0,1,57.37-57.38h40.22"/><path class="cls-5" d="M512.74,292.75H535.5a14.14,14.14,0,0,1,14.14,14.14V642.21a14.14,14.14,0,0,1-14.14,14.14H275.17A14.13,14.13,0,0,1,261,642.21V306.89a14.13,14.13,0,0,1,14.13-14.14h22.76"/><path class="cls-6" d="M488,213.62H451.36a46,46,0,1,0-92,0H322.63a24.7,24.7,0,0,0-24.7,24.69v58.06a17.27,17.27,0,0,0,17.27,17.26H495.47a17.27,17.27,0,0,0,17.27-17.26V238.31A24.69,24.69,0,0,0,488,213.62ZM405.33,230a18,18,0,1,1,18-18A18,18,0,0,1,405.33,230Z"/><path class="cls-7" d="M314.33,296.37V238.31a24.7,24.7,0,0,1,24.7-24.7h-16.4a24.71,24.71,0,0,0-24.7,24.7v58.06a17.26,17.26,0,0,0,17.26,17.26h16.4A17.26,17.26,0,0,1,314.33,296.37Z"/><path class="cls-2" d="M442.6,375.13H425.83V358.36a11.93,11.93,0,0,0-11.93-11.93H396.77a11.93,11.93,0,0,0-11.93,11.93v16.77H368.08a11.93,11.93,0,0,0-11.93,11.93v17.13a11.93,11.93,0,0,0,11.93,11.93h16.76v16.76a11.93,11.93,0,0,0,11.93,11.93H413.9a11.93,11.93,0,0,0,11.93-11.93V416.12H442.6a11.93,11.93,0,0,0,11.93-11.93V387.06A11.93,11.93,0,0,0,442.6,375.13Z"/><path class="cls-4" d="M483.22,498.93H327.45a8.2,8.2,0,1,1,0-16.4H483.23a8.2,8.2,0,0,1,0,16.4Z"/><path class="cls-4" d="M483.22,544.84H327.45a8.2,8.2,0,0,1,0-16.4H483.23a8.2,8.2,0,0,1,0,16.4Z"/><path class="cls-4" d="M483.22,590.75H327.45a8.2,8.2,0,1,1,0-16.39H483.23a8.2,8.2,0,1,1,0,16.39Z"/><circle class="cls-8" cx="32.38" cy="223.5" r="32.38"/><circle class="cls-9" cx="111.88" cy="401.02" r="27.97"/><circle class="cls-9" cx="274.87" cy="61.92" r="12.09"/><circle class="cls-8" cx="880.79" cy="39.45" r="39.45"/><circle class="cls-8" cx="856.41" cy="394.53" r="10.5"/></g></g></svg>