<?xml version="1.0" encoding="UTF-8"?>
<svg width="460px" height="210px" viewBox="0 0 460 210" version="1.1" xmlns="http://www.w3.org/2000/svg" xmlns:xlink="http://www.w3.org/1999/xlink">
    <title>TRANSITIONSPRO_AUVERGNE_RHONE_ALPES_CMYK</title>
    <defs>
        <polygon id="path-1" points="0.06 0.313 264.59 0.313 264.59 67.508 0.06 67.508"></polygon>
        <polygon id="path-3" points="0.33 0.969 458.186 0.969 458.186 209.94 0.33 209.94"></polygon>
    </defs>
    <g id="TRANSITIONSPRO_AUVERGNE_RHONE_ALPES_CMYK" stroke="none" stroke-width="1" fill="none" fill-rule="evenodd">
        <path d="M215.589,162.395 L222.827,162.395 C228.437,162.395 232.961,166.92 232.961,172.53 L232.961,175.908 C232.961,181.517 228.437,186.042 222.827,186.042 L218.485,186.042 L218.485,200.037 C218.485,201.665 217.217,202.932 215.589,202.932 C213.96,202.932 212.693,201.665 212.693,200.037 L212.693,165.292 C212.693,163.662 213.96,162.395 215.589,162.395 M222.827,168.186 L218.485,168.186 L218.485,180.251 L222.827,180.251 C225.241,180.251 227.17,178.321 227.17,175.908 L227.17,172.53 C227.17,170.116 225.241,168.186 222.827,168.186" id="Fill-1" fill="#009A95"></path>
        <path d="M251.662,184.895 L256.91,199.011 C257.574,200.519 256.729,202.208 255.222,202.751 C253.714,203.294 252.145,202.571 251.48,201.062 L245.871,186.042 L242.613,186.042 L242.613,200.037 C242.613,201.665 241.347,202.931 239.719,202.931 C238.09,202.931 236.822,201.665 236.822,200.037 L236.822,165.291 C236.822,163.662 238.09,162.395 239.719,162.395 L246.958,162.395 C252.566,162.395 257.091,166.92 257.091,172.53 L257.091,175.907 C257.091,179.829 254.98,183.207 251.662,184.895 M246.958,180.251 C249.369,180.251 251.3,178.321 251.3,175.907 L251.3,172.53 C251.3,170.116 249.369,168.186 246.958,168.186 L242.613,168.186 L242.613,180.251 L246.958,180.251" id="Fill-2" fill="#009A95"></path>
        <path d="M261.194,192.797 L261.194,172.288 C261.194,166.678 265.717,162.154 271.328,162.154 C276.939,162.154 281.463,166.678 281.463,172.288 L281.463,192.797 C281.463,198.408 276.939,202.932 271.328,202.932 C265.717,202.932 261.194,198.408 261.194,192.797 M266.985,172.288 L266.985,192.797 C266.985,195.21 268.915,197.141 271.328,197.141 C273.74,197.141 275.672,195.21 275.672,192.797 L275.672,172.288 C275.672,169.876 273.74,167.944 271.328,167.944 C268.915,167.944 266.985,169.876 266.985,172.288" id="Fill-3" fill="#009A95"></path>
        <path d="M217.791,1.051 L275.852,1.051 C278.551,1.051 280.651,3.152 280.651,5.851 L280.651,15.85 C280.651,18.55 278.551,20.65 275.852,20.65 C273.15,20.65 271.052,18.55 271.052,15.85 L271.052,10.65 L222.59,10.65 L222.59,15.85 C222.59,18.55 220.491,20.65 217.791,20.65 C215.092,20.65 212.991,18.55 212.991,15.85 L212.991,5.851 C212.991,3.152 215.092,1.051 217.791,1.051" id="Fill-4" fill="#009A95"></path>
        <path d="M275.852,142.33 L217.791,142.33 C215.092,142.33 212.991,140.229 212.991,137.531 L212.991,127.531 C212.991,124.831 215.092,122.731 217.791,122.731 C220.492,122.731 222.59,124.831 222.59,127.531 L222.59,132.731 L271.052,132.731 L271.052,127.531 C271.052,124.831 273.152,122.731 275.852,122.731 C278.55,122.731 280.65,124.831 280.65,127.531 L280.65,137.531 C280.65,140.229 278.55,142.33 275.852,142.33" id="Fill-5" fill="#009A95"></path>
        <g id="Group-9" transform="translate(0.000000, 39.000000)">
            <mask id="mask-2" fill="white">
                <use xlink:href="#path-1"></use>
            </mask>
            <g id="Clip-7"></g>
            <path d="M264.59,5.112 C264.59,7.813 262.488,9.912 259.79,9.912 L251.591,9.912 L251.591,62.708 C251.591,65.408 249.491,67.508 246.791,67.508 C244.091,67.508 241.99,65.408 241.99,62.708 L241.99,9.912 L233.792,9.912 C231.092,9.912 228.993,7.813 228.993,5.112 C228.993,2.414 231.092,0.313 233.792,0.313 L259.79,0.313 C262.488,0.313 264.59,2.414 264.59,5.112" id="Fill-6" fill="#009A95" mask="url(#mask-2)"></path>
            <path d="M35.597,5.112 C35.597,7.813 33.496,9.912 30.797,9.912 L22.598,9.912 L22.598,62.708 C22.598,65.408 20.499,67.508 17.797,67.508 C15.098,67.508 12.998,65.408 12.998,62.708 L12.998,9.912 L4.799,9.912 C2.1,9.912 0,7.813 0,5.112 C0,2.414 2.1,0.313 4.799,0.313 L30.797,0.313 C33.496,0.313 35.597,2.414 35.597,5.112" id="Fill-8" fill="#6F8F9D" mask="url(#mask-2)"></path>
        </g>
        <path d="M66.596,76.611 L75.295,100.009 C76.396,102.509 74.995,105.308 72.496,106.208 C69.996,107.108 67.396,105.909 66.295,103.409 L56.997,78.51 L51.597,78.51 L51.597,101.709 C51.597,104.409 49.497,106.508 46.797,106.508 C44.097,106.508 41.998,104.409 41.998,101.709 L41.998,44.112 C41.998,41.413 44.097,39.313 46.797,39.313 L58.797,39.313 C68.096,39.313 75.596,46.812 75.596,56.112 L75.596,61.711 C75.596,68.212 72.095,73.81 66.596,76.611 M58.797,68.911 C62.796,68.911 65.995,65.711 65.995,61.711 L65.995,56.112 C65.995,52.111 62.796,48.912 58.797,48.912 L51.597,48.912 L51.597,68.911 L58.797,68.911" id="Fill-10" fill="#6F8F9D"></path>
        <path d="M117.294,106.308 C114.594,107.008 112.094,105.508 111.394,103.009 C111.094,102.209 110.894,101.208 110.595,100.109 C110.093,98.209 109.294,95.608 108.494,92.509 L91.496,92.509 C90.595,95.608 89.895,98.209 89.395,100.109 C89.095,101.208 88.895,102.209 88.596,103.009 C87.896,105.508 85.396,107.008 82.696,106.308 C80.197,105.609 78.697,103.108 79.396,100.408 L95.395,42.413 C95.896,40.314 97.695,38.913 99.994,38.913 C102.295,38.913 104.094,40.314 104.594,42.413 L120.593,100.408 C121.293,103.108 119.793,105.609 117.294,106.308 M99.994,61.811 C98.095,68.312 96.094,76.011 94.195,82.91 L105.795,82.91 C103.894,76.011 101.894,68.312 99.994,61.811" id="Fill-11" fill="#6F8F9D"></path>
        <path d="M155.292,103.809 C153.293,99.509 151.193,95.21 148.993,90.709 C145.293,83.109 140.493,73.411 136.393,64.712 L136.393,101.708 C136.393,104.408 134.294,106.507 131.593,106.507 C128.894,106.507 126.793,104.408 126.793,101.708 L126.793,43.713 C126.793,41.412 128.194,39.513 130.494,39.013 C132.794,38.514 134.793,39.613 135.894,41.613 C137.894,45.913 139.992,50.212 142.192,54.712 C145.892,62.312 150.492,72.011 154.793,80.71 L154.793,43.713 C154.793,41.013 156.891,38.913 159.592,38.913 C162.291,38.913 164.392,41.013 164.392,43.713 L164.392,101.708 C164.392,104.008 162.791,105.908 160.691,106.408 C158.391,106.908 156.191,105.808 155.292,103.809" id="Fill-12" fill="#6F8F9D"></path>
        <path d="M195.693,89.809 C195.893,87.51 195.192,85.51 193.592,83.81 L177.594,67.411 C174.094,63.911 172.494,59.212 172.894,54.412 C173.294,49.613 175.594,45.213 179.494,42.313 C183.394,39.413 188.293,38.313 192.993,39.214 C197.693,40.313 201.793,43.013 204.191,47.312 C205.491,49.613 204.692,52.412 202.392,53.912 C200.091,55.212 197.191,54.412 195.893,52.112 C194.793,50.313 193.192,49.113 191.093,48.612 C188.994,48.212 186.992,48.712 185.293,50.012 C183.593,51.313 182.593,53.011 182.493,55.212 C182.293,57.312 182.993,59.212 184.493,60.712 L200.392,77.111 C203.892,80.711 205.691,85.609 205.292,90.509 C204.891,95.609 202.392,99.908 198.492,103.008 C194.493,106.109 189.492,107.108 184.593,106.209 C179.693,105.109 175.493,102.209 173.093,97.909 C171.593,95.609 172.494,92.61 174.793,91.31 C177.093,90.009 179.893,90.81 181.394,93.109 C182.493,95.01 184.194,96.309 186.493,96.809 C188.793,97.209 190.893,96.708 192.692,95.309 C194.592,94.008 195.393,92.109 195.693,89.809" id="Fill-13" fill="#6F8F9D"></path>
        <path d="M212.991,101.709 L212.991,43.712 C212.991,41.013 215.092,38.913 217.791,38.913 C220.491,38.913 222.59,41.013 222.59,43.712 L222.59,101.709 C222.59,104.408 220.491,106.507 217.791,106.507 C215.092,106.507 212.991,104.408 212.991,101.709" id="Fill-14" fill="#6F8F9D"></path>
        <path d="M270.99,101.709 L270.99,43.712 C270.99,41.013 273.091,38.913 275.79,38.913 C278.49,38.913 280.589,41.013 280.589,43.712 L280.589,101.709 C280.589,104.408 278.49,106.507 275.79,106.507 C273.091,106.507 270.99,104.408 270.99,101.709" id="Fill-15" fill="#6F8F9D"></path>
        <path d="M289.79,89.71 L289.79,55.712 C289.79,46.412 297.29,38.913 306.589,38.913 C315.888,38.913 323.387,46.412 323.387,55.712 L323.387,89.71 C323.387,99.008 315.888,106.508 306.589,106.508 C297.29,106.508 289.79,99.008 289.79,89.71 M299.39,55.712 L299.39,89.71 C299.39,93.709 302.589,96.909 306.589,96.909 C310.588,96.909 313.788,93.709 313.788,89.71 L313.788,55.712 C313.788,51.712 310.588,48.513 306.589,48.513 C302.589,48.513 299.39,51.712 299.39,55.712" id="Fill-16" fill="#6F8F9D"></path>
        <path d="M361.086,103.809 C359.085,99.509 356.985,95.21 354.787,90.709 C351.087,83.109 346.287,73.411 342.187,64.712 L342.187,101.708 C342.187,104.408 340.088,106.507 337.387,106.507 C334.689,106.507 332.588,104.408 332.588,101.708 L332.588,43.713 C332.588,41.412 333.988,39.513 336.287,39.013 C338.587,38.514 340.587,39.613 341.688,41.613 C343.687,45.913 345.787,50.212 347.986,54.712 C351.687,62.312 356.286,72.011 360.587,80.71 L360.587,43.713 C360.587,41.013 362.685,38.913 365.386,38.913 C368.085,38.913 370.186,41.013 370.186,43.713 L370.186,101.708 C370.186,104.008 368.585,105.908 366.485,106.408 C364.186,106.908 361.985,105.808 361.086,103.809" id="Fill-17" fill="#6F8F9D"></path>
        <path d="M401.884,90.103 C402.084,87.792 401.38,85.779 399.772,84.069 L383.679,67.576 C380.16,64.055 378.552,59.33 378.952,54.502 C379.355,49.674 381.668,45.249 385.59,42.332 C389.513,39.416 394.44,38.31 399.167,39.216 C403.894,40.321 408.018,43.037 410.431,47.361 C411.738,49.674 410.935,52.49 408.621,53.999 C406.308,55.307 403.393,54.502 402.084,52.189 C400.977,50.378 399.368,49.171 397.257,48.668 C395.144,48.266 393.134,48.769 391.424,50.076 C389.712,51.384 388.707,53.093 388.606,55.307 C388.407,57.418 389.11,59.33 390.619,60.837 L406.61,77.332 C410.129,80.952 411.939,85.88 411.538,90.807 C411.136,95.937 408.621,100.26 404.699,103.379 C400.676,106.497 395.647,107.503 390.72,106.596 C385.792,105.491 381.567,102.574 379.153,98.25 C377.646,95.937 378.552,92.919 380.864,91.612 C383.177,90.304 385.993,91.11 387.501,93.423 C388.606,95.333 390.316,96.641 392.63,97.143 C394.942,97.546 397.057,97.043 398.865,95.635 C400.776,94.327 401.58,92.417 401.884,90.103" id="Fill-18" fill="#6F8F9D"></path>
        <path d="M320.256,152.809 C319.572,155.151 318.852,157.924 318.168,160.409 L322.346,160.409 C321.662,157.924 320.941,155.151 320.256,152.809 Z M326.486,168.837 C325.514,169.087 324.613,168.547 324.361,167.647 C324.254,167.36 324.182,166.999 324.074,166.602 C323.895,165.919 323.605,164.981 323.318,163.866 L317.195,163.866 C316.871,164.981 316.619,165.919 316.439,166.602 C316.332,166.999 316.26,167.36 316.152,167.647 C315.9,168.547 315,169.087 314.027,168.837 C313.127,168.583 312.586,167.684 312.838,166.712 L318.6,145.825 C318.781,145.067 319.428,144.563 320.256,144.563 C321.086,144.563 321.732,145.067 321.914,145.825 L327.676,166.712 C327.928,167.684 327.387,168.583 326.486,168.837 L326.486,168.837 Z" id="Fill-19" fill="#4D4E4C"></path>
        <path d="M329.83,163.434 L329.83,152.774 C329.83,151.876 330.549,151.153 331.449,151.153 C332.35,151.153 333.07,151.876 333.07,152.774 L333.07,163.434 C333.07,164.551 333.934,165.415 335.051,165.415 L337.031,165.415 L337.031,152.774 C337.031,151.876 337.752,151.153 338.652,151.153 C339.553,151.153 340.272,151.876 340.272,152.774 L340.272,167.036 C340.272,167.934 339.553,168.655 338.652,168.655 L335.051,168.655 C332.17,168.655 329.83,166.315 329.83,163.434" id="Fill-20" fill="#4D4E4C"></path>
        <path d="M344.23,151.227 C345.094,150.973 345.994,151.442 346.246,152.305 C346.535,153.278 346.822,154.286 347.147,155.333 C347.688,157.096 348.336,159.364 349.02,161.524 C349.703,159.364 350.352,157.096 350.893,155.333 C351.217,154.286 351.504,153.278 351.793,152.305 C352.045,151.442 352.945,150.973 353.809,151.227 C354.674,151.477 355.141,152.38 354.889,153.243 L350.568,167.647 C350.389,168.331 349.74,168.799 349.02,168.799 C348.299,168.799 347.723,168.331 347.471,167.647 L343.15,153.243 C342.898,152.38 343.365,151.477 344.23,151.227" id="Fill-21" fill="#4D4E4C"></path>
        <path d="M360.574,156.376 L360.574,158.356 L364.535,158.356 L364.535,156.376 C364.535,155.258 363.672,154.395 362.555,154.395 C361.439,154.395 360.574,155.258 360.574,156.376 Z M357.334,163.579 L357.334,156.376 C357.334,153.495 359.674,151.153 362.555,151.153 C365.436,151.153 367.777,153.495 367.777,156.376 L367.777,159.977 C367.777,160.876 367.057,161.598 366.156,161.598 L360.574,161.598 L360.574,163.579 C360.574,164.407 361.043,165.09 361.799,165.415 C362.555,165.704 363.383,165.559 363.959,164.981 C364.283,164.657 364.645,164.477 365.076,164.477 C365.545,164.477 365.939,164.657 366.264,164.981 C366.588,165.305 366.732,165.704 366.732,166.133 C366.732,166.567 366.588,166.962 366.264,167.286 C364.717,168.762 362.555,169.231 360.574,168.403 C358.559,167.575 357.334,165.739 357.334,163.579 L357.334,163.579 Z" id="Fill-22" fill="#4D4E4C"></path>
        <path d="M371.121,167.178 L371.121,152.919 C371.121,152.018 371.842,151.297 372.742,151.297 L376.342,151.297 C377.242,151.297 378.107,151.514 378.936,151.981 C379.764,152.45 379.98,153.387 379.547,154.215 C379.08,154.971 378.143,155.258 377.314,154.792 C376.99,154.61 376.666,154.54 376.342,154.54 L374.361,154.54 L374.361,167.178 C374.361,168.079 373.643,168.799 372.742,168.799 C371.842,168.799 371.121,168.079 371.121,167.178" id="Fill-23" fill="#4D4E4C"></path>
        <path d="M384.801,156.52 L384.801,163.434 C384.801,164.551 385.666,165.415 386.781,165.415 L388.762,165.415 L388.762,154.54 L386.781,154.54 C385.666,154.54 384.801,155.403 384.801,156.52 Z M381.561,163.434 L381.561,156.52 C381.561,153.639 383.9,151.297 386.781,151.297 L390.383,151.297 C391.283,151.297 392.004,152.018 392.004,152.919 L392.004,170.78 C392.004,172.94 390.779,174.778 388.799,175.606 C386.781,176.434 384.586,175.965 383.109,174.489 C382.785,174.165 382.604,173.77 382.604,173.337 C382.604,172.905 382.785,172.508 383.109,172.184 C383.434,171.86 383.793,171.68 384.225,171.68 C384.693,171.68 385.053,171.86 385.377,172.184 C385.953,172.76 386.818,172.905 387.537,172.618 C388.295,172.294 388.762,171.608 388.762,170.78 L388.762,168.655 L386.781,168.655 C383.9,168.655 381.561,166.315 381.561,163.434 L381.561,163.434 Z" id="Fill-24" fill="#4D4E4C"></path>
        <path d="M395.926,167.178 L395.926,152.919 C395.926,152.018 396.647,151.297 397.547,151.297 L401.147,151.297 C404.029,151.297 406.369,153.639 406.369,156.52 L406.369,167.178 C406.369,168.079 405.613,168.799 404.748,168.799 C403.848,168.799 403.129,168.079 403.129,167.178 L403.129,156.52 C403.129,155.403 402.264,154.54 401.147,154.54 L399.166,154.54 L399.166,167.178 C399.166,168.079 398.41,168.799 397.547,168.799 C396.647,168.799 395.926,168.079 395.926,167.178" id="Fill-25" fill="#4D4E4C"></path>
        <path d="M412.953,156.376 L412.953,158.356 L416.914,158.356 L416.914,156.376 C416.914,155.258 416.051,154.395 414.934,154.395 C413.818,154.395 412.953,155.258 412.953,156.376 Z M409.713,163.579 L409.713,156.376 C409.713,153.495 412.053,151.153 414.934,151.153 C417.814,151.153 420.156,153.495 420.156,156.376 L420.156,159.977 C420.156,160.876 419.436,161.598 418.535,161.598 L412.953,161.598 L412.953,163.579 C412.953,164.407 413.422,165.09 414.178,165.415 C414.934,165.704 415.762,165.559 416.338,164.981 C416.662,164.657 417.023,164.477 417.455,164.477 C417.924,164.477 418.318,164.657 418.643,164.981 C418.967,165.305 419.111,165.704 419.111,166.133 C419.111,166.567 418.967,166.962 418.643,167.286 C417.096,168.762 414.934,169.231 412.953,168.403 C410.938,167.575 409.713,165.739 409.713,163.579 L409.713,163.579 Z" id="Fill-26" fill="#4D4E4C"></path>
        <path d="M320.4,189.368 C321.842,189.368 322.994,188.215 322.994,186.774 L322.994,184.758 C322.994,183.317 321.842,182.165 320.4,182.165 L317.809,182.165 L317.809,189.368 L320.4,189.368 Z M323.209,192.141 L326.342,200.567 C326.738,201.467 326.234,202.475 325.334,202.799 C324.434,203.124 323.498,202.692 323.102,201.79 L319.752,192.825 L317.809,192.825 L317.809,201.178 C317.809,202.151 317.053,202.907 316.08,202.907 C315.107,202.907 314.352,202.151 314.352,201.178 L314.352,180.436 C314.352,179.465 315.107,178.708 316.08,178.708 L320.4,178.708 C323.75,178.708 326.451,181.409 326.451,184.758 L326.451,186.774 C326.451,189.114 325.189,191.131 323.209,192.141 L323.209,192.141 Z" id="Fill-27" fill="#4D4E4C"></path>
        <path d="M329.541,201.178 L329.541,179.573 C329.541,178.672 330.262,177.952 331.162,177.952 C332.063,177.952 332.781,178.672 332.781,179.573 L332.781,185.297 L334.764,185.297 C337.643,185.297 339.984,187.639 339.984,190.52 L339.984,201.178 C339.984,202.079 339.264,202.799 338.363,202.799 C337.463,202.799 336.744,202.079 336.744,201.178 L336.744,190.52 C336.744,189.403 335.879,188.54 334.764,188.54 L332.781,188.54 L332.781,201.178 C332.781,202.079 332.063,202.799 331.162,202.799 C330.262,202.799 329.541,202.079 329.541,201.178" id="Fill-28" fill="#4D4E4C"></path>
        <path d="M346.57,190.376 L346.57,197.579 C346.57,198.694 347.436,199.559 348.551,199.559 C349.668,199.559 350.531,198.694 350.531,197.579 L350.531,190.376 C350.531,189.258 349.668,188.395 348.551,188.395 C347.436,188.395 346.57,189.258 346.57,190.376 Z M344.158,183.714 C343.617,183.03 343.727,182.2 344.41,181.661 L347.65,179.141 C347.902,178.962 348.227,178.852 348.551,178.852 C348.875,178.852 349.199,178.962 349.451,179.141 L352.693,181.661 C353.305,182.2 353.484,183.03 352.945,183.714 C352.404,184.399 351.576,184.505 350.893,183.965 C350.604,183.751 350.316,183.534 350.064,183.317 C349.596,182.922 349.02,182.524 348.551,182.13 C348.084,182.524 347.508,182.922 347.039,183.317 C346.787,183.534 346.498,183.751 346.211,183.965 C345.525,184.505 344.697,184.399 344.158,183.714 Z M348.551,185.153 C351.432,185.153 353.773,187.495 353.773,190.376 L353.773,197.579 C353.773,200.458 351.432,202.799 348.551,202.799 C345.67,202.799 343.33,200.458 343.33,197.579 L343.33,190.376 C343.33,187.495 345.67,185.153 348.551,185.153 L348.551,185.153 Z" id="Fill-29" fill="#4D4E4C"></path>
        <path d="M357.404,201.178 L357.404,186.919 C357.404,186.018 358.125,185.297 359.025,185.297 L362.627,185.297 C365.506,185.297 367.848,187.639 367.848,190.52 L367.848,201.178 C367.848,202.079 367.092,202.799 366.227,202.799 C365.326,202.799 364.607,202.079 364.607,201.178 L364.607,190.52 C364.607,189.403 363.742,188.54 362.627,188.54 L360.645,188.54 L360.645,201.178 C360.645,202.079 359.889,202.799 359.025,202.799 C358.125,202.799 357.404,202.079 357.404,201.178" id="Fill-30" fill="#4D4E4C"></path>
        <path d="M374.432,190.376 L374.432,192.356 L378.393,192.356 L378.393,190.376 C378.393,189.258 377.529,188.395 376.412,188.395 C375.297,188.395 374.432,189.258 374.432,190.376 Z M371.191,197.579 L371.191,190.376 C371.191,187.495 373.531,185.153 376.412,185.153 C379.293,185.153 381.635,187.495 381.635,190.376 L381.635,193.977 C381.635,194.876 380.914,195.598 380.014,195.598 L374.432,195.598 L374.432,197.579 C374.432,198.407 374.9,199.09 375.656,199.415 C376.412,199.704 377.24,199.559 377.816,198.981 C378.141,198.657 378.502,198.477 378.934,198.477 C379.402,198.477 379.797,198.657 380.121,198.981 C380.445,199.305 380.59,199.704 380.59,200.133 C380.59,200.567 380.445,200.962 380.121,201.286 C378.572,202.762 376.412,203.231 374.432,202.403 C372.416,201.575 371.191,199.739 371.191,197.579 L371.191,197.579 Z" id="Fill-31" fill="#4D4E4C"></path>
        <path d="M384.439,191.817 C384.439,190.844 385.195,190.087 386.166,190.087 L394.811,190.087 C395.781,190.087 396.537,190.844 396.537,191.817 C396.537,192.79 395.781,193.544 394.811,193.544 L386.166,193.544 C385.195,193.544 384.439,192.79 384.439,191.817" id="Fill-32" fill="#4D4E4C"></path>
        <path d="M405.861,186.809 C405.176,189.151 404.455,191.924 403.772,194.409 L407.949,194.409 C407.266,191.924 406.545,189.151 405.861,186.809 Z M412.09,202.837 C411.117,203.087 410.217,202.547 409.965,201.647 C409.857,201.36 409.785,200.999 409.678,200.602 C409.498,199.919 409.209,198.981 408.922,197.866 L402.799,197.866 C402.475,198.981 402.223,199.919 402.043,200.602 C401.936,200.999 401.863,201.36 401.756,201.647 C401.504,202.547 400.604,203.087 399.631,202.837 C398.73,202.583 398.189,201.684 398.441,200.712 L404.203,179.825 C404.385,179.067 405.031,178.563 405.861,178.563 C406.689,178.563 407.336,179.067 407.518,179.825 L413.279,200.712 C413.531,201.684 412.99,202.583 412.09,202.837 L412.09,202.837 Z" id="Fill-33" fill="#4D4E4C"></path>
        <g id="Group-41" transform="translate(1.000000, 0.000000)">
            <mask id="mask-4" fill="white">
                <use xlink:href="#path-3"></use>
            </mask>
            <g id="Clip-35"></g>
            <path d="M414.613,198.694 L414.613,179.573 C414.613,178.672 415.369,177.952 416.232,177.952 C417.133,177.952 417.854,178.672 417.854,179.573 L417.854,198.694 C417.854,199.163 418.07,199.522 418.502,199.774 C419.258,200.243 419.547,201.178 419.078,202.008 C418.647,202.762 417.639,203.016 416.881,202.583 C415.477,201.755 414.613,200.278 414.613,198.694" id="Fill-34" fill="#4D4E4C" mask="url(#mask-4)"></path>
            <path d="M427.248,188.54 L425.268,188.54 L425.268,199.415 L427.248,199.415 C428.365,199.415 429.23,198.551 429.23,197.434 L429.23,190.52 C429.23,189.403 428.365,188.54 427.248,188.54 Z M422.027,208.381 L422.027,186.919 C422.027,186.018 422.748,185.297 423.648,185.297 L427.248,185.297 C430.131,185.297 432.471,187.639 432.471,190.52 L432.471,197.434 C432.471,200.315 430.131,202.655 427.248,202.655 L425.268,202.655 L425.268,208.381 C425.268,209.282 424.549,210.001 423.648,210.001 C422.748,210.001 422.027,209.282 422.027,208.381 L422.027,208.381 Z" id="Fill-36" fill="#4D4E4C" mask="url(#mask-4)"></path>
            <path d="M438.912,190.376 L438.912,192.356 L442.873,192.356 L442.873,190.376 C442.873,189.258 442.01,188.395 440.893,188.395 C439.777,188.395 438.912,189.258 438.912,190.376 Z M435.672,197.579 L435.672,190.376 C435.672,187.495 438.012,185.153 440.893,185.153 C443.773,185.153 446.115,187.495 446.115,190.376 L446.115,193.977 C446.115,194.876 445.395,195.598 444.494,195.598 L438.912,195.598 L438.912,197.579 C438.912,198.407 439.381,199.09 440.137,199.415 C440.893,199.704 441.721,199.559 442.297,198.981 C442.621,198.657 442.982,198.477 443.414,198.477 C443.883,198.477 444.277,198.657 444.602,198.981 C444.926,199.305 445.07,199.704 445.07,200.133 C445.07,200.567 444.926,200.962 444.602,201.286 C443.053,202.762 440.893,203.231 438.912,202.403 C436.897,201.575 435.672,199.739 435.672,197.579 L435.672,197.579 Z" id="Fill-37" fill="#4D4E4C" mask="url(#mask-4)"></path>
            <path d="M454.934,197.686 C454.897,197.075 454.645,196.641 454.213,196.352 L450.828,194.012 C449.639,193.149 448.883,191.817 448.775,190.34 C448.666,188.864 449.242,187.422 450.359,186.415 C451.477,185.442 452.916,184.973 454.393,185.227 C455.834,185.477 457.094,186.305 457.85,187.602 C458.281,188.36 458.066,189.368 457.238,189.799 C456.48,190.231 455.473,189.979 455.041,189.223 C454.789,188.755 454.393,188.503 453.889,188.43 C453.42,188.323 452.951,188.467 452.557,188.827 C452.16,189.151 451.98,189.583 452.016,190.124 C452.053,190.628 452.305,191.024 452.699,191.348 L456.049,193.688 C457.309,194.589 458.066,195.922 458.174,197.469 C458.281,199.018 457.705,200.458 456.553,201.503 C455.438,202.512 453.961,202.979 452.412,202.727 C450.863,202.475 449.604,201.61 448.848,200.278 C448.414,199.522 448.666,198.514 449.424,198.083 C450.252,197.649 451.225,197.903 451.656,198.657 C451.908,199.163 452.34,199.45 452.916,199.522 C453.457,199.63 453.924,199.485 454.357,199.09 C454.789,198.731 454.969,198.262 454.934,197.686" id="Fill-38" fill="#4D4E4C" mask="url(#mask-4)"></path>
            <path d="M3.675,2.465 L1.738,2.465 L1.738,7.57 L3.675,7.57 C4.73,7.57 5.611,6.713 5.611,5.635 L5.611,4.402 C5.611,3.346 4.73,2.465 3.675,2.465 Z M1.035,1.059 L3.675,1.059 C5.523,1.059 7.019,2.555 7.019,4.402 L7.019,5.635 C7.019,7.483 5.523,8.979 3.675,8.979 L1.738,8.979 L1.738,14.436 C1.738,14.854 1.453,15.141 1.035,15.141 C0.617,15.141 0.33,14.854 0.33,14.436 L0.33,1.762 C0.33,1.344 0.617,1.059 1.035,1.059 L1.035,1.059 Z" id="Fill-39" fill="#009A95" mask="url(#mask-4)"></path>
            <path d="M13.773,4.315 C13.31,5.899 12.628,8.473 12.035,10.652 L15.511,10.652 C14.916,8.473 14.191,5.899 13.773,4.315 Z M17.468,15.117 C17.095,15.227 16.72,15.008 16.611,14.633 C16.544,14.414 16.478,14.172 16.414,13.906 C16.259,13.445 16.105,12.828 15.906,12.059 L11.638,12.059 C11.396,12.828 11.287,13.445 11.132,13.906 C11.066,14.172 11,14.414 10.933,14.633 C10.824,15.008 10.472,15.227 10.054,15.117 C9.679,15.008 9.46,14.633 9.57,14.26 L13.089,1.498 C13.177,1.168 13.443,0.969 13.773,0.969 C14.103,0.969 14.367,1.168 14.455,1.498 L17.974,14.26 C18.086,14.633 17.886,15.008 17.468,15.117 L17.468,15.117 Z" id="Fill-40" fill="#009A95" mask="url(#mask-4)"></path>
        </g>
        <path d="M28.589,5.635 L28.589,4.402 C28.589,3.346 27.73,2.465 26.652,2.465 L24.716,2.465 L24.716,7.57 L26.652,7.57 C27.73,7.57 28.589,6.713 28.589,5.635 Z M27.929,8.738 L29.953,14.193 C30.107,14.547 29.91,14.941 29.535,15.096 C29.183,15.25 28.787,15.051 28.632,14.678 L26.521,8.979 L24.716,8.979 L24.716,14.436 C24.716,14.854 24.429,15.141 24.011,15.141 C23.638,15.141 23.308,14.854 23.308,14.436 L23.308,1.762 C23.308,1.344 23.638,1.059 24.011,1.059 L26.652,1.059 C28.501,1.059 29.998,2.555 29.998,4.402 L29.998,5.635 C29.998,7.043 29.16,8.231 27.929,8.738 L27.929,8.738 Z" id="Fill-42" fill="#009A95"></path>
        <path d="M40.753,1.762 C40.753,2.18 40.468,2.465 40.05,2.465 L37.894,2.465 L37.894,14.436 C37.894,14.854 37.607,15.141 37.189,15.141 C36.816,15.141 36.486,14.854 36.486,14.436 L36.486,2.465 L34.33,2.465 C33.955,2.465 33.624,2.18 33.624,1.762 C33.624,1.344 33.955,1.059 34.33,1.059 L40.05,1.059 C40.468,1.059 40.753,1.344 40.753,1.762" id="Fill-43" fill="#009A95"></path>
        <g id="Group-49" transform="translate(45.000000, 0.000000)" fill="#009A95">
            <path d="M0.857,1.059 L5.257,1.059 C5.675,1.059 5.96,1.344 5.96,1.762 C5.96,2.18 5.675,2.465 5.257,2.465 L1.56,2.465 L1.56,7.131 L4.818,7.131 C5.236,7.131 5.521,7.418 5.521,7.836 C5.521,8.254 5.236,8.539 4.818,8.539 L1.56,8.539 L1.56,13.645 L5.257,13.645 C5.675,13.645 5.96,13.93 5.96,14.348 C5.96,14.766 5.675,15.051 5.257,15.051 L0.857,15.051 C0.439,15.051 0.152,14.766 0.152,14.348 L0.152,1.762 C0.152,1.344 0.439,1.059 0.857,1.059" id="Fill-44"></path>
            <path d="M16.742,14.744 C16.126,13.488 15.531,12.234 14.937,11.026 C13.947,8.979 12.738,6.449 11.923,4.754 L11.923,14.436 C11.923,14.854 11.636,15.141 11.218,15.141 C10.8,15.141 10.515,14.854 10.515,14.436 L10.515,1.674 C10.515,1.344 10.734,1.059 11.064,0.992 C11.394,0.926 11.703,1.08 11.857,1.367 C12.451,2.621 13.044,3.875 13.64,5.084 C14.628,7.131 15.861,9.66 16.675,11.356 L16.675,1.674 C16.675,1.256 16.962,0.969 17.38,0.969 C17.798,0.969 18.083,1.256 18.083,1.674 L18.083,14.436 C18.083,14.766 17.865,15.051 17.535,15.117 C17.205,15.207 16.896,15.029 16.742,14.744" id="Fill-46"></path>
            <path d="M26.619,4.315 C26.156,5.899 25.474,8.473 24.88,10.652 L28.357,10.652 C27.761,8.473 27.037,5.899 26.619,4.315 Z M30.314,15.117 C29.941,15.227 29.566,15.008 29.457,14.633 C29.39,14.414 29.324,14.172 29.259,13.906 C29.105,13.445 28.951,12.828 28.752,12.059 L24.484,12.059 C24.242,12.828 24.132,13.445 23.978,13.906 C23.912,14.172 23.845,14.414 23.779,14.633 C23.67,15.008 23.318,15.227 22.9,15.117 C22.525,15.008 22.306,14.633 22.416,14.26 L25.935,1.498 C26.023,1.168 26.289,0.969 26.619,0.969 C26.949,0.969 27.212,1.168 27.3,1.498 L30.82,14.26 C30.931,14.633 30.732,15.008 30.314,15.117 L30.314,15.117 Z" id="Fill-47"></path>
            <path d="M35.154,14.436 L35.154,1.674 C35.154,1.256 35.484,0.969 35.859,0.969 C36.277,0.969 36.562,1.256 36.562,1.674 L36.562,14.436 C36.562,14.854 36.277,15.141 35.859,15.141 C35.484,15.141 35.154,14.854 35.154,14.436" id="Fill-48"></path>
        </g>
        <path d="M92.101,5.635 L92.101,4.402 C92.101,3.346 91.242,2.465 90.164,2.465 L88.228,2.465 L88.228,7.57 L90.164,7.57 C91.242,7.57 92.101,6.713 92.101,5.635 Z M91.441,8.738 L93.464,14.193 C93.619,14.547 93.421,14.941 93.046,15.096 C92.695,15.25 92.298,15.051 92.144,14.678 L90.033,8.979 L88.228,8.979 L88.228,14.436 C88.228,14.854 87.943,15.141 87.525,15.141 C87.15,15.141 86.82,14.854 86.82,14.436 L86.82,1.762 C86.82,1.344 87.15,1.059 87.525,1.059 L90.164,1.059 C92.013,1.059 93.509,2.555 93.509,4.402 L93.509,5.635 C93.509,7.043 92.673,8.231 91.441,8.738 L91.441,8.738 Z" id="Fill-50" fill="#009A95"></path>
        <path d="M98.964,1.059 L103.365,1.059 C103.783,1.059 104.068,1.344 104.068,1.762 C104.068,2.18 103.783,2.465 103.365,2.465 L99.668,2.465 L99.668,7.131 L102.923,7.131 C103.341,7.131 103.628,7.418 103.628,7.836 C103.628,8.254 103.341,8.539 102.923,8.539 L99.668,8.539 L99.668,13.645 L103.365,13.645 C103.783,13.645 104.068,13.93 104.068,14.348 C104.068,14.766 103.783,15.051 103.365,15.051 L98.964,15.051 C98.546,15.051 98.259,14.766 98.259,14.348 L98.259,1.762 C98.259,1.344 98.546,1.059 98.964,1.059" id="Fill-51" fill="#009A95"></path>
        <path d="M116.718,2.465 L114.783,2.465 L114.783,13.645 L116.718,13.645 C117.796,13.645 118.656,12.785 118.656,11.707 L118.656,4.402 C118.656,3.346 117.796,2.465 116.718,2.465 Z M120.064,4.402 L120.064,11.707 C120.064,13.555 118.568,15.051 116.718,15.051 L114.08,15.051 C113.662,15.051 113.375,14.766 113.375,14.348 L113.375,1.762 C113.375,1.344 113.662,1.059 114.08,1.059 L116.718,1.059 C118.568,1.059 120.064,2.555 120.064,4.402 L120.064,4.402 Z" id="Fill-52" fill="#009A95"></path>
        <g id="Group-60" transform="translate(123.000000, 0.000000)" fill="#009A95">
            <path d="M1.464,2.818 L1.464,2.445 L1.441,2.445 C1.068,2.445 0.759,2.137 0.759,1.762 C0.759,1.387 1.068,1.102 1.441,1.102 L2.146,1.102 C2.498,1.102 2.806,1.387 2.806,1.762 L2.806,2.818 C2.806,3.543 2.365,4.203 1.683,4.49 C1.353,4.645 0.957,4.469 0.804,4.137 C0.65,3.785 0.826,3.412 1.177,3.258 C1.375,3.192 1.464,3.039 1.464,2.818" id="Fill-53"></path>
            <path d="M10.044,4.315 C9.584,5.899 8.902,8.473 8.306,10.652 L11.783,10.652 C11.189,8.473 10.462,5.899 10.044,4.315 Z M13.742,15.117 C13.367,15.227 12.994,15.008 12.884,14.633 C12.818,14.414 12.751,14.172 12.685,13.906 C12.531,13.445 12.378,12.828 12.179,12.059 L7.912,12.059 C7.669,12.828 7.558,13.445 7.406,13.906 C7.339,14.172 7.273,14.414 7.207,14.633 C7.097,15.008 6.746,15.227 6.326,15.117 C5.953,15.008 5.732,14.633 5.843,14.26 L9.363,1.498 C9.451,1.168 9.714,0.969 10.044,0.969 C10.375,0.969 10.64,1.168 10.728,1.498 L14.248,14.26 C14.357,14.633 14.16,15.008 13.742,15.117 L13.742,15.117 Z" id="Fill-55"></path>
            <path d="M17.414,0.992 C17.787,0.902 18.183,1.125 18.271,1.498 C18.646,2.84 19.019,4.16 19.373,5.438 C19.966,7.613 20.648,10.19 21.132,11.795 C21.55,10.19 22.277,7.594 22.871,5.438 C23.222,4.16 23.597,2.84 23.97,1.498 C24.058,1.125 24.455,0.902 24.828,0.992 C25.203,1.102 25.423,1.498 25.312,1.871 L21.793,14.633 C21.726,14.92 21.462,15.141 21.132,15.141 C20.802,15.141 20.539,14.92 20.451,14.633 L16.929,1.871 C16.82,1.498 17.039,1.102 17.414,0.992" id="Fill-56"></path>
            <path d="M29.625,1.059 L34.025,1.059 C34.443,1.059 34.728,1.344 34.728,1.762 C34.728,2.18 34.443,2.465 34.025,2.465 L30.328,2.465 L30.328,7.131 L33.584,7.131 C34.001,7.131 34.289,7.418 34.289,7.836 C34.289,8.254 34.001,8.539 33.584,8.539 L30.328,8.539 L30.328,13.645 L34.025,13.645 C34.443,13.645 34.728,13.93 34.728,14.348 C34.728,14.766 34.443,15.051 34.025,15.051 L29.625,15.051 C29.207,15.051 28.919,14.766 28.919,14.348 L28.919,1.762 C28.919,1.344 29.207,1.059 29.625,1.059" id="Fill-57"></path>
            <path d="M44.628,14.744 C44.013,13.488 43.419,12.234 42.824,11.026 C41.835,8.979 40.625,6.449 39.81,4.754 L39.81,14.436 C39.81,14.854 39.525,15.141 39.107,15.141 C38.689,15.141 38.402,14.854 38.402,14.436 L38.402,1.674 C38.402,1.344 38.623,1.059 38.953,0.992 C39.283,0.926 39.589,1.08 39.744,1.367 C40.337,2.621 40.933,3.875 41.527,5.084 C42.517,7.131 43.75,9.66 44.562,11.356 L44.562,1.674 C44.562,1.256 44.849,0.969 45.267,0.969 C45.685,0.969 45.97,1.256 45.97,1.674 L45.97,14.436 C45.97,14.766 45.751,15.051 45.421,15.117 C45.091,15.207 44.783,15.029 44.628,14.744" id="Fill-58"></path>
            <path d="M50.347,14.436 L50.347,1.674 C50.347,1.256 50.677,0.969 51.052,0.969 C51.47,0.969 51.755,1.256 51.755,1.674 L51.755,14.436 C51.755,14.854 51.47,15.141 51.052,15.141 C50.677,15.141 50.347,14.854 50.347,14.436" id="Fill-59"></path>
        </g>
        <path d="M184.416,5.635 L184.416,4.402 C184.416,3.346 183.556,2.465 182.478,2.465 L180.543,2.465 L180.543,7.57 L182.478,7.57 C183.556,7.57 184.416,6.713 184.416,5.635 Z M183.755,8.738 L185.779,14.193 C185.933,14.547 185.736,14.941 185.361,15.096 C185.009,15.25 184.613,15.051 184.459,14.678 L182.347,8.979 L180.543,8.979 L180.543,14.436 C180.543,14.854 180.257,15.141 179.839,15.141 C179.464,15.141 179.134,14.854 179.134,14.436 L179.134,1.762 C179.134,1.344 179.464,1.059 179.839,1.059 L182.478,1.059 C184.328,1.059 185.824,2.555 185.824,4.402 L185.824,5.635 C185.824,7.043 184.988,8.231 183.755,8.738 L183.755,8.738 Z" id="Fill-61" fill="#009A95"></path>
    </g>
</svg>