<svg width="248" height="294" viewBox="0 0 248 294" fill="none" xmlns="http://www.w3.org/2000/svg">
<rect width="248" height="294" fill="white"/>
<circle cx="124" cy="124" r="123" fill="white" stroke="#00A8A9" stroke-width="2"/>
<path d="M62.501 288.783C62.5963 288.783 62.6808 288.82 62.7545 288.894L63.4435 289.641C63.0622 290.114 62.592 290.476 62.033 290.727C61.4783 290.978 60.811 291.104 60.031 291.104C59.3333 291.104 58.705 290.985 58.146 290.746C57.5913 290.508 57.1168 290.177 56.7225 289.752C56.3282 289.327 56.0248 288.82 55.8125 288.231C55.6045 287.642 55.5005 286.998 55.5005 286.3C55.5005 285.594 55.6132 284.948 55.8385 284.363C56.0638 283.774 56.3802 283.267 56.7875 282.842C57.1992 282.418 57.6888 282.088 58.2565 281.854C58.8242 281.616 59.4525 281.497 60.1415 281.497C60.8262 281.497 61.4328 281.61 61.9615 281.835C62.4945 282.06 62.9473 282.355 63.32 282.719L62.735 283.531C62.7003 283.583 62.6548 283.629 62.5985 283.668C62.5465 283.707 62.4728 283.726 62.3775 283.726C62.3125 283.726 62.2453 283.709 62.176 283.674C62.1067 283.635 62.0308 283.59 61.9485 283.538C61.8662 283.482 61.7708 283.421 61.6625 283.356C61.5542 283.291 61.4285 283.232 61.2855 283.18C61.1425 283.124 60.9757 283.079 60.785 283.044C60.5987 283.005 60.382 282.985 60.135 282.985C59.7147 282.985 59.329 283.061 58.978 283.213C58.6313 283.36 58.3323 283.577 58.081 283.863C57.8297 284.145 57.6347 284.491 57.496 284.903C57.3573 285.31 57.288 285.776 57.288 286.3C57.288 286.829 57.3617 287.299 57.509 287.711C57.6607 288.123 57.8643 288.469 58.12 288.751C58.3757 289.033 58.6768 289.249 59.0235 289.401C59.3702 289.548 59.7428 289.622 60.1415 289.622C60.3798 289.622 60.5943 289.609 60.785 289.583C60.98 289.557 61.1577 289.516 61.318 289.459C61.4827 289.403 61.6365 289.332 61.7795 289.245C61.9268 289.154 62.072 289.043 62.215 288.913C62.2583 288.874 62.3038 288.844 62.3515 288.822C62.3992 288.796 62.449 288.783 62.501 288.783ZM75.6847 281.601V291H73.9297V286.892H69.5162V291H67.7612V281.601H69.5162V285.644H73.9297V281.601H75.6847ZM85.8638 287.451L84.7198 284.324C84.6635 284.186 84.605 284.021 84.5443 283.83C84.4837 283.64 84.423 283.434 84.3623 283.213C84.306 283.434 84.2475 283.642 84.1868 283.837C84.1262 284.028 84.0677 284.194 84.0113 284.337L82.8738 287.451H85.8638ZM88.9513 291H87.5993C87.4477 291 87.3242 290.963 87.2288 290.889C87.1335 290.811 87.062 290.716 87.0143 290.603L86.3123 288.686H82.4188L81.7168 290.603C81.6822 290.703 81.615 290.794 81.5153 290.876C81.4157 290.959 81.2922 291 81.1448 291H79.7798L83.4783 281.601H85.2593L88.9513 291ZM95.8847 286.073C96.214 286.073 96.5 286.032 96.7427 285.949C96.9897 285.867 97.1912 285.754 97.3472 285.611C97.5075 285.464 97.6267 285.291 97.7047 285.091C97.7827 284.892 97.8217 284.673 97.8217 284.435C97.8217 283.958 97.6635 283.592 97.3472 283.336C97.0352 283.081 96.5564 282.953 95.9107 282.953H94.7927V286.073H95.8847ZM100.383 291H98.8032C98.5042 291 98.2875 290.883 98.1532 290.649L96.1772 287.639C96.1035 287.527 96.0212 287.447 95.9302 287.399C95.8435 287.351 95.7135 287.328 95.5402 287.328H94.7927V291H93.0442V281.601H95.9107C96.5477 281.601 97.0937 281.668 97.5487 281.802C98.008 281.932 98.3829 282.117 98.6732 282.355C98.9679 282.593 99.1845 282.879 99.3232 283.213C99.4619 283.542 99.5312 283.906 99.5312 284.305C99.5312 284.621 99.4835 284.92 99.3882 285.202C99.2972 285.484 99.1629 285.739 98.9852 285.969C98.8119 286.199 98.5952 286.4 98.3352 286.573C98.0795 286.747 97.787 286.883 97.4577 286.983C97.5704 287.048 97.6744 287.126 97.7697 287.217C97.865 287.304 97.9517 287.408 98.0297 287.529L100.383 291ZM112.139 286.287V290.09C111.662 290.441 111.153 290.699 110.611 290.863C110.074 291.024 109.498 291.104 108.882 291.104C108.115 291.104 107.42 290.985 106.796 290.746C106.176 290.508 105.645 290.177 105.203 289.752C104.766 289.327 104.428 288.82 104.189 288.231C103.951 287.642 103.832 286.998 103.832 286.3C103.832 285.594 103.947 284.946 104.176 284.357C104.406 283.768 104.731 283.261 105.151 282.836C105.576 282.411 106.089 282.082 106.692 281.848C107.294 281.614 107.97 281.497 108.72 281.497C109.101 281.497 109.456 281.527 109.786 281.588C110.119 281.649 110.427 281.733 110.709 281.841C110.995 281.945 111.255 282.073 111.489 282.225C111.723 282.377 111.937 282.543 112.132 282.725L111.632 283.518C111.554 283.644 111.452 283.722 111.326 283.752C111.201 283.778 111.064 283.746 110.917 283.655C110.774 283.573 110.631 283.49 110.488 283.408C110.345 283.326 110.184 283.254 110.007 283.193C109.833 283.133 109.636 283.083 109.415 283.044C109.199 283.005 108.947 282.985 108.661 282.985C108.198 282.985 107.777 283.063 107.4 283.219C107.028 283.375 106.709 283.599 106.445 283.889C106.18 284.179 105.977 284.528 105.834 284.935C105.691 285.343 105.619 285.798 105.619 286.3C105.619 286.838 105.695 287.319 105.847 287.743C106.003 288.164 106.219 288.521 106.497 288.816C106.778 289.106 107.116 289.329 107.511 289.485C107.905 289.637 108.345 289.713 108.83 289.713C109.177 289.713 109.487 289.676 109.76 289.602C110.033 289.529 110.299 289.429 110.559 289.303V287.6H109.376C109.264 287.6 109.175 287.57 109.11 287.509C109.049 287.444 109.019 287.366 109.019 287.275V286.287H112.139ZM118.698 282.992V285.598H121.987V286.944H118.698V289.602H122.871V291H116.943V281.601H122.871V282.992H118.698ZM137.733 281.601V291H136.192V284.929C136.192 284.686 136.205 284.424 136.231 284.142L133.391 289.479C133.257 289.735 133.051 289.862 132.773 289.862H132.526C132.249 289.862 132.043 289.735 131.909 289.479L129.036 284.123C129.049 284.266 129.06 284.407 129.068 284.545C129.077 284.684 129.081 284.812 129.081 284.929V291H127.541V281.601H128.86C128.938 281.601 129.006 281.603 129.062 281.607C129.118 281.612 129.168 281.623 129.211 281.64C129.259 281.657 129.3 281.685 129.335 281.724C129.374 281.763 129.411 281.815 129.445 281.88L132.26 287.1C132.334 287.239 132.401 287.382 132.461 287.529C132.526 287.676 132.589 287.828 132.65 287.984C132.711 287.824 132.773 287.67 132.838 287.522C132.903 287.371 132.973 287.226 133.046 287.087L135.822 281.88C135.857 281.815 135.893 281.763 135.932 281.724C135.971 281.685 136.013 281.657 136.056 281.64C136.104 281.623 136.156 281.612 136.212 281.607C136.268 281.603 136.335 281.601 136.413 281.601H137.733ZM144.705 282.992V285.598H147.994V286.944H144.705V289.602H148.878V291H142.95V281.601H148.878V282.992H144.705ZM161.471 281.601V291H160.574C160.435 291 160.318 290.978 160.223 290.935C160.132 290.887 160.043 290.809 159.957 290.701L155.049 284.435C155.075 284.721 155.088 284.985 155.088 285.228V291H153.548V281.601H154.464C154.538 281.601 154.601 281.605 154.653 281.614C154.709 281.618 154.757 281.631 154.796 281.653C154.839 281.67 154.88 281.698 154.919 281.737C154.958 281.772 155.001 281.82 155.049 281.88L159.976 288.172C159.963 288.021 159.952 287.871 159.944 287.724C159.935 287.577 159.931 287.44 159.931 287.314V281.601H161.471ZM173.249 283.037H170.415V291H168.667V283.037H165.833V281.601H173.249V283.037ZM176.248 290.116C176.248 289.982 176.272 289.854 176.32 289.732C176.372 289.611 176.441 289.507 176.528 289.42C176.614 289.334 176.718 289.264 176.84 289.212C176.961 289.16 177.091 289.134 177.23 289.134C177.368 289.134 177.496 289.16 177.613 289.212C177.735 289.264 177.839 289.334 177.925 289.42C178.016 289.507 178.088 289.611 178.14 289.732C178.192 289.854 178.218 289.982 178.218 290.116C178.218 290.255 178.192 290.385 178.14 290.506C178.088 290.623 178.016 290.725 177.925 290.811C177.839 290.898 177.735 290.965 177.613 291.013C177.496 291.065 177.368 291.091 177.23 291.091C177.091 291.091 176.961 291.065 176.84 291.013C176.718 290.965 176.614 290.898 176.528 290.811C176.441 290.725 176.372 290.623 176.32 290.506C176.272 290.385 176.248 290.255 176.248 290.116ZM182.453 290.116C182.453 289.982 182.477 289.854 182.525 289.732C182.577 289.611 182.646 289.507 182.733 289.42C182.819 289.334 182.923 289.264 183.045 289.212C183.166 289.16 183.296 289.134 183.435 289.134C183.573 289.134 183.701 289.16 183.818 289.212C183.94 289.264 184.044 289.334 184.13 289.42C184.221 289.507 184.293 289.611 184.345 289.732C184.397 289.854 184.423 289.982 184.423 290.116C184.423 290.255 184.397 290.385 184.345 290.506C184.293 290.623 184.221 290.725 184.13 290.811C184.044 290.898 183.94 290.965 183.818 291.013C183.701 291.065 183.573 291.091 183.435 291.091C183.296 291.091 183.166 291.065 183.045 291.013C182.923 290.965 182.819 290.898 182.733 290.811C182.646 290.725 182.577 290.623 182.525 290.506C182.477 290.385 182.453 290.255 182.453 290.116ZM188.658 290.116C188.658 289.982 188.682 289.854 188.73 289.732C188.782 289.611 188.851 289.507 188.938 289.42C189.024 289.334 189.128 289.264 189.25 289.212C189.371 289.16 189.501 289.134 189.64 289.134C189.778 289.134 189.906 289.16 190.023 289.212C190.145 289.264 190.249 289.334 190.335 289.42C190.426 289.507 190.498 289.611 190.55 289.732C190.602 289.854 190.628 289.982 190.628 290.116C190.628 290.255 190.602 290.385 190.55 290.506C190.498 290.623 190.426 290.725 190.335 290.811C190.249 290.898 190.145 290.965 190.023 291.013C189.906 291.065 189.778 291.091 189.64 291.091C189.501 291.091 189.371 291.065 189.25 291.013C189.128 290.965 189.024 290.898 188.938 290.811C188.851 290.725 188.782 290.623 188.73 290.506C188.682 290.385 188.658 290.255 188.658 290.116Z" fill="#363636"/>
<path fill-rule="evenodd" clip-rule="evenodd" d="M117.275 147.751H120.744C123.432 147.751 125.6 149.678 125.6 152.067V153.506C125.6 155.895 123.432 157.822 120.744 157.822H118.663V163.782C118.663 164.476 118.055 165.015 117.275 165.015C116.495 165.015 115.888 164.476 115.888 163.782V148.985C115.888 148.29 116.495 147.751 117.275 147.751ZM120.744 150.217H118.663V155.356H120.744C121.9 155.356 122.825 154.534 122.825 153.506V152.067C122.825 151.039 121.9 150.217 120.744 150.217Z" fill="#009A95"/>
<path fill-rule="evenodd" clip-rule="evenodd" d="M134.561 157.333L137.075 163.345C137.393 163.988 136.989 164.707 136.266 164.938C135.544 165.169 134.792 164.862 134.473 164.219L131.786 157.822H130.225V163.782C130.225 164.476 129.618 165.015 128.838 165.015C128.057 165.015 127.45 164.476 127.45 163.782V148.984C127.45 148.29 128.057 147.751 128.838 147.751H132.307C134.994 147.751 137.162 149.678 137.162 152.067V153.505C137.162 155.176 136.15 156.615 134.561 157.333ZM132.307 155.356C133.462 155.356 134.387 154.534 134.387 153.505V152.067C134.387 151.039 133.462 150.217 132.307 150.217H130.225V155.356H132.307Z" fill="#009A95"/>
<path fill-rule="evenodd" clip-rule="evenodd" d="M139.128 160.699V151.964C139.128 149.575 141.295 147.648 143.984 147.648C146.672 147.648 148.84 149.575 148.84 151.964V160.699C148.84 163.089 146.672 165.015 143.984 165.015C141.295 165.015 139.128 163.089 139.128 160.699ZM141.903 151.964V160.699C141.903 161.727 142.828 162.549 143.984 162.549C145.14 162.549 146.065 161.727 146.065 160.699V151.964C146.065 150.937 145.14 150.114 143.984 150.114C142.828 150.114 141.903 150.937 141.903 151.964Z" fill="#009A95"/>
<path fill-rule="evenodd" clip-rule="evenodd" d="M118.33 79.0349H146.151C147.445 79.0349 148.451 79.9297 148.451 81.0792V85.3378C148.451 86.4877 147.445 87.3821 146.151 87.3821C144.857 87.3821 143.851 86.4877 143.851 85.3378V83.1231H120.63V85.3378C120.63 86.4877 119.624 87.3821 118.33 87.3821C117.037 87.3821 116.03 86.4877 116.03 85.3378V81.0792C116.03 79.9297 117.037 79.0349 118.33 79.0349Z" fill="#009A95"/>
<path fill-rule="evenodd" clip-rule="evenodd" d="M146.151 139.205H118.33C117.037 139.205 116.03 138.31 116.03 137.161V132.902C116.03 131.752 117.037 130.858 118.33 130.858C119.625 130.858 120.63 131.752 120.63 132.902V135.117H143.851V132.902C143.851 131.752 144.858 130.858 146.151 130.858C147.444 130.858 148.451 131.752 148.451 132.902V137.161C148.451 138.31 147.444 139.205 146.151 139.205Z" fill="#009A95"/>
<mask id="mask0_553_315" style="mask-type:alpha" maskUnits="userSpaceOnUse" x="14" y="95" width="127" height="29">
<path d="M14 95.3306H140.755V123.949H14V95.3306Z" fill="white"/>
</mask>
<g mask="url(#mask0_553_315)">
<path fill-rule="evenodd" clip-rule="evenodd" d="M140.755 97.3744C140.755 98.5248 139.748 99.4187 138.455 99.4187H134.526V121.904C134.526 123.054 133.52 123.949 132.226 123.949C130.933 123.949 129.926 123.054 129.926 121.904V99.4187H125.998C124.704 99.4187 123.698 98.5248 123.698 97.3744C123.698 96.2254 124.704 95.3306 125.998 95.3306H138.455C139.748 95.3306 140.755 96.2254 140.755 97.3744Z" fill="#009A95"/>
<path fill-rule="evenodd" clip-rule="evenodd" d="M31.0278 97.3744C31.0278 98.5248 30.021 99.4187 28.7277 99.4187H24.799V121.904C24.799 123.054 23.7932 123.949 22.4985 123.949C21.2052 123.949 20.199 123.054 20.199 121.904V99.4187H16.2702C14.977 99.4187 13.9707 98.5248 13.9707 97.3744C13.9707 96.2254 14.977 95.3306 16.2702 95.3306H28.7277C30.021 95.3306 31.0278 96.2254 31.0278 97.3744Z" fill="#6F8F9D"/>
</g>
<path fill-rule="evenodd" clip-rule="evenodd" d="M45.8821 111.216L50.0504 121.181C50.578 122.246 49.9067 123.438 48.7092 123.821C47.5113 124.204 46.2654 123.694 45.7379 122.629L41.2825 112.024H38.695V121.905C38.695 123.055 37.6888 123.949 36.395 123.949C35.1012 123.949 34.0955 123.055 34.0955 121.905V97.3744C34.0955 96.225 35.1012 95.3306 36.395 95.3306H42.1451C46.6009 95.3306 50.1947 98.5244 50.1947 102.485V104.87C50.1947 107.639 48.5171 110.023 45.8821 111.216ZM42.1451 107.936C44.0613 107.936 45.5941 106.573 45.5941 104.87V102.485C45.5941 100.781 44.0613 99.4187 42.1451 99.4187H38.695V107.936H42.1451Z" fill="#6F8F9D"/>
<path fill-rule="evenodd" clip-rule="evenodd" d="M70.1753 123.864C68.8815 124.162 67.6836 123.523 67.3482 122.458C67.2044 122.118 67.1086 121.691 66.9653 121.223C66.7248 120.414 66.3419 119.306 65.9586 117.987H57.8136C57.3819 119.306 57.0465 120.414 56.8069 121.223C56.6632 121.691 56.5673 122.118 56.424 122.458C56.0886 123.523 54.8907 124.162 53.5969 123.864C52.3995 123.566 51.6807 122.501 52.0157 121.351L59.6819 96.6509C59.922 95.7569 60.784 95.1602 61.8856 95.1602C62.9882 95.1602 63.8502 95.7569 64.0898 96.6509L71.7561 121.351C72.0915 122.501 71.3728 123.566 70.1753 123.864ZM61.8856 104.912C60.9757 107.681 60.0169 110.96 59.1069 113.898H64.6653C63.7544 110.96 62.7961 107.681 61.8856 104.912Z" fill="#6F8F9D"/>
<path fill-rule="evenodd" clip-rule="evenodd" d="M88.3827 122.799C87.4248 120.968 86.4186 119.137 85.3644 117.22C83.5915 113.983 81.2915 109.853 79.3269 106.148V121.904C79.3269 123.054 78.3211 123.948 77.0268 123.948C75.7335 123.948 74.7268 123.054 74.7268 121.904V97.2045C74.7268 96.2245 75.3981 95.4158 76.5002 95.2028C77.6023 94.9903 78.5602 95.4583 79.0877 96.3101C80.0461 98.1415 81.0514 99.9724 82.1056 101.889C83.8785 105.126 86.0827 109.257 88.1436 112.961V97.2045C88.1436 96.0546 89.1489 95.1602 90.4431 95.1602C91.7364 95.1602 92.7432 96.0546 92.7432 97.2045V121.904C92.7432 122.884 91.976 123.693 90.9697 123.906C89.8677 124.119 88.8135 123.651 88.3827 122.799Z" fill="#6F8F9D"/>
<path fill-rule="evenodd" clip-rule="evenodd" d="M107.742 116.837C107.838 115.857 107.502 115.006 106.735 114.282L99.0692 107.297C97.3921 105.807 96.6254 103.805 96.817 101.761C97.0087 99.7173 98.1108 97.8434 99.9796 96.6083C101.848 95.3732 104.196 94.9047 106.448 95.2884C108.7 95.7565 110.665 96.9064 111.814 98.7373C112.437 99.7173 112.054 100.909 110.952 101.548C109.849 102.102 108.459 101.761 107.838 100.782C107.31 100.015 106.543 99.5044 105.537 99.291C104.532 99.1206 103.572 99.3336 102.758 99.8872C101.944 100.441 101.465 101.164 101.417 102.102C101.321 102.996 101.656 103.805 102.375 104.444L109.993 111.429C111.67 112.962 112.532 115.048 112.341 117.135C112.149 119.307 110.952 121.138 109.083 122.458C107.167 123.779 104.77 124.204 102.423 123.821C100.075 123.353 98.0624 122.118 96.9124 120.286C96.1937 119.307 96.6254 118.03 97.727 117.476C98.8291 116.922 100.171 117.263 100.89 118.242C101.417 119.052 102.232 119.605 103.333 119.818C104.435 119.988 105.442 119.775 106.304 119.179C107.214 118.625 107.598 117.816 107.742 116.837Z" fill="#6F8F9D"/>
<path fill-rule="evenodd" clip-rule="evenodd" d="M116.03 121.905V97.2041C116.03 96.0546 117.037 95.1602 118.33 95.1602C119.624 95.1602 120.63 96.0546 120.63 97.2041V121.905C120.63 123.054 119.624 123.948 118.33 123.948C117.037 123.948 116.03 123.054 116.03 121.905Z" fill="#6F8F9D"/>
<path fill-rule="evenodd" clip-rule="evenodd" d="M143.822 121.905V97.2041C143.822 96.0546 144.829 95.1602 146.122 95.1602C147.416 95.1602 148.421 96.0546 148.421 97.2041V121.905C148.421 123.054 147.416 123.948 146.122 123.948C144.829 123.948 143.822 123.054 143.822 121.905Z" fill="#6F8F9D"/>
<path fill-rule="evenodd" clip-rule="evenodd" d="M152.83 116.794V102.315C152.83 98.354 156.424 95.1602 160.88 95.1602C165.336 95.1602 168.929 98.354 168.929 102.315V116.794C168.929 120.754 165.336 123.949 160.88 123.949C156.424 123.949 152.83 120.754 152.83 116.794ZM157.43 102.315V116.794C157.43 118.498 158.963 119.861 160.88 119.861C162.796 119.861 164.329 118.498 164.329 116.794V102.315C164.329 100.611 162.796 99.2488 160.88 99.2488C158.963 99.2488 157.43 100.611 157.43 102.315Z" fill="#6F8F9D"/>
<path fill-rule="evenodd" clip-rule="evenodd" d="M186.993 122.799C186.034 120.968 185.028 119.137 183.975 117.22C182.202 113.983 179.902 109.853 177.937 106.148V121.904C177.937 123.054 176.931 123.948 175.637 123.948C174.344 123.948 173.338 123.054 173.338 121.904V97.2045C173.338 96.2245 174.008 95.4158 175.11 95.2028C176.212 94.9903 177.171 95.4583 177.698 96.3101C178.656 98.1415 179.662 99.9724 180.716 101.889C182.489 105.126 184.693 109.257 186.754 112.961V97.2045C186.754 96.0546 187.759 95.1602 189.053 95.1602C190.347 95.1602 191.354 96.0546 191.354 97.2045V121.904C191.354 122.884 190.586 123.693 189.58 123.906C188.478 124.119 187.424 123.651 186.993 122.799Z" fill="#6F8F9D"/>
<path fill-rule="evenodd" clip-rule="evenodd" d="M206.543 116.962C206.638 115.978 206.301 115.12 205.531 114.392L197.819 107.368C196.133 105.868 195.362 103.856 195.554 101.8C195.747 99.7433 196.856 97.8587 198.735 96.6164C200.615 95.3744 202.976 94.9034 205.241 95.2893C207.506 95.7599 209.482 96.9166 210.638 98.7582C211.264 99.7433 210.879 100.943 209.771 101.585C208.662 102.142 207.266 101.8 206.638 100.814C206.108 100.043 205.337 99.5291 204.325 99.3148C203.313 99.1436 202.35 99.3578 201.53 99.9145C200.71 100.472 200.228 101.199 200.18 102.142C200.085 103.041 200.422 103.856 201.145 104.498L208.807 111.523C210.493 113.064 211.361 115.163 211.168 117.262C210.976 119.447 209.771 121.288 207.891 122.616C205.964 123.944 203.554 124.372 201.193 123.986C198.832 123.516 196.807 122.273 195.65 120.432C194.928 119.447 195.363 118.161 196.47 117.605C197.579 117.047 198.928 117.391 199.651 118.376C200.18 119.189 200.999 119.746 202.108 119.96C203.216 120.132 204.23 119.918 205.096 119.318C206.012 118.761 206.397 117.947 206.543 116.962Z" fill="#6F8F9D"/>
<path fill-rule="evenodd" clip-rule="evenodd" d="M167.429 143.668C167.101 144.666 166.756 145.847 166.428 146.905H168.43C168.102 145.847 167.757 144.666 167.429 143.668ZM170.414 150.494C169.948 150.601 169.516 150.371 169.396 149.988C169.344 149.865 169.31 149.712 169.258 149.542C169.172 149.252 169.033 148.852 168.896 148.377H165.962C165.807 148.852 165.686 149.252 165.6 149.542C165.548 149.712 165.514 149.865 165.462 149.988C165.341 150.371 164.91 150.601 164.444 150.494C164.013 150.386 163.753 150.003 163.874 149.589L166.635 140.694C166.722 140.371 167.032 140.156 167.429 140.156C167.826 140.156 168.136 140.371 168.223 140.694L170.984 149.589C171.105 150.003 170.846 150.386 170.414 150.494Z" fill="#4D4E4C"/>
<path fill-rule="evenodd" clip-rule="evenodd" d="M172.016 148.193V143.653C172.016 143.271 172.361 142.963 172.792 142.963C173.224 142.963 173.569 143.271 173.569 143.653V148.193C173.569 148.669 173.983 149.037 174.518 149.037H175.467V143.653C175.467 143.271 175.812 142.963 176.243 142.963C176.675 142.963 177.02 143.271 177.02 143.653V149.727C177.02 150.11 176.675 150.417 176.243 150.417H174.518C173.137 150.417 172.016 149.42 172.016 148.193Z" fill="#4D4E4C"/>
<path fill-rule="evenodd" clip-rule="evenodd" d="M178.917 142.994C179.331 142.886 179.762 143.086 179.883 143.453C180.021 143.868 180.159 144.297 180.314 144.743C180.574 145.494 180.884 146.46 181.212 147.38C181.539 146.46 181.85 145.494 182.109 144.743C182.265 144.297 182.402 143.868 182.541 143.453C182.661 143.086 183.093 142.886 183.507 142.994C183.921 143.101 184.145 143.485 184.024 143.853L181.954 149.988C181.868 150.279 181.557 150.478 181.212 150.478C180.866 150.478 180.59 150.279 180.47 149.988L178.399 143.853C178.278 143.485 178.502 143.101 178.917 142.994Z" fill="#4D4E4C"/>
<path fill-rule="evenodd" clip-rule="evenodd" d="M186.748 145.187V146.031H188.646V145.187C188.646 144.711 188.232 144.344 187.697 144.344C187.162 144.344 186.748 144.711 186.748 145.187ZM185.195 148.255V145.187C185.195 143.96 186.317 142.963 187.697 142.963C189.078 142.963 190.199 143.96 190.199 145.187V146.721C190.199 147.104 189.854 147.411 189.423 147.411H186.748V148.255C186.748 148.608 186.973 148.899 187.335 149.037C187.697 149.16 188.094 149.098 188.37 148.852C188.525 148.714 188.699 148.637 188.905 148.637C189.13 148.637 189.319 148.714 189.474 148.852C189.63 148.99 189.699 149.16 189.699 149.343C189.699 149.528 189.63 149.696 189.474 149.834C188.733 150.462 187.697 150.662 186.748 150.31C185.782 149.957 185.195 149.175 185.195 148.255Z" fill="#4D4E4C"/>
<path fill-rule="evenodd" clip-rule="evenodd" d="M191.802 149.788V143.715C191.802 143.331 192.147 143.024 192.578 143.024H194.304C194.735 143.024 195.149 143.117 195.546 143.315C195.943 143.515 196.047 143.914 195.839 144.267C195.615 144.589 195.166 144.711 194.769 144.513C194.614 144.435 194.459 144.405 194.304 144.405H193.354V149.788C193.354 150.172 193.01 150.478 192.578 150.478C192.147 150.478 191.802 150.172 191.802 149.788Z" fill="#4D4E4C"/>
<path fill-rule="evenodd" clip-rule="evenodd" d="M198.357 145.249V148.193C198.357 148.669 198.771 149.037 199.305 149.037H200.255V144.405H199.305C198.771 144.405 198.357 144.773 198.357 145.249ZM196.804 148.193V145.249C196.804 144.022 197.925 143.024 199.305 143.024H201.031C201.463 143.024 201.808 143.331 201.808 143.715V151.322C201.808 152.242 201.221 153.025 200.272 153.377C199.305 153.73 198.254 153.53 197.546 152.902C197.391 152.764 197.304 152.595 197.304 152.411C197.304 152.227 197.391 152.058 197.546 151.92C197.702 151.782 197.874 151.705 198.081 151.705C198.305 151.705 198.477 151.782 198.633 151.92C198.909 152.165 199.323 152.227 199.668 152.105C200.031 151.967 200.255 151.675 200.255 151.322V150.417H199.305C197.925 150.417 196.804 149.42 196.804 148.193Z" fill="#4D4E4C"/>
<path fill-rule="evenodd" clip-rule="evenodd" d="M203.688 149.788V143.715C203.688 143.331 204.033 143.024 204.464 143.024H206.189C207.57 143.024 208.691 144.022 208.691 145.249V149.788C208.691 150.172 208.329 150.478 207.915 150.478C207.483 150.478 207.139 150.172 207.139 149.788V145.249C207.139 144.773 206.724 144.405 206.189 144.405H205.24V149.788C205.24 150.172 204.878 150.478 204.464 150.478C204.033 150.478 203.688 150.172 203.688 149.788Z" fill="#4D4E4C"/>
<path fill-rule="evenodd" clip-rule="evenodd" d="M211.846 145.187V146.031H213.744V145.187C213.744 144.711 213.331 144.344 212.796 144.344C212.261 144.344 211.846 144.711 211.846 145.187ZM210.294 148.255V145.187C210.294 143.96 211.415 142.963 212.796 142.963C214.176 142.963 215.298 143.96 215.298 145.187V146.721C215.298 147.104 214.953 147.411 214.521 147.411H211.846V148.255C211.846 148.608 212.071 148.899 212.433 149.037C212.796 149.16 213.192 149.098 213.468 148.852C213.624 148.714 213.797 148.637 214.004 148.637C214.228 148.637 214.417 148.714 214.573 148.852C214.728 148.99 214.797 149.16 214.797 149.343C214.797 149.528 214.728 149.696 214.573 149.834C213.832 150.462 212.796 150.662 211.846 150.31C210.881 149.957 210.294 149.175 210.294 148.255Z" fill="#4D4E4C"/>
<path fill-rule="evenodd" clip-rule="evenodd" d="M167.498 159.238C168.189 159.238 168.741 158.747 168.741 158.134V157.275C168.741 156.661 168.189 156.171 167.498 156.171H166.256V159.238H167.498ZM168.844 160.419L170.345 164.008C170.535 164.391 170.293 164.821 169.862 164.959C169.431 165.097 168.982 164.913 168.792 164.529L167.187 160.711H166.256V164.268C166.256 164.683 165.894 165.005 165.428 165.005C164.961 165.005 164.6 164.683 164.6 164.268V155.434C164.6 155.021 164.961 154.698 165.428 154.698H167.498C169.103 154.698 170.397 155.849 170.397 157.275V158.134C170.397 159.13 169.792 159.989 168.844 160.419Z" fill="#4D4E4C"/>
<path fill-rule="evenodd" clip-rule="evenodd" d="M171.878 164.268V155.067C171.878 154.683 172.223 154.376 172.655 154.376C173.086 154.376 173.43 154.683 173.43 155.067V157.505H174.381C175.76 157.505 176.882 158.502 176.882 159.729V164.268C176.882 164.652 176.537 164.959 176.105 164.959C175.674 164.959 175.329 164.652 175.329 164.268V159.729C175.329 159.253 174.915 158.886 174.381 158.886H173.43V164.268C173.43 164.652 173.086 164.959 172.655 164.959C172.223 164.959 171.878 164.652 171.878 164.268Z" fill="#4D4E4C"/>
<path fill-rule="evenodd" clip-rule="evenodd" d="M180.038 159.668V162.735C180.038 163.21 180.453 163.579 180.987 163.579C181.522 163.579 181.936 163.21 181.936 162.735V159.668C181.936 159.192 181.522 158.824 180.987 158.824C180.453 158.824 180.038 159.192 180.038 159.668ZM178.882 156.83C178.623 156.539 178.675 156.186 179.003 155.956L180.555 154.883C180.676 154.807 180.832 154.76 180.987 154.76C181.142 154.76 181.297 154.807 181.418 154.883L182.972 155.956C183.265 156.186 183.351 156.539 183.092 156.83C182.833 157.122 182.436 157.167 182.109 156.937C181.971 156.846 181.833 156.754 181.712 156.661C181.488 156.493 181.212 156.324 180.987 156.156C180.763 156.324 180.487 156.493 180.262 156.661C180.142 156.754 180.003 156.846 179.866 156.937C179.537 157.167 179.14 157.122 178.882 156.83ZM180.987 157.443C182.367 157.443 183.489 158.441 183.489 159.668V162.735C183.489 163.962 182.367 164.959 180.987 164.959C179.606 164.959 178.485 163.962 178.485 162.735V159.668C178.485 158.441 179.606 157.443 180.987 157.443Z" fill="#4D4E4C"/>
<path fill-rule="evenodd" clip-rule="evenodd" d="M185.229 164.268V158.195C185.229 157.812 185.574 157.505 186.006 157.505H187.732C189.111 157.505 190.233 158.502 190.233 159.729V164.268C190.233 164.652 189.871 164.959 189.457 164.959C189.025 164.959 188.68 164.652 188.68 164.268V159.729C188.68 159.253 188.266 158.886 187.732 158.886H186.782V164.268C186.782 164.652 186.42 164.959 186.006 164.959C185.574 164.959 185.229 164.652 185.229 164.268Z" fill="#4D4E4C"/>
<path fill-rule="evenodd" clip-rule="evenodd" d="M193.388 159.668V160.511H195.286V159.668C195.286 159.192 194.872 158.824 194.337 158.824C193.803 158.824 193.388 159.192 193.388 159.668ZM191.835 162.735V159.668C191.835 158.441 192.957 157.443 194.337 157.443C195.718 157.443 196.84 158.441 196.84 159.668V161.201C196.84 161.584 196.494 161.892 196.063 161.892H193.388V162.735C193.388 163.088 193.613 163.379 193.975 163.517C194.337 163.641 194.734 163.579 195.01 163.333C195.166 163.195 195.339 163.118 195.546 163.118C195.77 163.118 195.959 163.195 196.114 163.333C196.27 163.471 196.339 163.641 196.339 163.823C196.339 164.008 196.27 164.176 196.114 164.314C195.372 164.943 194.337 165.143 193.388 164.79C192.422 164.437 191.835 163.655 191.835 162.735Z" fill="#4D4E4C"/>
<path fill-rule="evenodd" clip-rule="evenodd" d="M198.183 160.281C198.183 159.867 198.546 159.545 199.011 159.545H203.153C203.618 159.545 203.98 159.867 203.98 160.281C203.98 160.696 203.618 161.017 203.153 161.017H199.011C198.546 161.017 198.183 160.696 198.183 160.281Z" fill="#4D4E4C"/>
<path fill-rule="evenodd" clip-rule="evenodd" d="M208.448 158.149C208.12 159.146 207.774 160.327 207.447 161.385H209.449C209.121 160.327 208.776 159.146 208.448 158.149ZM211.433 164.975C210.967 165.081 210.535 164.851 210.415 164.468C210.363 164.346 210.328 164.192 210.277 164.023C210.191 163.732 210.052 163.333 209.915 162.858H206.981C206.826 163.333 206.705 163.732 206.619 164.023C206.567 164.192 206.532 164.346 206.481 164.468C206.36 164.851 205.929 165.081 205.463 164.975C205.031 164.867 204.772 164.484 204.893 164.07L207.654 155.174C207.741 154.851 208.05 154.637 208.448 154.637C208.845 154.637 209.155 154.851 209.242 155.174L212.003 164.07C212.123 164.484 211.864 164.867 211.433 164.975Z" fill="#4D4E4C"/>
<mask id="mask1_553_315" style="mask-type:alpha" maskUnits="userSpaceOnUse" x="14" y="79" width="220" height="89">
<path d="M14.6084 79H234V168H14.6084V79Z" fill="white"/>
</mask>
<g mask="url(#mask1_553_315)">
<path fill-rule="evenodd" clip-rule="evenodd" d="M213.121 163.21V155.067C213.121 154.683 213.483 154.376 213.897 154.376C214.329 154.376 214.674 154.683 214.674 155.067V163.21C214.674 163.41 214.778 163.563 214.985 163.67C215.347 163.87 215.485 164.268 215.261 164.622C215.054 164.943 214.571 165.051 214.208 164.867C213.535 164.514 213.121 163.885 213.121 163.21Z" fill="#4D4E4C"/>
<path fill-rule="evenodd" clip-rule="evenodd" d="M219.176 158.886H218.227V163.517H219.176C219.711 163.517 220.125 163.149 220.125 162.674V159.729C220.125 159.253 219.711 158.886 219.176 158.886ZM216.674 167.336V158.195C216.674 157.812 217.019 157.505 217.451 157.505H219.176C220.557 157.505 221.678 158.502 221.678 159.729V162.674C221.678 163.901 220.557 164.897 219.176 164.897H218.227V167.336C218.227 167.72 217.882 168.026 217.451 168.026C217.019 168.026 216.674 167.72 216.674 167.336Z" fill="#4D4E4C"/>
<path fill-rule="evenodd" clip-rule="evenodd" d="M224.764 159.668V160.511H226.662V159.668C226.662 159.192 226.249 158.824 225.714 158.824C225.179 158.824 224.764 159.192 224.764 159.668ZM223.212 162.735V159.668C223.212 158.441 224.333 157.443 225.714 157.443C227.094 157.443 228.216 158.441 228.216 159.668V161.201C228.216 161.584 227.871 161.892 227.439 161.892H224.764V162.735C224.764 163.088 224.989 163.379 225.351 163.517C225.714 163.641 226.11 163.579 226.386 163.333C226.542 163.195 226.715 163.118 226.922 163.118C227.146 163.118 227.335 163.195 227.491 163.333C227.646 163.471 227.715 163.641 227.715 163.823C227.715 164.008 227.646 164.176 227.491 164.314C226.749 164.943 225.714 165.143 224.764 164.79C223.799 164.437 223.212 163.655 223.212 162.735Z" fill="#4D4E4C"/>
<path fill-rule="evenodd" clip-rule="evenodd" d="M232.442 162.781C232.424 162.521 232.303 162.336 232.096 162.213L230.474 161.216C229.904 160.849 229.542 160.281 229.49 159.652C229.438 159.024 229.714 158.41 230.249 157.981C230.785 157.566 231.475 157.367 232.182 157.475C232.873 157.581 233.477 157.934 233.839 158.486C234.045 158.809 233.942 159.238 233.546 159.422C233.182 159.606 232.7 159.499 232.493 159.177C232.372 158.977 232.182 158.87 231.941 158.839C231.716 158.793 231.491 158.855 231.303 159.008C231.112 159.146 231.026 159.33 231.043 159.56C231.061 159.775 231.182 159.944 231.371 160.082L232.976 161.078C233.58 161.462 233.942 162.03 233.994 162.689C234.045 163.348 233.769 163.962 233.217 164.407C232.683 164.836 231.975 165.035 231.233 164.928C230.491 164.821 229.888 164.452 229.525 163.885C229.317 163.563 229.438 163.134 229.801 162.95C230.198 162.765 230.664 162.873 230.871 163.195C230.992 163.41 231.199 163.532 231.475 163.563C231.734 163.609 231.958 163.547 232.165 163.379C232.372 163.226 232.458 163.026 232.442 162.781Z" fill="#4D4E4C"/>
<path fill-rule="evenodd" clip-rule="evenodd" d="M16.2112 79.6382H15.2831V81.8124H16.2112C16.7168 81.8124 17.1389 81.4474 17.1389 80.9883V80.4632C17.1389 80.0134 16.7168 79.6382 16.2112 79.6382ZM14.9462 79.0394H16.2112C17.0967 79.0394 17.8136 79.6765 17.8136 80.4632V80.9883C17.8136 81.7754 17.0967 82.4125 16.2112 82.4125H15.2831V84.7366C15.2831 84.9146 15.1465 85.0369 14.9462 85.0369C14.7459 85.0369 14.6084 84.9146 14.6084 84.7366V79.3388C14.6084 79.1608 14.7459 79.0394 14.9462 79.0394Z" fill="#009A95"/>
<path fill-rule="evenodd" clip-rule="evenodd" d="M21.0503 80.425C20.8284 81.0997 20.5016 82.1959 20.2175 83.124H21.8831C21.598 82.1959 21.2506 81.0997 21.0503 80.425ZM22.8208 85.0256C22.6421 85.0724 22.4624 84.9792 22.4102 84.8194C22.3781 84.7262 22.3465 84.6231 22.3158 84.5098C22.2415 84.3135 22.1677 84.0507 22.0724 83.7232H20.0273C19.9113 84.0507 19.8591 84.3135 19.7848 84.5098C19.7532 84.6231 19.7216 84.7262 19.6894 84.8194C19.6372 84.9792 19.4686 85.0724 19.2683 85.0256C19.0886 84.9792 18.9836 84.8194 19.0363 84.6606L20.7225 79.2253C20.7647 79.0848 20.8922 79 21.0503 79C21.2084 79 21.3349 79.0848 21.3771 79.2253L23.0633 84.6606C23.117 84.8194 23.0211 84.9792 22.8208 85.0256Z" fill="#009A95"/>
</g>
<path fill-rule="evenodd" clip-rule="evenodd" d="M27.6704 80.9872V80.4621C27.6704 80.0124 27.2588 79.6371 26.7422 79.6371H25.8146V81.8113H26.7422C27.2588 81.8113 27.6704 81.4463 27.6704 80.9872ZM27.3541 82.3088L28.324 84.6321C28.3978 84.7828 28.3034 84.9506 28.1237 85.0166C27.955 85.0822 27.7653 84.9975 27.691 84.8386L26.6795 82.4114H25.8146V84.7355C25.8146 84.9136 25.677 85.0358 25.4767 85.0358C25.298 85.0358 25.1399 84.9136 25.1399 84.7355V79.3377C25.1399 79.1597 25.298 79.0383 25.4767 79.0383H26.7422C27.6282 79.0383 28.3455 79.6755 28.3455 80.4621V80.9872C28.3455 81.5869 27.944 82.0929 27.3541 82.3088Z" fill="#009A95"/>
<path fill-rule="evenodd" clip-rule="evenodd" d="M33.4988 79.3377C33.4988 79.5158 33.3622 79.6371 33.1619 79.6371H32.1288V84.7355C32.1288 84.9136 31.9913 85.0358 31.791 85.0358C31.6123 85.0358 31.4542 84.9136 31.4542 84.7355V79.6371H30.4211C30.2414 79.6371 30.0828 79.5158 30.0828 79.3377C30.0828 79.1597 30.2414 79.0383 30.4211 79.0383H33.1619C33.3622 79.0383 33.4988 79.1597 33.4988 79.3377Z" fill="#009A95"/>
<path fill-rule="evenodd" clip-rule="evenodd" d="M35.9445 79.0394H38.0529C38.2532 79.0394 38.3897 79.1608 38.3897 79.3388C38.3897 79.5168 38.2532 79.6382 38.0529 79.6382H36.2814V81.6254H37.8425C38.0428 81.6254 38.1794 81.7477 38.1794 81.9257C38.1794 82.1037 38.0428 82.2251 37.8425 82.2251H36.2814V84.3997H38.0529C38.2532 84.3997 38.3897 84.5211 38.3897 84.6991C38.3897 84.8772 38.2532 84.9985 38.0529 84.9985H35.9445C35.7442 84.9985 35.6067 84.8772 35.6067 84.6991V79.3388C35.6067 79.1608 35.7442 79.0394 35.9445 79.0394Z" fill="#009A95"/>
<path fill-rule="evenodd" clip-rule="evenodd" d="M43.5561 84.8667C43.2609 84.3318 42.9758 83.7977 42.6912 83.2832C42.2168 82.4114 41.6375 81.3339 41.2469 80.612V84.7355C41.2469 84.9136 41.1094 85.0358 40.9091 85.0358C40.7088 85.0358 40.5723 84.9136 40.5723 84.7355V79.3003C40.5723 79.1597 40.6772 79.0383 40.8353 79.0098C40.9935 78.9817 41.1415 79.0473 41.2153 79.1695C41.4999 79.7036 41.7841 80.2377 42.0697 80.7526C42.5431 81.6244 43.1339 82.7015 43.524 83.4238V79.3003C43.524 79.1222 43.6615 79 43.8618 79C44.0621 79 44.1986 79.1222 44.1986 79.3003V84.7355C44.1986 84.8761 44.0942 84.9975 43.936 85.0256C43.7779 85.0639 43.6299 84.9881 43.5561 84.8667Z" fill="#009A95"/>
<path fill-rule="evenodd" clip-rule="evenodd" d="M48.2891 80.425C48.0672 81.0997 47.7404 82.1959 47.4558 83.124H49.1219C48.8363 82.1959 48.4894 81.0997 48.2891 80.425ZM50.0596 85.0256C49.8809 85.0724 49.7012 84.9792 49.649 84.8194C49.6168 84.7262 49.5852 84.6231 49.5541 84.5098C49.4803 84.3135 49.4065 84.0507 49.3111 83.7232H47.266C47.1501 84.0507 47.0974 84.3135 47.0236 84.5098C46.9919 84.6231 46.9598 84.7262 46.9282 84.8194C46.876 84.9792 46.7073 85.0724 46.507 85.0256C46.3273 84.9792 46.2224 84.8194 46.2751 84.6606L47.9613 79.2253C48.0035 79.0848 48.1309 79 48.2891 79C48.4472 79 48.5732 79.0848 48.6154 79.2253L50.3021 84.6606C50.3552 84.8194 50.2599 84.9792 50.0596 85.0256Z" fill="#009A95"/>
<path fill-rule="evenodd" clip-rule="evenodd" d="M52.3787 84.7355V79.3003C52.3787 79.1222 52.5368 79 52.7165 79C52.9168 79 53.0533 79.1222 53.0533 79.3003V84.7355C53.0533 84.9136 52.9168 85.0358 52.7165 85.0358C52.5368 85.0358 52.3787 84.9136 52.3787 84.7355Z" fill="#009A95"/>
<path fill-rule="evenodd" clip-rule="evenodd" d="M58.1035 80.9872V80.4621C58.1035 80.0124 57.6919 79.6371 57.1753 79.6371H56.2477V81.8113H57.1753C57.6919 81.8113 58.1035 81.4463 58.1035 80.9872ZM57.7872 82.3088L58.7566 84.6321C58.8309 84.7828 58.736 84.9506 58.5563 85.0166C58.3881 85.0822 58.1979 84.9975 58.1241 84.8386L57.1126 82.4114H56.2477V84.7355C56.2477 84.9136 56.1111 85.0358 55.9108 85.0358C55.7311 85.0358 55.573 84.9136 55.573 84.7355V79.3377C55.573 79.1597 55.7311 79.0383 55.9108 79.0383H57.1753C58.0613 79.0383 58.7782 79.6755 58.7782 80.4621V80.9872C58.7782 81.5869 58.3776 82.0929 57.7872 82.3088Z" fill="#009A95"/>
<path fill-rule="evenodd" clip-rule="evenodd" d="M61.392 79.0383H63.5008C63.7011 79.0383 63.8377 79.1597 63.8377 79.3377C63.8377 79.5158 63.7011 79.6371 63.5008 79.6371H61.7293V81.6244H63.2891C63.4893 81.6244 63.6269 81.7466 63.6269 81.9246C63.6269 82.1027 63.4893 82.224 63.2891 82.224H61.7293V84.3987H63.5008C63.7011 84.3987 63.8377 84.52 63.8377 84.6981C63.8377 84.8761 63.7011 84.9975 63.5008 84.9975H61.392C61.1917 84.9975 61.0542 84.8761 61.0542 84.6981V79.3377C61.0542 79.1597 61.1917 79.0383 61.392 79.0383Z" fill="#009A95"/>
<path fill-rule="evenodd" clip-rule="evenodd" d="M69.8992 79.6371H68.972V84.3987H69.8992C70.4158 84.3987 70.8279 84.0324 70.8279 83.5733V80.4621C70.8279 80.0124 70.4158 79.6371 69.8992 79.6371ZM71.5025 80.4621V83.5733C71.5025 84.3603 70.7857 84.9975 69.8992 84.9975H68.6352C68.4349 84.9975 68.2974 84.8761 68.2974 84.6981V79.3377C68.2974 79.1597 68.4349 79.0383 68.6352 79.0383H69.8992C70.7857 79.0383 71.5025 79.6755 71.5025 80.4621Z" fill="#009A95"/>
<path fill-rule="evenodd" clip-rule="evenodd" d="M73.6109 79.7881V79.6293H73.5999C73.4212 79.6293 73.2731 79.4981 73.2731 79.3384C73.2731 79.1787 73.4212 79.0573 73.5999 79.0573H73.9377C74.1064 79.0573 74.254 79.1787 74.254 79.3384V79.7881C74.254 80.0969 74.0427 80.378 73.7159 80.5002C73.5577 80.5662 73.368 80.4913 73.2947 80.3499C73.2209 80.2 73.3052 80.0411 73.4734 79.9755C73.5683 79.9474 73.6109 79.8822 73.6109 79.7881Z" fill="#009A95"/>
<path fill-rule="evenodd" clip-rule="evenodd" d="M77.7223 80.425C77.5019 81.0997 77.1751 82.1959 76.8895 83.124H78.5556C78.271 82.1959 77.9226 81.0997 77.7223 80.425ZM79.4943 85.0256C79.3146 85.0724 79.1359 84.9792 79.0832 84.8194C79.0515 84.7262 79.0194 84.6231 78.9878 84.5098C78.914 84.3135 78.8407 84.0507 78.7454 83.7232H76.7007C76.5843 84.0507 76.5311 84.3135 76.4583 84.5098C76.4262 84.6231 76.3945 84.7262 76.3629 84.8194C76.3102 84.9792 76.142 85.0724 75.9408 85.0256C75.762 84.9792 75.6561 84.8194 75.7093 84.6606L77.396 79.2253C77.4382 79.0848 77.5642 79 77.7223 79C77.8809 79 78.0079 79.0848 78.0501 79.2253L79.7368 84.6606C79.789 84.8194 79.6946 84.9792 79.4943 85.0256Z" fill="#009A95"/>
<path fill-rule="evenodd" clip-rule="evenodd" d="M81.2536 79.0098C81.4324 78.9715 81.6221 79.0664 81.6643 79.2253C81.844 79.7969 82.0227 80.359 82.1923 80.9033C82.4765 81.8297 82.8033 82.9272 83.0352 83.6108C83.2355 82.9272 83.5838 81.8216 83.8685 80.9033C84.0367 80.359 84.2163 79.7969 84.3951 79.2253C84.4372 79.0664 84.6275 78.9715 84.8062 79.0098C84.9859 79.0566 85.0913 79.2253 85.0381 79.3842L83.3519 84.8195C83.3198 84.9417 83.1933 85.0358 83.0352 85.0358C82.8771 85.0358 82.751 84.9417 82.7089 84.8195L81.0212 79.3842C80.969 79.2253 81.0739 79.0566 81.2536 79.0098Z" fill="#009A95"/>
<path fill-rule="evenodd" clip-rule="evenodd" d="M87.1047 79.0383H89.213C89.4133 79.0383 89.5499 79.1597 89.5499 79.3377C89.5499 79.5158 89.4133 79.6371 89.213 79.6371H87.4415V81.6244H89.0017C89.2015 81.6244 89.3395 81.7466 89.3395 81.9246C89.3395 82.1027 89.2015 82.224 89.0017 82.224H87.4415V84.3987H89.213C89.4133 84.3987 89.5499 84.52 89.5499 84.6981C89.5499 84.8761 89.4133 84.9975 89.213 84.9975H87.1047C86.9044 84.9975 86.7664 84.8761 86.7664 84.6981V79.3377C86.7664 79.1597 86.9044 79.0383 87.1047 79.0383Z" fill="#009A95"/>
<path fill-rule="evenodd" clip-rule="evenodd" d="M94.2936 84.8667C93.9989 84.3318 93.7143 83.7977 93.4292 83.2832C92.9553 82.4114 92.3755 81.3339 91.985 80.612V84.7355C91.985 84.9136 91.8484 85.0358 91.6481 85.0358C91.4478 85.0358 91.3103 84.9136 91.3103 84.7355V79.3003C91.3103 79.1597 91.4162 79.0383 91.5743 79.0098C91.7325 78.9817 91.8791 79.0473 91.9534 79.1695C92.2375 79.7036 92.5231 80.2377 92.8077 80.7526C93.2821 81.6244 93.8729 82.7015 94.262 83.4238V79.3003C94.262 79.1222 94.3995 79 94.5998 79C94.8001 79 94.9367 79.1222 94.9367 79.3003V84.7355C94.9367 84.8761 94.8317 84.9975 94.6736 85.0256C94.5155 85.0639 94.3679 84.9881 94.2936 84.8667Z" fill="#009A95"/>
<path fill-rule="evenodd" clip-rule="evenodd" d="M97.0342 84.7355V79.3003C97.0342 79.1222 97.1923 79 97.372 79C97.5723 79 97.7089 79.1222 97.7089 79.3003V84.7355C97.7089 84.9136 97.5723 85.0358 97.372 85.0358C97.1923 85.0358 97.0342 84.9136 97.0342 84.7355Z" fill="#009A95"/>
<path fill-rule="evenodd" clip-rule="evenodd" d="M102.338 80.9872V80.4621C102.338 80.0124 101.926 79.6371 101.409 79.6371H100.482V81.8113H101.409C101.926 81.8113 102.338 81.4463 102.338 80.9872ZM102.021 82.3088L102.991 84.6321C103.065 84.7828 102.971 84.9506 102.791 85.0166C102.622 85.0822 102.433 84.9975 102.359 84.8386L101.347 82.4114H100.482V84.7355C100.482 84.9136 100.345 85.0358 100.145 85.0358C99.9653 85.0358 99.8071 84.9136 99.8071 84.7355V79.3377C99.8071 79.1597 99.9653 79.0383 100.145 79.0383H101.409C102.296 79.0383 103.013 79.6755 103.013 80.4621V80.9872C103.013 81.5869 102.612 82.0929 102.021 82.3088Z" fill="#009A95"/>
</svg>
