<svg xmlns="http://www.w3.org/2000/svg" viewBox="0 0 968.32 754.23"><defs><style>.cls-1{opacity:0.4;}.cls-2{fill:#fff;opacity:0.5;}.cls-3{fill:#fec007;}.cls-4{fill:#f2940e;}.cls-5{fill:#f44d4d;}.cls-6{fill:#f28181;}.cls-7{fill:#ff62a7;}</style></defs><title>Asset 1</title><g id="Layer_2" data-name="Layer 2"><g id="Capa_1" data-name="Capa 1"><circle class="cls-1" cx="32.38" cy="455.53" r="32.38"/><circle class="cls-2" cx="213.97" cy="192.03" r="44.33"/><circle class="cls-1" cx="493.96" cy="126.14" r="27.97"/><circle class="cls-2" cx="64.76" cy="12.89" r="12.09"/><circle class="cls-2" cx="775.63" cy="330.4" r="10.5"/><path class="cls-3" d="M791.29,99H660.41a49.49,49.49,0,0,1,0-99H831.54a49.49,49.49,0,1,1,0,99h-1.47l-18.64,41.41Z"/><path class="cls-4" d="M709.93,49.49A49.54,49.54,0,0,1,759.42,0h-99a49.49,49.49,0,0,0,0,99h99A49.54,49.54,0,0,1,709.93,49.49Z"/><path class="cls-5" d="M264.49,100.66h-8.36a49.49,49.49,0,0,1,0-99H427.26a49.49,49.49,0,1,1,0,99H300.13L283,138.71Z"/><path class="cls-6" d="M313.53,51.17A49.54,49.54,0,0,1,363,1.68H256.13a49.49,49.49,0,0,0,0,99h8.36L283,138.71l17.13-38.05H363A49.54,49.54,0,0,1,313.53,51.17Z"/><path class="cls-5" d="M869.4,294.15H692.33a47.82,47.82,0,0,1,0-95.63H920.5a47.82,47.82,0,1,1,0,95.63h-2.59L893.66,356Z"/><path class="cls-6" d="M723.18,246.34A47.87,47.87,0,0,1,771,198.52H692.33a47.82,47.82,0,0,0,0,95.63H771A47.87,47.87,0,0,1,723.18,246.34Z"/><path class="cls-3" d="M45.42,317.75H41.61a36.91,36.91,0,1,1,0-73.82h70.47a36.91,36.91,0,1,1,0,73.82H72.9l-15.44,35Z"/><path class="cls-4" d="M52.61,280.84a37,37,0,0,1,36.91-36.91H41.61a36.91,36.91,0,0,0,0,73.82h3.81l12,35,15.44-35H89.52A37,37,0,0,1,52.61,280.84Z"/><path class="cls-3" d="M721.66,377.21H334.49l.08,96.15-.06,13.89c0,.29,0,.58,0,.86V741.5a12.71,12.71,0,0,0,20.39,10.13l97.94-74.25H721.66a110.9,110.9,0,0,0,110.9-110.9V488.11A110.9,110.9,0,0,0,721.66,377.21Z"/><path class="cls-4" d="M570.87,377.21H334.49l.08,96.15-.06,13.89c0,.29,0,.58,0,.86V741.5a12.71,12.71,0,0,0,20.39,10.13l39.48-29.93V593.23a91.6,91.6,0,0,1,91.6-91.6h0l53.84,32.19a39.19,39.19,0,0,0,59.33-33.66v-123Z"/><path id="SVGCleanerId_0" data-name="SVGCleanerId 0" class="cls-7" d="M493.28,475.13H313.82a74.35,74.35,0,0,1-74.35-74.35V348.45a74.34,74.34,0,0,1,74.35-74.34H498.29a74.34,74.34,0,0,1,74.34,74.34V500.16a12.7,12.7,0,0,1-19.23,10.91Z"/><path id="SVGCleanerId_0-2" data-name="SVGCleanerId 0" class="cls-5" d="M493.28,475.13H313.82a74.35,74.35,0,0,1-74.35-74.35V348.45a74.34,74.34,0,0,1,74.35-74.34H498.29a74.34,74.34,0,0,1,74.34,74.34V500.16a12.7,12.7,0,0,1-19.23,10.91Z"/><path class="cls-6" d="M352.88,400.78V348.45a74.43,74.43,0,0,1,74.35-74.34H313.82a74.43,74.43,0,0,0-74.35,74.34v52.33a74.44,74.44,0,0,0,74.35,74.35H427.23A74.43,74.43,0,0,1,352.88,400.78Z"/></g></g></svg>