<svg xmlns="http://www.w3.org/2000/svg" viewBox="0 0 1051.71 748.92"><defs><style>.cls-1{fill:#fdf7ff;}.cls-2{fill:#e6e6e6;}.cls-3{fill:#2796af;}.cls-4{fill:#ccc;}.cls-5{fill:#b3b3b3;}.cls-6{fill:#fec007;}.cls-7{fill:#fe9700;}.cls-8{fill:#ffd3ae;}.cls-9{fill:#995c0d;}.cls-10{fill:#b27214;}.cls-11{fill:#e5b48f;}.cls-12{fill:#fff;}.cls-12,.cls-13{opacity:0.5;}</style></defs><title>Asset 1</title><g id="Layer_2" data-name="Layer 2"><g id="Capa_1" data-name="Capa 1"><path class="cls-1" d="M384.24,748.92l233.18-1.31a13.35,13.35,0,0,0,13.27-13.42L628.1,275.58a13.35,13.35,0,0,0-13.42-13.27l-340.91,1.93a13.35,13.35,0,0,0-13.27,13.42l2,350.87Z"/><path class="cls-2" d="M614.68,262.31l-29.77.17a13.35,13.35,0,0,1,13.42,13.27l2.58,458.6a13.33,13.33,0,0,1-13.26,13.42l29.77-.17a13.34,13.34,0,0,0,13.27-13.41L628.1,275.58A13.35,13.35,0,0,0,614.68,262.31Z"/><path class="cls-2" d="M383.62,639.57l.62,109.35L262.48,628.53l109.35-.62A11.71,11.71,0,0,1,383.62,639.57Z"/><path class="cls-3" d="M359.7,393.57a2.88,2.88,0,0,1,2.18,1l6.1,6.54a33.24,33.24,0,0,1-12.32,9.61A42.67,42.67,0,0,1,338,414.1a41.71,41.71,0,0,1-16.56-3.05,36.46,36.46,0,0,1-12.6-8.68A38.34,38.34,0,0,1,300.83,389a50.24,50.24,0,0,1-2.86-17A45.51,45.51,0,0,1,301,355a38.88,38.88,0,0,1,8.61-13.4,39.4,39.4,0,0,1,13.35-8.79,45.91,45.91,0,0,1,17.22-3.21,40.51,40.51,0,0,1,16.1,2.85,37.64,37.64,0,0,1,11.85,7.73l-5.1,7.18a4.79,4.79,0,0,1-1.17,1.21,3.32,3.32,0,0,1-2,.52,4.47,4.47,0,0,1-2.69-1,32.62,32.62,0,0,0-3.5-2.21,28.3,28.3,0,0,0-5.35-2.2,30.92,30.92,0,0,0-18.92,1.11,23.8,23.8,0,0,0-8.37,5.85,26.49,26.49,0,0,0-5.43,9.2A35.23,35.23,0,0,0,313.68,372a36.14,36.14,0,0,0,2.05,12.39,27.17,27.17,0,0,0,5.39,9.11,22.75,22.75,0,0,0,8,5.65,24.63,24.63,0,0,0,9.84,1.91,42.36,42.36,0,0,0,5.69-.37,24.68,24.68,0,0,0,4.68-1.11,21.16,21.16,0,0,0,4-1.94,25.08,25.08,0,0,0,3.79-2.91,5.75,5.75,0,0,1,1.19-.84A3,3,0,0,1,359.7,393.57Z"/><path class="cls-3" d="M375.52,330.32l12.4-.07a5.18,5.18,0,0,1,3.27.95,6,6,0,0,1,1.9,2.51L412.81,384c.65,1.64,1.28,3.43,1.89,5.39s1.17,4,1.72,6.19A70.61,70.61,0,0,1,419.61,384l19.09-50.52a5.91,5.91,0,0,1,1.82-2.41,4.88,4.88,0,0,1,3.25-1.1l12.4-.07L423.26,412.7l-13.89.08Z"/><path class="cls-4" d="M353.78,628l.52,91.3,29.94,29.61-.61-109a12.12,12.12,0,0,0-12.18-12l-17.67.1Z"/><path class="cls-5" d="M576.56,475.16l-277.72,1.57a8.59,8.59,0,1,1-.1-17.18L576.46,458a8.59,8.59,0,1,1,.1,17.18Z"/><path class="cls-5" d="M576.21,414.32,460,415a8.59,8.59,0,1,1-.1-17.18l116.25-.66a8.59,8.59,0,0,1,.09,17.18Z"/><path class="cls-5" d="M576.9,536l-277.72,1.56a8.59,8.59,0,1,1-.1-17.17l277.72-1.57a8.59,8.59,0,1,1,.1,17.18Z"/><path class="cls-5" d="M577.24,596.83,299.52,598.4a8.59,8.59,0,0,1-.09-17.18l277.72-1.57a8.59,8.59,0,0,1,.09,17.18Z"/><path class="cls-5" d="M533.13,694.56a8.61,8.61,0,0,1-8.44-6.74l-3.12-14.1-32.53,16a8.59,8.59,0,1,1-7.59-15.41l42.35-20.85A8.58,8.58,0,0,1,536,659.33l3.18,14.34L574,657.44A8.59,8.59,0,0,1,581.26,673l-44.55,20.73A8.65,8.65,0,0,1,533.13,694.56Z"/><path class="cls-6" d="M614.68,262.31l-340.91,1.93a13.35,13.35,0,0,0-13.27,13.42l.11,18.89,367.6-2.07-.11-18.9A13.35,13.35,0,0,0,614.68,262.31Z"/><path class="cls-7" d="M598.33,275.75l.1,18.89,29.78-.16-.11-18.9a13.29,13.29,0,0,0-3.09-8.47,11,11,0,0,0-.87-.94,13.31,13.31,0,0,0-9.46-3.86l-29.77.17A13.35,13.35,0,0,1,598.33,275.75Z"/><path class="cls-8" d="M841.31,392.74a26.07,26.07,0,0,1-44.51,18.43l-74.5-74.49,6.29,6.3,76.48,76.47.23.24a26.08,26.08,0,0,1-37.11,36.64l-19.43-19.42a26.07,26.07,0,0,1-.32,36.53,26,26,0,0,1-36.87,0l-25-25a26.08,26.08,0,0,1-.14,36.73c-.16.16-.33.33-.5.48a26,26,0,0,1-36.38-.48L544.15,379.77l-8.95-8.94L519,354.6a163,163,0,0,1-46.84-98.31L427.81,212l52.83-53.7,72.45-73.67,50.62,50.61a29.11,29.11,0,0,0,33.65,5.39A63.48,63.48,0,0,1,685,136.94,84.88,84.88,0,0,0,669.6,149.1l63.53,30.47,7.74,50.16s5.83-40.8-10.92-12.07l37.29,5.19c.09.09-16.73,27.42-16.62,27.51l79.64,120.52,3.41,3.42A26,26,0,0,1,841.31,392.74Z"/><path class="cls-9" d="M647.43,483.05l-1.63,1.63a26.07,26.07,0,0,1-36.87-36.88l1.63-1.62,25.62,12.26Z"/><path class="cls-9" d="M572.08,407.7h0a21,21,0,0,1-1.66,1.5,26.07,26.07,0,0,1-35.22-38.37h0l16.13,4.49,14.14,11.27Z"/><path class="cls-9" d="M572.08,407.7,602,420.51l7.46,24.54-2.73,2.43a26.08,26.08,0,0,1-40.16-32.21,75.15,75.15,0,0,1,5.53-7.56Z"/><path class="cls-10" d="M939.81,209.87,893.4,256.29a162.65,162.65,0,0,1-6.22,30.63h0a163,163,0,0,1-40.63,67.66l-16.29,16.29-78.84-78.83L704.18,244.8a3.58,3.58,0,0,1-.28-.26l-.39-.39,0,0-.35-.35L686,226.67l-13.12,13.11a58.45,58.45,0,0,1-82.68,0,8,8,0,0,1,0-11.31L669.6,149.1a84.25,84.25,0,0,1,101.79-13.31,29.35,29.35,0,0,0,35.42-4.86L838,99.77Z"/><path class="cls-9" d="M782.32,271.22l-28.27,21.94-2.63-1.11L704.17,244.8l-.27-.26-.39-.39C704.78,245.33,748.46,285.08,782.32,271.22Z"/><path class="cls-9" d="M887.18,286.93a162.94,162.94,0,0,1-40.64,67.66l-16.29,16.29L728.63,269.26l-.57-2.85s111.59,89.42,159.11,20.52Z"/><path class="cls-11" d="M685.94,485.66a26,26,0,0,1-36.38-.48L544.15,379.77l-8.95-8.94L519,354.6a163,163,0,0,1-46.84-98.31L427.81,212l52.83-53.7,14.41,48a179,179,0,0,1,7.37,50.6c.07,11.83,2,27,9.36,40.45C521.33,314.73,620.32,424,685.94,485.66Z"/><path class="cls-11" d="M741.07,478.62a26.09,26.09,0,0,1-29.5-5.18l-25-25-66-66a8.59,8.59,0,0,1,12.15-12.15Z"/><path class="cls-11" d="M805.3,419.69,728.59,343l76.48,76.47Z"/><path class="cls-11" d="M796.8,411.17l-74.5-74.49,6.29,6.3L696,310.41a8.59,8.59,0,1,1,12.15-12.16l32.6,32.58,85.53,85.53A26.07,26.07,0,0,1,796.8,411.17Z"/><path class="cls-11" d="M797.69,461.51a26.1,26.1,0,0,1-29.5-5.19L748.76,436.9l-83.62-83.62a8.59,8.59,0,1,1,12.15-12.16Z"/><polygon class="cls-9" points="686.04 226.67 704.38 208.33 694.92 235.56 686.04 226.67"/><circle class="cls-12" cx="149.03" cy="381.33" r="32.38"/><circle class="cls-13" cx="1023.74" cy="308.78" r="27.97"/><circle class="cls-13" cx="634.56" cy="27.97" r="27.97"/><circle class="cls-12" cx="262.48" cy="55.95" r="12.09"/><circle class="cls-13" cx="39.45" cy="191.22" r="39.45"/><circle class="cls-12" cx="887.18" cy="467.35" r="10.5"/></g></g></svg>