<svg xmlns="http://www.w3.org/2000/svg" width="32.479" height="11.339"><defs><clipPath clipPathUnits="userSpaceOnUse" id="a"><path d="M0 0h595.28v841.89H0z"/></clipPath></defs><g clip-path="url(#a)" transform="matrix(1.33333 0 0 -1.33333 -557.172 820.976)"><path d="M440.252 611.454l1.544 1.544c.59.59.59 1.556 0 2.145a1.522 1.522 0 0 1-2.147 0l-1.543-1.543-1.543 1.543a1.52 1.52 0 0 1-2.146 0 1.521 1.521 0 0 1 0-2.145l1.544-1.544-1.544-1.544a1.522 1.522 0 0 1 0-2.146c.59-.59 1.556-.59 2.146 0l1.543 1.544 1.543-1.544a1.523 1.523 0 0 1 2.147 0c.59.59.59 1.556 0 2.146zm-17.985-4.227c-.44 0-.857.2-1.134.541l-2.93 3.621a1.458 1.458 0 0 0 2.267 1.834l1.797-2.22 3.388 4.187a1.459 1.459 0 0 0 2.266-1.834l-4.521-5.588a1.462 1.462 0 0 0-1.133-.54" fill="#d9d9d9"/></g></svg>