<svg xmlns="http://www.w3.org/2000/svg" height="18.333" width="36"><path d="M3.333 18.333A3.343 3.343 0 0 1 0 15v-.263c0-1.833 1.5-3.333 3.333-3.333 1.834 0 3.334 1.5 3.334 3.333V15c0 1.833-1.5 3.333-3.334 3.333" fill="#ffcb03"/><path d="M22.89 18.333A3.343 3.343 0 0 1 19.555 15V6.492c0-1.833 1.5-3.333 3.333-3.333 1.834 0 3.334 1.5 3.334 3.333V15c0 1.833-1.5 3.333-3.334 3.333m9.779 0A3.343 3.343 0 0 1 29.333 15V3.333C29.333 1.5 30.833 0 32.667 0 34.5 0 36 1.5 36 3.333V15c0 1.833-1.5 3.333-3.333 3.333" fill="#e4e4e4"/><path d="M12.235 18.191c-.913-.258-1.628-.859-2.122-1.784-.23-.43-.237-.534-.237-3.387 0-2.867.006-2.954.24-3.394a3.545 3.545 0 0 1 1.567-1.547c.508-.253.742-.304 1.398-.305 1.365-.003 2.456.69 3.036 1.926.275.587.275.591.275 3.32 0 2.722 0 2.735-.272 3.31-.39.83-.754 1.21-1.51 1.583-.775.382-1.647.484-2.375.278z" fill="#ffcb03" stroke-width=".105"/></svg>