<svg xmlns="http://www.w3.org/2000/svg" height="18.333" width="36">
  <path d="M3.333 18.333A3.343 3.343 0 0 1 0 15v-.264c0-1.833 1.5-3.333 3.333-3.333 1.834 0 3.334 1.5 3.334 3.333V15c0 1.833-1.5 3.333-3.334 3.333" fill="#ffcb03"/>
  <path d="M13.112 18.333A3.343 3.343 0 0 1 9.779 15v-3.947c0-1.833 1.5-3.333 3.333-3.333 1.833 0 3.333 1.5 3.333 3.333V15c0 1.833-1.5 3.333-3.333 3.333m9.778 0A3.343 3.343 0 0 1 19.555 15V6.49c0-1.833 1.5-3.333 3.333-3.333 1.834 0 3.334 1.5 3.334 3.334V15c0 1.833-1.5 3.333-3.334 3.333m9.779 0A3.343 3.343 0 0 1 29.333 15V3.333C29.333 1.5 30.833 0 32.667 0 34.5 0 36 1.5 36 3.333V15c0 1.833-1.5 3.333-3.333 3.333" fill="#e4e4e4"/>
</svg>
