<svg xmlns="http://www.w3.org/2000/svg" viewBox="0 0 889.26 758.37"><defs><style>.cls-1{fill:#fff;}.cls-1,.cls-2{opacity:0.4;}.cls-3{fill:#fce381;}.cls-4{fill:#bf9a26;}.cls-5{fill:#55b5e0;}.cls-6{fill:#4696b2;}.cls-7{fill:#bac49b;}.cls-8{fill:#e3ebce;}.cls-9{fill:#f2940e;}.cls-10{fill:#b2660b;}.cls-11{fill:#f44d4d;}.cls-12{fill:#db3b3b;}</style></defs><title>Asset 1</title><g id="Layer_2" data-name="Layer 2"><g id="Capa_1" data-name="Capa 1"><circle class="cls-1" cx="108.43" cy="374.91" r="32.38"/><circle class="cls-2" cx="161.3" cy="191.22" r="44.33"/><circle class="cls-2" cx="791.43" cy="69.39" r="27.97"/><circle class="cls-2" cx="12.09" cy="12.09" r="12.09"/><path class="cls-3" d="M611.65,99.79c-34.7,0-57.84,30.08-57.84,63,0,19.67,5.21,30.66,13.89,49.16,17.35,38.18,43.95,79.24,43.95,79.24s26.61-41.06,44-79.24c8.67-19.08,13.88-29.49,13.88-49.16,0-33-23.14-63-57.84-63"/><path class="cls-4" d="M640.57,157.63a28.92,28.92,0,1,0-28.92,28.92,28.65,28.65,0,0,0,28.92-28.92"/><path class="cls-5" d="M831.43,215.47c-34.7,0-57.84,30.07-57.84,63,0,19.66,5.21,30.65,13.88,49.16,17.35,38.17,44,79.23,44,79.23s26.6-41.06,44-79.23c8.68-19.09,13.88-29.5,13.88-49.16,0-33-23.13-63-57.83-63"/><path class="cls-6" d="M860.34,273.3a28.92,28.92,0,1,0-28.91,28.92,28.64,28.64,0,0,0,28.91-28.92"/><path class="cls-7" d="M831.43,435.24h-5.79a5.79,5.79,0,0,1,0-11.57h5.79a5.79,5.79,0,0,1,0,11.57"/><path class="cls-7" d="M770.12,435.24h-11a5.79,5.79,0,0,1,0-11.57h11a5.79,5.79,0,1,1,0,11.57m33.55,0h-11a5.79,5.79,0,1,1,0-11.57h11a5.47,5.47,0,0,1,5.78,5.79,5.79,5.79,0,0,1-5.78,5.78"/><path class="cls-7" d="M651,319.57H640A5.79,5.79,0,0,1,640,308h11a5.47,5.47,0,0,1,5.78,5.79,5.79,5.79,0,0,1-5.78,5.78m33,0H673A5.79,5.79,0,1,1,673,308h11a5.79,5.79,0,0,1,0,11.57M711.71,334a6.92,6.92,0,0,1-5.21-2.89,60.18,60.18,0,0,0-5.78-6.94,5.79,5.79,0,0,1,6.94-9.26,45.9,45.9,0,0,1,8.67,9.83,5.85,5.85,0,0,1-2.31,8.1c0,1.16-1.16,1.16-2.31,1.16M710,365.26a8.2,8.2,0,0,1-3.47-1.16,6.22,6.22,0,0,1-1.16-8.09,20.15,20.15,0,0,0,3.47-8.1c.58-2.89,4.05-5.21,7-4.05,2.89.58,5.2,4.05,4,6.94A38.63,38.63,0,0,1,714,363c0,1.73-2.31,2.31-4,2.31m-84.44,12.15h-11a5.79,5.79,0,0,1,0-11.57h11a5.79,5.79,0,1,1,0,11.57m33,0h-11a5.79,5.79,0,0,1,0-11.57h11a5.79,5.79,0,0,1,0,11.57m28.34,0h-5.79a5.79,5.79,0,0,1,0-11.57h5.79a9.85,9.85,0,0,0,4-.58,6,6,0,0,1,6.94,4.63,6.36,6.36,0,0,1-4.63,6.94,25.86,25.86,0,0,1-6.36.58m-105.26,1.15a6.09,6.09,0,0,1-5.79-4.62c-.58-2.9,1.16-6.37,4.05-6.94a44.47,44.47,0,0,1,8.68-1.16h4a5.79,5.79,0,1,1,0,11.57h-4a20,20,0,0,0-5.79.57,2,2,0,0,0-1.15.58m-21.4,22.56H559c-2.89-.58-5.21-3.47-4.63-6.36A28.13,28.13,0,0,1,559,382.61c1.73-2.89,5.2-3.47,8.1-1.73s3.47,5.2,1.73,8.09a13.88,13.88,0,0,0-2.89,8.1,5.75,5.75,0,0,1-5.78,4.05M572.32,430a8.25,8.25,0,0,1-3.47-1.16,28.28,28.28,0,0,1-9.25-9.25c-1.74-2.9-1.16-6.37,1.73-8.1s6.36-1.16,8.1,1.73a20.67,20.67,0,0,0,5.78,6.36c2.9,1.74,3.47,5.21,1.74,8.1a5.26,5.26,0,0,1-4.63,2.32m31.81,5.2h-11a5.79,5.79,0,0,1,0-11.57h11a5.79,5.79,0,1,1,0,11.57m33.55,0h-11a5.79,5.79,0,1,1,0-11.57h11a5.47,5.47,0,0,1,5.78,5.79,5.79,5.79,0,0,1-5.78,5.78m33,0h-11a5.79,5.79,0,0,1,0-11.57h11a5.79,5.79,0,1,1,0,11.57m33.55,0H692.62a5.79,5.79,0,0,1,0-11.57h11.57a5.47,5.47,0,0,1,5.78,5.79,5.79,5.79,0,0,1-5.78,5.78m33,0h-11a5.79,5.79,0,1,1,0-11.57h11a5.79,5.79,0,1,1,0,11.57"/><path class="cls-7" d="M617.43,319.57h-5.78a5.79,5.79,0,0,1,0-11.57h5.78a5.79,5.79,0,1,1,0,11.57"/><path class="cls-7" d="M744.37,747.69,695.85,480.42a9,9,0,0,0-4.51-6.29l-122.1-67.92a9.08,9.08,0,0,0-5.1-1.1l22.21,286.57-.74.33,146.12,65.56a9.14,9.14,0,0,0,3.72.79,9.06,9.06,0,0,0,8.92-10.67Z"/><path class="cls-7" d="M435.76,471.14,310.89,406.09a9.15,9.15,0,0,0-4.79-1,11.29,11.29,0,0,1,1.3,0L285.18,691.68l146.87,65.89a9.1,9.1,0,0,0,3.71.79h0Z"/><path class="cls-8" d="M307.39,405.12a9,9,0,0,0-5.1,1.09L180.18,474.13a9,9,0,0,0-4.5,6.29L127.16,747.69a9.07,9.07,0,0,0,12.63,9.88l145.34-65.2Z"/><path class="cls-8" d="M564.13,405.11a8.94,8.94,0,0,0-3.49,1l-124.88,65V758.37h0a9.11,9.11,0,0,0,3.71-.8l146.87-65.89Z"/><polygon class="cls-9" points="160.97 561.42 151.12 615.71 297.04 538.64 300.43 494.93 300.99 487.69 160.97 561.42"/><path class="cls-5" d="M298.36,521.69,297,538.64,151.12,615.71l-24,132a9.07,9.07,0,0,0,12.63,9.88l145.34-65.2,13.23-170.68Z"/><polygon class="cls-10" points="435.8 506.96 300.99 487.69 297.04 538.64 435.76 749.31 435.76 672.71 352.99 542.36 435.8 552.26 435.8 506.96"/><polygon class="cls-10" points="681.73 468.78 623.08 436.16 567.55 449.13 568.24 458.1 570.99 493.48 681.73 468.78"/><polygon class="cls-9" points="575.91 557.01 570.65 489.17 570.65 489.17 567.55 449.13 435.8 506.96 435.8 552.26 521.86 514.84 575.91 557.01"/><path class="cls-10" d="M744.37,747.69l-12.19-67.13L571,493.48,575.91,557,741.22,756.27A9,9,0,0,0,744.37,747.69Z"/><path class="cls-11" d="M436.35,207.12c-69.91,0-126.78,56.83-126.78,126.68,0,43.21,20.51,89.59,61,137.87A433.35,433.35,0,0,0,430.8,530.9a9.08,9.08,0,0,0,11.09,0,432.72,432.72,0,0,0,60.26-59.23c40.46-48.28,61-94.66,61-137.87C563.12,264,506.25,207.12,436.35,207.12ZM483.3,333.8a47,47,0,1,1-46.95-46.92A46.94,46.94,0,0,1,483.3,333.8Z"/><path class="cls-12" d="M436.35,207.12a128,128,0,0,0-16.36,1c62.21,8.05,110.43,61.31,110.43,125.63,0,43.21-20.51,89.59-61,137.87A452.37,452.37,0,0,1,420,521.93c6.34,5.49,10.37,8.63,10.81,9a9.08,9.08,0,0,0,11.09,0,432.72,432.72,0,0,0,60.26-59.23c40.46-48.28,61-94.66,61-137.87C563.12,264,506.25,207.12,436.35,207.12Z"/><path class="cls-9" d="M439.48,757.57l54.61-24.5L435.76,672.7v85.66h0A9.1,9.1,0,0,0,439.48,757.57Z"/><path class="cls-6" d="M695.85,480.42a9,9,0,0,0-4.51-6.29l-9.61-5.35L571,493.48h0l161.2,187.08Z"/><path class="cls-6" d="M435.76,758.36h0v-9.05L297,538.64l-11.86,153,146.87,65.89A9.1,9.1,0,0,0,435.76,758.36Z"/><circle class="cls-1" cx="370.22" cy="12.09" r="10.5"/></g></g></svg>