<svg xmlns="http://www.w3.org/2000/svg" width="62" height="29" viewBox="0 0 62 29">
    <g fill="#fff" fill-rule="evenodd">
      <path d="M52.54 14.328a5.1 5.1 0 1 1 0 10.2 5.1 5.1 0 1 1 0-10.2zm-4.72-8.77V11.53A9.2 9.2 0 1 1 43.363 18.767V6.133a2.228 2.228 0 1 1 4.456 0zM31.394 14.328a5.1 5.1 0 1 1 0 10.2 5.1 5.1 0 1 1 0-10.2zm0-4.1a9.2 9.2 0 1 1 0 18.4 9.2 9.2 0 1 1 0-18.4zM0 19.439a9.467 9.467 0 0 0 18.93 0c0-1.307-1.111-2.366-2.482-2.366-1.372 0-2.483 1.06-2.483 2.366 0 2.5-2.019 4.533-4.5 4.533-2.48 0-4.5-2.033-4.5-4.533 0-2.5 2.02-4.534 4.5-4.534.863 0 1.7.247 2.422.712 1.135.734 2.679.45 3.448-.632.769-1.081.472-2.553-.664-3.286a9.2 9.2 0 0 0-9.706.41V2.807A2.4825 2.4825 0 0 0 0 2.807" id="bob"/>
    </g>
</svg>
