<svg width="1440" height="347" viewBox="0 0 1440 347" fill="none" xmlns="http://www.w3.org/2000/svg">
<rect width="1440" height="347" transform="translate(0 0.00012207)" fill="#009598"/>
<path fill-rule="evenodd" clip-rule="evenodd" d="M657.093 347H453.492L521.777 201.57C526.579 190.519 533.781 180.428 542.423 172.259C551.065 164.09 561.628 157.363 572.671 153.038C595.717 143.908 621.164 144.389 643.73 153.999C654.773 158.804 664.855 165.532 673.498 174.181C682.14 182.83 688.381 192.921 693.183 203.973C697.504 215.025 699.905 227.038 699.905 239.051C698.464 251.064 696.063 263.077 691.262 274.129L657.093 347ZM996.233 347H794.936L892.833 123.09C897.634 112.038 904.836 101.947 913.478 93.7783C922.121 85.6094 932.203 78.8822 943.726 74.5575C966.773 65.4276 992.219 65.9081 1014.79 75.5185C1025.83 80.3237 1035.91 87.051 1043.59 95.7003C1052.24 103.869 1058.48 114.441 1063.28 125.493C1068.08 136.545 1070 148.558 1070 160.571C1069.52 172.584 1067.12 184.597 1062.32 195.648L996.233 347Z" fill="#19CCD6"/>
</svg>
