<svg id="Layer_2" data-name="Layer 2" xmlns="http://www.w3.org/2000/svg" width="96.3mm" height="80.38mm" viewBox="0 0 272.98 227.85">
  <rect width="4.16" height="227.25" fill="#22bcb9"/>
  <g>
    <path d="M157.93,225.21h12.13c10.89,0,17,5.45,17,16.83,0,11.83-5.19,18.51-17,18.51H157.93Zm4.7,31.38h7.82c3.22,0,11.88-.89,11.88-13.91,0-8.41-3.12-13.51-11.78-13.51h-7.92Z" transform="translate(-133.01 -137.29)" fill="#231f20"/>
    <path d="M213,252.43c-1.14,5.65-5.2,8.72-10.94,8.72-8.17,0-12-5.65-12.28-13.47,0-7.67,5-13.31,12-13.31,9.06,0,11.83,8.46,11.58,14.65H194.2c-.15,4.46,2.37,8.41,8,8.41,3.46,0,5.89-1.68,6.63-5Zm-4.06-7.12a7.37,7.37,0,0,0-7.38-7.23c-4.4,0-7,3.32-7.32,7.23Z" transform="translate(-133.01 -137.29)" fill="#231f20"/>
    <path d="M216.88,235h4.21v3.47h.1c1.38-2.82,4.65-4.06,8.17-4.06,7.87,0,11.78,6.23,11.78,13.46s-3.86,13.32-11.69,13.32c-2.62,0-6.38-1-8.26-4h-.1v13.21h-4.21Zm11.88,3.12c-5.64,0-7.82,4.85-7.82,9.65,0,5.05,2.28,9.7,8.07,9.7s7.67-4.9,7.67-9.9C236.68,242.73,234.21,238.08,228.76,238.08Z" transform="translate(-133.01 -137.29)" fill="#231f20"/>
    <path d="M267.49,260.45a5.6,5.6,0,0,1-3,.7c-2.18,0-3.57-1.19-3.57-4a11.36,11.36,0,0,1-9,4c-4.65,0-8.46-2.08-8.46-7.18,0-5.79,4.3-7,8.66-7.87,4.65-.89,8.61-.6,8.61-3.76,0-3.67-3-4.26-5.69-4.26-3.56,0-6.19,1.09-6.38,4.85h-4.21c.25-6.34,5.15-8.56,10.84-8.56,4.6,0,9.6,1,9.6,7v13.16c0,2,0,2.87,1.34,2.87a3.51,3.51,0,0,0,1.28-.24Zm-6.83-13.11c-1.63,1.18-4.8,1.24-7.62,1.73s-5.15,1.48-5.15,4.6c0,2.77,2.38,3.76,5,3.76,5.55,0,7.82-3.46,7.82-5.79Z" transform="translate(-133.01 -137.29)" fill="#231f20"/>
    <path d="M270.35,235h4v5.4h.1c2-4.11,4.85-6.14,9.4-6v4.45c-6.78,0-9.26,3.86-9.26,10.35v11.38h-4.2Z" transform="translate(-133.01 -137.29)" fill="#231f20"/>
    <path d="M294,235h5.1v3.71H294v15.89c0,1.94.54,2.28,3.16,2.28h1.94v3.71h-3.22c-4.36,0-6.09-.89-6.09-5.59V238.67h-4.36V235h4.36v-7.67H294Z" transform="translate(-133.01 -137.29)" fill="#231f20"/>
    <path d="M302.19,235h4v3.76h.1a9.42,9.42,0,0,1,8.26-4.35c3.12,0,6,1.24,7,4.35a9.46,9.46,0,0,1,8-4.35c5.1,0,8.52,2.13,8.52,7.42v18.76h-4.21V243.77c0-3.17-.84-5.69-4.95-5.69s-6.69,2.58-6.69,6.53v15.94H318V243.77c0-3.31-1-5.69-4.8-5.69a6.91,6.91,0,0,0-6.84,6.53v15.94h-4.2Z" transform="translate(-133.01 -137.29)" fill="#231f20"/>
    <path d="M365,252.43c-1.14,5.65-5.2,8.72-10.94,8.72-8.16,0-12-5.65-12.27-13.47,0-7.67,5.05-13.31,12-13.31,9.05,0,11.83,8.46,11.58,14.65H346.28c-.15,4.46,2.38,8.41,8,8.41,3.47,0,5.89-1.68,6.63-5ZM361,245.31a7.35,7.35,0,0,0-7.37-7.23c-4.41,0-7,3.32-7.33,7.23Z" transform="translate(-133.01 -137.29)" fill="#231f20"/>
    <path d="M368.9,235h4V239h.1a8.89,8.89,0,0,1,8.31-4.65c6.73,0,8.81,3.86,8.81,9.35v16.83h-4.2V243.23a4.82,4.82,0,0,0-5.2-5.15c-5.1,0-7.57,3.42-7.57,8v14.45H368.9Z" transform="translate(-133.01 -137.29)" fill="#231f20"/>
    <path d="M400.89,235H406v3.71h-5.1v15.89c0,1.94.54,2.28,3.17,2.28H406v3.71h-3.22c-4.36,0-6.09-.89-6.09-5.59V238.67h-4.35V235h4.35v-7.67h4.21Z" transform="translate(-133.01 -137.29)" fill="#231f20"/>
    <path d="M159,290.67h-4.31V287H159v-3.81c0-4.16,2.47-6.33,7.08-6.33a10.22,10.22,0,0,1,2.72.39v3.66a8.15,8.15,0,0,0-2.38-.34c-2,0-3.22.64-3.22,2.87V287h5v3.71h-5v21.88H159Z" transform="translate(-133.01 -137.29)" fill="#231f20"/>
    <path d="M181.3,286.37c8.11,0,12.42,5.89,12.42,13.41s-4.31,13.37-12.42,13.37-12.43-5.89-12.43-13.37S173.18,286.37,181.3,286.37Zm0,23.06c4.4,0,8-3.46,8-9.65s-3.57-9.7-8-9.7-8,3.47-8,9.7S176.89,309.43,181.3,309.43Z" transform="translate(-133.01 -137.29)" fill="#231f20"/>
    <path d="M197.44,287h4v5.4h.1c2-4.11,4.85-6.14,9.4-6v4.45c-6.78,0-9.25,3.86-9.25,10.35v11.38h-4.21Z" transform="translate(-133.01 -137.29)" fill="#231f20"/>
    <path d="M259.46,312.55h-4.9l-8.07-29.7h-.1l-8.16,29.7h-4.91l-9-35.34h4.8l6.93,29.4h.1l7.92-29.4h5.1l7.82,29.4h.1l7.17-29.4h4.7Z" transform="translate(-133.01 -137.29)" fill="#231f20"/>
    <path d="M281,286.37c8.12,0,12.42,5.89,12.42,13.41s-4.3,13.37-12.42,13.37-12.43-5.89-12.43-13.37S272.89,286.37,281,286.37Zm0,23.06c4.4,0,8-3.46,8-9.65s-3.57-9.7-8-9.7-8,3.47-8,9.7S276.6,309.43,281,309.43Z" transform="translate(-133.01 -137.29)" fill="#231f20"/>
    <path d="M297.15,287h4v5.4h.1c2-4.11,4.85-6.14,9.4-6v4.45c-6.78,0-9.25,3.86-9.25,10.35v11.38h-4.21Z" transform="translate(-133.01 -137.29)" fill="#231f20"/>
    <path d="M313.05,277.21h4.21v20.94L328.94,287h5.65l-10.15,9.31,10.89,16.28H330l-8.76-13.36-4,3.66v9.7h-4.21Z" transform="translate(-133.01 -137.29)" fill="#231f20"/>
    <path d="M370.77,308.15a11.86,11.86,0,0,1-10,5c-9.55,0-11-6.78-11-9.65,0-5.55,3.76-8.32,8.27-10.7-2-2.82-3.91-4.7-3.91-8.31,0-3.86,2.87-7.28,8-7.28,4.4,0,8.56,2.43,8.56,7.23,0,4.21-3.22,7.22-6.63,9.15l6.38,7.78a18.65,18.65,0,0,0,1.14-5.5h4a19.93,19.93,0,0,1-2.37,8.71l6.88,8h-5.5Zm-10.44-12.67c-3.32,1.88-6.14,3.76-6.14,8,0,3.56,3.31,6,6.73,6a8.88,8.88,0,0,0,7.52-4.2Zm6.08-10.8a4.07,4.07,0,0,0-8.11,0c0,2.13,1.88,4.21,3.41,6.14C363.74,289.54,366.41,287.66,366.41,284.68Z" transform="translate(-133.01 -137.29)" fill="#231f20"/>
    <path d="M157.93,329.21h15.49c7,0,10.84,3.91,10.84,10.45s-3.81,10.49-10.84,10.44H162.63v14.45h-4.7Zm4.7,16.93h9.21c5.29.05,7.72-2.28,7.72-6.48s-2.43-6.49-7.72-6.49h-9.21Z" transform="translate(-133.01 -137.29)" fill="#231f20"/>
    <path d="M209,356.43c-1.14,5.65-5.2,8.72-10.94,8.72-8.17,0-12-5.65-12.28-13.47,0-7.67,5.05-13.31,12-13.31,9.06,0,11.83,8.46,11.58,14.65H190.22c-.15,4.46,2.37,8.41,8,8.41,3.46,0,5.89-1.68,6.63-5Zm-4.06-7.12a7.37,7.37,0,0,0-7.38-7.23c-4.4,0-7,3.32-7.32,7.23Z" transform="translate(-133.01 -137.29)" fill="#231f20"/>
    <path d="M212.83,339h4V343h.1a8.9,8.9,0,0,1,8.32-4.65c6.73,0,8.81,3.86,8.81,9.35v16.83h-4.21V347.23a4.82,4.82,0,0,0-5.2-5.15c-5.09,0-7.57,3.42-7.57,8v14.45h-4.21Z" transform="translate(-133.01 -137.29)" fill="#231f20"/>
    <path d="M241.81,356.49c.15,3.76,3.42,4.94,6.88,4.94,2.62,0,6.19-.59,6.19-3.81s-4.16-3.81-8.37-4.75-8.36-2.33-8.36-7.23c0-5.14,5.1-7.27,9.55-7.27,5.64,0,10.15,1.78,10.49,8H254c-.3-3.27-3.17-4.31-5.94-4.31-2.53,0-5.45.69-5.45,3.27,0,3,4.46,3.51,8.37,4.45,4.2.94,8.36,2.33,8.36,7.28,0,6.09-5.69,8.07-10.89,8.07-5.74,0-10.59-2.33-10.84-8.66Z" transform="translate(-133.01 -137.29)" fill="#231f20"/>
    <path d="M267.27,334.36h-4.21v-5.15h4.21Zm-4.21,4.6h4.21v25.59h-4.21Z" transform="translate(-133.01 -137.29)" fill="#231f20"/>
    <path d="M283.58,338.37c8.12,0,12.43,5.89,12.43,13.41s-4.31,13.37-12.43,13.37-12.42-5.89-12.42-13.37S275.46,338.37,283.58,338.37Zm0,23.06c4.41,0,8-3.46,8-9.65s-3.56-9.7-8-9.7-8,3.47-8,9.7S279.18,361.43,283.58,361.43Z" transform="translate(-133.01 -137.29)" fill="#231f20"/>
    <path d="M299.79,339h4V343h.1a8.9,8.9,0,0,1,8.32-4.65c6.73,0,8.81,3.86,8.81,9.35v16.83h-4.21V347.23a4.82,4.82,0,0,0-5.2-5.15c-5.09,0-7.57,3.42-7.57,8v14.45h-4.21Z" transform="translate(-133.01 -137.29)" fill="#231f20"/>
    <path d="M328.77,356.49c.15,3.76,3.42,4.94,6.88,4.94,2.62,0,6.19-.59,6.19-3.81s-4.16-3.81-8.37-4.75-8.36-2.33-8.36-7.23c0-5.14,5.1-7.27,9.55-7.27,5.64,0,10.15,1.78,10.49,8H341c-.3-3.27-3.17-4.31-5.94-4.31-2.53,0-5.45.69-5.45,3.27,0,3,4.46,3.51,8.37,4.45,4.2.94,8.36,2.33,8.36,7.28,0,6.09-5.69,8.07-10.89,8.07-5.74,0-10.59-2.33-10.84-8.66Z" transform="translate(-133.01 -137.29)" fill="#231f20"/>
  </g>
  <g>
    <path d="M191,148.84c-.41.78-.76,1.23-.7,1.82s.68,1,1,1.63c.27-.7.71-1.23.66-1.78s-.81-1.27-.94-1.67" transform="translate(-133.01 -137.29)" fill="#231f20"/>
    <path d="M201.38,148.84c.4.78.75,1.23.7,1.82s-.68,1-1,1.63c-.27-.7-.72-1.23-.66-1.78s.8-1.27.94-1.67" transform="translate(-133.01 -137.29)" fill="#231f20"/>
    <path d="M185,148.4a.7.7,0,1,0-.7-.7.7.7,0,0,0,.7.7" transform="translate(-133.01 -137.29)" fill="#231f20"/>
    <path d="M185.51,149.4a.7.7,0,0,0-.71-.7.7.7,0,0,0,0,1.4.7.7,0,0,0,.71-.7" transform="translate(-133.01 -137.29)" fill="#231f20"/>
    <path d="M185.85,151.1a.7.7,0,0,0-1.4,0,.7.7,0,0,0,1.4,0" transform="translate(-133.01 -137.29)" fill="#231f20"/>
    <path d="M188.92,145.06a.7.7,0,0,0,0-1.4.7.7,0,0,0,0,1.4" transform="translate(-133.01 -137.29)" fill="#231f20"/>
    <path d="M187.18,145.59a.7.7,0,1,0-.71-.7.7.7,0,0,0,.71.7" transform="translate(-133.01 -137.29)" fill="#231f20"/>
    <path d="M185.81,146.79a.7.7,0,1,0-.7-.7.7.7,0,0,0,.7.7" transform="translate(-133.01 -137.29)" fill="#231f20"/>
    <path d="M190.75,145.22a.7.7,0,1,0-.71-.7.7.7,0,0,0,.71.7" transform="translate(-133.01 -137.29)" fill="#231f20"/>
    <path d="M192.48,145.73a.7.7,0,0,0,.7-.71.7.7,0,0,0-1.4,0,.71.71,0,0,0,.7.71" transform="translate(-133.01 -137.29)" fill="#231f20"/>
    <path d="M194.12,146.5a.71.71,0,1,0-.7-.71.7.7,0,0,0,.7.71" transform="translate(-133.01 -137.29)" fill="#231f20"/>
    <path d="M206.62,147.7a.7.7,0,1,0,.7-.71.71.71,0,0,0-.7.71" transform="translate(-133.01 -137.29)" fill="#231f20"/>
    <path d="M207.56,148.7a.7.7,0,1,0,.7.7.7.7,0,0,0-.7-.7" transform="translate(-133.01 -137.29)" fill="#231f20"/>
    <path d="M207.21,150.4a.7.7,0,1,0,0,1.4.7.7,0,1,0,0-1.4" transform="translate(-133.01 -137.29)" fill="#231f20"/>
    <path d="M203.45,145.06a.7.7,0,1,0-.71-.7.71.71,0,0,0,.71.7" transform="translate(-133.01 -137.29)" fill="#231f20"/>
    <path d="M205.19,145.59a.7.7,0,1,0-.7-.7.7.7,0,0,0,.7.7" transform="translate(-133.01 -137.29)" fill="#231f20"/>
    <path d="M206.56,146.79a.7.7,0,1,0-.7-.7.7.7,0,0,0,.7.7" transform="translate(-133.01 -137.29)" fill="#231f20"/>
    <path d="M201.62,145.22a.7.7,0,1,0-.71-.7.7.7,0,0,0,.71.7" transform="translate(-133.01 -137.29)" fill="#231f20"/>
    <path d="M199.88,145.73a.7.7,0,0,0,.7-.71.7.7,0,0,0-1.4,0,.7.7,0,0,0,.7.71" transform="translate(-133.01 -137.29)" fill="#231f20"/>
    <path d="M197.54,145.79a.71.71,0,1,0,.7-.7.71.71,0,0,0-.7.7" transform="translate(-133.01 -137.29)" fill="#231f20"/>
    <path d="M195,149.58h.78v-3a2.53,2.53,0,0,1-.78-.24Z" transform="translate(-133.01 -137.29)" fill="#231f20"/>
    <path d="M197.38,146.34a2.59,2.59,0,0,1-.79.24v3h.79Z" transform="translate(-133.01 -137.29)" fill="#231f20"/>
    <path d="M195.73,143v-1.78A2.2,2.2,0,0,0,194,143Z" transform="translate(-133.01 -137.29)" fill="#231f20"/>
    <path d="M196.64,143h1.71a2.2,2.2,0,0,0-1.71-1.78Z" transform="translate(-133.01 -137.29)" fill="#231f20"/>
    <path d="M194,143.89a2.2,2.2,0,0,0,4.3,0Z" transform="translate(-133.01 -137.29)" fill="#231f20"/>
    <path d="M197.39,141a2.44,2.44,0,0,1-1-1.56,2.84,2.84,0,0,1,1.59,1V138a2.79,2.79,0,0,1-1.59,1,3.66,3.66,0,0,1,.92-1.74H195a3.54,3.54,0,0,1,.91,1.74,2.79,2.79,0,0,1-1.59-1v2.42a2.84,2.84,0,0,1,1.59-1,2.4,2.4,0,0,1-1,1.56Z" transform="translate(-133.01 -137.29)" fill="#231f20"/>
    <path d="M197.45,191.26a.86.86,0,1,1,0-1.72.86.86,0,1,1,0,1.72M193.32,190a.95.95,0,1,1,0-1.89.95.95,0,0,1,0,1.89m-1.43-4.2-.23-.18a.82.82,0,0,0-1.17,0,3.66,3.66,0,0,0-.51.53l-.24.28.16.13c.45.36.52.75.39,1a.39.39,0,0,1-.23.19,1.31,1.31,0,0,1-.87-.22l-.17-.1-.1.17-.09.12-.11.18a1.69,1.69,0,0,0-.29.81,1,1,0,0,0,0,.17.78.78,0,0,0,.44.45l.11.07c.2.13.49.3.7.42a1.25,1.25,0,0,1-1.2.05,1.87,1.87,0,0,1-1-1.33,3.71,3.71,0,0,1,.66-1.86l.07-.1-.06-.11a3.9,3.9,0,0,1-.31-.61l.68.13.11,0,.08-.09a3.47,3.47,0,0,1,2-1.22,1.46,1.46,0,0,1,1.09.54,1.64,1.64,0,0,1,.4.84l-.39-.29m8.08,3.32a45.22,45.22,0,0,1-7.29-2.62v0a1.88,1.88,0,0,0-.5-1.49,1.84,1.84,0,0,0-1.39-.69,1.89,1.89,0,0,0-.66.13,9.13,9.13,0,0,1-1-1,12,12,0,0,1-2.16-3.76,13.19,13.19,0,0,1-.64-2.49,2.27,2.27,0,0,1-2.3,1.67c0-.15,0-.51-.12-.54a1.74,1.74,0,0,1-2.16.4,20.26,20.26,0,0,0,.81,2.86,17.11,17.11,0,0,0,3.17,5.31,15.86,15.86,0,0,0,1.42,1.42,1.32,1.32,0,0,0,0,.28,2.23,2.23,0,0,0,1.22,1.69,1.68,1.68,0,0,0,1.79-.2,20,20,0,0,0,3.91,1.51,17.67,17.67,0,0,0,4.5.72,8,8,0,0,0,3.9-1.39,10.25,10.25,0,0,0,1.47-1.12l.15-.14a12.68,12.68,0,0,1-4.08-.49" transform="translate(-133.01 -137.29)" fill="#231f20"/>
    <path d="M199.35,198.05a.75.75,0,0,0-.59-.46c-.9,0-.55,2.37-1.62,2.37a.65.65,0,0,1-.72-.63c0-.34.23-.44.23-.71s-.21-.36-.44-.36-.45.1-.45.36.24.37.24.71a.65.65,0,0,1-.72.63c-1.08,0-.72-2.37-1.62-2.37a.74.74,0,0,0-.59.46,2.18,2.18,0,0,1-.29-.93,1,1,0,0,1,1-1c1.2,0,.92,1.64,1.5,1.64a.4.4,0,0,0,.44-.4c0-.47-.83-.91-.83-1.58s.61-1.23,1.28-1.77c.67.54,1.28,1.1,1.28,1.77s-.84,1.11-.84,1.58a.4.4,0,0,0,.44.4c.58,0,.3-1.64,1.5-1.64a1,1,0,0,1,1,1,2.15,2.15,0,0,1-.28.93m-3.14,3.33a.59.59,0,1,1,.58-.59.58.58,0,0,1-.58.59m2.38-5.76a1.56,1.56,0,0,0-.44.06V193a18.36,18.36,0,0,1-3.86-.58v3.23a1.45,1.45,0,0,0-.47-.07,1.5,1.5,0,0,0-1.5,1.5,2.71,2.71,0,0,0,.75,1.7c.17-.41.33-.74.56-.74.46,0,.25,2.28,1.59,2.35a1,1,0,1,0,2,0c1.34-.06,1.12-2.35,1.58-2.35.23,0,.37.31.58.74a2.75,2.75,0,0,0,.74-1.7,1.5,1.5,0,0,0-1.5-1.5" transform="translate(-133.01 -137.29)" fill="#231f20"/>
    <path d="M229.58,198.79a.29.29,0,0,0-.34-.17c-3.09.9-6.93-1.65-10.64-4.13-3.12-2.08-6.07-4-8.59-4a5.08,5.08,0,0,0-2.48.59,4.45,4.45,0,0,0-2,2.28,13.25,13.25,0,0,1-1.23,2.3,3.39,3.39,0,0,0-.74,1.78,1.91,1.91,0,0,0,.64,1.38,7,7,0,0,0,1.62,1.11l.48.23c.61.3,1,.51,1.06.85a20,20,0,0,1-4.6,1.3,40.54,40.54,0,0,1-13.19,0A20.29,20.29,0,0,1,185,201c0-.52.43-.72,1.1-1l.48-.24a8.24,8.24,0,0,0,1.59-1,1.69,1.69,0,0,0,.64-1.3,3.42,3.42,0,0,0-.74-1.78,14,14,0,0,1-1.23-2.3,4.41,4.41,0,0,0-2-2.28,5.1,5.1,0,0,0-2.47-.59c-2.53,0-5.48,2-8.6,4.05-3.71,2.47-7.55,5-10.64,4.13a.27.27,0,0,0-.34.17.3.3,0,0,0,.15.36,12.5,12.5,0,0,1,2.57,1.68c1.12.87,2.17,1.69,3.33,1.69a8,8,0,0,0,3.71-1.1,39.32,39.32,0,0,0,3.78-2.38c2.45-1.67,5-3.39,7.36-3.58-.25.26-.49.48-.72.68a2.88,2.88,0,0,0-1.32,2.29,5,5,0,0,0,.72,2.35l.4.86a9.57,9.57,0,0,1,.54,1.72c.07.28.14.6.24,1a3.64,3.64,0,0,0,2.19,2.53c2,1,5.55,1.56,10.43,1.56s8.4-.52,10.43-1.56a3.61,3.61,0,0,0,2.19-2.53c.11-.37.18-.69.25-1a8.84,8.84,0,0,1,.54-1.72c.2-.43.38-.79.55-1.1a4,4,0,0,0,.66-2,3,3,0,0,0-1.39-2.36c-.23-.21-.49-.44-.75-.71,2.4.2,4.92,1.92,7.37,3.59a39.32,39.32,0,0,0,3.78,2.38,8.09,8.09,0,0,0,3.72,1.1c1.15,0,2.2-.83,3.32-1.7a13.38,13.38,0,0,1,2.57-1.68.29.29,0,0,0,.15-.36" transform="translate(-133.01 -137.29)" fill="#231f20"/>
    <path d="M196.61,174.8V163.2a8.76,8.76,0,0,1,3.49.9,10,10,0,0,1,3.2,2.52,12.32,12.32,0,0,1,2.16,3.77,13.34,13.34,0,0,1,.79,4.41Zm-.41-16.44a12.27,12.27,0,0,0-6.87,1.85c-.76-.45-1.09-.89-1.09-1.42,0-1.86,5.28-2,8-2h0c2.68,0,8,.17,8,2,0,.53-.33,1-1.1,1.42a12.27,12.27,0,0,0-6.87-1.85M196,174.8h-9.87a13.34,13.34,0,0,1,.79-4.41,12.12,12.12,0,0,1,2.16-3.77,10,10,0,0,1,3.2-2.52,8.68,8.68,0,0,1,3.72-.91Zm15-.74a4,4,0,0,1-1.18-1.39c-.37-.76-1.9-3.77-2.14-4.17a1.83,1.83,0,0,1-.3-.91,1.35,1.35,0,0,1,.32-.8,8,8,0,0,0,.58-.67,3.35,3.35,0,0,1,.27-.36,14.77,14.77,0,0,0-1.86-2.52,15,15,0,0,0-3-2.59,2.19,2.19,0,0,0,1.19-1.86,1.71,1.71,0,0,0-.62-1.31,17.37,17.37,0,0,1,2.67-5.41l-2-.84a3.12,3.12,0,0,1,.44,2.24,2.5,2.5,0,0,1-1.1-1.5,8.88,8.88,0,0,1-.73,2.16,1.81,1.81,0,0,1,1.61-.15,2.37,2.37,0,0,1-2.5.83c-.7-.17-1.4-.54-1.37-1.09a.66.66,0,0,1,.7-.67c.43,0,.45.7.32,1,.57-.32,1.16-2,.27-2.23-.7-.19-1.34.77-1.57,1.5-.13-.89-.5-1.73-1.2-1.69-.92.07-.62,1.75-.3,2.18,0-.59.38-.91.65-.88s.56.19.51.72-.82.87-1.7.87a2.16,2.16,0,0,1-2.45-1.88,3.08,3.08,0,0,1,1.76,1.06,11,11,0,0,1,0-2.69,2.72,2.72,0,0,1-1.74,1.05,3.26,3.26,0,0,1,1.45-1.86h-3.61a3.24,3.24,0,0,1,1.44,1.86,2.75,2.75,0,0,1-1.71-1.05,10.09,10.09,0,0,1,0,2.69,3,3,0,0,1,1.74-1.05,2.17,2.17,0,0,1-2.45,1.87c-.88,0-1.65-.33-1.7-.87s.27-.71.51-.72.59.29.65.88c.31-.43.61-2.11-.3-2.18-.71,0-1.07.8-1.21,1.69-.23-.73-.86-1.69-1.56-1.5-.89.25-.3,1.91.27,2.23-.14-.29-.11-.95.32-1a.67.67,0,0,1,.7.67c0,.55-.67.92-1.38,1.09a2.36,2.36,0,0,1-2.49-.82,1.81,1.81,0,0,1,1.64.14,8.47,8.47,0,0,1-.73-2.16,2.6,2.6,0,0,1-1.13,1.52,3.11,3.11,0,0,1,.43-2.26l-2,.84a17.39,17.39,0,0,1,2.67,5.43,1.67,1.67,0,0,0-.59,1.29,2.18,2.18,0,0,0,1.18,1.86,15,15,0,0,0-3,2.59,16.78,16.78,0,0,0-3.17,5.28c.28.29,1.46,1.58,1.75,1.93a3.34,3.34,0,0,1,.8,1.74,2.65,2.65,0,0,0,.69,1.86,3.23,3.23,0,0,1,.39,1.32H196v10.74a1.48,1.48,0,0,0-1.13.53c1.14.46,2.22.87,3.31,1.21a2.93,2.93,0,0,1,.6-1.57s-1.43-.14-2.2-.18V175.37h9.64a13.4,13.4,0,0,1-.79,4.25,12.15,12.15,0,0,1-2.16,3.76,9.91,9.91,0,0,1-3.2,2.53c-.19.09-.19.23-.38.31a2.77,2.77,0,0,0-.48.87,4.06,4.06,0,0,0-.22,1c.46.14.7.21,1.13.32,3.39.85,4.22.6,4.41.45h0a15.33,15.33,0,0,0,2.13-2,17.09,17.09,0,0,0,3.17-5.32A18.57,18.57,0,0,0,211,175c0-.41,0-.55,0-.95" transform="translate(-133.01 -137.29)" fill="#231f20"/>
    <path d="M202,167.91a.26.26,0,0,0,.19.46.63.63,0,0,0-.22.41.65.65,0,0,0,.45-.11.29.29,0,0,0,.1.33.24.24,0,0,0,.26,0,10.73,10.73,0,0,1,1.45,3.92.69.69,0,0,0-.36-.1.57.57,0,0,0,.19.44h-2.41a.3.3,0,0,0-.16-.32.29.29,0,0,0-.32.12.64.64,0,0,0-.19-.42.6.6,0,0,0-.19.42.3.3,0,0,0-.33-.12.33.33,0,0,0-.16.32h-2.05a.62.62,0,0,0,.14-.4.6.6,0,0,0-.41.15v-3.34a.28.28,0,0,0,.33-.15.29.29,0,0,0-.12-.33.26.26,0,1,0,0-.38.29.29,0,0,0,.12-.33.28.28,0,0,0-.33-.15v-2.82a.65.65,0,0,0,.35.14.58.58,0,0,0-.09-.4,7.39,7.39,0,0,1,1.85.91,9,9,0,0,1,1.91,1.75m2.72,5c.17.11.12.38-.1.35a11.06,11.06,0,0,0-1.85-4.89l0,0a.62.62,0,0,0,.41-.5.66.66,0,0,0-.63.27,2.47,2.47,0,0,0-.21-.27,9.22,9.22,0,0,0-2.09-2,7.83,7.83,0,0,0-2.32-1.06.19.19,0,0,1,.36-.05.34.34,0,0,0-.39-.4.26.26,0,0,0-.17.24.63.63,0,0,0-.44-.23.65.65,0,0,0,.14.46.28.28,0,0,0-.26.13c-.08.14,0,.42.34.45-.15-.12-.09-.36.1-.34v3.77a.34.34,0,1,0,0,.32v4.09a.18.18,0,0,1-.1-.34.35.35,0,0,0-.37.42.29.29,0,0,0,.32.14.26.26,0,1,0,.26.27.29.29,0,0,0,.16.31c.14.07.41-.06.41-.36a.19.19,0,0,1-.35-.08h2.84a.65.65,0,0,0,.17.62.64.64,0,0,0,.16-.62h3.17a.19.19,0,0,1-.35.09.34.34,0,0,0,.43.36.29.29,0,0,0,.15-.32.62.62,0,0,0,.43.16.63.63,0,0,0-.18-.43.28.28,0,0,0,.31-.15.34.34,0,0,0-.38-.42" transform="translate(-133.01 -137.29)" fill="#231f20"/>
    <path d="M203,171.86a.51.51,0,0,0,.26-.24.29.29,0,0,1-.27,0c.09-.05.21,0,.09-.17s-.18-.18-.3,0a.7.7,0,0,1-.88-.61.59.59,0,0,0,.27.22l.09,0,.1,0a.42.42,0,0,0,.22,0h0v0a.37.37,0,0,0,.3-.3c0-.32-.28-.47-.61-.74-.13-.11-.22-.2-.31-.29s0-.43-.32-.84a1.89,1.89,0,0,0-.1-.37,1.07,1.07,0,0,0,.18,1.22c.32.35,1,.68,1,1,0,.07-.07.13-.18.15h-.09l-.06,0-.15-.07a.89.89,0,0,1-.24-.19,6.64,6.64,0,0,1-.7-.86,1.28,1.28,0,0,1-.13-1.14c.22-.3-.13-.94-.35-1.09a.56.56,0,0,0,0-.33s-.14,0-.2,0-.08-.14-.16-.16-.13-.1-.14-.15-.11.14-.19.15-.16,0-.21,0a.27.27,0,0,1-.24.08c-.12,0-.12.07-.11.17s0,.15.09.18l0,0,.11.12.06-.13c.06,0,.23-.06.26.05s0,.11-.07.12a1.32,1.32,0,0,1-.28,0c-.07,0-.07.1-.07.16s.09.11.24.07.43-.06.43.07c0,.34-.39.33-.48.73a.64.64,0,0,1-.24-.22,2,2,0,0,0-.29-.36,1.76,1.76,0,0,0-.29-.24c-.14-.08-.14-.15-.14-.29s0-.23,0-.34a.34.34,0,0,0,0-.1.17.17,0,0,0-.18-.12.13.13,0,0,1,.07.12.18.18,0,0,0,0,.06.08.08,0,0,0,0,.12s0,0,0,0a.18.18,0,0,1,0,.06s0,0,0,0-.07-.21-.15-.22h-.05c0-.09-.1-.16-.21-.05a.14.14,0,0,1,.09,0,.29.29,0,0,0,0,.09c0,.09.06.13.16.13s0,0,0,0,0,0,0,0,0,0,0,0-.23,0-.23.07v.06c-.05,0-.06.12,0,.19s0-.08,0-.1h0l.05,0s0,0,.08,0h0l.05,0s0,0,0,0-.08.19,0,.22a.13.13,0,0,1-.23-.09c-.13.21.09.36.27.29,0,.07,0,.22,0,.23a0,0,0,0,1,0,0l0,0a.11.11,0,0,0,.09.12.06.06,0,0,1,0-.07l.09.15a1.53,1.53,0,0,0,.68.75,1.73,1.73,0,0,0-.48.45c-.11.11-.28.23-.39.17s-.05-.07-.12-.12a.17.17,0,0,0-.13,0,.15.15,0,0,0-.06,0,.2.2,0,0,0-.22.06.17.17,0,0,1,.15,0V170s0,.1.25.09c0,0,0,0,0,0s-.06.05-.11,0-.14-.1-.21,0l-.05,0h0c-.08,0-.16.19-.06.26a.17.17,0,0,1,.06-.13l0,0c.06.09.13.14.27-.07,0,0,0,0,0,0s-.1.24,0,.25h.06a0,0,0,0,0,0,0,.18.18,0,0,0,.23.11.23.23,0,0,1-.13-.14s.06,0,.06,0,0-.17,0-.22,0,0,0,0a.15.15,0,0,0,.2.08.19.19,0,0,0,.08-.14.55.55,0,0,1,.38-.07c0-.08.06-.18.22-.22a.23.23,0,0,1,.26.05.76.76,0,0,1,.16-.26c0,.6.79.59,1,1a1.43,1.43,0,0,0-.67-.13c-.2,0-.54.22-.59.44a.86.86,0,0,0,.35.65c-.23,0-.31,0-.53,0h0c-.18,0-.21-.3-.43-.22l-.06,0h0c-.08,0-.2.11-.18.19a.34.34,0,0,1,.14-.08.13.13,0,0,0,0,0s0,.07.09.07l.08,0a0,0,0,0,1,0,0c0,.08-.27-.05-.23.18l.05.07c0,.06,0,.14.17.1,0,0-.07,0-.06-.09h.05s0,0,0,0h0s0,0,0,0,0,0,0,0a.25.25,0,0,0,0,.07c0,.09.11.17.23.09,0,0-.11,0-.11-.06l.05,0a.08.08,0,0,0,0-.07s0,0,0,0h.06s0,0,0,0a.14.14,0,0,0,.17.07.23.23,0,0,0,.07-.06l.1.06c0-.09,0-.16.22,0l.14-.1s.18.07.25,0,0-.1,0-.2-.12-.16-.16-.33.35-.47.6-.42a1.29,1.29,0,0,0,.76.83c.27.1.39-.2.48-.16s0,0,.05.08a2.19,2.19,0,0,1,0,.33c0,.06-.18,0-.28,0a.14.14,0,0,0-.11,0,.19.19,0,0,0-.18.19.27.27,0,0,1,.15-.08.06.06,0,0,1,0,0,.13.13,0,0,0,.22.07s0,0,0,0-.19.16-.08.21l.06,0a.13.13,0,0,0,.11.15s0-.06,0-.14h.06c.08,0,.05-.14.13-.19s0,0,0,0,0,.18,0,.21h.06c0,.07.1.12.21.06s-.08,0-.09-.07l0-.07c.06-.18-.1-.19-.1-.26s.18,0,.18-.21c0,0,0,0,0,0s.18-.1.18-.17a.41.41,0,0,1-.22,0Z" transform="translate(-133.01 -137.29)" fill="#231f20"/>
    <path d="M194.06,177.24l-.13,0a.32.32,0,0,0-.37.27.3.3,0,0,0,.32.34h.1s0,.08,0,.13c0,.29-.12.79-.21,1.35l-1.47-2.11a7.52,7.52,0,0,1,1.54-.57c.24,0,.29.12.24.6m-.56,3.66-2.32-3.33a5.33,5.33,0,0,0,.74-.22l1.75,2.49c-.06.35-.11.71-.17,1.06m-.24,1.5L190,177.67h.3a2.92,2.92,0,0,0,.51,0l2.64,3.79c-.06.36-.12.7-.16,1m-3.72-4.69,3.61,5.18a5.13,5.13,0,0,1-3.61-5.18m5.37-.41h-.17v-.16a.9.9,0,0,0-.95-1c-.55,0-1.62.72-3.12.72a4.08,4.08,0,0,1-1.87-.59l-.19.45v0a.36.36,0,0,0-.36-.37.37.37,0,0,0-.38.37.38.38,0,0,0,.38.37.37.37,0,0,0,.28-.14l-.18.44.19.08a6.12,6.12,0,0,0,4.43,6.05c.44-.11.89-.05.89.43,0,.3-.15.43-.41.43s-.29-.11-.29-.22.34-.08.38-.22-.07-.26-.28-.26a.5.5,0,0,0-.52.48.65.65,0,0,0,.68.65.87.87,0,0,0,.93-1c.16,0,.33,0,.37-.17l0-.46-.16,0,.12-5.21h.12c.19,0,.36-.07.37-.28a.31.31,0,0,0-.31-.32" transform="translate(-133.01 -137.29)" fill="#231f20"/>
    <path d="M192.28,166.31s0-.07.06-.07.06,0,.07-.05,0-.06-.06-.09.06,0,0,0-.07,0-.08,0,0,0,0,0a0,0,0,0,1,.05,0l.19.09s0,0,0,0,0,.05,0,.06,0-.05-.05-.06,0,0,0,.07-.08,0-.1,0a.09.09,0,0,0,0,.1s0,0,0,.09a.11.11,0,0,1-.14.07.11.11,0,0,1,0-.15m.22-.48c0,.06-.1.1-.15,0s0-.06,0-.16a.58.58,0,0,0,.2.11m.14.08.23.09c-.11,0-.08.06-.15.06s-.1-.09-.08-.15m-.51.12h0m2.15.79c.71,0,1.05-.23,1.05-.45,0-.78-1.93-.29-1.93-.77a.33.33,0,0,1,.14-.21h0c1-.09,1-.76,1.68-.89-.83-.12-.95.54-1.31.57a.45.45,0,0,0,.24-.41c-.17.23-.54.25-.75.51a.19.19,0,0,0,0,.14.36.36,0,0,0-.2.28c0,.74,2,.24,2,.77,0,.19-.34.32-.88.32s-.69-.29-1.44-.1c0-.12.25-.36.15-.48a.17.17,0,0,0,.13-.15.32.32,0,0,0-.15-.06s0-.08,0-.11,0-.08,0-.1a.9.9,0,0,0-.18-.12.35.35,0,0,0-.17,0,.34.34,0,0,0-.11,0c-.05,0-.09,0-.1.05a.18.18,0,0,0-.14-.06.26.26,0,0,0,0,.2c-.06,0-.14.19-.21.17a.19.19,0,0,0,.07.08c-.06.1-.08.23-.15.23l.05.06a2,2,0,0,0-.1.45h0a.7.7,0,0,0-.16-.13c-.11-.06-.11-.12-.09-.23s.08-.19.09-.27a.29.29,0,0,0,0-.09.12.12,0,0,0-.15-.1.09.09,0,0,1,.05.1l-.05,0s-.05.07,0,.1a0,0,0,0,1,0,0s0,0,0,0,0,0,0,0,0-.17-.1-.18h-.05v0c0-.07-.07-.13-.18,0a.08.08,0,0,1,.07,0l0,.07c0,.08,0,.11.13.11h0a0,0,0,0,1,0,0s0,0,0,0-.2,0-.21.06a.43.43,0,0,0,0,.05c-.05,0-.07.1,0,.15s0-.07.05-.08h0s0,0,0,0a.15.15,0,0,0,.08,0s0,0,0,0l0,0v0c-.11.08-.1.16,0,.19s0,0,0,0c0,.16-.26.12-.22,0-.16.18.05.32.23.23,0,0,0,0,0,0s0,.06.05.06a0,0,0,0,1,0,0s0,0,0,0a.07.07,0,0,0,.06.1s0-.06,0-.06.08.13.18.24a2.38,2.38,0,0,1-.43.13,1,1,0,0,0-.34,0c-.12.06-.39.16-.47,0s0-.07-.05-.13-.06-.07-.09-.07h-.07a.16.16,0,0,0-.18,0,.2.2,0,0,1,.11.07.11.11,0,0,0,0,.06s0,.09.16.15c0,0,0,0,0,0a.09.09,0,0,1-.1,0c-.07,0-.07-.13-.16-.08l-.05,0h0c-.07,0-.19.08-.14.17a.15.15,0,0,1,.09-.08l0,.06c0,.08.06.15.24,0,0,0,0,0,0,0s-.16.16-.07.22l0,0h0a.15.15,0,0,0,.15.17.15.15,0,0,1-.06-.15l0,0c.09,0,.05-.14.09-.18s0,0,0,0,0,.15.13.14a.14.14,0,0,0,.13-.15h0a.09.09,0,0,1,0,.11.13.13,0,0,0,.08-.07.17.17,0,0,1,0,.18.3.3,0,0,0,.17-.18l0,.06h0a.38.38,0,0,0,.21,0s0,0,0,0a.11.11,0,0,0,0,.1s0,0,0,0,0,.1.06.16c0-.26.17-.16.33-.26s0,0,0,0a.25.25,0,0,1-.07.08c.06,0,.2-.06.2-.15s.05-.05.1-.09a.2.2,0,0,0,.19-.08s0,.1,0,.12c.17,0,.35-.18.41-.2.37-.08-.23-.34.53-.3a.37.37,0,0,0,.22-.08c-.06.11-.06.34,0,.36a.5.5,0,0,1,.2.08s0,0,0,0l-.16,0c-.18.12-.18-.26-.37-.19l0,0c-.07,0-.18.09-.16.16a.17.17,0,0,1,.12-.06v0s0,.06.07.06h.08s0,0,0,0-.23,0-.19.15a.11.11,0,0,0,0,.06c0,.06,0,.12.15.09s-.06,0,0-.07h0s0,0,0,0,0,0,0,0a0,0,0,0,1,0,0s0,0,0,0l0,.06a.12.12,0,0,0,.2.07s-.09,0-.1,0l.05,0a.12.12,0,0,0,0-.07h.1a.12.12,0,0,0,.15.07c.12-.05,0-.15.12-.18h.07c.1,0,.25,0,.27,0a.26.26,0,0,0-.09-.29c-.06,0,0-.11-.06-.2a1.06,1.06,0,0,0,.38.09c.27,0,0,0,.13-.11a.44.44,0,0,1,.32,0s.07,0,.06.07,0,.16,0,.22-.14,0-.22,0a.08.08,0,0,0-.08,0c-.07,0-.15.08-.15.15a.53.53,0,0,1,.13-.06v0a.1.1,0,0,0,.18.06s0,0,0,0-.16.13-.08.17l0,0a.13.13,0,0,0,.09.13s0-.05,0-.12h0c.06,0,0-.12.1-.15h0c0,.07,0,.15,0,.17l.05,0a.1.1,0,0,0,.16,0,.15.15,0,0,1-.07-.05l.05-.07c0-.14-.09-.14-.09-.2s.15,0,.15-.18a.11.11,0,0,0-.06-.08h0s.08,0,.1-.05-.07-.08-.09-.14,0,0,0,0,.06-.07,0-.16-.15.11-.17,0,0-.08-.11-.06-.27-.08-.61-.11c0,0,0,0,0,0" transform="translate(-133.01 -137.29)" fill="#231f20"/>
    <path d="M191.1,170.54h0m-.56-1.21c0-.05,0-.08.07-.08a.08.08,0,0,0,.09-.06c0-.05,0-.07-.08-.11s.08,0,0-.06-.08,0-.09,0,0,0,0-.06,0,0,.07,0l.22.1s0,0,0,.06,0,.06,0,.07,0-.06-.06-.07,0,0,0,.08-.11,0-.13,0a.08.08,0,0,0,0,.11s0,.06,0,.12-.08.12-.16.07a.12.12,0,0,1,0-.17m.25-.55c0,.06-.1.11-.17.05s0-.08-.06-.19a1.28,1.28,0,0,0,.23.14m.17.08a1,1,0,0,0,.27.11c-.13,0-.09.07-.17.07s-.11-.11-.1-.18m-1.09,1s0,0,0,0h0m5.39-.4c0-.21-.24-.35-.93-.35s-2.24.26-2.24-.13c0-.19.3-.18.67-.15a.26.26,0,0,0,.14.08c.89.26,1.94-.21,2.48-.06-.63-.48-1.16,0-1.84-.13.4,0,.53-.11.55-.22-.31.2-.89-.1-1.25.12l-.06,0c-.49,0-.88,0-.88.31,0,.69,1.84.29,2.42.29s.71.05.71.17-.58.2-.9.2a15,15,0,0,0-2.94-.08c.08-.15.24-.34.15-.45a.21.21,0,0,0,.15-.17.33.33,0,0,0-.17-.08s0-.09,0-.12,0-.11,0-.12a1.07,1.07,0,0,0-.2-.14.77.77,0,0,0-.21-.06l-.13,0s-.1,0-.11,0a.25.25,0,0,0-.16-.06.28.28,0,0,0,0,.24c-.09,0-.17.22-.25.19s0,.08.08.09-.1.27-.18.27.09.1.12.1a2.65,2.65,0,0,0,0,.27l-.15-.05h0l-.06,0H190l-.08,0a2.08,2.08,0,0,0-.3-.25c-.13-.08-.14-.15-.13-.29s.07-.23.07-.34a.61.61,0,0,0,0-.11.17.17,0,0,0-.18-.12.13.13,0,0,1,.07.13l-.06.06a.09.09,0,0,0,0,.12v0a.18.18,0,0,1,0,.06s0,0,0,0-.06-.21-.13-.22h-.06v0c0-.09-.1-.16-.2-.05a.1.1,0,0,1,.08,0,.19.19,0,0,0,0,.09c0,.09.05.12.15.12s0,0,0,0a.06.06,0,0,0,0,0s0,0,0,0-.22,0-.23.08v.06c-.06,0-.07.12,0,.19s0-.09,0-.1l0,0s0,0,0,0,0,0,.09,0h0l0,0a0,0,0,0,1,0,0c-.11.1-.1.2,0,.23s0,0,0,0a.13.13,0,1,1-.25,0c-.16.23.09.4.28.28,0,0,0,0,0,0s0,.07.06.07a0,0,0,0,1,.05,0s0,0,0,0,0,.11.08.12,0-.07,0-.07.12.15.28.23.22.2.3.12c0,.13.11.28.08.28a1.6,1.6,0,0,0-.48,0c-.13.07-.45.18-.54,0s0-.08-.07-.15a.2.2,0,0,0-.1-.09H189a.18.18,0,0,0-.22,0,.13.13,0,0,1,.12.08l0,.06s0,.11.19.18a0,0,0,0,1,0,0,.09.09,0,0,1-.11,0c-.08-.06-.09-.15-.19-.1l-.06,0h0c-.09,0-.23.1-.17.2a.17.17,0,0,1,.11-.09.25.25,0,0,1,0,.07c0,.1.07.18.28,0,0,0,0,0,0,0s-.19.17-.08.24l.05,0v0a.18.18,0,0,0,.17.2A.24.24,0,0,1,189,171H189c.1,0,.06-.16.11-.2s0,0,0,0,0,.17.15.15a.16.16,0,0,0,.16-.17h0a.11.11,0,0,1,.06.12.22.22,0,0,0,.09-.08.18.18,0,0,1,0,.21.31.31,0,0,0,.19-.21.18.18,0,0,1,0,.07,0,0,0,0,1,0,0,.61.61,0,0,0,.24,0s0,0,0,0a.13.13,0,0,0,0,.12s0-.07,0-.07,0,.12.08.2c0-.31.19-.19.38-.31,0,0,0,0,0,0s0,.07-.08.1c.21,0,.55-.28.6-.41l.2,0c.6.06.18-.54,1.15-.37a.38.38,0,0,0,.24-.11c-.07.13-.07.39.06.41a.67.67,0,0,1,.23.1s0,0,0,0a.69.69,0,0,0-.19,0c-.2.14-.21-.31-.43-.22l-.06,0c-.08,0-.2.1-.18.19a.3.3,0,0,1,.14-.08v.05s0,.07.08.07l.08,0s0,0,0,0-.27,0-.22.19c0,0,0,.05,0,.06s.05.14.17.1c0,0-.07,0-.06-.08h0s0,0,0,0h0l0,0s0,0,0,.05a.19.19,0,0,0,0,.07c0,.08.11.17.24.09,0,0-.11,0-.13-.06l.06,0s0-.05,0-.08,0,0,0,0h.06s0,0,0,0a.13.13,0,0,0,.17.07c.14,0,0-.18.14-.2h.08c.12,0,.29,0,.32,0a.3.3,0,0,0-.11-.34c-.07,0,0-.12-.06-.23a1,1,0,0,0,.43.11.78.78,0,0,0,.54-.14.52.52,0,0,1,.38,0s.08,0,.06.08,0,.17,0,.25-.16,0-.25,0a.11.11,0,0,0-.1.05.19.19,0,0,0-.17.18.35.35,0,0,1,.15-.08v0a.11.11,0,0,0,.2.07s0,0,0,0-.18.15-.09.19l.06,0a.15.15,0,0,0,.1.15s0-.06,0-.14h0c.07,0,0-.14.12-.18h0c0,.08,0,.18,0,.2H195a.12.12,0,0,0,.19.06s-.07,0-.08-.06a.45.45,0,0,0,0-.08c.05-.17-.1-.17-.1-.24s.17,0,.17-.2a.1.1,0,0,0-.07-.1h0s.09,0,.12-.06c-.13,0-.09-.1-.11-.16a0,0,0,0,1,0,0,.16.16,0,0,0,.05-.18c0,.06-.17.12-.19,0s0-.09-.13-.07a4,4,0,0,1-.75-.06c.45,0,1.12-.12,1.12-.37" transform="translate(-133.01 -137.29)" fill="#231f20"/>
    <path d="M189.75,172.38s0-.08.06-.08.07,0,.09-.05,0-.08-.07-.1.07,0,0-.06-.08,0-.09,0,0,0,.05-.05,0,0,.06,0l.21.1s0,0,0,.05,0,.07,0,.07,0-.06-.06-.07,0,0,0,.08-.1,0-.12,0a.09.09,0,0,0,0,.11s0,0,0,.1a.12.12,0,0,1-.15.08.12.12,0,0,1,0-.17m.24-.53c0,.06-.1.11-.16.05s0-.06-.06-.17a1,1,0,0,0,.22.12m.16.09a1.42,1.42,0,0,0,.26.1c-.12,0-.09.06-.17.06s-.1-.1-.09-.16m4.8.53c0-.2-.22-.33-.88-.33s-2.67.25-2.67-.12.68-.14,1.18-.13a.22.22,0,0,0,.15.09c.84.24,1.73-.32,2.33-.12-.48-.44-1.1,0-1.73-.09.37,0,.76-.07.78-.18-.29.19-1.11-.13-1.45.09,0,0,0,0-.06,0-.62,0-1.39-.09-1.39.29,0,.65,2.3.27,2.86.27s.66.06.66.16-.55.19-.86.19a15.65,15.65,0,0,0-3.51,0c0-.15.25-.36.16-.48.08,0,.14-.1.14-.16a.3.3,0,0,0-.16-.08s0-.08,0-.11,0-.1,0-.12-.1-.08-.2-.13a.88.88,0,0,0-.19,0s-.11,0-.12,0-.11,0-.12,0a.3.3,0,0,0-.14-.06.29.29,0,0,0,0,.23c-.08,0-.16.2-.23.18s.05.08.07.09-.09.25-.16.26l.07.08,0,.2-.06,0h-.22c-.1,0-.17-.18-.35-.28s-.14-.14-.14-.28.06-.21.05-.32l0-.1c0-.07-.12-.13-.17-.11a.12.12,0,0,1,.06.11l0,.06a.09.09,0,0,0,0,.12v0a.11.11,0,0,1,0,.05s0,0,0,0-.06-.2-.14-.2h-.05c0-.08-.09-.15-.19-.05a.13.13,0,0,1,.08,0,.51.51,0,0,0,0,.09c0,.09.06.12.15.12a0,0,0,0,1,0,0l0,0s0,0,0,0-.21,0-.21.07,0,0,0,.06-.07.12,0,.18,0-.08,0-.09h0l0,0a.15.15,0,0,0,.09,0h0l0,0a0,0,0,0,1,0,0c-.1.1-.08.19.05.22s0,0,0,0c0,.18-.25.14-.24,0-.14.21.1.37.28.27h0s0,.07.06.07a0,0,0,0,1,.05,0,0,0,0,0,1,0,0,.11.11,0,0,0,.09.12s0-.08,0-.08a1.89,1.89,0,0,0,.43.4c.05,0,.13,0,.15-.07s0,0,.06.06.09.27.06.27a2,2,0,0,0-.54,0c-.13.07-.42.18-.51.05a.77.77,0,0,1-.06-.15.14.14,0,0,0-.1-.08h-.07a.18.18,0,0,0-.21,0,.13.13,0,0,1,.12.07s0,.06,0,.06,0,.11.18.17c0,0,0,0,0,0a.09.09,0,0,1-.11,0c-.07-.06-.09-.14-.17-.09l-.07,0h0c-.08,0-.21.1-.15.2a.13.13,0,0,1,.1-.09l0,.06c0,.1.06.18.26,0,0,0,0,0,0,0s-.18.17-.08.24l0,0v0a.17.17,0,0,0,.16.19.24.24,0,0,1-.06-.17l.06,0c.09,0,.05-.16.1-.19s0,0,0,0,0,.15.15.14a.16.16,0,0,0,.15-.16s0,0,0,0a.13.13,0,0,1,.05.12s.06,0,.09-.07a.19.19,0,0,1-.05.19.29.29,0,0,0,.19-.19s0,0,0,.06h0a.37.37,0,0,0,.23,0s0,0,0,0,0,.1,0,.12,0,0,.05,0,0,.11.06.17c0-.28.37-.14.55-.26,0,0,0,0,0,0a.19.19,0,0,1-.08.1.47.47,0,0,0,.24-.1l0,0,.29-.13s0-.06,0-.09l.1,0h0c.19,0,.17-.14.24-.13,1.07.15.46-.46,1.72-.34.06,0,.09,0,.14-.07-.07.12-.07.33.06.35a.6.6,0,0,1,.22.09s0,0,0,0a.56.56,0,0,0-.18.05c-.19.12-.2-.3-.41-.22l-.05,0c-.09,0-.2.09-.18.18a.21.21,0,0,1,.13-.08v.05s0,.06.08.06.05,0,.08,0,0,0,0,0-.26,0-.21.17l0,.07c0,.06.05.13.16.09s-.06,0,0-.08h0s0,0,0,0h0s0,0,0,0,0,0,0,0a.25.25,0,0,0,0,.07c0,.08.1.16.22.08,0,0-.11,0-.12-.06l.06,0s0,0,0-.08l0,0h.06s0,0,0,0a.12.12,0,0,0,.16.07c.13-.05,0-.17.13-.19s.06,0,.08,0,.28,0,.3,0a.29.29,0,0,0-.1-.32c-.07,0,0-.12-.06-.22a1,1,0,0,0,.41.1.76.76,0,0,0,.51-.13.47.47,0,0,1,.36,0s.07,0,.06.07,0,.17,0,.24-.16,0-.24,0a.09.09,0,0,0-.09.05.19.19,0,0,0-.17.17.26.26,0,0,1,.14-.07,0,0,0,0,0,0,0,.11.11,0,0,0,.19.07s0,0,0,0-.17.16-.08.19l.06,0a.13.13,0,0,0,.09.14.15.15,0,0,1,0-.13h0c.07,0,0-.14.11-.17h0c0,.07,0,.17,0,.19h.05a.12.12,0,0,0,.18.05.14.14,0,0,1-.08-.06l.05-.07c0-.16-.09-.16-.09-.23s.16,0,.16-.19a.11.11,0,0,0-.07-.1h0s.1,0,.12,0-.08-.1-.1-.16,0,0,0,0a.19.19,0,0,0,0-.17c0,.05-.17.12-.18,0s0-.08-.13-.06a3.61,3.61,0,0,1-.71-.06c.37,0,1.06-.1,1.06-.35" transform="translate(-133.01 -137.29)" fill="#231f20"/>
    <path d="M200,177.76h0m-1-1.53h0m-.05.23h0Zm.17.29s0-.08.07-.08.07,0,.09,0,0-.07-.08-.1.08,0,.05-.06-.08,0-.08,0,0,0,0-.06,0,0,.07,0l.21.1a.06.06,0,0,1,0,.06s0,.06,0,.06,0-.06-.05-.07,0,0,0,.08-.1,0-.13,0,0,.06,0,.1,0,0,0,.11a.12.12,0,0,1-.15.07.13.13,0,0,1,0-.17m.25-.53c0,.07-.1.11-.16.06s0-.07-.07-.18a1,1,0,0,0,.23.12m.16.08a1,1,0,0,0,.25.11c-.11,0-.09.07-.16.07s-.11-.11-.09-.18m4.73,1.23a0,0,0,0,1,0,0,.16.16,0,0,0,.07-.17c-.05.06-.18.12-.19,0s0-.09-.12-.07a5,5,0,0,1-.77-.05s0,0,0,0c.38,0,1.07-.09,1.07-.33s-.22-.33-.88-.33-2.67.24-2.67-.13.68-.14,1.18-.12a.32.32,0,0,0,.15.09c.84.24,1.81-.4,2.32-.25-.67-.23-1.09.17-1.73,0,.38,0,.77-.08.79-.18-.29.19-1.11-.13-1.45.09a.15.15,0,0,0-.06,0c-.62,0-1.38-.08-1.38.29,0,.65,2.29.27,2.84.27s.68.06.68.16-.55.2-.86.2a15.16,15.16,0,0,0-3.52,0c0-.15.26-.37.16-.48a.21.21,0,0,0,.14-.17.27.27,0,0,0-.16-.08s0-.08,0-.11,0-.1-.05-.11a.55.55,0,0,0-.19-.13.58.58,0,0,0-.2-.06l-.11,0s-.11,0-.11,0a.29.29,0,0,0-.16-.07.38.38,0,0,0,0,.24c-.08,0-.16.2-.23.18s0,.08.07.08-.09.26-.16.26.08.1.11.1a1.54,1.54,0,0,0,0,.19l-.11,0h-.11l-.1,0c-.11,0-.19-.18-.36-.28s-.14-.14-.14-.27.06-.22.05-.32a.54.54,0,0,0,0-.1.19.19,0,0,0-.18-.12.13.13,0,0,1,.07.12l0,.06a.08.08,0,0,0,0,.11v0s0,0,0,.06,0,0,0,0-.07-.2-.14-.21h-.05v0c0-.08-.09-.15-.19,0s.07,0,.08,0l0,.08c0,.09.05.12.14.12s0,0,0,0a.06.06,0,0,1,0,0s0,0,0,0-.21,0-.21.07,0,0,0,.05-.06.12,0,.18,0-.08,0-.09h0l0,0a.15.15,0,0,0,.09,0h0l0,0s0,0,0,0-.08.2.05.22,0,0,0,0c0,.19-.25.15-.24,0-.14.22.1.38.28.27h0s0,.07.06.07a0,0,0,0,1,0,0l0,0c0,.05,0,.12.09.12s0-.07,0-.07a1.64,1.64,0,0,0,.42.42s.1-.07.16-.1a.16.16,0,0,0,.09.12l.05,0c0,.12.13.25.1.25a1.17,1.17,0,0,0-.37,0c-.13.07-.43.18-.52.06s0-.09-.06-.16a.24.24,0,0,0-.1-.08h-.07a.17.17,0,0,0-.2,0,.18.18,0,0,1,.11.08l0,.06s0,.1.18.17c0,0,0,0,0,0a.08.08,0,0,1-.1,0c-.08,0-.09-.14-.18-.09l-.06,0h0c-.08,0-.21.1-.15.2a.12.12,0,0,1,.1-.1.08.08,0,0,0,0,.06c0,.1.05.18.26.05,0,0,0,0,0,0s-.18.17-.08.23l.05,0h0a.17.17,0,0,0,.17.19.19.19,0,0,1-.07-.16h.06c.1,0,.05-.15.11-.19s0,0,0,0,0,.16.14.14a.14.14,0,0,0,.15-.15s0,0,0,0a.13.13,0,0,1,.06.13.2.2,0,0,0,.08-.08.17.17,0,0,1-.05.2.31.31,0,0,0,.19-.2s0,0,0,.06h0a.34.34,0,0,0,.23,0s0,0,0,0a.12.12,0,0,0,0,.12s0-.06,0-.06,0,.11.07.18c0-.29.18-.18.36-.29s0,0,0,0a.17.17,0,0,1-.08.09c.07.06.33-.11.33-.22s.1,0,.19-.05.16-.14.24-.13c1.08.14.46-.46,1.72-.34.06,0,.09-.07.14-.12-.07.12-.07.37.06.4a.45.45,0,0,1,.22.08s0,0,0,0a.6.6,0,0,0-.18,0c-.19.13-.2-.29-.41-.22l0,.05c-.09,0-.2.1-.18.19a.15.15,0,0,1,.13-.08v0s0,.07.08.07l.08,0a0,0,0,0,1,0,0c0,.08-.26,0-.21.17l0,.07c0,.07.05.13.16.1s-.06-.05,0-.08h0s0,0,0,0,0,0,0,0l0,0s0,0,0,0,0,.06,0,.07.1.16.21.08-.1,0-.11,0l.06,0a.13.13,0,0,0,0-.08H202s0,0,0,0a.13.13,0,0,0,.16.06c.15,0,0-.16.14-.19h.09c.1,0,.26,0,.29,0a.29.29,0,0,0-.1-.32c-.07,0,0-.12-.06-.22a1,1,0,0,0,.41.1.89.89,0,0,0,.54-.12.46.46,0,0,1,.37,0s.06,0,0,.07,0,.18,0,.25-.16,0-.25,0-.09,0-.1,0-.17.09-.17.17a.37.37,0,0,1,.14-.07v0a.11.11,0,0,0,.19.07s0,0,0,0-.18.15-.09.18l0,0a.14.14,0,0,0,.08.15.13.13,0,0,1,0-.13h0c.07,0,.05-.13.13-.17h0c0,.08-.05.17,0,.19h.06a.11.11,0,0,0,.17.06s-.06,0-.07-.06a.45.45,0,0,0,.05-.08c.07-.16-.07-.16-.06-.22s.15,0,.17-.2a.1.1,0,0,0-.06-.09h0s.08,0,.12-.05c-.12,0-.08-.1-.09-.16" transform="translate(-133.01 -137.29)" fill="#231f20"/>
    <path d="M199.54,179.38c-.07,0-.1-.1-.08-.17a.79.79,0,0,0,.24.1c-.11,0-.09.07-.16.07m-.11.14s0-.06-.05-.07,0,0,0,.07-.09,0-.12,0,0,.06,0,.1,0,.05,0,.09a.1.1,0,0,1-.14.07.11.11,0,0,1,0-.15s0-.07.07-.07a.07.07,0,0,0,.08,0c0-.05,0-.08-.07-.11s.07,0,0,0-.07,0-.08,0,0,0,0-.06a.06.06,0,0,1,.06,0l.2.1s0,0,0,0,0,.06,0,.07m-.12-.38c0,.05-.1.1-.16.05s0-.07-.06-.18a.89.89,0,0,0,.22.13m2,0a.27.27,0,0,0,.15.11c.81.23,1.73-.38,2.21-.24-.63-.22-1,.16-1.64,0,.36,0,.73-.08.75-.18-.28.19-1.06-.11-1.39.09l0,0c-.44,0-.8,0-.8.28,0,.62,1.67.26,2.2.26s.46,0,.46.15-.6.19-.9.19a12.9,12.9,0,0,0-2.65-.07c.07-.14.22-.32.14-.41a.12.12,0,1,0,0-.23s0-.08,0-.11,0-.1,0-.11a.61.61,0,0,0-.18-.12.55.55,0,0,0-.19-.06l-.11,0s-.1,0-.11,0a.21.21,0,0,0-.14-.07.35.35,0,0,0,0,.23c-.07,0-.15.19-.22.17s0,.08.07.08-.09.24-.16.25a.45.45,0,0,0,.07.07,1,1,0,0,0-.05.24l-.07,0h0a.59.59,0,0,1-.33-.1c-.12-.07-.12-.13-.12-.25s0-.21,0-.31a.54.54,0,0,0,0-.1A.17.17,0,0,0,198,179a.15.15,0,0,1,.07.11l-.05.06a.08.08,0,0,0,0,.11v.07s0,0,0,0-.06-.19-.13-.19h-.05c0-.08-.09-.14-.18-.05s.06,0,.07,0a.31.31,0,0,0,0,.08c0,.08.06.11.14.11s0,0,0,0v0s0,0,0,0-.2,0-.21.06,0,.05,0,.06-.07.12,0,.17,0-.08,0-.08l0,0,0,0s0,0,.09,0h0l0,0a0,0,0,0,1,0,0c-.1.09-.09.19,0,.21s0,0,0,0c0,.17-.24.14-.23,0-.13.2.1.35.27.25h0s0,.07.06.07,0,0,0,0,0,0,0,0a.11.11,0,0,0,.08.11s0-.07,0-.07,0-.08.25,0a.1.1,0,0,0,.07.08l.16,0c0,.12,0,.3,0,.3a1.22,1.22,0,0,0-.37,0c-.11.06-.4.17-.48,0s0-.09-.06-.15a.17.17,0,0,0-.09-.07h-.07a.19.19,0,0,0-.2,0,.14.14,0,0,1,.11.08s0,0,0,0,0,.11.17.17c0,0,0,0,0,0a.12.12,0,0,1-.1,0c-.07-.06-.08-.14-.16-.09a.11.11,0,0,0-.06,0h0c-.07,0-.19.09-.14.19a.13.13,0,0,1,.1-.09s0,.05,0,.06.06.17.24,0c0,0,0,0,0,0s-.17.16-.07.22l0,0s0,0,0,0,.1.18.16.17a.17.17,0,0,1-.06-.16l.06,0c.09,0,0-.15.1-.18s0,0,0,0,0,.14.14.14a.15.15,0,0,0,.14-.16s0,0,0,0a.12.12,0,0,1,.05.12.3.3,0,0,0,.07-.08.15.15,0,0,1,0,.19.26.26,0,0,0,.18-.18l0,.06h0a.38.38,0,0,0,.21,0s0,0,0,0a.1.1,0,0,0,0,.12s0-.06,0-.06,0,.11.06.17c0-.28.25-.21.43-.32,0,0,0,0,0,0a.18.18,0,0,1-.07.09c.18.11.38-.14.43-.28l0-.06a.06.06,0,0,1,0,.09c.18,0,.16-.14.23-.13.55,0,.13-.46,1-.3a.37.37,0,0,0,.21-.1c-.06.11-.06.36.06.38a.42.42,0,0,1,.21.08s0,0,0,0a.43.43,0,0,0-.17.05c-.19.12-.19-.28-.39-.2l0,0c-.08,0-.19.09-.17.18a.18.18,0,0,1,.13-.08v0s0,.06.07.06.06,0,.08,0a0,0,0,0,1,0,0c0,.07-.25-.05-.21.16,0,0,0,0,0,.06s.05.13.16.09-.06,0-.06-.07h0s0,0,0,0h0a0,0,0,0,1,0,0s0,0,0,0a.25.25,0,0,0,0,.07c0,.07.1.15.21.08s-.1,0-.11-.06l0,0s0,0,0-.08,0,0,0,0h0s0,0,0,0a.13.13,0,0,0,.16.06c.13,0,0-.17.12-.18a.11.11,0,0,1,.08,0c.11,0,.26,0,.29,0a.3.3,0,0,0-.1-.31c-.07,0,0-.11-.06-.21a.93.93,0,0,0,.39.1,1.05,1.05,0,0,0,.57-.12.52.52,0,0,1,.35,0s.06,0,0,.08,0,.16-.07.22-.15,0-.24,0a.12.12,0,0,0-.09,0,.23.23,0,0,0-.19.16.3.3,0,0,1,.14-.07v0c0,.1.08.13.16.06s0,0,0,0-.2.14-.12.18l0,0a.1.1,0,0,0,.05.14s0-.06,0-.12h.05c.06,0,.07-.13.15-.17s0,0,0,0-.08.16,0,.18H203c0,.06.06.1.16.05s-.06,0-.06-.06l.06-.06c.09-.16-.05-.16,0-.22s.15,0,.2-.18,0-.08,0-.1h0s.09,0,.13-.05c-.12,0-.05-.09-.05-.15v0a.21.21,0,0,0,.1-.17c0,.06-.19.11-.18,0s0-.08-.1-.06a5.61,5.61,0,0,1-.83,0s0,0,0,0c.36,0,1.09-.08,1.09-.31s0-.31-.66-.31-2,.23-2-.12c0-.17.27-.16.6-.14" transform="translate(-133.01 -137.29)" fill="#231f20"/>
    <path d="M198.81,182.55s0-.07.06-.07.06,0,.07,0,0-.06-.06-.09.06,0,0-.05-.07,0-.08,0,0,0,0-.06,0,0,.06,0l.19.09s0,0,0,.05,0,.06,0,.07,0-.06-.05-.07,0,0,0,.07-.09,0-.11,0,0,.06,0,.1,0,.05,0,.09-.06.11-.13.07a.11.11,0,0,1,0-.15m.23-.47s-.1.09-.16,0,0-.06,0-.16a.92.92,0,0,0,.21.12m.13.07a.85.85,0,0,0,.23.09c-.1,0-.08.06-.15.06s-.09-.09-.08-.15m1.51-.07a.27.27,0,0,0,.15.11c.8.22,1.72-.38,2.21-.24-.63-.23-1,.16-1.64,0,.35,0,.73-.07.75-.16-.28.18-1.06-.13-1.39.07l-.06.06c-.25.06-.46.19-.46.37,0,.53,2.06.11,2.06.29s-.4.28-.94.28a5.75,5.75,0,0,0-2,0h0c.07-.15.26-.38.17-.48a.18.18,0,0,0,.13-.15.28.28,0,0,0-.14-.06.12.12,0,0,0,0-.11s0-.09,0-.1a.9.9,0,0,0-.18-.12.62.62,0,0,0-.18-.05s-.09,0-.1,0-.1,0-.1,0a.38.38,0,0,0-.13-.06.28.28,0,0,0,0,.22c-.07,0-.14.18-.21.16s0,.07.07.07-.08.24-.15.24l.07.08a1.43,1.43,0,0,0,0,.5,4.59,4.59,0,0,0-.44-.5c-.12-.07-.12-.13-.12-.25s0-.19,0-.29a.47.47,0,0,0,0-.09.17.17,0,0,0-.16-.11.18.18,0,0,1,.07.11l-.05,0a.09.09,0,0,0,0,.11s0,0,0,0a.06.06,0,0,1,0,0s0,0,0,0-.06-.17-.12-.18h0v0c0-.07-.08-.13-.18,0a.13.13,0,0,1,.08,0,.45.45,0,0,0,0,.08c0,.07,0,.11.13.11s0,0,0,0v0s0,0,0,0-.2,0-.2.06v.06s-.06.1,0,.16,0-.07,0-.08h0l0,0s0,0,.08,0h0l0,0v0c-.1.09-.08.17,0,.2a0,0,0,0,1,0,0c0,.17-.23.14-.22,0-.12.19.1.34.26.24s0,0,0,0a.09.09,0,0,0,.06.06s0,0,0,0,0,0,0,0a.1.1,0,0,0,.08.11s0-.07,0-.07,0,.26.23.4a.27.27,0,0,0,.29.2c0,.1.1.2.08.2a1.3,1.3,0,0,0-.39,0,1.21,1.21,0,0,1-.27.09v0s0,0,0,0a.22.22,0,0,1-.2-.05s0-.07-.05-.14a.18.18,0,0,0-.09-.07h-.07a.17.17,0,0,0-.18,0,.12.12,0,0,1,.1.07s0,.05,0,.06,0,.09.16.15c0,0,0,0,0,0a.08.08,0,0,1-.09,0c-.07-.06-.08-.13-.16-.09l-.06,0h0c-.07,0-.19.09-.13.18a.11.11,0,0,1,.09-.08s0,0,0,0,.05.17.23,0c0,0,0,0,0,0s-.16.14-.06.21l0,0v0a.15.15,0,0,0,.15.17.15.15,0,0,1-.06-.15l.06,0c.08,0,0-.15.09-.18s0,0,0,0,0,.14.13.14a.15.15,0,0,0,.14-.15s0,0,0,0a.11.11,0,0,1,.05.11l.07-.07a.14.14,0,0,1,0,.17.23.23,0,0,0,.17-.17.09.09,0,0,1,0,.06h0a.31.31,0,0,0,.21,0s0,0,0,0a.11.11,0,0,0,0,.1s0-.05.05-.05,0,.1,0,.16c0-.26.17-.16.33-.27s0,0,0,0a.13.13,0,0,1-.07.08c.06,0,.25-.08.25-.17a1.42,1.42,0,0,0,.15-.46h.07c.21,0,.31-.17.53-.18a.51.51,0,0,0-.06.31c0,.12.15.25.19.29s0,0,0,0l-.16,0c-.18.12-.18-.26-.37-.19l0,0c-.08,0-.18.08-.16.16a.22.22,0,0,1,.12-.07v0s0,.06.07.06l.07,0s0,0,0,0-.23,0-.19.15c0,0,0,.05,0,.06s.05.12.15.09-.06,0,0-.08h0s0,0,0,0h0l0,0s0,0,0,0a.14.14,0,0,0,0,.06c0,.07.09.14.19.07s-.09,0-.1-.05l.05,0s0,0,0-.07,0,0,0,0h.05s0,0,0,0a.1.1,0,0,0,.14.05c.13,0,0-.15.12-.17h.08c.1,0,.18,0,.2,0a.26.26,0,0,0-.09-.29c-.06,0,.09-.42-.21-.6.14,0,.59.09.67,0a.77.77,0,0,1,.32.16.06.06,0,0,1,0,.08c-.12.07-.1.11-.17.14h0s-.08-.1-.12-.12-.09,0-.09,0a.15.15,0,0,0-.19.08.18.18,0,0,1,.13,0s0,0,0,0a.09.09,0,0,0,0,.06h0s0,0,0,0-.2,0-.17.06a.17.17,0,0,0,0,.05.12.12,0,0,0,0,.16s0-.05.08-.08,0,0,0,0,.11-.07.18,0,0,0,0,0-.14.08-.11.14l0,0a.11.11,0,0,0,.08.16s0-.07,0-.1h.07c.14-.07,0-.16.1-.2s.11.09.22,0a.1.1,0,0,0,0-.11h0s0,.07.1,0,0-.1,0-.16h0s.09,0,.14-.07-.22-.08-.12-.12.16-.12.1-.2-.33-.15-.33-.31h.2c.7,0,1.14-.19,1.12-.41,0-.47-2.1,0-2.1-.31,0-.1.13-.18.29-.23" transform="translate(-133.01 -137.29)" fill="#231f20"/>
    <path d="M167,145.84a.5.5,0,1,0-1,0,.5.5,0,1,0,1,0" transform="translate(-133.01 -137.29)" fill="#231f20"/>
    <path d="M166.83,144.5a.51.51,0,1,0-1,0,.51.51,0,0,0,1,0" transform="translate(-133.01 -137.29)" fill="#231f20"/>
    <path d="M167.11,143.9a.5.5,0,0,0,.51-.5.51.51,0,1,0-1,0,.5.5,0,0,0,.5.5" transform="translate(-133.01 -137.29)" fill="#231f20"/>
    <path d="M168.46,143.81a.5.5,0,0,0,.5-.5.51.51,0,0,0-.5-.51.5.5,0,0,0-.5.51.5.5,0,0,0,.5.5" transform="translate(-133.01 -137.29)" fill="#231f20"/>
    <path d="M174.18,142.88a.5.5,0,1,0,0-.71.5.5,0,0,0,0,.71" transform="translate(-133.01 -137.29)" fill="#231f20"/>
    <path d="M174.07,141.81a.5.5,0,1,0-.71,0,.51.51,0,0,0,.71,0" transform="translate(-133.01 -137.29)" fill="#231f20"/>
    <path d="M172.73,141.59a.5.5,0,0,0,0-.71.5.5,0,1,0-.71.71.5.5,0,0,0,.71,0" transform="translate(-133.01 -137.29)" fill="#231f20"/>
    <path d="M171.59,142.44a.5.5,0,0,0,0-.71.5.5,0,1,0-.71.71.51.51,0,0,0,.71,0" transform="translate(-133.01 -137.29)" fill="#231f20"/>
    <path d="M168.38,141.74l.4.88.51-.61.06,0a8.23,8.23,0,0,1,.07,1.1.64.64,0,0,0,.64.64.64.64,0,0,0,.3-1.21,5,5,0,0,1-.71-.66.11.11,0,0,0,0-.08l.86.08-.34-.91-.64.54,0,0-.05-.93-.88.33.59.7a.16.16,0,0,0,0,.07Z" transform="translate(-133.01 -137.29)" fill="#231f20"/>
    <path d="M174.21,143.31a1.34,1.34,0,0,1,.29.7,1.48,1.48,0,0,1-.53-.48l.11,1.17a.94.94,0,0,1,.42-.42c-.05.76-.35,1.08-.61,1.13a.49.49,0,0,1-.6-.39c-.07-.34.23-.55.53-.25.05-.7-.52-.69-.77-.39a1,1,0,0,0-.42-1.5,1.09,1.09,0,0,0,.26,1.54c-.47-.24-.89.16-.47.68.09-.45.48-.35.57,0s-.22.71-.72.86c-.72.22-1-.25-1.13-.64a1,1,0,0,1,.94.2l-.35-1.15a1.19,1.19,0,0,1-.69.7,3.68,3.68,0,0,1,.22-1l-1.38.57a3.41,3.41,0,0,1,.86.56,1.16,1.16,0,0,1-1,0l.55,1.07c.11-.48.35-.76.53-.8.15.4.31.9-.36,1.25a.86.86,0,0,1-1.12-.12c-.18-.31,0-.66.4-.4-.06-.66-.64-.66-.8-.16,0-.68-.18-1.09-.89-1.28-.18.68.05,1.08.74,1.37-.39-.05-.81.34-.27.81,0-.43.36-.48.55-.19a.5.5,0,0,1-.16.7c-.22.14-.66.13-1.23-.39a1,1,0,0,1,.6,0l-.74-.91a1.32,1.32,0,0,1-.05.7,1.31,1.31,0,0,1-.28-.69l-.57.51a6.46,6.46,0,0,1,1.91,1.87,25.23,25.23,0,0,1,3.08-1.53,23.92,23.92,0,0,1,3.27-1.05,6.59,6.59,0,0,1,.05-2.67Z" transform="translate(-133.01 -137.29)" fill="#231f20"/>
    <path d="M175.81,150a1.46,1.46,0,0,1-2.07-.67,21.66,21.66,0,0,0,2.85-1.32c-.7,1.07-.22,1.55-.78,2m-.16,7.32a1.38,1.38,0,0,1-1.79-.94c-.17-.55-.32-1-.11-1.2.4-.39.52-.69.28-1.18s-.86-.29-1.49-.13c.29-.54.31-.92-.09-.87s-.49.84-.76.75-.11-.55-.11-.79.21-.44.55-.59l2.62-1c.34-.12.58-.18.81.05s.59.39.46.64-.68-.3-1.06,0,0,.5.54.67c-.57.33-1.17.55-1,1.15s.46.64,1,.64c.3,0,.51.43.76.94a1.3,1.3,0,0,1-.64,1.86m-5-5.29c-.7.06-.69-.62-1.93-.92a20.26,20.26,0,0,0,3-1c.19.81-.15,1.83-1,1.91m14.62,23.37c.2-.53-.79-1.15-.9-1.92a3.84,3.84,0,0,0-.91-2.55c-.86-1-3.88-4.23-4.79-5.26A1.44,1.44,0,0,1,180,166c.33.31,1,.92,1.57,1.51a16.42,16.42,0,0,1,3.2-5.14c.18-.21.37-.4.55-.6a7.3,7.3,0,0,0-1.78.59c0-.88,0-1.6-.57-2.16.23-1.24,0-2.74-2.75-4.58,1.42.34,2.26,1.63,3.34.64-1,0-1-2.15-4.51-3.92,1.34,0,2.39,2.14,4,.91-1.47-.17-2-2.78-4.6-3.59.91.11,1.86.56,2.65-.51-.92.21-1.46-.63-2.44-.71a3.25,3.25,0,0,0-.12-2.7,3.39,3.39,0,0,0-1.9.68c-.08-.63-.74-.66-1.32-.62,0,.27.16.67-.14.72a25.71,25.71,0,0,0-3.26,1,17.4,17.4,0,0,0-3,1.61c-.25.17-.46-.23-.61-.41-.43.36-.85.83-.53,1.31a3.79,3.79,0,0,0-2.06.73,2.37,2.37,0,0,0,1.62,2c-1.63,1.63-.15,3.13-1.59,4.54,2,.08,1.67-2.74,2.69-3.13-.1,2-1.21,2.33-1.21,4.47,0,1.14.68,2.37.07,3.13,1.69-.47,1.25-4.21,2.3-5.33a3.11,3.11,0,0,1-.14,1.9c-.59,1.74.07,4.13-.85,4.91,1.72-.17,1.93-2.94,3.35-4-1.22,2.5-2.48,7.8-4.3,10.46-2.94,4-4.67,8.81-7.37,8.81a2,2,0,0,1-2.08-2.23c0-4.52,7.73-7.62,7.73-12.43a2.86,2.86,0,0,0-2.83-3,4,4,0,0,0-2.37,1,2.73,2.73,0,0,0-.92-.2c-2.73,0-2,4.92-4.39,4.87.95.53,2.58-.5,3.54-1.88-.4,3.19-5,2.34-4.64,6.17.64-3,8-2.56,8-7.1a1.78,1.78,0,0,0-.63-1.29,2.81,2.81,0,0,1,1.54-.48,1.73,1.73,0,0,1,1.68,1.94c0,4-7.7,7.43-7.7,12.38a3.49,3.49,0,0,0,.64,2.07,1.27,1.27,0,0,1-1.56-.42c0,1.28,1.78,2.08,2.92,1.44a3.07,3.07,0,0,0,.8.16,2.18,2.18,0,0,1-2.14,1.19c1.89,1.49,5.18-.47,5-2.15,1.49-1.2,2.44-3.27,3.53-4.63-.07.32-.13.63-.17.94a16.06,16.06,0,0,0-2.43,6.45c-.24,2.21-1.36,4.2-2.91,4.2-.34,0-.9-.45-1.17-.22-.48.41,0,.85,0,1.26,0,.63-1.21,1.26-1.21,3.2,0,.87.5,1.92.31,2.5a3.54,3.54,0,0,0,1.43-2.16c.53,2.57-1.1,2.46.08,4.73a.93.93,0,0,1,1.35-.75c.47.31.25.53-.09.87s-.66,2,.9,1.95c-.3-.2-.31-.65.46-.81,1.07-.21,1.38.28,2.52.28.7,0,.9-.92,1.46-.92s.55.43.36.75c.9-.25,1.07-.73,1.07-1.24s-.42-.82-.1-1,1.36,0,.95.87a1,1,0,0,0,.82-1.15c0-.65-.75-1-1.45-.92-.12-.41-.73-.63-1.29-.63-1.26,0-1.07,1-1.93,1-1.39,0-2.73-1.8-2.73-4.84,0-1.63,1.75-2,3-2.57a10.69,10.69,0,0,0,4.7-4c1-1.7,1-3.58.92-5.79a3.67,3.67,0,0,1,2,3.49,2.12,2.12,0,0,1-1.26,2.15c-.47.22-.62.13-.67.41a.59.59,0,0,0,.37.65c.63.32.5.93.68,1.58a5,5,0,0,0,1.73,2.43,7,7,0,0,0,0-1.89c1.34.66.26,3.35,2.87,3.35a.66.66,0,0,1-.08-1.08c.28-.1.63.18,1.13.88s.37.64,1.6.64.68-.42,1.33-.42.6.75.25,1.3a1.41,1.41,0,0,0,1.06-2,1.06,1.06,0,0,1,1.63.74A1.29,1.29,0,0,0,183,186a.77.77,0,0,0-.71-.75,9.91,9.91,0,0,0-1.23,0c-.45,0-.7.68-1.23.68-1.63,0-4.86-3-4.86-4.24s3.09-2.05,3.09-4c0-2.59-2.55-3.47-4.7-5.14.77-.86,3-1.06,4.27-.44.14-.72.6-.54.77-1.79.46,1.09,0,2,.45,2.5.36-.52,1.29-.45,1.23-1.8.28.85-.36,2.15.28,2.71.11-.7.53-.83.79-.83s.5.19.5.61c0,1-1.28.55-1.28,1.72,0,.49.62.66.62,1a.69.69,0,0,1-1.13.39,1.31,1.31,0,0,0,1.15.85,1.65,1.65,0,0,0,1.4-1c.3.75.07,1.57-.46,1.68.56.28,1.9,0,1.75-1.7.76.13,1.15.64.7,1.55.62-.15,1.19-.45,1.19-1.12,0-.5-.55-.66-.31-1.32" transform="translate(-133.01 -137.29)" fill="#231f20"/>
    <path d="M235.14,187.81a1.62,1.62,0,1,1,1.62,1.62,1.61,1.61,0,0,1-1.62-1.62m-.56,0a2.18,2.18,0,1,0,2.18-2.17,2.19,2.19,0,0,0-2.18,2.17" transform="translate(-133.01 -137.29)" fill="#231f20"/>
    <path d="M227.45,191.75c-.62-.11-1.06-.57-1-1a.73.73,0,0,1,.31-.45,1.37,1.37,0,0,1,1-.17,1.09,1.09,0,0,1,1,.92.41.41,0,0,1,0,.11,1,1,0,0,1-1.27.62m-1-1.93a1.24,1.24,0,0,0-.53.8,1.29,1.29,0,0,0,.33,1.09,2,2,0,0,0,1.09.59,1.9,1.9,0,0,0,1.23-.17,1.27,1.27,0,0,0,.69-.9,1.57,1.57,0,0,0-1.42-1.68,1.89,1.89,0,0,0-1.39.27" transform="translate(-133.01 -137.29)" fill="#231f20"/>
    <path d="M214.37,160.58a1.2,1.2,0,0,1,1.28-1.09.6.6,0,0,1,.41.22.62.62,0,0,1,.11.45,1.17,1.17,0,0,1-.46.73.91.91,0,0,1-1.23,0,.54.54,0,0,1-.11-.35m.12-1.28a1.45,1.45,0,0,0-.45,2h0a1.44,1.44,0,0,0,2,.06,1.67,1.67,0,0,0,.66-1.1,1.16,1.16,0,0,0-.22-.86,1.13,1.13,0,0,0-.77-.43,1.7,1.7,0,0,0-1.24.36" transform="translate(-133.01 -137.29)" fill="#231f20"/>
    <path d="M224.74,189.23Zm0-.56h0a.68.68,0,0,1-.48-.22,1.29,1.29,0,0,1-.33-.93,1.26,1.26,0,0,1,.36-.91.67.67,0,0,1,.5-.22c.46,0,.83.53.81,1.16a1.24,1.24,0,0,1-.36.91.66.66,0,0,1-.49.21m-.85-2.47a1.92,1.92,0,0,0-.53,1.3v.05a1.85,1.85,0,0,0,.49,1.28,1.22,1.22,0,0,0,.87.4,1.25,1.25,0,0,0,.9-.36,1.88,1.88,0,0,0,.53-1.31,1.9,1.9,0,0,0-.36-1.18,1.33,1.33,0,0,0-1-.55,1.3,1.3,0,0,0-.9.37" transform="translate(-133.01 -137.29)" fill="#231f20"/>
    <path d="M213.7,170.76a1,1,0,0,1-.66-1.25.67.67,0,0,1,.41-.35,1.31,1.31,0,0,1,1,.09,1.29,1.29,0,0,1,.68.7.7.7,0,0,1,0,.55.74.74,0,0,1-.41.35,1.38,1.38,0,0,1-1-.09m-.43-2.13a1.29,1.29,0,0,0-.73.64,1.57,1.57,0,0,0,.92,2,1.89,1.89,0,0,0,1.41.11,1.27,1.27,0,0,0,.73-.63,1.3,1.3,0,0,0,0-1,1.89,1.89,0,0,0-1-1,1.82,1.82,0,0,0-1.4-.12" transform="translate(-133.01 -137.29)" fill="#231f20"/>
    <path d="M229,178.54a.9.9,0,1,1-.07-1.42,1,1,0,0,1,.07,1.42m-2.56,4a1,1,0,0,1-1.36.41,1.15,1.15,0,0,1,1.28-1.83,1,1,0,0,1,.08,1.42m-8.79-22.15c.3-.94.88-2.81.88-2.81l1,.38a3.16,3.16,0,0,0-.94.67,1,1,0,0,0,.89-.07l-.39,1a1.29,1.29,0,0,0-.65-.58,1,1,0,0,0,.66,1.28c.6.31,1,.36,1.16.08s-.2-.82-.71-.6c-.05-.52.24-.8.58-.8s.49.25.56.59a1.61,1.61,0,0,1,1.12-1.74,1.67,1.67,0,0,1-.56,2,.71.71,0,0,1,.84.11c.19.29.12.68-.34.93a.5.5,0,0,0-.91-.24c-.17.35.1.68.65,1a1,1,0,0,0,1.5-.41,1.17,1.17,0,0,0-.92.19l.66-1.23a1.28,1.28,0,0,0,.41.72,1.55,1.55,0,0,0,0-1.19l1.42.81a1.6,1.6,0,0,0-1,.64,1.27,1.27,0,0,0,.83,0l-.74,1.19a1.14,1.14,0,0,0-.3-.89,1,1,0,0,0,.4,1.5c.54.33,1,.4,1.17.07a.49.49,0,0,0-.65-.67c0-.52.28-.77.62-.75s.48.33.53.67a1.66,1.66,0,0,1,1.41-1.47,1.6,1.6,0,0,1-1,1.84.63.63,0,0,1,.79.2c.17.29.08.68-.4.9a.49.49,0,0,0-.88-.32c-.15.28.09.6.66,1a1,1,0,0,0,1.44-.06,1.3,1.3,0,0,0-.83-.28l.66-.83a1,1,0,0,0,.39.8,3.19,3.19,0,0,0,.11-1.15l.83.66s-1.34,1.43-2,2.17Zm10.65,12.08a.65.65,0,0,1,.71-.67,1.39,1.39,0,0,1,1.27,1.34.73.73,0,0,1-.21.49h0a.76.76,0,0,1-.51.18,1.27,1.27,0,0,1-.88-.44,1.3,1.3,0,0,1-.38-.91m3.89,17.91a1.37,1.37,0,0,1,.58-.8,1.28,1.28,0,0,1,1-.21.7.7,0,0,1,.46.29h0a.76.76,0,0,1,.09.53,1.37,1.37,0,0,1-.58.8,1,1,0,0,1-1.42-.08.75.75,0,0,1-.09-.53m-18.53-27a1.15,1.15,0,0,1-.34.77.57.57,0,0,1-.41.16c-.37,0-.65-.44-.65-.93v-.07a1.12,1.12,0,0,1,.33-.77.6.6,0,0,1,.42-.16.58.58,0,0,1,.4.21,1.11,1.11,0,0,1,.25.79m5.73-11.77c.31-.58,0-1.47,1.06-1.47.52,0,1,.52,1.62.72a6.47,6.47,0,0,0-2.68.75m16.7,14.74c.71,1.94,2.12,2.64,3.19,2.14-2.4-.28-.45-4.39-3.54-4.39a2,2,0,0,0-.5.06,2.5,2.5,0,0,0-2-.79,3.83,3.83,0,0,0-3.56,3.87c0,5.61,6.52,6.11,6.52,11.07a2.28,2.28,0,0,1-2.32,2.35c-1.1,0-2-1.23-2.9-3.16a24.4,24.4,0,0,0-2.39-3.48,1.78,1.78,0,0,0,1,.34,1.22,1.22,0,0,0,.91-.33,1.25,1.25,0,0,0,.38-.88v0a2,2,0,0,0-1.8-1.87,1.21,1.21,0,0,0-1.29,1.21v0a1.8,1.8,0,0,0,.1.57c-1.4-1.83-2.7-3.62-2.7-4.61a4.45,4.45,0,0,1,1.34-2.55l.25.14.2-.22,1.93-2.09.07-.07h0l.27-.28-.69-.56a8.93,8.93,0,0,0,.46-1.38c.22.9.68,1.47,1.32,1.29-.42-.93.43-2.18-.13-4.46.53.88,1.3,1.35,1.85,1.18-1.44-1.28.43-3.06-1.45-5.83a1.11,1.11,0,0,0,1.3-.22c-1.72-.24-.94-2.43-3.95-3.21.75-.13,1.19-.57,1.08-1-.79.57-1.49-1.07-4.1-1a3.83,3.83,0,0,0-2.09-2.5,3.41,3.41,0,0,1-.18,2l-8.5-8.35c-.25-.23-.39-.29-.46-.2s-.06.24.1.41l7.3,9.15c-.55.19-1.09.42-1.66.63a1,1,0,0,0-.63.94,15.75,15.75,0,0,0-3.14,2c-.45.41-.8.51-.41,1.43.16.34-.31,1.21.74.58.7-.42,2.27-1.29,2.5-.74.13.29-.65.65-1.19.86s-1.1.61-1,.82.5,0,.53.2a.48.48,0,0,0,.41.46c.22,0,.49-.45.66-.3s-.08,1.15-.25,1.4a1.66,1.66,0,0,0,1.38-1.5c0-.62.19-.77.31-.85s.28.66.11,1.1c.44-.09.89-.67.83-1.73a1.21,1.21,0,0,1,.61-.31c.28,0,.83.77,1.61.77a2.41,2.41,0,0,0,2.34-1.72,1.61,1.61,0,0,0-.21-1.2,2,2,0,0,1,.68,1.55c0,2-3.61,3-5.1,4.43l-.16.15-1.7-.66-.11.38a3.32,3.32,0,0,0-.1.32c-.18.58-.55,1.79-.78,2.49l-.09.28.15.09a9.43,9.43,0,0,0-2,4.38,13.17,13.17,0,0,0-1.24-1.13,2.46,2.46,0,0,0,.1-.47,1.71,1.71,0,0,0-.39-1.2,1.15,1.15,0,0,0-1.76.07l-.18-.14a15.23,15.23,0,0,1-1.68-1.41.83.83,0,0,0-.73-.3l-.76,0c-.25,0-.4.19-.68.45s-.53.42-1,.76c.21.21.42.43.62.65s.22.25.32.38l.3-.23a1,1,0,0,1,.63-.18,1,1,0,0,1,.73.49c.16.23,1.53,2,2.67,3.29l-.36.13a6,6,0,0,1-2.07.13c-.49,0-.59-.17-.92.36-.13.2-.29.43-.45.63s-.29.42.06,1c.5.85,1.74,3.09,2.16,4.09a2.37,2.37,0,0,0,1.69,1.5,12.2,12.2,0,0,1,2.3,1.28l.05-.78a4.82,4.82,0,0,0-1.27-.62c-.29-.1-.36-.22,0-.22a8.64,8.64,0,0,1,2,.61,5.68,5.68,0,0,0-1.35-2.05,1.84,1.84,0,0,0-1.39,0,.31.31,0,0,1-.32.36.3.3,0,0,1-.3-.39c.07-.23.41-.31.34-.74s-.61-.5-1-.54c-.48-.7-1-1.73-1.29-2.14s-.1-.65.07-.8c.41-.34,1.28.18,3,.29l2.13.12c.23,2,1,3.91,3.83,4.6a4.71,4.71,0,0,1,3.25,2.65c-5.57-.09-6.45,2.08-6.45,4.13,0,2.33,2,2.2,2,3.95,0,1.53-4.68,2.16-6.1,2.37a3.88,3.88,0,0,0-2.46,1c-.58.58-1.16,1.13-2.21,2.18a3.52,3.52,0,0,0,.89.07l.79-1c.24-.34.4-.63.55-.6s.06.28-.13.65l-.65,1.1c2.75.19,2.93-.83,2.93-1.26s-.68-.7-.28-1,.73-.08,1,.28.42.68,1.18.4c0,0,6-2.49,6.76-2.83s.49-.61.08-.95a1.93,1.93,0,0,1-.52-1.59c0-1.82,1.09-2.38,3-2.34a6.7,6.7,0,0,0-.06.87c0,2.83,4.28,5.6,5.44,5.6.52,0,1.22-.38,1.26,1.32a17.09,17.09,0,0,1,.06,3.6,2.69,2.69,0,0,1-1.51,2.28c-.88.62-1.7,2.53-2.07,2.94.39.25.81.29,1.13-.65a2.85,2.85,0,0,1,.91-1.51c-.34.85-.59,2.1-.75,2.48,1.1.19,2.87-.81,2.87-1.58s-.61-.71-.61-1.22a.58.58,0,0,1,.61-.48.88.88,0,0,1,.8.51c.49-.26.79-.74.78-1.87,0-.44,0-.9-.05-1.37a1.62,1.62,0,0,0,.1.18,1.29,1.29,0,0,0,1,.56,1.88,1.88,0,0,0,1.19-.33,1.84,1.84,0,0,0,.82-1.15,1.25,1.25,0,0,0-.17-1,1.26,1.26,0,0,0-.8-.53,1.88,1.88,0,0,0-1.38.3,1.91,1.91,0,0,0-.8,1.05c-.08-1.54-.2-3-.15-3.58.06-.86.09-1.25-.2-1.38s-.61.36-1,.36a2.81,2.81,0,0,1-1.67-2.39c0-1.22,1.32-2.8,1.25-4.48,0-.52.31-.79.52-.32a7.23,7.23,0,0,0,1.2,2c-.35,2.11,2,4.17,3.87,2.64-.94.14-1.59-.7-2-1.54a2.78,2.78,0,0,0,.51,0h.29a2.06,2.06,0,0,0,3.35-1.29,2.17,2.17,0,0,1-1.7.68,3.39,3.39,0,0,0,1.22-2.73c0-5.34-6.48-6-6.48-10.83a3,3,0,0,1,2.67-3,1.61,1.61,0,0,1,1,.33,2.39,2.39,0,0,0-.61,1.85c.17,3.84,6.45,3.65,6.53,5.5.7-2.78-4-1.92-4.15-5.67" transform="translate(-133.01 -137.29)" fill="#231f20"/>
  </g>
</svg>
