<?xml version="1.0" encoding="UTF-8"?>
<svg width="63px" height="63px" viewBox="0 0 63 63" version="1.1" xmlns="http://www.w3.org/2000/svg" xmlns:xlink="http://www.w3.org/1999/xlink">
    <!-- Generator: Sketch 42 (36781) - http://www.bohemiancoding.com/sketch -->
    <title>small-priority</title>
    <desc>Created with Sketch.</desc>
    <defs>
        <linearGradient x1="12.8580729%" y1="11.3216146%" x2="83.4505208%" y2="83.7174479%" id="linearGradient-1">
            <stop stop-color="#FFFFFF" stop-opacity="0.2" offset="0%"></stop>
            <stop stop-color="#FFFFFF" stop-opacity="0" offset="100%"></stop>
        </linearGradient>
    </defs>
    <g id="Product" stroke="none" stroke-width="1" fill="none" fill-rule="evenodd">
        <g id="Advisor-v5---end-goal" transform="translate(-220.000000, -2141.000000)">
            <g id="small-priority" transform="translate(220.000000, 2141.000000)">
                <rect id="Rectangle" fill-opacity="0.07" fill="#000000" x="3" y="3" width="60" height="60" rx="30"></rect>
                <rect id="Rectangle" fill="#31BD59" x="0" y="0" width="60" height="60" rx="30"></rect>
                <polygon id="Star" fill="#FFFFFF" points="30 37.4127717 23.2016261 41 24.5 33.4021286 19 28.0212862 26.6008131 26.9127717 30 20 33.3991869 26.9127717 41 28.0212862 35.5 33.4021286 36.7983739 41"></polygon>
                <rect id="Rectangle" fill="url(#linearGradient-1)" x="0" y="0" width="60" height="60" rx="30"></rect>
                <path d="M29.829125,4.17313019 C29.829125,4.17313019 17.329125,1.67313019 9.32912496,15.6731302 C1.32912496,29.6731302 13.6554199,12.1731302 18.829125,12.1731302 C24.0028301,12.1731302 32.829125,9.84626039 32.829125,7.17313019 C32.829125,4.5 29.829125,4.17313019 29.829125,4.17313019 Z" id="Path-3" fill-opacity="0.200000018" fill="#FFFFFF"></path>
            </g>
        </g>
    </g>
</svg>