<?xml version="1.0" encoding="UTF-8"?>
<svg width="1380px" height="782px" viewBox="0 0 1380 782" version="1.1" xmlns="http://www.w3.org/2000/svg" xmlns:xlink="http://www.w3.org/1999/xlink">
    <!-- Generator: Sketch 45.1 (43504) - http://www.bohemiancoding.com/sketch -->
    <title>3-big-stars</title>
    <desc>Created with Sketch.</desc>
    <defs>
        <polygon id="path-1" points="690 522.383152 486.048784 630 525 402.063859 360 240.638587 588.024392 207.383152 690 0 791.975608 207.383152 1020 240.638587 855 402.063859 893.951216 630"></polygon>
    </defs>
    <g id="Product" stroke="none" stroke-width="1" fill="none" fill-rule="evenodd" opacity="0.599999964">
        <g id="Advisor---Dashboard-Section-Copy-3" transform="translate(-29.000000, -435.000000)">
            <g id="3-big-stars" transform="translate(29.000000, 497.000000)">
                <polygon id="Star" fill="#E8EAF0" points="255 632.881599 97.4013329 720 127.5 535.480267 3.28093108e-12 404.802666 176.200666 377.881599 255 210 333.799334 377.881599 510 404.802666 382.5 535.480267 412.598667 720"></polygon>
                <polygon id="Star" fill="#E8EAF0" points="1125 632.881599 967.401333 720 997.5 535.480267 870 404.802666 1046.20067 377.881599 1125 210 1203.79933 377.881599 1380 404.802666 1252.5 535.480267 1282.59867 720"></polygon>
                <g id="Star">
                    <use fill="#E8EAF0" fill-rule="evenodd" xlink:href="#path-1"></use>
                    <path stroke="#F3F4F7" stroke-width="52.8" d="M690,552.232959 L451.005288,678.340849 L496.64625,411.257412 L303.414313,222.211849 L570.464967,183.264763 L690,-59.8281932 L809.535033,183.264763 L1076.58569,222.211849 L883.35375,411.257412 L928.994712,678.340849 L690,552.232959 Z"></path>
                </g>
            </g>
        </g>
    </g>
</svg>