<?xml version="1.0" encoding="UTF-8"?>
<svg width="98px" height="98px" viewBox="0 0 98 98" version="1.1" xmlns="http://www.w3.org/2000/svg" xmlns:xlink="http://www.w3.org/1999/xlink">
    <!-- Generator: sketchtool 42 (36781) - http://www.bohemiancoding.com/sketch -->
    <title>9B8C3AFE-CED8-4D6C-B487-A014D8AC7CCA</title>
    <desc>Created with sketchtool.</desc>
    <defs>
        <circle id="path-1" cx="49" cy="49" r="49"></circle>
    </defs>
    <g id="Proto" stroke="none" stroke-width="1" fill="none" fill-rule="evenodd">
        <g id="modal-before-advice" transform="translate(-671.000000, -286.000000)">
            <g id="Group" transform="translate(482.000000, 176.000000)">
                <g id="bayes-ico" transform="translate(189.000000, 110.000000)">
                    <mask id="mask-2" fill="white">
                        <use xlink:href="#path-1"></use>
                    </mask>
                    <use id="Oval-2" fill="#2C3449" xlink:href="#path-1"></use>
                    <g id="Group-2" mask="url(#mask-2)">
                        <g transform="translate(31.000000, 26.000000)">
                            <path d="M2.12842704,9.17473315 C0.617603005,10.0426082 -0.149241976,11.8132452 0.382809014,13.5071312 L4.98722513,28.4349047 L4.98722513,27.805333 L2.12842704,9.17473315 Z" id="Fill-2" fill="#F37791"></path>
                            <path d="M4.98716936,4.55717612 C3.05193148,5.02573205 1.76586274,6.84037996 2.06758138,8.77901002 L4.98716936,27.805172 L4.98716936,4.55717612 Z" id="Fill-4" fill="#EE4266"></path>
                            <path d="M19.950741,45.5695606 C28.2014352,45.5695606 34.9145356,38.9341001 34.9145356,30.7775771 C34.9145356,28.6913492 33.1572058,27.0001467 30.9894047,27.0001467 C28.8216037,27.0001467 27.0642738,28.6913492 27.0642738,30.7775771 C27.0642738,34.768085 23.8730833,38.0146999 19.950741,38.0146999 C16.0283986,38.0146999 12.8372081,34.768085 12.8372081,30.7775771 C12.8372081,26.7870692 16.0283986,23.5399175 19.950741,23.5399175 C21.3143308,23.5399175 22.6377658,23.9333327 23.7788311,24.6766889 C25.5740849,25.8472737 28.0146039,25.3953561 29.2298441,23.6676567 C30.4456419,21.940494 29.9760539,19.5918104 28.1813578,18.4217624 C25.7358195,16.8277061 22.8898486,15.9850568 19.950741,15.9850568 C17.377488,15.9850568 14.9542579,16.6307301 12.8372081,17.7664281 L12.8372081,4.22553727 C12.8372081,2.1393094 11.0798782,0.448106932 8.91207717,0.448106932 C6.74427612,0.448106932 4.98694628,2.1393094 4.98694628,4.22553727 L4.98694628,30.7775771 C4.98694628,38.9341001 11.7000467,45.5695606 19.950741,45.5695606" id="Fill-48" fill="#FFFFFF"></path>
                        </g>
                    </g>
                </g>
            </g>
        </g>
    </g>
</svg>