<?xml version="1.0" encoding="UTF-8"?>
<svg width="52px" height="52px" viewBox="0 0 52 52" version="1.1" xmlns="http://www.w3.org/2000/svg" xmlns:xlink="http://www.w3.org/1999/xlink">
    <!-- Generator: sketchtool 41.2 (35397) - http://www.bohemiancoding.com/sketch -->
    <title>6EA2AE10-83A2-40CD-9061-CF0C2EBA12E3</title>
    <desc>Created with sketchtool.</desc>
    <defs></defs>
    <g id="Page-1" stroke="none" stroke-width="1" fill="none" fill-rule="evenodd">
        <g id="Control-Tower---Test-Icons" transform="translate(-336.000000, -916.000000)">
            <g id="yellow-group" transform="translate(336.000000, 916.000000)">
                <circle id="Oval-5" fill="#FFB63D" cx="26" cy="26" r="26"></circle>
                <path d="M39.0735706,26.9238809 L32.8140126,17.2373779 C32.3494173,16.4961802 31.5432231,16.0325723 30.6633507,16.0006241 C29.9781356,15.98553 29.3157024,16.2447708 28.8257664,16.7197561 C28.3358303,17.1947415 28.0597486,17.8453762 28.0599179,18.5246115 L28.0599179,20.078266 C28.0600092,20.2815081 27.8970321,20.4479928 27.6920415,20.4540597 L24.2962595,20.4540597 C24.0912689,20.4479928 23.9282918,20.2815081 23.9283832,20.078266 L23.9283832,18.60594 C23.9389801,17.4221138 23.1369571,16.3823683 21.9814682,16.0819526 C20.919337,15.8205869 19.8074635,16.2608946 19.2195655,17.1756805 L12.9147304,26.9238809 L12.9147304,26.9238809 C11.6876789,28.8586597 11.6957093,31.3210245 12.9353546,33.2479026 C14.1749999,35.1747806 16.4242233,36.2210428 18.7119714,35.934988 C20.9997195,35.6489333 22.9162265,34.0817977 23.634082,31.9101583 C23.7087761,31.6866712 23.9200421,31.5361507 24.1575984,31.537169 L27.8363622,31.537169 C28.0739185,31.5361507 28.2851846,31.6866712 28.3598786,31.9101583 C29.0721061,34.0888155 30.9899613,35.6638098 33.2823827,35.952651 C35.5748042,36.2414923 37.8293276,35.1922108 39.0690034,33.2594902 C40.3086792,31.3267696 40.3104587,28.8583549 39.0735706,26.9238809 L39.0735706,26.9238809 Z M17.9602964,33.4021153 C16.10867,33.4005668 14.6087506,31.912012 14.6097921,30.0769971 C14.6108335,28.2419823 16.1124417,26.7551006 17.9640687,26.7556164 C19.8156957,26.7561321 21.3164602,28.24385 21.3164609,30.0788652 C21.3164612,30.960732 20.962776,31.806439 20.3332916,32.42975 C19.7038072,33.0530609 18.8501462,33.4028595 17.9602964,33.4021153 Z M25.9941505,29.5235879 C25.3971359,29.5235879 24.9131599,29.043954 24.9131599,28.4522955 C24.9131599,27.860637 25.3971359,27.381003 25.9941505,27.381003 C26.5911651,27.381003 27.0751411,27.860637 27.0751411,28.4522955 C27.0751411,29.043954 26.5911651,29.5235879 25.9941505,29.5235879 L25.9941505,29.5235879 Z M34.0280046,33.4021153 C32.176009,33.4021153 30.67467,31.9142455 30.67467,30.0788652 C30.67467,28.2434848 32.176009,26.755615 34.0280046,26.755615 C35.8800002,26.755615 37.3813393,28.2434848 37.3813393,30.0788652 C37.3813393,31.9142455 35.8800002,33.4021153 34.0280046,33.4021153 L34.0280046,33.4021153 Z" id="Shape" fill="#FFFFFF"></path>
            </g>
        </g>
    </g>
</svg>