<svg xmlns="http://www.w3.org/2000/svg" xmlns:xlink="http://www.w3.org/1999/xlink" width="47" height="21" viewBox="0 0 47 21">
    <defs>
        <path id="b" d="M42.799 13.068C38.419 5.834 30.473 1 21.399 1 12.327 1 4.382 5.834 0 13.068l6.498 3.751C9.58 11.827 15.101 8.5 21.4 8.5c6.298 0 11.819 3.327 14.9 8.32l6.499-3.752z"/>
        <filter id="a" width="116.4%" height="144.2%" x="-8.2%" y="-28.4%" filterUnits="objectBoundingBox">
            <feOffset dy="-1" in="SourceAlpha" result="shadowOffsetOuter1"/>
            <feGaussianBlur in="shadowOffsetOuter1" result="shadowBlurOuter1" stdDeviation="1"/>
            <feColorMatrix in="shadowBlurOuter1" values="0 0 0 0 0 0 0 0 0 0 0 0 0 0 0 0 0 0 0.1 0"/>
        </filter>
        <path id="d" d="M26.166-.177c.026-.548.075-.536.11 0l1.09 17.21a.245.245 0 0 1-.249.261h-1.498a.25.25 0 0 1-.253-.26l.8-17.21z"/>
        <filter id="c" width="376.9%" height="136.3%" x="-138.5%" y="-26.5%" filterUnits="objectBoundingBox">
            <feMorphology in="SourceAlpha" operator="dilate" radius=".269" result="shadowSpreadOuter1"/>
            <feOffset dy="-2" in="shadowSpreadOuter1" result="shadowOffsetOuter1"/>
            <feGaussianBlur in="shadowOffsetOuter1" result="shadowBlurOuter1" stdDeviation=".5"/>
            <feComposite in="shadowBlurOuter1" in2="SourceAlpha" operator="out" result="shadowBlurOuter1"/>
            <feColorMatrix in="shadowBlurOuter1" values="0 0 0 0 0 0 0 0 0 0 0 0 0 0 0 0 0 0 0.6 0"/>
        </filter>
    </defs>
    <g fill="none" fill-rule="evenodd">
        <g transform="translate(2 3)">
            <use fill="#000" filter="url(#a)" xlink:href="#b"/>
            <use fill="#4E5972" xlink:href="#b"/>
        </g>
        <g transform="rotate(30 21.768 13.526)">
            <use fill="#000" filter="url(#c)" xlink:href="#d"/>
            <use fill="#FFF" stroke="#FFF" stroke-width=".538" xlink:href="#d"/>
        </g>
    </g>
</svg>
