<svg width="98" height="98" viewBox="0 0 98 98" xmlns="http://www.w3.org/2000/svg"><title>12AC5283-9913-4529-A56A-956BD55696A5</title><g fill="none" fill-rule="evenodd"><circle fill="#2C3449" cx="49" cy="49" r="49"/><path d="M33.143 36.232c-1.521.873-2.293 2.655-1.758 4.359l4.636 15.02v-.633l-2.878-18.746z" fill="#F37791"/><path d="M36.021 31.585c-1.948.472-3.243 2.298-2.94 4.249l2.94 19.144V31.585z" fill="#EE4266"/><path d="M51.087 72.853c8.308 0 15.067-6.677 15.067-14.884 0-2.1-1.77-3.801-3.952-3.801-2.183 0-3.952 1.702-3.952 3.8 0 4.016-3.213 7.283-7.163 7.283-3.949 0-7.162-3.267-7.162-7.282 0-4.016 3.213-7.283 7.162-7.283 1.373 0 2.706.396 3.855 1.144 1.807 1.178 4.265.723 5.488-1.015 1.224-1.738.752-4.102-1.055-5.279a15.142 15.142 0 0 0-8.288-2.452c-2.59 0-5.03.65-7.162 1.793V31.252c0-2.1-1.77-3.801-3.952-3.801s-3.952 1.702-3.952 3.8V57.97c0 8.207 6.76 14.884 15.066 14.884" fill="#FFF"/></g></svg>