<svg xmlns="http://www.w3.org/2000/svg" xmlns:xlink="http://www.w3.org/1999/xlink" width="110" height="120" viewBox="0 0 110 120">
    <defs>
        <rect id="a" width="110" height="110" rx="55"/>
    </defs>
    <g fill="none" fill-rule="evenodd">
        <g transform="translate(0 10)">
            <mask id="b" fill="#fff">
                <use xlink:href="#a"/>
            </mask>
            <use fill="#FEE390" xlink:href="#a"/>
            <g mask="url(#b)">
                <path fill="#E9A871" d="M68.875 72.337l-3.224-1.525V60.299H44.96v10.513l-3.238 1.433.862 29.816h2.376v4.571h20.691v-4.571h2.362l.862-29.724"/>
                <path fill="#F1C9B1" d="M65.898 69.885l-.217-.02v-7.958l.033-.01.184 7.988"/>
                <path fill="#DC8353" d="M65.68 69.885L44.918 65.81v-3.903c3.559 2.428 7.347 3.903 10.374 3.903 3.031 0 6.827-1.48 10.39-3.913v7.988"/>
                <path fill="#7DC6DE" d="M107.208 121.011c-1.062-11.728-3.971-22.824-5.683-33.036-1.665-9.967-15.98-9.97-33.004-16.492l-.779 2.98c-1.344 3.93-4.794 10.36-12.985 10.36-9.241 0-12.766-8.186-13.86-11.733l-.42-1.607C23.457 78.005 9.14 78.008 7.47 87.975c-1.711 10.212-4.615 21.308-5.678 33.036h105.416"/>
                <path fill="#3C3A41" d="M59.292 121.011l-.987-31.954H52.27l-.963 31.954h7.986M59.292 83.6l-1.911 3.86h-5.816l-1.857-3.86 4.792-4.129 4.792 4.13"/>
                <path fill="#69B7D2" d="M43.85 69.885l-6.92 3.302 11.087 12.675L54.5 79.32l-8.048-7.128-2.603-2.307M65.157 69.885L54.5 79.315l6.485 6.547L72.069 73.18l-6.912-3.295"/>
                <path fill="#E9A871" d="M78.306 29.386l.711-9.324c0-12.193-11.594-22.073-23.718-22.073-12.132 0-23.72 9.88-23.72 22.073l.713 9.315a4.304 4.304 0 0 0-1.802.918 4.408 4.408 0 0 0-1.546 3.364v4.592a4.398 4.398 0 0 0 4.366 4.411c0 11.514 13.765 22.43 21.989 22.43s21.993-10.914 21.993-22.428c2.404-.017 4.36-1.985 4.36-4.412v-4.591c0-2.073-1.429-3.8-3.346-4.275"/>
                <path fill="#F5D4BF" d="M75.264 49.115l.001-.002-.001.002m.04-.067l.006-.011-.006.011M75.493 48.71c.785-1.436 1.268-2.907 1.368-4.388-.1 1.481-.583 2.952-1.368 4.388"/>
                <path fill="#E18C5A" d="M55.032 65.092V46.109h-5.324s2.087-9.926 5.324-16.777l.003-31.343c12.245 0 23.956 9.88 23.956 22.073l-.718 9.324c1.936.475 3.38 2.202 3.38 4.275v4.592c0 2.427-1.976 4.394-4.404 4.411 0 .2-.008.398-.016.598a16.005 16.005 0 0 1-.77 4.228c0 .002 0 .006-.002.009-.03.094-.06.19-.093.284l-.007.022-.004.01-.021.063-.001.002c-3.221 9.387-14.264 17.21-21.303 17.212m10.206-36.58c-.041 0-.083 0-.125.003a3.495 3.495 0 0 0-3.38 3.606 3.497 3.497 0 0 0 3.625 3.363 3.495 3.495 0 0 0 3.38-3.606 3.497 3.497 0 0 0-3.5-3.366"/>
                <path fill="#DD8454" d="M44.914 34.736a3.195 3.195 0 1 1 .006-6.39 3.195 3.195 0 0 1-.006 6.39"/>
                <path fill="#2D211A" d="M48.11 31.429a3.195 3.195 0 1 1-6.387.223 3.195 3.195 0 0 1 6.386-.223"/>
                <path fill="#FFFFFE" d="M46.513 30.713a.799.799 0 1 1-1.596.057.799.799 0 0 1 1.596-.057"/>
                <path fill="#D66F43" d="M64.081 34.736a3.195 3.195 0 1 1 .006-6.39 3.195 3.195 0 0 1-.006 6.39"/>
                <path fill="#2D211A" d="M67.276 31.429a3.194 3.194 0 1 1-6.385.223 3.194 3.194 0 1 1 6.385-.223"/>
                <path fill="#FFFFFE" d="M67.277 30.713a.799.799 0 1 1-1.596.057.799.799 0 0 1 1.596-.057"/>
                <path fill="#E05844" d="M62.486 50.713c0 3.53-3.575 6.39-7.986 6.39-4.41 0-7.986-2.86-7.986-6.39h15.972"/>
                <path fill="#FFFFFE" d="M60.037 53.908H48.963c-.47 0-.852-.477-.852-1.065v-2.13H60.89v2.13c0 .588-.382 1.065-.852 1.065"/>
                <path fill="#2D2119" d="M55.298-10c-39.235.591-23.043 44.736-23.043 44.736S30.23 10.553 40.62 12.033c6.385.91 11.12 1.219 14.68 1.192 3.558.027 8.293-.282 14.678-1.192 10.389-1.48 8.366 22.703 8.366 22.703S94.533-9.41 55.298-10"/>
                <path fill="#3C3A41" d="M68.644 39.32c-6.388 0-8.392-3.423-9.436-8.565-.24-1.185.254-1.735.878-2.52.885-1.109 2.84-1.975 8.558-1.975 8.289 0 8.289 3.298 8.289 4.678 0 4.354-1.004 8.383-8.289 8.383zM51.39 30.756c-1.044 5.142-3.048 8.566-9.436 8.566-7.285 0-8.289-4.03-8.289-8.383 0-1.38 0-4.678 8.289-4.678 5.718 0 7.674.866 8.557 1.976.625.784 1.119 1.334.879 2.519zm28.667-5.878h-4.82c-1.513-.809-3.629-1.325-6.592-1.325-4.916 0-8.255.96-9.974 2.834-.812-.452-2.013-.961-3.372-.961-1.357 0-2.559.509-3.37.96-1.72-1.873-5.06-2.833-9.975-2.833-2.963 0-5.08.516-6.592 1.325h-4.82v3.52l1.583.567a8.317 8.317 0 0 0-.228 1.974c0 4.374 1.043 10.188 10.057 10.188 8.051 0 10.163-5.057 11.167-10.005.152-.75.169-1.465.067-2.135.393-.257 1.04-.481 2.111-.481 1.072 0 1.72.224 2.112.48a6.096 6.096 0 0 0 .067 2.136c1.003 4.948 3.116 10.005 11.167 10.005 9.016 0 10.061-5.814 10.061-10.188a8.37 8.37 0 0 0-.233-1.974l1.584-.567v-3.52z"/>
            </g>
        </g>
        <path fill="#2D2119" d="M55.298 0C16.063.591 32.255 44.736 32.255 44.736S30.23 20.553 40.62 22.033c6.385.91 11.12 1.219 14.68 1.192 3.558.027 8.293-.282 14.678-1.192 10.389-1.48 8.366 22.703 8.366 22.703S94.533.59 55.298 0"/>
    </g>
</svg>
