<svg xmlns="http://www.w3.org/2000/svg" xmlns:xlink="http://www.w3.org/1999/xlink" width="47" height="21" viewBox="0 0 47 21">
    <defs>
        <linearGradient id="c" x1="93.629%" x2="8.114%" y1="86.817%" y2="86.817%">
            <stop offset="0%" stop-color="#43D484"/>
            <stop offset="51.091%" stop-color="#F5A623"/>
            <stop offset="100%" stop-color="#EE4266"/>
        </linearGradient>
        <path id="b" d="M42.799 14.068c-4.38-7.233-12.326-12.067-21.4-12.067C12.327 2 4.382 6.835 0 14.068l6.498 3.752C9.58 12.828 15.101 9.5 21.4 9.5c6.298 0 11.819 3.328 14.9 8.32l6.499-3.752z"/>
        <filter id="a" width="116.4%" height="144.2%" x="-8.2%" y="-28.4%" filterUnits="objectBoundingBox">
            <feOffset dy="-1" in="SourceAlpha" result="shadowOffsetOuter1"/>
            <feGaussianBlur in="shadowOffsetOuter1" result="shadowBlurOuter1" stdDeviation="1"/>
            <feColorMatrix in="shadowBlurOuter1" values="0 0 0 0 0 0 0 0 0 0 0 0 0 0 0 0 0 0 0.1 0"/>
        </filter>
        <path id="e" d="M25.8.529c.026-.548.075-.536.11 0L27 17.739a.245.245 0 0 1-.249.261h-1.498a.25.25 0 0 1-.253-.261l.8-17.21z"/>
        <filter id="d" width="376.9%" height="136.3%" x="-138.5%" y="-26.5%" filterUnits="objectBoundingBox">
            <feMorphology in="SourceAlpha" operator="dilate" radius=".269" result="shadowSpreadOuter1"/>
            <feOffset dy="-2" in="shadowSpreadOuter1" result="shadowOffsetOuter1"/>
            <feGaussianBlur in="shadowOffsetOuter1" result="shadowBlurOuter1" stdDeviation=".5"/>
            <feComposite in="shadowBlurOuter1" in2="SourceAlpha" operator="out" result="shadowBlurOuter1"/>
            <feColorMatrix in="shadowBlurOuter1" values="0 0 0 0 0 0 0 0 0 0 0 0 0 0 0 0 0 0 0.6 0"/>
        </filter>
    </defs>
    <g fill="none" fill-rule="evenodd">
        <g transform="translate(2 2)">
            <use fill="#000" filter="url(#a)" xlink:href="#b"/>
            <use fill="url(#c)" xlink:href="#b"/>
        </g>
        <g transform="rotate(30 23.268 13.732)">
            <use fill="#000" filter="url(#d)" xlink:href="#e"/>
            <use fill="#FFF" stroke="#FFF" stroke-width=".538" xlink:href="#e"/>
        </g>
    </g>
</svg>
