<svg width="14" height="13" viewBox="0 0 14 13" xmlns="http://www.w3.org/2000/svg"><title>BEA218C1-C51B-4786-B145-6CB3FD42F36C</title><path d="M3.672 0c-.184 0-.333.135-.333.302v2.57c0 .167.149.302.333.302.184 0 .333-.135.333-.302V.302C4.005.135 3.856 0 3.672 0zm6.667 0c-.185 0-.334.135-.334.302v2.57c0 .167.15.302.334.302.184 0 .333-.135.333-.302V.302c0-.167-.15-.302-.333-.302zm-9 .907C.598.907 0 1.449 0 2.121v2.716h14V2.121c0-.672-.598-1.214-1.339-1.214H11.005v1.29a.87.87 0 0 1 .334.675c0 .501-.448.907-1 .907-.553 0-1-.406-1-.907a.87.87 0 0 1 .333-.675V.907H4.333v1.285c.208.166.339.41.339.68 0 .501-.448.907-1 .907s-1-.406-1-.907c0-.266.127-.505.328-.67V.906H1.339zM0 5.442v6.344C0 12.458.598 13 1.339 13H12.66c.741 0 1.339-.542 1.339-1.214V5.442H0z" fill-rule="nonzero" fill="#FFF"/></svg>