<?xml version="1.0" encoding="UTF-8"?>
<svg width="45px" height="45px" viewBox="0 0 45 45" version="1.1" xmlns="http://www.w3.org/2000/svg" xmlns:xlink="http://www.w3.org/1999/xlink">
    <!-- Generator: Sketch 41.2 (35397) - http://www.bohemiancoding.com/sketch -->
    <title>check-list</title>
    <desc>Created with Sketch.</desc>
    <defs></defs>
    <g id="Page-1" stroke="none" stroke-width="1" fill="none" fill-rule="evenodd">
        <g id="Sticky-actions-one-finished" transform="translate(-790.000000, -356.000000)">
            <g id="check-list" transform="translate(790.000000, 356.000000)">
                <circle id="Oval-3" fill="#64ECA1" cx="22.5" cy="22.5" r="22.5"></circle>
                <path d="M13,11.9926339 C13,10.3398479 14.3422643,9 15.9987856,9 L26,9 L33,15.9797363 L33,33.0027642 C33,34.6580918 31.656688,36 30.0057979,36 L15.9942021,36 C14.3405499,36 13,34.6610658 13,33.0073661 L13,11.9926339 Z" id="Rectangle-14" fill="#FFFFFF"></path>
                <path d="M17.0906611,22.9835105 L17.1037133,22.9965628 L20.2550361,19.8452399 C20.4439255,19.6563506 20.4451022,19.3385914 20.2498401,19.1433292 C20.0602885,18.9537777 19.7403218,18.9457407 19.5479294,19.1381332 L17.0836384,21.6024241 L16.0246255,20.5434111 C15.8331259,20.3519116 15.5138831,20.3606723 15.3243315,20.5502239 C15.1290694,20.7454861 15.1355465,21.0685457 15.3175187,21.2505179 L17.0705862,23.0035854 L17.0906611,22.9835105 Z" id="Combined-Shape" fill="#43D484"></path>
                <path d="M16.9111989,30.9860513 L16.9242511,30.9991035 L20.0755739,27.8477807 C20.2644633,27.6588914 20.26564,27.3411322 20.0703779,27.14587 C19.8808263,26.9563184 19.5608596,26.9482815 19.3684672,27.1406739 L16.9041762,29.6049649 L15.8451633,28.5459519 C15.6536637,28.3544524 15.3344209,28.3632131 15.1448693,28.5527647 C14.9496072,28.7480268 14.9560843,29.0710865 15.1380565,29.2530587 L16.891124,31.0061262 L16.9111989,30.9860513 Z" id="Combined-Shape" fill="#43D484"></path>
                <rect id="Rectangle-16" fill="#D9D9E0" x="22" y="19" width="7" height="1" rx="0.5"></rect>
                <rect id="Rectangle-16" fill="#D9D9E0" x="22" y="22" width="5" height="1" rx="0.5"></rect>
                <rect id="Rectangle-16" fill="#D9D9E0" x="22" y="27" width="7" height="1" rx="0.5"></rect>
                <rect id="Rectangle-16" fill="#D9D9E0" x="22" y="30" width="5" height="1" rx="0.5"></rect>
                <path d="M26,9 L33,16 L28.0059191,16 C26.8980806,16 26,15.1134452 26,13.9940809 L26,9 Z" id="Rectangle-15" fill="#E8EAF0"></path>
            </g>
        </g>
    </g>
</svg>