<?xml version="1.0" encoding="UTF-8"?>
<svg width="85px" height="85px" viewBox="0 0 85 85" version="1.1" xmlns="http://www.w3.org/2000/svg" xmlns:xlink="http://www.w3.org/1999/xlink">
    <!-- Generator: Sketch 42 (36781) - http://www.bohemiancoding.com/sketch -->
    <title>check-ico</title>
    <desc>Created with Sketch.</desc>
    <defs>
        <circle id="path-1" cx="42.5" cy="42.5" r="42.5"></circle>
    </defs>
    <g id="Proto" stroke="none" stroke-width="1" fill="none" fill-rule="evenodd">
        <g id="advisor---research-(trigger-for-all)" transform="translate(-678.000000, -636.000000)">
            <g id="check-ico" transform="translate(678.000000, 636.000000)">
                <mask id="mask-2" fill="white">
                    <use xlink:href="#path-1"></use>
                </mask>
                <use id="Oval-7" fill="#58BBFB" xlink:href="#path-1"></use>
                <rect id="Rectangle-34" fill="#383F52" mask="url(#mask-2)" x="20" y="16" width="45" height="55" rx="1"></rect>
                <polygon id="Rectangle-4" fill="#FFFFFF" mask="url(#mask-2)" points="25 21 60 21 60 57 54 64 25 64"></polygon>
                <path d="M33,31 L52,31 L52,50 L33,50 L33,31 Z M35,33 L35,48 L50,48 L50,33 L35,33 Z" id="Combined-Shape" fill="#E8EAF0" mask="url(#mask-2)"></path>
                <polygon id="Path-3" fill="#D9D9E0" mask="url(#mask-2)" points="60 57 54 57 54 64"></polygon>
                <path d="M42.9532948,40.8319744 L38.748094,36.6267736 L36.6267736,38.748094 L42.9142136,45.0355339 L43.3822269,44.5675205 L43.4213081,44.6066017 L56.496188,31.5317219 L54.3748676,29.4104015 L42.9532948,40.8319744 Z" id="Combined-Shape" fill="#43D484" mask="url(#mask-2)"></path>
            </g>
        </g>
    </g>
</svg>