<?xml version="1.0" encoding="UTF-8"?>
<svg width="25px" height="12px" viewBox="0 0 25 12" version="1.1" xmlns="http://www.w3.org/2000/svg" xmlns:xlink="http://www.w3.org/1999/xlink">
    <!-- Generator: Sketch 43.1 (39012) - http://www.bohemiancoding.com/sketch -->
    <title>competition-picto</title>
    <desc>Created with Sketch.</desc>
    <defs></defs>
    <g id="Product" stroke="none" stroke-width="1" fill="none" fill-rule="evenodd">
        <g id="Advisor-v5---end-goal" transform="translate(-925.000000, -323.000000)" fill-rule="nonzero" fill="#FFFFFF">
            <g id="Group" transform="translate(0.000000, 56.000000)">
                <path d="M943.655833,270.896654 C943.646389,270.83099 943.64,270.765048 943.636389,270.697721 C943.633889,270.652005 943.631944,270.605735 943.631944,270.559188 C943.631944,270.44476 943.64,270.331717 943.655833,270.221722 C943.810833,269.152802 944.69,268.334072 945.751111,268.334072 C946.812222,268.334072 947.691389,269.152802 947.846667,270.221722 C947.8625,270.331717 947.870833,270.44476 947.870833,270.559188 C947.870833,270.605735 947.868611,270.652005 947.866389,270.697721 C947.8625,270.765048 947.856111,270.831267 947.846667,270.896654 C947.845,270.916603 947.843333,270.936275 947.841111,270.956224 C947.707778,272.464293 946.823056,273.629909 945.751111,273.629909 C944.679444,273.629909 943.794722,272.46457 943.661389,270.956224 C943.659167,270.936552 943.657778,270.916603 943.655833,270.896654 Z M947.586389,273.355614 C948.950278,273.54485 950,274.713237 950,276.125719 C950,277.670361 948.744444,277.666759 947.195,277.666759 L945.750556,277.666759 L944.306667,277.666759 C944.100556,277.666759 943.9,277.666759 943.706667,277.663157 C943.742222,277.466995 943.763889,277.254762 943.763889,277.018979 C943.763889,275.847545 943.293056,274.766156 942.523056,273.968761 C942.913333,273.647641 943.390833,273.428482 943.916111,273.355614 C943.920556,273.354783 943.925556,273.354783 943.930833,273.353675 C943.969722,273.34841 944.008889,273.344254 944.048611,273.340375 C944.048889,273.344254 944.05,273.34841 944.05,273.352289 C944.050556,273.363926 944.0525,273.375009 944.054167,273.386922 C944.061389,273.452587 944.080833,273.516035 944.111667,273.577267 C944.318056,274.094549 944.984444,275.074808 945.377222,275.63171 L945.458056,274.475237 C945.343611,274.416499 945.244722,274.319249 945.181667,274.20676 C945.135833,274.125857 945.107778,274.037196 945.107778,273.94715 C945.107778,273.94715 945.400833,274.076539 945.699722,274.076539 C945.717222,274.076539 945.733889,274.076539 945.751111,274.075431 C945.768333,274.076539 945.785278,274.076539 945.8025,274.076539 C946.101389,274.076539 946.394167,273.94715 946.394167,273.94715 C946.394167,274.037473 946.366389,274.125857 946.320833,274.20676 C946.257778,274.319249 946.159167,274.416776 946.044444,274.475237 L946.125556,275.63171 C946.517778,275.074808 947.184722,274.094549 947.390556,273.577267 C947.421389,273.516035 947.441111,273.45231 947.448056,273.386922 C947.449444,273.375009 947.451389,273.363926 947.452222,273.352289 C947.452222,273.34841 947.453611,273.344254 947.453611,273.340375 C947.493333,273.344254 947.5325,273.34841 947.571667,273.353675 C947.576667,273.354783 947.581389,273.354783 947.586389,273.355614 Z M927.153056,270.896654 C927.143611,270.83099 927.137222,270.765048 927.133611,270.697721 C927.131111,270.652005 927.129444,270.605735 927.129444,270.559188 C927.129444,270.44476 927.1375,270.331717 927.153333,270.221722 C927.308056,269.152802 928.186944,268.334072 929.248333,268.334072 C930.309722,268.334072 931.188611,269.152802 931.343889,270.221722 C931.359722,270.331717 931.368056,270.44476 931.368056,270.559188 C931.368056,270.605735 931.366111,270.652005 931.363611,270.697721 C931.359722,270.765048 931.353333,270.831267 931.343889,270.896654 C931.342222,270.916603 931.340556,270.936275 931.338611,270.956224 C931.204722,272.464293 930.320278,273.629909 929.248333,273.629909 C928.176667,273.629909 927.291944,272.46457 927.158333,270.956224 C927.156389,270.936552 927.154444,270.916603 927.153056,270.896654 Z M932.476389,273.968761 C931.705833,274.766433 931.235556,275.847545 931.235556,277.018979 C931.235556,277.254485 931.257222,277.466995 931.292778,277.663157 C931.099444,277.666759 930.898889,277.666759 930.693056,277.666759 L929.248611,277.666759 L927.804444,277.666759 C926.255833,277.666759 925,277.670361 925,276.125719 C925,274.713237 926.05,273.54485 927.413889,273.355614 C927.418333,273.354783 927.423611,273.354783 927.428611,273.353675 C927.4675,273.34841 927.506944,273.344254 927.546389,273.340375 C927.546389,273.344254 927.5475,273.34841 927.5475,273.352289 C927.548056,273.363926 927.550278,273.375009 927.551667,273.386922 C927.558889,273.452587 927.578333,273.516035 927.609167,273.577267 C927.815278,274.094549 928.481944,275.074808 928.874444,275.63171 L928.955278,274.475237 C928.840833,274.416499 928.742222,274.319249 928.678889,274.20676 C928.633333,274.125857 928.605556,274.037196 928.605556,273.94715 C928.605556,273.94715 928.898333,274.076539 929.197222,274.076539 C929.214167,274.076539 929.231111,274.076539 929.248333,274.075431 C929.265278,274.076539 929.282222,274.076539 929.299444,274.076539 C929.598333,274.076539 929.891111,273.94715 929.891111,273.94715 C929.891111,274.037473 929.863333,274.125857 929.817778,274.20676 C929.754722,274.319249 929.656111,274.416776 929.541389,274.475237 L929.6225,275.63171 C930.015,275.074808 930.681667,274.094549 930.887778,273.577267 C930.918333,273.516035 930.938333,273.45231 930.945278,273.386922 C930.946944,273.375009 930.948889,273.363926 930.949444,273.352289 C930.949444,273.34841 930.950556,273.344254 930.950833,273.340375 C930.990556,273.344254 931.029722,273.34841 931.068889,273.353675 C931.073333,273.354783 931.078333,273.354783 931.083333,273.355614 C931.608611,273.428482 932.086389,273.647641 932.476389,273.968761 Z M942.9625,277.018979 C942.9625,278.995567 941.363333,279 939.385,279 L939.356667,279 L937.5,279 L935.643056,279 L935.615,279 C933.636667,279 932.037222,278.995567 932.037222,277.018979 C932.037222,275.202535 933.386944,273.700838 935.140556,273.457297 C935.146389,273.456466 935.153333,273.456189 935.159444,273.454804 C935.209722,273.448154 935.260278,273.442613 935.310833,273.437903 C935.311111,273.44289 935.312778,273.447877 935.312778,273.453141 C935.313611,273.46838 935.316389,273.482233 935.318056,273.497472 C935.3275,273.5817 935.3525,273.663434 935.391944,273.742398 C935.656944,274.407356 936.513889,275.667729 937.018889,276.383667 L937.122778,274.896931 C936.975556,274.821293 936.848611,274.696336 936.7675,274.551707 C936.708889,274.447808 936.673333,274.334211 936.673333,274.21812 C936.673333,274.21812 937.049722,274.384637 937.434167,274.384637 C937.456111,274.384637 937.478056,274.38436 937.5,274.383251 C937.521944,274.38436 937.543889,274.384637 937.565833,274.384637 C937.950278,274.384637 938.326667,274.21812 938.326667,274.21812 C938.326667,274.334211 938.290833,274.447808 938.232222,274.551707 C938.151111,274.696336 938.024167,274.82157 937.876944,274.896931 L937.980833,276.383667 C938.485556,275.667729 939.342778,274.407356 939.6075,273.742398 C939.647222,273.663434 939.672222,273.5817 939.681667,273.497472 C939.683611,273.482233 939.686111,273.46838 939.686944,273.453141 C939.686944,273.447877 939.688611,273.44289 939.688889,273.437903 C939.739444,273.442613 939.789722,273.448431 939.840278,273.454804 C939.846389,273.456189 939.853056,273.456466 939.858889,273.457297 C941.613056,273.700561 942.9625,275.202258 942.9625,277.018979 Z M937.5,273.810002 C936.737222,273.810002 936.048333,273.350627 935.556389,272.611692 C935.159167,272.015723 934.889444,271.238 934.812778,270.372169 C934.810278,270.346679 934.808056,270.321189 934.806111,270.295421 C934.793889,270.211193 934.785833,270.126134 934.780833,270.03969 C934.7775,269.980952 934.775278,269.921383 934.775278,269.861259 C934.775278,269.714137 934.785833,269.568678 934.806111,269.427374 C935.005556,268.05285 936.135833,267 937.500278,267 C938.864722,267 939.995,268.05285 940.194167,269.427374 C940.214722,269.568678 940.225278,269.714137 940.225278,269.861259 C940.225278,269.921383 940.222778,269.980952 940.219444,270.03969 C940.214167,270.126134 940.206111,270.211193 940.193889,270.295421 C940.192222,270.320912 940.19,270.346679 940.1875,270.372169 C940.110556,271.238277 939.841111,272.015723 939.443889,272.611692 C938.951389,273.350627 938.262778,273.810002 937.5,273.810002 Z" id="competition-picto"></path>
            </g>
        </g>
    </g>
</svg>