<?xml version="1.0" encoding="UTF-8"?>
<svg width="98px" height="98px" viewBox="0 0 98 98" version="1.1" xmlns="http://www.w3.org/2000/svg" xmlns:xlink="http://www.w3.org/1999/xlink">
    <!-- Generator: sketchtool 41.2 (35397) - http://www.bohemiancoding.com/sketch -->
    <title>E23AD954-175C-432F-B152-000769B8F17A</title>
    <desc>Created with sketchtool.</desc>
    <defs></defs>
    <g id="Current" stroke="none" stroke-width="1" fill="none" fill-rule="evenodd">
        <g id="Action---Completing" transform="translate(-671.000000, -243.000000)">
            <g id="Group" transform="translate(481.000000, 160.000000)">
                <g id="jourx_ico" transform="translate(190.000000, 83.000000)">
                    <circle id="Oval-2" fill="#2C3449" cx="49" cy="49" r="49"></circle>
                    <path d="M64.1380247,53.6464365 C62.0667621,53.6464365 60.3869972,51.9920657 60.3869972,49.9521158 L60.3869972,43.0054287 C60.3869972,40.9654788 62.0667621,39.311804 64.1380247,39.311804 C66.2092872,39.311804 67.8890521,40.9654788 67.8890521,43.0054287 L67.8890521,49.9521158 C67.8890521,51.9920657 66.2092872,53.6464365 64.1380247,53.6464365 Z M55.6579324,53.9178731 C53.5866699,53.9178731 51.906905,52.2635022 51.906905,50.2235523 L51.906905,41.6141425 C51.906905,39.5734967 53.5866699,37.9198218 55.6579324,37.9198218 C57.7291949,37.9198218 59.4089599,39.5734967 59.4089599,41.6141425 L59.4089599,50.2235523 C59.4089599,52.2635022 57.7291949,53.9178731 55.6579324,53.9178731 Z M37.5719941,53.8498231 C35.7720945,53.8498231 34.1841973,52.5712875 33.8767939,50.7658866 L30.0522723,28.3048621 C29.7095352,26.2927519 31.0882569,24.3878242 33.1312525,24.0509645 C35.1791947,23.7154968 37.1084157,25.0712875 37.4511528,27.0833977 L41.2756744,49.5437262 C41.6184114,51.5558365 40.2396898,53.4607641 38.1966942,53.7983198 C37.9868119,53.8331193 37.7776363,53.8498231 37.5719941,53.8498231 Z M45.769484,53.8502506 C45.6203757,53.8502506 45.4705607,53.8418987 45.3186257,53.823803 C43.2622034,53.5815981 41.7944407,51.7420936 42.0403634,49.7167595 L44.7709531,27.255735 C45.0175824,25.229705 46.8775493,23.7820435 48.9417451,24.0270324 C50.9981675,24.2692373 52.4659301,26.1080457 52.2200075,28.1340758 L49.4894178,50.5951003 C49.2611619,52.4714923 47.6414643,53.8502506 45.769484,53.8502506 Z M51.8270508,74 C42.9088204,74 35.6533948,66.964922 35.6533948,58.3172327 C35.6533948,56.2772829 37.3331598,54.623608 39.4044223,54.623608 L51.6228219,54.623608 C53.6947911,54.623608 55.374556,56.2772829 55.374556,58.3172327 C55.374556,60.3578786 53.6947911,62.0115535 51.6228219,62.0115535 L44.064233,62.0115535 C45.4874751,64.7363586 48.4321872,66.6113586 51.8270508,66.6113586 C56.6084094,66.6113586 60.4972384,62.8905902 60.4972384,58.3172327 C60.4972384,56.2772829 62.1770033,54.623608 64.2489725,54.623608 C66.3202351,54.623608 68,56.2772829 68,58.3172327 C68,66.964922 60.7445744,74 51.8270508,74 Z" id="Combined-Shape" fill="#FFFFFF"></path>
                </g>
            </g>
        </g>
    </g>
</svg>