<svg width="92" height="80" viewBox="0 0 92 80" xmlns="http://www.w3.org/2000/svg"><title>065B8B80-0483-4A30-836C-901DD98307F9</title><defs><linearGradient x1="0%" y1="0%" y2="100%" id="a"><stop stop-color="#FFF" stop-opacity=".4" offset="0%"/><stop stop-color="#FFF" stop-opacity="0" offset="100%"/></linearGradient></defs><g fill="none" fill-rule="evenodd"><path d="M90.1 68.5L52.6 3.8C51.3 1.5 48.7.1 46 .1c-2.7 0-5.2 1.4-6.6 3.8L1.9 68.5c-1.3 2.3-1.2 5.3 0 7.6 1.3 2.3 4 3.8 6.6 3.8h75c2.6 0 5.3-1.5 6.6-3.8 1.2-2.2 1.3-5.2 0-7.6zm-79.5 2.8L46 10.1v.1l35.4 61.1H10.6z" fill="#EE4266" fill-rule="nonzero"/><g transform="translate(30 28)" fill="#21293D"><path d="M23.3 41.7h25.4l-9-15.5c-2.8 1.3-4.4 3.7-5.9 5.7L23.6 26 19 8.6c-.2-1-1.2-2.1-2.3-2.6-.3-.2-.8-.3-1.1-.3H7.7c-1.2 0-2 .6-2.6 1.6l-3.6 6c-.6 1.1-.2 2.7.6 3l4.8 2.8-.2.2c-.5 1-.1 2.4.7 2.9l10.3 5.7V39c0 1.2.9 2.1 2.1 2.1.6 0 1.2-.2 1.6-.7.4-.4.6-.9.6-1.4V27.9l10.2 5.9c-2.3 2.1-4.8 1.1-6.7 3.1-1 1.3-1.8 3-2.2 4.8zM8.2 17l-3.3-1.9 3.3-5.6h4.2L8.2 17zm6 3.6l2.8-4.9 2.1 7.7-4.9-2.8z" fill-rule="nonzero"/><ellipse cx="21.5" cy="3.5" rx="3.5" ry="3.5"/><path d="M11.4 25.6L6.8 23l.6 3.2c.1.7.5 2.1 0 2.8l-6.1 8.7c-.6.9-.3 2.4.5 3 1.2.9 2.7-.1 3-.5l6.5-9.3c.2-.4.7-1.8.5-3.1.1-.1-.2-2.2-.4-2.2z" fill-rule="nonzero"/></g><path d="M90.1 68.5L52.6 3.8C51.3 1.5 48.7.1 46 .1c-2.7 0-5.2 1.4-6.6 3.8L1.9 68.5c-1.3 2.3-1.2 5.3 0 7.6 1.3 2.3 4 3.8 6.6 3.8h75c2.6 0 5.3-1.5 6.6-3.8 1.2-2.2 1.3-5.2 0-7.6z" fill="url(#a)" fill-rule="nonzero"/></g></svg>