<?xml version="1.0" encoding="UTF-8"?>
<svg width="122px" height="122px" viewBox="0 0 122 122" version="1.1" xmlns="http://www.w3.org/2000/svg" xmlns:xlink="http://www.w3.org/1999/xlink">
    <!-- Generator: Sketch 41 (35326) - http://www.bohemiancoding.com/sketch -->
    <title>jour1_ico</title>
    <desc>Created with Sketch.</desc>
    <defs>
        <rect id="path-1" x="38" y="46" width="47" height="40"></rect>
        <filter x="-50%" y="-50%" width="200%" height="200%" filterUnits="objectBoundingBox" id="filter-2">
            <feOffset dx="2" dy="3" in="SourceAlpha" result="shadowOffsetOuter1"></feOffset>
            <feColorMatrix values="0 0 0 0 0   0 0 0 0 0   0 0 0 0 0  0 0 0 0.2 0" type="matrix" in="shadowOffsetOuter1"></feColorMatrix>
        </filter>
        <rect id="path-3" x="60" y="34" width="3" height="6" rx="1.5"></rect>
        <mask id="mask-4" maskContentUnits="userSpaceOnUse" maskUnits="objectBoundingBox" x="-1" y="-1" width="5" height="8">
            <rect x="59" y="33" width="5" height="8" fill="white"></rect>
            <use xlink:href="#path-3" fill="black"></use>
        </mask>
        <rect id="path-5" x="73" y="34" width="3" height="6" rx="1.5"></rect>
        <mask id="mask-6" maskContentUnits="userSpaceOnUse" maskUnits="objectBoundingBox" x="-1" y="-1" width="5" height="8">
            <rect x="72" y="33" width="5" height="8" fill="white"></rect>
            <use xlink:href="#path-5" fill="black"></use>
        </mask>
        <rect id="path-7" x="47" y="34" width="3" height="6" rx="1.5"></rect>
        <mask id="mask-8" maskContentUnits="userSpaceOnUse" maskUnits="objectBoundingBox" x="-1" y="-1" width="5" height="8">
            <rect x="46" y="33" width="5" height="8" fill="white"></rect>
            <use xlink:href="#path-7" fill="black"></use>
        </mask>
    </defs>
    <g id="Current" stroke="none" stroke-width="1" fill="none" fill-rule="evenodd">
        <g id="Dashboard---Empty" transform="translate(-459.000000, -122.000000)">
            <g id="jour1_ico" transform="translate(459.000000, 122.000000)">
                <circle id="Oval-2" fill="#58BBFB" cx="61" cy="61" r="61"></circle>
                <g id="Rectangle-13">
                    <use fill="black" fill-opacity="1" filter="url(#filter-2)" xlink:href="#path-1"></use>
                    <use fill="#FFFFFF" fill-rule="evenodd" xlink:href="#path-1"></use>
                </g>
                <rect id="Combined-Shape" fill="#D9D9E1" x="38" y="37" width="47" height="9"></rect>
                <path d="M56.02,53 L55.11,53 L55.11,57.78 C55.11,58.72 54.62,59.34 53.78,59.34 C52.95,59.34 52.42,58.71 52.42,57.78 L51.51,57.78 C51.51,59.14 52.39,60.16 53.78,60.16 C55.18,60.16 56.02,59.15 56.02,57.78 L56.02,53 Z M59.52,60.11 C60.98,60.11 61.92,59.01 61.92,57.73 C61.92,56.44 60.98,55.34 59.52,55.34 C58.08,55.34 57.14,56.44 57.14,57.73 C57.14,59.01 58.08,60.11 59.52,60.11 Z M59.52,59.33 C58.6,59.33 58,58.6 58,57.73 C58,56.86 58.6,56.12 59.52,56.12 C60.46,56.12 61.06,56.86 61.06,57.73 C61.06,58.6 60.46,59.33 59.52,59.33 Z M66.33,55.46 L66.33,57.79 C66.33,58.61 65.91,59.34 65.03,59.34 C64.19,59.34 63.89,58.7 63.89,57.86 L63.89,55.46 L63.02,55.46 L63.02,58.14 C63.02,58.77 63.11,59.18 63.36,59.52 C63.63,59.89 64.1,60.11 64.73,60.11 C65.49,60.11 66.06,59.74 66.33,59.19 L66.33,60 L67.2,60 L67.2,55.46 L66.33,55.46 Z M71.57,55.46 C71.45,55.41 71.31,55.39 71.14,55.39 C70.5,55.39 69.87,55.78 69.63,56.35 L69.63,55.46 L68.76,55.46 L68.76,60 L69.63,60 L69.63,58.01 C69.63,56.92 70.13,56.21 71.14,56.21 C71.3,56.21 71.39,56.22 71.57,56.26 L71.57,55.46 Z" id="Jour" fill="#4E5872"></path>
                <path d="M58.5505,72.129 L60.9985,72.129 L60.9985,80 L63.8035,80 L63.8035,68.1 L61.3725,68.1 C61.3725,69.528 60.8625,70.191 58.5505,70.191 L58.5505,72.129 Z" id="1" fill="#4E5872"></path>
                <g id="Rectangle-16">
                    <use fill="#D9D9E0" fill-rule="evenodd" xlink:href="#path-3"></use>
                    <use stroke="#58BBFB" mask="url(#mask-4)" stroke-width="2" xlink:href="#path-3"></use>
                </g>
                <g id="Rectangle-16">
                    <use fill="#D9D9E0" fill-rule="evenodd" xlink:href="#path-5"></use>
                    <use stroke="#58BBFB" mask="url(#mask-6)" stroke-width="2" xlink:href="#path-5"></use>
                </g>
                <g id="Rectangle-16">
                    <use fill="#D9D9E0" fill-rule="evenodd" xlink:href="#path-7"></use>
                    <use stroke="#58BBFB" mask="url(#mask-8)" stroke-width="2" xlink:href="#path-7"></use>
                </g>
            </g>
        </g>
    </g>
</svg>