<?xml version="1.0" encoding="UTF-8"?>
<svg width="85px" height="85px" viewBox="0 0 85 85" version="1.1" xmlns="http://www.w3.org/2000/svg" xmlns:xlink="http://www.w3.org/1999/xlink">
    <!-- Generator: sketchtool 42 (36781) - http://www.bohemiancoding.com/sketch -->
    <title>397EED88-885F-4B46-ACDF-DE165B394D97</title>
    <desc>Created with sketchtool.</desc>
    <defs>
        <circle id="path-1" cx="42.5" cy="42.5" r="42.5"></circle>
    </defs>
    <g id="Proto" stroke="none" stroke-width="1" fill="none" fill-rule="evenodd">
        <g id="advisor---recap-(no-trigger)" transform="translate(-678.000000, -342.000000)">
            <g id="check-ico" transform="translate(678.000000, 342.000000)">
                <mask id="mask-2" fill="white">
                    <use xlink:href="#path-1"></use>
                </mask>
                <use id="Oval-7" fill="#E8EAF0" xlink:href="#path-1"></use>
                <path d="M25.9062514,26.0010991 C25.4853821,26.0410307 25.1350828,26.3412775 25.0312515,26.7510748 L20.0312519,46.7504283 C20.0103382,46.8321085 19.9998383,46.9161055 20.0000019,47.0004202 L20.0000019,59.0000323 C20.0000571,59.5522764 20.44774,59.9999448 21.0000018,60 L62.9999982,60 C63.55226,59.9999448 63.9999429,59.5522764 63.9999981,59.0000323 L63.9999981,47.0004202 C64.0001617,46.9161055 63.9896618,46.8321085 63.9687481,46.7504283 L58.9687485,26.7510748 C58.8546709,26.3094094 58.4561725,26.0009045 57.9999986,26.0010991 L26.0000014,26.0010991 C25.9687686,25.9996336 25.9374842,25.9996336 25.9062514,26.0010991 Z" id="Path" fill="#CBCBD5" mask="url(#mask-2)"></path>
                <path d="M22.0000017,48.0003879 L32.5000008,48.0003879 L32.5000008,51.0002909 C32.5000533,51.523874 32.9764163,52.0002086 33.5000007,52.0002586 L50.4999993,52.0002586 C51.0235837,52.0002086 51.4999467,51.523874 51.4999992,51.0002909 L51.4999992,48.0003879 L61.9999983,48.0003879 L61.9999983,58.0000647 L22.0000017,58.0000647 L22.0000017,48.0003879 Z" id="Path" fill="#CBCBD5" mask="url(#mask-2)"></path>
                <path d="M26.7812513,28.0010344 L57.2187487,28.0010344 L61.7187483,46.0004526 L50.4999993,46.0004526 C49.9764148,46.0005026 49.5000519,46.4768372 49.4999994,47.0004202 L49.4999994,50.0003233 L34.5000006,50.0003233 L34.5000006,47.0004202 C34.4999481,46.4768372 34.0235852,46.0005026 33.5000007,46.0004526 L22.2812517,46.0004526 L26.7812513,28.0010344 Z" id="Path" fill="#E8EAF0" mask="url(#mask-2)"></path>
            </g>
        </g>
    </g>
</svg>