<?xml version="1.0" encoding="UTF-8"?>
<svg width="85px" height="85px" viewBox="0 0 85 85" version="1.1" xmlns="http://www.w3.org/2000/svg" xmlns:xlink="http://www.w3.org/1999/xlink">
    <!-- Generator: sketchtool 42 (36781) - http://www.bohemiancoding.com/sketch -->
    <title>A838C088-8632-48B3-BC7D-F0454ED5ABCE</title>
    <desc>Created with sketchtool.</desc>
    <defs>
        <filter x="-50%" y="-50%" width="200%" height="200%" filterUnits="objectBoundingBox" id="filter-1">
            <feOffset dx="5" dy="10" in="SourceAlpha" result="shadowOffsetOuter1"></feOffset>
            <feGaussianBlur stdDeviation="12.5" in="shadowOffsetOuter1" result="shadowBlurOuter1"></feGaussianBlur>
            <feColorMatrix values="0 0 0 0 0.219607843   0 0 0 0 0.247058824   0 0 0 0 0.321568627  0 0 0 0.25 0" type="matrix" in="shadowBlurOuter1" result="shadowMatrixOuter1"></feColorMatrix>
            <feMerge>
                <feMergeNode in="shadowMatrixOuter1"></feMergeNode>
                <feMergeNode in="SourceGraphic"></feMergeNode>
            </feMerge>
        </filter>
        <circle id="path-2" cx="42.5" cy="42.5" r="42.5"></circle>
    </defs>
    <g id="Proto" stroke="none" stroke-width="1" fill="none" fill-rule="evenodd">
        <g id="Landing-Page-(advisor)">
            <g id="check-ico-copy-2" filter="url(#filter-1)">
                <mask id="mask-3" fill="white">
                    <use xlink:href="#path-2"></use>
                </mask>
                <use id="Oval-7" fill="#58BBFB" xlink:href="#path-2"></use>
                <polygon id="Rectangle-4" fill="#40A2E1" mask="url(#mask-3)" points="27 23 62 23 62 59 56 66 27 66"></polygon>
                <polygon id="Rectangle-4" fill="#FFFFFF" mask="url(#mask-3)" points="25 21 60 21 60 57 54 64 25 64"></polygon>
                <path d="M38.9996224,46.3619512 C38.9996224,46.0135012 38.8666981,45.6645476 38.6008497,45.3991817 C38.0691527,44.8669394 37.2066557,44.8669394 36.6749587,45.3991817 L35.0003147,47.0739575 L33.3256707,45.3991817 C32.7939737,44.8669394 31.9314767,44.8669394 31.3997797,45.3991817 C30.8675793,45.930417 30.8675793,46.7934854 31.3997797,47.3252242 L33.0739202,49 L31.3992762,50.6747758 C31.1334277,50.9406452 31,51.2895987 31,51.6375452 C31,51.9859953 31.1329242,52.3349489 31.3992762,52.6008183 C31.9309732,53.1330606 32.7934702,53.1330606 33.3251672,52.6008183 L35.0003147,50.9260425 L36.6749587,52.6008183 C37.2066557,53.1330606 38.0691527,53.1330606 38.6008497,52.6008183 C39.1330501,52.069583 39.1330501,51.206011 38.6008497,50.6747758 L36.9262056,49 L38.6008497,47.3252242 C38.8661946,47.0593548 38.9996224,46.7109048 38.9996224,46.3619512" id="Shape" fill="#CBCBD5" fill-rule="nonzero" mask="url(#mask-3)"></path>
                <path d="M38.6091909,30.3968662 C38.0882808,29.8677113 37.2428776,29.8677113 36.7219675,30.3968662 L33.437551,33.7295145 L32.2782856,32.5530439 C31.7573755,32.023889 30.9119723,32.023889 30.3910622,32.5530439 C29.8696459,33.0816851 29.8696459,33.9396352 30.3910622,34.4682764 L32.4939393,36.602877 C32.7440166,36.8566658 33.0836966,37 33.437551,37 C33.7914053,37 34.1310853,36.8571796 34.3811626,36.602877 L38.6091909,32.3120986 C38.869899,32.0480349 39,31.7007449 39,31.3544824 C39,31.0077061 38.869899,30.6609299 38.6091909,30.3968662" id="Shape" fill="#383F52" fill-rule="nonzero" mask="url(#mask-3)"></path>
                <rect id="Rectangle-2" fill="#383F52" mask="url(#mask-3)" x="43" y="33" width="10" height="3" rx="1.5"></rect>
                <rect id="Rectangle-2" fill="#CBCBD5" mask="url(#mask-3)" x="43" y="48" width="10" height="3" rx="1.5"></rect>
                <polygon id="Path-3" fill="#D9D9E0" mask="url(#mask-3)" points="60 57 54 57 54 64"></polygon>
            </g>
        </g>
    </g>
</svg>
