<svg xmlns="http://www.w3.org/2000/svg" width="50" height="50" viewBox="0 0 50 50">
    <g fill="none" fill-rule="evenodd">
        <circle cx="25" cy="25" r="25" fill="#F5A623"/>
        <path fill="#FFF" fill-rule="nonzero" d="M29.899 23.825c.081.532.1 1.276.1 1.276.01.503-.096 6.578-.096 7.363 0 1.44-8.254 2.657-10.224 2.526-1.97-.13-2.463-.563-2.709-1.57-.246-1.008.985-1.833.985-1.833s-1.97.393-2.34-1.309c-.369-1.701 1.848-1.963 1.848-1.963-2.094 0-2.463-.655-2.463-1.963 0-1.31 2.216-1.571 2.216-1.571s-1.354-.131-1.477-1.57c-.123-1.44 1.724-1.78 2.216-1.78.37 0 1.164-.002 1.623 0 2.964.012 2.687-.577 2.687-.577s-1.355-5.236-.247-6.937c1.109-1.702 2.094-.563 2.217-.301.246.785.125 1.577.312 2.385.772 3.336 3.987 6.245 5.096 7.167.099.082.198.28.256.657zm1.499-.963h3.358c.135 0 .244.11.244.244v9.754c0 .134-.11.243-.244.243h-3.358a.244.244 0 0 1-.244-.243v-9.754c0-.135.11-.244.244-.244z"/>
    </g>
</svg>
