<svg id="content" xmlns="http://www.w3.org/2000/svg" viewBox="64 0 630 256"><style>.st0{fill:#4285f4}.st1{fill:#ea4335}.st2{fill:#fbbc05}.st3{fill:#34a853}.st4{fill:#757575}</style><path class="st0" d="M64.7 109.6c0-28.9 24.3-52.5 53.3-52.5 16 0 27.4 6.3 36 14.5l-10.1 10.1c-6.1-5.8-14.5-10.2-25.9-10.2-21.1 0-37.6 17-37.6 38.1s16.5 38.1 37.6 38.1c13.7 0 21.5-5.5 26.5-10.5 4.1-4.1 6.8-10 7.8-18H118v-14.3h48.3c.5 2.6.8 5.6.8 9 0 10.8-2.9 24.1-12.4 33.5-9.2 9.6-21 14.7-36.6 14.7-29.1-.1-53.4-23.6-53.4-52.5z"/><path class="st1" d="M206 94.5c-18.7 0-33.9 14.2-33.9 33.8 0 19.5 15.2 33.8 33.9 33.8s33.9-14.3 33.9-33.8c0-19.6-15.2-33.8-33.9-33.8zm0 54.2c-10.2 0-19.1-8.4-19.1-20.5 0-12.2 8.8-20.5 19.1-20.5 10.2 0 19.1 8.3 19.1 20.5 0 12.1-8.9 20.5-19.1 20.5z"/><path class="st2" d="M280 94.5c-18.7 0-33.9 14.2-33.9 33.8 0 19.5 15.2 33.8 33.9 33.8s33.9-14.3 33.9-33.8c0-19.6-15.2-33.8-33.9-33.8zm0 54.2c-10.2 0-19.1-8.4-19.1-20.5 0-12.2 8.8-20.5 19.1-20.5s19.1 8.3 19.1 20.5c0 12.1-8.9 20.5-19.1 20.5z"/><path class="st0" d="M370.8 96.5v5.5h-.5c-3.3-4-9.7-7.6-17.8-7.6-16.9 0-32.4 14.8-32.4 33.9 0 18.9 15.5 33.7 32.4 33.7 8.1 0 14.5-3.6 17.8-7.7h.5v4.9c0 12.9-6.9 19.8-18 19.8-9.1 0-14.7-6.5-17-12l-12.9 5.4c3.7 9 13.6 20 30 20 17.4 0 32.1-10.2 32.1-35.2V96.5h-14.2zm-17 52.2c-10.2 0-18.8-8.6-18.8-20.4 0-11.9 8.6-20.6 18.8-20.6 10.1 0 18 8.7 18 20.6.1 11.9-7.9 20.4-18 20.4z"/><path class="st3" d="M395.2 60.7H410V160h-14.8z"/><path class="st1" d="M450.7 148.7c-7.6 0-12.9-3.5-16.4-10.2l45.2-18.7-1.5-3.8c-2.8-7.6-11.4-21.5-28.9-21.5-17.4 0-31.9 13.7-31.9 33.8 0 18.9 14.3 33.8 33.5 33.8 15.5 0 24.4-9.5 28.2-15l-11.5-7.7c-3.9 5.6-9.1 9.3-16.7 9.3zm-1.1-41.2c5.9 0 10.9 2.9 12.5 7.2l-30.2 12.5c-.4-13 10.1-19.7 17.7-19.7z"/><path class="st4" d="M489.1 152.1c0-4.9 3.8-8.7 8.7-8.7s8.7 3.8 8.7 8.7-3.8 8.7-8.7 8.7-8.7-3.9-8.7-8.7zm91.7-23.5c0 19.1-13.4 33.4-32.3 33.4s-32.3-14.3-32.3-33.4c0-19.1 13.4-33.4 32.3-33.4s32.3 14.4 32.3 33.4zm-11.8 0c0-14.3-10-22.7-20.5-22.7s-20.5 8.3-20.5 22.7 10 22.7 20.5 22.7S569 143 569 128.6zm21.3 31.4V97.3h11.3v10.2h.5c2.6-7.2 11.6-11.8 18.2-11.8 3.8 0 6.4.5 8.8 1.5l-4.5 11c-1.7-.6-3.7-.9-6.3-.9-8.1 0-16.3 6.8-16.3 18.3V160h-11.7zm42.8 11.4l10.8-4.5c2.3 6.7 9.1 12 17.5 12 13.1 0 20.9-8.4 20.9-21.6v-6h-.5c-3.8 5.8-11.4 10.8-21.4 10.8-16 0-29.8-14.2-29.8-33.4s13.8-33.4 29.8-33.4c10 0 17.5 5 21.4 10.8h.5v-8.7h11.3v59.5c0 22.8-15.6 32.9-32.1 32.9s-25.2-10.9-28.4-18.4zm49.2-42.8c0-14.3-9.5-22.7-20-22.7s-20 8.6-20 22.7 9.5 22.7 20 22.7 20-8.3 20-22.7z"/></svg>