<?xml version="1.0" encoding="UTF-8"?>
<svg width="364px" height="131px" viewBox="0 0 364 131" version="1.1" xmlns="http://www.w3.org/2000/svg" xmlns:xlink="http://www.w3.org/1999/xlink">
    <!-- Generator: Sketch 43.1 (39012) - http://www.bohemiancoding.com/sketch -->
    <title>Group 3</title>
    <desc>Created with Sketch.</desc>
    <defs></defs>
    <g id="Product" stroke="none" stroke-width="1" fill="none" fill-rule="evenodd">
        <g id="Advisor-v5---new-advice-cards" transform="translate(-822.000000, -2163.000000)">
            <g id="Group-3" transform="translate(821.000000, 2163.000000)">
                <g id="Group-5" transform="translate(70.000000, 0.000000)">
                    <path d="M60,120 C26.862915,120 0,93.137085 0,60 C0,26.862915 26.862915,0 60,0 C93.137085,0 120,26.862915 120,60 C120,93.137085 93.137085,120 60,120 Z M60,102 C83.1959595,102 102,83.1959595 102,60 C102,36.8040405 83.1959595,18 60,18 C36.8040405,18 18,36.8040405 18,60 C18,83.1959595 36.8040405,102 60,102 Z" id="Combined-Shape" fill="#58BBFB"></path>
                    <path d="M17.6533573,-2.24540386e-11 C6.7486284,10.8640955 0,25.8969456 0,42.5060223 C0,75.6431073 26.862915,102.506022 60,102.506022 L60,84.5060223 C36.8040405,84.5060223 18,65.7019818 18,42.5060223 C18,30.8675083 22.733927,20.3346623 30.3813112,12.7279539 L17.6533573,-6.25929055e-09 Z" id="Combined-Shape" fill="#4E5972" transform="translate(30.000000, 51.253011) scale(1, -1) translate(-30.000000, -51.253011) "></path>
                    <path d="M17.4939777,12.7279539 C28.3580733,23.6326828 43.3909233,30.3813112 60,30.3813112 L60,12.3813112 C48.361486,12.3813112 37.82864,7.64738421 30.2219317,1.99840144e-13 L17.4939777,12.7279539 Z" id="Combined-Shape" fill="#F5A623" transform="translate(38.746989, 15.190656) scale(1, -1) translate(-38.746989, -15.190656) "></path>
                </g>
                <rect id="Rectangle-13" fill="#FFFFFF" x="129" y="0" width="2" height="60"></rect>
                <rect id="Rectangle-13" fill="#FFFFFF" transform="translate(108.274852, 38.559091) rotate(-46.000000) translate(-108.274852, -38.559091) " x="107.274852" y="8.55909091" width="2" height="60"></rect>
                <rect id="Rectangle-13" fill="#FFFFFF" transform="translate(107.920310, 81.920310) scale(-1, 1) rotate(-45.000000) translate(-107.920310, -81.920310) " x="106.92031" y="51.9203102" width="2" height="60"></rect>
                <path d="M121.843826,68.4729299 L124.635045,68.4729299 C125.361526,68.4729299 126.088008,68.7659236 126.585074,69.3152866 C127.502736,70.3407643 128.840991,71 130.33219,71 L136.105808,71 C138.782319,71 141,68.8757962 141,66.3121019 L141,66.1289809 L141,60.0127389 L141,58.2547771 C141,56.5334395 139.547037,55.1417197 137.74995,55.1417197 L133.849891,55.1417197 L134.920496,50.6735669 C135.188147,49.2818471 134.079306,48 132.588107,48 C131.746918,48 130.943964,48.4394904 130.52337,49.1353503 L126.585074,56.4235669 C126.16448,57.1926752 125.323291,57.6687898 124.405629,57.6687898 L121.843826,57.6687898 C121.384995,57.6687898 121.002636,58.0350318 121.002636,58.4745223 L121.002636,67.6305732 C120.964401,68.1066879 121.346759,68.4729299 121.843826,68.4729299 L121.843826,68.4729299 Z" id="Shape" fill="#EE4266" transform="translate(131.000000, 59.500000) scale(1, -1) translate(-131.000000, -59.500000) "></path>
                <g id="Group-5" transform="translate(230.000000, 0.000000)">
                    <path d="M60,120 C26.862915,120 0,93.137085 0,60 C0,26.862915 26.862915,0 60,0 C93.137085,0 120,26.862915 120,60 C120,93.137085 93.137085,120 60,120 Z M60,102 C83.1959595,102 102,83.1959595 102,60 C102,36.8040405 83.1959595,18 60,18 C36.8040405,18 18,36.8040405 18,60 C18,83.1959595 36.8040405,102 60,102 Z" id="Combined-Shape" fill="#58BBFB"></path>
                    <path d="M17.6533573,1.08357767e-13 C6.7486284,10.8640955 0,25.8969456 0,42.5060223 C0,75.6431073 26.862915,102.506022 60,102.506022 L60,84.5060223 C36.8040405,84.5060223 18,65.7019818 18,42.5060223 C18,30.8675083 22.733927,20.3346623 30.3813112,12.7279539 L17.6533573,8.33700414e-12 Z" id="Combined-Shape" fill="#4E5972" transform="translate(30.000000, 51.253011) scale(1, -1) translate(-30.000000, -51.253011) "></path>
                </g>
                <rect id="Rectangle-13" fill="#FFFFFF" x="289" y="0" width="2" height="60"></rect>
                <rect id="Rectangle-13" fill="#FFFFFF" transform="translate(267.920310, 81.920310) scale(-1, 1) rotate(-45.000000) translate(-267.920310, -81.920310) " x="266.92031" y="51.9203102" width="2" height="60"></rect>
                <path d="M280.843826,68.4729299 L283.635045,68.4729299 C284.361526,68.4729299 285.088008,68.7659236 285.585074,69.3152866 C286.502736,70.3407643 287.840991,71 289.33219,71 L295.105808,71 C297.782319,71 300,68.8757962 300,66.3121019 L300,66.1289809 L300,60.0127389 L300,58.2547771 C300,56.5334395 298.547037,55.1417197 296.74995,55.1417197 L292.849891,55.1417197 L293.920496,50.6735669 C294.188147,49.2818471 293.079306,48 291.588107,48 C290.746918,48 289.943964,48.4394904 289.52337,49.1353503 L285.585074,56.4235669 C285.16448,57.1926752 284.323291,57.6687898 283.405629,57.6687898 L280.843826,57.6687898 C280.384995,57.6687898 280.002636,58.0350318 280.002636,58.4745223 L280.002636,67.6305732 C279.964401,68.1066879 280.346759,68.4729299 280.843826,68.4729299 L280.843826,68.4729299 Z" id="Shape" fill="#43D484"></path>
                <text id="Lettre-de-motivation" font-family="GTWalsheimRegular-Oblique, GT Walsheim" font-size="13" font-style="italic" font-weight="normal" fill="#383F52">
                    <tspan x="0" y="17">Lettre de</tspan>
                    <tspan x="0" y="30">motivation</tspan>
                </text>
                <text id="CV" font-family="GTWalsheimRegular-Oblique, GT Walsheim" font-size="13" font-style="italic" font-weight="normal" fill="#383F52">
                    <tspan x="206" y="32">CV</tspan>
                </text>
                <text id="Email" font-family="GTWalsheimRegular-Oblique, GT Walsheim" font-size="13" font-style="italic" font-weight="normal" fill="#383F52">
                    <tspan x="333" y="130">Email</tspan>
                </text>
                <path d="M96.5,5.21875 C96.5,5.21875 87,-2.28125 81.5,2.71875 C76,7.71875 73.5,14.71875 68,15.71875" id="Path-4" stroke="#2C3449"></path>
                <path d="M228,30 L234,33.5" id="Path-5" stroke="#2C3449"></path>
                <path d="M336,116 L330,109" id="Path-6" stroke="#21293D"></path>
            </g>
        </g>
    </g>
</svg>