<?xml version="1.0" encoding="UTF-8"?>
<svg width="20px" height="15px" viewBox="0 0 20 15" version="1.1" xmlns="http://www.w3.org/2000/svg" xmlns:xlink="http://www.w3.org/1999/xlink">
    <!-- Generator: Sketch 43.1 (39012) - http://www.bohemiancoding.com/sketch -->
    <title>interview-picto</title>
    <desc>Created with Sketch.</desc>
    <defs></defs>
    <g id="Product" stroke="none" stroke-width="1" fill="none" fill-rule="evenodd">
        <g id="Advisor-v5---end-goal" transform="translate(-928.000000, -271.000000)" fill-rule="nonzero" fill="#FFFFFF">
            <g id="Group" transform="translate(0.000000, 56.000000)">
                <path d="M933.064377,218.255306 L936.556486,215.683996 C937.51275,214.981949 938.775796,214.806967 939.897298,215.22116 L945.464636,217.276231 C945.827294,217.408388 946.211836,217.475417 946.599367,217.474024 L947.515331,217.474024 C947.645447,217.473462 947.770283,217.523762 947.861517,217.613513 C947.952751,217.703263 948.002649,217.824856 947.999891,217.950705 L947.999891,224.537215 C947.999891,224.795017 947.783862,225.004007 947.517375,225.004007 L946.306995,225.004007 C946.133465,225.004403 945.965321,225.062347 945.830613,225.168175 L945.554597,225.385747 C945.483804,225.440188 945.380957,225.429622 945.323562,225.362012 L938.836171,217.735111 C938.672849,217.542481 938.390288,217.490811 938.165555,217.612479 L935.192764,219.224493 C934.595204,219.547513 933.875958,219.581901 933.248387,219.317455 C933.04176,219.231293 932.894468,219.049555 932.857277,218.834876 C932.820085,218.620198 932.898078,218.401933 933.064377,218.255306 Z M928.484561,225.000051 L929.531376,225.000051 L930.261284,224.135695 C930.704105,223.616603 931.408343,223.37846 932.089011,223.517636 C932.76968,223.656811 933.314082,224.150262 933.501912,224.798302 C934.129979,224.965735 934.622175,225.438142 934.800208,226.044398 C935.259017,226.173467 935.649101,226.468001 935.889959,226.867218 C936.286199,226.927148 936.652267,227.108028 936.93473,227.383458 C937.532807,227.990468 937.642133,228.907619 937.202567,229.630387 L937.104428,229.798511 C937.100263,229.803016 937.100263,229.80983 937.104428,229.814335 C937.461051,230.054989 937.932933,230.062286 938.297324,229.832781 C938.661715,229.603276 938.845755,229.18286 938.762567,228.769987 C938.757297,228.759709 938.761182,228.747238 938.771446,228.74149 C938.78171,228.735741 938.794824,228.738691 938.801413,228.74823 L938.881151,228.823391 C939.251919,229.18198 939.832498,229.238229 940.269408,228.957891 C940.616416,228.723594 940.787957,228.313369 940.706944,227.911565 C940.701674,227.901287 940.70556,227.888816 940.715823,227.883068 C940.726087,227.877319 940.739201,227.880269 940.745791,227.889808 L940.825528,227.964969 C941.195985,228.322509 941.775266,228.378714 942.21174,228.099469 C942.563371,227.866572 942.738489,227.453924 942.657455,227.049187 C942.652185,227.038909 942.65607,227.026438 942.666334,227.02069 C942.676598,227.014941 942.689712,227.017891 942.696301,227.02743 L942.786262,227.110503 C943.136408,227.446738 943.67613,227.514032 944.102959,227.274671 C944.377821,227.115772 944.564808,226.846266 944.612693,226.539984 C944.660579,226.233703 944.564344,225.922756 944.350351,225.692327 L943.696091,224.928845 L938.408858,218.704297 C938.355125,218.640698 938.261756,218.623971 938.188045,218.664738 L935.660968,220.033466 C934.848136,220.474214 933.875989,220.546558 933.00304,220.231259 C932.522398,220.068275 932.142688,219.705294 931.968492,219.242294 C931.829798,218.767066 931.893099,218.25793 932.144324,217.828073 C932.184837,217.755392 932.182635,217.667411 932.138534,217.596711 C932.094433,217.526011 932.014998,217.483117 931.929645,217.483913 L928.484561,217.483913 C928.356236,217.483387 928.23298,217.532335 928.142048,217.619932 C928.051116,217.70753 927.999999,217.826561 928,217.950705 L928,224.537215 C928.002249,224.794244 928.218867,225.001149 928.484561,225.000051 Z M932.177037,224.527325 C931.775067,224.309662 931.269093,224.407895 930.985058,224.758743 L930.275596,225.601342 C930.123023,225.782297 930.052022,226.014977 930.078551,226.24708 C930.105081,226.479184 930.226916,226.691236 930.416671,226.835571 L930.525032,226.916666 C930.813553,227.136135 931.211128,227.163551 931.528912,226.985893 C931.543812,226.976149 931.563412,226.976421 931.578017,226.986576 C931.592622,226.996732 931.599136,227.014617 931.594337,227.031386 C931.528717,227.353049 931.655092,227.683143 931.921467,227.885852 L932.009383,227.953102 C932.286915,228.164414 932.666262,228.199953 932.98055,228.044086 C932.995894,228.036813 933.01411,228.038164 933.028129,228.047617 C933.042148,228.057069 933.049763,228.073134 933.04802,228.089579 C933.011993,228.392783 933.141271,228.692341 933.389462,228.880751 L933.450798,228.926244 C933.731741,229.139137 934.115238,229.173918 934.432188,229.015251 C934.447246,229.006283 934.466025,229.005482 934.481841,229.013132 C934.497656,229.020783 934.508261,229.035797 934.509881,229.052831 C934.54662,229.271266 934.667068,229.468297 934.847233,229.604674 L934.88608,229.634343 C935.096464,229.793637 935.368031,229.856597 935.630197,229.80686 C935.892363,229.757123 936.119236,229.5996 936.251846,229.375234 L936.384743,229.14975 C936.611186,228.782192 936.545028,228.312024 936.225267,228.016395 C935.954649,227.779123 935.564187,227.720053 935.231611,227.866073 C935.222882,227.870549 935.212307,227.869972 935.204154,227.864575 C935.196,227.859178 935.191614,227.849852 935.192764,227.84036 C935.208647,227.544556 935.068976,227.261014 934.821482,227.08663 C934.573988,226.912247 934.252178,226.87063 933.966028,226.976004 C933.831087,226.999739 933.859711,226.885019 933.859711,226.885019 C934.006067,226.541567 933.912077,226.146143 933.625347,225.899033 C933.338617,225.651924 932.921772,225.607101 932.585949,225.787267 C932.485766,225.801113 932.498033,225.710128 932.498033,225.710128 C932.74483,225.297467 932.601543,224.769485 932.177037,224.527325 Z" id="interview-picto"></path>
            </g>
        </g>
    </g>
</svg>