<svg width="14" height="12" viewBox="0 0 14 12" xmlns="http://www.w3.org/2000/svg"><title>7A0CC65D-D272-4EF0-BA29-E1B191C66282</title><path d="M8.784 6.971V5.91a.808.808 0 0 0-.81-.815H6.026a.808.808 0 0 0-.81.815v1.062H0V3.49c0-.742.602-1.344 1.355-1.344h11.29c.748 0 1.355.611 1.355 1.344v3.482H8.784zm-3.568.804v1.062c0 .458.362.815.81.815h1.949c.454 0 .81-.365.81-.815V7.775H14v2.865c0 .755-.607 1.36-1.355 1.36H1.355A1.354 1.354 0 0 1 0 10.64V7.775h5.216zm.823-1.604c0-.15.126-.272.267-.272h1.388c.147 0 .267.126.267.272v2.405c0 .15-.126.272-.267.272H6.306a.273.273 0 0 1-.267-.272V6.17zM4.118.81c0-.448.36-.811.813-.811H9.07c.449 0 .813.354.813.81v1.335H4.118V.811zm1.098.532v.802h3.568v-.802a.271.271 0 0 0-.28-.27H5.496a.271.271 0 0 0-.28.27z" fill="#FFF" fill-rule="evenodd"/></svg>