<?xml version="1.0" encoding="UTF-8"?>
<svg width="24px" height="44px" viewBox="0 0 24 44" version="1.1" xmlns="http://www.w3.org/2000/svg" xmlns:xlink="http://www.w3.org/1999/xlink">
    <!-- Generator: Sketch 41.2 (35397) - http://www.bohemiancoding.com/sketch -->
    <title> copy 10</title>
    <desc>Created with Sketch.</desc>
    <defs></defs>
    <g id="Proto" stroke="none" stroke-width="1" fill="none" fill-rule="evenodd">
        <g id="advisor---reorientation-(défavorable)-usrr-test" transform="translate(-420.000000, -1320.000000)" fill="#CBCBD5">
            <path d="M444,1336.8 C444,1334.15 441.984375,1332 439.5,1332 L424.5,1332 C422.015625,1332 420,1334.15 420,1336.8 L420,1347.2 C420,1348.525 421.007812,1349.6 422.25,1349.6 C423.492188,1349.6 424.5,1348.525 424.5,1347.2 L424.5,1338.4 L426,1338.4 L426,1361.2 C426,1362.75 427.171875,1364 428.625,1364 C430.078125,1364 431.25,1362.75 431.25,1361.2 L431.25,1349.6 L432.75,1349.6 L432.75,1361.2 C432.75,1362.75 433.921875,1364 435.375,1364 C436.828125,1364 438,1362.75 438,1361.2 L438,1338.4 L439.5,1338.4 L439.5,1347.2 C439.5,1348.525 440.507812,1349.6 441.75,1349.6 C442.992188,1349.6 444,1348.525 444,1347.2 L444,1336.8 Z M437.25,1325.6 C437.25,1322.5 434.90625,1320 432,1320 C429.09375,1320 426.75,1322.5 426.75,1325.6 C426.75,1328.7 429.09375,1331.2 432,1331.2 C434.90625,1331.2 437.25,1328.7 437.25,1325.6 Z" id="-copy-10"></path>
        </g>
    </g>
</svg>