<?xml version="1.0" encoding="UTF-8"?>
<svg width="122px" height="122px" viewBox="0 0 122 122" version="1.1" xmlns="http://www.w3.org/2000/svg" xmlns:xlink="http://www.w3.org/1999/xlink">
    <!-- Generator: sketchtool 41 (35326) - http://www.bohemiancoding.com/sketch -->
    <title>D45F34B8-DC8C-404A-9DB9-A8069289097A</title>
    <desc>Created with sketchtool.</desc>
    <defs></defs>
    <g id="Current" stroke="none" stroke-width="1" fill="none" fill-rule="evenodd">
        <g id="Dashboard---Spinner-actions-(Day-X)" transform="translate(-459.000000, -122.000000)">
            <g id="jourx_ico" transform="translate(459.000000, 122.000000)">
                <circle id="Oval-2" fill="#58BBFB" cx="61" cy="61" r="61"></circle>
                <path d="M78.62987,66.2040089 C76.2860729,66.2040089 74.3852863,64.3511136 74.3852863,62.0663697 L74.3852863,54.2860802 C74.3852863,52.0013363 76.2860729,50.1492205 78.62987,50.1492205 C80.9736671,50.1492205 82.8744537,52.0013363 82.8744537,54.2860802 L82.8744537,62.0663697 C82.8744537,64.3511136 80.9736671,66.2040089 78.62987,66.2040089 Z M69.0339762,66.5080178 C66.6901791,66.5080178 64.7893924,64.6551225 64.7893924,62.3703786 L64.7893924,52.7278396 C64.7893924,50.4423163 66.6901791,48.5902004 69.0339762,48.5902004 C71.3777732,48.5902004 73.2785599,50.4423163 73.2785599,52.7278396 L73.2785599,62.3703786 C73.2785599,64.6551225 71.3777732,66.5080178 69.0339762,66.5080178 Z M48.5683091,66.4318019 C46.5315806,66.4318019 44.7347495,64.999842 44.3868984,62.977793 L40.0591502,37.8214456 C39.6713162,35.5678821 41.2314486,33.4343631 43.5432594,33.0570803 C45.8606677,32.6813565 48.0437336,34.199842 48.4315676,36.4534055 L52.7593158,61.6089734 C53.1471498,63.8625369 51.5870174,65.9960558 49.2752066,66.3741182 C49.0377083,66.4130937 48.8010095,66.4318019 48.5683091,66.4318019 Z M57.8444161,66.4322807 C57.6756883,66.4322807 57.5061608,66.4229266 57.3342344,66.4026593 C55.0072301,66.1313898 53.3463408,64.0711448 53.6246217,61.8027707 L56.7144996,36.6464232 C56.9935801,34.3772696 59.0982795,32.7558887 61.43408,33.0302762 C63.7610843,33.3015457 65.4219736,35.3610112 65.1436927,37.6301649 L62.0538148,62.7865123 C61.7955254,64.8880713 59.9627096,66.4322807 57.8444161,66.4322807 Z M64.6990311,89 C54.6073494,89 46.3972626,81.1207127 46.3972626,71.4353007 C46.3972626,69.1505568 48.2980492,67.298441 50.6418463,67.298441 L64.46793,67.298441 C66.8125267,67.298441 68.7133134,69.1505568 68.7133134,71.4353007 C68.7133134,73.7208241 66.8125267,75.5729399 64.46793,75.5729399 L55.91479,75.5729399 C57.5253008,78.6247216 60.8574749,80.7247216 64.6990311,80.7247216 C70.1095159,80.7247216 74.5100329,76.557461 74.5100329,71.4353007 C74.5100329,69.1505568 76.4108196,67.298441 78.7554163,67.298441 C81.0992134,67.298441 83,69.1505568 83,71.4353007 C83,81.1207127 74.7899132,89 64.6990311,89 Z" id="Combined-Shape" fill="#FFFFFF"></path>
            </g>
        </g>
    </g>
</svg>