<svg width="960" height="204" viewBox="0 0 960 204" xmlns="http://www.w3.org/2000/svg"><title>41912BD5-7019-4641-8FF4-F7DC8CDA6E2E</title><g fill="none" fill-rule="evenodd"><rect fill="#019444" opacity=".7" width="96" height="96" rx="5"/><path d="M74.975 47.54a.321.321 0 0 0-.004-.174l-.005-.021c-.345-6.96-3.333-13.404-8.415-18.155-.623-.647-1.551-1.412-2.612-2.152a26.675 26.675 0 0 0-23.857-3.727c-.578.15-1.374.452-2.3.873a26.056 26.056 0 0 0-4.948 2.826 26.44 26.44 0 0 0-4.272 3.89c-9.636 10.935-8.53 27.726 2.463 37.43a26.691 26.691 0 0 0 6.836 4.388c.356.17.652.272.904.381 10.397 4.159 22.315 1.347 29.674-7.003 4.509-5.12 6.828-11.704 6.536-18.557zm-.948-1.102c-.024-.063-.046-.127-.071-.19-.541-1.459-1.535-4.147-3.963-6.302-.358-4.528-1.97-7.176-3.406-9.503a25.68 25.68 0 0 1 7.44 15.995zM56.322 26.43a.667.667 0 0 0 .062-.018c2.335.409 5.951 1.736 9.06 3.856a.384.384 0 0 0 .042.094l.302.487c1.386 2.246 2.956 4.79 3.31 9.112-1.41 1.04-2.416 2.148-3.391 3.22-.581.639-1.179 1.297-1.86 1.94-2.285-2.128-6.336-3.947-10.71-4.798-.43-1.895-1.289-5.408-3.397-9.299.055-.063.108-.125.163-.186 3.388-3.848 4.582-4.067 5.964-4.32.147-.027.299-.055.455-.088zM44.086 48.2l8.769-7.017c4.398.838 8.446 2.67 10.58 4.789.521 1.617.655 5.102.756 7.666.049 1.312.096 2.46.177 3.151-3.443 3.143-8.013 6.368-9.504 6.704l-9.592-3.757c-.717-4.021-.928-6.775-1.186-11.535zm.288 11.607l-6.945 4.89a.348.348 0 0 0-.208-.018c-1.295.27-6.279-3.388-8.707-5.511a.37.37 0 0 0-.089-.056c-.103-.696-.324-1.579-.573-2.582-.657-2.645-1.471-5.923-.74-7.96.015-.011.026-.025.04-.038l.025-.034c.475-.683.933-1.274 1.402-1.805 1.482-1.684 3.162-2.88 5.774-4.105l.532.386c2.432 1.776 5.74 4.195 8.309 5.33.26 4.736.47 7.492 1.18 11.503zM35.107 27.16c.098-.11.204-.207.327-.317l.069-.062c.26-.142.595-.34.984-.567.915-.536 2.168-1.27 3.543-1.962a25.889 25.889 0 0 1 11.627-1.167c0 .13.072.253.191.313.24.124.481.24.723.357 1.027.497 2.006.97 2.904 1.923-1.403.266-2.838.695-6.256 4.576l-.219.248c-3.444-.343-7.404-.532-10.965.52-1.317-1.57-2.424-2.318-3.405-2.979l-.026-.019c.215-.5.373-.716.503-.864zM23.982 43.648a.35.35 0 0 0-.558-.174c-.036.03-.072.061-.106.094a25.296 25.296 0 0 1 5.719-11.877c.17-.14.384-.327.628-.54 1.015-.883 3.378-2.947 4.129-2.59a18.975 18.975 0 0 0 .13.087l.206.14c.914.619 1.948 1.316 3.165 2.75-1.094 2.326-3.387 8.071-3.376 10.262-2.7 1.273-4.453 2.527-6.01 4.295-.414.47-.82.981-1.23 1.555-.05-.045-.1-.093-.15-.14-.78-.729-1.957-1.832-2.547-3.862zm7.623 24.024a25.703 25.703 0 0 1-5.537-6.904c.969-.272 1.434-.452 1.978-.821.894.756 6.429 5.369 8.878 5.62a51.477 51.477 0 0 0 4.283 6.026c-.802.494-1.46.664-2.31.613a25.665 25.665 0 0 1-7.292-4.534zm9.068 5.188a6 6 0 0 0 1.291-.687c3.862.57 8.169.213 11.2-.213.043.029.092.047.147.055.727.096 2.89.318 5.494.021a25.622 25.622 0 0 1-18.132.824zm26.323-6.69a.36.36 0 0 0-.058.255 25.184 25.184 0 0 1-5.37 4.214.33.33 0 0 0-.156.004c-3.145.827-6.157.672-7.504.536.606-1.512 1.023-3.76 1.264-6.84 1.769-.495 6.246-3.64 9.826-6.91.892.147 1.5.286 1.993.401 1.201.278 1.752.406 3.937.12-.281 1.642-1.072 4.063-3.932 8.22zm3.92-5.082c.615-1.468.849-2.564.968-3.435a.333.333 0 0 0-.02-.175c.547-1.243 1.662-4.76 2.235-7.637a25.309 25.309 0 0 1-3.182 11.247z" fill="#FFF" fill-rule="nonzero"/><rect fill="#F67C01" opacity=".7" y="108" width="96" height="96" rx="5"/><path d="M48.975 180.071H26.853c-1.055 0-1.744-.547-1.796-1.42-.057-.957.62-1.64 1.664-1.645 2.332-.01 4.663-.005 6.994-.005h37.35c1.168 0 1.9.639 1.852 1.62-.044.87-.714 1.445-1.72 1.448-2.364.006-4.728.004-7.093.004H48.975v-.002zm-18.12-9.435c.094-1.516.185-2.96.272-4.405.225-3.767.447-7.535.671-11.303.033-.552.074-1.104.097-1.657.027-.665-.284-1.041-.933-1.155-.586-.102-.888-.442-.845-.95.04-.45.414-.771.977-.774 1.901-.012 3.802-.008 5.703-.008.447 0 .894-.01 1.339.01.513.023.884.356.918.788.039.485-.258.822-.815.927-.709.134-1.003.467-.963 1.174.175 3.07.366 6.139.547 9.208.149 2.534.303 5.067.429 7.602.02.407.102.561.556.555 2-.025 4-.021 6-.002.393.004.495-.12.516-.493.277-4.906.571-9.81.86-14.715.043-.715.093-1.43.12-2.144.025-.714-.26-1.052-.956-1.183-.562-.106-.859-.437-.825-.92.03-.448.414-.795.96-.798 2.33-.012 4.66-.013 6.992-.004.554.002.94.335.979.78.044.498-.263.842-.85.948-.654.119-.969.484-.931 1.156.13 2.34.275 4.678.414 7.017l.456 7.698.152 2.61h6.98c.071-1.086.147-2.153.21-3.22.265-4.5.528-8.998.79-13.497.016-.276.034-.554.02-.83-.024-.503-.34-.838-.846-.929-.646-.116-.97-.439-.934-.93.036-.476.44-.802 1.062-.804 2.282-.008 4.563-.007 6.844 0 .621.003 1.016.335 1.038.823.022.49-.285.8-.9.908-.582.104-.917.497-.884 1.1.155 2.779.32 5.556.484 8.334.157 2.68.315 5.359.474 8.038.019.324.047.647.077 1.047.377 0 .732-.003 1.088 0 1.041.008 1.752.624 1.759 1.52.007.914-.718 1.547-1.785 1.547-6.646.002-13.291.001-19.937 0l-18.3-.001c-1.207 0-1.949-.596-1.934-1.545.016-.96.74-1.525 1.957-1.524h.897zm18.128-22.308c-7.373 0-14.745-.002-22.118.002-.899 0-1.554-.355-1.946-1.165-.228-.469-.473-.93-.706-1.396-.404-.807-.244-1.3.576-1.719 3.882-1.986 7.766-3.97 11.65-5.952 3.766-1.924 7.538-3.838 11.298-5.773.85-.438 1.646-.43 2.497.005 7.572 3.878 15.152 7.743 22.729 11.612.132.067.265.132.394.205.573.329.765.867.491 1.456-.247.532-.53 1.047-.791 1.573-.388.784-1.025 1.153-1.905 1.153-3.637-.003-7.274 0-10.91 0H48.982z" fill="#FFF"/><rect fill="#DF0D2E" opacity=".7" x="108" width="96" height="96" rx="5"/><path fill="#FFF" fill-rule="nonzero" d="M147.982 25h15.975v15.05H179v15.927h-14.921V71h-16.036V55.977H133V40.05h14.982z"/><rect fill="#FCC717" opacity=".7" x="108" y="108" width="96" height="96" rx="5"/><g fill-rule="nonzero" fill="#FFF"><path d="M180.844 162.16c-.43-4.402-3.555-10.888-17.852-12.028 0 .471-.039.943-.117 1.336h.078c3.125 0 4.844 2.162 6.524 4.56 1.953 2.87 3.359 3.302 4.023 3.302 0 0 1.367 0 2.46-.196a11.415 11.415 0 0 1-2.03 3.695l-.274.275a8.813 8.813 0 0 1-2.422 1.73l-.234.118-.469.236c-1.25.51-2.226.668-2.5.668-.82.118-1.64.196-2.46.196-3.594 0-6.68-1.454-8.438-4.01-1.328-1.965-1.25-4.048-1.055-5.188-2.578-.472-4.258-1.455-4.336-1.494-.82-.59-1.172-1.337-1.172-1.337l-1.797-3.105c-9.18 2.123-13.632 7.076-15.742 10.81-1.758 3.145-2.304 6.958-1.25 10.457 3.086 10.22 16.992 13.68 25.117 12.5 10.118-1.454 7.149-13.955 14.22-13.955 2.773 0 4.804-.668 6.25-1.493 2.421-1.337 3.75-4.167 3.476-7.076zm-39.727 11.008c-2.226 0-4.023-1.337-4.023-3.027 0-1.651 1.797-3.027 4.023-3.027 2.227 0 4.024 1.336 4.024 3.027 0 1.69-1.797 3.027-4.024 3.027zm4.453-10.496c-2.226 0-4.023-1.337-4.023-3.027 0-1.69 1.797-3.027 4.023-3.027 2.227 0 4.024 1.336 4.024 3.027 0 1.69-1.797 3.027-4.024 3.027zm9.297 14.505c-2.226 0-4.023-1.336-4.023-3.027 0-1.65 1.797-3.027 4.023-3.027 2.227 0 4.024 1.337 4.024 3.027-.04 1.651-1.836 3.027-4.024 3.027z"/><path d="M151.781 153.316l8.672-6.84-16.719-17.375a2.68 2.68 0 0 0-3.593-.236c-1.055.825-1.328 2.32-.664 3.498l12.304 20.953zM157.172 155.596l4.062-3.224s.82-3.105-.156-5.07l-8.633 6.84s1.875 1.1 4.727 1.454zM158.305 161.257c.976 1.454 2.695 2.673 5 3.184.117-.472.43-.865.86-1.062.78-.393 1.913-.196 2.304-.982.117-.236.117-.472.156-.708.156-.826.86-1.572 1.68-1.769.547-.157 1.328-.197 1.406-.786.039-.197-.04-.433-.156-.63-.39-.47-.82-.982-1.25-1.61-1.836-2.674-3.36-4.325-6.211-3.893l-4.492 3.538c0-.039-.86 2.438.703 4.718z"/></g><rect fill="#AB8C2C" opacity=".7" x="216" width="96" height="96" rx="5"/><path d="M248.28 29c4.02.14 10.77 2.05 15.697 4.885v27.703c-6.721-3.17-11.698-3.783-15.698-3.824V29zm32.44 0v28.764c-4 .041-8.976.654-15.697 3.824V33.885c4.927-2.834 11.676-4.744 15.698-4.885zm-35.58 3.053c.73.012 1.42.059 2.093.322v25.887c0 .27.249.514.523.514 4.142 0 9.26.501 16.515 4.066a.54.54 0 0 0 .458 0c7.254-3.565 12.373-4.066 16.515-4.066a.54.54 0 0 0 .523-.514V32.375c.673-.263 1.362-.31 2.093-.322v29.744c-4.506-.898-12.742-.324-19.376 3.102-7.534-3.395-14.924-3.989-19.344-3.102V32.053zM242 35.138c.731.012 1.42.059 2.093.322v26.916c0 .312.346.576.654.498 3.997-.982 11.78-.499 19.524 3.053.149.068.33.062.474-.016 6.653-3.52 15.53-4.014 19.508-3.037.308.078.654-.186.654-.498V35.46c.673-.263 1.362-.31 2.093-.321v31.656c-2.343-.92-5.983-1.457-10.007-1.398-4.345.064-8.993.824-12.493 2.603-3.972-1.772-8.653-2.54-12.885-2.603-3.896-.06-7.323.47-9.615 1.382v-31.64z" fill-rule="nonzero" fill="#FFF"/><rect fill="#383F52" opacity=".7" x="216" y="108" width="96" height="96" rx="5"/><path d="M275.571 132.124c-1.57-.73-4.851 1.925-5.645 3.624l-19.278 41.233L257.14 180s14.682-31.402 19.277-41.233c.794-1.699.727-5.912-.846-6.643zm-11.671 28.93l-3.047-1.418.444-.948 3.046 1.419-.443.947zm2.134-4.565l-3.046-1.417.443-.948 3.047 1.417-.444.948zm20.432 16.88a6.323 6.323 0 0 1-1.7.435v-30.443c.54-.26.915-.805.915-1.442v-3.57c0-.888-.723-1.608-1.613-1.608s-1.613.719-1.613 1.608v3.57c0 .637.374 1.182.914 1.442v30.443a6.33 6.33 0 0 1-1.7-.435l-.535 1.288c.724.298 1.476.48 2.234.551v1.367h1.398v-1.367a7.757 7.757 0 0 0 2.234-.551l-.534-1.288zm-41.833.435v-30.443c.538-.26.914-.805.914-1.442v-3.57c0-.888-.723-1.608-1.613-1.608s-1.613.719-1.613 1.608v3.57c0 .637.375 1.182.914 1.442v30.443a6.323 6.323 0 0 1-1.7-.435l-.535 1.288c.724.298 1.476.48 2.234.551v1.367h1.398v-1.367a7.757 7.757 0 0 0 2.234-.551l-.535-1.288a6.3 6.3 0 0 1-1.698.435zm19.947-7.245l6.283 13.44 6.492-3.02-8.824-18.871-3.951 8.451zm-5.108-10.925l3.951-8.452-5.346-11.434c-.794-1.7-4.074-4.354-5.645-3.624-1.573.732-1.64 4.945-.847 6.643 1.683 3.598 4.715 10.087 7.887 16.867z" fill="#FFF" fill-rule="nonzero"/><rect fill="#02A2D5" opacity=".7" x="324" width="96" height="96" rx="5"/><path d="M347.307 37.7c2.843-1.919 5.862-2.155 8.823-.736l9.824 4.556.291.17 6.08-3.135c2.542-1.67 5.447-2.555 8.453-2.555h.003l5.13.144c.739.02 1.38.499 1.602 1.193.222.694-.02 1.45-.613 1.885l-10.792 7.982 8.493 4.354c1.05-.1 4.087-.831 5.599-1.197 1.955-.469 2.257-.537 2.6-.537h3.467c.731 0 1.386.454 1.632 1.135.246.68.032 1.44-.537 1.898-1.55 1.248-9.502 7.476-13.884 7.476-.745 0-1.404-.164-1.865-.434l-34.344-17.227a2.988 2.988 0 0 1-1.269-2.49 3.006 3.006 0 0 1 1.307-2.482" fill="#FFF"/><rect fill="#D4006F" opacity=".7" x="324" y="108" width="96" height="96" rx="5"/><path d="M395 148.829c0-6.533-5.507-11.829-12.3-11.829-4.246 0-7.99 2.069-10.2 5.215-2.21-3.146-5.953-5.215-10.2-5.215-6.793 0-12.3 5.296-12.3 11.829 0 2.507.815 4.829 2.198 6.742C358.135 165.477 372.5 176 372.5 176s14.365-10.523 20.302-20.429A11.462 11.462 0 0 0 395 148.83" fill="#FFF"/><rect fill="#171964" opacity=".7" x="432" width="96" height="96" rx="5"/><path fill="#FFF" fill-rule="nonzero" d="M476.241 57.04l4.861-2.946 7.778 18.655-7.778-10.8-1.944 13.746-1.945-13.746-7.778 10.8zM497.757 43.193l-36.1 18.397-3.822-7.95 36.1-18.396zM504.435 41.953l-4.08 2.15-5.52-11.483 4.08-2.148zM457.068 60.684l-1.75.85-2.144-4.416 1.75-.85zM458.376 30.172l.871 2.377 2.354.88-2.354.88-.871 2.378-.871-2.379-2.355-.879 2.355-.88zM470.043 37.044l.656 1.792 1.775.663-1.775.663-.656 1.791-.657-1.791-1.774-.663 1.774-.663zM478.494 22.317l1.396 3.81 3.774 1.411-3.774 1.41-1.396 3.811-1.396-3.81-3.774-1.41 3.774-1.411z"/><rect fill="#91D300" opacity=".7" x="432" y="108" width="96" height="96" rx="5"/><path d="M507.627 135.098h-.002a8.354 8.354 0 0 0-.235-.192l-.01-.008c-4.837-3.76-12.863-1.773-18.066 4.535-3.513 4.261-4.868 9.44-3.977 13.616-.101.512-1.078 5.412-1.565 7.044-.32 1.072-1.262 3.454-1.874 4.972a1.323 1.323 0 0 0-.899.274 1.322 1.322 0 0 0-.899-.274c-.611-1.518-1.552-3.9-1.873-4.972-.488-1.632-1.464-6.532-1.565-7.044.892-4.177-.463-9.355-3.978-13.616-5.203-6.308-13.23-8.294-18.065-4.535l-.01.008a8.115 8.115 0 0 0-.236.191l-.002.001c-2.353 1.974-3.543 5.05-3.35 8.663.19 3.546 1.695 7.197 4.236 10.277 3.514 4.262 8.317 6.55 12.555 6.428.48.194 5.081 2.057 6.584 2.838.986.514 3.138 1.88 4.506 2.764a1.35 1.35 0 0 0 .265 1.192l.086.104-6.465 7.688c-.368-.203-1.206.503-1.526.891-.357.433-.347 1.036.023 1.346l1.825 1.53c.37.31.96.21 1.317-.223.32-.388.852-1.35.588-1.677l5.985-7.394 5.986 7.395c-.264.328.268 1.29.587 1.678.358.432.948.53 1.317.223l1.824-1.53c.37-.31.38-.913.024-1.346-.32-.388-1.16-1.095-1.527-.891l-6.463-7.687.085-.106a1.35 1.35 0 0 0 .265-1.192c1.367-.883 3.52-2.25 4.507-2.763 1.501-.782 6.103-2.644 6.583-2.838 4.238.122 9.04-2.167 12.554-6.428 2.542-3.081 4.046-6.732 4.238-10.277.191-3.615-.999-6.69-3.353-8.665zm-31.924 15.263l-.181-.218.172-.145.009.363zm-8.353-2.303l-.931-1.127 1.12-.939.931 1.129-1.12.937zm1.247-.784l.93 1.129-1.119.938-.93-1.128 1.12-.939zm-2.33-.216l.932 1.129-1.039.87-.93-1.129 1.038-.87zm-1.164.716l-.931-1.128 1.039-.87.93 1.127-1.038.87zm1.19-.998l-.93-1.128 1.118-.938.931 1.128-1.119.938zm-1.058-1.282l-.964-1.17 1.12-.938.963 1.17-1.119.938zm-.15.128l-1.04.87-.964-1.17 1.039-.869.964 1.17zm-2.157-.172l.964 1.17-1.119.937-.964-1.168 1.119-.939zm-1.246.785l-.93-1.129 1.118-.937.932 1.127-1.12.939zm1.272-1.067l-.93-1.128 1.037-.87.931 1.128-1.038.87zm-1.058-1.281l-.931-1.13 1.04-.868.93 1.128-1.04.87zm-.153.127l-1.118.938-.931-1.128 1.119-.938.93 1.128zm-2.177-.344l-.93-1.128 1.12-.938.93 1.127-1.12.94zm-.15.128l-1.12.938-.93-1.128 1.119-.937.93 1.127zm.126.154l.93 1.128-1.118.938-.93-1.128 1.118-.938zm1.056 1.282l.931 1.128-1.119.938-.93-1.128 1.118-.938zm1.06 1.283l.963 1.169-1.119.938-.965-1.17 1.12-.937zm1.09 1.322l.93 1.128-1.119.939-.93-1.129 1.119-.938zm.152-.127l1.118-.938.931 1.128-1.119.938-.93-1.128zm2.178.344l.93 1.128-1.12.938-.93-1.128 1.12-.938zm1.056 1.281l.931 1.13-1.119.937-.93-1.128 1.118-.939zm.153-.127l1.039-.87.93 1.128-1.04.87-.93-1.128zm2.095.412l.93 1.128-1.036.87-.931-1.128 1.037-.87zm.153-.128l1.119-.938.93 1.128-1.119.938-.93-1.128zm1.271-1.065l1.12-.939.93 1.128-1.12.938-.93-1.127zm-.127-.154l-.93-1.128 1.118-.939.931 1.129-1.119.938zm-1.056-1.282l-.931-1.128 1.119-.939.93 1.128-1.118.939zm-1.059-1.283l-.93-1.128 1.12-.938.93 1.128-1.12.938zm-1.057-1.282l-.964-1.168 1.119-.94.964 1.17-1.119.938zm-1.09-1.323l-.932-1.129 1.12-.938.931 1.128-1.12.939zm-.155.128l-1.119.938-.93-1.128 1.119-.938.93 1.128zm-2.175-.343l-.93-1.13 1.118-.938.93 1.128-1.118.94zm-1.058-1.283l-.93-1.128 1.12-.938.93 1.128-1.12.938zm-.153.127l-1.037.87-.93-1.127 1.037-.87.93 1.127zm-2.094-.411l-.93-1.128 1.037-.87.931 1.128-1.038.87zm-.152.128l-1.12.938-.931-1.128 1.12-.938.931 1.128zm-1.271 1.066l-1.12.937-.93-1.128 1.117-.938.933 1.129zm-.215 2.346l-1.12.938-.929-1.127 1.118-.938.931 1.127zm.127.154l.93 1.13-1.118.937-.93-1.128 1.118-.939zm1.057 1.283l.93 1.128-1.119.938-.93-1.128 1.119-.938zm1.058 1.282l.964 1.17-1.12.938-.964-1.17 1.12-.938zm1.09 1.323l.93 1.128-1.118.938-.93-1.127 1.118-.939zm1.058 1.281l.931 1.129-1.12.938-.93-1.128 1.119-.939zm.152-.127l1.119-.938.931 1.128-1.12.94-.93-1.13zm2.177.345l.93 1.129-1.119.937-.93-1.127 1.12-.94zm1.057 1.282l.93 1.128-1.118.938-.931-1.128 1.119-.938zm.152-.128l1.119-.938.93 1.127-1.118.939-.931-1.128zm2.178.344l.93 1.127-1.12.939-.93-1.128 1.12-.938zm.151-.128l1.038-.87.931 1.127-1.038.87-.93-1.127zm1.19-.998l1.119-.938.93 1.128-1.118.938-.93-1.128zm2.178.345l.93 1.128-1.119.938-.93-1.128 1.119-.938zm.152-.129l1.118-.937.931 1.127-1.119.938-.93-1.128zm-.126-.154l-.932-1.128 1.12-.938.93 1.128-1.118.938zm-.716-3.475l1.118-.939.931 1.128-1.119.938-.93-1.127zm-.128-.155l-.931-1.128 1.12-.938.929 1.128-1.118.938zm-1.057-1.282l-.931-1.128 1.119-.938.93 1.128-1.118.938zm-1.057-1.282l-.93-1.128 1.118-.938.931 1.128-1.119.938zm-1.058-1.282l-.965-1.169 1.12-.938.964 1.17-1.12.937zm-1.092-1.323l-.93-1.128 1.118-.938.931 1.128-1.119.938zm-1.056-1.282l-.932-1.128 1.12-.938.931 1.128-1.12.938zm-.154.128l-1.118.938-.931-1.128 1.119-.938.93 1.128zm-2.176-.344l-.93-1.128 1.119-.938.93 1.128-1.119.938zm-1.057-1.282l-.93-1.128 1.118-.938.931 1.129-1.119.937zm-.153.128l-1.12.939-.93-1.129 1.12-.938.93 1.128zm-2.176-.344l-.931-1.128 1.119-.939.93 1.128-1.118.94zm-.153.128l-1.037.87-.932-1.129 1.04-.87.93 1.129zm-1.19.997l-1.119.94-.93-1.13 1.118-.938.93 1.128zm-2.177-.343l-.93-1.128 1.119-.939.93 1.128-1.119.939zm.906 1.409l-1.12.938-.93-1.128 1.119-.938.93 1.128zm-1.272 1.066l-1.118.937-.93-1.128 1.118-.938.93 1.129zm.126.154l.932 1.128-1.12.938-.931-1.128 1.12-.938zm.717 3.476l-1.12.938-.93-1.128 1.119-.938.93 1.128zm.126.155l.931 1.127-1.119.939-.93-1.128 1.118-.938zm1.057 1.281l.931 1.128-1.12.939-.93-1.129 1.119-.938zm.75 3.518l-1.117.937-.964-1.169 1.117-.937.964 1.17zm-.81-1.298l1.118-.938.964 1.169-1.119.938-.964-1.17zm2.209.386l.93 1.128-1.118.939-.931-1.128 1.119-.94zm1.058 1.281l.931 1.128-1.119.939-.931-1.128 1.12-.939zm1.057 1.282l.93 1.128-1.118.938-.93-1.128 1.118-.938zm.154-.128l1.119-.939.93 1.129-1.118.938-.931-1.128zm2.175.344l.931 1.128-1.119.938-.93-1.128 1.118-.938zm1.057 1.282l.931 1.128-1.119.938-.93-1.128 1.118-.938zm.152-.128l1.12-.938.93 1.128-1.119.938-.93-1.128zm2.178.345l.93 1.127-1.118.939-.93-1.128 1.118-.938zm.152-.127l1.12-.94.93 1.129-1.119.937-.93-1.126zm1.272-1.067l1.039-.87.93 1.128-1.039.87-.93-1.128zm2.095.412l.931 1.128-1.039.869-.93-1.127 1.038-.87zm1.057 1.281l.931 1.128-1.038.87-.93-1.128 1.037-.87zm-.904-1.41l1.119-.937.93 1.127-1.118.939-.931-1.128zm1.27-1.064l1.12-.94.931 1.128-1.12.94-.93-1.128zm.216-2.348l1.119-.939.93 1.127-1.12.939-.93-1.127zm-.127-.155l-.931-1.128 1.119-.938.93 1.128-1.118.938zm-.716-3.476l1.118-.938.931 1.128-1.119.938-.93-1.128zm-.127-.154l-.931-1.127 1.12-.939.93 1.129-1.119.937zm.06-2.22l-1.116.938-.932-1.128 1.12-.938.928 1.128zm-2.175-.344l-.93-1.127 1.118-.94.93 1.13-1.118.937zm-1.059-1.282l-.964-1.17 1.12-.938.965 1.17-1.12.938zm-1.09-1.323l-.93-1.129 1.118-.937.93 1.127-1.118.939zm-1.057-1.283l-.931-1.128 1.12-.938.93 1.128-1.119.938zm-1.058-1.282l-.93-1.128 1.12-.937.93 1.128-1.12.937zm-.152.128l-1.119.939-.93-1.128 1.12-.939.929 1.128zm-2.176-.342l-.93-1.13 1.118-.937.93 1.128-1.118.939zm-1.059-1.283l-.93-1.128 1.12-.938.93 1.128-1.12.938zm-.152.128l-1.119.938-.93-1.127 1.119-.94.93 1.13zm-1.057-1.282l-1.119.939-.93-1.128 1.118-.939.931 1.128zm-1.272 1.065l.001.001-1.119.938-.93-1.128 1.118-.938.93 1.127zm-1.272 1.066l-1.037.87-.93-1.128 1.036-.87.931 1.128zm-2.096-.412l-.928-1.128 1.037-.87.93 1.127-1.039.87zm-.152.128l-1.118.938-.931-1.128 1.119-.938.93 1.128zm-.214 2.349l-1.117.937-.931-1.127 1.117-.938.931 1.128zm-1.272 1.065l-1.118.938-.931-1.127 1.119-.938.93 1.127zm-.213 2.348l-1.12.938-.93-1.128 1.119-.939.93 1.13zm.127.154l.93 1.128-1.118.938-.932-1.128 1.12-.938zm.715 3.476l-1.118.938-.93-1.128 1.117-.938.93 1.128zm.127.154l.93 1.129-1.117.937-.93-1.128 1.117-.938zm1.058 1.282l.93 1.128-1.118.938-.931-1.128 1.119-.938zm.75 3.517l-1.119.938-.964-1.168 1.12-.94.963 1.17zm.126.154l.931 1.128-1.12.938-.93-1.128 1.119-.938zm.154-.127l1.117-.939.931 1.128-1.119.938-.929-1.127zm2.176.342l.93 1.13-1.117.937-.931-1.128 1.118-.939zm1.056 1.284l.931 1.127-1.117.938-.931-1.128 1.117-.937zm1.058 1.28l.93 1.129-1.117.937-.93-1.127 1.117-.938zm.153-.126l1.119-.938.93 1.126-1.118.94-.931-1.128zm2.176.343l.932 1.128-1.12.938-.932-1.128 1.12-.938zm1.059 1.282l.93 1.128-1.12.938-.93-1.128 1.12-.938zm.153-.127l1.119-.938.93 1.127-1.118.937-.931-1.126zm2.175.343l.931 1.128-1.119.938-.93-1.128 1.118-.938zm.153-.127l1.119-.939.93 1.128-1.118.937-.93-1.126zm1.27-1.066l1.12-.938.93 1.126-1.118.94-.931-1.128zm2.177.344l.93 1.128-1.118.937-.93-1.127 1.118-.938zm-.023 2.58c-.31.163-.636.301-.968.42l.777-.651.191.231zm-.04-.361l1.12-.938.31.375c-.004.003-.007.007-.012.009a12.2 12.2 0 0 1-.25.199l-.092.07c-.052.04-.106.077-.16.116-.039.026-.078.054-.117.082-.013.009-.025.015-.037.024a6.793 6.793 0 0 1-.543.328l-.218-.265zm1.274-1.065l1.038-.87.203.247a7.554 7.554 0 0 1-.61.687c-.029.03-.056.06-.085.086a8.508 8.508 0 0 1-.235.219c-.001.001-.003.001-.004.004l-.307-.373zm1.19-1l.685-.573a7.958 7.958 0 0 1-.51.787l-.174-.213zm-.128-.153l-.93-1.127 1.119-.939.908 1.101c-.013.025-.025.052-.039.077l-1.058.888zm.342-2.193l1.12-.938.27.328a9.18 9.18 0 0 1-.542 1.638l-.848-1.028zm1.272-1.066l.25-.21c-.022.14-.048.281-.077.42l-.173-.21zm-.127-.154l-.93-1.127 1.119-.939.33.402c-.008.446-.041.883-.098 1.31l-.42.354zm.501-2.588l-.287.24-.93-1.127 1.008-.845c.107.584.178 1.163.21 1.732zm-.252-1.956l-1.091.914-.931-1.128 1.12-.938.886 1.075.016.077zm-.11-.504l-.64-.775.344-.29c.112.355.21.711.296 1.065zm-.36-1.27l-.407.34-.93-1.127.784-.657c.209.48.393.962.553 1.444zm-.637-1.635l-.828.693-.93-1.128 1.083-.908c.249.443.472.892.675 1.343zm-.8-1.566c.01.015.018.031.027.046l-1.112.932-.93-1.128 1.119-.938.896 1.088zm-1.753-2.538c.311.382.606.772.883 1.168l-.932-1.128.049-.04zm.729 1.296l-1.117.937-.932-1.128 1.12-.938.929 1.129zm-.858-1.45l-.046.04-.884-1.072c.32.329.63.673.93 1.032zm-.199.167l-1.119.938-.963-1.169 1.119-.938.963 1.17zm-1.902-2.306l.812.983-1.12.938-.93-1.128 1.092-.916c.049.04.097.08.146.123zm-.301-.253l-1.065.892-.93-1.128.799-.67c.407.28.805.582 1.196.906zm-1.368-1.023l-.754.633-.93-1.128.364-.307c.447.243.888.51 1.32.802zm-1.51-.903l-.301.254-.554-.672c.287.129.573.269.856.418zm-1.255-.589l.801.972-1.119.938-.93-1.128 1.035-.868c.07.027.142.056.213.086zm-2.095-.677c.555.13 1.113.3 1.67.51l-.95.794-.93-1.128.21-.176zm-.246-.056l-.092.077-.094-.114.186.037zm-.49-.092l.246.298-1.119.938-.93-1.128.308-.257c.49.015.992.065 1.495.15zm-1.8-.155l-.131.109-.087-.106.218-.003zm-.47.011l.186.225-1.119.938-.76-.923a8.984 8.984 0 0 1 1.693-.24zm-1.907.294l.822.997-1.12.94-.93-1.129.816-.683c.135-.045.272-.087.412-.125zm-.968.329l-.386.325-.09-.108c.157-.078.315-.15.476-.217zm-.656.31l.116.142-1.037.87-.22-.268c.36-.285.741-.533 1.14-.744zm-1.307.878l.011-.009.222.271-1.118.94-.135-.164a7.582 7.582 0 0 1 1.02-1.038zm-1.145 1.199l.106.13-.48.402c.117-.183.242-.361.374-.532zm-.677 1.046l.91-.763.93 1.128-1.117.938-.858-1.04c.043-.089.09-.177.135-.263zm-.23.46l.8.97-1.119.938-.245-.296c.14-.566.33-1.104.564-1.611zm-.62 1.857l.147.18-.221.186c.022-.123.047-.246.073-.366zm-.125.67l.4-.335.93 1.127-1.118.939-.332-.402c.014-.457.056-.901.12-1.33zm-.126 1.634l.184.223-.181.153a33.274 33.274 0 0 1-.003-.376zm.017.77l-.007-.14.3-.251.93 1.128-1.038.87a13.86 13.86 0 0 1-.185-1.608zm1.35.89l.932 1.128-1.12.938-.931-1.128 1.12-.938zm-1.042 1.342l.703.852-.395.33c-.12-.393-.222-.787-.308-1.182zm.37 1.39l.46-.384.93 1.128-.85.71a17.056 17.056 0 0 1-.54-1.454zm1.171 2.774c-.195-.372-.378-.75-.546-1.129l.891-.747.93 1.128-1.119.938-.156-.19zm1.402-.594l.93 1.128-1.118.938-.93-1.128 1.118-.938zm-.408 2.251a22.422 22.422 0 0 1-.415-.643l.483.585-.068.058zm.112.165l.083-.069.964 1.17-.137.114a18.552 18.552 0 0 1-.91-1.215zm2.012 2.46a19.394 19.394 0 0 1-.977-1.088l.139-.118.932 1.128-.094.079zm.14.145l.08-.068.566.687a18.1 18.1 0 0 1-.646-.62zm.233-.196l1.118-.937.931 1.127-1.119.938-.93-1.128zm1.3 1.577l-.243-.295 1.119-.938.93 1.128-.92.77c-.299-.21-.594-.431-.886-.665zm1.056.784l.876-.735.93 1.128-.497.417c-.44-.245-.88-.515-1.309-.81zm1.497.914l.437-.367.79.957c-.41-.174-.82-.372-1.227-.59zm.59-.496l1.119-.937.93 1.127-1.119.938-.93-1.128zm1.078 1.267l1.098-.92.93 1.126-.378.317c-.55-.135-1.102-.31-1.65-.523zm1.892.582l.264-.221.272.33c-.178-.032-.357-.07-.536-.109zm.835.158l-.419-.508 1.12-.939.93 1.129-.515.43c-.369-.017-.74-.054-1.116-.112zm1.415.123l.342-.287.233.282c-.192.008-.381.009-.575.005zm.823-.017l-.329-.398 1.12-.94.883 1.073c-.539.141-1.1.229-1.674.265zm.944-1.464l1.118-.938.931 1.128-1.119.937-.93-1.127zm5.678 4.611c-.956-.495-3.11-1.496-4.653-2.201a8.82 8.82 0 0 0 3.514-1.785 8.912 8.912 0 0 0 2.383-3.159c.408 1.66.989 3.976 1.298 5.014.279.93.957 2.887 1.496 4.42-1.396-.814-3.182-1.843-4.038-2.289zm35.042-19.74l-.332.4-1.119-.938.931-1.127.4.334c.066.429.106.873.12 1.33zm-3.29 6.594l-1.116-.937.93-1.129 1.117.938-.93 1.128zm-16.101 1.75l.93-1.128 1.12.938-.931 1.127-1.12-.937zm.99 1.093l-.93 1.128-1.119-.939.93-1.128 1.12.939zm10.956-8.235l-.93 1.129-1.118-.938.929-1.128 1.119.937zm-.992-1.092l.93-1.127 1.12.938-.93 1.128-1.12-.939zm-2.116 2.564l.932-1.127 1.119.937-.931 1.129-1.12-.94zm.993 1.093l-.964 1.168-1.119-.937.964-1.17 1.119.939zm-.086-2.502l-1.039-.87.93-1.128 1.04.869-.931 1.129zm-.129.153l-.929 1.128-1.039-.87.931-1.127 1.037.87zm-1.057 1.282l-.963 1.17-1.039-.87.964-1.169 1.038.87zm-3.058 1.582l.93-1.128 1.04.87-.932 1.128-1.038-.87zm.91 1.024l-.93 1.127-1.039-.87.93-1.128 1.04.87zm-.007-2.434l-1.118-.938.963-1.17 1.12.939-.965 1.169zm-.126.155l-.93 1.128-1.12-.938.931-1.129 1.12.939zm-1.056 1.282l-.931 1.127-1.12-.937.93-1.129 1.12.939zm-1.06 1.281l-.929 1.128-1.119-.938.93-1.129 1.118.94zm-1.056 1.282l-.93 1.128-1.12-.938.93-1.127 1.12.937zm.152.128l1.037.87-.93 1.127-1.038-.87.93-1.127zm.126-.154l.931-1.128 1.039.87-.93 1.127-1.04-.87zm2.122-.13l1.12.938-.932 1.128-1.118-.938.93-1.129zm.127-.154l.93-1.128 1.12.938-.93 1.128-1.12-.938zm1.058-1.282l.931-1.128 1.118.938-.93 1.128-1.119-.938zm2.201-.063l1.12.938-.932 1.129-1.119-.939.931-1.128zm.128-.153l.963-1.17 1.12.938-.965 1.17-1.118-.938zm1.091-1.324l.931-1.128 1.119.938-.93 1.128-1.12-.938zm1.057-1.282l.93-1.128 1.12.939-.931 1.128-1.12-.939zm1.056-1.282l.931-1.127 1.119.937-.93 1.128-1.12-.938zm.908-1.41l-1.12-.937.93-1.128 1.12.938-.93 1.128zm-1.273-1.065l-1.038-.87.931-1.128 1.037.87-.93 1.128zm-.127.154l-.93 1.127-1.038-.87.93-1.128 1.038.87zm-2.12.13l-1.12-.938.93-1.128 1.12.938-.93 1.128zm-.128.154l-.93 1.129-1.12-.94.931-1.127 1.12.938zm-1.058 1.282l-.929 1.128-1.119-.939.931-1.128 1.117.939zm-2.202.062l-1.119-.938.931-1.128 1.12.938-.932 1.128zm-.126.155l-.965 1.168-1.119-.938.965-1.17 1.119.94zm-1.091 1.322l-.931 1.128-1.12-.938.93-1.128 1.12.938zm-1.058 1.282l-.931 1.128-1.12-.938.932-1.128 1.119.938zm-1.057 1.283l-.93 1.128-1.12-.938.931-1.129 1.12.939zm-1.058 1.282l-.929 1.127-1.119-.938.93-1.128 1.118.939zm.367 2.474l1.038.87-.931 1.128-1.037-.87.93-1.128zm1.19.999l1.12.938-.93 1.128-1.12-.939.93-1.127zm.128-.154l.93-1.127 1.12.938-.931 1.127-1.119-.938zm2.202-.062l1.119.938-.931 1.128-1.119-.938.93-1.128zm.126-.153l.93-1.13 1.12.94-.93 1.127-1.12-.937zm1.057-1.284l.931-1.128 1.119.938-.93 1.129-1.12-.939zm2.203-.063l1.12.938-.931 1.128-1.12-.938.931-1.128zm.127-.153l.93-1.128 1.12.939-.931 1.127-1.12-.938zm1.056-1.282l.965-1.17 1.119.94-.965 1.17-1.119-.94zm1.093-1.323l.93-1.128 1.12.938-.931 1.128-1.12-.938zm1.056-1.282l.931-1.129 1.119.939-.93 1.128-1.12-.938zm1.057-1.283l.93-1.127 1.12.938-.93 1.127-1.12-.938zm.907-1.409l-1.12-.937.931-1.128 1.118.938-.929 1.127zm-.062-2.22l.93-1.128 1.12.938-.931 1.128-1.12-.938zm.903-1.41l-1.118-.938.93-1.128 1.12.939-.932 1.128zm-.125.155l-.931 1.128-1.119-.939.93-1.128 1.12.939zm-2.204.061l-1.037-.87.93-1.127 1.04.87-.933 1.127zm-1.19-.997l-1.119-.938.93-1.128 1.12.938-.93 1.128zm-.126.154l-.93 1.129-1.12-.94.931-1.127 1.12.938zm-2.203.062l-1.12-.938.931-1.129 1.12.939-.931 1.128zm-.127.154l-.93 1.128-1.119-.939.931-1.128 1.118.94zm-1.056 1.282l-.931 1.128-1.119-.938.93-1.128 1.12.938zm-2.204.062l-1.119-.938.93-1.128 1.121.938-.932 1.128zm-.126.154l-.93 1.128-1.12-.939.931-1.128 1.12.939zm-1.057 1.282l-.965 1.169-1.119-.938.964-1.17 1.12.94zm-1.092 1.323l-.931 1.128-1.12-.938.932-1.128 1.119.938zm-1.057 1.282l-.93 1.128-1.12-.938.931-1.128 1.12.938zm-1.056 1.282l-.932 1.128-1.117-.938.929-1.128 1.12.938zm-1.058 1.283l-.931 1.128-1.119-.939.93-1.127 1.12.938zm-.906 1.41l1.12.937-.931 1.128-1.118-.938.929-1.128zm.062 2.22l-.93 1.127-1.12-.938.931-1.127 1.12.937zm-1.056 1.282l-.93 1.128-1.12-.94.93-1.126 1.12.938zm.152.127l1.12.939-.931 1.128-1.12-.939.931-1.128zm.213 2.347l1.04.87-.932 1.128-1.038-.87.93-1.128zm.128-.153l.931-1.128 1.037.87-.929 1.127-1.039-.87zm1.058-1.282l.93-1.128 1.038.87-.93 1.128-1.038-.87zm2.12-.13l1.12.938-.931 1.126-1.119-.938.93-1.127zm1.272 1.066l1.118.939-.93 1.128-1.118-.94.93-1.127zm.128-.154l.93-1.128 1.12.937-.932 1.128-1.118-.937zm2.2-.063l1.12.938-.931 1.128-1.12-.938.931-1.128zm.128-.154l.931-1.128 1.118.938-.93 1.128-1.119-.938zm1.057-1.281l.93-1.13 1.12.94-.931 1.128-1.12-.938zm2.202-.063l1.119.938-.93 1.128-1.118-.938.93-1.128zm.127-.154l.93-1.128 1.121.939-.931 1.128-1.12-.939zm1.058-1.281l.93-1.13 1.12.94-.931 1.127-1.119-.937zm1.057-1.283l.964-1.169 1.119.938-.964 1.17-1.119-.939zm2.237-.103l1.117.938-.963 1.168-1.118-.937.964-1.169zm-.025-.282l-1.12-.938.93-1.128 1.118.937-.928 1.129zm-.063-2.22l.931-1.128 1.119.937-.93 1.128-1.12-.937zm1.057-1.282l.93-1.127 1.12.938-.931 1.128-1.12-.94zm.904-1.41l-1.12-.938.931-1.128 1.12.938-.93 1.128zm-.06-2.22l.929-1.128 1.118.938-.93 1.128-1.118-.938zm1.057-1.281l.93-1.128 1.12.938-.931 1.127-1.119-.937zm-.154-.129l-1.117-.937.93-1.127 1.118.937-.931 1.127zm-.213-2.348l-1.119-.938.93-1.127 1.12.938-.931 1.127zm-1.27-1.066l-1.041-.87.93-1.127 1.038.87-.928 1.127zm-.13.154l-.93 1.128-1.037-.87.93-1.127 1.038.87zm-2.12.131l-1.12-.938h.002l.93-1.128 1.118.938-.93 1.128zm-1.272-1.066l-1.119-.938v-.001l.931-1.127 1.12.939-.932 1.127zm-.127.155l-.93 1.127-1.118-.938.93-1.129 1.118.94zm-2.2.061l-1.121-.938.93-1.128 1.121.938-.93 1.128zm-.13.154l-.929 1.129-1.118-.94.93-1.127 1.118.938zm-1.056 1.282l-.931 1.128-1.118-.939.929-1.127 1.12.938zm-2.2.061l-1.12-.938.93-1.128 1.119.938-.93 1.128zm-.128.154l-.932 1.128-1.117-.938.929-1.128 1.12.938zm-1.058 1.282l-.931 1.129-1.119-.939.93-1.127 1.12.937zm-1.057 1.283l-.964 1.17-1.12-.94.963-1.169 1.12.939zm-1.093 1.324l-.93 1.127-1.118-.938.93-1.128 1.118.939zm-1.057 1.28l-.931 1.129-1.116-.938.928-1.128 1.12.938zm-1.056 1.283l-.931 1.128-1.12-.939.931-1.128 1.12.939zm-1.058 1.282l-.93 1.128-1.12-.939.931-1.128 1.12.94zm-.904 1.41l1.119.939-.931 1.128-1.118-.939.93-1.128zm.06 2.22l-.93 1.129-1.119-.939.93-1.127 1.12.938zm-1.057 1.283l-.93 1.127-.421-.353c-.057-.428-.09-.865-.098-1.311l.33-.401 1.119.938zm-1.057 1.281l-.171.21a8.198 8.198 0 0 1-.078-.42l.25.21zm.152.128l1.12.938-.848 1.028a9.235 9.235 0 0 1-.542-1.637l.27-.33zm1.273 1.066l1.12.938-.932 1.128-1.059-.887-.037-.077.908-1.102zm.06 2.219l-.173.213a7.958 7.958 0 0 1-.51-.787l.683.574zm.153.13l1.038.869-.306.373c-.002-.003-.003-.003-.005-.004a8.48 8.48 0 0 1-.234-.219c-.03-.027-.057-.056-.086-.086l-.104-.104a7.69 7.69 0 0 1-.506-.583l.203-.247zm1.192.996l1.12.939-.22.265a6.793 6.793 0 0 1-.542-.328c-.013-.009-.025-.015-.038-.025l-.117-.081-.16-.116-.094-.07a14.893 14.893 0 0 1-.234-.186l-.014-.013a.05.05 0 0 1-.012-.01l.311-.375zm1.272 1.068l.777.65a7.459 7.459 0 0 1-.968-.419l.191-.231zm-.026-.284l-1.12-.937.932-1.128 1.118.938-.93 1.127zm-.061-2.22l.93-1.127 1.12.939-.931 1.128-1.12-.94zm2.2-.06l1.119.937-.931 1.126-1.119-.936.93-1.128zm1.271 1.064l1.12.938-.931 1.128-1.12-.938.931-1.128zm.127-.154l.93-1.127 1.12.938-.931 1.126-1.12-.937zm2.204-.062l1.119.938-.931 1.128-1.12-.938.932-1.128zm.125-.154l.932-1.128 1.119.938-.93 1.128-1.12-.938zm1.059-1.283l.93-1.126 1.12.938-.931 1.128-1.12-.94zm2.201-.061l1.12.938-.931 1.127-1.118-.937.93-1.128zm.128-.153l.931-1.128 1.118.937-.931 1.13-1.118-.94zm1.058-1.281l.93-1.13 1.118.939-.931 1.127-1.117-.936zm1.057-1.283l.931-1.128 1.116.938-.93 1.128-1.117-.938zm2.202-.063l1.119.938-.93 1.128-1.121-.938.932-1.128zm.128-.154l.963-1.17 1.12.94-.966 1.168-1.117-.938zm.937-1.451l-1.119-.938.93-1.128 1.12.938-.931 1.128zm.997-3.502l.93-1.128 1.117.938-.93 1.128-1.117-.938zm.903-1.41l-1.12-.938.932-1.128 1.12.938-.932 1.128zm-.061-2.22l.93-1.128 1.12.939-.931 1.128-1.12-.939zm2.336-2.378l-.22-.186.146-.18c.027.12.052.243.074.366zm-.13-.61l-.245.296-1.118-.938.8-.97c.234.507.423 1.045.563 1.612zm-.793-2.073c.045.086.091.173.134.263l-.857 1.04-1.119-.938.93-1.128.912.763zm-.677-1.046c.132.171.256.348.373.532l-.48-.403.107-.13zm-1.145-1.199c.374.314.714.66 1.02 1.038l-.135.162-1.117-.939.221-.27c.004.003.008.006.01.01zm-1.307-.878c.4.212.781.459 1.141.745l-.22.268-1.038-.87.117-.143zm-.18-.093l-.09.108-.387-.325c.161.067.319.139.477.217zm-1.033-.422l.815.684-.93 1.128-1.118-.94.822-.996c.14.038.276.08.411.124zm-2.319-.418c.58.028 1.147.107 1.695.24l-.761.923-1.119-.938.185-.225zm-.252-.008l-.087.106-.13-.11.217.004zm-2.017.152a11.1 11.1 0 0 1 1.495-.15l.309.258-.931 1.128-1.12-.938.247-.298zm-.304.055l-.095.115-.091-.077.186-.038zm-.431.093l.21.176-.932 1.128-.948-.795c.556-.21 1.114-.38 1.67-.509zm-1.883.59l1.036.869-.931 1.128-1.119-.938.802-.972c.07-.03.14-.059.212-.086zm-.614.258l-.554.672-.301-.254c.283-.15.569-.29.855-.418zm-1.045.52l.365.306-.93 1.128-.755-.632c.433-.292.874-.56 1.32-.802zm-1.492.918l.8.67-.93 1.128-1.066-.893c.392-.323.79-.624 1.196-.905zm-1.496 1.16c.048-.043.097-.083.146-.124l1.09.916-.929 1.128-1.119-.938.812-.983zm.18 2.073l-.964 1.17-1.119-.939.964-1.17 1.119.94zm-1.35-.967l-.885 1.072-.046-.04c.3-.359.61-.703.93-1.032zm-.86 1.354l1.12.938-.932 1.128-1.117-.938.93-1.128zm-1.083 1c.277-.396.571-.786.883-1.168l.048.04-.931 1.128zm-.871 1.37l.897-1.088 1.119.938-.93 1.128-1.113-.932c.009-.015.017-.031.027-.046zm-.125.224l1.082.908-.929 1.128-.83-.694c.205-.451.429-.9.677-1.342zm-.759 1.532l.785.658-.93 1.127-.407-.34c.16-.482.343-.965.552-1.445zm-.617 1.65l.344.289-.639.775c.085-.353.185-.709.295-1.064zm-.404 1.569l.015-.076.886-1.075 1.12.938-.931 1.128-1.09-.915zm-.045.225l1.008.845-.93 1.128-.287-.242c.031-.57.102-1.148.209-1.731zm-.222 1.98l.174.145-.182.218c.001-.12.004-.24.008-.363zm.986 12.365c-.856.446-2.642 1.475-4.038 2.288.54-1.533 1.217-3.49 1.494-4.42.311-1.038.89-3.354 1.3-5.014a8.91 8.91 0 0 0 2.381 3.16 8.822 8.822 0 0 0 3.515 1.784c-1.543.706-3.695 1.706-4.652 2.202zm3.63-4.42l.93-1.129 1.119.939-.93 1.127-1.12-.938zm1.318 1.01l.884-1.074 1.12.94-.33.398a8.966 8.966 0 0 1-1.674-.265zm1.922.274l.234-.281.34.286a7.701 7.701 0 0 1-.574-.005zm.875-.005l-.515-.43.931-1.129 1.12.94-.42.507a10.75 10.75 0 0 1-1.116.112zm1.414-.161l.274-.33.263.221c-.179.04-.358.077-.537.109zm.78-.168l-.38-.317.932-1.127 1.097.921c-.549.213-1.1.388-1.65.523zm.677-1.6l.931-1.126 1.119.937-.93 1.127-1.12-.937zm1.412.897l.79-.957.437.367a15.25 15.25 0 0 1-1.227.59zm1.416-.695l-.498-.417.931-1.128.876.735c-.43.295-.87.565-1.309.81zm2.364-1.594c-.29.233-.586.456-.886.666l-.92-.77.932-1.129 1.119.939-.245.294zm-.749-1.386l.931-1.128 1.119.938-.93 1.128-1.12-.938zm1.635.624l.568-.687.08.068c-.212.213-.428.421-.648.62zm.788-.763l-.095-.079.932-1.128.138.118a19.1 19.1 0 0 1-.975 1.089zm1.1-1.246l-.136-.114.965-1.17.081.07c-.284.413-.586.819-.91 1.214zm1.025-1.38l-.068-.058.482-.585c-.133.215-.273.43-.414.643zm-.221-.186l-1.119-.938.93-1.128 1.12.938-.931 1.128zm1.213-1.471l-.157.19-1.119-.938.931-1.128.892.747c-.168.379-.351.757-.547 1.129zm.631-1.32l-.85-.71.931-1.129.46.385c-.156.49-.337.973-.54 1.454zm.602-1.662l-.394-.33.703-.852c-.086.395-.188.79-.31 1.182zm-.545-.458l-1.12-.938.931-1.128 1.12.938-.93 1.128zm1.161-2.957a13.86 13.86 0 0 1-.185 1.609l-1.038-.871.93-1.128.3.252-.007.138zm.015-.393l-.182-.152.185-.223-.003.375z" fill="#FFF" fill-rule="nonzero"/><rect fill="#F67C01" opacity=".7" x="540" width="96" height="96" rx="5"/><path d="M612.802 22.75c-.425-.37-1.07-.36-1.54-.042l-2.087 1.389-5.556 3.742a1.756 1.756 0 0 0-.774 1.447v1.099l-20.87 22.597-.009-.008-.264.304-.077.07.009.008-.491.565a1.14 1.14 0 0 1-1.611.11l-.31-.27c-.217-.189-.342-.236-.342-.236-.832-2.426-.014-5.126 2.023-6.737a1.69 1.69 0 0 0 .16-.15 1.308 1.308 0 0 0-.114-1.839 1.288 1.288 0 0 0-1.371-.2l-.56.276c-2.954 1.4-5.45 3.802-6.467 6.9-.136.406-1.243 3.142-2.041 3.9l-.719.687a18.64 18.64 0 0 1-6.2 3.854c-1.1.41-2.084 1.119-2.713 2.11-1.824 2.858-1.424 6.8 1.33 9.194l6.992 6.078a6.538 6.538 0 0 0 4.182 1.622c2.442.038 4.86-1.253 6.082-3.666l1.399-2.795a18.78 18.78 0 0 1 2.508-3.723 17.368 17.368 0 0 1 2.571-2.417 15.603 15.603 0 0 1 2.627-1.697l.008-.009a5.523 5.523 0 0 0 1.618-1.338 9.495 9.495 0 0 0 1.233-1.994l.271-.573c.146-.373.07-.792-.16-1.07-.113-.121-.252-.221-.401-.272a.995.995 0 0 0-1.045.19l-.12.14a4.689 4.689 0 0 1-1.896 1.448 4.564 4.564 0 0 1-3.357.147c-.6-.201-1.053-.733-1.108-1.375-.036-.414-.007-.811.221-1.074l2.258-2.597-.017-.015 19.216-23.517 1.73-.648c.328-.128.576-.396.682-.733.365-1.205 1.363-4.08 2.817-4.949a.769.769 0 0 1 .516-.07 2.214 2.214 0 0 0 1.991-.74c.8-.92.712-2.309-.216-3.116l-.008-.007zm-3.604-.632a.704.704 0 0 0-.972-.189.688.688 0 0 0-.188.966c.12.182.322.276.532.294l.236.373.717-.475-.253-.372c.054-.187.052-.418-.072-.597zm-2 1.342a.692.692 0 0 0-.957-.19.71.71 0 0 0-.195.974c.12.183.314.27.524.288l.245.38.7-.474-.245-.38a.667.667 0 0 0-.073-.598zm-1.985 1.341a.7.7 0 0 0-.972-.189.693.693 0 0 0-.179.973.68.68 0 0 0 .516.296l.252.372.708-.483-.252-.372a.642.642 0 0 0-.073-.597zm-29.71 34.65l4.298 3.737a.763.763 0 0 1 .072 1.068.749.749 0 0 1-1.06.07l-4.3-3.737a.743.743 0 0 1-.07-1.053.757.757 0 0 1 1.06-.085zm-2.817 3.24l4.299 3.737a.755.755 0 0 1-.99 1.138l-4.299-3.737a.753.753 0 0 1-.063-1.061.747.747 0 0 1 1.053-.077zm4.378 8.336c.34.296.37.812.076 1.15a.815.815 0 0 1-1.149.084.81.81 0 0 1-.068-1.142.81.81 0 0 1 1.14-.092zm-7.203-5.087l4.299 3.737a.749.749 0 0 1 .079 1.06.763.763 0 0 1-1.068.079l-4.3-3.737a.757.757 0 0 1-.062-1.062.743.743 0 0 1 1.052-.077zm6.336 8.559a.82.82 0 0 1 .077 1.15.812.812 0 1 1-1.226-1.066.815.815 0 0 1 1.15-.084z" fill="#FFF" fill-rule="nonzero"/><rect fill="#019444" opacity=".7" x="540" y="108" width="96" height="96" rx="5"/><path d="M611.345 133.853c-2.476-2.52-6.383-3.853-11.299-3.853-9.215 0-19.898 4.674-26.585 11.63-4.56 4.744-8.525 12.108-10.35 19.218-2.087 8.133-1.214 14.67 2.458 18.41 2.404 2.448 6.134 3.742 10.788 3.742h.002c9.09 0 20.48-4.84 27.082-11.507 6.788-6.857 11.541-17.904 11.559-26.866.01-4.604-1.255-8.33-3.655-10.774zm-36.133 33.731s-3.252 1.513-4.601 1.104c-1.103-.333-1.74-3.702-.795-8.187.975-4.632 2.643-10.912 8.12-17.035l.01-.01c2.952-3.073 6.804-5.667 11.138-7.504 4.05-1.716 8.32-2.661 12.024-2.661 2.75 0 5.048.514 6.66 1.465.637.44.677 2.832-.824 5.597-1.5 2.765-6.026 8.89-11.424 13.656-5.399 4.767-17.393 12.52-20.308 13.575zm25.915-.614c-3.667 3.704-9.196 6.818-14.756 8.57l-.507.099c-2.144.385-4.716.534-5.774.278-1.417-.34-1.084-1.593.033-2.334 1.117-.74 10.028-7.81 14.818-12.688 4.404-4.484 13.433-14.031 15.973-19.247.074-.15.245-.15.26-.001.07.67.097 1.319.095 1.912-.015 7.645-4.28 17.491-10.142 23.41z" fill="#FFF" fill-rule="nonzero"/><rect fill="#DF0D2E" opacity=".7" x="648" width="96" height="96" rx="5"/><path d="M721.385 66.408c1.773 1.109 4.99-3.64 2.32-5.24-1.682-1.01-1.868-1.316-2.342-2.098-1.142-1.877.353-7.124 3.234-7.8 2.14-.5 2.28 1.465 1.103 2.106-2.792 1.66-3.026 4.445-1.126 5.803 1.075.767 1.832 1.315 2.3 3.026.662 2.414-1.323 6.254-5.136 7.461 0 0-.545.123-1.134.13a4.134 4.134 0 0 1-1.194 1.06c-5.294 2.213-13.745-.129-14.88.08-1.135.205-2.096.129-2.585-.68-.321-.528.111-.94.075-1.604-.026-.447.475-10.885-.402-15.019 2.148-.587 6.02-2.637 7.309-3.336.105.169.229.328.383.47 4.326 1.695 11.515 9.97 12.075 15.641zm-47.574 5.046c-1.078.703-3.884.438-5.39-1.346-2.015-2.389-3.07-7.83-1.99-10.084 1.132-2.369 1.192 5.293 5.473 8.852-.765-6.008 5.877-23.537 7.24-27.052 2.975.996 8.97 2.951 10.369 3.407l2.744 23.628s.39 2.2-2.776 1.51c-2.787-.604-11.547 2.948-15.67 1.085zm23.675-38.04c.724.987.146 3.97-.714 4.836-1.166 1.171-5.34 2.027-6.184 2.328-1.255.449-1.345 2.329-1.345 2.329l.026.219c-2.581-.43-7.154-2.195-9.595-3.184.907-3.893 3.792-15.454 5.96-14.924 1.137.277.903 4 .903 4s2.521-.098 3.424.456c.772.475 1.97 3.046 1.97 3.046s4.725-.24 5.555.894zm3.85 18.576c-.35-1.049-1.054-2.313-2.026-2.566-1.594-.414-2.079-3.13-1.804-4.129.072-.26 1.905-1.225 2.381-3 .397-1.479 3.713-1.479 3.713-1.479s1.537-3.877 2.688-3.76c1.168.118 1.752 3.953 1.881 4.298.718 1.92 1.075 2.688.807 4.031-.17.848-.572 2.237-.48 3.482-2.394 1.532-5.296 2.561-7.16 3.123z" fill="#FFF" fill-rule="nonzero"/><rect fill="#171964" opacity=".7" x="648" y="108" width="96" height="96" rx="5"/><g transform="translate(672 132)" fill-rule="nonzero" fill="#FFF"><ellipse cx="23.734" cy="7.162" rx="4.367" ry="4.057"/><path d="M0 29.258V48h48V29.258H0zm8.908 14.705c-3.17 0-5.741-2.388-5.741-5.334 0-2.945 2.571-5.334 5.741-5.334 3.171 0 5.74 2.389 5.74 5.334 0 2.946-2.569 5.334-5.74 5.334zm15.092 0c-3.171 0-5.742-2.388-5.742-5.334 0-2.945 2.571-5.334 5.742-5.334s5.741 2.389 5.741 5.334c0 2.946-2.57 5.334-5.741 5.334zm15.092 0c-3.172 0-5.74-2.388-5.74-5.334 0-2.945 2.568-5.334 5.74-5.334 3.17 0 5.741 2.389 5.741 5.334 0 2.946-2.571 5.334-5.741 5.334z"/><ellipse cx="39.092" cy="38.629" rx="2.688" ry="2.498"/><ellipse cx="24" cy="38.629" rx="2.687" ry="2.498"/><ellipse cx="8.908" cy="38.629" rx="2.686" ry="2.498"/><ellipse cx="13.359" cy="24.341" rx="7.445" ry="2.644"/><ellipse cx="33.883" cy="24.34" rx="7.447" ry="2.645"/><path d="M44.846 24.671h-2.438c-.373 2.295-4.588 3.348-8.523 3.348-2.83 0-5.795-.547-7.383-1.705a4.45 4.45 0 0 1-.493-.424 3.187 3.187 0 0 1-.236-.283 2.411 2.411 0 0 1-.193-.314c-.043-.082-.086-.164-.118-.25a1.97 1.97 0 0 1-.075-.276c-.03-.14-.063-.278-.063-.427 0-1.408 1.378-2.388 3.312-2.98v-5.623h1.29c.591 0 1.148-.255 1.508-.691l3.494-4.234c.253-.308.392-.685.392-1.074V1.764C35.317.79 34.467 0 33.418 0s-1.899.79-1.899 1.764V9.14l-2.532 3.068H18.532a2.01 2.01 0 0 0-.915.218l-3.052 1.557 1.096-3.906c.263-.943-.346-1.906-1.361-2.152-1.013-.244-2.052.32-2.315 1.264l-2.203 7.868c-.19.682.074 1.403.672 1.836.341.246.753.372 1.168.372.313 0 .627-.072.913-.218l6.302-3.217v5.605c1.811.599 3.084 1.553 3.084 2.905 0 .149-.032.288-.063.427a1.973 1.973 0 0 1-.076.276 2.59 2.59 0 0 1-.311.564 2.9 2.9 0 0 1-.234.283 4.095 4.095 0 0 1-.495.424c-1.586 1.158-4.55 1.705-7.38 1.705-3.938 0-8.151-1.053-8.525-3.348H2.791l-2.374 3.92h46.802l-2.373-3.92z"/></g><rect fill="#91D300" opacity=".7" x="756" width="96" height="96" rx="5"/><path d="M823.396 37.117c-1.168-1.841-2.632-3.384-4.633-4.31-2.338-1.085-4.726-.996-7.122-.208-1.33.437-2.562 1.083-3.714 1.89a4.688 4.688 0 0 1-2.775.862 287.79 287.79 0 0 0-1.302 0 4.687 4.687 0 0 1-2.776-.863c-1.152-.806-2.383-1.452-3.714-1.89-2.395-.787-4.783-.876-7.122.208-2 .927-3.464 2.47-4.632 4.31-3.09 4.87-4.457 10.266-4.599 15.998-.042 1.699.104 3.41.284 5.103.113 1.058.357 2.124.71 3.127.93 2.639 3.8 3.373 5.817 1.925.764-.549 1.553-1.087 2.214-1.749 1.631-1.635 3.202-3.334 4.784-5.018.703-.749 1.528-1.173 2.564-1.172 2.312.002 11.928.002 14.24 0 1.036 0 1.86.423 2.564 1.172 1.582 1.684 3.152 3.383 4.784 5.018.66.662 1.45 1.2 2.214 1.749 2.018 1.448 4.887.713 5.816-1.925.353-1.003.597-2.07.71-3.127.182-1.692.327-3.404.284-5.103-.139-5.732-1.506-11.127-4.596-15.997zm-24.803 8.858a.48.48 0 0 1-.478.483h-3.85v3.898a.48.48 0 0 1-.476.484h-2.209a.48.48 0 0 1-.477-.484v-3.898h-3.849a.48.48 0 0 1-.477-.483V43.74a.48.48 0 0 1 .477-.483h3.85v-3.899a.48.48 0 0 1 .476-.483h2.209a.48.48 0 0 1 .477.483v3.899h3.85a.48.48 0 0 1 .477.483v2.236zm14.488 2.4a2.086 2.086 0 0 1-2.591-1.437c-.324-1.121.312-2.296 1.42-2.624a2.085 2.085 0 0 1 2.59 1.438c.323 1.12-.312 2.295-1.419 2.623zm1.793-7.142c-.323-1.121.312-2.296 1.42-2.624a2.085 2.085 0 0 1 2.59 1.437c.324 1.121-.311 2.296-1.419 2.624a2.085 2.085 0 0 1-2.59-1.437zm4.935 8.23a2.085 2.085 0 0 1-2.59-1.437c-.324-1.121.311-2.296 1.419-2.624a2.085 2.085 0 0 1 2.59 1.437c.323 1.122-.311 2.296-1.419 2.624z" fill="#FFF" fill-rule="nonzero"/><rect fill="#D4006F" opacity=".7" x="756" y="108" width="96" height="96" rx="5"/><g transform="translate(775 133)" fill-rule="nonzero" fill="#FFF"><path d="M57.697 16.794s-8.5-5.027-20.196-6.898l-3.97 14.292c13.695-1.2 24.166-7.394 24.166-7.394zM25.58 28.916l-2.662 10.971c-.319 1.315.293 2.592 1.367 2.851 1.073.258 2.203-.6 2.522-1.914l2.136-8.804-3.363-3.104z"/><ellipse cx="32.942" cy="4.011" rx="4.006" ry="3.991"/><path d="M31.381 25.086c.166-.294.3-.613.392-.954l2.851-10.486c.1-.363.147-.727.147-1.087a4.145 4.145 0 0 0-4.04-4.135 4.166 4.166 0 0 0-2.065.482l-5.42 1.935a2.089 2.089 0 0 0-.4.195 1.65 1.65 0 0 0-.885 1.07l-2.265 8.457c-.232.864.25 1.742 1.075 1.962.825.22 1.68-.303 1.912-1.167l1.87-6.974 1.397-.498-2.198 8.08a4.132 4.132 0 0 0-.106 1.65c-.026.829.32 1.71 1.018 2.383l5.76 5.55c.092.089.187.17.285.246l-2.677 11.037c-.32 1.315.292 2.592 1.366 2.85 1.073.259 2.203-.598 2.523-1.914l3.123-12.878c.038-.157.062-.312.075-.467.134-.912-.206-1.934-.99-2.69l-2.748-2.647zM.257 16.794s7.118 4.21 17.29 6.36L20.76 9.846C8.905 11.68.257 16.794.257 16.794z"/></g><rect fill="#58BBFB" opacity=".7" x="864" width="96" height="96" rx="5"/><path d="M942.41 56.046l-10.555-9.36c-1.996-1.903-3.838-3.961-5.949-5.786-2.072-1.748-4.682-3.224-7.369-3.729-3.147-.66-7.33.544-7.484 4.389-.077 1.282.537 2.68 1.727 3.262 1.113.544 2.495.35 3.454-.35.423-.31.845-.776.998-1.32-.076.35-1.036.31-1.305.272-.652-.116-1.458-.466-1.42-1.36 0-.232.116-.465.23-.66.384-.543 1.114-.737 1.766-.699 1.958.156 3.3 1.554 3.915 3.38.269.776.422 1.592.422 2.407-.038 1.01-.422 1.903-1.036 2.68-1.689 2.136-6.947 1.786-8.022 1.553-3.224-.737-6.41-1.67-9.096-3.728-.153-.116-.345-.272-.499-.388-2.149-1.71-3.876-3.923-5.987-5.71-2.034-1.747-4.682-3.223-7.33-3.728-3.186-.66-7.331.544-7.523 4.389-.038 1.282.537 2.68 1.727 3.262 1.113.544 2.495.35 3.454-.35.423-.31.845-.776.998-1.32-.077.35-1.036.31-1.305.272-.652-.116-1.458-.466-1.42-1.36 0-.232.115-.465.23-.66.384-.543 1.114-.737 1.766-.699 1.957.156 3.3 1.554 3.915 3.38.268.776.422 1.592.422 2.407-.038 1.01-.384 1.942-1.036 2.68-.691.816-1.612 1.398-2.533 1.825-.998.466-2.035.777-3.11 1.01-.537.117-1.266.194-1.957.272a1.703 1.703 0 0 0-1.496 1.786c.038 1.088.076 2.408.115 3.418.038.855.69 1.515 1.535 1.515h58.645c1.573.077 2.302-1.903 1.113-2.952zm-48.973-8.233c-.039.35-.115.66-.23.97-.116.311-.23.622-.384.933-.307.582-.73 1.087-1.152 1.514-.882.855-1.919 1.398-2.917 1.748-.998.35-1.957.466-2.763.505-.844.039-1.574 0-2.15-.078-.575-.077-1.074-.155-1.38-.194a7.574 7.574 0 0 1-.5-.078s.346 0 .883-.038c.576-.04 1.382-.078 2.341-.195.96-.116 2.034-.35 3.109-.815 1.074-.466 2.15-1.127 2.917-2.059.383-.466.69-.97.92-1.514.231-.544.308-1.127.346-1.67 0-.272 0-.544-.038-.816 0-.116-.039-.272-.077-.388-.038-.117-.038-.233-.115-.389a13.211 13.211 0 0 0-.499-1.475c-.345-.894-.768-1.515-1.113-1.903a1.811 1.811 0 0 0-.422-.389c-.077-.077-.154-.116-.154-.116.269.077.538.233.768.388a3.6 3.6 0 0 1 .69.621c.423.467.807 1.01 1.114 1.593.153.272.307.582.422.893.115.31.23.621.307.971.115.621.153 1.32.077 1.98zm9.441 1.087c-.115-.039-.23-.116-.345-.155l-.46-.233c-.346-.194-.73-.466-1.152-.777-.422-.31-.883-.7-1.343-1.126-.461-.427-.96-.932-1.459-1.398a15.471 15.471 0 0 0-1.65-1.476c-.576-.505-1.19-.971-1.842-1.476-.308-.233-.653-.466-.998-.7l-1.037-.698c-.69-.427-1.381-.855-2.072-1.204-.346-.155-.691-.31-1.036-.427-.346-.117-.73-.233-1.075-.311a9.96 9.96 0 0 0-2.073-.233c-.345 0-.652.039-.96.078-.268-.04-.613.038-.843.077-.23.078-.461.194-.691.311-.23.116-.422.272-.614.388a3.318 3.318 0 0 0-.73.777c-.115.272-.115.427-.153.544.038.116.038.194.038.194a1.085 1.085 0 0 1-.038-.854c.115-.35.345-.66.576-.933.268-.31.575-.543.92-.776.193-.156.346-.233.538-.31.192-.079.384-.156.576-.195a7.355 7.355 0 0 1 2.418-.272c.806.039 1.612.155 2.418.388.767.233 1.496.583 2.187.971.691.389 1.305.777 1.88 1.204a24.53 24.53 0 0 1 3.186 2.602c.461.428.883.894 1.267 1.32.384.428.73.855 1.075 1.282.652.816 1.266 1.515 1.804 2.02a9.391 9.391 0 0 0 1.381 1.165c.192.117.307.233.422.272.116.078.154.078.154.078s-.038-.04-.269-.117zm20.418-1.087c-.038.35-.115.66-.23.97-.115.311-.23.622-.384.933-.307.582-.729 1.087-1.151 1.514-.883.855-1.92 1.398-2.917 1.748-.998.35-1.957.466-2.763.505-.845.039-1.574 0-2.15-.078-.575-.077-1.074-.155-1.381-.194a7.574 7.574 0 0 1-.5-.078s.346 0 .884-.038c.575-.04 1.381-.078 2.34-.195.96-.116 2.035-.35 3.11-.815 1.074-.466 2.149-1.127 2.916-2.059.384-.466.691-.97.921-1.514.23-.544.308-1.127.346-1.67 0-.272 0-.544-.038-.816 0-.116-.039-.272-.077-.388-.039-.117-.039-.233-.115-.389a13.211 13.211 0 0 0-.5-1.475c-.345-.894-.767-1.515-1.112-1.903a1.811 1.811 0 0 0-.423-.389c-.076-.077-.153-.116-.153-.116.269.077.537.233.768.388a3.6 3.6 0 0 1 .69.621c.423.467.806 1.01 1.113 1.593.154.272.307.582.423.893.115.31.23.621.307.971.115.621.153 1.32.076 1.98zm9.442 1.087c-.115-.039-.23-.116-.346-.155l-.46-.233c-.346-.194-.73-.466-1.151-.777-.423-.31-.883-.7-1.344-1.126-.46-.427-.96-.932-1.458-1.398a15.471 15.471 0 0 0-1.65-1.476c-.576-.505-1.19-.971-1.843-1.476a22.465 22.465 0 0 0-.998-.7l-1.036-.698c-.69-.427-1.382-.855-2.072-1.204-.346-.155-.691-.31-1.037-.427-.345-.117-.729-.233-1.074-.311a9.96 9.96 0 0 0-2.073-.233 7.39 7.39 0 0 0-.96.078c-.268-.04-.613.038-.844.077-.23.078-.499.194-.729.311-.23.116-.422.272-.614.388a3.318 3.318 0 0 0-.73.777 1.312 1.312 0 0 0-.153.544v.194a1.085 1.085 0 0 1-.038-.854c.115-.35.345-.66.576-.933.268-.31.575-.543.92-.776.27-.156.423-.233.615-.31a3.35 3.35 0 0 1 .575-.195 7.355 7.355 0 0 1 2.418-.272c.806.039 1.612.155 2.418.388.768.233 1.497.583 2.188.971.69.389 1.305.777 1.88 1.204a24.53 24.53 0 0 1 3.186 2.602c.46.428.883.894 1.267 1.32.383.428.729.855 1.074 1.282.653.816 1.267 1.515 1.804 2.02a9.39 9.39 0 0 0 1.382 1.165c.192.117.307.233.422.272.115.078.154.078.154.078s-.077-.04-.27-.117z" fill="#FFF" fill-rule="nonzero"/><rect fill="#AB8C2C" opacity=".7" x="864" y="108" width="96" height="96" rx="5"/><path d="M936.867 139.027a1.69 1.69 0 0 0-.787.371l-7.475 6.323a.747.747 0 0 1-.473.168h-11.704v-1.23h.027c.43 0 .777-.343.777-.769v-.433a.773.773 0 0 0-.777-.77h-1.932a.768.768 0 0 0-.769.77v.433c0 .426.344.77.77.77h.026v1.229h-4.739v-1.23h.027c.43 0 .778-.343.778-.769v-.433a.773.773 0 0 0-.778-.77h-1.922a.773.773 0 0 0-.778.77v.433c0 .426.348.77.778.77h.027v1.229h-3.925c-.266 0-.526-.002-.787.035v-1.264h.027c.43 0 .769-.344.769-.77v-.433a.765.765 0 0 0-.77-.77h-1.93a.773.773 0 0 0-.778.77v.433c0 .426.347.77.777.77h.027v1.53a12.154 12.154 0 0 0-5.749 3.015h20.037c.265 0 .526.017.787.035 2.641.186 5.17 1.314 7.019 3.166.114.095.203.182.295.31.169.185.363.38.491.583h3.908c.169 0 .336.05.473.159l7.422 6.27c.975.814 2.447.329 2.753-.894 1.58-6.284 1.634-12.493.045-18.57-.237-.902-1.131-1.387-1.967-1.237zm-.224 2.166c1.14 0 2.057 3.76 2.057 8.392 0 4.613-.917 8.374-2.057 8.374-1.144 0-2.065-3.756-2.065-8.374 0-4.627.921-8.392 2.065-8.392zm-50.186 7.64c-.805 0-1.457.64-1.457 1.433v6.72c0 .797.656 1.441 1.457 1.441a1.46 1.46 0 0 0 1.35-.893h13.555v4.369a3.933 3.933 0 0 1-.715-.575 4.758 4.758 0 0 1-1.386-2.874h-7.492c.205 5.614 4.237 10.226 9.593 11.372v2.245c0 .521.408.929.93.929a.924.924 0 0 0 .939-.929v-1.98c.26.04.521.035.787.035h3.934v1.945c0 .521.426.929.93.929a.927.927 0 0 0 .938-.929v-1.945h4.74v1.945c0 .521.412.929.938.929a.93.93 0 0 0 .93-.929v-1.98a10 10 0 0 0 5.588-2.184 9.972 9.972 0 0 0 3.746-7.782c0-2.648-1.042-5.042-2.745-6.844-.073-.086-.146-.157-.214-.23a10.129 10.129 0 0 0-6.375-2.891 11.273 11.273 0 0 0-.787-.036h-27.753a1.434 1.434 0 0 0-1.43-1.29zm16.774 8.701h4.712v5.182h-3.925c-.266 0-.526-.012-.787-.07v-5.112zm6.59 0h4.738v5.182h-4.739v-5.182zm6.607.133a2.557 2.557 0 0 1 1.842 2.458c0 1.15-.776 2.155-1.842 2.467v-4.925z" fill="#FFF" fill-rule="nonzero"/></g></svg>