<?xml version="1.0" encoding="UTF-8"?>
<svg width="85px" height="85px" viewBox="0 0 85 85" version="1.1" xmlns="http://www.w3.org/2000/svg" xmlns:xlink="http://www.w3.org/1999/xlink">
    <!-- Generator: Sketch 42 (36781) - http://www.bohemiancoding.com/sketch -->
    <title>idea-picto</title>
    <desc>Created with Sketch.</desc>
    <defs>
        <filter x="-50%" y="-50%" width="200%" height="200%" filterUnits="objectBoundingBox" id="filter-1">
            <feOffset dx="5" dy="10" in="SourceAlpha" result="shadowOffsetOuter1"></feOffset>
            <feGaussianBlur stdDeviation="12.5" in="shadowOffsetOuter1" result="shadowBlurOuter1"></feGaussianBlur>
            <feColorMatrix values="0 0 0 0 0.219607843   0 0 0 0 0.247058824   0 0 0 0 0.321568627  0 0 0 0.25 0" type="matrix" in="shadowBlurOuter1" result="shadowMatrixOuter1"></feColorMatrix>
            <feMerge>
                <feMergeNode in="shadowMatrixOuter1"></feMergeNode>
                <feMergeNode in="SourceGraphic"></feMergeNode>
            </feMerge>
        </filter>
        <circle id="path-2" cx="42.5" cy="42.5" r="42.5"></circle>
    </defs>
    <g id="Proto" stroke="none" stroke-width="1" fill="none" fill-rule="evenodd">
        <g id="Landing-Page-(easiness)">
            <g id="idea-picto" filter="url(#filter-1)">
                <mask id="mask-3" fill="white">
                    <use xlink:href="#path-2"></use>
                </mask>
                <use id="Oval-7" fill="#58BBFB" xlink:href="#path-2"></use>
                <polygon id="Rectangle-4" fill="#40A2E1" mask="url(#mask-3)" points="27 23 62 23 62 59 56 66 27 66"></polygon>
                <polygon id="Rectangle-4" fill="#FFFFFF" mask="url(#mask-3)" points="25 21 60 21 60 57 54 64 25 64"></polygon>
                <g id="Group" mask="url(#mask-3)">
                    <g transform="translate(29.000000, 29.000000)">
                        <path d="M13.5,8.10810811 C10.7560919,8.10810811 8.1,10.4480172 8.1,13.7567568 C8.1,17.7936647 10.4891308,17.7143238 10.8,20.2702703 L16.2,20.2702703 C16.5108692,17.7143238 18.9,17.7936647 18.9,13.7567568 C18.9,10.4480172 16.2439081,8.10810811 13.5,8.10810811 Z" id="Shape" fill="#383F52" fill-rule="nonzero"></path>
                        <path d="M10.8,21.6216216 L10.8,24.034749 C10.8,24.5893098 11.3101709,25 11.88,25 L15.12,25 C15.6898288,25 16.2,24.5893098 16.2,24.034749 L16.2,21.6216216 L10.8,21.6216216 Z" id="Path" fill="#383F52" fill-rule="evenodd"></path>
                        <path d="M20.75625,20.4180743 C20.5006707,20.442973 20.2674184,20.6270405 20.1835722,20.8699959 C20.0997261,21.1129514 20.1697381,21.4018892 20.3554687,21.5793919 L22.0957031,23.3213682 C22.345176,23.578202 22.8080279,23.580174 23.0596757,23.3254764 C23.3113238,23.0707777 23.3042397,22.6075122 23.0449202,22.3606429 L21.3046875,20.629223 C21.1801125,20.4975081 21.0007252,20.4194351 20.8195312,20.4180743 C20.7984544,20.4170946 20.7773282,20.4170946 20.75625,20.4180743 Z" id="Path" fill="#CBCBD5" fill-rule="evenodd"></path>
                        <path d="M6.159375,20.4180743 C5.98527259,20.4249561 5.81497076,20.5024439 5.6953125,20.629223 L3.95507813,22.3606419 C3.69576034,22.6075111 3.68867621,23.0707767 3.940326,23.3254753 C4.19197376,23.580174 4.65482565,23.578202 4.90429856,23.3213672 L6.64453125,21.5793919 C6.83835615,21.3917682 6.90207986,21.0819287 6.79805494,20.8329247 C6.69403001,20.5839206 6.42893018,20.4117267 6.159375,20.4180743 Z" id="Path" fill="#CBCBD5" fill-rule="evenodd"></path>
                        <path d="M0,13.8513514 C0,14.1698679 0.321137662,14.527027 0.675,14.527027 L2.7,14.527027 C3.0566079,14.5320709 3.38460356,14.2083517 3.38460356,13.8513514 C3.38460356,13.494351 3.0566079,13.1706324 2.7,13.1756757 L0.675,13.1756757 C0.28676295,13.1756757 0,13.5328348 0,13.8513514 Z" id="Path" fill="#CBCBD5" fill-rule="evenodd"></path>
                        <path d="M23.2875,13.8513514 C23.2875,14.1698679 23.6074122,14.527027 23.9625,14.527027 L26.325,14.527027 C26.6816079,14.5320709 27,14.2083517 27,13.8513514 C27,13.494351 26.6816079,13.1706324 26.325,13.1756757 L23.9625,13.1756757 C23.573618,13.1756757 23.2875,13.5328348 23.2875,13.8513514 Z" id="Path" fill="#CBCBD5" fill-rule="evenodd"></path>
                        <path d="M4.31367187,4.04349662 C4.05809257,4.06839527 3.82484025,4.25246284 3.74099411,4.49541824 C3.65714797,4.73837365 3.72715999,5.02731149 3.91289062,5.20481419 L5.26289062,6.55616554 C5.51236354,6.81299932 5.97521542,6.81497128 6.22686319,6.56027365 C6.47851129,6.305575 6.47142716,5.84230946 6.21211106,5.5954402 L4.86211106,4.24408885 C4.72152712,4.09990135 4.51400546,4.02400034 4.31367187,4.04349662 Z" id="Path" fill="#CBCBD5" fill-rule="evenodd"></path>
                        <path d="M22.6125,4.03293919 C22.5841905,4.03469595 22.5559914,4.03820946 22.528125,4.04349662 C22.3807256,4.06481419 22.2410809,4.13659392 22.1378906,4.24408784 L20.7878906,5.59543919 C20.5285728,5.84230845 20.5214887,6.30557399 20.7731351,6.56027264 C21.0247829,6.81497128 21.4876348,6.81299932 21.7371077,6.55616453 L23.0871077,5.20481318 C23.2871102,5.01984527 23.3569167,4.7072 23.254613,4.45459932 C23.1523113,4.20199932 22.8847157,4.02627568 22.6125,4.03293919 Z" id="Path" fill="#CBCBD5" fill-rule="evenodd"></path>
                        <path d="M13.5,0 C13.181802,0 12.825,0.341666115 12.825,0.675675676 L12.825,2.7027027 C12.8199611,3.05966757 13.1433567,3.38799155 13.5,3.38799155 C13.8566433,3.38799155 14.1800382,3.05966757 14.175,2.7027027 L14.175,0.675675676 C14.175,0.292292669 13.818198,0 13.5,0 Z" id="Path" fill="#CBCBD5" fill-rule="evenodd"></path>
                    </g>
                </g>
                <polygon id="Path-3" fill="#D9D9E0" mask="url(#mask-3)" points="60 57 54 57 54 64"></polygon>
            </g>
        </g>
    </g>
</svg>
