<?xml version="1.0" encoding="UTF-8"?>
<svg width="240px" height="84px" viewBox="0 0 240 84" version="1.1" xmlns="http://www.w3.org/2000/svg" xmlns:xlink="http://www.w3.org/1999/xlink">
    <!-- Generator: Sketch 41 (35326) - http://www.bohemiancoding.com/sketch -->
    <title>logo-footer</title>
    <desc>Created with Sketch.</desc>
    <defs></defs>
    <g id="Symbols" stroke="none" stroke-width="1" fill="none" fill-rule="evenodd">
        <g id="FOOTER" transform="translate(-48.000000, -26.000000)">
            <g id="logo-footer" transform="translate(48.000000, 26.000000)">
                <g id="logo-bob">
                    <path d="M2.61753089,11.7689248 C0.759525654,12.8823252 -0.183537173,15.1538824 0.470776963,17.3269756 L6.13326911,36.4778761 L6.13326911,35.670196 L2.61753089,11.7689248 Z" id="Fill-97" fill="#F37791"></path>
                    <path d="M6.13320052,5.84504237 C3.75325288,6.44615466 2.17165079,8.77417373 2.54270314,11.26125 L6.13320052,35.6699894 L6.13320052,5.84504237 Z" id="Fill-99" fill="#EE4266"></path>
                    <path d="M24.5353398,58.4599947 C34.6820099,58.4599947 42.9377534,49.9473358 42.9377534,39.4832998 C42.9377534,36.8068697 40.7765963,34.6372193 38.1106435,34.6372193 C35.4446906,34.6372193 33.2835335,36.8068697 33.2835335,39.4832998 C33.2835335,44.6027383 29.3590204,48.7678337 24.5353398,48.7678337 C19.7116592,48.7678337 15.7871461,44.6027383 15.7871461,39.4832998 C15.7871461,34.3638612 19.7116592,30.1980773 24.5353398,30.1980773 C26.212277,30.1980773 27.8398319,30.7027913 29.2431094,31.656446 C31.4509052,33.1581939 34.4522455,32.5784269 35.9467429,30.3619544 C37.4419262,28.1461706 36.8644288,25.133035 34.6573188,23.6319756 C31.6498058,21.5869544 28.1498424,20.5059163 24.5353398,20.5059163 C21.3707639,20.5059163 18.3906853,21.3342532 15.7871461,22.7912447 L15.7871461,5.41958157 C15.7871461,2.74315148 13.625989,0.573501059 10.9600361,0.573501059 C8.29408325,0.573501059 6.13292618,2.74315148 6.13292618,5.41958157 L6.13292618,39.4832998 C6.13292618,49.9473358 14.3886696,58.4599947 24.5353398,58.4599947" id="Fill-143" fill="#FFFFFF"></path>
                    <path d="M59.6405963,49.9665466 C59.4142613,49.205 58.9677639,48.5804767 58.3011042,48.1046822 C57.6378738,47.6247564 56.8655911,47.3872034 55.9863136,47.3872034 C55.0315911,47.3872034 54.1934654,47.6564301 53.4726225,48.1914407 C53.0226958,48.5288347 52.6029471,49.1182415 52.215434,49.9665466 L59.6405963,49.9665466 Z M63.0651147,52.6732733 L52.0679733,52.6732733 C52.225722,53.6489619 52.6482141,54.4215254 53.3381932,54.997161 C54.0288581,55.5727966 54.9081356,55.8585487 55.979455,55.8585487 C57.2572194,55.8585487 58.3566592,55.4102966 59.2764026,54.5103496 L62.1618319,55.8730085 C61.4437325,56.8968962 60.5816016,57.6515572 59.5788686,58.1445657 C58.5754497,58.6341314 57.3847901,58.8792585 56.0034602,58.8792585 C53.8635649,58.8792585 52.1187272,58.2037818 50.7764916,56.848697 C49.4301408,55.4894809 48.7566225,53.7935593 48.7566225,51.7561123 C48.7566225,49.6628919 49.4267115,47.9290996 50.769633,46.5499153 C52.1091251,45.1672881 53.7915492,44.4773517 55.8141618,44.4773517 C57.964345,44.4773517 59.712612,45.1672881 61.0589628,46.5499153 C62.4018843,47.9290996 63.0747168,49.7524047 63.0747168,52.0184534 L63.0651147,52.6732733 Z" id="Fill-144" fill="#FFFFFF"></path>
                    <polygon id="Fill-145" fill="#FFFFFF" points="103.64089 58.5282309 107.065408 58.5282309 107.065408 39.5439619 103.64089 39.5439619"></polygon>
                    <path d="M116.696172,47.7150953 C115.631025,47.7150953 114.749004,48.0841631 114.041193,48.8291843 C113.330638,49.5700742 112.980161,50.5216631 112.980161,51.6805085 C112.980161,52.8696504 113.327208,53.8350106 114.027475,54.5731462 C114.724999,55.314036 115.611135,55.6831038 116.682454,55.6831038 C117.757203,55.6831038 118.646769,55.3105932 119.360753,54.5628178 C120.071994,53.8143538 120.425899,52.8558792 120.425899,51.6805085 C120.425899,50.5044492 120.079538,49.5494174 119.378585,48.8147246 C118.677632,48.0807203 117.784638,47.7150953 116.696172,47.7150953 M116.641303,44.4774894 C117.929355,44.4774894 119.137847,44.8018008 120.27158,45.4462924 C121.404627,46.0949153 122.287334,46.9700742 122.92313,48.0772775 C123.55824,49.1872352 123.877166,50.3832627 123.877166,51.6667373 C123.877166,52.9591631 123.55481,54.1662076 122.916271,55.2933792 C122.277046,56.4171081 121.404627,57.2970869 120.302444,57.93125 C119.199575,58.5626589 117.980109,58.8793962 116.651591,58.8793962 C114.696879,58.8793962 113.024742,58.1832627 111.644098,56.7827331 C110.260025,55.3870233 109.566617,53.6904131 109.566617,51.6901483 C109.566617,49.5528602 110.349187,47.7667373 111.912271,46.3427966 C113.281941,45.0978814 114.858742,44.4774894 116.641303,44.4774894" id="Fill-146" fill="#FFFFFF"></path>
                    <path d="M126.49799,58.5282309 L129.922508,58.5282309 L129.922508,44.8293432 L126.49799,44.8293432 L126.49799,58.5282309 Z M128.211963,39.0495763 C128.789461,39.0495763 129.286712,39.2588983 129.70166,39.6782309 C130.115236,40.1010064 130.324424,40.6098517 130.324424,41.2130297 C130.324424,41.8017479 130.118665,42.307839 129.707147,42.7244174 C129.296314,43.1430614 128.805921,43.3496292 128.235969,43.3496292 C127.648869,43.3496292 127.147503,43.1361758 126.733927,42.7106462 C126.319665,42.2878708 126.110476,41.768697 126.110476,41.1627648 C126.110476,40.5802436 126.316236,40.0810381 126.727068,39.6685911 C127.138586,39.2561441 127.631723,39.0495763 128.211963,39.0495763 L128.211963,39.0495763 Z" id="Fill-147" fill="#FFFFFF"></path>
                    <path d="M94.363278,55.776679 C92.3152885,55.776679 90.654812,53.9464883 90.654812,51.6887023 C90.654812,49.4309163 92.3152885,47.6007256 94.363278,47.6007256 C96.4112675,47.6007256 98.071744,49.4309163 98.071744,51.6887023 C98.071744,53.9464883 96.4112675,55.776679 94.363278,55.776679 M99.401634,46.4811282 C98.1307283,45.1088294 96.3550267,44.4774206 94.363278,44.4774206 C92.3722152,44.4774206 90.5958277,45.1088294 89.324922,46.4811282 C88.0540162,47.8534269 87.3791262,49.5569227 87.3791262,51.5985011 C87.3791262,55.7505138 87.375011,64.295535 87.375011,64.295535 L90.7720948,64.295535 L90.7720948,57.5793273 C91.1458906,57.9291155 92.4243408,58.770535 94.3721942,58.770535 C96.5237492,58.770535 98.3227702,58.0564989 99.4619901,56.7978125 C100.689686,55.4427278 101.306278,53.7116896 101.306278,51.5985011 C101.306278,49.5569227 100.67254,47.8534269 99.401634,46.4811282" id="Fill-148" fill="#FFFFFF"></path>
                    <path d="M79.040256,44.4850636 C77.2076277,44.4850636 75.8969419,45.1708686 74.9881723,46.0756356 C74.0794026,45.1708686 72.7680309,44.4850636 70.9360885,44.4850636 C67.1638372,44.4850636 65.1624864,46.753178 65.1624864,49.8248411 L65.1624864,58.5275424 L68.6041513,58.5275424 L68.6041513,50.1649894 C68.6041513,48.8222987 69.316078,47.6538136 70.9360885,47.6538136 C72.5554131,47.6538136 73.2666539,48.8222987 73.2666539,50.1649894 L73.2666539,58.5275424 L76.7083188,58.5275424 L76.7083188,50.1649894 C76.7083188,48.8222987 77.4202455,47.6538136 79.040256,47.6538136 C80.6595806,47.6538136 81.3721932,48.8222987 81.3721932,50.1649894 L81.3721932,58.5275424 L84.8138581,58.5275424 L84.8138581,49.8248411 C84.8138581,46.753178 82.8125073,44.4850636 79.040256,44.4850636" id="Fill-149" fill="#FFFFFF"></path>
                    <path d="M58.7459555,36.1233369 C58.0244267,36.896589 57.1369188,37.279428 56.0793168,37.279428 C54.9901649,37.279428 54.0882539,36.9000318 53.3708403,36.1446822 C52.6527408,35.3858898 52.2960916,34.3895445 52.2960916,33.1611547 C52.2960916,31.9596186 52.6527408,30.9846186 53.3708403,30.240286 C54.0882539,29.4911335 54.9901649,29.1186229 56.0793168,29.1186229 C57.1609241,29.1186229 58.0552906,29.4980191 58.7631021,30.2575 C59.4736571,31.0162924 59.8282487,31.9878496 59.8282487,33.1742373 C59.8282487,34.3688877 59.4674843,35.3542161 58.7459555,36.1233369 M56.8001597,25.9154449 C54.4771387,25.9154449 52.7885419,27.1789513 52.4449241,27.570053 L52.4449241,20.391822 L49.0149188,20.391822 L49.0149188,32.6770975 C49.0149188,37.3889089 52.0162592,40.4578178 56.0367932,40.4578178 C58.0991859,40.4578178 60.1533482,39.6721716 61.3220602,38.3797458 C62.5970812,36.9695763 63.2712853,35.2743432 63.2712853,33.2127966 C63.2712853,31.0789513 62.6437199,29.3279449 61.3851597,27.9625318 C60.1259136,26.5978072 58.5998665,25.9154449 56.8001597,25.9154449" id="Fill-150" fill="#FFFFFF"></path>
                    <path d="M91.2761361,36.1233369 C90.5546073,36.896589 89.6670995,37.279428 88.6094974,37.279428 C87.5203455,37.279428 86.6184346,36.9000318 85.9010209,36.1446822 C85.1829215,35.3858898 84.8262723,34.3895445 84.8262723,33.1611547 C84.8262723,31.9596186 85.1829215,30.9846186 85.9010209,30.240286 C86.6184346,29.4911335 87.5203455,29.1186229 88.6094974,29.1186229 C89.6911047,29.1186229 90.5854712,29.4980191 91.2932827,30.2575 C92.0038377,31.0162924 92.3584293,31.9878496 92.3584293,33.1742373 C92.3584293,34.3688877 91.9976649,35.3542161 91.2761361,36.1233369 M93.9153403,27.9625318 C92.6560942,26.5978072 91.130733,25.9154449 89.3303403,25.9154449 C87.0073194,25.9154449 85.3187225,27.1789513 84.9751047,27.570053 L84.9751047,20.391822 L81.5450995,20.391822 L81.5450995,32.6770975 C81.5450995,37.3889089 84.5464398,40.4578178 88.5669738,40.4578178 C90.6293665,40.4578178 92.6835288,39.6721716 93.8522408,38.3797458 C95.1272618,36.9695763 95.801466,35.2743432 95.801466,33.2127966 C95.801466,31.0789513 95.1739005,29.3279449 93.9153403,27.9625318" id="Fill-151" fill="#FFFFFF"></path>
                    <path d="M75.0212309,36.0992373 C74.2997021,36.8545869 73.4019063,37.2305403 72.3168696,37.2305403 C71.2345764,37.2305403 70.3395241,36.8580297 69.6358277,36.1095657 C68.9287021,35.3645445 68.5782257,34.3902331 68.5782257,33.188697 C68.5782257,32.0188347 68.9321314,31.0582945 69.6502309,30.3098305 C70.3642152,29.5572352 71.2551524,29.1847246 72.3305869,29.1847246 C73.4293408,29.1847246 74.3312518,29.5537924 75.0390634,30.2953708 C75.746189,31.0369492 76.0966654,32.0009322 76.0966654,33.188697 C76.0966654,34.3757733 75.7393304,35.3438877 75.0212309,36.0992373 M75.9402885,26.8938877 C74.7955817,26.2431992 73.5754298,25.9161335 72.2750319,25.9161335 C70.4753251,25.9161335 68.8841209,26.5427225 67.5000476,27.7993432 C65.9218749,29.2370551 65.1310738,31.0403919 65.1310738,33.1990254 C65.1310738,35.2185699 65.8313408,36.9310169 67.2298173,38.3411864 C68.6234927,39.7547987 70.3120895,40.4578178 72.2853199,40.4578178 C73.6268696,40.4578178 74.8586812,40.1376377 75.9718382,39.5007203 C77.0849953,38.8603602 77.9656445,37.9721186 78.6110424,36.8366843 C79.2557545,35.6984958 79.5822257,34.4804343 79.5822257,33.1749258 C79.5822257,31.8797458 79.2591838,30.6713242 78.617901,29.5510381 C77.9759325,28.4328178 77.0849953,27.5487076 75.9402885,26.8938877" id="Fill-152" fill="#FFFFFF"></path>
                </g>
                <path d="M14.8656325,70.2764883 L13.5216325,70.2764883 L10.9876325,77.9764883 L8.43963246,70.2764883 L7.09563246,70.2764883 L10.5256325,80.0764883 L11.4496325,80.0764883 L14.8656325,70.2764883 Z M18.8276325,80.2304883 C20.8716325,80.2304883 22.1876325,78.6904883 22.1876325,76.8984883 C22.1876325,75.0924883 20.8716325,73.5524883 18.8276325,73.5524883 C16.8116325,73.5524883 15.4956325,75.0924883 15.4956325,76.8984883 C15.4956325,78.6904883 16.8116325,80.2304883 18.8276325,80.2304883 Z M18.8276325,79.1384883 C17.5396325,79.1384883 16.6996325,78.1164883 16.6996325,76.8984883 C16.6996325,75.6804883 17.5396325,74.6444883 18.8276325,74.6444883 C20.1436325,74.6444883 20.9836325,75.6804883 20.9836325,76.8984883 C20.9836325,78.1164883 20.1436325,79.1384883 18.8276325,79.1384883 Z M27.3116325,78.9984883 C27.1296325,79.0264883 26.7376325,79.0544883 26.4856325,79.0544883 C25.8696325,79.0544883 25.4356325,78.9004883 25.4356325,77.6684883 L25.4356325,74.7424883 L27.0876325,74.7424883 L27.0876325,73.7204883 L25.4356325,73.7204883 L25.4356325,71.5784883 L24.2176325,71.5784883 L24.2176325,73.7204883 L23.0416325,73.7204883 L23.0416325,74.7424883 L24.2176325,74.7424883 L24.2176325,77.9344883 C24.2176325,80.0204883 25.4356325,80.1604883 26.2196325,80.1604883 C26.6256325,80.1604883 27.0736325,80.1184883 27.3116325,80.0764883 L27.3116325,78.9984883 Z M32.5476325,73.7204883 C32.3796325,73.6504883 32.1836325,73.6224883 31.9456325,73.6224883 C31.0496325,73.6224883 30.1676325,74.1684883 29.8316325,74.9664883 L29.8316325,73.7204883 L28.6136325,73.7204883 L28.6136325,80.0764883 L29.8316325,80.0764883 L29.8316325,77.2904883 C29.8316325,75.7644883 30.5316325,74.7704883 31.9456325,74.7704883 C32.1696325,74.7704883 32.2956325,74.7844883 32.5476325,74.8404883 L32.5476325,73.7204883 Z M36.3416325,74.4904883 C37.3636325,74.4904883 38.1336325,75.1904883 38.1336325,76.2964883 L34.4516325,76.2964883 C34.4796325,75.1484883 35.2496325,74.4904883 36.3416325,74.4904883 Z M39.2536325,77.2204883 C39.3096325,76.8704883 39.3096325,76.6044883 39.3096325,76.4224883 C39.3096325,74.7984883 38.0216325,73.5524883 36.3696325,73.5524883 C34.3676325,73.5524883 33.2336325,74.9804883 33.2336325,76.8984883 C33.2336325,78.7324883 34.2696325,80.2304883 36.4116325,80.2304883 C38.0076325,80.2304883 39.0436325,79.2784883 39.2536325,78.2004883 L38.0216325,78.2004883 C37.8256325,78.7464883 37.3636325,79.2084883 36.4116325,79.2084883 C35.0116325,79.2084883 34.4936325,78.2984883 34.4376325,77.2204883 L39.2536325,77.2204883 Z M49.5856325,73.7204883 L49.5856325,74.8124883 C49.1796325,74.0424883 48.2836325,73.5524883 47.3596325,73.5524883 C45.4136325,73.5524883 44.0976325,75.0924883 44.0976325,76.8984883 C44.0976325,78.6904883 45.4136325,80.2304883 47.3596325,80.2304883 C48.2836325,80.2304883 49.1796325,79.7404883 49.5856325,78.9704883 L49.5856325,80.0764883 L50.7896325,80.0764883 L50.7896325,73.7204883 L49.5856325,73.7204883 Z M47.4296325,79.1384883 C46.1416325,79.1384883 45.3016325,78.1164883 45.3016325,76.8984883 C45.3016325,75.6804883 46.1416325,74.6444883 47.4296325,74.6444883 C48.7456325,74.6444883 49.5856325,75.6804883 49.5856325,76.8984883 C49.5856325,78.1164883 48.7456325,79.1384883 47.4296325,79.1384883 Z M58.6576325,76.0304883 C58.5456325,74.7984883 57.7056325,73.5524883 55.6476325,73.5524883 C53.5896325,73.5524883 52.4836325,75.1764883 52.4836325,76.8984883 C52.4836325,78.6204883 53.5896325,80.2304883 55.6616325,80.2304883 C57.5096325,80.2304883 58.4756325,79.2084883 58.6716325,77.8924883 L57.4536325,77.8924883 C57.2576325,78.6484883 56.7956325,79.1384883 55.7456325,79.1384883 C54.3316325,79.1384883 53.7016325,78.1024883 53.7016325,76.8984883 C53.7016325,75.7084883 54.3596325,74.6444883 55.6756325,74.6444883 C56.8656325,74.6444883 57.3416325,75.2464883 57.4396325,76.0304883 L58.6576325,76.0304883 Z M66.0636325,76.0304883 C65.9516325,74.7984883 65.1116325,73.5524883 63.0536325,73.5524883 C60.9956325,73.5524883 59.8896325,75.1764883 59.8896325,76.8984883 C59.8896325,78.6204883 60.9956325,80.2304883 63.0676325,80.2304883 C64.9156325,80.2304883 65.8816325,79.2084883 66.0776325,77.8924883 L64.8596325,77.8924883 C64.6636325,78.6484883 64.2016325,79.1384883 63.1516325,79.1384883 C61.7376325,79.1384883 61.1076325,78.1024883 61.1076325,76.8984883 C61.1076325,75.7084883 61.7656325,74.6444883 63.0816325,74.6444883 C64.2716325,74.6444883 64.7476325,75.2464883 64.8456325,76.0304883 L66.0636325,76.0304883 Z M70.5996325,80.2304883 C72.6436325,80.2304883 73.9596325,78.6904883 73.9596325,76.8984883 C73.9596325,75.0924883 72.6436325,73.5524883 70.5996325,73.5524883 C68.5836325,73.5524883 67.2676325,75.0924883 67.2676325,76.8984883 C67.2676325,78.6904883 68.5836325,80.2304883 70.5996325,80.2304883 Z M70.5996325,79.1384883 C69.3116325,79.1384883 68.4716325,78.1164883 68.4716325,76.8984883 C68.4716325,75.6804883 69.3116325,74.6444883 70.5996325,74.6444883 C71.9156325,74.6444883 72.7556325,75.6804883 72.7556325,76.8984883 C72.7556325,78.1164883 71.9156325,79.1384883 70.5996325,79.1384883 Z M85.0756325,80.0764883 L85.0756325,76.0584883 C85.0756325,74.6584883 84.5016325,73.5524883 82.8076325,73.5524883 C81.8136325,73.5524883 81.0296325,74.1824883 80.7636325,74.9104883 C80.5256325,74.0984883 79.8956325,73.5524883 78.7196325,73.5524883 C77.7816325,73.5524883 77.0816325,74.1544883 76.8436325,74.8544883 L76.8436325,73.7204883 L75.6256325,73.7204883 L75.6256325,80.0764883 L76.8436325,80.0764883 L76.8436325,76.8424883 C76.8436325,75.3584883 77.4876325,74.6304883 78.4116325,74.6304883 C79.2656325,74.6304883 79.7416325,75.2044883 79.7416325,76.4924883 L79.7416325,80.0764883 L80.9596325,80.0764883 L80.9596325,76.8424883 C80.9596325,75.3584883 81.5756325,74.6304883 82.5136325,74.6304883 C83.3816325,74.6304883 83.8576325,75.2464883 83.8576325,76.4224883 L83.8576325,80.0764883 L85.0756325,80.0764883 Z M88.3796325,73.7204883 L87.1616325,73.7204883 L87.1616325,83.5204883 L88.3796325,83.5204883 L88.3796325,78.9704883 C88.7856325,79.7404883 89.6676325,80.2304883 90.5916325,80.2304883 C92.5516325,80.2304883 93.8676325,78.6904883 93.8676325,76.8984883 C93.8676325,75.0924883 92.5516325,73.5524883 90.5916325,73.5524883 C89.6676325,73.5524883 88.7856325,74.0424883 88.3796325,74.8124883 L88.3796325,73.7204883 Z M90.5356325,74.6444883 C91.8096325,74.6444883 92.6496325,75.6804883 92.6496325,76.8984883 C92.6496325,78.1164883 91.8096325,79.1384883 90.5356325,79.1384883 C89.2196325,79.1384883 88.3796325,78.1164883 88.3796325,76.8984883 C88.3796325,75.6804883 89.2196325,74.6444883 90.5356325,74.6444883 Z M100.517632,73.7204883 L100.517632,74.8124883 C100.111632,74.0424883 99.2156325,73.5524883 98.2916325,73.5524883 C96.3456325,73.5524883 95.0296325,75.0924883 95.0296325,76.8984883 C95.0296325,78.6904883 96.3456325,80.2304883 98.2916325,80.2304883 C99.2156325,80.2304883 100.111632,79.7404883 100.517632,78.9704883 L100.517632,80.0764883 L101.721632,80.0764883 L101.721632,73.7204883 L100.517632,73.7204883 Z M98.3616325,79.1384883 C97.0736325,79.1384883 96.2336325,78.1164883 96.2336325,76.8984883 C96.2336325,75.6804883 97.0736325,74.6444883 98.3616325,74.6444883 C99.6776325,74.6444883 100.517632,75.6804883 100.517632,76.8984883 C100.517632,78.1164883 99.6776325,79.1384883 98.3616325,79.1384883 Z M106.719632,74.6444883 C108.035632,74.6444883 108.875632,75.6804883 108.875632,76.8984883 C108.875632,78.1164883 108.035632,79.1384883 106.719632,79.1384883 C105.431632,79.1384883 104.591632,78.1164883 104.591632,76.8984883 C104.591632,75.6804883 105.431632,74.6444883 106.719632,74.6444883 Z M110.079632,73.7204883 L108.875632,73.7204883 L108.875632,74.8124883 C108.469632,74.0424883 107.573632,73.5524883 106.649632,73.5524883 C104.703632,73.5524883 103.387632,75.0924883 103.387632,76.8984883 C103.387632,78.6904883 104.703632,80.2304883 106.649632,80.2304883 C107.573632,80.2304883 108.469632,79.7404883 108.875632,78.9704883 L108.875632,80.4824883 C108.875632,81.9804883 108.049632,82.5824883 106.691632,82.5824883 C105.361632,82.5824883 104.773632,81.7844883 104.703632,80.8884883 L103.471632,80.8884883 C103.555632,82.3164883 104.521632,83.6604883 106.691632,83.6604883 C108.805632,83.6604883 110.079632,82.7504883 110.079632,80.4824883 L110.079632,73.7204883 Z M112.235632,80.0764883 L113.453632,80.0764883 L113.453632,76.8004883 C113.453632,75.6664883 114.041632,74.6304883 115.259632,74.6304883 C116.449632,74.6304883 116.869632,75.5264883 116.869632,76.7024883 L116.869632,80.0764883 L118.087632,80.0764883 L118.087632,76.3244883 C118.087632,75.4284883 117.947632,74.8684883 117.597632,74.3924883 C117.219632,73.8604883 116.575632,73.5524883 115.693632,73.5524883 C114.615632,73.5524883 113.831632,74.0704883 113.453632,74.8404883 L113.453632,73.7204883 L112.235632,73.7204883 L112.235632,80.0764883 Z M122.763632,74.4904883 C123.785632,74.4904883 124.555632,75.1904883 124.555632,76.2964883 L120.873632,76.2964883 C120.901632,75.1484883 121.671632,74.4904883 122.763632,74.4904883 Z M125.675632,77.2204883 C125.731632,76.8704883 125.731632,76.6044883 125.731632,76.4224883 C125.731632,74.7984883 124.443632,73.5524883 122.791632,73.5524883 C120.789632,73.5524883 119.655632,74.9804883 119.655632,76.8984883 C119.655632,78.7324883 120.691632,80.2304883 122.833632,80.2304883 C124.429632,80.2304883 125.465632,79.2784883 125.675632,78.2004883 L124.443632,78.2004883 C124.247632,78.7464883 123.785632,79.2084883 122.833632,79.2084883 C121.433632,79.2084883 120.915632,78.2984883 120.859632,77.2204883 L125.675632,77.2204883 Z M136.945632,80.0764883 L136.945632,76.0584883 C136.945632,74.6584883 136.371632,73.5524883 134.677632,73.5524883 C133.683632,73.5524883 132.899632,74.1824883 132.633632,74.9104883 C132.395632,74.0984883 131.765632,73.5524883 130.589632,73.5524883 C129.651632,73.5524883 128.951632,74.1544883 128.713632,74.8544883 L128.713632,73.7204883 L127.495632,73.7204883 L127.495632,80.0764883 L128.713632,80.0764883 L128.713632,76.8424883 C128.713632,75.3584883 129.357632,74.6304883 130.281632,74.6304883 C131.135632,74.6304883 131.611632,75.2044883 131.611632,76.4924883 L131.611632,80.0764883 L132.829632,80.0764883 L132.829632,76.8424883 C132.829632,75.3584883 133.445632,74.6304883 134.383632,74.6304883 C135.251632,74.6304883 135.727632,75.2464883 135.727632,76.4224883 L135.727632,80.0764883 L136.945632,80.0764883 Z M141.649632,74.4904883 C142.671632,74.4904883 143.441632,75.1904883 143.441632,76.2964883 L139.759632,76.2964883 C139.787632,75.1484883 140.557632,74.4904883 141.649632,74.4904883 Z M144.561632,77.2204883 C144.617632,76.8704883 144.617632,76.6044883 144.617632,76.4224883 C144.617632,74.7984883 143.329632,73.5524883 141.677632,73.5524883 C139.675632,73.5524883 138.541632,74.9804883 138.541632,76.8984883 C138.541632,78.7324883 139.577632,80.2304883 141.719632,80.2304883 C143.315632,80.2304883 144.351632,79.2784883 144.561632,78.2004883 L143.329632,78.2004883 C143.133632,78.7464883 142.671632,79.2084883 141.719632,79.2084883 C140.319632,79.2084883 139.801632,78.2984883 139.745632,77.2204883 L144.561632,77.2204883 Z M146.381632,80.0764883 L147.599632,80.0764883 L147.599632,76.8004883 C147.599632,75.6664883 148.187632,74.6304883 149.405632,74.6304883 C150.595632,74.6304883 151.015632,75.5264883 151.015632,76.7024883 L151.015632,80.0764883 L152.233632,80.0764883 L152.233632,76.3244883 C152.233632,75.4284883 152.093632,74.8684883 151.743632,74.3924883 C151.365632,73.8604883 150.721632,73.5524883 149.839632,73.5524883 C148.761632,73.5524883 147.977632,74.0704883 147.599632,74.8404883 L147.599632,73.7204883 L146.381632,73.7204883 L146.381632,80.0764883 Z M157.749632,78.9984883 C157.567632,79.0264883 157.175632,79.0544883 156.923632,79.0544883 C156.307632,79.0544883 155.873632,78.9004883 155.873632,77.6684883 L155.873632,74.7424883 L157.525632,74.7424883 L157.525632,73.7204883 L155.873632,73.7204883 L155.873632,71.5784883 L154.655632,71.5784883 L154.655632,73.7204883 L153.479632,73.7204883 L153.479632,74.7424883 L154.655632,74.7424883 L154.655632,77.9344883 C154.655632,80.0204883 155.873632,80.1604883 156.657632,80.1604883 C157.063632,80.1604883 157.511632,80.1184883 157.749632,80.0764883 L157.749632,78.9984883 Z M167.563632,73.7204883 L167.563632,74.8124883 C167.157632,74.0424883 166.261632,73.5524883 165.337632,73.5524883 C163.391632,73.5524883 162.075632,75.0924883 162.075632,76.8984883 C162.075632,78.6904883 163.391632,80.2304883 165.337632,80.2304883 C166.261632,80.2304883 167.157632,79.7404883 167.563632,78.9704883 L167.563632,80.0764883 L168.767632,80.0764883 L168.767632,73.7204883 L167.563632,73.7204883 Z M165.407632,79.1384883 C164.119632,79.1384883 163.279632,78.1164883 163.279632,76.8984883 C163.279632,75.6804883 164.119632,74.6444883 165.407632,74.6444883 C166.723632,74.6444883 167.563632,75.6804883 167.563632,76.8984883 C167.563632,78.1164883 166.723632,79.1384883 165.407632,79.1384883 Z M175.459632,73.7204883 L175.459632,76.9824883 C175.459632,78.1304883 174.871632,79.1524883 173.639632,79.1524883 C172.463632,79.1524883 172.043632,78.2564883 172.043632,77.0804883 L172.043632,73.7204883 L170.825632,73.7204883 L170.825632,77.4724883 C170.825632,78.3544883 170.951632,78.9284883 171.301632,79.4044883 C171.679632,79.9224883 172.337632,80.2304883 173.219632,80.2304883 C174.283632,80.2304883 175.081632,79.7124883 175.459632,78.9424883 L175.459632,80.0764883 L176.677632,80.0764883 L176.677632,73.7204883 L175.459632,73.7204883 Z M187.387632,74.8124883 C186.981632,74.0424883 186.099632,73.5524883 185.175632,73.5524883 C183.215632,73.5524883 181.899632,75.0924883 181.899632,76.8984883 C181.899632,78.6904883 183.215632,80.2304883 185.175632,80.2304883 C186.099632,80.2304883 186.981632,79.7404883 187.387632,78.9704883 L187.387632,83.5204883 L188.605632,83.5204883 L188.605632,73.7204883 L187.387632,73.7204883 L187.387632,74.8124883 Z M185.231632,74.6444883 C186.547632,74.6444883 187.387632,75.6804883 187.387632,76.8984883 C187.387632,78.1164883 186.547632,79.1384883 185.231632,79.1384883 C183.957632,79.1384883 183.117632,78.1164883 183.117632,76.8984883 C183.117632,75.6804883 183.957632,74.6444883 185.231632,74.6444883 Z M195.297632,73.7204883 L195.297632,76.9824883 C195.297632,78.1304883 194.709632,79.1524883 193.477632,79.1524883 C192.301632,79.1524883 191.881632,78.2564883 191.881632,77.0804883 L191.881632,73.7204883 L190.663632,73.7204883 L190.663632,77.4724883 C190.663632,78.3544883 190.789632,78.9284883 191.139632,79.4044883 C191.517632,79.9224883 192.175632,80.2304883 193.057632,80.2304883 C194.121632,80.2304883 194.919632,79.7124883 195.297632,78.9424883 L195.297632,80.0764883 L196.515632,80.0764883 L196.515632,73.7204883 L195.297632,73.7204883 Z M201.513632,80.2304883 C203.557632,80.2304883 204.873632,78.6904883 204.873632,76.8984883 C204.873632,75.0924883 203.557632,73.5524883 201.513632,73.5524883 C199.497632,73.5524883 198.181632,75.0924883 198.181632,76.8984883 C198.181632,78.6904883 199.497632,80.2304883 201.513632,80.2304883 Z M201.513632,79.1384883 C200.225632,79.1384883 199.385632,78.1164883 199.385632,76.8984883 C199.385632,75.6804883 200.225632,74.6444883 201.513632,74.6444883 C202.829632,74.6444883 203.669632,75.6804883 203.669632,76.8984883 C203.669632,78.1164883 202.829632,79.1384883 201.513632,79.1384883 Z M209.997632,78.9984883 C209.815632,79.0264883 209.423632,79.0544883 209.171632,79.0544883 C208.555632,79.0544883 208.121632,78.9004883 208.121632,77.6684883 L208.121632,74.7424883 L209.773632,74.7424883 L209.773632,73.7204883 L208.121632,73.7204883 L208.121632,71.5784883 L206.903632,71.5784883 L206.903632,73.7204883 L205.727632,73.7204883 L205.727632,74.7424883 L206.903632,74.7424883 L206.903632,77.9344883 C206.903632,80.0204883 208.121632,80.1604883 208.905632,80.1604883 C209.311632,80.1604883 209.759632,80.1184883 209.997632,80.0764883 L209.997632,78.9984883 Z M211.299632,80.0764883 L212.517632,80.0764883 L212.517632,73.7204883 L211.299632,73.7204883 L211.299632,80.0764883 Z M210.935632,71.3124883 C210.935632,71.8444883 211.369632,72.2784883 211.901632,72.2784883 C212.447632,72.2784883 212.895632,71.8444883 212.895632,71.3124883 C212.895632,70.7664883 212.447632,70.3184883 211.901632,70.3184883 C211.369632,70.3184883 210.935632,70.7664883 210.935632,71.3124883 Z M219.671632,80.0764883 L220.875632,80.0764883 L220.875632,70.2764883 L219.671632,70.2764883 L219.671632,74.8124883 C219.265632,74.0424883 218.369632,73.5524883 217.445632,73.5524883 C215.499632,73.5524883 214.183632,75.0924883 214.183632,76.8984883 C214.183632,78.6904883 215.499632,80.2304883 217.445632,80.2304883 C218.369632,80.2304883 219.265632,79.7404883 219.671632,78.9704883 L219.671632,80.0764883 Z M217.515632,79.1384883 C216.227632,79.1384883 215.387632,78.1164883 215.387632,76.8984883 C215.387632,75.6804883 216.227632,74.6444883 217.515632,74.6444883 C218.831632,74.6444883 219.671632,75.6804883 219.671632,76.8984883 C219.671632,78.1164883 218.831632,79.1384883 217.515632,79.1384883 Z M223.059632,80.0764883 L224.277632,80.0764883 L224.277632,73.7204883 L223.059632,73.7204883 L223.059632,80.0764883 Z M222.695632,71.3124883 C222.695632,71.8444883 223.129632,72.2784883 223.661632,72.2784883 C224.207632,72.2784883 224.655632,71.8444883 224.655632,71.3124883 C224.655632,70.7664883 224.207632,70.3184883 223.661632,70.3184883 C223.129632,70.3184883 222.695632,70.7664883 222.695632,71.3124883 Z M229.079632,74.4904883 C230.101632,74.4904883 230.871632,75.1904883 230.871632,76.2964883 L227.189632,76.2964883 C227.217632,75.1484883 227.987632,74.4904883 229.079632,74.4904883 Z M231.991632,77.2204883 C232.047632,76.8704883 232.047632,76.6044883 232.047632,76.4224883 C232.047632,74.7984883 230.759632,73.5524883 229.107632,73.5524883 C227.105632,73.5524883 225.971632,74.9804883 225.971632,76.8984883 C225.971632,78.7324883 227.007632,80.2304883 229.149632,80.2304883 C230.745632,80.2304883 231.781632,79.2784883 231.991632,78.2004883 L230.759632,78.2004883 C230.563632,78.7464883 230.101632,79.2084883 229.149632,79.2084883 C227.749632,79.2084883 227.231632,78.2984883 227.175632,77.2204883 L231.991632,77.2204883 Z M233.811632,80.0764883 L235.029632,80.0764883 L235.029632,76.8004883 C235.029632,75.6664883 235.617632,74.6304883 236.835632,74.6304883 C238.025632,74.6304883 238.445632,75.5264883 238.445632,76.7024883 L238.445632,80.0764883 L239.663632,80.0764883 L239.663632,76.3244883 C239.663632,75.4284883 239.523632,74.8684883 239.173632,74.3924883 C238.795632,73.8604883 238.151632,73.5524883 237.269632,73.5524883 C236.191632,73.5524883 235.407632,74.0704883 235.029632,74.8404883 L235.029632,73.7204883 L233.811632,73.7204883 L233.811632,80.0764883 Z" id="Votre-accompagnement" fill="#EE4266"></path>
            </g>
        </g>
    </g>
</svg>