<?xml version="1.0" encoding="UTF-8"?>
<svg width="101px" height="68px" viewBox="0 0 101 68" version="1.1" xmlns="http://www.w3.org/2000/svg" xmlns:xlink="http://www.w3.org/1999/xlink">
    <!-- Generator: Sketch 41 (35326) - http://www.bohemiancoding.com/sketch -->
    <title>bob-emploi-logo-mobile</title>
    <desc>Created with Sketch.</desc>
    <defs></defs>
    <g id="Mobile" stroke="none" stroke-width="1" fill="none" fill-rule="evenodd">
        <g id="Home-Mobile" transform="translate(-110.000000, -3444.000000)">
            <g id="bob-emploi-logo-mobile" transform="translate(110.000000, 3444.000000)">
                <path d="M34.2717995,8.5607049 C32.8899359,9.38616643 32.188547,11.0702713 32.6751833,12.6813762 L36.8865773,26.879621 L36.8865773,26.2808168 L34.2717995,8.5607049 Z" id="Fill-101" fill="#F37791"></path>
                <path d="M36.8865263,4.16881049 C35.1164758,4.61446783 33.9401828,6.34043287 34.2161475,8.18432098 L36.8865263,26.2806636 L36.8865263,4.16881049 Z" id="Fill-103" fill="#EE4266"></path>
                <path d="M50.5728424,43.1768965 C58.1192768,43.1768965 64.2593626,36.8657147 64.2593626,29.1078056 C64.2593626,27.1235329 62.6520343,25.5149804 60.6692717,25.5149804 C58.6865091,25.5149804 57.0791808,27.1235329 57.0791808,29.1078056 C57.0791808,32.9032951 54.1603828,35.9912462 50.5728424,35.9912462 C46.985302,35.9912462 44.066504,32.9032951 44.066504,29.1078056 C44.066504,25.3123161 46.985302,22.2238545 50.5728424,22.2238545 C51.8200394,22.2238545 53.0305091,22.5980434 54.0741758,23.3050713 C55.7161909,24.418449 57.9483929,23.9886168 59.059903,22.345351 C60.1719232,20.7025958 59.7424182,18.4686937 58.1009131,17.3558266 C55.8641202,15.8396727 53.2610747,15.0382042 50.5728424,15.0382042 C48.2192364,15.0382042 46.0028475,15.6523231 44.066504,16.7325189 L44.066504,3.85337902 C44.066504,1.86910629 42.4591758,0.260553846 40.4764131,0.260553846 C38.4936505,0.260553846 36.8863222,1.86910629 36.8863222,3.85337902 L36.8863222,29.1078056 C36.8863222,36.8657147 43.0264081,43.1768965 50.5728424,43.1768965" id="Fill-105" fill="#FFFFFF"></path>
                <g id="Group-128" transform="translate(0.000000, 48.639441)" fill="#FFFFFF">
                    <path d="M5.24098182,6.73606224 C4.43910303,6.73606224 3.77495152,7.00968462 3.24597677,7.55948182 C2.71751212,8.10621608 2.4543,8.82192238 2.4543,9.70404825 C2.4543,10.6060832 2.71751212,11.3376147 3.24597677,11.8945587 C3.77495152,12.4494608 4.43910303,12.7281881 5.24098182,12.7281881 C6.01990606,12.7281881 6.67436566,12.4469084 7.20538081,11.8792441 C7.73639596,11.3141322 8.00215859,10.5907685 8.00215859,9.71374755 C8.00215859,8.84234196 7.74149697,8.12918811 7.21762323,7.57173357 C6.6968101,7.01478951 6.0382697,6.73606224 5.24098182,6.73606224 Z M2.56448182,0.328397902 L2.56448182,5.5992021 C2.81698182,5.3117965 4.06111818,4.38423706 5.77199697,4.38423706 C7.09774949,4.38423706 8.22150202,4.88502727 9.14886566,5.88711818 C10.0762293,6.88971958 10.5383808,8.17513217 10.5383808,9.74182448 C10.5383808,11.2554259 10.0420525,12.5005098 9.10295657,13.5357825 C8.24241616,14.4847825 6.72894646,15.0616357 5.20986566,15.0616357 C2.24821919,15.0616357 0.0374414141,12.808335 0.0374414141,9.34874755 L0.0374414141,0.328397902 L2.56448182,0.328397902 Z" id="Fill-114"></path>
                    <path d="M29.2015995,6.73606224 C28.3997207,6.73606224 27.7355692,7.00968462 27.2065944,7.55948182 C26.6781298,8.10621608 26.4149177,8.82192238 26.4149177,9.70404825 C26.4149177,10.6060832 26.6781298,11.3376147 27.2065944,11.8945587 C27.7355692,12.4494608 28.3997207,12.7281881 29.2015995,12.7281881 C29.9805237,12.7281881 30.6349833,12.4469084 31.1659985,11.8792441 C31.6970136,11.3141322 31.9632864,10.5907685 31.9632864,9.71374755 C31.9632864,8.84234196 31.7021146,8.12918811 31.178751,7.57173357 C30.6574278,7.01478951 29.9988874,6.73606224 29.2015995,6.73606224 L29.2015995,6.73606224 Z M26.5250995,0.328397902 L26.5250995,5.5992021 C26.7775995,5.3117965 28.0217359,4.38423706 29.7326146,4.38423706 C31.0588773,4.38423706 32.1821197,4.88502727 33.1094833,5.88711818 C34.036847,6.88971958 34.4989985,8.17513217 34.4989985,9.74182448 C34.4989985,11.2554259 34.0026702,12.5005098 33.0635742,13.5357825 C32.2030338,14.4847825 30.6895641,15.0616357 29.1704833,15.0616357 C26.2088369,15.0616357 23.9980591,12.808335 23.9980591,9.34874755 L23.9980591,0.328397902 L26.5250995,0.328397902 Z" id="Fill-116"></path>
                    <path d="M17.2112162,6.78460979 C16.4190293,6.78460979 15.7630394,7.05823217 15.2366152,7.61058182 C14.7081505,8.15986853 14.4474889,8.86536503 14.4474889,9.72451888 C14.4474889,10.6061343 14.7056,11.3218406 15.2264131,11.8690853 C15.7451859,12.418372 16.4042364,12.6919944 17.2010141,12.6919944 C18.0003424,12.6919944 18.6619434,12.4163301 19.1929586,11.861428 C19.7219333,11.3065259 19.9851455,10.5959245 19.9851455,9.72451888 C19.9851455,8.8526028 19.7275444,8.14455385 19.2062212,7.59986154 C18.684898,7.05567972 18.0207465,6.78460979 17.2112162,6.78460979 M17.1704081,4.38428811 C18.1283778,4.38428811 19.0271758,4.62472867 19.8703727,5.10254685 C20.7130596,5.58342797 21.3695596,6.23226014 21.8424232,7.05312727 C22.3147768,7.87603636 22.5524838,8.76326713 22.5524838,9.71430909 C22.5524838,10.6724979 22.3122263,11.567386 21.8373222,12.4030573 C21.3619081,13.2361762 20.7130596,13.8885818 19.8933273,14.3587427 C19.0730848,14.8268615 18.1661253,15.0616867 17.1780596,15.0616867 C15.7242717,15.0616867 14.4806455,14.5455818 13.4543222,13.5072462 C12.4244283,12.4724839 11.9087162,11.2146378 11.9087162,9.73166573 C11.9087162,8.14710629 12.4907414,6.8228965 13.6532616,5.7672042 C14.6724434,4.84423916 15.8446556,4.38428811 17.1704081,4.38428811" id="Fill-118"></path>
                    <path d="M47.5375374,8.53436364 C47.369204,7.96976224 47.0371283,7.50674825 46.5413101,7.154 C46.0480424,6.79818881 45.4736687,6.62206993 44.8197192,6.62206993 C44.1096586,6.62206993 43.4863152,6.82167133 42.950199,7.21832168 C42.6155727,7.46846154 42.3033909,7.90544056 42.0151838,8.53436364 L47.5375374,8.53436364 Z M50.0844717,10.5410979 L41.9055121,10.5410979 C42.0228354,11.2644615 42.3370576,11.8372308 42.8502192,12.264 C43.3638909,12.6907692 44.0178404,12.9026224 44.8146182,12.9026224 C45.7649364,12.9026224 46.5826283,12.5702937 47.2666737,11.9030839 L49.4126687,12.9133427 C48.8785929,13.6724406 48.237396,14.2319371 47.4916283,14.5974476 C46.7453505,14.9604056 45.8598152,15.1421399 44.8324717,15.1421399 C43.2409566,15.1421399 41.9432596,14.6413497 40.9449919,13.6367063 C39.9436636,12.629 39.4427444,11.3716643 39.4427444,9.86112587 C39.4427444,8.30923776 39.9411131,7.02382517 40.9398909,6.00131469 C41.9361182,4.97625175 43.187396,4.46474126 44.6916838,4.46474126 C46.2908505,4.46474126 47.591098,4.97625175 48.5924263,6.00131469 C49.591204,7.02382517 50.0916131,8.3756014 50.0916131,10.0556224 L50.0844717,10.5410979 Z" id="Fill-120"></path>
                    <polygon id="Fill-122" points="80.9856768 14.8817902 83.5326111 14.8817902 83.5326111 0.807083916 80.9856768 0.807083916"></polygon>
                    <path d="M90.6945313,6.86516503 C89.9023444,6.86516503 89.2463545,7.13878741 88.7199303,7.69113706 C88.1914657,8.24042378 87.930804,8.94592028 87.930804,9.80507413 C87.930804,10.6866895 88.1889152,11.4023958 88.7097283,11.9496406 C89.228501,12.4989273 89.8875515,12.7725497 90.6843293,12.7725497 C91.4836576,12.7725497 92.1452586,12.4968853 92.6762737,11.9419832 C93.2052485,11.3870811 93.4684606,10.6764797 93.4684606,9.80507413 C93.4684606,8.93315804 93.2108596,8.22510909 92.6895364,7.68041678 C92.1682131,7.13623497 91.5040616,6.86516503 90.6945313,6.86516503 M90.6537232,4.46484336 C91.6116929,4.46484336 92.5104909,4.70528392 93.3536879,5.1831021 C94.1963747,5.66398322 94.8528747,6.31281538 95.3257384,7.13368252 C95.7980919,7.95659161 96.0352889,8.84331189 96.0352889,9.79486434 C96.0352889,10.7530531 95.7955414,11.6479413 95.3206374,12.4836126 C94.8452232,13.3167315 94.1963747,13.9691371 93.3766424,14.4392979 C92.5564,14.9074168 91.6494404,15.142242 90.6613747,15.142242 C89.2075869,15.142242 87.9639606,14.6261371 86.9376374,13.5878014 C85.9077434,12.5530392 85.3920313,11.295193 85.3920313,9.81222098 C85.3920313,8.22766154 85.9740566,6.90345175 87.1365768,5.84775944 C88.1552485,4.92479441 89.3279707,4.46484336 90.6537232,4.46484336" id="Fill-124"></path>
                    <path d="M97.8817525,14.8817902 L100.428687,14.8817902 L100.428687,4.7256014 L97.8817525,4.7256014 L97.8817525,14.8817902 Z M99.1564949,0.440552448 C99.586,0.440552448 99.9553131,0.595741259 100.263924,0.906629371 C100.572025,1.22006993 100.727606,1.59783217 100.727606,2.04451049 C100.727606,2.48097902 100.574576,2.85618881 100.268515,3.16503497 C99.9629646,3.47541259 99.5977323,3.62855944 99.1738384,3.62855944 C98.737702,3.62855944 98.3648182,3.47081818 98.0567172,3.15482517 C97.7491263,2.84138462 97.5935455,2.45647552 97.5935455,2.00724476 C97.5935455,1.57537063 97.7465758,1.20577622 98.0521263,0.899482517 C98.3576768,0.593699301 98.7249495,0.440552448 99.1564949,0.440552448 L99.1564949,0.440552448 Z" id="Fill-125"></path>
                    <path d="M74.007597,12.8419252 C72.4844354,12.8419252 71.2494808,11.4850441 71.2494808,9.81114895 C71.2494808,8.13725385 72.4844354,6.78037273 74.007597,6.78037273 C75.5307586,6.78037273 76.7657131,8.13725385 76.7657131,9.81114895 C76.7657131,11.4850441 75.5307586,12.8419252 74.007597,12.8419252 M77.754799,5.95031678 C76.8095818,4.93291119 75.4889303,4.46479231 74.007597,4.46479231 C72.5267737,4.46479231 71.2056121,4.93291119 70.2603949,5.95031678 C69.3156879,6.96823287 68.8132384,8.23067343 68.8132384,9.74427483 C68.8132384,12.8225266 68.8101778,19.1577014 68.8101778,19.1577014 L71.3367081,19.1577014 L71.3367081,14.1783867 C71.6152232,14.4377154 72.5655414,15.0620441 74.0142283,15.0620441 C75.6144152,15.0620441 76.9524101,14.5321559 77.7996879,13.5989811 C78.7127687,12.5943378 79.1713495,11.3109671 79.1713495,9.74427483 C79.1713495,8.23067343 78.7000162,6.96823287 77.754799,5.95031678" id="Fill-126"></path>
                    <path d="M62.2769571,4.47045874 C60.9139672,4.47045874 59.9391641,4.97890629 59.2632803,5.64968951 C58.5873965,4.97890629 57.6120833,4.47045874 56.2496035,4.47045874 C53.444048,4.47045874 51.9555732,6.15201119 51.9555732,8.4293049 L51.9555732,14.8813818 L54.5152601,14.8813818 L54.5152601,8.68148671 C54.5152601,7.68603217 55.0447449,6.81973147 56.2496035,6.81973147 C57.453952,6.81973147 57.9829268,7.68603217 57.9829268,8.68148671 L57.9829268,14.8813818 L60.5426136,14.8813818 L60.5426136,8.68148671 C60.5426136,7.68603217 61.0720985,6.81973147 62.2769571,6.81973147 C63.4813056,6.81973147 64.0113005,7.68603217 64.0113005,8.68148671 L64.0113005,14.8813818 L66.5709874,14.8813818 L66.5709874,8.4293049 C66.5709874,6.15201119 65.0825126,4.47045874 62.2769571,4.47045874" id="Fill-127"></path>
                </g>
            </g>
        </g>
    </g>
</svg>