<svg id="19d6bd60-8c67-4652-877e-8d9ee1525d73" data-name="Calque 1" xmlns="http://www.w3.org/2000/svg" viewBox="0 0 397.15 131.61"><title>logo_LaFranceSengage</title><path d="M153.87,46.71V53.5c0,1.49-.5,2.4-2.4,2.4h-25V65.6H148c1.91,0,2.4.91,2.4,2.4v6.55c0,1.49-.5,2.4-2.4,2.4H126.44V96.34c0,2.15-.5,2.49-2.4,2.49h-8.2c-1.91,0-2.4-.91-2.4-2.4V46.71c0-1.49.5-2.4,2.4-2.4h35.63c1.91,0,2.4.91,2.4,2.4" transform="translate(-26.42 -34.19)" fill="#024379"/><path d="M206.73,98.83H197c-2,0-3-.75-4.14-2.49L183.86,83c-0.74-1-.91-1.9-0.91-4.23V72.15c0-1.49.5-2.4,2.4-2.4H187c4.06,0,7.87-2.82,7.87-6.71,0-4.31-3.31-7-7.62-7h-11V96.42c0,1.91-.91,2.4-2.4,2.4h-8.2c-1.49,0-2.32-.5-2.32-2.4V46.79c0-1.49.41-2.4,2.32-2.4h20.88c9,0,13,1.82,16.49,5.3,3.07,3,4.81,7.7,4.81,13a17.84,17.84,0,0,1-11.52,16.49l11.68,17c0.75,1.16.33,2.65-1.24,2.65" transform="translate(-26.42 -34.19)" fill="#024379"/><path d="M264,98.83h-8.7c-1.82,0-2.48-.5-3.15-2.49l-2.32-6.55h-20.3l-2.32,6.55c-0.66,2-1.33,2.49-3.15,2.49h-8.7c-1.82,0-1.82-1.33-1.41-2.32l18.39-49.63c0.66-1.74,1.57-2.57,3.4-2.57h8c1.82,0,2.65.83,3.4,2.57L265.4,96.51c0.41,1,.41,2.32-1.41,2.32M245.92,78.19l-6.21-18.31L233.5,78.19h12.43Z" transform="translate(-26.42 -34.19)" fill="#024379"/><path d="M317,46.71V96.42c0,1.49-.5,2.4-2.41,2.4h-7.54c-2.07,0-2.65-1.16-3.73-2.82L285.78,67.59V96.42c0,1.91-.91,2.4-2.4,2.4h-8.2c-1.49,0-2.4-.5-2.4-2.4V46.71c0-1.49.5-2.4,2.4-2.4H283c2.07,0,2.65,1.16,3.73,2.82l17.57,28.34V46.71c0-1.91.91-2.4,2.4-2.4h8c1.49,0,2.41.5,2.41,2.4" transform="translate(-26.42 -34.19)" fill="#024379"/><path d="M349.75,100.07c-9.86,0-22.21-5.72-22.21-18.73V61.79c0-13,12.34-18.73,22.21-18.73,10.27,0,20.46,5.22,21.54,15.74,0,2-.66,2.4-2.57,2.4h-8c-1.74,0-1.82-1.57-2.48-2.57-1.74-2.73-4.06-4-8.53-4-5.47,0-9.2,3.07-9.2,8.29V80.18c0,5.3,3.73,8.29,9.2,8.29,4.47,0,8-1.66,8.7-5.64,0.25-1.66.42-3,2.24-3h8.12c1.82,0,2.48.83,2.48,2.82,0,10.69-11.27,17.4-21.54,17.4" transform="translate(-26.42 -34.19)" fill="#024379"/><path d="M423.57,89.63v6.79c0,1.49-.5,2.4-2.4,2.4H384.05c-1.91,0-2.4-.91-2.4-2.4V46.71c0-1.49.5-2.4,2.4-2.4h35.71c1.91,0,2.41.91,2.41,2.4v6.88c0,1.49-.5,2.4-2.41,2.4h-25v9h22.21c1.91,0,2.4.91,2.4,2.4v6.46c0,1.49-.5,2.4-2.4,2.4H394.74V87.23h26.43c1.9,0,2.4.91,2.4,2.4" transform="translate(-26.42 -34.19)" fill="#024379"/><path d="M82.19,148.41c0,11.77-9.28,17.4-22,17.4-10.36,0-22.29-6-22.29-17.57,0-1.9.5-2.32,2.4-2.32h8c1.91,0,2.82.25,3,2.32a5.7,5.7,0,0,0,1.57,3.4c1.66,2,5.05,2.73,8.12,2.73,4.47,0,8.12-1,8.12-5.63s-7.37-4.72-14.42-7c-8.37-2.65-16.07-6-16.07-16.49,0-10.77,9.78-16.08,20.13-16.49,10.52,0,22,4.81,22,15.74,0,2-.5,2.32-2.4,2.32H70.26c-1.58,0-1.82-1.16-2.24-2.24a6.81,6.81,0,0,0-1.74-2.49c-1.57-1.49-4.56-2.24-7-2.24-2.74,0-7.29,1.08-7.29,4.81,0,5.05,12.18,6.88,15.49,8.2,6,1.82,14.75,4.23,14.75,15.49" transform="translate(-26.42 -34.19)" fill="#024379"/><path d="M100.92,112.45v18.73c0,1.49-.5,2.4-2.32,2.4H92.8c-1.82,0-2.32-.91-2.32-2.4V112.45c0-1.49.5-2.4,2.32-2.4h5.8c1.82,0,2.32.91,2.32,2.4" transform="translate(-26.42 -34.19)" fill="#024379"/><path d="M153.78,155.37v6.79c0,1.49-.5,2.4-2.4,2.4H114.26c-1.91,0-2.4-.91-2.4-2.4V112.45c0-1.49.5-2.4,2.4-2.4H150c1.9,0,2.4.91,2.4,2.4v6.88c0,1.49-.5,2.4-2.4,2.4h-25v9h22.2c1.91,0,2.4.91,2.4,2.4v6.46c0,1.49-.5,2.4-2.4,2.4h-22.2V153h26.43c1.91,0,2.4.91,2.4,2.4" transform="translate(-26.42 -34.19)" fill="#024379"/><path d="M208.06,112.45v49.71c0,1.49-.5,2.4-2.4,2.4h-7.54c-2.07,0-2.65-1.16-3.73-2.82l-17.57-28.42v28.83c0,1.91-.91,2.4-2.4,2.4h-8.2c-1.49,0-2.4-.5-2.4-2.4V112.45c0-1.49.5-2.4,2.4-2.4H174c2.07,0,2.65,1.16,3.73,2.82L195.3,141.2V112.45c0-1.91.91-2.4,2.4-2.4h8c1.49,0,2.4.5,2.4,2.4" transform="translate(-26.42 -34.19)" fill="#024379"/><path d="M263.24,136.56v12c-0.75,11.93-12.84,17.23-22.29,17.23-9.78,0-22.29-5-22.29-18V127.44c0-13.09,12.51-18.64,22.29-18.64,10.36,0,22.29,6,22.29,17.07,0,2-.5,2.32-2.4,2.32h-8c-2.32,0-2-1.66-2.4-2.82-0.91-2.57-3.89-5.05-9.45-5.05s-9.11,3.65-9.11,8.95v16.65c0,5.3,3.65,8.37,9.11,8.37s9.2-2.49,9.2-8.87h-7.46c-1.91,0-2.4-.91-2.4-2.4v-6.46c0-1.49.5-2.4,2.4-2.4h18.15c1.91,0,2.4.91,2.4,2.4" transform="translate(-26.42 -34.19)" fill="#024379"/><path d="M319.34,164.56h-8.7c-1.82,0-2.49-.5-3.15-2.48l-2.32-6.55h-20.3l-2.32,6.55c-0.66,2-1.33,2.48-3.15,2.48h-8.7c-1.82,0-1.82-1.33-1.41-2.32l18.39-49.63c0.66-1.74,1.58-2.57,3.4-2.57h8c1.82,0,2.65.83,3.4,2.57l18.31,49.63c0.42,1,.42,2.32-1.41,2.32m-18.06-20.63-6.21-18.31-6.21,18.31h12.43Z" transform="translate(-26.42 -34.19)" fill="#024379"/><path d="M371,136.56v12c-0.75,11.93-12.84,17.23-22.29,17.23-9.78,0-22.29-5-22.29-18V127.44c0-13.09,12.51-18.64,22.29-18.64,10.35,0,22.29,6,22.29,17.07,0,2-.5,2.32-2.4,2.32h-8c-2.32,0-2-1.66-2.4-2.82-0.91-2.57-3.89-5.05-9.44-5.05s-9.12,3.65-9.12,8.95v16.65c0,5.3,3.65,8.37,9.12,8.37s9.19-2.49,9.19-8.87h-7.45c-1.91,0-2.41-.91-2.41-2.4v-6.46c0-1.49.5-2.4,2.41-2.4h18.14c1.91,0,2.4.91,2.4,2.4" transform="translate(-26.42 -34.19)" fill="#024379"/><path d="M423.57,155.37v6.79c0,1.49-.5,2.4-2.4,2.4H384.05c-1.91,0-2.4-.91-2.4-2.4V112.45c0-1.49.5-2.4,2.4-2.4h35.71c1.91,0,2.41.91,2.41,2.4v6.88c0,1.49-.5,2.4-2.41,2.4h-25v9h22.21c1.91,0,2.4.91,2.4,2.4v6.46c0,1.49-.5,2.4-2.4,2.4H394.74V153h26.43c1.9,0,2.4.91,2.4,2.4" transform="translate(-26.42 -34.19)" fill="#024379"/><path d="M69.31,72.31H73l-1.86-5.47Zm16.78,10.5,2.76-4.42-3.31-7.73H81.67l7.18-9.39,2.76-12.15-16-4.42V41.38H71.72l-7.18-7.18H61.23L51.28,46.9l-9.94-2.21,0.55,6.63L27,51.87l-0.55,2.21L43.55,69.55V83.36l-4.42,10.5,12.15,6.63,2.21-1.66,13.26,3.31,7.73-9.39L85,96.06l7.18-8.29ZM62.16,77.75a0.61,0.61,0,0,1-.72.72H51.14a0.61,0.61,0,0,1-.72-0.72V62.9a0.61,0.61,0,0,1,.72-0.72h2.45a0.61,0.61,0,0,1,.72.72V75h7.13a0.61,0.61,0,0,1,.72.72v2Zm16.26,0.72h-2.6a0.83,0.83,0,0,1-.94-0.74l-0.69-2H68.12l-0.69,2a0.83,0.83,0,0,1-.94.74h-2.6c-0.54,0-.54-0.4-0.42-0.69L69,63a1,1,0,0,1,1-.77h2.38a1,1,0,0,1,1,.77l5.47,14.82C79,78.07,79,78.47,78.42,78.47Z" transform="translate(-26.42 -34.19)" fill="#ed6a69" fill-rule="evenodd"/></svg>