<?xml version="1.0" encoding="UTF-8"?>
<svg width="145px" height="33px" viewBox="0 0 145 33" version="1.1" xmlns="http://www.w3.org/2000/svg" xmlns:xlink="http://www.w3.org/1999/xlink">
    <!-- Generator: Sketch 41 (35326) - http://www.bohemiancoding.com/sketch -->
    <title>bob-logo_ico</title>
    <desc>Created with Sketch.</desc>
    <defs></defs>
    <g id="Web" stroke="none" stroke-width="1" fill="none" fill-rule="evenodd">
        <g id="Landing-Page---Cookies-Copy" transform="translate(-25.000000, -72.000000)">
            <g id="Header-connecté" transform="translate(0.000000, 60.000000)">
                <g id="bob-logo_ico" transform="translate(25.000000, 12.000000)">
                    <g id="bob" transform="translate(2.313043, 2.347826)" fill="#FFFFFF">
                        <path d="M38.0368916,8.11218331 C37.0023943,8.11218331 36.1458125,8.45801175 35.4639112,9.15284136 C34.78201,9.84386369 34.4430003,10.7487286 34.4430003,11.8636287 C34.4430003,13.0039107 34.78201,13.9284465 35.4639112,14.6327944 C36.1458125,15.3339694 37.0023943,15.6861434 38.0368916,15.6861434 C39.0416284,15.6861434 39.885271,15.3307967 40.570407,14.6131234 C41.2555431,13.8992573 41.5984346,12.9848743 41.5984346,11.8763196 C41.5984346,10.774745 41.2620128,9.87305288 40.5865812,9.16870505 C39.9143844,8.46435723 39.0649192,8.11218331 38.0368916,8.11218331 L38.0368916,8.11218331 Z M34.5846856,0.516014101 L34.5846856,6.67493302 C34.9107561,6.3119718 36.5152296,5.13932785 38.7220276,5.13932785 C40.4319565,5.13932785 41.8811584,5.77260635 43.0773969,7.03916334 C44.2729885,8.30635488 44.8694903,9.93143126 44.8694903,11.9118543 C44.8694903,13.8250153 44.2289948,15.3986933 43.0178761,16.7071304 C41.907684,17.9070599 39.9557902,18.6361551 37.9967797,18.6361551 C34.1770976,18.6361551 31.3259223,15.787671 31.3259223,11.414369 L31.3259223,0.516014101 L34.5846856,0.516014101 Z" id="Fill-6"></path>
                        <path d="M22.5723546,8.17360752 C21.5507967,8.17360752 20.7045663,8.51943596 20.0258999,9.21743831 C19.3439986,9.91226792 19.0075768,10.8038073 19.0075768,11.8895182 C19.0075768,13.0044183 19.3407638,13.9086486 20.0123136,14.6003055 C20.6812756,15.2951351 21.5313877,15.6409636 22.5594153,15.6409636 C23.5900308,15.6409636 24.4433778,15.2919624 25.1285139,14.5907873 C25.8104151,13.8896122 26.1500718,12.9910928 26.1500718,11.8895182 C26.1500718,10.787309 25.8175317,9.89259694 25.145335,9.20411281 C24.4731382,8.51626322 23.6165564,8.17360752 22.5723546,8.17360752 M22.5199505,5.13983549 C23.7550069,5.13983549 24.9143684,5.44314924 26.0019168,6.04723854 C27.0888182,6.65513514 27.9356956,7.47560517 28.5451367,8.51309048 C29.1545779,9.55311398 29.4612394,10.6743596 29.4612394,11.8768273 C29.4612394,13.0881786 29.1513431,14.2189424 28.5386671,15.2754642 C27.9259911,16.3288132 27.0888182,17.1530905 26.0316772,17.7476616 C24.9738892,18.3390599 23.8041763,18.6360282 22.5296549,18.6360282 C20.65475,18.6360282 19.0509234,17.9837133 17.7265858,16.6714689 C16.3983664,15.3630317 15.7332862,13.77349 15.7332862,11.8990364 C15.7332862,9.89576968 16.4844128,8.22183314 17.983431,6.88737955 C19.2980641,5.72108108 20.8100216,5.13983549 22.5199505,5.13983549" id="Fill-8"></path>
                        <path d="M61.8212707,10.2835417 C61.6038904,9.56967568 61.1755995,8.9846228 60.5363979,8.53853584 C59.9004312,8.08927615 59.1596561,7.86654994 58.3160136,7.86654994 C57.399911,7.86654994 56.5963803,8.11846533 55.9047746,8.61975793 C55.4732488,8.93639718 55.0708365,9.48845358 54.6988316,10.2835417 L61.8212707,10.2835417 Z M65.1059127,12.8198284 L54.5571462,12.8198284 C54.708536,13.7342115 55.1141832,14.4582303 55.7760285,14.9975958 C56.4385208,15.5375958 57.2815164,15.8053749 58.309544,15.8053749 C59.5348959,15.8053749 60.5894491,15.3853043 61.4719095,14.5419906 L64.2396264,15.8187004 C63.5506085,16.7781363 62.7237871,17.4856569 61.7617499,17.9476075 C60.7997128,18.4063854 59.6571723,18.6360917 58.3321877,18.6360917 C56.2800143,18.6360917 54.6063155,18.0028132 53.318208,16.7330834 C52.0268656,15.4595464 51.3811944,13.8700047 51.3811944,11.960651 C51.3811944,9.99926439 52.0236307,8.37418801 53.3117383,7.08161457 C54.5966111,5.78586839 56.2107891,5.13926439 58.1510375,5.13926439 C60.2135623,5.13926439 61.890496,5.78586839 63.1818384,7.08161457 C64.4699459,8.37418801 65.1156171,10.0830247 65.1156171,12.2062209 L65.1059127,12.8198284 Z" id="Fill-10"></path>
                        <polygon id="Fill-12" points="104.961035 18.306698 108.245677 18.306698 108.245677 0.515887192 104.961035 0.515887192"></polygon>
                        <path d="M117.48298,8.17360752 C116.461423,8.17360752 115.615192,8.51943596 114.936526,9.21743831 C114.254624,9.91226792 113.918203,10.8038073 113.918203,11.8895182 C113.918203,13.0044183 114.25139,13.9086486 114.922939,14.6003055 C115.591901,15.2951351 116.442014,15.6409636 117.470041,15.6409636 C118.500657,15.6409636 119.354004,15.2919624 120.03914,14.5907873 C120.721041,13.8896122 121.060698,12.9910928 121.060698,11.8895182 C121.060698,10.787309 120.728158,9.89259694 120.055961,9.20411281 C119.383764,8.51626322 118.527182,8.17360752 117.48298,8.17360752 M117.430576,5.13983549 C118.665633,5.13983549 119.824994,5.44314924 120.912543,6.04723854 C121.999444,6.65513514 122.846321,7.47560517 123.455763,8.51309048 C124.065204,9.55311398 124.371218,10.6743596 124.371218,11.8768273 C124.371218,13.0881786 124.061969,14.2189424 123.449293,15.2754642 C122.836617,16.3288132 121.999444,17.1530905 120.942303,17.7476616 C119.884515,18.3390599 118.714802,18.6360282 117.440281,18.6360282 C115.565376,18.6360282 113.961549,17.9837133 112.637212,16.6714689 C111.308992,15.3630317 110.643912,13.77349 110.643912,11.8990364 C110.643912,9.89576968 111.395039,8.22183314 112.894057,6.88737955 C114.208043,5.72108108 115.720647,5.13983549 117.430576,5.13983549" id="Fill-14"></path>
                        <path d="M126.752762,18.306698 L130.037404,18.306698 L130.037404,5.46916569 L126.752762,5.46916569 L126.752762,18.306698 Z M128.3967,0.0526674501 C128.950502,0.0526674501 129.427315,0.248742656 129.825199,0.642162162 C130.222436,1.03811986 130.422995,1.51529965 130.422995,2.080047 C130.422995,2.63210341 130.22567,3.10611046 129.831022,3.49635723 C129.43702,3.88914219 128.966029,4.0826792 128.419344,4.0826792 C127.856484,4.0826792 127.375789,3.88279671 126.978552,3.48366627 C126.581316,3.08770858 126.380757,2.60101058 126.380757,2.03309048 C126.380757,1.48737955 126.578081,1.01971798 126.972083,0.632643948 C127.366731,0.246204465 127.84031,0.0526674501 128.3967,0.0526674501 L128.3967,0.0526674501 Z" id="Fill-15"></path>
                        <path d="M95.9610384,15.7284042 C93.9968523,15.7284042 92.4040241,14.0132221 92.4040241,11.8976404 C92.4040241,9.78142421 93.9968523,8.06624207 95.9610384,8.06624207 C97.9252245,8.06624207 99.5180527,9.78142421 99.5180527,11.8976404 C99.5180527,14.0132221 97.9252245,15.7284042 95.9610384,15.7284042 M100.793868,7.0173349 C99.5749856,5.73110693 97.8715264,5.13970858 95.9610384,5.13970858 C94.0511973,5.13970858 92.3470912,5.73110693 91.1282089,7.0173349 C89.9093266,8.30356287 89.2617145,9.89945006 89.2617145,11.812611 C89.2617145,15.7036569 89.2578327,23.2084512 89.2578327,23.2084512 L92.5159491,23.2084512 L92.5159491,17.4175699 C92.4971871,17.5343267 93.9845599,18.5343737 95.9694489,18.5343737 C98.0332677,18.5343737 99.7593707,17.864926 100.852095,16.685302 C102.029571,15.4155723 102.620897,13.7930341 102.620897,11.812611 C102.620897,9.89945006 102.01275,8.30356287 100.793868,7.0173349" id="Fill-16"></path>
                        <path d="M80.8314353,5.14662515 C79.0736311,5.14662515 77.8159308,5.78942186 76.9444688,6.63717744 C76.0730068,5.78942186 74.8146596,5.14662515 73.0575023,5.14662515 C69.4390263,5.14662515 67.5194808,7.27235958 67.5194808,10.1506675 L67.5194808,18.3065076 L70.8209438,18.3065076 L70.8209438,10.4692103 C70.8209438,9.21090247 71.5034921,8.11630787 73.0575023,8.11630787 C74.6108656,8.11630787 75.2934138,9.21090247 75.2934138,10.4692103 L75.2934138,18.3065076 L78.5948769,18.3065076 L78.5948769,10.4692103 C78.5948769,9.21090247 79.2774251,8.11630787 80.8314353,8.11630787 C82.3847986,8.11630787 83.0679938,9.21090247 83.0679938,10.4692103 L83.0679938,18.3065076 L86.3694568,18.3065076 L86.3694568,10.1506675 C86.3694568,7.27235958 84.4499113,5.14662515 80.8314353,5.14662515" id="Fill-17"></path>
                    </g>
                    <g id="Group-2" transform="translate(0.000000, 0.117390)">
                        <path d="M0.984628858,4.21448045 C0.28570852,4.61314518 -0.0690406358,5.42650014 0.177090779,6.20459903 L2.30713371,13.0617804 L2.30713371,12.7725821 L0.984628858,4.21448045 Z" id="Fill-2" fill="#F37791"></path>
                        <path d="M2.30710791,2.09337202 C1.41185004,2.30860659 0.816903457,3.14217832 0.956481125,4.03270215 L2.30710791,12.7725081 L2.30710791,2.09337202 Z" id="Fill-4" fill="#EE4266"></path>
                        <path d="M9.22938625,20.9327093 C13.0462292,20.9327093 16.1517678,17.8846622 16.1517678,14.137904 C16.1517678,13.1795801 15.3388117,12.4027139 14.3359681,12.4027139 C13.3331245,12.4027139 12.5201684,13.1795801 12.5201684,14.137904 C12.5201684,15.9709729 11.0438959,17.4623291 9.22938625,17.4623291 C7.41487656,17.4623291 5.93860408,15.9709729 5.93860408,14.137904 C5.93860408,12.3048352 7.41487656,10.8132324 9.22938625,10.8132324 C9.86019475,10.8132324 10.4724273,10.9939506 11.000294,11.3354167 C11.8307941,11.8731333 12.9597994,11.6655416 13.52198,10.8719104 C14.0844187,10.0785256 13.8671832,8.99964071 13.0369412,8.46217062 C11.9056139,7.72992927 10.589043,7.34285219 9.22938625,7.34285219 C8.03897708,7.34285219 6.91796975,7.63944692 5.93860408,8.16113807 L5.93860408,1.9410313 C5.93860408,0.982707344 5.12564801,0.205841181 4.12280439,0.205841181 C3.11996078,0.205841181 2.30700471,0.982707344 2.30700471,1.9410313 L2.30700471,14.137904 C2.30700471,17.8846622 5.41254333,20.9327093 9.22938625,20.9327093" id="Fill-48" fill="#FFFFFF"></path>
                    </g>
                    <path d="M119.63,33 L122.56,33 C124.48,33 124.86,31.77 124.86,31.04 C124.86,29.99 124.03,29.46 123.58,29.45 C124.14,29.32 124.8,28.76 124.8,27.89 C124.8,27.16 124.45,26 122.53,26 L119.63,26 L119.63,33 Z M121.24,28.85 L121.24,27.19 L122.21,27.19 C123.03,27.19 123.18,27.7 123.18,28.01 C123.18,28.36 123,28.85 122.21,28.85 L121.24,28.85 Z M122.26,30.04 C123.04,30.04 123.22,30.58 123.22,30.9 C123.22,31.29 123.04,31.76 122.25,31.76 L121.24,31.76 L121.24,30.04 L122.26,30.04 Z M131.27,27.3 L131.27,26 L127,26 L127,33 L131.27,33 L131.27,31.7 L128.62,31.7 L128.62,30.16 L131.27,30.16 L131.27,28.89 L128.62,28.89 L128.62,27.3 L131.27,27.3 Z M134.61,33 L136.23,33 L136.23,27.4 L137.82,27.4 L137.82,26 L133.03,26 L133.03,27.4 L134.61,27.4 L134.61,33 Z M142.52,30.88 L140.82,30.88 L141.68,28 L142.52,30.88 Z M144.95,33 L142.42,26 L140.93,26 L138.43,33 L140.16,33 L140.43,32.15 L142.92,32.15 L143.19,33 L144.95,33 Z" id="BETA" fill="#EE4266"></path>
                </g>
            </g>
        </g>
    </g>
</svg>