<?xml version="1.0" encoding="UTF-8"?>
<svg width="249px" height="152px" viewBox="0 0 249 152" version="1.1" xmlns="http://www.w3.org/2000/svg" xmlns:xlink="http://www.w3.org/1999/xlink">
    <!-- Generator: Sketch 48.2 (47327) - http://www.bohemiancoding.com/sketch -->
    <title>bob-loading</title>
    <desc>Created with Sketch.</desc>
    <defs></defs>
    <g id="Sign-up-page-Copy" stroke="none" stroke-width="1" fill="none" fill-rule="evenodd" transform="translate(-595.000000, -384.000000)">
        <g id="bob-loading" transform="translate(595.000000, 384.000000)">
            <g id="logo-footer">
                <g id="logo-bob">
                    <path d="M4.97530681,21.3410098 C1.44367853,23.4545835 -0.348860733,27.766692 0.894835602,31.891886 L11.6578932,68.2461376 L11.6578932,66.7129144 L4.97530681,21.3410098 Z" id="Fill-97" fill="#F37791"></path>
                    <path d="M11.6577628,10.0956737 C7.13404555,11.2367682 4.12779424,15.6560586 4.83307696,20.3772881 L11.6577628,66.7125223 L11.6577628,10.0956737 Z" id="Fill-99" fill="#EE4266"></path>
                    <path d="M46.6358749,109.974905 C65.9222937,109.974905 81.6145084,93.8152815 81.6145084,73.9513488 C81.6145084,68.8706679 77.5066602,64.7520095 72.4393147,64.7520095 C67.3719691,64.7520095 63.2641209,68.8706679 63.2641209,73.9513488 C63.2641209,83.669605 55.8045503,91.5762267 46.6358749,91.5762267 C37.4671995,91.5762267 30.0076288,83.669605 30.0076288,73.9513488 C30.0076288,64.2330925 37.4671995,56.3251637 46.6358749,56.3251637 C49.8233356,56.3251637 52.9169325,57.2832649 55.5842309,59.0935924 C59.7807283,61.944368 65.485566,60.8437935 68.3262518,56.6362525 C71.1682414,52.4300187 70.0705555,46.7101681 65.8753618,43.8606995 C60.1587911,39.9786254 53.506189,37.9264852 46.6358749,37.9264852 C40.6207649,37.9264852 34.9563408,39.4989213 30.0076288,42.2647357 L30.0076288,9.28801925 C30.0076288,4.20733841 25.8997806,0.088679977 20.8324351,0.088679977 C15.7650895,0.088679977 11.6572414,4.20733841 11.6572414,9.28801925 L11.6572414,73.9513488 C11.6572414,93.8152815 27.349456,109.974905 46.6358749,109.974905" id="Fill-143" fill="#21293D"></path>
                </g>
                <g id="Group-5" transform="translate(91.236641, 6.593220)" fill="#21293D">
                    <path d="M36.1757688,48.3685665 C30.7721609,48.3685665 26.2959614,50.220199 22.7061041,53.9574388 C19.0991359,57.6776913 17.319607,62.4511658 17.319607,68.2642726 C17.319607,74.2336639 19.0820251,79.0750883 22.6342385,82.7783533 C26.1727632,86.4986057 30.6694958,88.3502382 36.1073254,88.3502382 C41.5588437,88.3502382 46.0726872,86.4816182 49.6967662,82.7273909 C53.3037343,78.9731636 55.100374,74.1623166 55.100374,68.2642726 C55.100374,62.3628311 53.3413782,57.572369 49.7857426,53.8860915 C46.230107,50.2032115 41.6991527,48.3685665 36.1757688,48.3685665 M35.898573,32.125163 C42.4314973,32.125163 48.5640276,33.7491636 54.3166969,36.9835748 C60.0659441,40.238371 64.5455658,44.6313266 67.7692508,50.186224 C70.9929358,55.7547115 72.6150448,61.7580777 72.6150448,68.1963228 C72.6150448,74.6821327 70.975825,80.7364613 67.7350291,86.3932835 C64.4942332,92.0331182 60.0659441,96.4464587 54.4741168,99.6299076 C48.8788673,102.796369 42.6915823,104.386395 35.9499056,104.386395 C26.0324542,104.386395 17.5488925,100.893774 10.5437086,93.8677632 C3.51799171,86.8621372 0,78.3514227 0,68.3152349 C0,57.5893565 3.97314044,48.6267758 11.9023105,41.4818526 C18.8561618,35.2372645 26.8537752,32.125163 35.898573,32.125163" id="Fill-8"></path>
                    <path d="M120.808977,48.3685665 C115.405369,48.3685665 110.92917,50.220199 107.339312,53.9574388 C103.732344,57.6776913 101.952815,62.4511658 101.952815,68.2642726 C101.952815,74.2336639 103.715233,79.0750883 107.267447,82.7783533 C110.805972,86.4986057 115.302704,88.3502382 120.740534,88.3502382 C126.192052,88.3502382 130.705896,86.4816182 134.329975,82.7273909 C137.936943,78.9731636 139.733582,74.1623166 139.733582,68.2642726 C139.733582,62.3628311 137.974587,57.572369 134.418951,53.8860915 C130.863315,50.2032115 126.332361,48.3685665 120.808977,48.3685665 M120.531781,32.125163 C127.064706,32.125163 133.197236,33.7491636 138.949905,36.9835748 C144.699152,40.238371 149.178774,44.6313266 152.402459,50.186224 C155.626144,55.7547115 157.248253,61.7580777 157.248253,68.1963228 C157.248253,74.6821327 155.609033,80.7364613 152.368238,86.3932835 C149.127442,92.0331182 144.699152,96.4464587 139.107325,99.6299076 C133.512076,102.796369 127.324791,104.386395 120.583114,104.386395 C110.665663,104.386395 102.182101,100.893774 95.176917,93.8677632 C88.1512001,86.8621372 84.6332084,78.3514227 84.6332084,68.3152349 C84.6332084,57.5893565 88.6063488,48.6267758 96.5355189,41.4818526 C103.48937,35.2372645 111.486984,32.125163 120.531781,32.125163" id="Fill-8"></path>
                    <rect id="Rectangle-5" x="84.6633832" y="0" width="17.1911205" height="78.3099976" rx="8.59556023"></rect>
                </g>
            </g>
            <path d="M75.435,148.239 L77.327,148.239 C77.03,149.878 75.611,151.198 73.488,151.198 C70.892,151.198 69.352,149.306 69.352,147.139 C69.352,145.038 70.87,143.102 73.389,143.102 C75.776,143.102 77.096,144.532 77.316,146.292 L75.457,146.292 C75.292,145.39 74.599,144.708 73.499,144.708 C71.992,144.708 71.167,145.874 71.167,147.139 C71.167,148.492 72.047,149.592 73.587,149.592 C74.456,149.592 75.226,149.009 75.435,148.239 Z M85.049,151 L85.049,147.942 L82.387,147.942 L82.387,151 L80.605,151 L80.605,143.3 L82.387,143.3 L82.387,146.413 L85.049,146.413 L85.049,143.3 L86.82,143.3 L86.82,151 L85.049,151 Z M94.3000001,148.668 L93.3760001,145.5 L92.4300001,148.668 L94.3000001,148.668 Z M96.9730001,151 L95.0370001,151 L94.7400001,150.065 L92.0010001,150.065 L91.7040001,151 L89.8010001,151 L92.5510001,143.3 L94.1900001,143.3 L96.9730001,151 Z M102.957,147.414 C103.705,147.414 104.189,146.798 104.189,146.083 C104.189,145.368 103.705,144.752 102.957,144.752 L101.736,144.752 L101.736,147.414 L102.957,147.414 Z M99.9540001,151 L99.9540001,143.3 L103.188,143.3 C104.893,143.3 105.993,144.587 105.993,146.083 C105.993,147.161 105.421,148.118 104.464,148.569 L106.004,151 L103.936,151 L102.572,148.866 L101.736,148.866 L101.736,151 L99.9540001,151 Z M113.396,148.261 L113.396,146.93 L117.389,146.93 L117.389,148.261 L116.597,148.261 C116.289,150.01 114.98,151.198 112.78,151.198 C110.195,151.198 108.743,149.306 108.743,147.15 C108.743,145.049 110.261,143.102 112.78,143.102 C114.804,143.102 116.201,144.334 116.333,145.797 L114.43,145.797 C114.32,145.192 113.704,144.642 112.769,144.642 C111.317,144.642 110.569,145.863 110.569,147.161 C110.569,148.525 111.328,149.691 112.923,149.691 C114.001,149.691 114.639,149.031 114.76,148.261 L113.396,148.261 Z M125.21,144.73 L122.295,144.73 L122.295,146.479 L125.21,146.479 L125.21,147.876 L122.295,147.876 L122.295,149.57 L125.21,149.57 L125.21,151 L120.513,151 L120.513,143.3 L125.21,143.3 L125.21,144.73 Z M136.991,143.3 L136.991,151 L135.253,151 L135.253,146.226 L133.592,151 L132.272,151 L130.556,146.226 L130.556,151 L128.818,151 L128.818,143.3 L130.875,143.3 L132.932,148.657 L134.967,143.3 L136.991,143.3 Z M145.362,144.73 L142.447,144.73 L142.447,146.479 L145.362,146.479 L145.362,147.876 L142.447,147.876 L142.447,149.57 L145.362,149.57 L145.362,151 L140.665,151 L140.665,143.3 L145.362,143.3 L145.362,144.73 Z M150.829,143.3 L153.612,148.316 L153.612,143.3 L155.383,143.3 L155.383,151 L153.524,151 L150.752,146.05 L150.752,151 L148.97,151 L148.97,143.3 L150.829,143.3 Z M160.223,151 L160.223,144.84 L158.485,144.84 L158.485,143.3 L163.754,143.3 L163.754,144.84 L162.005,144.84 L162.005,151 L160.223,151 Z M165.349,149.999 C165.349,149.394 165.833,148.899 166.46,148.899 C167.087,148.899 167.571,149.394 167.571,149.999 C167.571,150.604 167.087,151.099 166.46,151.099 C165.833,151.099 165.349,150.604 165.349,149.999 Z M170.871001,149.999 C170.871001,149.394 171.355001,148.899 171.982001,148.899 C172.609001,148.899 173.093001,149.394 173.093001,149.999 C173.093001,150.604 172.609001,151.099 171.982001,151.099 C171.355001,151.099 170.871001,150.604 170.871001,149.999 Z M176.393001,149.999 C176.393001,149.394 176.877001,148.899 177.504001,148.899 C178.131001,148.899 178.615001,149.394 178.615001,149.999 C178.615001,150.604 178.131001,151.099 177.504001,151.099 C176.877001,151.099 176.393001,150.604 176.393001,149.999 Z" id="chargement..." fill="#EE4266"></path>
        </g>
    </g>
</svg>