<?xml version="1.0" encoding="UTF-8"?>
<svg width="170px" height="66px" viewBox="0 0 170 66" version="1.1" xmlns="http://www.w3.org/2000/svg" xmlns:xlink="http://www.w3.org/1999/xlink">
    <!-- Generator: Sketch 42 (36781) - http://www.bohemiancoding.com/sketch -->
    <title>logo-bob-footer</title>
    <desc>Created with Sketch.</desc>
    <defs></defs>
    <g id="Proto" stroke="none" stroke-width="1" fill="none" fill-rule="evenodd">
        <g id="Landing-Page-(advisor)---mobile" transform="translate(-95.000000, -3362.000000)">
            <g id="logo-bob-footer" transform="translate(95.000000, 3362.000000)">
                <g id="logo-footer">
                    <g id="logo-bob">
                        <path d="M2.61753089,11.7689248 C0.759525654,12.8823252 -0.183537173,15.1538824 0.470776963,17.3269756 L6.13326911,36.4778761 L6.13326911,35.670196 L2.61753089,11.7689248 Z" id="Fill-97" fill="#F37791"></path>
                        <path d="M6.13320052,5.84504237 C3.75325288,6.44615466 2.17165079,8.77417373 2.54270314,11.26125 L6.13320052,35.6699894 L6.13320052,5.84504237 Z" id="Fill-99" fill="#EE4266"></path>
                        <path d="M24.5353398,58.4599947 C34.6820099,58.4599947 42.9377534,49.9473358 42.9377534,39.4832998 C42.9377534,36.8068697 40.7765963,34.6372193 38.1106435,34.6372193 C35.4446906,34.6372193 33.2835335,36.8068697 33.2835335,39.4832998 C33.2835335,44.6027383 29.3590204,48.7678337 24.5353398,48.7678337 C19.7116592,48.7678337 15.7871461,44.6027383 15.7871461,39.4832998 C15.7871461,34.3638612 19.7116592,30.1980773 24.5353398,30.1980773 C26.212277,30.1980773 27.8398319,30.7027913 29.2431094,31.656446 C31.4509052,33.1581939 34.4522455,32.5784269 35.9467429,30.3619544 C37.4419262,28.1461706 36.8644288,25.133035 34.6573188,23.6319756 C31.6498058,21.5869544 28.1498424,20.5059163 24.5353398,20.5059163 C21.3707639,20.5059163 18.3906853,21.3342532 15.7871461,22.7912447 L15.7871461,5.41958157 C15.7871461,2.74315148 13.625989,0.573501059 10.9600361,0.573501059 C8.29408325,0.573501059 6.13292618,2.74315148 6.13292618,5.41958157 L6.13292618,39.4832998 C6.13292618,49.9473358 14.3886696,58.4599947 24.5353398,58.4599947" id="Fill-143" fill="#FFFFFF"></path>
                        <path d="M59.6405963,49.9665466 C59.4142613,49.205 58.9677639,48.5804767 58.3011042,48.1046822 C57.6378738,47.6247564 56.8655911,47.3872034 55.9863136,47.3872034 C55.0315911,47.3872034 54.1934654,47.6564301 53.4726225,48.1914407 C53.0226958,48.5288347 52.6029471,49.1182415 52.215434,49.9665466 L59.6405963,49.9665466 Z M63.0651147,52.6732733 L52.0679733,52.6732733 C52.225722,53.6489619 52.6482141,54.4215254 53.3381932,54.997161 C54.0288581,55.5727966 54.9081356,55.8585487 55.979455,55.8585487 C57.2572194,55.8585487 58.3566592,55.4102966 59.2764026,54.5103496 L62.1618319,55.8730085 C61.4437325,56.8968962 60.5816016,57.6515572 59.5788686,58.1445657 C58.5754497,58.6341314 57.3847901,58.8792585 56.0034602,58.8792585 C53.8635649,58.8792585 52.1187272,58.2037818 50.7764916,56.848697 C49.4301408,55.4894809 48.7566225,53.7935593 48.7566225,51.7561123 C48.7566225,49.6628919 49.4267115,47.9290996 50.769633,46.5499153 C52.1091251,45.1672881 53.7915492,44.4773517 55.8141618,44.4773517 C57.964345,44.4773517 59.712612,45.1672881 61.0589628,46.5499153 C62.4018843,47.9290996 63.0747168,49.7524047 63.0747168,52.0184534 L63.0651147,52.6732733 Z" id="Fill-144" fill="#FFFFFF"></path>
                        <polygon id="Fill-145" fill="#FFFFFF" points="103.64089 58.5282309 107.065408 58.5282309 107.065408 39.5439619 103.64089 39.5439619"></polygon>
                        <path d="M116.696172,47.7150953 C115.631025,47.7150953 114.749004,48.0841631 114.041193,48.8291843 C113.330638,49.5700742 112.980161,50.5216631 112.980161,51.6805085 C112.980161,52.8696504 113.327208,53.8350106 114.027475,54.5731462 C114.724999,55.314036 115.611135,55.6831038 116.682454,55.6831038 C117.757203,55.6831038 118.646769,55.3105932 119.360753,54.5628178 C120.071994,53.8143538 120.425899,52.8558792 120.425899,51.6805085 C120.425899,50.5044492 120.079538,49.5494174 119.378585,48.8147246 C118.677632,48.0807203 117.784638,47.7150953 116.696172,47.7150953 M116.641303,44.4774894 C117.929355,44.4774894 119.137847,44.8018008 120.27158,45.4462924 C121.404627,46.0949153 122.287334,46.9700742 122.92313,48.0772775 C123.55824,49.1872352 123.877166,50.3832627 123.877166,51.6667373 C123.877166,52.9591631 123.55481,54.1662076 122.916271,55.2933792 C122.277046,56.4171081 121.404627,57.2970869 120.302444,57.93125 C119.199575,58.5626589 117.980109,58.8793962 116.651591,58.8793962 C114.696879,58.8793962 113.024742,58.1832627 111.644098,56.7827331 C110.260025,55.3870233 109.566617,53.6904131 109.566617,51.6901483 C109.566617,49.5528602 110.349187,47.7667373 111.912271,46.3427966 C113.281941,45.0978814 114.858742,44.4774894 116.641303,44.4774894" id="Fill-146" fill="#FFFFFF"></path>
                        <path d="M126.49799,58.5282309 L129.922508,58.5282309 L129.922508,44.8293432 L126.49799,44.8293432 L126.49799,58.5282309 Z M128.211963,39.0495763 C128.789461,39.0495763 129.286712,39.2588983 129.70166,39.6782309 C130.115236,40.1010064 130.324424,40.6098517 130.324424,41.2130297 C130.324424,41.8017479 130.118665,42.307839 129.707147,42.7244174 C129.296314,43.1430614 128.805921,43.3496292 128.235969,43.3496292 C127.648869,43.3496292 127.147503,43.1361758 126.733927,42.7106462 C126.319665,42.2878708 126.110476,41.768697 126.110476,41.1627648 C126.110476,40.5802436 126.316236,40.0810381 126.727068,39.6685911 C127.138586,39.2561441 127.631723,39.0495763 128.211963,39.0495763 L128.211963,39.0495763 Z" id="Fill-147" fill="#FFFFFF"></path>
                        <path d="M94.363278,55.776679 C92.3152885,55.776679 90.654812,53.9464883 90.654812,51.6887023 C90.654812,49.4309163 92.3152885,47.6007256 94.363278,47.6007256 C96.4112675,47.6007256 98.071744,49.4309163 98.071744,51.6887023 C98.071744,53.9464883 96.4112675,55.776679 94.363278,55.776679 M99.401634,46.4811282 C98.1307283,45.1088294 96.3550267,44.4774206 94.363278,44.4774206 C92.3722152,44.4774206 90.5958277,45.1088294 89.324922,46.4811282 C88.0540162,47.8534269 87.3791262,49.5569227 87.3791262,51.5985011 C87.3791262,55.7505138 87.375011,64.295535 87.375011,64.295535 L90.7720948,64.295535 L90.7720948,57.5793273 C91.1458906,57.9291155 92.4243408,58.770535 94.3721942,58.770535 C96.5237492,58.770535 98.3227702,58.0564989 99.4619901,56.7978125 C100.689686,55.4427278 101.306278,53.7116896 101.306278,51.5985011 C101.306278,49.5569227 100.67254,47.8534269 99.401634,46.4811282" id="Fill-148" fill="#FFFFFF"></path>
                        <path d="M79.040256,44.4850636 C77.2076277,44.4850636 75.8969419,45.1708686 74.9881723,46.0756356 C74.0794026,45.1708686 72.7680309,44.4850636 70.9360885,44.4850636 C67.1638372,44.4850636 65.1624864,46.753178 65.1624864,49.8248411 L65.1624864,58.5275424 L68.6041513,58.5275424 L68.6041513,50.1649894 C68.6041513,48.8222987 69.316078,47.6538136 70.9360885,47.6538136 C72.5554131,47.6538136 73.2666539,48.8222987 73.2666539,50.1649894 L73.2666539,58.5275424 L76.7083188,58.5275424 L76.7083188,50.1649894 C76.7083188,48.8222987 77.4202455,47.6538136 79.040256,47.6538136 C80.6595806,47.6538136 81.3721932,48.8222987 81.3721932,50.1649894 L81.3721932,58.5275424 L84.8138581,58.5275424 L84.8138581,49.8248411 C84.8138581,46.753178 82.8125073,44.4850636 79.040256,44.4850636" id="Fill-149" fill="#FFFFFF"></path>
                        <path d="M58.7459555,36.1233369 C58.0244267,36.896589 57.1369188,37.279428 56.0793168,37.279428 C54.9901649,37.279428 54.0882539,36.9000318 53.3708403,36.1446822 C52.6527408,35.3858898 52.2960916,34.3895445 52.2960916,33.1611547 C52.2960916,31.9596186 52.6527408,30.9846186 53.3708403,30.240286 C54.0882539,29.4911335 54.9901649,29.1186229 56.0793168,29.1186229 C57.1609241,29.1186229 58.0552906,29.4980191 58.7631021,30.2575 C59.4736571,31.0162924 59.8282487,31.9878496 59.8282487,33.1742373 C59.8282487,34.3688877 59.4674843,35.3542161 58.7459555,36.1233369 M56.8001597,25.9154449 C54.4771387,25.9154449 52.7885419,27.1789513 52.4449241,27.570053 L52.4449241,20.391822 L49.0149188,20.391822 L49.0149188,32.6770975 C49.0149188,37.3889089 52.0162592,40.4578178 56.0367932,40.4578178 C58.0991859,40.4578178 60.1533482,39.6721716 61.3220602,38.3797458 C62.5970812,36.9695763 63.2712853,35.2743432 63.2712853,33.2127966 C63.2712853,31.0789513 62.6437199,29.3279449 61.3851597,27.9625318 C60.1259136,26.5978072 58.5998665,25.9154449 56.8001597,25.9154449" id="Fill-150" fill="#FFFFFF"></path>
                        <path d="M91.2761361,36.1233369 C90.5546073,36.896589 89.6670995,37.279428 88.6094974,37.279428 C87.5203455,37.279428 86.6184346,36.9000318 85.9010209,36.1446822 C85.1829215,35.3858898 84.8262723,34.3895445 84.8262723,33.1611547 C84.8262723,31.9596186 85.1829215,30.9846186 85.9010209,30.240286 C86.6184346,29.4911335 87.5203455,29.1186229 88.6094974,29.1186229 C89.6911047,29.1186229 90.5854712,29.4980191 91.2932827,30.2575 C92.0038377,31.0162924 92.3584293,31.9878496 92.3584293,33.1742373 C92.3584293,34.3688877 91.9976649,35.3542161 91.2761361,36.1233369 M93.9153403,27.9625318 C92.6560942,26.5978072 91.130733,25.9154449 89.3303403,25.9154449 C87.0073194,25.9154449 85.3187225,27.1789513 84.9751047,27.570053 L84.9751047,20.391822 L81.5450995,20.391822 L81.5450995,32.6770975 C81.5450995,37.3889089 84.5464398,40.4578178 88.5669738,40.4578178 C90.6293665,40.4578178 92.6835288,39.6721716 93.8522408,38.3797458 C95.1272618,36.9695763 95.801466,35.2743432 95.801466,33.2127966 C95.801466,31.0789513 95.1739005,29.3279449 93.9153403,27.9625318" id="Fill-151" fill="#FFFFFF"></path>
                        <path d="M75.0212309,36.0992373 C74.2997021,36.8545869 73.4019063,37.2305403 72.3168696,37.2305403 C71.2345764,37.2305403 70.3395241,36.8580297 69.6358277,36.1095657 C68.9287021,35.3645445 68.5782257,34.3902331 68.5782257,33.188697 C68.5782257,32.0188347 68.9321314,31.0582945 69.6502309,30.3098305 C70.3642152,29.5572352 71.2551524,29.1847246 72.3305869,29.1847246 C73.4293408,29.1847246 74.3312518,29.5537924 75.0390634,30.2953708 C75.746189,31.0369492 76.0966654,32.0009322 76.0966654,33.188697 C76.0966654,34.3757733 75.7393304,35.3438877 75.0212309,36.0992373 M75.9402885,26.8938877 C74.7955817,26.2431992 73.5754298,25.9161335 72.2750319,25.9161335 C70.4753251,25.9161335 68.8841209,26.5427225 67.5000476,27.7993432 C65.9218749,29.2370551 65.1310738,31.0403919 65.1310738,33.1990254 C65.1310738,35.2185699 65.8313408,36.9310169 67.2298173,38.3411864 C68.6234927,39.7547987 70.3120895,40.4578178 72.2853199,40.4578178 C73.6268696,40.4578178 74.8586812,40.1376377 75.9718382,39.5007203 C77.0849953,38.8603602 77.9656445,37.9721186 78.6110424,36.8366843 C79.2557545,35.6984958 79.5822257,34.4804343 79.5822257,33.1749258 C79.5822257,31.8797458 79.2591838,30.6713242 78.617901,29.5510381 C77.9759325,28.4328178 77.0849953,27.5487076 75.9402885,26.8938877" id="Fill-152" fill="#FFFFFF"></path>
                    </g>
                </g>
                <path d="M138.756,66 L138.756,57.6 L142.236,57.6 C144.54,57.6 144.96,58.992 144.96,59.868 C144.96,60.912 144.168,61.584 143.496,61.74 C144.036,61.752 145.032,62.388 145.032,63.648 C145.032,64.524 144.576,66 142.272,66 L138.756,66 Z M140.688,61.02 L141.852,61.02 C142.8,61.02 143.016,60.432 143.016,60.012 C143.016,59.64 142.836,59.028 141.852,59.028 L140.688,59.028 L140.688,61.02 Z M141.912,62.448 L140.688,62.448 L140.688,64.512 L141.9,64.512 C142.848,64.512 143.064,63.948 143.064,63.48 C143.064,63.096 142.848,62.448 141.912,62.448 Z M152.724,59.16 L152.724,57.6 L147.6,57.6 L147.6,66 L152.724,66 L152.724,64.44 L149.544,64.44 L149.544,62.592 L152.724,62.592 L152.724,61.068 L149.544,61.068 L149.544,59.16 L152.724,59.16 Z M156.732,66 L158.676,66 L158.676,59.28 L160.584,59.28 L160.584,57.6 L154.836,57.6 L154.836,59.28 L156.732,59.28 L156.732,66 Z M166.224,63.456 L165.216,60 L164.184,63.456 L166.224,63.456 Z M169.14,66 L167.028,66 L166.704,64.98 L163.716,64.98 L163.392,66 L161.316,66 L164.316,57.6 L166.104,57.6 L169.14,66 Z" id="BETA" fill="#EE4266"></path>
            </g>
        </g>
    </g>
</svg>