<?xml version="1.0" encoding="UTF-8"?>
<svg width="304px" height="149px" viewBox="0 0 304 149" version="1.1" xmlns="http://www.w3.org/2000/svg" xmlns:xlink="http://www.w3.org/1999/xlink">
    <!-- Generator: Sketch 41 (35326) - http://www.bohemiancoding.com/sketch -->
    <title>logo-bobemploi_img</title>
    <desc>Created with Sketch.</desc>
    <defs></defs>
    <g id="Web" stroke="none" stroke-width="1" fill="none" fill-rule="evenodd">
        <g id="Landing-Page" transform="translate(-210.000000, -152.000000)">
            <g id="logo-bobemploi_img" transform="translate(210.000000, 151.000000)">
                <path d="M6.09425131,27.2778191 C1.76836126,29.8581383 -0.427319372,35.1225 1.09608377,40.1586702 L14.2797487,84.541117 L14.2797487,82.6693085 L6.09425131,27.2778191 Z" id="Fill-2" fill="#F37791"></path>
                <path d="M14.279589,13.5491489 C8.73848953,14.942234 5.05613351,20.3374468 5.92003403,26.1012766 L14.279589,82.6688298 L14.279589,13.5491489 Z" id="Fill-4" fill="#EE4266"></path>
                <path d="M57.1242644,135.484947 C80.7481911,135.484947 99.9695785,115.756755 99.9695785,91.5062234 C99.9695785,85.3035638 94.937877,80.2753723 88.7308874,80.2753723 C82.5238979,80.2753723 77.4921963,85.3035638 77.4921963,91.5062234 C77.4921963,103.370585 68.3549712,113.023245 57.1242644,113.023245 C45.8935576,113.023245 36.7563325,103.370585 36.7563325,91.5062234 C36.7563325,79.6418617 45.8935576,69.9876064 57.1242644,69.9876064 C61.0285838,69.9876064 64.8179293,71.1572872 68.0851021,73.3673936 C73.2253901,76.8477128 80.2132435,75.5040957 83.6927984,70.3673936 C87.1739503,65.2322872 85.8293953,58.2493085 80.6907042,54.7705851 C73.6884791,50.0312234 65.5397094,47.5259043 57.1242644,47.5259043 C49.7563586,47.5259043 42.8180079,49.4455851 36.7563325,52.8221809 L36.7563325,12.5631383 C36.7563325,6.36047872 31.7246309,1.33228723 25.5176414,1.33228723 C19.3106518,1.33228723 14.2789503,6.36047872 14.2789503,12.5631383 L14.2789503,91.5062234 C14.2789503,115.756755 33.5003377,135.484947 57.1242644,135.484947" id="Fill-48" fill="#21293C"></path>
                <path d="M138.857877,115.801277 C138.330914,114.036383 137.291359,112.589043 135.739212,111.486383 C134.19505,110.374149 132.396987,109.823617 130.349814,109.823617 C128.126987,109.823617 126.175626,110.447553 124.497327,111.687447 C123.449788,112.469362 122.47251,113.835319 121.570285,115.801277 L138.857877,115.801277 Z M146.830992,122.074149 L121.226961,122.074149 C121.594238,124.335319 122.577903,126.125745 124.184343,127.459787 C125.79238,128.79383 127.839552,129.456064 130.333846,129.456064 C133.308793,129.456064 135.868558,128.417234 138.009945,126.331596 L144.727929,129.489574 C143.056018,131.862447 141.048767,133.611383 138.71416,134.753936 C136.377955,135.888511 133.605809,136.456596 130.389736,136.456596 C125.407537,136.456596 121.345128,134.89117 118.220076,131.750745 C115.085442,128.600745 113.517327,124.670426 113.517327,119.948617 C113.517327,115.097553 115.077458,111.079468 118.204107,107.883191 C121.322772,104.678936 125.239866,103.08 129.949003,103.08 C134.955154,103.08 139.025547,104.678936 142.160181,107.883191 C145.28683,111.079468 146.853348,115.305 146.853348,120.556596 L146.830992,122.074149 Z" id="Fill-49" fill="#21293C"></path>
                <polygon id="Fill-50" fill="#21293C" points="241.301309 135.643085 249.274424 135.643085 249.274424 91.6468085 241.301309 91.6468085"></polygon>
                <path d="M271.697194,110.583511 C269.217272,110.583511 267.163712,111.43883 265.515754,113.165426 C263.861408,114.882447 263.045414,117.087766 263.045414,119.773404 C263.045414,122.529255 263.853424,124.766489 265.483817,126.477128 C267.107822,128.194149 269.170963,129.049468 271.665257,129.049468 C274.167534,129.049468 276.23866,128.187766 277.90099,126.453191 C279.556932,124.718617 280.380911,122.49734 280.380911,119.773404 C280.380911,117.047872 279.574497,114.834574 277.942508,113.131915 C276.310518,111.430851 274.231408,110.583511 271.697194,110.583511 M271.569445,103.080319 C274.568346,103.080319 277.38201,103.831915 280.021618,105.325532 C282.659628,106.828723 284.714785,108.856915 286.195073,111.422872 C287.673764,113.995213 288.416304,116.767021 288.416304,119.741489 C288.416304,122.736702 287.66578,125.534043 286.179105,128.146277 C284.690832,130.750532 282.659628,132.789894 280.093476,134.259574 C277.525728,135.722872 274.686513,136.456915 271.593398,136.456915 C267.042351,136.456915 263.149209,134.843617 259.934733,131.597872 C256.712272,128.363298 255.097848,124.431383 255.097848,119.795745 C255.097848,114.842553 256.919864,110.703191 260.559105,107.403191 C263.748031,104.518085 267.419209,103.080319 271.569445,103.080319" id="Fill-51" fill="#21293C"></path>
                <path d="M294.51822,135.643085 L302.491335,135.643085 L302.491335,103.895745 L294.51822,103.895745 L294.51822,135.643085 Z M298.50877,90.5010638 C299.853325,90.5010638 301.011047,90.9861702 301.977147,91.9579787 C302.940052,92.937766 303.427094,94.1170213 303.427094,95.5148936 C303.427094,96.8792553 302.948037,98.0521277 301.989921,99.0175532 C301.033403,99.987766 299.891649,100.466489 298.56466,100.466489 C297.197749,100.466489 296.030445,99.9718085 295.067539,98.9856383 C294.103037,98.0058511 293.615995,96.8026596 293.615995,95.3984043 C293.615995,94.0484043 294.095052,92.8914894 295.051571,91.9356383 C296.009686,90.9797872 297.157827,90.5010638 298.50877,90.5010638 L298.50877,90.5010638 Z" id="Fill-52" fill="#21293C"></path>
                <path d="M219.700762,129.26633 C214.932542,129.26633 211.066547,125.02484 211.066547,119.792394 C211.066547,114.559947 214.932542,110.318457 219.700762,110.318457 C224.468982,110.318457 228.334976,114.559947 228.334976,119.792394 C228.334976,125.02484 224.468982,129.26633 219.700762,129.26633 M231.431285,107.723777 C228.472306,104.543457 224.338039,103.08016 219.700762,103.08016 C215.065081,103.08016 210.929217,104.543457 207.970238,107.723777 C205.011259,110.904096 203.43995,114.851968 203.43995,119.583351 C203.43995,129.205691 203.430369,149.008883 203.430369,149.008883 L211.33961,149.008883 L211.33961,133.443989 C212.209898,134.254628 215.186442,136.204628 219.721521,136.204628 C224.730866,136.204628 228.919427,134.54984 231.571809,131.632819 C234.430186,128.492394 235.865762,124.480691 235.865762,119.583351 C235.865762,114.851968 234.390264,110.904096 231.431285,107.723777" id="Fill-53" fill="#21293C"></path>
                <path d="M184.025024,103.097872 C179.758217,103.097872 176.70662,104.687234 174.590783,106.784043 C172.474945,104.687234 169.421751,103.097872 165.156542,103.097872 C156.373819,103.097872 151.714186,108.354255 151.714186,115.472872 L151.714186,135.641489 L159.727223,135.641489 L159.727223,116.26117 C159.727223,113.149468 161.384762,110.441489 165.156542,110.441489 C168.926725,110.441489 170.582668,113.149468 170.582668,116.26117 L170.582668,135.641489 L178.595704,135.641489 L178.595704,116.26117 C178.595704,113.149468 180.253243,110.441489 184.025024,110.441489 C187.795207,110.441489 189.454343,113.149468 189.454343,116.26117 L189.454343,135.641489 L197.46738,135.641489 L197.46738,115.472872 C197.46738,108.354255 192.807746,103.097872 184.025024,103.097872" id="Fill-54" fill="#21293C"></path>
                <path d="M136.774935,83.7194681 C135.095039,85.5114894 133.028704,86.3987234 130.566348,86.3987234 C128.030537,86.3987234 125.930668,85.5194681 124.260353,83.7689362 C122.588442,82.0104255 121.758076,79.701383 121.758076,76.8545745 C121.758076,74.07 122.588442,71.8104255 124.260353,70.0854255 C125.930668,68.3492553 128.030537,67.4859574 130.566348,67.4859574 C133.084594,67.4859574 135.166898,68.3652128 136.814856,70.1253191 C138.469202,71.8838298 139.294777,74.1354255 139.294777,76.8848936 C139.294777,79.6535106 138.45483,81.9370213 136.774935,83.7194681 M132.244647,60.0625532 C126.836086,60.0625532 122.90462,62.9907447 122.104594,63.8971277 L122.104594,47.2614894 L114.118704,47.2614894 L114.118704,75.732766 C114.118704,86.6524468 121.106558,93.7646809 130.467343,93.7646809 C135.269097,93.7646809 140.051688,91.9439362 142.772736,88.9487234 C145.741296,85.6806383 147.311008,81.7519149 147.311008,76.9742553 C147.311008,72.0290426 145.849882,67.9710638 142.919647,64.8067021 C139.987814,61.6439362 136.434804,60.0625532 132.244647,60.0625532" id="Fill-55" fill="#21293C"></path>
                <path d="M212.513141,83.7194681 C210.833246,85.5114894 208.766911,86.3987234 206.304555,86.3987234 C203.768743,86.3987234 201.668874,85.5194681 199.99856,83.7689362 C198.326649,82.0104255 197.496283,79.701383 197.496283,76.8545745 C197.496283,74.07 198.326649,71.8104255 199.99856,70.0854255 C201.668874,68.3492553 203.768743,67.4859574 206.304555,67.4859574 C208.822801,67.4859574 210.905105,68.3652128 212.553063,70.1253191 C214.207408,71.8838298 215.032984,74.1354255 215.032984,76.8848936 C215.032984,79.6535106 214.193037,81.9370213 212.513141,83.7194681 M218.657853,64.8067021 C215.726021,61.6439362 212.174607,60.0625532 207.982853,60.0625532 C202.574293,60.0625532 198.642827,62.9907447 197.842801,63.8971277 L197.842801,47.2614894 L189.856911,47.2614894 L189.856911,75.732766 C189.856911,86.6524468 196.844764,93.7646809 206.20555,93.7646809 C211.007304,93.7646809 215.789895,91.9439362 218.510942,88.9487234 C221.479503,85.6806383 223.049215,81.7519149 223.049215,76.9742553 C223.049215,72.0290426 221.588089,67.9710638 218.657853,64.8067021" id="Fill-56" fill="#21293C"></path>
                <path d="M174.667751,83.663617 C172.987856,85.4141489 170.897568,86.2854255 168.371338,86.2854255 C165.851495,86.2854255 163.767594,85.4221277 162.129217,83.6875532 C160.482856,81.9609574 159.666861,79.7029787 159.666861,76.9184043 C159.666861,74.207234 160.49084,71.9811702 162.162751,70.2465957 C163.825081,68.5024468 165.899401,67.6391489 168.403275,67.6391489 C170.961442,67.6391489 173.061312,68.4944681 174.70927,70.2130851 C176.355631,71.9317021 177.171626,74.1657447 177.171626,76.9184043 C177.171626,79.6694681 176.339662,81.9130851 174.667751,83.663617 M176.807542,62.3301064 C174.142385,60.8221277 171.301573,60.0641489 168.273929,60.0641489 C164.083772,60.0641489 160.37906,61.5162766 157.156599,64.4285106 C153.482228,67.7604255 151.64105,71.9396809 151.64105,76.9423404 C151.64105,81.6226596 153.271442,85.5912766 156.527437,88.8593617 C159.772254,92.1354255 163.70372,93.7646809 168.297882,93.7646809 C171.421338,93.7646809 174.289296,93.0226596 176.880997,91.5465957 C179.472699,90.0625532 181.523065,88.0040426 183.025709,85.3726596 C184.526757,82.7348936 185.286861,79.9120213 185.286861,76.8864894 C185.286861,73.8848936 184.534741,71.0843617 183.041678,68.4880851 C181.547018,65.8965957 179.472699,63.8476596 176.807542,62.3301064" id="Fill-57" fill="#21293C"></path>
            </g>
        </g>
    </g>
</svg>