<?xml version="1.0" encoding="UTF-8" standalone="no"?>
<svg width="102px" height="18px" viewBox="0 0 102 18" version="1.1" xmlns="http://www.w3.org/2000/svg" xmlns:xlink="http://www.w3.org/1999/xlink">
    <!-- Generator: sketchtool 41 (35326) - http://www.bohemiancoding.com/sketch -->
    <title>75A36C1F-2F1C-43DB-AE53-741A6818FEF6</title>
    <desc>Created with sketchtool.</desc>
    <defs></defs>
    <g id="Mobile" stroke="none" stroke-width="1" fill="none" fill-rule="evenodd">
        <g id="Mobile---Landing-Page" transform="translate(-110.000000, -72.000000)" fill="#FFFFFF">
            <g id="Group" transform="translate(0.000000, 55.000000)">
                <g id="bob" transform="translate(110.000000, 17.000000)">
                    <path d="M5.56783663,6.21934054 C4.76042079,6.21934054 4.09186634,6.48447568 3.55964851,7.01717838 C3.02743069,7.54696216 2.76283663,8.24069189 2.76283663,9.09544865 C2.76283663,9.96966486 3.02743069,10.6784757 3.55964851,11.2184757 C4.09186634,11.7560432 4.76042079,12.0260432 5.56783663,12.0260432 C6.35202475,12.0260432 7.0104802,11.7536108 7.54522277,11.2033946 C8.07996535,10.6560973 8.34758911,9.95507027 8.34758911,9.10517838 C8.34758911,8.26063784 8.08501485,7.56934054 7.55784653,7.02934054 C7.03320297,6.48934054 6.37020297,6.21934054 5.56783663,6.21934054 L5.56783663,6.21934054 Z M2.87342079,0.395610811 L2.87342079,5.11744865 C3.12791584,4.83917838 4.38019307,3.94015135 6.10257921,3.94015135 C7.43716337,3.94015135 8.56825248,4.42566486 9.50190594,5.39669189 C10.4350545,6.36820541 10.9006188,7.6140973 10.9006188,9.13242162 C10.9006188,10.5991784 10.4007178,11.8056649 9.4554505,12.8088 C8.58895545,13.7287459 7.0655198,14.2877189 5.5365297,14.2877189 C2.55530198,14.2877189 0.329985149,12.1038811 0.329985149,8.75101622 L0.329985149,0.395610811 L2.87342079,0.395610811 Z" id="Fill-4"></path>
                    <path d="M29.6874535,6.21934054 C28.8800376,6.21934054 28.2114832,6.48447568 27.6792653,7.01717838 C27.1470475,7.54696216 26.8824535,8.24069189 26.8824535,9.09544865 C26.8824535,9.96966486 27.1470475,10.6784757 27.6792653,11.2184757 C28.2114832,11.7560432 28.8800376,12.0260432 29.6874535,12.0260432 C30.4716416,12.0260432 31.130097,11.7536108 31.6648396,11.2033946 C32.1995822,10.6560973 32.4672059,9.95507027 32.4672059,9.10517838 C32.4672059,8.26063784 32.2046317,7.56934054 31.6774634,7.02934054 C31.1528198,6.48934054 30.4898198,6.21934054 29.6874535,6.21934054 L29.6874535,6.21934054 Z M26.9930376,0.395610811 L26.9930376,5.11744865 C27.2475327,4.83917838 28.4998099,3.94015135 30.222196,3.94015135 C31.5567802,3.94015135 32.6878693,4.42566486 33.6215228,5.39669189 C34.5546713,6.36820541 35.0202356,7.6140973 35.0202356,9.13242162 C35.0202356,10.5991784 34.5203347,11.8056649 33.5750673,12.8088 C32.7085723,13.7287459 31.1851366,14.2877189 29.6561465,14.2877189 C26.6749188,14.2877189 24.449602,12.1038811 24.449602,8.75101622 L24.449602,0.395610811 L26.9930376,0.395610811 Z" id="Fill-6"></path>
                    <path d="M17.6175208,6.26643243 C16.820204,6.26643243 16.1597287,6.53156757 15.6300356,7.0667027 C15.0978178,7.59940541 14.8352436,8.28291892 14.8352436,9.1152973 C14.8352436,9.97005405 15.0952931,10.6632973 15.6194317,11.1935676 C16.1415505,11.7262703 16.8050554,11.9914054 17.6074218,11.9914054 C18.4118079,11.9914054 19.0778376,11.7238378 19.6125802,11.1862703 C20.144798,10.6487027 20.409897,9.95983784 20.409897,9.1152973 C20.409897,8.27027027 20.1503525,7.58432432 19.6257089,7.05648649 C19.1010653,6.52913514 18.4325109,6.26643243 17.6175208,6.26643243 M17.5766198,3.94054054 C18.5405703,3.94054054 19.4454416,4.17308108 20.2942634,4.63621622 C21.1425802,5.10227027 21.8035604,5.7312973 22.2792238,6.5267027 C22.7548871,7.32405405 22.9942337,8.18367568 22.9942337,9.10556757 C22.9942337,10.0342703 22.7523624,10.9011892 22.2741743,11.7111892 C21.7959861,12.5187568 21.1425802,13.1507027 20.3174911,13.6065405 C19.491897,14.0599459 18.5789465,14.2876216 17.5841941,14.2876216 C16.1208475,14.2876216 14.8690752,13.7875135 13.8354416,12.7814595 C12.7987782,11.7783243 12.2796891,10.5596757 12.2796891,9.12259459 C12.2796891,7.58675676 12.8659366,6.30340541 14.0359069,5.28032432 C15.0619663,4.38616216 16.2420356,3.94054054 17.5766198,3.94054054" id="Fill-8"></path>
                    <path d="M48.2509485,7.88404865 C48.0812851,7.33675135 47.7470079,6.88821081 47.2481168,6.54621081 C46.7517505,6.20177838 46.1735822,6.03102162 45.5151267,6.03102162 C44.8001168,6.03102162 44.1729683,6.22415676 43.6331762,6.60848108 C43.2963743,6.85123784 42.982295,7.27448108 42.6919485,7.88404865 L48.2509485,7.88404865 Z M50.8145822,9.82853514 L42.5813644,9.82853514 C42.6995228,10.5295622 43.0161267,11.0846432 43.5326911,11.4981568 C44.0497604,11.9121568 44.7077109,12.1174541 45.5100772,12.1174541 C46.4664535,12.1174541 47.2895228,11.7954 47.9782752,11.1488595 L50.1384535,12.1276703 C49.6006812,12.8632378 48.9553545,13.4056703 48.2044931,13.7598324 C47.4536317,14.1115622 46.5618891,14.2876703 45.5277505,14.2876703 C43.9260475,14.2876703 42.6197406,13.8021568 41.6143842,12.8286973 C40.606503,11.8523189 40.1025624,10.6336703 40.1025624,9.16983243 C40.1025624,7.6661027 40.6039782,6.42021081 41.6093347,5.42923784 C42.6121663,4.43583243 43.8720178,3.9401027 45.3863644,3.9401027 C46.9961465,3.9401027 48.3049782,4.43583243 49.3128594,5.42923784 C50.3182158,6.42021081 50.8221564,7.73031892 50.8221564,9.3581027 L50.8145822,9.82853514 Z" id="Fill-10"></path>
                    <polygon id="Fill-12" points="81.9211485 14.0351351 84.4847822 14.0351351 84.4847822 0.395513514 81.9211485 0.395513514"></polygon>
                    <path d="M91.6944149,6.26643243 C90.897098,6.26643243 90.2366228,6.53156757 89.7069297,7.0667027 C89.1747119,7.59940541 88.9121376,8.28291892 88.9121376,9.1152973 C88.9121376,9.97005405 89.1721871,10.6632973 89.6963257,11.1935676 C90.2184446,11.7262703 90.8819495,11.9914054 91.6843158,11.9914054 C92.488702,11.9914054 93.1547317,11.7238378 93.6894743,11.1862703 C94.2216921,10.6487027 94.4867911,9.95983784 94.4867911,9.1152973 C94.4867911,8.27027027 94.2272465,7.58432432 93.702603,7.05648649 C93.1779594,6.52913514 92.509405,6.26643243 91.6944149,6.26643243 M91.6535139,3.94054054 C92.6174644,3.94054054 93.5223356,4.17308108 94.3711574,4.63621622 C95.2194743,5.10227027 95.8804545,5.7312973 96.3561178,6.5267027 C96.8317812,7.32405405 97.0706228,8.18367568 97.0706228,9.10556757 C97.0706228,10.0342703 96.8292564,10.9011892 96.3510683,11.7111892 C95.8728802,12.5187568 95.2194743,13.1507027 94.3943851,13.6065405 C93.5687911,14.0599459 92.6558406,14.2876216 91.6610881,14.2876216 C90.1977416,14.2876216 88.9459693,13.7875135 87.9123356,12.7814595 C86.8756723,11.7783243 86.3565832,10.5596757 86.3565832,9.12259459 C86.3565832,7.58675676 86.9428307,6.30340541 88.112801,5.28032432 C89.1383554,4.38616216 90.3189297,3.94054054 91.6535139,3.94054054" id="Fill-14"></path>
                    <path d="M98.929396,14.0351351 L101.49303,14.0351351 L101.49303,4.19302703 L98.929396,4.19302703 L98.929396,14.0351351 Z M100.212475,0.0403783784 C100.644713,0.0403783784 101.016861,0.190702703 101.327406,0.492324324 C101.637446,0.795891892 101.79398,1.16172973 101.79398,1.5947027 C101.79398,2.01794595 101.63997,2.38135135 101.33195,2.68054054 C101.024436,2.98167568 100.656832,3.13005405 100.230149,3.13005405 C99.7908416,3.13005405 99.4156634,2.97681081 99.1056238,2.67081081 C98.7955842,2.36724324 98.6390495,1.99410811 98.6390495,1.5587027 C98.6390495,1.14032432 98.7930594,0.781783784 99.1005743,0.485027027 C99.4085941,0.188756757 99.7782178,0.0403783784 100.212475,0.0403783784 L100.212475,0.0403783784 Z" id="Fill-15"></path>
                    <path d="M74.8967317,12.0584432 C73.363702,12.0584432 72.1205139,10.7434703 72.1205139,9.12152432 C72.1205139,7.49909189 73.363702,6.18411892 74.8967317,6.18411892 C76.4297614,6.18411892 77.6729495,7.49909189 77.6729495,9.12152432 C77.6729495,10.7434703 76.4297614,12.0584432 74.8967317,12.0584432 M78.6687119,5.37995676 C77.7173851,4.39384865 76.3878505,3.94044324 74.8967317,3.94044324 C73.4061178,3.94044324 72.0760782,4.39384865 71.1247515,5.37995676 C70.1734248,6.36606486 69.6679693,7.58957838 69.6679693,9.05633514 C69.6679693,12.0394703 69.6649396,17.7931459 69.6649396,17.7931459 L72.2078703,17.7931459 L72.2078703,13.3534703 C72.1932267,13.4429838 73.3541079,14.2096865 74.903296,14.2096865 C76.5140881,14.2096865 77.861296,13.6964432 78.7141574,12.7920649 C79.6331673,11.8186054 80.0946921,10.5746595 80.0946921,9.05633514 C80.0946921,7.58957838 79.6200386,6.36606486 78.6687119,5.37995676" id="Fill-16"></path>
                    <path d="M63.0882119,3.94574595 C61.7162614,3.94574595 60.7346376,4.43855676 60.0544693,5.0885027 C59.374301,4.43855676 58.3921723,3.94574595 57.0207267,3.94574595 C54.1965386,3.94574595 52.6983505,5.57547568 52.6983505,7.78217838 L52.6983505,14.0349892 L55.2751129,14.0349892 L55.2751129,8.02639459 C55.2751129,7.06169189 55.8078356,6.2225027 57.0207267,6.2225027 C58.2331129,6.2225027 58.7658356,7.06169189 58.7658356,8.02639459 L58.7658356,14.0349892 L61.342598,14.0349892 L61.342598,8.02639459 C61.342598,7.06169189 61.8753208,6.2225027 63.0882119,6.2225027 C64.300598,6.2225027 64.8338257,7.06169189 64.8338257,8.02639459 L64.8338257,14.0349892 L67.4105881,14.0349892 L67.4105881,7.78217838 C67.4105881,5.57547568 65.9124,3.94574595 63.0882119,3.94574595" id="Fill-17"></path>
                </g>
            </g>
        </g>
    </g>
</svg>