<svg width="45" height="45" viewBox="0 0 45 45" xmlns="http://www.w3.org/2000/svg" xmlns:xlink="http://www.w3.org/1999/xlink"><title>B0BA7B59-AD49-4506-953E-A33A5B27B212</title><defs><ellipse id="a" cx="22.5" cy="22.5" rx="22.5" ry="22.5"/></defs><g fill="none" fill-rule="evenodd"><mask id="b" fill="#fff"><use xlink:href="#a"/></mask><use fill="#58BBFB" xlink:href="#a"/><path d="M40.967 45.781l.016-.003s.04 2.736-.401 3.846c0 0-6.754 4.376-18.066 4.376l.006-.255L22.5 54c-11.312 0-18.066-4.376-18.066-4.376-.442-1.11-.402-3.846-.402-3.846-.139-1.97.028-5.948 3.485-6.824 4.639-1.176 8.487-2.968 8.487-2.968.76-1.045.896-3.231.896-3.231-1.452-1.558-2.095-3.507-2.366-5.156a.532.532 0 0 1-.329.114c-.435-.009-1.02-.645-1.65-3.056-.792-3.035-.048-3.634.671-3.628.166.001.193-.002.338.041l.001-.066s-2.132-7.093 2.997-10.213c0 0-.9-.728-.831-1.776 0 0 2.351.266 4.605.27 1.024.003 2.028-.05 2.781-.205.302-.062.606-.086.909-.079 2.116.054 4.144 1.698 4.501 3.285 0 0 .031-.002.088-.002.669-.002 4.871.319 2.855 8.748l-.005.032c.097-.021.2-.035.303-.036.722-.009 1.471.585.676 3.628-.635 2.432-1.223 3.059-1.66 3.057a.584.584 0 0 1-.382-.167c-.266 1.663-.91 3.639-2.38 5.213l.078-.004s.12 1.936.768 3.035c.028.014 3.993 1.992 8.615 3.164 3.459.876 3.624 4.86 3.484 6.827z" fill="#FFF" mask="url(#b)"/></g></svg>