<?xml version="1.0" encoding="UTF-8"?>
<svg width="85px" height="85px" viewBox="0 0 85 85" version="1.1" xmlns="http://www.w3.org/2000/svg" xmlns:xlink="http://www.w3.org/1999/xlink">
    <!-- Generator: Sketch 42 (36781) - http://www.bohemiancoding.com/sketch -->
    <title>moral</title>
    <desc>Created with Sketch.</desc>
    <defs></defs>
    <g id="Proto" stroke="none" stroke-width="1" fill="none" fill-rule="evenodd">
        <g id="advisor---research-(trigger-for-all)" transform="translate(-878.000000, -590.000000)">
            <g id="moral" transform="translate(878.000000, 590.000000)">
                <circle id="Oval-7" fill="#58BBFB" cx="42.5" cy="42.5" r="42.5"></circle>
                <circle id="Oval-6" fill="#40A2E1" cx="44.5" cy="44.5" r="20.5"></circle>
                <g id="Group-2" transform="translate(22.000000, 22.000000)">
                    <circle id="Oval-6" fill="#FFFFFF" cx="20.5" cy="20.5" r="20.5"></circle>
                    <path d="M11,27 C12.3828345,31.1183145 16.1140728,34.0689006 20.5,34.0689006 C24.8859272,34.0689006 28.6171655,31.1183145 30,27 L11,27 L11,27 Z" id="Combined-Shape" fill="#383F52"></path>
                    <path d="M16.7954534,32.3288581 C17.181537,30.9951142 18.6935683,30 20.5,30 C22.3064317,30 23.818463,30.9951142 24.2045466,32.3288581 C23.0578838,32.8064548 21.8080582,33.0689006 20.5,33.0689006 C19.1919418,33.0689006 17.9421162,32.8064548 16.7954534,32.3288581 Z" id="Combined-Shape" fill="#9596A0"></path>
                </g>
                <path d="M32,38 C32,38 35.5,33.5 39,38" id="Path-4" stroke="#383F52" stroke-width="2" stroke-linecap="round" stroke-linejoin="round"></path>
                <path d="M46,38 C46,38 49.5,33.5 53,38" id="Path-4" stroke="#383F52" stroke-width="2" stroke-linecap="round" stroke-linejoin="round"></path>
            </g>
        </g>
    </g>
</svg>