<?xml version="1.0" encoding="UTF-8"?>
<svg width="22px" height="22px" viewBox="0 0 22 22" version="1.1" xmlns="http://www.w3.org/2000/svg" xmlns:xlink="http://www.w3.org/1999/xlink">
    <!-- Generator: Sketch 42 (36781) - http://www.bohemiancoding.com/sketch -->
    <title>reseau</title>
    <desc>Created with Sketch.</desc>
    <defs></defs>
    <g id="Proto" stroke="none" stroke-width="1" fill="none" fill-rule="evenodd">
        <g id="advisor---recap-(multiple-advice-selected)" transform="translate(-461.000000, -655.000000)" fill="#BA1436">
            <path d="M470.5337,661.6 C469.5228,661.6 468.7,660.7772 468.7,659.7663 L468.7,656.8337 C468.7,655.8228 469.5228,655 470.5337,655 L473.4663,655 C474.4772,655 475.3,655.8228 475.3,656.8337 L475.3,659.7663 C475.3,660.7772 474.4772,661.6 473.4663,661.6 L470.5337,661.6 Z M465.7663,670.4 C466.7772,670.4 467.6,671.2228 467.6,672.2337 L467.6,675.1663 C467.6,676.1772 466.7772,677 465.7663,677 L462.8337,677 C461.8228,677 461,676.1772 461,675.1663 L461,672.2337 C461,671.2228 461.8228,670.4 462.8337,670.4 L465.7663,670.4 Z M481.1663,670.4 C482.1772,670.4 483,671.2228 483,672.2337 L483,675.1663 C483,676.1772 482.1772,677 481.1663,677 L478.2337,677 C477.2228,677 476.4,676.1772 476.4,675.1663 L476.4,672.2337 C476.4,671.2228 477.2228,670.4 478.2337,670.4 L481.1663,670.4 Z M470.78395,663.19203 L467.48395,669.79203 L465.51605,668.80753 L468.81605,662.20753 L470.78395,663.19203 Z M473.21605,663.19203 L475.18395,662.20753 L478.48395,668.80753 L476.51605,669.79203 L473.21605,663.19203 Z M469.8,674.79945 L469.8,672.59945 L474.2,672.59945 L474.2,674.79945 L469.8,674.79945 Z" id="reseau"></path>
        </g>
    </g>
</svg>