<svg width="134" height="215" viewBox="0 0 134 215" xmlns="http://www.w3.org/2000/svg" xmlns:xlink="http://www.w3.org/1999/xlink"><title>8D3CE575-A4F5-4C75-9E5A-7D54CD4EDD86</title><defs><ellipse id="b" cx="134.538" cy="69.887" rx="14.538" ry="14.887"/><filter x="-50%" y="-50%" width="200%" height="200%" filterUnits="objectBoundingBox" id="a"><feOffset dy="5" in="SourceAlpha" result="shadowOffsetOuter1"/><feGaussianBlur stdDeviation="7.5" in="shadowOffsetOuter1" result="shadowBlurOuter1"/><feColorMatrix values="0 0 0 0 0 0 0 0 0 0 0 0 0 0 0 0 0 0 0.2 0" in="shadowBlurOuter1"/></filter><ellipse id="d" cx="162.538" cy="29.887" rx="14.538" ry="14.887"/><filter x="-50%" y="-50%" width="200%" height="200%" filterUnits="objectBoundingBox" id="c"><feOffset dy="5" in="SourceAlpha" result="shadowOffsetOuter1"/><feGaussianBlur stdDeviation="7.5" in="shadowOffsetOuter1" result="shadowBlurOuter1"/><feColorMatrix values="0 0 0 0 0 0 0 0 0 0 0 0 0 0 0 0 0 0 0.2 0" in="shadowBlurOuter1"/></filter><ellipse id="f" cx="179.538" cy="103.887" rx="14.538" ry="14.887"/><filter x="-50%" y="-50%" width="200%" height="200%" filterUnits="objectBoundingBox" id="e"><feOffset dy="5" in="SourceAlpha" result="shadowOffsetOuter1"/><feGaussianBlur stdDeviation="7.5" in="shadowOffsetOuter1" result="shadowBlurOuter1"/><feColorMatrix values="0 0 0 0 0 0 0 0 0 0 0 0 0 0 0 0 0 0 0.2 0" in="shadowBlurOuter1"/></filter></defs><g transform="translate(-81)" fill="none" fill-rule="evenodd"><ellipse fill-opacity=".5" fill="#58BBFB" cx="107.5" cy="107.5" rx="107.5" ry="107.5"/><ellipse fill-opacity=".4" fill="#58BBFB" cx="108" cy="108" rx="85" ry="85"/><ellipse fill="#58BBFB" cx="108" cy="108" rx="60" ry="60"/><circle fill="#FFF" cx="108" cy="108" r="35"/><use fill="#000" filter="url(#a)" xlink:href="#b"/><use fill="#FFF" xlink:href="#b"/><use fill="#000" filter="url(#c)" xlink:href="#d"/><use fill="#FFF" xlink:href="#d"/><use fill="#000" filter="url(#e)" xlink:href="#f"/><use fill="#FFF" xlink:href="#f"/><path d="M107.825 109.944c-5.538 0-10.027-4.688-10.027-10.472 0-5.783 4.49-10.472 10.027-10.472 5.537 0 10.026 4.689 10.026 10.472 0 5.784-4.489 10.472-10.026 10.472zm17.825 17.842H90v-2.715c0-6.4 5.013-11.636 11.14-11.636h13.37c6.127 0 11.14 5.236 11.14 11.636v2.715z" fill="#58BBFB" fill-rule="nonzero"/><path d="M134.462 70.227c-2.51 0-4.544-2.125-4.544-4.745 0-2.621 2.034-4.746 4.544-4.746 2.509 0 4.543 2.125 4.543 4.746 0 2.62-2.034 4.745-4.543 4.745zm8.076 8.084h-16.153v-1.23c0-2.9 2.271-5.272 5.048-5.272h6.057c2.777 0 5.048 2.372 5.048 5.272v1.23z" fill="#43D484" fill-rule="nonzero"/><path d="M163 30.49c-2.51 0-4.543-2.124-4.543-4.745 0-2.62 2.034-4.745 4.543-4.745 2.51 0 4.543 2.125 4.543 4.745 0 2.621-2.034 4.745-4.543 4.745zm8.077 8.085h-16.154v-1.23c0-2.9 2.272-5.273 5.048-5.273h6.058c2.776 0 5.048 2.373 5.048 5.273v1.23zM179.077 103.49c-2.51 0-4.543-2.124-4.543-4.745 0-2.62 2.034-4.745 4.543-4.745 2.51 0 4.543 2.125 4.543 4.745 0 2.621-2.034 4.745-4.543 4.745zm8.077 8.085H171v-1.23c0-2.9 2.272-5.273 5.048-5.273h6.058c2.776 0 5.048 2.373 5.048 5.273v1.23z" fill="#F5A623" fill-rule="nonzero"/></g></svg>