<?xml version="1.0" encoding="UTF-8"?>
<svg width="22px" height="27px" viewBox="0 0 22 27" version="1.1" xmlns="http://www.w3.org/2000/svg" xmlns:xlink="http://www.w3.org/1999/xlink">
    <!-- Generator: sketchtool 42 (36781) - http://www.bohemiancoding.com/sketch -->
    <title>F49CD84B-4D3B-4731-BCCA-05DCF23A2D26</title>
    <desc>Created with sketchtool.</desc>
    <defs></defs>
    <g id="Proto" stroke="none" stroke-width="1" fill="none" fill-rule="evenodd">
        <g id="advisor---recap-(with-all-advices)" transform="translate(-460.000000, -309.000000)" fill="#2886C3">
            <path d="M481.026042,314.725446 L476.557292,310.024554 C476.027344,309.467076 474.967448,309 474.208333,309 L461.375,309 C460.615885,309 460,309.647879 460,310.446429 L460,334.553571 C460,335.352121 460.615885,336 461.375,336 L480.625,336 C481.384115,336 482,335.352121 482,334.553571 L482,317.196429 C482,316.397879 481.55599,315.282924 481.026042,314.725446 Z M474.666667,311.049107 C474.910156,311.139509 475.153646,311.275112 475.253906,311.38058 L479.736979,316.09654 C479.83724,316.202009 479.966146,316.458147 480.052083,316.714286 L474.666667,316.714286 L474.666667,311.049107 Z M480.166667,334.071429 L461.833333,334.071429 L461.833333,310.928571 L472.833333,310.928571 L472.833333,317.196429 C472.833333,317.994978 473.449219,318.642857 474.208333,318.642857 L480.166667,318.642857 L480.166667,334.071429 Z M465.5,321.053571 L465.5,322.017857 C465.5,322.289062 465.700521,322.5 465.958333,322.5 L476.041667,322.5 C476.299479,322.5 476.5,322.289062 476.5,322.017857 L476.5,321.053571 C476.5,320.782366 476.299479,320.571429 476.041667,320.571429 L465.958333,320.571429 C465.700521,320.571429 465.5,320.782366 465.5,321.053571 Z M476.041667,324.428571 L465.958333,324.428571 C465.700521,324.428571 465.5,324.639509 465.5,324.910714 L465.5,325.875 C465.5,326.146205 465.700521,326.357143 465.958333,326.357143 L476.041667,326.357143 C476.299479,326.357143 476.5,326.146205 476.5,325.875 L476.5,324.910714 C476.5,324.639509 476.299479,324.428571 476.041667,324.428571 Z M476.041667,328.285714 L465.958333,328.285714 C465.700521,328.285714 465.5,328.496652 465.5,328.767857 L465.5,329.732143 C465.5,330.003348 465.700521,330.214286 465.958333,330.214286 L476.041667,330.214286 C476.299479,330.214286 476.5,330.003348 476.5,329.732143 L476.5,328.767857 C476.5,328.496652 476.299479,328.285714 476.041667,328.285714 Z" id="offer-copy-3"></path>
        </g>
    </g>
</svg>