<?xml version="1.0" encoding="UTF-8"?>
<svg width="22px" height="27px" viewBox="0 0 22 27" version="1.1" xmlns="http://www.w3.org/2000/svg" xmlns:xlink="http://www.w3.org/1999/xlink">
    <!-- Generator: sketchtool 41.2 (35397) - http://www.bohemiancoding.com/sketch -->
    <title>0C8026F8-7E77-494F-955D-6EFC1E0A0FEA</title>
    <desc>Created with sketchtool.</desc>
    <defs></defs>
    <g id="Proto" stroke="none" stroke-width="1" fill="none" fill-rule="evenodd">
        <g id="advisor---reorientation" transform="translate(-727.000000, -1569.000000)" fill="#31BD59">
            <path d="M748.026042,1574.72545 L743.557292,1570.02455 C743.027344,1569.46708 741.967448,1569 741.208333,1569 L728.375,1569 C727.615885,1569 727,1569.64788 727,1570.44643 L727,1594.55357 C727,1595.35212 727.615885,1596 728.375,1596 L747.625,1596 C748.384115,1596 749,1595.35212 749,1594.55357 L749,1577.19643 C749,1576.39788 748.55599,1575.28292 748.026042,1574.72545 Z M741.666667,1571.04911 C741.910156,1571.13951 742.153646,1571.27511 742.253906,1571.38058 L746.736979,1576.09654 C746.83724,1576.20201 746.966146,1576.45815 747.052083,1576.71429 L741.666667,1576.71429 L741.666667,1571.04911 Z M747.166667,1594.07143 L728.833333,1594.07143 L728.833333,1570.92857 L739.833333,1570.92857 L739.833333,1577.19643 C739.833333,1577.99498 740.449219,1578.64286 741.208333,1578.64286 L747.166667,1578.64286 L747.166667,1594.07143 Z M732.5,1581.05357 L732.5,1582.01786 C732.5,1582.28906 732.700521,1582.5 732.958333,1582.5 L743.041667,1582.5 C743.299479,1582.5 743.5,1582.28906 743.5,1582.01786 L743.5,1581.05357 C743.5,1580.78237 743.299479,1580.57143 743.041667,1580.57143 L732.958333,1580.57143 C732.700521,1580.57143 732.5,1580.78237 732.5,1581.05357 Z M743.041667,1584.42857 L732.958333,1584.42857 C732.700521,1584.42857 732.5,1584.63951 732.5,1584.91071 L732.5,1585.875 C732.5,1586.14621 732.700521,1586.35714 732.958333,1586.35714 L743.041667,1586.35714 C743.299479,1586.35714 743.5,1586.14621 743.5,1585.875 L743.5,1584.91071 C743.5,1584.63951 743.299479,1584.42857 743.041667,1584.42857 Z M743.041667,1588.28571 L732.958333,1588.28571 C732.700521,1588.28571 732.5,1588.49665 732.5,1588.76786 L732.5,1589.73214 C732.5,1590.00335 732.700521,1590.21429 732.958333,1590.21429 L743.041667,1590.21429 C743.299479,1590.21429 743.5,1590.00335 743.5,1589.73214 L743.5,1588.76786 C743.5,1588.49665 743.299479,1588.28571 743.041667,1588.28571 Z" id="offer"></path>
        </g>
    </g>
</svg>