<svg width="15" height="16" viewBox="0 0 15 16" xmlns="http://www.w3.org/2000/svg"><title>2E75F06F-8FA3-4DC2-B9F2-2A9AC6BF31A9</title><path d="M14.814 13.48c-.62-1.449-2.107-2.015-3.657-2.456-.434-.126-.93-.315-1.24-.63a1.293 1.293 0 0 1-.372-.945c0-.378.248-.756.434-1.071.124-.189.248-.441.31-.63 0-.063.062-.126.062-.252.062-.189.062-.252.124-.378l.186-.189.062-.063.062-.063.186-.189c.124-.189.186-.378.186-.63v-.252c0-.126.062-.252.062-.315v-.252c0-.252-.124-.504-.31-.63l-.124-.126.062-.378c0-.125 0-.251.062-.377.062-.315.124-.63.124-.945 0-.504-.062-.945-.31-1.323A2.2 2.2 0 0 0 9.67.44C9.545.378 9.421.378 9.36.315A5.676 5.676 0 0 0 7.563 0H7.19c-.434 0-.868.063-1.302.252-.062 0-.062.063-.124.063-.185.126-.31.252-.371.378L5.33.819c-.062.063-.062.126-.186.189-.186.063-.31.189-.434.252-.186.063-.248.189-.372.315-.124.252-.186.504-.186.882v1.07c0 .127 0 .253.062.379 0 .063 0 .125.062.188l.062.315-.31.126c-.248.063-.31.378-.31.567v.378c0 .126 0 .19.062.315v.252c0 .19.062.441.186.63.062.063.124.19.124.19.062.062.186.125.248.188l.124.063.062.126c.124.441.31.882.496 1.26l.062.126.062.063c.062.063.124.126.124.189.062.126.124.189.124.252.062.44.247 1.386-1.55 1.89-1.364.378-3.1 1.133-3.657 2.456C0 13.858 0 14.3 0 14.551v.945c0 .252.186.504.496.504h14.008a.493.493 0 0 0 .496-.504v-.945c0-.315 0-.693-.186-1.07zm-6.384.945c-.124.126-.248.315-.372.441l-.31.378c-.062.063-.124.126-.186.126s-.124-.063-.186-.063l-.682-.882c-.124-.126-.124-.252-.124-.378.062-.378.372-2.582.434-3.212 0-.063.062-.126.186-.126h.682c.062 0 .186.063.186.126.062.63.372 2.897.434 3.212 0 .126 0 .252-.062.378z" fill-rule="nonzero" fill="#FFF"/></svg>