<?xml version="1.0" encoding="UTF-8"?>
<svg width="22px" height="27px" viewBox="0 0 22 27" version="1.1" xmlns="http://www.w3.org/2000/svg" xmlns:xlink="http://www.w3.org/1999/xlink">
    <!-- Generator: sketchtool 41.2 (35397) - http://www.bohemiancoding.com/sketch -->
    <title>7E5D7A6F-C8E2-4D45-90CB-13007EE3C732</title>
    <desc>Created with sketchtool.</desc>
    <defs></defs>
    <g id="Proto" stroke="none" stroke-width="1" fill="none" fill-rule="evenodd">
        <g id="advisor---reorientation" transform="translate(-591.000000, -1401.000000)" fill="#F5A623">
            <path d="M612.026042,1406.72545 L607.557292,1402.02455 C607.027344,1401.46708 605.967448,1401 605.208333,1401 L592.375,1401 C591.615885,1401 591,1401.64788 591,1402.44643 L591,1426.55357 C591,1427.35212 591.615885,1428 592.375,1428 L611.625,1428 C612.384115,1428 613,1427.35212 613,1426.55357 L613,1409.19643 C613,1408.39788 612.55599,1407.28292 612.026042,1406.72545 Z M605.666667,1403.04911 C605.910156,1403.13951 606.153646,1403.27511 606.253906,1403.38058 L610.736979,1408.09654 C610.83724,1408.20201 610.966146,1408.45815 611.052083,1408.71429 L605.666667,1408.71429 L605.666667,1403.04911 Z M611.166667,1426.07143 L592.833333,1426.07143 L592.833333,1402.92857 L603.833333,1402.92857 L603.833333,1409.19643 C603.833333,1409.99498 604.449219,1410.64286 605.208333,1410.64286 L611.166667,1410.64286 L611.166667,1426.07143 Z M596.5,1413.05357 L596.5,1414.01786 C596.5,1414.28906 596.700521,1414.5 596.958333,1414.5 L607.041667,1414.5 C607.299479,1414.5 607.5,1414.28906 607.5,1414.01786 L607.5,1413.05357 C607.5,1412.78237 607.299479,1412.57143 607.041667,1412.57143 L596.958333,1412.57143 C596.700521,1412.57143 596.5,1412.78237 596.5,1413.05357 Z M607.041667,1416.42857 L596.958333,1416.42857 C596.700521,1416.42857 596.5,1416.63951 596.5,1416.91071 L596.5,1417.875 C596.5,1418.14621 596.700521,1418.35714 596.958333,1418.35714 L607.041667,1418.35714 C607.299479,1418.35714 607.5,1418.14621 607.5,1417.875 L607.5,1416.91071 C607.5,1416.63951 607.299479,1416.42857 607.041667,1416.42857 Z M607.041667,1420.28571 L596.958333,1420.28571 C596.700521,1420.28571 596.5,1420.49665 596.5,1420.76786 L596.5,1421.73214 C596.5,1422.00335 596.700521,1422.21429 596.958333,1422.21429 L607.041667,1422.21429 C607.299479,1422.21429 607.5,1422.00335 607.5,1421.73214 L607.5,1420.76786 C607.5,1420.49665 607.299479,1420.28571 607.041667,1420.28571 Z" id="offer-copy-8"></path>
        </g>
    </g>
</svg>