<?xml version="1.0" encoding="UTF-8"?>
<svg width="22px" height="27px" viewBox="0 0 22 27" version="1.1" xmlns="http://www.w3.org/2000/svg" xmlns:xlink="http://www.w3.org/1999/xlink">
    <!-- Generator: Sketch 41.2 (35397) - http://www.bohemiancoding.com/sketch -->
    <title></title>
    <desc>Created with Sketch.</desc>
    <defs></defs>
    <g id="Proto" stroke="none" stroke-width="1" fill="none" fill-rule="evenodd">
        <g id="advisor---reorientation-(défavorable)-usrr-test" transform="translate(-421.000000, -1379.000000)" fill="#DC3457">
            <path d="M442.026042,1384.72545 L437.557292,1380.02455 C437.027344,1379.46708 435.967448,1379 435.208333,1379 L422.375,1379 C421.615885,1379 421,1379.64788 421,1380.44643 L421,1404.55357 C421,1405.35212 421.615885,1406 422.375,1406 L441.625,1406 C442.384115,1406 443,1405.35212 443,1404.55357 L443,1387.19643 C443,1386.39788 442.55599,1385.28292 442.026042,1384.72545 Z M435.666667,1381.04911 C435.910156,1381.13951 436.153646,1381.27511 436.253906,1381.38058 L440.736979,1386.09654 C440.83724,1386.20201 440.966146,1386.45815 441.052083,1386.71429 L435.666667,1386.71429 L435.666667,1381.04911 Z M441.166667,1404.07143 L422.833333,1404.07143 L422.833333,1380.92857 L433.833333,1380.92857 L433.833333,1387.19643 C433.833333,1387.99498 434.449219,1388.64286 435.208333,1388.64286 L441.166667,1388.64286 L441.166667,1404.07143 Z M426.5,1391.05357 L426.5,1392.01786 C426.5,1392.28906 426.700521,1392.5 426.958333,1392.5 L437.041667,1392.5 C437.299479,1392.5 437.5,1392.28906 437.5,1392.01786 L437.5,1391.05357 C437.5,1390.78237 437.299479,1390.57143 437.041667,1390.57143 L426.958333,1390.57143 C426.700521,1390.57143 426.5,1390.78237 426.5,1391.05357 Z M437.041667,1394.42857 L426.958333,1394.42857 C426.700521,1394.42857 426.5,1394.63951 426.5,1394.91071 L426.5,1395.875 C426.5,1396.14621 426.700521,1396.35714 426.958333,1396.35714 L437.041667,1396.35714 C437.299479,1396.35714 437.5,1396.14621 437.5,1395.875 L437.5,1394.91071 C437.5,1394.63951 437.299479,1394.42857 437.041667,1394.42857 Z M437.041667,1398.28571 L426.958333,1398.28571 C426.700521,1398.28571 426.5,1398.49665 426.5,1398.76786 L426.5,1399.73214 C426.5,1400.00335 426.700521,1400.21429 426.958333,1400.21429 L437.041667,1400.21429 C437.299479,1400.21429 437.5,1400.00335 437.5,1399.73214 L437.5,1398.76786 C437.5,1398.49665 437.299479,1398.28571 437.041667,1398.28571 Z" id=""></path>
        </g>
    </g>
</svg>