<svg xmlns="http://www.w3.org/2000/svg" width="20" height="20" viewBox="0 0 20 20">
    <g fill="none" fill-rule="evenodd">
        <rect width="20" height="20" fill="#58BBFB" rx="10"/>
        <path fill="#FFF" fill-rule="nonzero" d="M12.35 10.492l.076-.075c.29-.29.417-.718.303-1.121l-.731-2.708a1.168 1.168 0 0 0-.82-.818l-2.713-.73a1.165 1.165 0 0 0-.933.15l2.977 2.972-2.334 2.33-2.99-2.984a1.212 1.212 0 0 0-.15.932l.73 2.707c.114.403.43.718.82.819l2.713.73c.404.113.833-.013 1.123-.303l.669-.667 1.26-1.234zm-1.79-1.209l.883.882-.253.252-.883-.882.252-.252zm-.38 2.141l-.882-.881.252-.252.883.881-.252.252zm.506-.491l-.883-.881.252-.252.883.881-.252.252zm1.968-.202L15 13.073A7.593 7.593 0 0 1 13.12 15l-2.371-2.367 1.905-1.902z"/>
    </g>
</svg>
