<?xml version="1.0" encoding="UTF-8"?>
<svg width="31px" height="21px" viewBox="0 0 31 21" version="1.1" xmlns="http://www.w3.org/2000/svg" xmlns:xlink="http://www.w3.org/1999/xlink">
    <!-- Generator: sketchtool 42 (36781) - http://www.bohemiancoding.com/sketch -->
    <title>5AE0FAAE-3AA9-48C5-9264-44B4795877D3</title>
    <desc>Created with sketchtool.</desc>
    <defs></defs>
    <g id="Proto" stroke="none" stroke-width="1" fill="none" fill-rule="evenodd">
        <g id="advisor---recap-(with-all-advices)" transform="translate(-956.000000, -656.000000)" fill="#9024D1">
            <path d="M971.736277,658 L983.459562,658 C984.01598,658 984.467046,658.443865 984.467046,659 L984.467046,660 L971.467046,660 L958.467046,660 L958.467046,658 C958.467046,656.895431 959.37245,656 960.476893,656 L967.995661,656 C969.105669,656 970.592711,656.678545 971.314167,657.512228 L971.736277,658 Z M956.054352,664.94562 C955.739153,663.318799 956.826723,662 958.491197,662 L984.445037,662 C986.106068,662 987.197235,663.318003 986.881882,664.94562 L985.117048,674.05438 C984.801849,675.681201 983.195126,677 981.545855,677 L961.390378,677 C959.733262,677 958.134539,675.681997 957.819186,674.05438 L956.054352,664.94562 Z" id="organize_ico"></path>
        </g>
    </g>
</svg>