<svg xmlns="http://www.w3.org/2000/svg" xmlns:xlink="http://www.w3.org/1999/xlink" width="20" height="20" viewBox="0 0 20 20">
    <defs>
        <path id="a" d="M9.5 10.804L7.337 12l.413-2.533L6 7.674l2.418-.37L9.5 5l1.082 2.304 2.418.37-1.75 1.793.413 2.533z"/>
    </defs>
    <g fill="none" fill-rule="evenodd">
        <rect width="20" height="20" fill="#58bbfb" rx="10"/>
        <path fill="#FFF" d="M4.5 12.146L2.955 13l.295-1.809L2 9.91l1.727-.264L4.5 8l.773 1.646L7 9.91 5.75 11.19 6.045 13zM15.5 12.146L13.955 13l.295-1.809L13 9.91l1.727-.264L15.5 8l.773 1.646L18 9.91l-1.25 1.281.295 1.809z"/>
        <use fill="#FFF" xlink:href="#a"/>
    </g>
</svg>
