<svg xmlns="http://www.w3.org/2000/svg" width="20" height="20" viewBox="0 0 20 20">
    <g fill="none" fill-rule="evenodd">
        <rect width="19.704" height="19.704" fill="#58bbfb" rx="9.852"/>
        <path fill="#FFF" fill-rule="nonzero" d="M9.5 6.8c-.664 0-1.32.13-1.93.382L6.407 6.078a.292.292 0 0 0-.397 0l-.4.377a.257.257 0 0 0 0 .377l7.477 7.09c.11.104.288.104.397 0l.398-.377a.257.257 0 0 0 0-.377l-1.219-1.155A4.39 4.39 0 0 0 14 9.977l-.055-.155C13.22 7.803 11.36 6.8 9.5 6.8zm1.697 3.822L8.82 8.37a1.9 1.9 0 0 1 1.973.382c.518.491.677 1.227.404 1.871zm-.487 2.38a5.137 5.137 0 0 1-1.21.148c-1.86 0-3.718-1-4.443-3.022L5 9.977a4.459 4.459 0 0 1 .867-1.566l4.843 4.592z"/>
    </g>
</svg>
