<?xml version="1.0" encoding="UTF-8"?>
<svg width="24px" height="22px" viewBox="0 0 24 22" version="1.1" xmlns="http://www.w3.org/2000/svg" xmlns:xlink="http://www.w3.org/1999/xlink">
    <!-- Generator: Sketch 42 (36781) - http://www.bohemiancoding.com/sketch -->
    <title>reconversion</title>
    <desc>Created with Sketch.</desc>
    <defs></defs>
    <g id="Proto" stroke="none" stroke-width="1" fill="none" fill-rule="evenodd">
        <g id="advisor---recap-(multiple-advice-selected)" transform="translate(-959.000000, -655.000000)" fill="#1A9B3F">
            <g id="Group" transform="translate(959.000000, 655.000000)">
                <path d="M20.7681,13.0005 L22.8091,13.0005 C21.8651,18.1125 17.3821,22.0005 12.0001,22.0005 C7.4121,22.0005 3.4741,19.1745 1.8271,15.1735 L0.000100000001,17.0005 L0.000100000001,11.0005 L6.0001,11.0005 L3.3891,13.6115 C4.5111,17.3045 7.9451,20.0005 12.0001,20.0005 C16.2741,20.0005 19.8551,17.0025 20.7681,13.0005 Z M22.1729,6.8276 L23.9999,5.0006 L23.9999,11.0006 L17.9999,11.0006 L20.6109,8.3896 C19.4889,4.6966 16.0549,2.0006 11.9999,2.0006 C7.7259,2.0006 4.1449,4.9976 3.2319,9.0006 L1.1909,9.0006 C2.1349,3.8886 6.6179,0.000599999999 11.9999,0.000599999999 C16.5879,0.000599999999 20.5259,2.8276 22.1729,6.8276 Z" id="reconversion"></path>
            </g>
        </g>
    </g>
</svg>