<svg width="12" height="16" viewBox="0 0 12 16" xmlns="http://www.w3.org/2000/svg"><title>D99AE614-BDDD-437D-B461-21992EED1AC4</title><path d="M0 0v16h12V3.81H8.516a.384.384 0 0 1-.387-.381V0H0zm8.903 0v3.048H12L8.903 0zM3.871 1.905a.96.96 0 0 1 .968.952.96.96 0 0 1-.968.953.96.96 0 0 1-.968-.953.96.96 0 0 1 .968-.952zm0 2.666C5.047 4.571 6 5.424 6 6.476H1.742c0-1.052.953-1.905 2.129-1.905zm-2.183 3.62h8.57c.14-.002.27.07.34.188.07.119.07.266 0 .384-.07.12-.2.191-.34.19H1.742a.386.386 0 0 1-.414-.355.384.384 0 0 1 .36-.408zm0 2.095h8.57c.14-.002.27.07.34.189.07.118.07.265 0 .384-.07.118-.2.19-.34.189H1.742a.386.386 0 0 1-.414-.355.384.384 0 0 1 .36-.407zm0 2.095h8.57c.14-.002.27.07.34.189s.07.265 0 .384-.2.19-.34.189H1.742a.386.386 0 0 1-.414-.354.384.384 0 0 1 .36-.408z" fill="#FFF" fill-rule="evenodd"/></svg>