<?xml version="1.0" encoding="UTF-8"?>
<svg width="52px" height="52px" viewBox="0 0 52 52" version="1.1" xmlns="http://www.w3.org/2000/svg" xmlns:xlink="http://www.w3.org/1999/xlink">
    <!-- Generator: sketchtool 41.2 (35397) - http://www.bohemiancoding.com/sketch -->
    <title>B309958B-DDCF-4E54-8943-EE7500DFCF75</title>
    <desc>Created with sketchtool.</desc>
    <defs></defs>
    <g id="Page-1" stroke="none" stroke-width="1" fill="none" fill-rule="evenodd">
        <g id="Control-Tower---Test-Icons" transform="translate(-336.000000, -586.000000)">
            <g id="blue-group" transform="translate(336.000000, 586.000000)">
                <circle id="Oval-5" fill="#42CDEE" cx="26" cy="26" r="26"></circle>
                <path d="M17,13 L17,39 L36,39 L36,19.1904762 L30.483871,19.1904762 C30.1453879,19.190442 29.8710016,18.913305 29.8709677,18.5714286 L29.8709677,13 L17,13 Z M31.0967742,13 L31.0967742,17.952381 L36,17.952381 L31.0967742,13 Z M23.1290323,16.0952381 C23.9752751,16.0952381 24.6612903,16.7881381 24.6612903,17.6428571 C24.6612903,18.4975762 23.9752751,19.1904762 23.1290323,19.1904762 C22.2827894,19.1904762 21.5967742,18.4975762 21.5967742,17.6428571 C21.5967742,16.7881381 22.2827894,16.0952381 23.1290323,16.0952381 Z M23.1290323,20.4285714 C24.99075,20.4285714 26.5,21.8143714 26.5,23.5238095 L19.7580645,23.5238095 C19.7580645,21.8143714 21.2673148,20.4285714 23.1290323,20.4285714 Z M19.671875,26.3095238 C19.6814503,26.3092973 19.6910295,26.3092973 19.7006048,26.3095238 C19.7197475,26.3086166 19.7389218,26.3086166 19.7580645,26.3095238 L33.2419355,26.3095238 C33.4629704,26.3063665 33.668566,26.4236609 33.7799957,26.6164927 C33.8914254,26.8093245 33.8914254,27.0478183 33.7799957,27.2406501 C33.668566,27.433482 33.4629704,27.5507764 33.2419355,27.547619 L19.7580645,27.547619 C19.4195674,27.5716582 19.1258671,27.3139888 19.1020666,26.9720982 C19.078266,26.6302077 19.3333779,26.333563 19.671875,26.3095238 Z M19.671875,29.7142857 C19.6814503,29.7140592 19.6910295,29.7140592 19.7006048,29.7142857 C19.7197475,29.7133785 19.7389218,29.7133785 19.7580645,29.7142857 L33.2419355,29.7142857 C33.4629704,29.7111284 33.668566,29.8284228 33.7799957,30.0212546 C33.8914254,30.2140864 33.8914254,30.4525802 33.7799957,30.645412 C33.668566,30.8382439 33.4629704,30.9555383 33.2419355,30.952381 L19.7580645,30.952381 C19.4195674,30.9764201 19.1258671,30.7187507 19.1020665,30.3768601 C19.078266,30.0349696 19.3333779,29.7383249 19.671875,29.7142857 Z M19.671875,33.1190476 C19.6814503,33.1188211 19.6910295,33.1188211 19.7006048,33.1190476 C19.7197475,33.1181404 19.7389218,33.1181404 19.7580645,33.1190476 L33.2419355,33.1190476 C33.4629704,33.1158903 33.668566,33.2331847 33.7799957,33.4260165 C33.8914254,33.6188483 33.8914254,33.8573421 33.7799957,34.050174 C33.668566,34.2430058 33.4629704,34.3603002 33.2419355,34.3571429 L19.7580645,34.3571429 C19.4195674,34.381182 19.1258671,34.1235126 19.1020665,33.781622 C19.078266,33.4397315 19.3333779,33.1430868 19.671875,33.1190476 Z" id="Shape" fill="#FFFFFF"></path>
            </g>
        </g>
    </g>
</svg>