<svg xmlns="http://www.w3.org/2000/svg" xmlns:xlink="http://www.w3.org/1999/xlink" width="131" height="160" viewBox="0 0 131 160">
    <defs>
        <path id="a" d="M0 0h130v160H0z"/>
        <rect id="c" width="110" height="110" rx="55"/>
    </defs>
    <g fill="none" fill-rule="evenodd" transform="translate(.317)">
        <mask id="b" fill="#fff">
            <use xlink:href="#a"/>
        </mask>
        <use fill="#FFF" xlink:href="#a"/>
        <g mask="url(#b)">
            <g transform="translate(10 32)">
                <mask id="d" fill="#fff">
                    <use xlink:href="#c"/>
                </mask>
                <use fill="#CCA5F3" xlink:href="#c"/>
                <g mask="url(#d)">
                    <path fill="#F2C9B2" d="M62.421 39.37v-8.332H49.303v8.332l-.97.075-2.31.832 3.28 20.41H62.42l3.28-20.41-2.149-.82-1.131-.087"/>
                    <path fill="#E59E7F" d="M62.421 39.37l-13.118-4.595v-2.368c2.145 1.534 4.44 2.49 6.56 2.49 2.09 0 4.355-.931 6.477-2.432l.081.017v6.888"/>
                    <path fill="#EBAD53" d="M42.56 104.706h26.65V55.822H42.56z"/>
                    <path fill="#3B3940" d="M52.606 60.183l-4.273-20.728c-37.362 5.606-10.258 16.702-10.258 16.702-6.517 9.303-1.437 15.721 1.676 18.888 0 0-2.846 13.508-9.021 31.741h21.876V60.183"/>
                    <path fill="#69676B" d="M40.728 44.49l7.19 2.708-2.822 3.92 7.51 9.065-4.273-20.728-7.605 5.035"/>
                    <path fill="#3B3940" d="M59.164 60.183l4.388-20.728c3.893.584 7.084 1.228 9.68 1.912 5.596 1.919.464 14.79.464 14.79 6.517 9.303 1.435 15.721-1.677 18.888 0 0 2.846 13.508 9.021 31.741H59.164V60.183"/>
                    <path fill="#69676B" d="M71.042 44.49l-7.19 2.708 2.822 3.92-7.51 9.065 4.388-20.728 7.49 5.035"/>
                    <path fill="#F3F3F1" d="M39.119 101.058h33.909v-1.732H39.119z"/>
                    <path fill="#8E8F8B" d="M42.476 70.885l-.422.113a1.426 1.426 0 0 1-1.74-1 1.42 1.42 0 0 1 1.004-1.734l.423-.113a1.425 1.425 0 0 1 1.74 1.001 1.418 1.418 0 0 1-1.005 1.733"/>
                    <path fill="#C2C2BD" d="M50.753 96.181l-3.168.845-7.18-26.69 3.168-.845 7.18 26.69"/>
                    <path fill="#8E8F8B" d="M47.585 97.026l2.422 2.694.746-3.539-3.168.845M46.9 78.497l-2.121-7.888-4.435 1.184-.17-.631 5.069-1.353 2.291 8.518-.633.17"/>
                    <path fill="#F2C9B2" d="M47.096 92.049l-10.492-.43-.357 8.61 10.493.43c2.074.086 3.835-1.773 3.933-4.15.098-2.379-1.503-4.375-3.577-4.46"/>
                    <path fill="#F2C9B2" d="M45.197 89.48c-3.66-.151-6.332 2.344-6.446 2.498-.449.61-.384 1.516.143 2.022.527.506 1.315.424 1.764-.185.019-.024.521-.415 1.32-.788.8-.373 1.896-.727 3.1-.677.691.028 1.278-.592 1.311-1.385.033-.792-.501-1.458-1.192-1.486"/>
                    <path fill="#3C3A41" d="M39.202 101.021H22.79c-1.643-.067-3.17-.944-4.166-2.247a5.482 5.482 0 0 1-.982-4.576L28.778 46.86l11.28 7.122-10.153 36.243 9.752.4-.455 10.395"/>
                    <path fill="#B66233" d="M63.4 32.578c-4.518-.037-8.182-5.628-8.182-12.57 0-6.94-9.654-39.078 9.842-38.173 15.637.725 19.572 50.914-1.66 50.743"/>
                    <path fill="#F1C9B1" d="M70.889 8.373V1.579c0-7.215-8.388-16.331-15.026-16.331-6.64 0-15.027 9.116-15.027 16.331v6.794c-1.844 0-3.34 1.462-3.34 3.266v3.398c0 1.803 1.496 3.265 3.34 3.265 0 7.216 8.387 16.594 15.027 16.594 6.638 0 15.026-9.378 15.026-16.594 1.844 0 3.34-1.462 3.34-3.265v-3.398c0-1.804-1.496-3.266-3.34-3.266"/>
                    <path fill="#E7A689" d="M55.863 34.896V22.811l-3.34-.654s.903-5.384 3.34-10.453v-26.456c6.638 0 15.026 9.116 15.026 16.331v6.794c1.844 0 3.34 1.462 3.34 3.266v3.398c0 1.803-1.496 3.265-3.34 3.265 0 4.944-3.936 10.9-8.55 14.163-2.121 1.5-4.385 2.431-6.476 2.431m8.2-24.684l-.092.001a2.584 2.584 0 0 0-2.498 2.669 2.585 2.585 0 0 0 2.586 2.49c.031 0 .062 0 .092-.002a2.585 2.585 0 0 0 2.5-2.669 2.586 2.586 0 0 0-2.588-2.49"/>
                    <path fill="#E49D7E" d="M47.662 15.371a2.585 2.585 0 0 1-2.587-2.49 2.584 2.584 0 0 1 2.498-2.668l.092-.001a2.586 2.586 0 0 1 2.587 2.49 2.585 2.585 0 0 1-2.499 2.668l-.091.001"/>
                    <path fill="#2D211A" d="M50.252 12.048a2.585 2.585 0 0 1-2.499 2.669 2.586 2.586 0 0 1-2.678-2.489 2.584 2.584 0 0 1 2.498-2.668 2.586 2.586 0 0 1 2.68 2.488"/>
                    <path fill="#FFFFFE" d="M49.19 11.31a.646.646 0 0 1-.625.668.646.646 0 0 1-.045-1.289.646.646 0 0 1 .67.622"/>
                    <path fill="#2D211A" d="M50.814 10.077c-.478-1.105-1.702-1.943-3.047-2.086-.824-.09-2.37.032-3.7 1.708a.944.944 0 0 1-.197 0 1.946 1.946 0 0 1-.553-.146c-.408-.164-.748-.507-.748-.507l-.093-.015-.037.107s.05.113.15.274a2.636 2.636 0 0 0 1.05.991c.096.049.183.082.247.105.061.022.126.034.115.032a.424.424 0 0 0 .42-.226c.87-1.21 2.034-1.807 3.277-1.673 1.098.116 2.132.813 2.513 1.695a.329.329 0 0 0 .432.17.326.326 0 0 0 .171-.429"/>
                    <path fill="#DA8162" d="M64.06 15.371a2.585 2.585 0 0 1-2.587-2.49 2.584 2.584 0 0 1 2.498-2.668l.092-.001a2.586 2.586 0 0 1 2.587 2.49 2.585 2.585 0 0 1-2.499 2.668l-.092.001"/>
                    <path fill="#2D211A" d="M66.65 12.048a2.585 2.585 0 0 1-2.499 2.669 2.586 2.586 0 0 1-2.678-2.489A2.584 2.584 0 0 1 63.97 9.56a2.586 2.586 0 0 1 2.68 2.488"/>
                    <path fill="#FFFFFE" d="M65.588 11.31a.646.646 0 0 1-.625.668.646.646 0 0 1-.045-1.289.646.646 0 0 1 .67.622"/>
                    <path fill="#2D211A" d="M60.91 10.077c.479-1.105 1.703-1.943 3.047-2.086.825-.09 2.371.032 3.7 1.708a.938.938 0 0 0 .197 0 1.94 1.94 0 0 0 .554-.146c.408-.164.747-.507.747-.507l.093-.015.038.107s-.051.113-.15.274a2.63 2.63 0 0 1-1.051.991 2.088 2.088 0 0 1-.246.105c-.062.022-.127.034-.116.032a.425.425 0 0 1-.42-.226c-.87-1.21-2.034-1.807-3.276-1.673-1.099.116-2.133.813-2.514 1.695a.328.328 0 0 1-.603-.259"/>
                    <path fill="#FFFFFE" d="M64.873 17.757c-3.774 0-6.021-1.983-6.87-6.064-.178-.85-.034-1.569.428-2.133.646-.79 2.288-1.732 6.442-1.732 2.135-.005 4.603-.016 5.45.825.4.396.593 1.002.593 1.853 0 1.21-.291 7.251-6.043 7.251zm-11.15-6.064c-.85 4.08-3.097 6.064-6.871 6.064-5.751 0-6.043-6.04-6.043-7.251 0-.851.194-1.457.593-1.853.768-.763 3.566-.825 5.45-.825 4.154 0 5.796.941 6.441 1.732.463.564.607 1.282.43 2.133zm17.062-4.155c-1.319-.892-3.73-.896-5.912-.887-3.673 0-6.132.718-7.32 2.128-.41-.232-1.01-.3-1.69-.3-.68 0-1.281.068-1.691.3-1.188-1.41-3.647-2.128-7.32-2.128-2.183-.004-4.592-.003-5.912.887h-2.306v2.482l.997.552c.02 3.873 1.919 8.362 7.22 8.362 4.36 0 7.06-2.357 8.028-7.002.07-.337.098-.663.092-.978.066-.259.404-.516.892-.516.486 0 .825.257.89.515-.005.316.023.642.093.979.967 4.645 3.668 7.002 8.027 7.002 5.302 0 7.2-4.49 7.221-8.362l.997-.552V7.538h-2.306z"/>
                    <path fill="#B66233" d="M40.217 32.749c-4.74-15.754-8.053-25.53-5.464-36.158 5.028-20.646 30.34-21.87 32.905-8.914.546 2.757 7.164 18.104 3.31 19.86 0 0-5.44-6.452-8.482-12.497-22.269-.068-14.817 32.813-22.269 37.709"/>
                    <path fill="#E05844" d="M51.065 29.302c0-.722 2.348-1.307 5.247-1.307 2.898 0 5.247.585 5.247 1.307H51.065"/>
                    <path fill="#8E8F8B" d="M78.872 32.307l4.126-15.927a3.265 3.265 0 0 0-2.356-3.98l-1.27-.326a3.282 3.282 0 0 0-3.995 2.347L71.25 30.35a3.265 3.265 0 0 0 2.356 3.979l1.27.326a3.28 3.28 0 0 0 3.995-2.347"/>
                    <path fill="#C2C2BD" d="M72.077 33.738a2.605 2.605 0 0 1-.99-2.756l.405-1.566-.241.933a3.246 3.246 0 0 0 .388 2.538c.093.307.242.595.438.85m7.272-21.668a3.303 3.303 0 0 0-1.39-.045l.012-.194.108-.002c.217 0 .437.027.658.084l.612.157"/>
                    <path fill="#8C4C2A" d="M71.492 29.416l4.049-15.627a2.623 2.623 0 0 1 2.43-1.96l-.012.195a3.276 3.276 0 0 0-2.582 2.397l-3.885 14.995"/>
                    <path fill="#C2C2BD" d="M82.697 13.513a2.681 2.681 0 0 0-.65-.35 3.276 3.276 0 0 0-1.405-.762l-.78-.2 1.415.363c.592.152 1.075.5 1.42.95"/>
                    <path fill="#70706D" d="M71.64 32.887a3.246 3.246 0 0 1-.39-2.538l4.127-15.928a3.276 3.276 0 0 1 3.972-2.352l.513.131.78.2c.543.14 1.02.408 1.406.763a2.557 2.557 0 0 0-.246-.076l-2.54-.653a2.626 2.626 0 0 0-3.197 1.877l-4.453 17.193a2.55 2.55 0 0 0 .027 1.383"/>
                    <path fill="#323138" d="M79.784 14.43l.21-.809a.63.63 0 0 0-1.22-.313l-.209.81a.628.628 0 0 0 1.22.313"/>
                    <path fill="#F2C9B2" d="M71.945 25.48l4.822 6.542 7.37-2.75-2.199-8.633c-.641-1.707-3.861-2.474-5.896-1.715-2.036.76-4.74 4.849-4.097 6.555"/>
                    <path fill="#3B3940" d="M88.162 63.04a4.73 4.73 0 0 0 3.012-1.08 4.69 4.69 0 0 0 1.411-5.274L83.87 26.328l-8.844 3.3L79.6 47.238l-4.978-4.962-5.282 12.118 16.367 7.96a4.73 4.73 0 0 0 2.455.687"/>
                    <path fill="#B38156" d="M-5.48 108.897h121.344v-7.839H-5.481z"/>
                </g>
            </g>
        </g>
        <g mask="url(#b)">
            <path fill="#E59E7F" d="M72 71l-13-4.62V64c2.126 1.542 4.401 2.502 6.5 2.502 2.073 0 4.317-.935 6.42-2.444l.08.017V71"/>
            <path fill="#69676B" d="M58.264 78.844l-2.851 3.971L63 92l-4.317-21L51 76.1zM81 76.1l-7.264 2.744 2.85 3.971L69 92l4.433-21L81 76.1"/>
            <path fill="#F3F3F1" d="M49 133h34v-2H49z"/>
            <path fill="#8E8F8B" d="M52.032 102.836l-.388.115c-.694.205-1.414-.254-1.6-1.02-.186-.766.23-1.562.924-1.767l.388-.115c.694-.206 1.414.254 1.6 1.02.186.767-.23 1.562-.924 1.767M58 128.956L60.294 132l.706-4-3 .956"/>
            <path fill="#8E8F8B" d="M56.397 111l-2.018-8.17-4.218 1.225-.161-.654L54.82 102l2.18 8.824-.603.176"/>
            <path fill="#F2C9B2" d="M54.797 121.007c-3.69-.155-6.381 2.412-6.496 2.572-.452.627-.387 1.56.144 2.08.53.52 1.325.436 1.778-.19.019-.025.525-.428 1.33-.811.806-.384 1.91-.749 3.124-.698.697.03 1.289-.608 1.322-1.424.033-.815-.505-1.5-1.202-1.53"/>
            <path fill="#3C3A41" d="M49.127 133H32.394c-1.674-.067-3.231-.941-4.246-2.24a5.372 5.372 0 0 1-1.001-4.563L38.5 79 50 86.1l-10.351 36.137 9.941.399L49.127 133"/>
            <path fill="#B66233" d="M73.472 65c-4.476-.037-8.105-5.654-8.105-12.628s-9.561-39.262 9.748-38.353c15.488.728 19.385 51.153-1.643 50.98"/>
            <path fill="#F1C9B1" d="M80.636 40.289v-6.842C80.636 26.18 72.187 17 65.5 17c-6.688 0-15.137 9.18-15.137 16.447v6.842c-1.857 0-3.363 1.473-3.363 3.29V47c0 1.816 1.506 3.289 3.363 3.289C50.363 57.556 58.813 67 65.5 67c6.687 0 15.136-9.444 15.136-16.711C82.494 50.289 84 48.816 84 47v-3.422c0-1.816-1.506-3.29-3.364-3.29"/>
            <path fill="#E7A689" d="M66.385 67V54.829L63 54.17s.915-5.423 3.385-10.527V17c6.728 0 15.23 9.18 15.23 16.447v6.842c1.87 0 3.385 1.473 3.385 3.29V47c0 1.816-1.516 3.289-3.385 3.289 0 4.978-3.99 10.977-8.665 14.263C70.8 66.063 68.504 67 66.385 67m8.312-24.86c-.031 0-.062 0-.094.002-1.449.05-2.583 1.253-2.532 2.688.05 1.403 1.215 2.507 2.622 2.507l.093-.001c1.45-.05 2.584-1.254 2.533-2.688-.05-1.403-1.214-2.507-2.622-2.507"/>
            <path fill="#E49D7E" d="M57.498 47a2.5 2.5 0 0 1-.085-4.999L57.5 42a2.5 2.5 0 0 1 .086 4.999l-.089.001"/>
            <path fill="#2D211A" d="M59.998 44.413a2.5 2.5 0 1 1-4.997.173 2.5 2.5 0 0 1 4.997-.173"/>
            <path fill="#FFFFFE" d="M59 43.483a.5.5 0 1 1-1 .035.5.5 0 0 1 1-.035"/>
            <path fill="#2D211A" d="M59.975 42.457c-.455-1.289-1.621-2.266-2.902-2.432-.785-.104-2.257.037-3.523 1.991a.735.735 0 0 1-.187 0 1.588 1.588 0 0 1-.527-.17c-.389-.192-.712-.59-.712-.59l-.089-.019-.035.126s.048.13.142.318c.091.19.236.434.42.648.181.214.399.398.581.508.09.057.174.096.234.123.059.025.12.039.11.037.17.022.326-.09.4-.264.829-1.411 1.937-2.106 3.12-1.95 1.046.135 2.03.948 2.394 1.976.07.194.253.283.41.199.159-.083.232-.307.164-.5"/>
            <path fill="#DA8162" d="M73.498 47a2.5 2.5 0 0 1-.085-4.999l.089-.001a2.5 2.5 0 1 1-.004 5"/>
            <path fill="#2D211A" d="M75.998 44.413a2.5 2.5 0 1 1-4.997.173 2.5 2.5 0 0 1 4.997-.173"/>
            <path fill="#FFFFFE" d="M75 43.483a.5.5 0 1 1-1 .035.5.5 0 0 1 1-.035"/>
            <path fill="#2D211A" d="M71.025 42.457c.456-1.289 1.621-2.266 2.901-2.432.785-.104 2.258.037 3.524 1.991a.73.73 0 0 0 .187 0c.14-.016.336-.071.527-.17.389-.192.712-.59.712-.59l.088-.019.036.126s-.049.13-.142.318a3.06 3.06 0 0 1-.42.648c-.182.214-.399.398-.582.508-.09.057-.173.096-.234.123-.058.025-.12.039-.11.037-.17.022-.324-.09-.4-.264-.828-1.411-1.937-2.106-3.12-1.95-1.046.135-2.03.948-2.393 1.976-.069.194-.253.283-.41.199-.158-.083-.232-.307-.164-.5"/>
            <path fill="#FFFFFE" d="M74.891 49.85c-3.724 0-5.942-1.937-6.78-5.923-.175-.831-.032-1.533.423-2.084.638-.772 2.258-1.692 6.357-1.692 2.107-.004 4.542-.015 5.378.806.393.387.584.978.584 1.81 0 1.183-.287 7.084-5.962 7.084zM63.89 43.928c-.838 3.986-3.056 5.924-6.78 5.924-5.675 0-5.962-5.9-5.962-7.084 0-.832.19-1.423.584-1.81.759-.745 3.519-.806 5.378-.806 4.1 0 5.72.92 6.356 1.692.456.551.599 1.253.424 2.084zm16.835-4.06c-1.301-.87-3.68-.875-5.833-.865-3.624 0-6.051.701-7.223 2.078-.404-.227-.998-.293-1.668-.293-.67 0-1.264.066-1.668.293-1.172-1.377-3.599-2.078-7.223-2.078-2.153-.005-4.531-.004-5.833.866H49v2.425l.984.538c.02 3.784 1.893 8.169 7.125 8.169 4.302 0 6.966-2.302 7.92-6.84.07-.33.097-.648.091-.955.066-.253.4-.504.88-.504s.814.25.88.503c-.006.308.022.627.09.956.955 4.538 3.62 6.84 7.921 6.84 5.232 0 7.105-4.385 7.125-8.169l.984-.538v-2.425h-2.276z"/>
            <path fill="#B66233" d="M50.317 65c-4.7-15.9-7.986-25.765-5.419-36.493 4.987-20.837 30.088-22.072 32.63-8.996.541 2.783 7.104 18.271 3.283 20.045 0 0-5.395-6.513-8.411-12.613C50.317 26.873 57.706 60.058 50.317 65"/>
            <path fill="#E05844" d="M61 61c0-.552 2.238-1 5-1 2.761 0 5 .448 5 1H61"/>
            <path fill="#8E8F8B" d="M88.754 64.526l4.14-16.075a3.297 3.297 0 0 0-2.364-4.016l-1.274-.33a3.292 3.292 0 0 0-4.01 2.37l-4.14 16.075a3.297 3.297 0 0 0 2.364 4.016l1.274.329a3.291 3.291 0 0 0 4.01-2.369"/>
            <path fill="#C2C2BD" d="M82.029 66a2.681 2.681 0 0 1-.949-2.767l.389-1.573-.232.937a3.392 3.392 0 0 0 .373 2.548c.089.31.232.599.419.855M89 44.242a3.03 3.03 0 0 0-1.333-.045l.012-.195.103-.002c.208 0 .42.027.63.084l.588.158"/>
            <path fill="#8C4C2A" d="M81 62l3.749-15.995c.274-1.17 1.21-1.957 2.251-2.005l-.012.199c-1.126.229-2.086 1.152-2.39 2.454L81 62"/>
            <path fill="#C2C2BD" d="M93 45a3.31 3.31 0 0 0-.686-.267 4.02 4.02 0 0 0-1.489-.58L90 44l1.498.277c.626.116 1.138.381 1.502.723"/>
            <path fill="#70706D" d="M81.498 65a3.245 3.245 0 0 1-.392-2.548l4.163-15.991A3.299 3.299 0 0 1 88.47 44c.266 0 .536.032.806.099l.517.132.787.201c.549.14 1.03.41 1.419.766a2.59 2.59 0 0 0-.248-.077l-2.563-.655a2.645 2.645 0 0 0-3.225 1.884L81.47 63.612c-.124.475-.105.951.028 1.388"/>
            <path fill="#323138" d="M89.844 46.544l.142-.784c.06-.324-.08-.657-.308-.74-.228-.084-.463.113-.522.436l-.142.785c-.06.323.08.656.308.74.228.083.463-.114.522-.437"/>
            <path fill="#F2C9B2" d="M82.094 57.648L86.803 64 94 61.33l-2.147-8.381c-.626-1.657-3.77-2.402-5.758-1.664-1.988.737-4.628 4.707-4 6.363"/>
            <path fill="#3B3940" d="M98.185 95a4.855 4.855 0 0 0 3.07-1.088 4.693 4.693 0 0 0 1.438-5.316L93.81 58l-9.015 3.327 4.663 17.746-5.074-5L79 86.286l16.682 8.022c.773.464 1.64.692 2.503.692"/>
        </g>
    </g>
</svg>
