<?xml version="1.0" encoding="UTF-8"?>
<svg width="98px" height="98px" viewBox="0 0 98 98" version="1.1" xmlns="http://www.w3.org/2000/svg" xmlns:xlink="http://www.w3.org/1999/xlink">
    <!-- Generator: sketchtool 41.2 (35397) - http://www.bohemiancoding.com/sketch -->
    <title>12BCFC1C-D524-4632-822C-BAC832A82516</title>
    <desc>Created with sketchtool.</desc>
    <defs>
        <circle id="path-1" cx="49" cy="49" r="49"></circle>
    </defs>
    <g id="Page-1" stroke="none" stroke-width="1" fill="none" fill-rule="evenodd">
        <g id="Action-validation" transform="translate(-671.000000, -343.000000)">
            <g id="Group" transform="translate(481.000000, 240.000000)">
                <g id="jourx_ico" transform="translate(190.000000, 103.000000)">
                    <mask id="mask-2" fill="white">
                        <use xlink:href="#path-1"></use>
                    </mask>
                    <use id="Oval-2" fill="#2C3449" xlink:href="#path-1"></use>
                    <path d="M57.5482624,72 L51.4263204,72 C49.3655173,72 47.694938,70.4326488 47.694938,68.5 C47.694938,66.5673512 49.3655173,65 51.4263204,65 L57.5482624,65 C59.6090654,65 61.2803478,66.5673512 61.2803478,68.5 C61.2803478,70.4326488 59.6090654,72 57.5482624,72 Z M59.8945966,63 L51.4263907,63 C49.3655877,63 47.6943052,61.4326488 47.6943052,59.5 C47.6943052,57.5673512 49.3655877,56 51.4263907,56 L59.8945966,56 C61.9553997,56 63.6266821,57.5673512 63.6266821,59.5 C63.6266821,61.4326488 61.9553997,63 59.8945966,63 Z M62.8638826,54 L51.426461,54 C49.365658,54 47.6943755,52.4326488 47.6943755,50.5 C47.6943755,48.5673512 49.365658,47 51.426461,47 L62.8638826,47 C64.9246857,47 66.5959681,48.5673512 66.5959681,50.5 C66.5959681,52.4326488 64.9246857,54 62.8638826,54 Z M64.018405,45 L51.3702055,45 C49.3404271,45 47.6943052,43.4326488 47.6943052,41.5 C47.6943052,39.5673512 49.3404271,38 51.3702055,38 L64.018405,38 C66.0481834,38 67.6943052,39.5673512 67.6943052,41.5 C67.6943052,43.4326488 66.0481834,45 64.018405,45 Z M39.6721066,71.2468068 C34.323581,67.7745411 31,61.3388582 31,54.4513289 C31,51.1883028 31.7410735,47.9607292 33.1423633,45.1168776 C33.8876554,43.6028446 42.4289844,30.9865982 46.0668536,25.632566 C47.2157285,23.9412702 49.5338682,23.4908141 51.2459308,24.6273816 C52.9565871,25.763949 53.4114966,28.0565481 52.2626217,29.7485391 C46.734101,37.8838596 40.5235677,47.1460154 39.8352272,48.3826843 C38.9380642,50.2185709 38.4641709,52.3158333 38.4641709,54.4513289 C38.4641709,58.8822041 40.4968497,62.9536877 43.7684009,65.0773657 C45.4917131,66.1958593 45.9712313,68.4835924 44.8399341,70.1867057 C44.1234693,71.266271 42.931705,71.852281 41.7167382,71.852281 C41.0143355,71.852281 40.3034956,71.6562492 39.6721066,71.2468068 Z" id="Combined-Shape" fill="#FFFFFF" mask="url(#mask-2)"></path>
                </g>
            </g>
        </g>
    </g>
</svg>