<?xml version="1.0" encoding="UTF-8"?>
<svg width="52px" height="52px" viewBox="0 0 52 52" version="1.1" xmlns="http://www.w3.org/2000/svg" xmlns:xlink="http://www.w3.org/1999/xlink">
    <!-- Generator: sketchtool 41.2 (35397) - http://www.bohemiancoding.com/sketch -->
    <title>E04FCEC8-4719-40CD-83CF-AD67D941D47F</title>
    <desc>Created with sketchtool.</desc>
    <defs></defs>
    <g id="Page-1" stroke="none" stroke-width="1" fill="none" fill-rule="evenodd">
        <g id="Control-Tower---Test-Icons" transform="translate(-336.000000, -1246.000000)">
            <g id="purple-group" transform="translate(336.000000, 1246.000000)">
                <circle id="Oval-5" fill="#D070FF" cx="26" cy="26" r="26"></circle>
                <path d="M23.0005016,32.7788126 L29.0005016,32.7788126 L29.0005016,34.779856 C29.0005016,35.3315645 28.5495264,35.7788126 28.0097236,35.7788126 L23.9912795,35.7788126 C23.444088,35.7788126 23.0005016,35.3361523 23.0005016,34.779856 L23.0005016,32.7788126 Z M23.0259511,24.7788126 L18.9933687,24.7788126 C18.4450233,24.7788126 18.2965854,24.4478241 18.6730692,24.0269576 L25.378833,16.5306676 C25.7502819,16.1154295 26.3533081,16.1206333 26.7154641,16.5306676 L33.3364381,24.0269576 C33.7031902,24.4421957 33.5461216,24.7788126 33.0041272,24.7788126 L29.0768502,24.7788126 L29.0768502,30.7788126 L23.0259511,30.7788126 L23.0259511,24.7788126 Z" id="Combined-Shape" fill="#FFFFFF"></path>
            </g>
        </g>
    </g>
</svg>