<svg xmlns="http://www.w3.org/2000/svg" width="75" height="75" viewBox="0 0 75 75">
    <g fill="none" fill-rule="evenodd">
        <circle cx="37.5" cy="37.5" r="37.5" fill="#2C3449"/>
        <path fill="#FFF" d="M49.085 41.056c-1.585 0-2.87-1.266-2.87-2.827v-5.317c0-1.56 1.285-2.826 2.87-2.826 1.585 0 2.87 1.265 2.87 2.826v5.317c0 1.56-1.285 2.827-2.87 2.827zm-6.49.208c-1.585 0-2.87-1.266-2.87-2.828v-6.588c0-1.562 1.285-2.828 2.87-2.828 1.586 0 2.871 1.266 2.871 2.828v6.588c0 1.562-1.285 2.828-2.87 2.828zm-13.84-.052c-1.378 0-2.594-.979-2.829-2.36L23 21.661c-.262-1.54.793-2.998 2.357-3.256 1.567-.256 3.043.781 3.306 2.321l2.927 17.19c.262 1.539-.793 2.997-2.357 3.255-.16.027-.32.04-.478.04zm6.273 0a2.91 2.91 0 0 1-.345-.02c-1.574-.186-2.697-1.593-2.51-3.143l2.09-17.19c.19-1.55 1.613-2.658 3.192-2.471 1.574.185 2.697 1.593 2.51 3.143l-2.09 17.19c-.175 1.436-1.415 2.49-2.847 2.49zm4.636 15.42c-6.826 0-12.378-5.383-12.378-12.001 0-1.562 1.285-2.827 2.87-2.827h9.351c1.586 0 2.871 1.265 2.871 2.827 0 1.561-1.285 2.827-2.87 2.827h-5.785c1.089 2.085 3.342 3.52 5.94 3.52 3.66 0 6.636-2.847 6.636-6.347 0-1.562 1.285-2.827 2.871-2.827 1.585 0 2.87 1.265 2.87 2.827 0 6.618-5.552 12.002-12.376 12.002z"/>
    </g>
</svg>
