<svg width="45" height="45" viewBox="0 0 45 45" xmlns="http://www.w3.org/2000/svg" xmlns:xlink="http://www.w3.org/1999/xlink"><title>FC56CE93-0DBF-4D2A-8F99-76845A25BB67</title><defs><ellipse id="a" cx="22.5" cy="22.5" rx="22.5" ry="22.5"/></defs><g fill="none" fill-rule="evenodd" opacity=".7"><mask id="b" fill="#fff"><use xlink:href="#a"/></mask><use fill="#58BBFB" xlink:href="#a"/><path d="M26.195 33.263l-.38-2.037a6.96 6.96 0 0 0 1.546-1.157c3.69-.5 7.902-1.291 7.902-1.291-8.949-4.233.864-17.252-12.223-17.772V11c-.014 0-.027.002-.04.003-.014 0-.027-.002-.04-.003v.006c-13.088.52-3.274 13.54-12.224 17.772 0 0 4.214.79 7.903 1.291.493.483 1.034.89 1.618 1.198l-.348 1.863C17.93 35.798 9 35.795 9 46h28c0-10.033-8.63-10.199-10.805-12.737z" fill="#FFF" fill-rule="nonzero" mask="url(#b)"/></g></svg>