<svg width="50" height="50" viewBox="0 0 50 50" xmlns="http://www.w3.org/2000/svg"><title>B0F18346-54B9-4F21-9A07-C50E1597A66A</title><g fill="none" fill-rule="evenodd"><circle fill="#EE4266" cx="25" cy="25" r="25"/><path d="M28.431 26.617v-1.77c0-.762-.608-1.358-1.36-1.358h-3.143c-.754 0-1.36.608-1.36 1.358v1.77H14v-5.78a2.262 2.262 0 0 1 2.247-2.263h18.506A2.258 2.258 0 0 1 37 20.836v5.781h-8.569zm-5.862 1.34v1.77c0 .762.608 1.358 1.36 1.358h3.143c.754 0 1.36-.608 1.36-1.358v-1.77H37v4.794a2.249 2.249 0 0 1-2.247 2.246H16.247A2.255 2.255 0 0 1 14 32.751v-4.794h8.569zm1.353-2.674c0-.25.207-.453.452-.453h2.252c.25 0 .452.211.452.453v4.008c0 .25-.207.454-.452.454h-2.252a.458.458 0 0 1-.452-.454v-4.008zm-3.157-8.932c0-.746.607-1.351 1.357-1.351h6.756c.75 0 1.357.606 1.357 1.351v2.223h-9.47v-2.223zm1.804.887v1.336h5.862v-1.336a.458.458 0 0 0-.46-.45H23.03a.449.449 0 0 0-.46.45z" fill="#FFF"/></g></svg>