<svg width="127" height="40" viewBox="0 0 127 40" fill="none" xmlns="http://www.w3.org/2000/svg">
<mask id="mask0_2307_31" style="mask-type:alpha" maskUnits="userSpaceOnUse" x="103" y="26" width="23" height="15">
<path d="M103.85 26.6661H125.362V40.0001H103.85V26.6661Z" fill="white"/>
</mask>
<g mask="url(#mask0_2307_31)">
<path fill-rule="evenodd" clip-rule="evenodd" d="M121.272 31.7491L119.595 27.7321H117.153L113.725 34.6426C113.727 34.6444 115.411 34.588 116.491 33.7084C116.765 33.5355 117.533 31.3521 118.239 29.8844L119.335 32.8499C117.677 33.7676 116.102 34.5716 115.254 34.8301C113.018 35.5267 110.293 35.9437 109.314 35.0077C108.394 34.1245 110.52 30.428 114.54 29.6058C115.192 29.4492 115.572 29.4893 115.572 29.4938C115.572 29.4893 115.297 28.2301 115.082 27.9642C114.782 27.5682 114.489 27.4862 114.051 27.5463C113.181 27.6028 109.478 28.669 108.017 32.0013C107.203 33.8951 108.287 35.8071 108.988 36.3597C109.313 36.6174 111.416 38.6542 116.277 36.5947C121.068 34.5871 125.358 31.4259 125.362 31.4259V29.3099C125.36 29.3072 123.468 30.4781 121.272 31.75V31.7491ZM107.906 40.0007H124.155V38.4293H107.907V40.0007H107.906ZM120.154 35.1506C120.157 35.1515 120.679 36.4736 120.84 36.9361C121.011 37.3549 121.441 37.3549 121.441 37.354H123.675L122.173 33.9816L120.154 35.1506ZM125.361 28.4859V26.6677C125.357 26.6668 121.831 28.7964 121.442 28.9029C121.115 28.9922 120.975 28.963 120.959 28.9594C120.994 29.0805 121.236 29.8844 121.384 30.1275C121.45 30.2368 121.657 30.5464 122.206 30.3124C122.804 30.0711 125.357 28.4859 125.361 28.4869V28.4859ZM107.159 29.8262C107.127 29.9181 107.087 30.0073 107.041 30.0929C107.005 30.1584 106.96 30.2177 106.905 30.2687C106.858 30.312 106.802 30.3455 106.741 30.367C106.633 30.3978 106.519 30.4054 106.407 30.3893C106.295 30.3731 106.188 30.3336 106.092 30.2732L106.238 29.9227C106.278 29.9464 106.32 29.9646 106.361 29.9791C106.403 29.9932 106.447 30.0003 106.491 30.0001C106.547 30.0021 106.601 29.9844 106.645 29.95C106.697 29.8983 106.736 29.835 106.759 29.7652L105.974 27.733H106.433L106.969 29.2444L107.458 27.733H107.907L107.159 29.8253V29.8262ZM105.321 28.4787C105.296 28.4035 105.256 28.3337 105.205 28.2729C105.158 28.2176 105.1 28.1729 105.034 28.1418C104.968 28.1109 104.897 28.0949 104.824 28.0949C104.752 28.0949 104.68 28.1109 104.615 28.1418C104.547 28.1732 104.488 28.2189 104.44 28.2756C104.388 28.3365 104.347 28.4062 104.32 28.4814C104.289 28.5677 104.274 28.6591 104.275 28.7509C104.275 28.851 104.29 28.9421 104.32 29.0204C104.347 29.0958 104.387 29.1658 104.439 29.2271C104.487 29.2828 104.546 29.3276 104.613 29.3586C104.679 29.3895 104.752 29.4058 104.825 29.4064C104.897 29.407 104.969 29.3915 105.034 29.3609C105.1 29.3296 105.158 29.2846 105.205 29.2289C105.256 29.1681 105.296 29.0983 105.321 29.0231C105.351 28.9355 105.365 28.8434 105.364 28.7509C105.364 28.6507 105.349 28.5597 105.321 28.4796V28.4787ZM105.726 29.2016C105.682 29.3243 105.616 29.4377 105.53 29.5357C105.454 29.6219 105.36 29.6909 105.255 29.7385C105.151 29.786 105.037 29.8109 104.922 29.8116C104.785 29.8167 104.65 29.7788 104.536 29.7033C104.438 29.6351 104.352 29.5504 104.282 29.4529L104.286 29.7688H103.85V26.9545H104.285V28.0717C104.354 27.9642 104.44 27.8732 104.543 27.8004C104.655 27.724 104.788 27.6854 104.924 27.6902C105.038 27.6913 105.151 27.7165 105.255 27.764C105.359 27.8115 105.452 27.8804 105.527 27.9661C105.609 28.0571 105.675 28.1682 105.724 28.2993C105.774 28.4304 105.799 28.5806 105.799 28.75C105.799 28.9202 105.775 29.0705 105.726 29.2007V29.2016Z" fill="#787677"/>
</g>
<mask id="mask1_2307_31" style="mask-type:alpha" maskUnits="userSpaceOnUse" x="106" y="0" width="21" height="23">
<path d="M106.075 0H126.103V22.222H106.075V0Z" fill="white"/>
</mask>
<g mask="url(#mask1_2307_31)">
<path fill-rule="evenodd" clip-rule="evenodd" d="M124.87 0.16758C124.372 -0.0470199 123.809 -0.0555327 123.304 0.143907C123.055 0.240386 122.827 0.385246 122.634 0.570118C122.441 0.754991 122.287 0.976213 122.18 1.221L114.232 19.3978C114.126 19.6421 114.07 19.905 114.066 20.1713C114.062 20.4376 114.111 20.702 114.211 20.9492C114.31 21.1964 114.457 21.4215 114.644 21.6115C114.83 21.8016 115.053 21.9528 115.299 22.0564C115.557 22.1656 115.829 22.2221 116.108 22.2221C116.926 22.2221 117.663 21.7432 117.987 21.002L125.936 2.82526C126.042 2.58092 126.098 2.31802 126.102 2.05174C126.105 1.78546 126.056 1.52108 125.957 1.27388C125.858 1.02668 125.711 0.80156 125.524 0.611518C125.337 0.421475 125.115 0.270281 124.869 0.166669L124.87 0.16758ZM117.948 2.82526L110 21.002C109.84 21.366 109.576 21.6753 109.243 21.892C108.909 22.1087 108.519 22.2234 108.121 22.2221C107.842 22.2221 107.569 22.1665 107.31 22.0555C107.065 21.9517 106.843 21.8005 106.656 21.6105C106.469 21.4205 106.322 21.1955 106.223 20.9485C106.124 20.7014 106.075 20.4372 106.078 20.171C106.082 19.9049 106.138 19.6421 106.244 19.3978L114.194 1.221C114.301 0.976298 114.455 0.755129 114.648 0.570261C114.84 0.385393 115.068 0.240487 115.317 0.143907C115.821 -0.0552815 116.384 -0.0467695 116.882 0.16758C117.127 0.271196 117.35 0.422356 117.537 0.612331C117.723 0.802307 117.87 1.02734 117.97 1.27443C118.069 1.52153 118.118 1.78579 118.114 2.05197C118.111 2.31815 118.054 2.58097 117.948 2.82526Z" fill="#99CC00"/>
</g>
<mask id="mask2_2307_31" style="mask-type:alpha" maskUnits="userSpaceOnUse" x="0" y="0" width="103" height="27">
<path d="M0 0H102.367V26.6661H0V0Z" fill="white"/>
</mask>
<g mask="url(#mask2_2307_31)">
<path fill-rule="evenodd" clip-rule="evenodd" d="M100.175 0.0500763C98.9669 0.0500763 97.9825 1.01791 97.9825 2.20609V19.8165C97.9825 21.0047 98.9669 21.9725 100.175 21.9725C101.382 21.9725 102.367 21.0047 102.367 19.8165V2.20609C102.367 1.01791 101.382 0.0500763 100.175 0.0500763ZM92.4289 5.82796C91.2175 5.82796 90.2368 6.79307 90.2368 7.98124V14.828C90.2368 16.9713 89.143 18.1995 87.2307 18.1995C85.3531 18.1995 84.3186 17.0023 84.3186 14.8271V7.98124C84.3186 6.79398 83.3369 5.82796 82.1256 5.82796C80.9188 5.82796 79.938 6.79307 79.938 7.98124V16.2593C79.938 19.913 81.9597 22.0945 85.3467 22.0945C87.7111 22.0945 89.0382 20.8162 90.0253 19.5671L90.2368 19.3003V19.8174C90.2368 21.0056 91.2175 21.9735 92.4289 21.9735C93.6366 21.9735 94.6173 21.0056 94.6173 19.8174V7.98124C94.6173 6.79398 93.6366 5.82796 92.4289 5.82796ZM76.9028 6.1876H74.78V5.44101C74.78 4.2319 75.3962 3.59183 76.5665 3.59183H76.9621C77.9191 3.59183 78.7267 2.78424 78.7267 1.82551C78.7267 0.860401 77.9656 0.225798 77.2492 0.117452C76.7834 0.0373296 76.1919 0 75.3843 0C73.7829 0 72.5533 0.408804 71.7293 1.21913C70.8835 2.05131 70.456 3.33144 70.456 5.02401V6.15665H70.157C69.1662 6.15665 68.3614 6.94876 68.3614 7.92297C68.3614 8.89718 69.1507 9.66198 70.157 9.66198H70.456V19.8165C70.456 21.0047 71.4404 21.9725 72.6481 21.9725C73.8558 21.9725 74.8393 21.0047 74.8393 19.8165V9.66107H76.9028C77.9091 9.66107 78.6984 8.89718 78.6984 7.92206C78.6984 6.94785 77.9091 6.1876 76.9028 6.1876ZM48.433 5.82796C47.2253 5.82796 46.2409 6.79307 46.2409 7.98124V14.828C46.2409 16.9713 45.1471 18.1995 43.2376 18.1995C41.3599 18.1995 40.3254 17.0023 40.3254 14.8271V7.98124C40.3254 6.79398 39.341 5.82796 38.1342 5.82796C36.9265 5.82796 35.9421 6.79307 35.9421 7.98124V16.2593C35.9421 19.913 37.9674 22.0945 41.3545 22.0945C43.7152 22.0945 45.0432 20.8162 46.0303 19.5671L46.2409 19.3003V19.8174C46.2409 21.0056 47.2253 21.9735 48.433 21.9735C49.6407 21.9735 50.6251 21.0056 50.6251 19.8174V7.98124C50.6251 6.79398 49.6407 5.82796 48.433 5.82796ZM29.3786 13.9895C29.3786 16.5843 27.5548 18.469 25.0391 18.469C22.5699 18.469 20.6367 16.476 20.6367 13.9303V13.8711C20.6367 11.2763 22.4633 9.39157 24.9789 9.39157C27.4481 9.39157 29.3786 11.3846 29.3786 13.9303V13.9895ZM25.0391 5.70778C20.149 5.70778 16.3154 9.32056 16.3154 13.9303V13.9895C16.3154 18.5674 20.1208 22.1528 24.9789 22.1528C29.869 22.1528 33.7026 18.54 33.7026 13.9303V13.8711C33.7026 9.29324 29.8972 5.70778 25.0391 5.70778ZM13.5226 5.82796C12.5446 5.82796 11.8337 6.38518 11.4153 7.48685L7.90612 17.076L4.26752 7.4559C3.85827 6.34512 3.19198 5.82796 2.16019 5.82796C0.908739 5.82796 0 6.69474 0 7.89202C0 8.17335 0.116669 8.60947 0.236072 8.89718L5.81155 21.6111L5.64202 22.0135C5.1799 22.8958 4.7269 23.0405 3.8929 23.0405C3.55019 23.0405 3.305 22.9859 2.8839 22.8584C2.65141 22.7775 2.40634 22.7387 2.16019 22.7437C1.32164 22.7437 0.455737 23.3938 0.455737 24.4791C0.455737 25.5371 1.2077 26.0287 1.83662 26.2545C2.66059 26.5459 3.38065 26.6661 4.31765 26.6661C6.96275 26.6661 8.32449 25.5525 9.7081 22.2548L15.3902 8.83527C15.4723 8.64407 15.5917 8.14877 15.5917 7.80188C15.5917 6.69474 14.6829 5.82796 13.5226 5.82796ZM67.305 7.78094V7.69171C67.305 6.68563 66.43 5.98366 65.1758 5.98366H55.0585C54.0841 5.98366 53.292 6.76303 53.292 7.72267C53.292 8.66228 54.085 9.42981 55.0594 9.42981H61.7642L54.0212 17.8408C53.2729 18.6393 53.0186 19.1774 53.0186 19.9759V20.0651C53.0186 21.0712 53.8954 21.7732 55.1505 21.7732H65.5413C66.512 21.7732 67.305 21.0056 67.305 20.0651C67.305 19.1064 66.512 18.3261 65.5404 18.3261H58.5275L66.3051 9.9151C67.0525 9.11752 67.305 8.57943 67.305 7.78094Z" fill="#009597"/>
</g>
</svg>
