<svg width="32" height="24" viewBox="0 0 32 24" fill="none" xmlns="http://www.w3.org/2000/svg">
<path d="M13.3301 7.79674L8.88672 0.172241H17.7734L13.3301 7.79674Z" fill="#F58220"/>
<path d="M17.7734 0.172241L13.3301 7.79674H22.2167L17.7734 0.172241Z" fill="#EA1C2D"/>
<path d="M8.88669 0.172241L4.44336 7.79674H13.33L8.88669 0.172241Z" fill="#FFD200"/>
<path d="M8.88669 15.4031L4.44336 7.79675H13.33L8.88669 15.4031Z" fill="#C1D52F"/>
<path d="M17.7734 15.4031L13.3301 7.79675H22.2167L17.7734 15.4031Z" fill="#AC1E2D"/>
<path d="M4.44333 7.79675L0 15.4031H8.88667L4.44333 7.79675Z" fill="#00A94F"/>
<path d="M22.2168 7.79675L17.7734 15.4031H26.6601L22.2168 7.79675Z" fill="#C9187E"/>
<path d="M4.44333 23.0093L0 15.403H8.88667L4.44333 23.0093Z" fill="#008445"/>
<path d="M22.2168 23.0093L17.7734 15.403H26.6601L22.2168 23.0093Z" fill="#873795"/>
<path d="M13.3301 15.403L8.88672 23.0093H17.7734L13.3301 15.403Z" fill="white"/>
<path d="M26.6601 15.403L22.2168 23.0093H31.1035L26.6601 15.403Z" fill="#F99D25"/>
</svg>
