<?xml version="1.0" encoding="UTF-8"?>
<svg width="68px" height="41px" viewBox="0 0 68 41" version="1.1" xmlns="http://www.w3.org/2000/svg">
    <g stroke="none" fill="#fff" fill-rule="evenodd">
      <path d="M52.54 14.328a5.1 5.1 0 1 1 0 10.2 5.1 5.1 0 1 1 0-10.2zm-4.72-8.77V11.53A9.2 9.2 0 1 1 43.363 18.767V6.133a2.228 2.228 0 1 1 4.456 0zM31.394 14.328a5.1 5.1 0 1 1 0 10.2 5.1 5.1 0 1 1 0-10.2zm0-4.1a9.2 9.2 0 1 1 0 18.4 9.2 9.2 0 1 1 0-18.4zM0 19.439a9.467 9.467 0 0 0 18.93 0c0-1.307-1.111-2.366-2.482-2.366-1.372 0-2.483 1.06-2.483 2.366 0 2.5-2.019 4.533-4.5 4.533-2.48 0-4.5-2.033-4.5-4.533 0-2.5 2.02-4.534 4.5-4.534.863 0 1.7.247 2.422.712 1.135.734 2.679.45 3.448-.632.769-1.081.472-2.553-.664-3.286a9.2 9.2 0 0 0-9.706.41V2.807A2.4825 2.4825 0 0 0 0 2.807" id="bob"/>
      <path d="M44.845,41 L44.845,34 L47.745,34 C49.665,34 50.015,35.16 50.015,35.89 C50.015,36.76 49.355,37.32 48.795,37.45 C49.245,37.46 50.075,37.99 50.075,39.04 C50.075,39.77 49.695,41 47.775,41 L44.845,41 Z M46.455,36.85 L47.425,36.85 C48.215,36.85 48.395,36.36 48.395,36.01 C48.395,35.7 48.245,35.19 47.425,35.19 L46.455,35.19 L46.455,36.85 Z M47.475,38.04 L46.455,38.04 L46.455,39.76 L47.465,39.76 C48.255,39.76 48.435,39.29 48.435,38.9 C48.435,38.58 48.255,38.04 47.475,38.04 Z M55.485,35.3 L52.835,35.3 L52.835,36.89 L55.485,36.89 L55.485,38.16 L52.835,38.16 L52.835,39.7 L55.485,39.7 L55.485,41 L51.215,41 L51.215,34 L55.485,34 L55.485,35.3 Z M57.825,41 L57.825,35.4 L56.245,35.4 L56.245,34 L61.035,34 L61.035,35.4 L59.445,35.4 L59.445,41 L57.825,41 Z M65.315,38.88 L64.475,36 L63.615,38.88 L65.315,38.88 Z M67.745,41 L65.985,41 L65.715,40.15 L63.225,40.15 L62.955,41 L61.225,41 L63.725,34 L65.215,34 L67.745,41 Z" id="BETA"></path>
    </g>
</svg>
