<?xml version="1.0" encoding="UTF-8"?>
<svg width="645px" height="111px" viewBox="0 0 645 111" version="1.1" xmlns="http://www.w3.org/2000/svg" xmlns:xlink="http://www.w3.org/1999/xlink">
    <!-- Generator: Sketch 51.2 (57519) - http://www.bohemiancoding.com/sketch -->
    <title>cs-logo</title>
    <desc>Created with Sketch.</desc>
    <defs>
        <polygon id="path-1" points="46.1998015 0.365540643 46.1998015 57.3072136 0.280545936 57.3072136 0.280545936 0.365540643"></polygon>
    </defs>
    <g id="Page-1" stroke="none" stroke-width="1" fill="none" fill-rule="evenodd">
        <g id="cs-logo">
            <path d="M265.556986,53.2190841 L265.556986,51.6974206 C265.556986,35.7248308 256.778158,24.6293677 240.805568,24.6293677 C225.564547,24.6293677 214.591012,36.7002561 214.591012,53.1605586 C214.591012,69.9866456 225.198763,81.5698214 241.049424,81.5698214 C241.079906,81.5698214 241.10795,81.5673828 241.138432,81.5673828 C241.571277,81.5649442 241.980956,81.5503129 242.369906,81.5247079 C255.245521,81.0577231 263.287903,73.8529877 264.673007,65.6264943 C264.673007,65.6264943 265.191201,62.5502467 262.06984,62.5502467 L253.298328,62.5502467 C251.659613,62.5502467 250.840256,63.6268724 250.623224,64.1121465 C249.024746,67.6773261 245.558328,69.3757854 241.053082,69.3770047 L241.049424,69.3770047 C234.343375,69.3770047 229.710105,64.4998781 229.222392,56.3306909 L262.408801,56.3306909 C265.556986,56.3306909 265.556986,53.2190841 265.556986,53.2190841 M250.68175,47.1860784 L229.588177,47.1860784 C230.929387,40.4800293 235.074944,36.9441125 240.927496,36.9441125 C247.145833,36.9441125 250.559821,41.4554546 250.68175,47.1860784" id="Fill-1" fill="#231F1F" fill-rule="nonzero"></path>
            <path d="M557.203185,53.2190841 L557.203185,51.6974206 C557.203185,35.7248308 548.424357,24.6293677 532.451767,24.6293677 C517.210747,24.6293677 506.237212,36.7002561 506.237212,53.1605586 C506.237212,69.9866456 516.844962,81.5698214 532.695624,81.5698214 C532.726106,81.5698214 532.754149,81.5673828 532.784631,81.5673828 C533.217476,81.5649442 533.627155,81.5503129 534.016106,81.5247079 C546.89172,81.0577231 554.934102,73.8529877 556.319206,65.6264943 C556.319206,65.6264943 556.837401,62.5502467 553.71604,62.5502467 L544.944527,62.5502467 C543.305813,62.5502467 542.486456,63.6268724 542.269423,64.1121465 C540.670945,67.6773261 537.204527,69.3757854 532.699282,69.3770047 L532.695624,69.3770047 C525.989575,69.3770047 521.356304,64.4998781 520.868592,56.3306909 L554.055,56.3306909 C557.203185,56.3306909 557.203185,53.2190841 557.203185,53.2190841 M542.327949,47.1860784 L521.234376,47.1860784 C522.575586,40.4800293 526.721144,36.9441125 532.573696,36.9441125 C538.792032,36.9441125 542.206021,41.4554546 542.327949,47.1860784" id="Fill-3" fill="#231F1F" fill-rule="nonzero"></path>
            <path d="M209.836423,53.2190841 L209.836423,51.6974206 C209.836423,35.7248308 201.057595,24.6293677 185.085006,24.6293677 C169.843985,24.6293677 158.87045,36.7002561 158.87045,53.1605586 C158.87045,69.9866456 169.4782,81.5698214 185.328862,81.5698214 C185.359344,81.5698214 185.387388,81.5673828 185.41787,81.5673828 C185.850715,81.5649442 186.260393,81.5503129 186.648125,81.5247079 C199.524958,81.0577231 207.56734,73.8529877 208.952444,65.6264943 C208.952444,65.6264943 209.470639,62.5502467 206.349278,62.5502467 L197.577766,62.5502467 C195.939051,62.5502467 195.119694,63.6268724 194.902662,64.1121465 C193.304183,67.6773261 189.837766,69.3757854 185.33252,69.3770047 L185.328862,69.3770047 C178.622813,69.3770047 173.989543,64.4998781 173.50183,56.3306909 L206.688238,56.3306909 C209.836423,56.3306909 209.836423,53.2190841 209.836423,53.2190841 M194.961187,47.1860784 L173.867614,47.1860784 C175.208824,40.4800293 179.354382,36.9441125 185.206934,36.9441125 C191.42527,36.9441125 194.839259,41.4554546 194.961187,47.1860784" id="Fill-5" fill="#231F1F" fill-rule="nonzero"></path>
            <path d="M0,42.9189584 C0,65.8414537 14.8752363,81.5701871 34.8714556,81.5701871 C51.3841871,81.5701871 61.9407278,72.5292136 65.5461437,59.0171342 C65.8021928,58.0624367 65.2925331,56.0872004 63.3611909,56.0872004 L53.8434783,56.0872004 C53.8434783,56.0872004 50.7221172,56.0872004 49.6430529,59.0159149 C48.1616257,63.0371059 43.5283554,67.6703762 34.8714556,67.6703762 C22.9224953,67.6703762 15.8506616,57.063845 15.8506616,42.9189584 C15.8506616,28.6533629 22.9224953,18.1675406 34.8714556,18.1675406 C42.3566257,18.1675406 46.8326087,21.6303006 49.5625803,26.9817278 C49.9905482,27.8205936 51.331758,29.6300076 53.3594234,29.6300076 L63.0856333,29.6300076 C63.0856333,29.6300076 66.2069943,29.6300076 65.6327127,26.5610756 C63.4026465,14.6316238 52.5510397,4.26772968 34.8714556,4.26772968 C14.8752363,4.26772968 0,19.9964631 0,42.9189584" id="Fill-7" fill="#231F1F" fill-rule="nonzero"></path>
            <path d="M430.279378,10.1210132 C430.279378,5.12073913 426.13504,1.46289414 421.378622,1.46289414 C416.501495,1.46289414 412.355938,5.12073913 412.355938,10.1210132 C412.355938,15.2407769 416.501495,18.777913 421.378622,18.777913 C426.13504,18.777913 430.279378,15.2407769 430.279378,10.1210132 Z M407.940919,77.230276 L407.940919,44.7473932 C407.940919,44.5608431 407.911656,44.4011172 407.90556,44.2194442 C407.538556,32.5728658 400.586212,24.8645671 388.483622,24.8645671 C382.131164,24.8645671 376.677318,27.6542836 373.705928,31.0646144 L373.707147,4.2184707 C373.707147,4.2184707 373.707147,1.09832892 370.584567,1.09832892 L361.709416,1.09832892 C361.709416,1.09832892 358.586836,1.09832892 358.586836,4.2184707 L358.586836,77.230276 C358.586836,77.230276 358.586836,80.3516371 361.709416,80.3516371 L370.584567,80.3516371 C370.584567,80.3516371 373.707147,80.3516371 373.707147,77.230276 L373.707147,48.9661078 C373.707147,48.9661078 373.710805,47.4078658 373.925399,45.6569773 C375.345862,41.2541512 379.218301,38.6570813 383.680871,38.6570813 C389.715096,38.6570813 392.670635,42.5977996 392.670635,48.3857297 L392.670635,62.8537259 L392.670635,77.230276 C392.670635,77.230276 392.670635,80.3516371 395.791996,80.3516371 L404.851259,80.3516371 C404.851259,80.3516371 407.940919,80.3516371 407.940919,77.230276 Z M118.148149,77.230276 L118.148149,45.6021096 C118.148149,32.5545766 109.735106,24.6292457 95.2256541,24.6292457 C84.1350681,24.6292457 75.8561456,30.6415236 73.070087,38.9472703 C72.7323459,39.954397 73.0347278,42.0649735 75.2513819,42.0649735 L84.8471285,42.0649735 C86.4468261,42.0649735 87.2283856,40.8542268 87.5795388,40.3262779 C88.9951248,38.1974121 91.3190756,36.9452098 94.7379414,36.9452098 C100.83435,36.9452098 103.638698,40.724983 103.638698,45.357034 L103.638698,49.3806635 C101.443991,47.7955974 95.9572231,46.2117505 91.2020246,46.2117505 C79.3749924,46.2117505 70.1084518,53.2823648 70.1084518,63.646259 C70.1084518,74.9855784 79.3749924,81.3258431 90.3485274,81.3258431 C96.3230076,81.3258431 101.809775,78.7653516 103.638698,76.9364291 L103.638698,78.8872798 C103.638698,78.8872798 103.638698,80.3516371 106.760059,80.3516371 L115.026788,80.3516371 C115.026788,80.3516371 118.148149,80.3516371 118.148149,77.230276 Z M103.638698,65.4751815 C102.297488,68.4026767 98.1519301,70.2315992 93.7625161,70.2315992 C89.0073176,70.2315992 84.1301909,68.2795293 84.1301909,63.5255501 C84.1301909,58.8922798 89.0073176,56.8195009 93.7625161,56.8195009 C98.1519301,56.8195009 102.297488,58.6484234 103.638698,61.5734802 L103.638698,65.4751815 Z M413.819076,28.9711078 L413.819076,77.230276 C413.819076,77.230276 413.819076,80.3516371 416.940437,80.3516371 L425.816807,80.3516371 C425.816807,80.3516371 428.936949,80.3516371 428.936949,77.230276 L428.936949,28.9711078 C428.936949,28.9711078 428.936949,25.8485274 425.816807,25.8485274 L416.940437,25.8485274 C416.940437,25.8485274 413.819076,25.8485274 413.819076,28.9711078 Z" id="Fill-11" fill="#231F1F" fill-rule="nonzero"></path>
            <path d="M504.409265,77.5670416 L504.409265,69.8587429 C504.409265,68.1590643 502.453537,67.4043289 501.564681,67.6408696 C500.464888,67.9347164 499.107828,68.157845 497.826363,68.157845 C493.922223,68.157845 491.606807,66.2082136 491.606807,61.9407278 L491.606807,38.0428072 L501.269614,38.0428072 C501.547611,38.0391493 501.784151,37.9757467 501.999964,37.890397 C502.148716,37.8379679 502.27796,37.7635917 502.410862,37.6831191 C502.416958,37.6794612 502.423055,37.6758034 502.430371,37.6709263 C503.094879,37.2636862 503.555767,36.5625992 503.555767,35.726172 L503.555767,35.6895936 L503.555767,28.2019849 L503.555767,28.1666257 C503.555767,27.3289792 503.094879,26.6278922 502.430371,26.2218715 C502.423055,26.2169943 502.416958,26.2133365 502.410862,26.2084594 C502.27796,26.129206 502.148716,26.0536106 501.999964,26.0011815 C501.784151,25.917051 501.547611,25.8536484 501.269614,25.8499905 L491.606807,25.8499905 L491.606807,14.2168242 C491.606807,14.2168242 491.606807,11.0966824 488.485446,11.0966824 L479.732223,11.0966824 C479.732223,11.0966824 476.609643,11.0966824 476.609643,14.2168242 L476.609643,25.8499905 L457.346212,25.8499905 L457.346212,20.3620038 C457.346212,15.3641682 460.15056,12.8024575 464.78383,12.8024575 C465.658055,12.8024575 466.560323,12.8865879 467.351637,13.034121 C468.813556,13.2913894 470.148669,12.0721078 470.148669,10.7735728 L470.148669,3.92730624 C470.148669,1.09857278 468.633102,0.868128544 467.779605,0.651096408 C466.072611,0.217032136 464.093716,0 461.735626,0 C450.15245,0 442.470975,7.07305293 442.470975,19.3865784 L442.470975,25.8499905 L435.856372,25.8499905 C435.579595,25.8536484 435.341836,25.917051 435.126023,26.0011815 C434.97727,26.0536106 434.849246,26.129206 434.716344,26.2084594 C434.709028,26.2133365 434.702932,26.2169943 434.696836,26.2218715 C434.031108,26.6278922 433.570219,27.3289792 433.570219,28.1666257 L433.570219,28.2019849 L433.570219,35.6895936 L433.570219,35.726172 C433.570219,36.5625992 434.031108,37.2636862 434.696836,37.6709263 C434.702932,37.6745841 434.709028,37.6794612 434.716344,37.6831191 C434.849246,37.7635917 434.97727,37.8379679 435.126023,37.890397 C435.341836,37.9757467 435.579595,38.0379301 435.856372,38.0428072 L442.470975,38.0428072 L442.470975,77.2305198 C442.470975,77.2305198 442.470975,80.3506616 445.592336,80.3506616 L454.224851,80.3506616 C454.224851,80.3506616 457.346212,80.3506616 457.346212,77.2305198 L457.346212,38.0428072 L476.609643,38.0428072 L476.609643,63.8903592 C476.609643,75.9624669 483.558329,81.4492344 494.655011,81.4492344 C497.230134,81.4492344 499.655285,81.1992817 501.611013,80.7310775 C502.710805,80.4689319 504.409265,79.6593289 504.409265,77.5670416" id="Fill-13" fill="#231F1F" fill-rule="nonzero"></path>
            <path d="M157.773584,37.3112382 L157.773584,27.6594045 C157.773584,25.484206 156.293376,25.0403875 155.053367,24.8526181 C154.153537,24.7160586 153.120805,24.6294896 152.04296,24.6294896 C146.678121,24.6294896 142.166779,27.7996219 139.850144,31.7025425 L139.850144,28.5311909 C139.850144,28.5311909 139.850144,25.8487713 136.728783,25.8487713 L127.852412,25.8487713 C127.852412,25.8487713 124.731051,25.8487713 124.731051,28.9713516 L124.731051,77.2305198 C124.731051,77.2305198 124.731051,80.3506616 127.852412,80.3506616 L136.728783,80.3506616 C136.728783,80.3506616 139.850144,80.3506616 139.850144,77.2305198 L139.850144,49.6991399 C139.850144,49.6991399 139.850144,46.5765595 140.39882,44.0770321 C140.947497,41.578724 145.093055,38.8950851 150.214038,38.8950851 C151.894208,38.8950851 153.530484,39.1145558 154.794879,39.4205955 C155.64106,39.6254348 157.773584,39.384017 157.773584,37.3112382" id="Fill-15" fill="#231F1F" fill-rule="nonzero"></path>
            <path d="M322.49622,41.2126957 C322.49622,37.7974877 326.033356,36.0917127 329.691201,36.0917127 C333.763602,36.0917127 336.216797,37.6292268 337.514112,39.8471002 C337.809179,40.3518828 338.679746,41.4553327 340.222137,41.4553327 L349.492336,41.4553327 C349.492336,41.4553327 352.612477,41.4553327 352.063801,38.3839622 C350.783555,31.214586 343.224009,24.6292457 329.446126,24.6292457 C317.253309,24.6292457 307.742912,31.7010794 307.742912,42.3088299 C307.742912,51.4534423 313.595464,55.7209282 321.886579,57.6729981 L332.860114,60.1115614 C336.639888,61.0869868 338.346882,62.3062684 338.346882,64.7448318 C338.346882,68.2795293 335.298678,70.1084518 330.665407,70.1084518 C326.154065,70.1084518 322.740077,68.0368922 322.130436,66.0848223 C322.130436,66.0848223 321.520795,64.1351909 318.399434,64.1351909 L309.785209,64.1351909 C307.624642,64.1351909 306.93209,66.3664764 307.255199,67.4040851 C310.080275,76.4670057 318.86398,81.5709187 330.788555,81.5709187 C343.467865,81.5709187 353.10019,74.9855784 353.10019,63.8913346 C353.10019,55.6002193 348.101135,50.3573081 338.590738,48.040673 L327.373347,45.4801815 C323.959358,44.6266843 322.49622,43.4074026 322.49622,41.2126957" id="Fill-19" fill="#231F1F" fill-rule="nonzero"></path>
            <path d="M303.596989,37.3112382 L303.596989,27.6594045 C303.596989,25.484206 302.116781,25.0403875 300.876771,24.8526181 C299.976941,24.7160586 298.94421,24.6294896 297.866365,24.6294896 C292.501526,24.6294896 287.990183,27.7996219 285.673548,31.7025425 L285.673548,28.5311909 C285.673548,28.5311909 285.673548,25.8487713 282.552187,25.8487713 L273.675817,25.8487713 C273.675817,25.8487713 270.554456,25.8487713 270.554456,28.9713516 L270.554456,77.2305198 C270.554456,77.2305198 270.554456,80.3506616 273.675817,80.3506616 L282.552187,80.3506616 C282.552187,80.3506616 285.673548,80.3506616 285.673548,77.2305198 L285.673548,49.6991399 C285.673548,49.6991399 285.673548,46.5765595 286.222225,44.0770321 C286.770902,41.578724 290.916459,38.8950851 296.037442,38.8950851 C297.717612,38.8950851 299.353888,39.1145558 300.618284,39.4205955 C301.464465,39.6254348 303.596989,39.384017 303.596989,37.3112382" id="Fill-21" fill="#231F1F" fill-rule="nonzero"></path>
            <g id="Group-25" transform="translate(598.667297, 24.263705)">
                <g id="Fill-23-Clipped">
                    <mask id="mask-2" fill="white">
                        <use xlink:href="#path-1"></use>
                    </mask>
                    <g id="path-1"></g>
                    <path d="M15.5969291,16.9489905 C15.5969291,13.5337826 19.1340652,11.8280076 22.7919102,11.8280076 C26.864311,11.8280076 29.3175057,13.3655217 30.6148214,15.5833951 C30.9098875,16.0881777 31.7804546,17.1916276 33.3228459,17.1916276 L42.5930444,17.1916276 C42.5930444,17.1916276 45.7131862,17.1916276 45.1645095,14.1202571 C43.8842637,6.95088091 36.3247174,0.365540643 22.5468346,0.365540643 C10.354018,0.365540643 0.843620983,7.43737429 0.843620983,18.0451248 C0.843620983,27.1897372 6.69617297,31.4572231 14.9872883,33.409293 L25.9608233,35.8478563 C29.7405964,36.8232817 31.4475907,38.0425633 31.4475907,40.4811267 C31.4475907,44.0158242 28.3993866,45.8447467 23.7661163,45.8447467 C19.2547741,45.8447467 15.8407854,43.7731871 15.2311446,41.8211172 C15.2311446,41.8211172 14.6215038,39.8714858 11.5001427,39.8714858 L2.88591777,39.8714858 C0.725350662,39.8714858 0.0327986767,42.1027713 0.355908318,43.14038 C3.18098393,52.2033006 11.964689,57.3072136 23.8892637,57.3072136 C36.5685737,57.3072136 46.2008989,50.7218733 46.2008989,39.6276295 C46.2008989,31.3365142 41.201844,26.093603 31.6914471,23.7769679 L20.4740558,21.2164764 C17.0600671,20.3629792 15.5969291,19.1436975 15.5969291,16.9489905" id="Fill-23" fill="#231F1F" fill-rule="nonzero" mask="url(#mask-2)"></path>
                </g>
            </g>
            <path d="M595.243066,37.3112382 L595.243066,27.6594045 C595.243066,25.484206 593.762858,25.0403875 592.524068,24.8526181 C591.623019,24.7160586 590.590287,24.6294896 589.512442,24.6294896 C584.147603,24.6294896 579.636261,27.7996219 577.319626,31.7025425 L577.319626,28.5311909 C577.319626,28.5311909 577.319626,25.8487713 574.198265,25.8487713 L565.321894,25.8487713 C565.321894,25.8487713 562.200533,25.8487713 562.200533,28.9713516 L562.200533,77.2305198 C562.200533,77.2305198 562.200533,80.3506616 565.321894,80.3506616 L574.198265,80.3506616 C574.198265,80.3506616 577.319626,80.3506616 577.319626,77.2305198 L577.319626,49.6991399 C577.319626,49.6991399 577.319626,46.5765595 577.868302,44.0770321 C578.416979,41.578724 582.562537,38.8950851 587.68352,38.8950851 C589.36369,38.8950851 590.999966,39.1145558 592.264361,39.4205955 C593.111762,39.6254348 595.243066,39.384017 595.243066,37.3112382" id="Fill-26" fill="#231F1F" fill-rule="nonzero"></path>
            <path d="M212.587123,110.832703 C230.354495,110.832703 246.595327,106.433535 259.784297,96.8414461 C260.98407,96.0781758 261.201102,94.7698866 260.329316,93.5713327 L257.059202,89.1014461 C255.860648,87.4676087 254.988862,87.4676087 253.353805,88.4479112 C241.690157,95.8599244 227.737917,99.0605388 212.587123,99.0605388 C197.326594,99.0605388 183.592605,95.8599244 171.930176,88.4479112 C170.295119,87.4676087 169.422113,87.4676087 168.22356,89.1014461 L164.84493,93.5713327 C164.08166,94.7698866 164.190176,96.0781758 165.389949,96.8414461 C178.578919,106.433535 194.711234,110.832703 212.587123,110.832703" id="Fill-28" fill="#9ED951" fill-rule="nonzero"></path>
        </g>
    </g>
</svg>