<?xml version="1.0" encoding="UTF-8"?>
<svg width="90px" height="47px" viewBox="0 0 90 47" version="1.1" xmlns="http://www.w3.org/2000/svg" xmlns:xlink="http://www.w3.org/1999/xlink">
    <!-- Generator: Sketch 50.2 (55047) - http://www.bohemiancoding.com/sketch -->
    <title>Group 4</title>
    <desc>Created with Sketch.</desc>
    <defs></defs>
    <g id="Global-Navigation" stroke="none" stroke-width="1" fill="none" fill-rule="evenodd">
        <g id="Group-4" fill="#D2BFA7">
            <path d="M66.4999769,39.1668999 C74.9984798,39.1668999 81.307978,32.1163124 81.307978,23.5002349 C81.307978,14.8832173 74.9984798,7.83309986 66.4999769,7.83309986 C58.0015202,7.83309986 51.692022,14.8832173 51.692022,23.5002349 C51.692022,32.1163124 58.0015202,39.1668999 66.4999769,39.1668999 M66.4999769,0 C80.406555,0 90,10.5096934 90,23.5002349 C90,36.4903063 80.406555,47 66.4999769,47 C52.5929823,47 43,36.4903063 43,23.5002349 C43,10.5096934 52.5929823,0 66.4999769,0" id="Fill-26"></path>
            <path d="M23.5520177,39.1668999 C15.0401545,39.1668999 8.64026679,32.1820325 8.64026679,23.5002349 C8.64026679,14.8179672 15.0401545,7.83309986 23.5520177,7.83309986 C27.9683356,7.83309986 31.7444836,9.79149115 34.4321939,12.5333348 L40,6.52766077 C35.9684253,2.54562809 30.2722227,0 23.6159882,0 C9.66380466,0 0,10.3791979 0,23.5002349 C0,36.6212718 9.66380466,47 23.6159882,47 C30.2722227,47 35.9684253,44.4543721 40,40.472809 L34.4321939,34.4666649 C31.7444836,37.2085086 27.9683356,39.1668999 23.5520177,39.1668999" id="Fill-27"></path>
        </g>
    </g>
</svg>