<svg width="30" height="20" viewBox="0 0 30 20" fill="none" xmlns="http://www.w3.org/2000/svg">
<path fill-rule="evenodd" clip-rule="evenodd" d="M12.1199 0L16.1538 6.32401H14.0786V12.9624C14.0786 15.2742 13.4643 17.0531 12.2525 18.2498C11.0761 19.4111 9.36446 20 7.16412 20C4.79563 20 2.99008 19.4288 1.79757 18.3021C0.604699 17.175 0 15.4702 0 13.2349V3.11618H3.95076V12.8366C3.95076 15.3039 4.95451 16.4041 7.20607 16.4041C8.25194 16.4041 8.98898 16.1306 9.45986 15.5684C9.9376 14.9978 10.1698 14.1044 10.1698 12.8366V6.32401H8.08621L12.1199 0ZM23.6317 3.25581C25.6725 3.25581 27.2565 3.68679 28.3404 4.53648C29.4417 5.40027 30 6.66995 30 8.31053C30 10.0922 29.44 11.4944 28.336 12.4782C27.2164 13.4763 25.5988 13.9823 23.528 13.9823H21.0119V19.5349H17.0769V3.25581H23.6317ZM23.4657 6.43477H21.0119V10.8444H23.5071C25.2185 10.8444 25.9816 10.12 25.9816 8.49571C25.9816 7.10899 25.159 6.43477 23.4657 6.43477Z" fill="#009DA7"/>
</svg>
