<svg xmlns="http://www.w3.org/2000/svg" width="26" height="26" viewBox="0 0 26 26">
    <g fill="none" fill-rule="evenodd">
        <rect width="26" height="26" fill="#FF3EA3" rx="5"/>
        <path fill="#FFF" d="M15.75 10.615l-6.345 2.958.846 1.812 6.344-2.958-.846-1.812zm-9.395-.033a1 1 0 0 0-.483 1.328l3.38 7.25a1 1 0 0 0 1.813-.844l-3.38-7.25a1 1 0 0 0-1.33-.484zm-1.843 1.962a1 1 0 0 0-.483 1.33l2.535 5.437a1 1 0 0 0 1.813-.845L5.84 13.028a1 1 0 0 0-1.329-.484zm-.967 2.658a.5.5 0 0 0-.242.665l1.268 2.719a.5.5 0 1 0 .906-.423L4.21 15.444a.5.5 0 0 0-.664-.242zm11.873-8.847a1 1 0 0 0-.483 1.33l3.38 7.25a1 1 0 0 0 1.813-.845l-3.38-7.25a1 1 0 0 0-1.33-.485zm2.689-.15a1 1 0 0 0-.484 1.33l2.536 5.437a1 1 0 0 0 1.812-.845l-2.535-5.438a1 1 0 0 0-1.33-.484zm2.658.968a.5.5 0 0 0-.242.664l1.268 2.719a.5.5 0 1 0 .906-.423l-1.268-2.719a.5.5 0 0 0-.664-.241z"/>
    </g>
</svg>
