<?xml version="1.0" encoding="UTF-8"?>
<svg width="63px" height="63px" viewBox="0 0 63 63" version="1.1" xmlns="http://www.w3.org/2000/svg" xmlns:xlink="http://www.w3.org/1999/xlink">
    <!-- Generator: Sketch 42 (36781) - http://www.bohemiancoding.com/sketch -->
    <title>top-priority</title>
    <desc>Created with Sketch.</desc>
    <defs>
        <polygon id="path-1" points="30 34.4127717 23.2016261 38 24.5 30.4021286 19 25.0212862 26.6008131 23.9127717 30 17 33.3991869 23.9127717 41 25.0212862 35.5 30.4021286 36.7983739 38"></polygon>
        <mask id="mask-2" maskContentUnits="userSpaceOnUse" maskUnits="objectBoundingBox" x="-1.76" y="-1.76" width="25.52" height="24.52">
            <rect x="17.24" y="15.24" width="25.52" height="24.52" fill="white"></rect>
            <use xlink:href="#path-1" fill="black"></use>
        </mask>
        <linearGradient x1="12.8580729%" y1="11.3216146%" x2="83.4505208%" y2="83.7174479%" id="linearGradient-3">
            <stop stop-color="#FFFFFF" stop-opacity="0.2" offset="0%"></stop>
            <stop stop-color="#FFFFFF" stop-opacity="0" offset="100%"></stop>
        </linearGradient>
    </defs>
    <g id="Product" stroke="none" stroke-width="1" fill="none" fill-rule="evenodd">
        <g id="Advisor-v5---end-goal" transform="translate(-220.000000, -510.000000)">
            <g id="top-priority" transform="translate(220.000000, 510.000000)">
                <rect id="Rectangle" fill-opacity="0.07" fill="#000000" x="3" y="3" width="60" height="60" rx="30"></rect>
                <rect id="Rectangle" fill="#ff1f4e" x="0" y="0" width="60" height="60" rx="30"></rect>
                <polygon id="Star" fill="#FFFFFF" points="15.5 38.0960533 10.2467111 41 11.25 34.8493422 7 30.4934222 12.8733555 29.5960533 15.5 24 18.1266445 29.5960533 24 30.4934222 19.75 34.8493422 20.7532889 41"></polygon>
                <polygon id="Star" fill="#FFFFFF" points="44.5 38.0960533 39.2467111 41 40.25 34.8493422 36 30.4934222 41.8733555 29.5960533 44.5 24 47.1266445 29.5960533 53 30.4934222 48.75 34.8493422 49.7532889 41"></polygon>
                <g id="Star">
                    <use fill="#FFFFFF" fill-rule="evenodd" xlink:href="#path-1"></use>
                    <use stroke="#ff1f4e" mask="url(#mask-2)" stroke-width="3.52" xlink:href="#path-1"></use>
                </g>
                <rect id="Rectangle" fill="url(#linearGradient-3)" x="0" y="0" width="60" height="60" rx="30"></rect>
                <path d="M29.829125,4.17313019 C29.829125,4.17313019 17.329125,1.67313019 9.32912496,15.6731302 C1.32912496,29.6731302 13.6554199,12.1731302 18.829125,12.1731302 C24.0028301,12.1731302 32.829125,9.84626039 32.829125,7.17313019 C32.829125,4.5 29.829125,4.17313019 29.829125,4.17313019 Z" id="Path-3" fill-opacity="0.200000018" fill="#FFFFFF"></path>
            </g>
        </g>
    </g>
</svg>
