<svg xmlns="http://www.w3.org/2000/svg" width="145" height="71" viewBox="0 0 129 63">
  <g fill="none" fill-rule="evenodd">
    <polygon fill="#FCB813" points="80.607 8.447 88.637 8.447 88.637 .417 80.607 .417"/>
    <polygon fill="#DE1E25" points="80.607 61.316 88.637 61.316 88.637 12.965 80.607 12.965"/>
    <path fill="#DE1E25" d="M33.9252645 29.180395C33.9252645 20.2245606 26.3308872 12.965125 16.962528 12.965125 12.2787655 12.965125 8.0379771 14.780401 4.96844214 17.7143743L10.4918532 23.3524914C12.1127545 21.7082318 14.4122988 20.6817165 16.962528 20.6817165 21.8727829 20.6817165 25.8528756 24.4866218 25.8528756 29.180395L25.8528756 45.9691954C25.8528756 50.6629686 21.8727829 54.4678739 16.962528 54.4678739 12.0526902 54.4678739 8.07218037 50.6629686 8.07218037 45.9691954 8.07218037 41.2754222 12.0526902 37.4705169 16.962528 37.4705169 18.6218037 37.4705169 20.1747156 37.9047316 21.5040549 38.6609576L21.4740228 30.3341297C20.0374854 29.9558082 18.5250335 29.7539254 16.962528 29.7539254 7.59458592 29.7539254.000208556527 37.013361.000208556527 45.9691954.000208556527 54.9246127 7.59458592 62.1844653 16.962528 62.1844653 26.3308872 62.1844653 33.9252645 54.9246127 33.9252645 45.9691954L33.9252645 29.180395zM94.9974979 45.9691954C94.9974979 54.9246127 102.591875 62.1844653 111.960234 62.1844653 116.643997 62.1844653 120.884785 60.3691893 123.954737 57.4352161L118.431326 51.797099C116.810425 53.4413586 114.510464 54.4678739 111.960234 54.4678739 107.050397 54.4678739 103.070304 50.6629686 103.070304 45.9691954L103.070304 29.180395C103.070304 24.4866218 107.050397 20.6817165 111.960234 20.6817165 116.870072 20.6817165 120.850582 24.4866218 120.850582 29.180395 120.850582 33.8741682 116.870072 37.6790735 111.960234 37.6790735 110.300959 37.6790735 108.748464 37.2448588 107.418708 36.4886328L107.449157 44.8154607C108.885277 45.1937822 110.398146 45.3956649 111.960234 45.3956649 121.328594 45.3956649 128.922971 38.1362294 128.922971 29.180395 128.922971 20.2249777 121.328594 12.965125 111.960234 12.965125 102.591875 12.965125 94.9974979 20.2249777 94.9974979 29.180395L94.9974979 45.9691954zM65.5462297.417113053L65.5462297 45.9691954C65.5462297 50.6629686 61.6679125 54.4678739 56.8836258 54.4678739 52.0997562 54.4678739 48.2210219 50.6629686 48.2210219 45.9691954L48.2210219 29.7539254C48.2210219 25.0597351 52.0997562 21.255247 56.8836258 21.255247 58.5049443 21.255247 60.0224015 21.6919643 61.3200403 22.4523614L61.3179547 14.1288705C59.9068612 13.7438751 58.4198532 13.5386555 56.8836258 13.5386555 47.7555238 13.5386555 40.3555211 20.7980911 40.3555211 29.7539254L40.3555211 45.9691954C40.3555211 54.9246127 47.7555238 62.1844653 56.8836258 62.1844653 66.012145 62.1844653 73.4117306 54.9246127 73.4117306 45.9691954L73.4117306.417113053 65.5462297.417113053z"/>
  </g>
</svg>
