<svg xmlns="http://www.w3.org/2000/svg" xmlns:xlink="http://www.w3.org/1999/xlink" width="800" height="270" viewBox="0 0 800 270">
    <defs>
        <rect id="prefix__b" width="800" height="270" x="0" y="0" rx="5"/>
    </defs>
    <g fill="none" fill-rule="evenodd">
        <mask id="prefix__c" fill="#fff">
            <use xlink:href="#prefix__b"/>
        </mask>
        <use fill="#FFF" fill-rule="nonzero" xlink:href="#prefix__b"/>
        <g mask="url(#prefix__c)">
            <g>
                <path fill="#F5DFD4" d="M0 342.382L1486.616 342.382 1486.616 0 0 0z" transform="translate(-184 -70)"/>
                <g>
                    <path fill="#EA997D" d="M73.215 73.26s1.032 24.45 0 28.41c-1.035 3.961-10.719 10.474-20.642 15.125 0 0 12.767 17.464 37.714 16.947 24.947-.515 29.55-10.842 33.509-16.524 0 0-17.292-6.752-17.75-14.847-.457-8.094 0-29.11 0-29.11H73.216" transform="translate(-184 -70) translate(145 142.362)"/>
                    <path fill="#D87E66" d="M89.403 96.5c7.89 0 13.38-5.373 16.458-9.624.045-7.182.186-13.616.186-13.616H73.215s.274 6.427.397 13.285c2.642 4.294 7.694 9.955 15.791 9.955" transform="translate(-184 -70) translate(145 142.362)"/>
                    <path fill="#EA997D" d="M67.713 49.643s-1.362-3.992-6.706-3.524c-5.167.454-3.416 13.729 1.134 15.917 4.548 2.186 6.05-4.412 6.05-4.412l-.478-7.981M112.973 49.643s1.359-3.992 6.704-3.524c5.167.454 3.416 13.729-1.135 15.917-4.547 2.186-6.05-4.412-6.05-4.412l.48-7.981" transform="translate(-184 -70) translate(145 142.362)"/>
                    <path fill="#EA997D" d="M117.377 48.596c-2.282 28.397-10.238 42.031-27.035 42.031-16.798 0-24.863-11.258-27.035-42.031C61.704 25.873 73.612 11.82 90.342 11.82s28.927 13.187 27.035 36.776" transform="translate(-184 -70) translate(145 142.362)"/>
                    <path fill="#23242B" d="M76.33 53.17c0 1.074-.755 1.946-1.688 1.946-.933 0-1.689-.872-1.689-1.945 0-1.076.756-1.947 1.689-1.947s1.688.871 1.688 1.947M107.103 53.17c0 1.074-.756 1.946-1.689 1.946s-1.688-.872-1.688-1.945c0-1.076.755-1.947 1.688-1.947.933 0 1.689.871 1.689 1.947" transform="translate(-184 -70) translate(145 142.362)"/>
                    <path fill="#30323D" d="M68.837 46.991c-.24 0-.48-.085-.674-.258-.413-.373-.447-1.01-.076-1.425 1.573-1.75 5.454-5.43 11.066-1.736.465.306.692.859.442 1.357-.254.495-.86.692-1.357.44-5.078-2.587-8.617 1.25-8.65 1.289-.2.22-.477.333-.751.333M112.466 46.991c.24 0 .48-.085.672-.258.415-.373.45-1.01.075-1.425-1.573-1.75-5.454-5.43-11.066-1.736-.465.306-.692.859-.439 1.357.254.495.86.692 1.357.44 5.078-2.587 8.614 1.25 8.65 1.289.2.22.474.333.75.333" transform="translate(-184 -70) translate(145 142.362)"/>
                    <path fill="#D87E66" d="M89.931 69.562c-1.419-.046-2.543-.43-3.07-1.477-1.647-3.264 1.476-8.53 1.769-9.175.201-.449.504-.713.951-.511.45.201.28.794.079 1.243-.957 2.12-1.55 6.045-.67 7.542.147.25.403.545 1.093.604.491.042.834.471.813.963-.04.854-.938.812-.965.811" transform="translate(-184 -70) translate(145 142.362)"/>
                    <path fill="#30323D" d="M69.36 54.28s3.515-7.992 1.197-15.623c0 0 5.616 7.694-1.197 15.624zm2.828 28.081c1.184-9.714-2.828-15.947-2.828-15.947 7.556 6.883 2.802 16.173 2.828 15.947zM88.64 5.425C72.97-5.835 54.031 2.32 53.425 12.758c-.416 7.163 5 15.763 1.646 19.465C38.81 50.18 59.708 47.805 51.18 66.938c-4.368 9.8 3.891 19.452 3.891 19.452 10.473 0 17.882-1.379 17.882-1.379 8.74-19.57-10.19-18.373-1.793-30.73 7.044-10.373.939-12.61.369-17.12-2.692-21.297 8.17-14.215 8.17-14.215 9.932-7.631 8.068.666 15.77 5.948 7.732 5.3 18.003 7.07 18.003 7.07l3.246 13.174 2.096-1.333 1.644-14.834C125.597-3.289 88.64 5.425 88.64 5.425z" transform="translate(-184 -70) translate(145 142.362)"/>
                    <path fill="#CE6565" d="M90.036 77.025c-4.522 0-7.59-2.17-7.78-2.308-.39-.282-.476-.826-.194-1.214.282-.389.823-.476 1.213-.194.269.192 6.267 4.369 13.755-.045.415-.244.949-.106 1.192.307.243.415.104.947-.309 1.191-2.877 1.696-5.567 2.263-7.877 2.263" transform="translate(-184 -70) translate(145 142.362)"/>
                    <path fill="#D8C7C7" d="M111.402 62.48s4.987-13.886 7.603-16.396l.476.012s-5.941 12.862-7.232 17.85l-.847-1.466M110.26 74.916s4.325-8.227 5.211-11.23c0 0-1.03 6.797-5.211 12.857v-1.627" transform="translate(-184 -70) translate(145 142.362)"/>
                    <path fill="#D3CFCF" d="M66.678 63.946s-.316-1.768 1.853-2.666c2.17-.897 16.225-5.61 19.822-5.61 3.596 0 19.244 4.972 22.696 6.216 1.252.452 1.42 1.514 1.399 3.634-.008.836-.385 26.005-24.095 25.098-23.71-.908-21.675-26.672-21.675-26.672" transform="translate(-184 -70) translate(145 142.362)"/>
                    <path fill="#A09C9C" d="M80.353 61.231c-.361 0-.7-.219-.837-.576-.18-.462.05-.981.512-1.16 1.156-.446 7.015-2.66 8.994-2.501 1.95.155 7.485 2.261 8.112 2.5.463.178.693.697.515 1.16-.175.463-.695.695-1.157.517-1.631-.625-6.179-2.273-7.611-2.387-1.22-.098-5.68 1.412-8.204 2.386-.108.041-.217.061-.324.061" transform="translate(-184 -70) translate(145 142.362)"/>
                    <path fill="#C1BDBD" d="M88.583 59.706s.455 20.727.34 21.924c-.115 1.197 3.998-8.086-.34-21.924M85.08 73.144c0-2.584-2.093-4.678-4.678-4.678-2.582 0-4.678 2.094-4.678 4.678 0 2.583 2.096 4.678 4.678 4.678 2.585 0 4.679-2.095 4.679-4.678" transform="translate(-184 -70) translate(145 142.362)"/>
                    <path fill="#FFF" d="M84.532 73.144c0-2.281-1.848-4.13-4.13-4.13-2.281 0-4.13 1.849-4.13 4.13 0 2.28 1.849 4.13 4.13 4.13 2.282 0 4.13-1.85 4.13-4.13" transform="translate(-184 -70) translate(145 142.362)"/>
                    <path fill="#E5D5B1" d="M77.19 75.09h6.27s-.687 1.957-3.134 1.935c-2.449-.022-3.136-1.935-3.136-1.935" transform="translate(-184 -70) translate(145 142.362)"/>
                    <path fill="#3B3348" d="M54.624 114.599l11.116-6.284s4.91 11.87 23.802 11.87c18.891 0 23.68-9.776 23.68-9.776l11.073 6.085s-12.268 14.266-36.11 15.162c-23.843.9-33.56-17.057-33.56-17.057" transform="translate(-184 -70) translate(145 142.362)"/>
                    <path fill="#F5EBE2" d="M58.356 111.806s10.026 15.462 29.83 15.462c19.625 0 31.07-14.14 31.07-14.14s32.422 12.543 38.357 18.73c3.479 3.624 7.167 4.49 8.78 17.712.773 6.366 6.583 11.23 6.583 22.006 0 9.205 4.357 20.603 7.03 28.444H0s3.792-14.231 3.991-28.794c.112-8.296 8.38-12.851 9.976-24.273 1.354-9.699 3.108-12.153 5.94-15.138 10.377-10.922 38.45-20.01 38.45-20.01" transform="translate(-184 -70) translate(145 142.362)"/>
                    <path fill="#DDD3CA" d="M33.966 200.02s-2.245-42.795-4.19-51.323l.9 51.323h3.29M144.694 200.02s2.245-42.795 4.19-51.323l-.897 51.323h-3.293" transform="translate(-184 -70) translate(145 142.362)"/>
                </g>
                <path fill="#EA997D" d="M117.939 215.622s1.034 24.451 0 28.41c-1.033 3.962-10.719 10.474-20.641 15.126 0 0 12.767 17.46 37.715 16.945 24.946-.515 31.286-10.84 35.247-16.523 0 0-19.03-6.752-19.487-14.847-.457-8.095 0-29.111 0-29.111H117.94M157.696 192.004s1.36-3.992 6.706-3.523c5.168.454 3.415 13.729-1.134 15.916-4.548 2.187-6.05-4.41-6.05-4.41l.478-7.983" transform="translate(-184 -70)"/>
                <path fill="#EA997D" d="M162.101 190.959c-2.28 28.395-10.238 42.03-27.033 42.03-16.8 0-24.864-11.258-27.035-42.03-1.604-22.724 10.304-36.778 27.035-36.778 16.73 0 28.928 13.188 27.033 36.778" transform="translate(-184 -70)"/>
                <path fill="#EFCBB4" d="M106.548 188.446l1.605 4.116 2.187 1.023s.64-7.33 1.196-12.403c.948-8.629 1.381-15.555 22.82-15.76 22.291-.216 22.26 6.95 24.265 15.361 1.446 6.067 1.596 12.569 1.596 12.569l1.995-1.915 2.19-2.956s-.1-7.2 0-13.983c0 0 1.377-15.443-6.204-17.113 0 0-7.681-13.604-21.773-13.619-20.812-.02-20.284 6.28-20.784 7.378 0 0-6.998 1.409-9.093 4.402-2.094 2.992-.199 6.496-2.593 13.472 0 0 .699 2.886 1.397 4.183.698 1.297.1 9.839 1.196 15.245" transform="translate(-184 -70)"/>
                <path fill="#CEA289" d="M155.728 170.01c-.115 0-.224-.066-.273-.178-.067-.151 0-.327.151-.395.186-.084 4.55-2.134 3.12-9.632-.031-.162.076-.319.237-.35.163-.03.32.075.35.238 1.524 7.987-3.414 10.269-3.465 10.29-.038.018-.08.026-.12.026" transform="translate(-184 -70)"/>
                <path fill="#D8C7C7" d="M156.677 204.841s4.988-13.885 7.605-16.395l.475.012s-5.942 12.862-7.232 17.85l-.848-1.467M155.77 217.277s3.907-8.227 4.791-11.23c0 0-.87 6.797-4.79 12.857v-1.627" transform="translate(-184 -70)"/>
                <g>
                    <path fill="#30323D" d="M69.976 98.858s-3.358 4.824-12.508 0c0 0-11.54 3.69-15.914-4.257 0 0-6.498-.665-5.17-5.229 0 0-6.615-6.727.661-17.474 3.628-5.355 8.748-11.872 8.066-18.996-.79-8.216-3.288-13.586 3.541-20.45 7.255-7.29.998-12.17 8.965-17.532 6.51-4.382-1.83-10.424 12.03-10.721 5.907-.127 6.393-9.404 15.206.03 0 0 8.567-6.473 11.853-1.999 3.891 5.3 10.553 1.094 11.915 11.21 1.349 10.038 9.061 2.652 8.515 18.709-.363 10.625 7.53 6.463 6.187 19.588-1.051 10.283 1.92 16.668 4.422 21.438 1.767 3.368 7.692 10.074 1.46 15.183 0 0 1.99 3.69-1.59 4.54 0 0-2.123 8.94-12.465 6.244 0 0-6.513 7.945-17.313 3.547 0 0-8.28 4.682-13.982-.284 0 0-8.262 5.108-13.879-3.547" transform="translate(-184 -70) translate(383 149)"/>
                    <path fill="#8C4F45" d="M69.545 70.29s.82 19.6 0 22.738c-.818 3.138-8.491 8.41-16.353 12.096 0 0 10.117 13.894 29.881 13.483 19.767-.407 23.41-8.56 26.55-13.063 0 0-13.701-5.564-14.062-11.977-.363-6.413 0-23.277 0-23.277H69.545" transform="translate(-184 -70) translate(383 149)"/>
                    <path fill="#753C36" d="M82.373 89.157c6.251 0 10.6-4.481 13.039-7.85.037-5.692.149-11.017.149-11.017H69.545s.22 5.32.316 10.754c2.094 3.401 6.095 8.113 12.512 8.113" transform="translate(-184 -70) translate(383 149)"/>
                    <path fill="#8C4F45" d="M62.379 47.257s-1.263-3.711-6.231-3.275c-4.804.42-3.176 12.76 1.053 14.792 4.226 2.033 5.625-4.099 5.625-4.099l-.447-7.418M104.445 47.257s1.265-3.711 6.233-3.275c4.804.42 3.176 12.76-1.053 14.792-4.23 2.033-5.625-4.099-5.625-4.099l.445-7.418" transform="translate(-184 -70) translate(383 149)"/>
                    <path fill="#8C4F45" d="M108.537 43.675c-2.117 26.393-12.22 39.066-25.124 39.066-12.859 0-23.11-10.464-25.127-39.066-1.49-21.12 9.576-34.181 25.127-34.181 15.548 0 26.886 12.257 25.124 34.181" transform="translate(-184 -70) translate(383 149)"/>
                    <path fill="#23242B" d="M71.26 49.665c0 1-.703 1.81-1.571 1.81s-1.568-.81-1.568-1.81.7-1.81 1.568-1.81c.868 0 1.57.81 1.57 1.81M98.122 49.665c0 1-.703 1.81-1.57 1.81-.868 0-1.569-.81-1.569-1.81s.7-1.81 1.569-1.81c.867 0 1.57.81 1.57 1.81" transform="translate(-184 -70) translate(383 149)"/>
                    <path fill="#30323D" d="M63.934 43.003c-.22-.043-.424-.164-.57-.357-.311-.413-.227-1 .186-1.312 1.745-1.314 5.94-3.983 10.402.386.37.36.48.908.162 1.315-.32.406-.907.479-1.317.16-4.172-3.264-8.082-.393-8.12-.364-.22.167-.492.221-.743.172M103.078 42.82c.22-.05.418-.178.556-.376.296-.424.194-1.007-.232-1.304-1.796-1.25-6.082-3.764-10.384.764-.356.376-.444.926-.11 1.32.332.396.925.447 1.32.113 4.048-3.413 8.063-.688 8.102-.66.228.16.5.203.748.144" transform="translate(-184 -70) translate(383 149)"/>
                    <path fill="#753C36" d="M83.031 63.161c-1.317-.042-2.365-.398-2.854-1.372-1.531-3.034 1.372-7.927 1.644-8.528.188-.418.468-.663.884-.475.418.188.261.738.073 1.155-.889 1.972-1.44 5.62-.622 7.01.136.233.374.507 1.016.562.455.038.774.438.756.895-.037.794-.873.754-.897.753" transform="translate(-184 -70) translate(383 149)"/>
                    <path fill="#30323D" d="M58.02 45.446s4.947-2.028 7.641-9.054c4.937-12.868 14.072-4.152 17.775-17.357 0 0 3.15 9.792 9.263 9.792 6.134 0 6.929 3.175 8.424 7.416 1.497 4.241 5.24 7.932 7.258 9.203l1.241-1.888S117.32 7.53 83.436 7.53c-30.942 0-26.927 34.316-26.69 36.452l1.273 1.464" transform="translate(-184 -70) translate(383 149)"/>
                    <path fill="#FFF" d="M77.357 67.142s5.01 1.197 11.547 0c0 0-5.682 5.686-11.547 0" transform="translate(-184 -70) translate(383 149)"/>
                    <path fill="#D8C7C7" d="M64.112 57.742s-5.034-11.236-7.4-14.11h-.682s5.972 10.26 7.138 14.77l.944-.66M64.38 69.58s-2.91-7.198-3.71-9.913c0 0 .06 5.889 3.915 11.368l-.204-1.455M102.735 58.15s4.6-11.644 6.968-14.519h.486s-5.52 11.184-6.688 15.693l-.766-1.173M101.695 69.7s3.424-7.44 4.221-10.154c0 0-.3 6.145-4.22 11.624V69.7" transform="translate(-184 -70) translate(383 149)"/>
                    <path fill="#EFEAEA" d="M62.3 59.782s-.287-1.6 1.676-2.411c1.962-.812 14.67-5.073 17.921-5.073 3.251 0 17.399 4.495 20.52 5.622 1.131.407 1.283 1.368 1.267 3.284-.008.756-.348 23.512-21.787 22.692-21.44-.82-19.597-24.114-19.597-24.114" transform="translate(-184 -70) translate(383 149)"/>
                    <path fill="#D8C7C7" d="M74.663 57.325c-.324 0-.633-.197-.758-.52-.16-.417.047-.887.465-1.048 1.045-.403 6.343-2.406 8.133-2.262 1.762.14 6.767 2.044 7.332 2.261.418.161.63.63.467 1.048-.159.419-.627.629-1.048.468-1.474-.566-5.585-2.055-6.881-2.159-1.103-.088-5.133 1.277-7.418 2.159-.096.037-.196.053-.292.053" transform="translate(-184 -70) translate(383 149)"/>
                    <path fill="#D8C7C7" d="M82.104 55.947s.412 18.74.308 19.823c-.105 1.083 3.615-7.31-.308-19.823" transform="translate(-184 -70) translate(383 149)"/>
                    <path fill="#FFF" d="M79.218 71.748c0 .3-.256.633-.554.633h-6.706c-.298 0-.58-.334-.58-.633v-7.243c0-.3.282-.488.58-.488h6.706c.298 0 .554.189.554.488v7.243" transform="translate(-184 -70) translate(383 149)"/>
                    <path fill="#E5D5B1" d="M73.468 70.405c0 .225-.183.408-.408.408h-.23c-.224 0-.407-.183-.407-.408v-2.582c0-.225.183-.408.407-.408h.23c.225 0 .408.183.408.408v2.582M75.298 70.405c0 .225-.183.408-.408.408h-.23c-.225 0-.408-.183-.408-.408v-2.582c0-.225.183-.408.408-.408h.23c.225 0 .408.183.408.408v2.582M77.127 70.405c0 .225-.183.408-.407.408h-.23c-.225 0-.408-.183-.408-.408v-2.582c0-.225.183-.408.408-.408h.23c.224 0 .407.183.407.408v2.582M78.957 70.405c0 .225-.183.408-.408.408h-.23c-.225 0-.408-.183-.408-.408v-2.582c0-.225.183-.408.408-.408h.23c.225 0 .408.183.408.408v2.582" transform="translate(-184 -70) translate(383 149)"/>
                    <path fill="#3B3348" d="M48.68 106.734l12.35-6.365s4.18 9.657 21.975 10.256c17.799.598 24.411-6.965 24.411-6.965l6.853 3.29s-8.23 15.599-33.344 15.345c-25.114-.25-32.244-15.56-32.244-15.56" transform="translate(-184 -70) translate(383 149)"/>
                    <path fill="#E45E4B" d="M83.073 118.65c20.611-.743 28.086-13.963 28.086-13.963s27.116 12.355 29.607 14.174c11.808 8.622 4.469 6.427 12.843 21.15 7.344 12.91 1.49 17.756 6.445 29.833 3.021 7.36.823 18.058 1.798 23.808H.55s-2.596-13.233 3.502-23.031c3.531-5.68.084-13.659 4.278-21.458 5.288-9.832 2.395-14.532 11.372-24.756 8.636-9.835 30.893-19.134 30.893-19.134s7.566 14.275 32.48 13.376z" transform="translate(-184 -70) translate(383 149)"/>
                    <path fill="#CE4C3E" d="M32.72 193.652s-2.246-42.795-4.19-51.324l.896 51.324h3.294M130.28 193.652s2.242-42.795 4.19-51.324l-.9 51.324h-3.29" transform="translate(-184 -70) translate(383 149)"/>
                </g>
                <g>
                    <path fill="#6D311F" d="M48.74 38.001s4.229 26.631-2.088 31.567c-4.449 3.476-1.895 11.508 2.438 13.14 0 0 4.464-2.572 6.82-.754 3.483 2.691 8.25 1.153 11.37-.125 3.122-1.278 16.035-1.07 19.323.89 3.29 1.96 13.557.546 18-2.497V38.056l-55.863-.055" transform="translate(-184 -70) translate(613 146.653)"/>
                    <path fill="#EA997D" d="M93.333 72.367s-.577 19.244 0 22.434c1.085 5.963 27.14 17.124 34.999 20.81 0 0-29.12 16.712-48.887 16.302-19.767-.408-42.542-10.839-45.678-15.342 0 0 33.192-14.798 33.553-21.211.363-6.413 0-22.993 0-22.993h26.013" transform="translate(-184 -70) translate(613 146.653)"/>
                    <path fill="#D87E66" d="M80.508 90.627c-6.251 0-10.6-4.18-13.039-7.547-.036-5.692-.149-10.713-.149-10.713h26.013s-.217 5.016-.313 10.45c-2.096 3.402-6.098 7.81-12.512 7.81" transform="translate(-184 -70) translate(613 146.653)"/>
                    <path fill="#EA997D" d="M100.502 48.726s1.263-3.711 6.231-3.275c4.804.422 3.176 12.76-1.053 14.794-4.226 2.032-5.625-4.1-5.625-4.1l.447-7.419M58.436 48.726s-1.264-3.711-6.233-3.275c-4.804.422-3.173 12.76 1.053 14.794 4.23 2.032 5.625-4.1 5.625-4.1l-.445-7.419" transform="translate(-184 -70) translate(613 146.653)"/>
                    <path fill="#EA997D" d="M54.341 45.145c2.12 26.392 12.224 39.065 25.127 39.065 12.859 0 23.11-10.464 25.127-39.065 1.49-21.12-9.579-34.182-25.127-34.182-15.548 0-26.886 12.257-25.127 34.182" transform="translate(-184 -70) translate(613 146.653)"/>
                    <path fill="#23242B" d="M91.621 51.135c0 1 .703 1.81 1.571 1.81s1.568-.81 1.568-1.81-.7-1.81-1.568-1.81c-.868 0-1.57.81-1.57 1.81M64.759 51.135c0 1 .703 1.81 1.57 1.81.866 0 1.569-.81 1.569-1.81s-.703-1.81-1.568-1.81c-.868 0-1.571.81-1.571 1.81" transform="translate(-184 -70) translate(613 146.653)"/>
                    <path fill="#6D311F" d="M98.668 45.258c.224-.004.447-.088.622-.253.376-.354.394-.947.041-1.325-1.494-1.595-5.172-4.94-10.315-1.399-.426.293-.628.813-.385 1.269.246.455.813.628 1.27.383 4.669-2.502 8.03.995 8.064 1.03.188.201.447.301.703.295M60.09 45.243c-.221-.005-.446-.09-.621-.255-.376-.354-.395-.948-.04-1.324 1.5-1.593 5.183-4.932 10.322-1.38.423.294.624.813.379 1.27-.246.455-.813.625-1.268.38-4.665-2.511-8.034.979-8.068 1.015-.19.201-.447.3-.703.294" transform="translate(-184 -70) translate(613 146.653)"/>
                    <path fill="#D87E66" d="M79.85 64.631c1.317-.043 2.362-.4 2.854-1.373 1.531-3.033-1.372-7.927-1.644-8.529-.188-.415-.468-.662-.886-.474-.416.188-.259.74-.07 1.156.885 1.972 1.44 5.62.621 7.01-.136.233-.376.506-1.016.561-.455.038-.774.438-.756.896.037.793.873.754.897.753" transform="translate(-184 -70) translate(613 146.653)"/>
                    <path fill="#7C3B24" d="M119.73 75.35s-2.365 8.86-8.645 5.089c-1.325-.796-3.069.748-5.434 1.304-2.718.638-8.92-1.928-6.087-26.082 2.067-17.605-10.43-19.67-11.301-26.19 0 0-.371 4.02 3.892 8.91 0 0-4.708.874-7.261-.433-2.616-1.34-4.563-5.83-5.543-9.6 0 0 .45 6.033 4.17 10.034 0 0-4.636 1.63-6.685-2.934 0 0 .554 2.5.884 3.152 0 0-9.822 1.67-11.735-16.336 0 0-5.327 17.947-10.162 22.52 0 0-.512 8.33-2.564.638 0 0-1.296-.55-2.87 1.041 0 0-4.383-14.053-1.725-24.6 1.764-7.014 7.614-12.236 16.4-11.627 0 0 4.561-13.337 21.785-9.564 6.419 1.406 12.503 3.398 18.146 8.656 4.391 4.09 11.024 9.377 10.387 24.816-1.15 27.919-3.476 27.513 4.349 41.206" transform="translate(-184 -70) translate(613 146.653)"/>
                    <path fill="#CE6565" d="M80.064 72.077c-4.519 0-7.587-2.171-7.778-2.31-.39-.28-.476-.824-.196-1.213.282-.388.826-.475 1.215-.194.267.192 6.265 4.37 13.756-.045.415-.244.946-.105 1.191.308.244.413.105.947-.308 1.19-2.878 1.696-5.567 2.264-7.88 2.264" transform="translate(-184 -70) translate(613 146.653)"/>
                    <path fill="#D8C7C7" d="M60.52 59.26s-5.032-11.2-7.4-14.075h-.682s5.972 10.243 7.14 14.752l.942-.678M60.789 71.059s-2.912-7.199-3.712-9.913c0 0 .06 5.888 3.916 11.368l-.204-1.455" transform="translate(-184 -70) translate(613 146.653)"/>
                    <path fill="#EFEAEA" d="M58.708 61.26s-.285-1.6 1.676-2.41c1.962-.812 14.67-5.074 17.921-5.074 3.251 0 17.399 4.496 20.522 5.622 1.132.408 1.28 1.368 1.265 3.284-.008.757-.348 23.513-21.787 22.692-21.44-.82-19.597-24.114-19.597-24.114" transform="translate(-184 -70) translate(613 146.653)"/>
                    <path fill="#D8C7C7" d="M71.073 58.804c-.326 0-.635-.197-.758-.52-.162-.417.047-.887.466-1.049 1.042-.403 6.34-2.406 8.13-2.262 1.762.141 6.767 2.045 7.334 2.262.418.16.627.63.465 1.048-.159.418-.627.628-1.048.468-1.474-.566-5.585-2.056-6.881-2.159-1.1-.088-5.133 1.277-7.418 2.158-.094.037-.193.054-.29.054" transform="translate(-184 -70) translate(613 146.653)"/>
                    <path fill="#D8C7C7" d="M78.512 57.426s.413 18.74.308 19.823c-.105 1.082 3.617-7.311-.308-19.823" transform="translate(-184 -70) translate(613 146.653)"/>
                    <path fill="#3B3348" d="M50.786 107.802L45.436 140.059 42.444 140.059 47.906 109.267 50.786 107.802M113.071 107.802L118.421 140.059 121.414 140.059 115.951 109.267 113.071 107.802" transform="translate(-184 -70) translate(613 146.653)"/>
                    <path fill="#3B3348" d="M34.828 115.632s23.331 5.993 48.244 5.094c20.611-.742 45.012-5.679 45.012-5.679s8.371 2.883 11.573 5.585c8.39 7.088 5.577 6.733 13.951 21.455 7.344 12.911 1.49 17.757 6.448 29.835 3.019 7.36.82 18.057 1.795 23.807H.548s-2.593-13.233 3.502-23.031c3.531-5.68.084-13.659 4.279-21.458 5.287-9.832 3.578-16.345 12.877-26.28 6.583-7.033 13.622-9.328 13.622-9.328" transform="translate(-184 -70) translate(613 146.653)"/>
                    <path fill="#252030" d="M32.719 195.729s-2.245-42.795-4.19-51.323l.897 51.323h3.293M130.28 195.729s2.244-42.795 4.189-51.323l-.9 51.323h-3.29" transform="translate(-184 -70) translate(613 146.653)"/>
                </g>
                <path fill="#6D311F" d="M1004.872 144.382c-3.33 3.143-.371 8.328 1.568 11.012-.596-2.599-.56-5.52-.141-8.548.277-2.024.99-3.755 2.062-5.338-.59-2.576-.565-7.77 8.322-9.804 0 0-7.89 3.348-8.032 9.393 2.18-2.99 5.69-5.464 10.12-8.38 6.939-4.563 9.932 3.044 14.44 4.565 4.508 1.522 6.85 5.652 8.058 12.824.376 2.253.047 4.02-.607 5.415 4.31-4.672.507-12.007.507-12.007 5.56 7.992 1.132 11.569-.867 12.685-1.514 2.565-4.07 3.704-4.504 4.34-3.402 4.999-21.042 4.999-25.344 1.52-1.989-1.606-3.199-3.682-3.85-6.046-8.42-8.128-1.732-11.63-1.732-11.63" transform="translate(-184 -70)"/>
                <path fill="#EA997D" d="M1010.269 219.02s.82 19.6 0 22.736c-.818 3.14-8.492 8.412-16.353 12.098 0 0 10.114 13.894 29.88 13.483 19.767-.407 23.41-8.559 26.55-13.063 0 0-13.7-5.564-14.061-11.977-.364-6.413 0-23.277 0-23.277h-26.016M1003.102 195.987s-1.262-3.711-6.23-3.275c-4.804.42-3.176 12.759 1.053 14.791 4.226 2.034 5.622-4.098 5.622-4.098l-.445-7.418" transform="translate(-184 -70)"/>
                <path fill="#EA997D" d="M1049.264 192.405c-2.12 26.393-12.224 39.066-25.127 39.066-12.86 0-23.11-10.464-25.128-39.066-1.49-21.12 9.58-34.181 25.128-34.181s26.886 12.257 25.127 34.181" transform="translate(-184 -70)"/>
                <path fill="#23242B" d="M1011.983 198.395c0 1-.703 1.81-1.57 1.81-.866 0-1.569-.81-1.569-1.81s.703-1.81 1.569-1.81c.867 0 1.57.81 1.57 1.81" transform="translate(-184 -70)"/>
                <path fill="#6D311F" d="M1004.657 191.733c-.22-.043-.423-.165-.57-.357-.31-.414-.227-1 .186-1.312 1.746-1.314 5.941-3.983 10.402.386.372.36.481.908.162 1.315-.318.406-.906.479-1.314.16-4.174-3.264-8.084-.393-8.123-.364-.22.167-.492.22-.743.172" transform="translate(-184 -70)"/>
                <path fill="#7C3B24" d="M1047.345 192.676s-.815-4.425-1.683-7.468c-.87-3.042-3.081-19.12-22.385-17.606-19.304 1.516-20.543 14.128-20.76 18.475-.217 4.347-1.628 7.173-1.628 7.173s-.547 7.113-3.152-.573c0 0-.547-1.6 0-6.056.543-4.455-1.571-7.173-.243-11.193 1.33-4.022.564-10.541 5.619-14.237 5.055-3.695 7.895-9.346 17.344-8.042 9.448 1.304 12.657-2.5 18.823 2.607 6.165 5.11 9.597 7.717 10.598 14.78 1.001 7.065 2.872 8.26 1.218 13.042-1.655 4.782-.196 7.329-.75 9.098 0 0-2.206 8.777-3 0" transform="translate(-184 -70)"/>
                <path fill="#D8C7C7" d="M1004.835 205.874s-5.034-10.638-7.399-13.513h-.682s5.972 9.662 7.14 14.172l.941-.66M1005.104 217.712s-2.911-7.2-3.71-9.914c0 0 .06 5.889 3.914 11.369l-.204-1.455" transform="translate(-184 -70)"/>
                <path fill="#686363" d="M1003.024 207.913s-.288-1.6 1.675-2.41c1.963-.812 14.67-5.074 17.922-5.074 3.251 0 17.398 4.496 20.52 5.622 1.13.408 1.282 1.368 1.264 3.284-.005.756-.345 23.513-21.784 22.692-21.44-.82-19.597-24.114-19.597-24.114" transform="translate(-184 -70)"/>
                <path fill="#D6C9BD" d="M1016.087 254.966l-10.274 15.662-5.018-20.338s2.493 15.124 4.294 24.501l9.8-16.035 1.498 1.297-.3-5.087" transform="translate(-184 -70)"/>
                <g>
                    <path fill="#EA997D" d="M74.757 71.626s1.035 24.413 0 28.373c-1.033 3.961-10.719 10.454-20.64 15.106 0 0 12.768 17.454 37.715 16.937 24.946-.518 31.287-10.846 35.247-16.53 0 0-19.03-6.716-19.487-14.81-.458-8.095 0-29.076 0-29.076H74.757" transform="translate(-184 -70) translate(832 148)"/>
                    <path fill="#D87E66" d="M90.946 94.79c7.893 0 13.381-5.335 16.457-9.586.047-7.183.189-13.578.189-13.578H74.757s.277 6.39.4 13.247c2.642 4.293 7.692 9.917 15.789 9.917" transform="translate(-184 -70) translate(832 148)"/>
                    <path fill="#EA997D" d="M69.255 47.932s-1.359-3.991-6.704-3.523c-5.17.454-3.416 13.729 1.135 15.916 4.547 2.187 6.05-4.41 6.05-4.41l-.48-7.983M114.515 47.932s1.362-3.991 6.706-3.523c5.168.454 3.414 13.729-1.134 15.916-4.548 2.187-6.05-4.41-6.05-4.41l.478-7.983" transform="translate(-184 -70) translate(832 148)"/>
                    <path fill="#EA997D" d="M118.921 46.887c-2.281 28.395-10.24 42.03-27.035 42.03-16.8 0-24.863-11.258-27.035-42.03-1.602-22.724 10.306-36.778 27.035-36.778 16.73 0 28.928 13.188 27.035 36.778" transform="translate(-184 -70) translate(832 148)"/>
                    <path fill="#23242B" d="M77.875 51.46c0 1.075-.755 1.947-1.688 1.947-.934 0-1.691-.872-1.691-1.947 0-1.075.757-1.946 1.69-1.946.934 0 1.689.871 1.689 1.946M108.647 51.46c0 1.075-.755 1.947-1.688 1.947-.933 0-1.688-.872-1.688-1.947 0-1.075.755-1.946 1.688-1.946.933 0 1.688.871 1.688 1.946" transform="translate(-184 -70) translate(832 148)"/>
                    <path fill="#9E3A20" d="M70.382 45.28c-.243 0-.484-.084-.677-.257-.413-.373-.445-1.011-.073-1.425 1.573-1.748 5.454-5.43 11.066-1.736.465.306.692.86.439 1.357-.254.495-.86.692-1.354.44-5.078-2.587-8.617 1.249-8.651 1.288-.201.222-.476.334-.75.334M114.008 45.28c.24 0 .483-.084.674-.257.416-.373.45-1.011.076-1.425-1.573-1.748-5.455-5.43-11.066-1.736-.465.306-.693.86-.44 1.357.254.495.86.692 1.355.44 5.078-2.587 8.617 1.249 8.653 1.288.2.222.473.334.748.334" transform="translate(-184 -70) translate(832 148)"/>
                    <path fill="#D87E66" d="M91.476 67.852c-1.42-.046-2.546-.43-3.07-1.478-1.65-3.263 1.476-8.529 1.766-9.175.204-.448.507-.712.954-.51.447.201.28.794.076 1.242-.954 2.122-1.548 6.046-.667 7.543.147.25.403.545 1.093.604.491.042.833.47.812.963-.039.854-.938.812-.964.81" transform="translate(-184 -70) translate(832 148)"/>
                    <path fill="#CE6565" d="M91.534 75.913c-4.522 0-7.59-2.169-7.781-2.308-.39-.282-.478-.825-.196-1.214.282-.388.826-.476 1.215-.194.267.192 6.265 4.37 13.756-.044.415-.245.948-.106 1.189.306.245.415.107.948-.306 1.192-2.878 1.695-5.57 2.262-7.877 2.262" transform="translate(-184 -70) translate(832 148)"/>
                    <path fill="#9E3A20" d="M103.297 23.394s-7.435-2.27-8.53 1.72c-1.098 3.99-3.83 7.345-8.717 7.944-4.887.598-.617 7.109-7.401 7.236 0 0 1.387-1.778.888-2.775-.5-.998-1-2.5-.303-3.796 0 0-12.948 6.9-12.948 11.4l.175 3.242h-2.096L63.15 44.4 61.673 31.22s-3.492-2.792-2.893-5.584c.598-2.793 4.19-5.486 4.788-10.673.599-5.187 4.788-8.578 9.477-7.88 4.689.698 5.585-7.68 12.47-4.488 6.881 3.192 8.988-7.626 14.325.498 3.306 5.038 7.752-1.896 8.807 6.485 0 0 10.384.698 9.287 4.39-1.098 3.69 10.274 8.778 4.19 14.962l-1.598 15.436-1.32 3.999h-2.172s-.099-7.475-.496-9.37c-.4-1.892-2.993-8.074-3.693-11.566-.698-3.492-5.332-5.382-9.548-4.035" transform="translate(-184 -70) translate(832 148)"/>
                    <path fill="#D8C7C7" d="M70.776 60.144s-5.023-13.87-7.64-16.222h-.564s5.873 12.045 7.164 17.033l1.04-.81M71.077 73.074s-3.47-7.835-4.354-10.838c0 0 .313 6.387 4.576 12.447l-.222-1.609M113.496 60.77s4.414-13.902 7.03-16.412l.695.05s-5.587 12.84-6.876 17.828l-.85-1.466M112.468 73.205s3.908-8.226 4.791-11.229c0 0-.87 6.796-4.79 12.857v-1.628" transform="translate(-184 -70) translate(832 148)"/>
                    <path fill="#EFEAEA" d="M68.774 62.236s-.316-1.768 1.853-2.666c2.17-.898 16.226-5.61 19.822-5.61s19.241 4.971 22.696 6.216c1.252.451 1.42 1.514 1.399 3.634-.008.836-.385 26.005-24.095 25.098C66.736 88 68.774 62.236 68.774 62.236" transform="translate(-184 -70) translate(832 148)"/>
                    <path fill="#686363" d="M82.449 59.52c-.361 0-.7-.218-.84-.575-.177-.462.053-.981.516-1.16 1.155-.446 7.012-2.661 8.993-2.502 1.947.156 7.485 2.262 8.11 2.502.463.177.695.696.517 1.16-.177.462-.695.694-1.16.516-1.63-.625-6.178-2.273-7.61-2.387-1.219-.098-5.677 1.412-8.205 2.386-.104.041-.214.06-.321.06" transform="translate(-184 -70) translate(832 148)"/>
                    <path fill="#D8C7C7" d="M90.676 57.996s.455 20.727.34 21.924c-.115 1.197 4.001-8.086-.34-21.924" transform="translate(-184 -70) translate(832 148)"/>
                    <path fill="#FCCF8D" d="M74.55 96.829l8.714 13.168.444 6.14 6.968 13.61 7.31-13.151.72-6.525 10.252-13.242 9.982 9.65-.141 1.166c11.513 4.879 36.457 19.28 38.44 20.662 7.426 5.18 4.621 4.44 10.29 13.84 2.444 4.053 1.519 5.514 4.19 12.364 1.767 4.543 1.432 11.957 3.18 17.997 1.807 6.25 3.78 18.56 5.458 26.4H0s-.057-13.58 3.474-24.604c1.398-4.367 1.285-12.485 2.956-17.14 1.892-5.27 3.086-7.37 5.106-11.89 2.5-5.59 6.365-12.2 8.66-14.599 6.27-6.555 31.773-19.42 42.94-24.179l.46-1.491 10.954-8.176" transform="translate(-184 -70) translate(832 148)"/>
                    <path fill="#E8BA7C" d="M82.613 111.492l-12.778 15.663-6.238-20.338s3.1 15.123 5.34 24.501l12.187-16.035 1.86 1.297-.37-5.088M99.693 111.492l12.775 15.663 6.24-20.338s-3.1 15.123-5.34 24.501l-12.188-16.035-1.86 1.297.373-5.088M34.865 198.908s-2.245-42.795-4.19-51.323l.897 51.323h3.293M145.593 198.908s2.243-42.795 4.19-51.323l-.9 51.323h-3.29M90.253 197.98c-.33 0-.784-.269-.784-.598v-65.24c0-.33.455-.6.784-.6.33 0 .784.27.784.6v65.24c0 .33-.455.598-.784.598" transform="translate(-184 -70) translate(832 148)"/>
                </g>
            </g>
        </g>
    </g>
</svg>
