<svg xmlns="http://www.w3.org/2000/svg" width="20" height="20" viewBox="0 0 20 20">
    <path fill="#828896" fill-rule="evenodd" d="M10.617 1.594l5.435-1.53c3.164-.884 5.678 7.565 2.434 8.45l-5.192 1.528c-3.488.966-5.84-7.563-2.677-8.448zm-1.135 9.575l4.218 5.633c.811 1.126-1.136 1.69-1.947.563l-2.677-3.54v5.15a.937.937 0 0 1-1.865 0v-5.15l-2.758 3.62c-.811 1.127-2.677.483-1.866-.643l4.137-5.553 2.758-.724v.644zM.64 6.985l2.271-.644c-.324.966.244 3.058 1.136 3.701l-2.19.644C.316 11.17-.739 7.387.64 6.985zM4.777 4.49l3.65-1.046c-.567 1.69.406 5.07 1.866 6.116l-3.57 1.046C4.21 11.33 2.507 5.134 4.778 4.49zm11.924-3.38c.65-.16 1.622 1.047 2.11 2.737.486 1.69.324 3.218-.406 3.46-.65.16-1.623-1.046-2.11-2.736-.486-1.69-.324-3.219.406-3.46z"/>
</svg>
