<?xml version="1.0" encoding="UTF-8"?>
<svg width="33px" height="33px" viewBox="0 0 33 33" version="1.1" xmlns="http://www.w3.org/2000/svg" xmlns:xlink="http://www.w3.org/1999/xlink">
    <!-- Generator: sketchtool 41 (35326) - http://www.bohemiancoding.com/sketch -->
    <title>767FDF10-7142-48C0-A37B-7660A394A5B3</title>
    <desc>Created with sketchtool.</desc>
    <defs></defs>
    <g id="Symbols" stroke="none" stroke-width="1" fill="none" fill-rule="evenodd">
        <g id="FOOTER" transform="translate(-1308.000000, -49.000000)" fill="#FFFFFF">
            <path d="M1324.5,82 C1333.6127,82 1341,74.6126984 1341,65.5 C1341,56.3873016 1333.6127,49 1324.5,49 C1315.3873,49 1308,56.3873016 1308,65.5 C1308,74.6126984 1315.3873,82 1324.5,82 Z M1325.41723,71.3728814 L1325.41723,66.0151278 L1327.23124,66.0151278 L1327.5028,63.9270571 L1325.41723,63.9270571 L1325.41723,62.5939286 C1325.41723,61.9893829 1325.58652,61.5773926 1326.46096,61.5773926 L1327.57627,61.5769126 L1327.57627,59.7093567 C1327.38334,59.6839973 1326.72131,59.6271186 1325.95112,59.6271186 C1324.34312,59.6271186 1323.24234,60.6001757 1323.24234,62.3871735 L1323.24234,63.9270571 L1321.42373,63.9270571 L1321.42373,66.0151278 L1323.24234,66.0151278 L1323.24234,71.3728814 L1325.41723,71.3728814 Z" id="faceboob_ico"></path>
        </g>
    </g>
</svg>
