<?xml version="1.0" encoding="UTF-8"?>
<svg width="165px" height="165px" viewBox="0 0 165 165" version="1.1" xmlns="http://www.w3.org/2000/svg" xmlns:xlink="http://www.w3.org/1999/xlink">
    <!-- Generator: Sketch 61.2 (89653) - https://sketch.com -->
    <title>analyse</title>
    <desc>Created with Sketch.</desc>
    <defs>
        <rect id="path-1" x="0" y="0" width="43.7633612" height="43.7633612" rx="14.7343418"></rect>
        <filter x="-22.9%" y="-11.4%" width="145.7%" height="145.7%" filterUnits="objectBoundingBox" id="filter-2">
            <feOffset dx="0" dy="5" in="SourceAlpha" result="shadowOffsetOuter1"></feOffset>
            <feGaussianBlur stdDeviation="2.5" in="shadowOffsetOuter1" result="shadowBlurOuter1"></feGaussianBlur>
            <feColorMatrix values="0 0 0 0 0   0 0 0 0 0   0 0 0 0 0  0 0 0 0.1 0" type="matrix" in="shadowBlurOuter1"></feColorMatrix>
        </filter>
        <rect id="path-3" x="0" y="0" width="43.7633612" height="43.7633612" rx="14.7343418"></rect>
        <filter x="-22.9%" y="-11.4%" width="145.7%" height="145.7%" filterUnits="objectBoundingBox" id="filter-4">
            <feOffset dx="0" dy="5" in="SourceAlpha" result="shadowOffsetOuter1"></feOffset>
            <feGaussianBlur stdDeviation="2.5" in="shadowOffsetOuter1" result="shadowBlurOuter1"></feGaussianBlur>
            <feColorMatrix values="0 0 0 0 0   0 0 0 0 0   0 0 0 0 0  0 0 0 0.1 0" type="matrix" in="shadowBlurOuter1"></feColorMatrix>
        </filter>
        <rect id="path-5" x="0" y="0" width="43.7633612" height="43.7633612" rx="14.7343418"></rect>
        <filter x="-22.9%" y="-11.4%" width="145.7%" height="145.7%" filterUnits="objectBoundingBox" id="filter-6">
            <feOffset dx="0" dy="5" in="SourceAlpha" result="shadowOffsetOuter1"></feOffset>
            <feGaussianBlur stdDeviation="2.5" in="shadowOffsetOuter1" result="shadowBlurOuter1"></feGaussianBlur>
            <feColorMatrix values="0 0 0 0 0   0 0 0 0 0   0 0 0 0 0  0 0 0 0.1 0" type="matrix" in="shadowBlurOuter1"></feColorMatrix>
        </filter>
        <rect id="path-7" x="0" y="0" width="43.7633612" height="43.7633612" rx="14.7343418"></rect>
        <filter x="-22.9%" y="-11.4%" width="145.7%" height="145.7%" filterUnits="objectBoundingBox" id="filter-8">
            <feOffset dx="0" dy="5" in="SourceAlpha" result="shadowOffsetOuter1"></feOffset>
            <feGaussianBlur stdDeviation="2.5" in="shadowOffsetOuter1" result="shadowBlurOuter1"></feGaussianBlur>
            <feColorMatrix values="0 0 0 0 0   0 0 0 0 0   0 0 0 0 0  0 0 0 0.1 0" type="matrix" in="shadowBlurOuter1"></feColorMatrix>
        </filter>
        <rect id="path-9" x="0" y="0" width="43.7633612" height="43.7633612" rx="14.7343418"></rect>
        <filter x="-22.9%" y="-11.4%" width="145.7%" height="145.7%" filterUnits="objectBoundingBox" id="filter-10">
            <feOffset dx="0" dy="5" in="SourceAlpha" result="shadowOffsetOuter1"></feOffset>
            <feGaussianBlur stdDeviation="2.5" in="shadowOffsetOuter1" result="shadowBlurOuter1"></feGaussianBlur>
            <feColorMatrix values="0 0 0 0 0   0 0 0 0 0   0 0 0 0 0  0 0 0 0.1 0" type="matrix" in="shadowBlurOuter1"></feColorMatrix>
        </filter>
    </defs>
    <g id="Workspace" stroke="none" stroke-width="1" fill="none" fill-rule="evenodd">
        <g id="1---Landing-Copy-3" transform="translate(-356.000000, -781.000000)">
            <g id="analyse" transform="translate(361.000000, 781.000000)">
                <circle id="Oval" fill="#F7F9FD" fill-rule="nonzero" cx="77.4729772" cy="77.4729772" r="59.7310741"></circle>
                <g id="Group-17">
                    <g id="Group-18" transform="translate(55.591297, 0.000000)">
                        <g id="Rectangle-Copy-4">
                            <use fill="black" fill-opacity="1" filter="url(#filter-2)" xlink:href="#path-1"></use>
                            <use fill="#E252FF" fill-rule="evenodd" xlink:href="#path-1"></use>
                        </g>
                        <path d="M24.0189735,18.3985145 L27.3632447,21.7453471 L29.4242789,19.6791903 L30.7783801,19.6791903 L30.7783801,29.0708124 C30.7783801,30.0185125 30.012536,30.7783801 29.0708124,30.7783801 L29.0708124,30.7783801 L15.4102711,30.7783801 C14.4685476,30.7783801 13.7027035,30.0185125 13.7027035,29.0708124 L13.7027035,29.0708124 L13.7027035,21.3867579 L16.6175215,21.3867579 L17.9716226,20.0377795 L20.6038382,22.6674337 L24.0189735,18.3985145 Z M28.2178824,24.8018933 L26.5103147,24.8018933 L26.5103147,29.0708124 L28.2178824,29.0708124 L28.2178824,24.8018933 Z M24.802747,26.5094609 L23.0951794,26.5094609 L23.0951794,29.0708124 L24.802747,29.0708124 L24.802747,26.5094609 Z M21.3867579,24.8018933 L19.6791903,24.8018933 L19.6791903,29.0708124 L21.3867579,29.0708124 L21.3867579,24.8018933 Z M17.9716226,26.5094609 L16.2640549,26.5094609 L16.2640549,29.0708124 L17.9716226,29.0708124 L17.9716226,26.5094609 Z M29.0708124,13.7027035 C30.012536,13.7027035 30.7783801,14.4711089 30.7783801,15.4102711 L30.7783801,15.4102711 L30.7783801,17.9716226 L28.7173459,17.9716226 L27.3632447,19.3291389 L23.8772454,15.8457009 L20.46211,20.11462 L17.9716226,17.6215712 L15.9105884,19.6791903 L13.7027035,19.6791903 L13.7027035,15.4102711 C13.7027035,14.4711089 14.4685476,13.7027035 15.4102711,13.7027035 L15.4102711,13.7027035 Z" id="market_ico-copy" fill="#FFFFFF"></path>
                    </g>
                    <g id="Group-18-Copy" transform="translate(55.591297, 111.182593)">
                        <g id="Rectangle-Copy-4">
                            <use fill="black" fill-opacity="1" filter="url(#filter-4)" xlink:href="#path-3"></use>
                            <use fill="#24E084" fill-rule="evenodd" xlink:href="#path-3"></use>
                        </g>
                        <path d="M22.4752314,14.1185207 L27.5051617,12.708486 C30.4330316,11.8921501 32.7603128,19.6844471 29.7573693,20.500783 L24.9526597,21.9108177 C21.7244955,22.8013659 19.5473615,14.9348566 22.4752314,14.1185207 Z M21.4242011,22.9497906 L25.3280277,28.1446553 C26.0787635,29.1836282 24.2769975,29.7031147 23.5262616,28.6641418 L21.0488332,25.3987983 L21.0488332,30.1483888 C21.0488332,31.4099988 19.3221407,31.4099988 19.3221407,30.1483888 L19.3221407,25.3987983 L16.7696387,28.7383541 C16.0189029,29.7773271 14.2922103,29.1836282 15.0429462,28.1446553 L18.8716992,23.024003 L21.4242011,22.3560918 L21.4242011,22.9497906 Z M13.2411801,19.0907483 L15.3432406,18.4970495 C15.0429462,19.3875977 15.5684613,21.3171189 16.3942708,21.9108177 L14.3672839,22.5045165 C12.9408858,22.9497906 11.9649291,19.4618101 13.2411801,19.0907483 Z M17.0699331,16.7901654 L20.4482445,15.8254048 C19.9227294,17.3838642 20.8236124,20.500783 22.174937,21.4655436 L18.8716992,22.4303042 C16.544418,23.0982153 14.9678726,17.3838642 17.0699331,16.7901654 Z M28.1057504,13.6732466 C28.7063391,13.5248219 29.6072221,14.6380072 30.0576637,16.1964666 C30.5081052,17.754926 30.357958,19.1649607 29.6822957,19.3875977 C29.081707,19.5360224 28.180824,18.4228371 27.7303825,16.8643777 C27.2799409,15.3059184 27.4300881,13.8958837 28.1057504,13.6732466 Z" id="evol_ico-copy-2" fill="#FFFFFF"></path>
                    </g>
                    <g id="Group-18-Copy-2" transform="translate(0.000000, 55.591297)">
                        <g id="Rectangle-Copy-4">
                            <use fill="black" fill-opacity="1" filter="url(#filter-6)" xlink:href="#path-5"></use>
                            <use fill="#1888FF" fill-rule="evenodd" xlink:href="#path-5"></use>
                        </g>
                        <path d="M15.420898,20.5967787 L17.5359783,21.4943477 C17.2975025,22.1105072 17.1072752,22.7450971 16.9670946,23.3921183 L16.8868674,23.7653278 L19.9190904,26.8704313 L20.2837594,26.7901913 C20.9159742,26.6467277 21.5360421,26.4520453 22.1381014,26.2079844 L23.0151304,28.3725998 C23.0325902,28.4161793 23.0702982,28.447848 23.1154691,28.4568682 C23.16064,28.4658885 23.2072148,28.4510504 23.2394019,28.4173849 L24.5649738,27.0607682 C25.0024391,26.6131105 25.2342936,25.9968489 25.2031446,25.3645308 L25.1557376,24.4930865 C27.6099601,22.638235 30.0933562,19.3857137 30.7698172,13.7091964 C30.8087078,13.4207034 30.7137436,13.1301718 30.5130656,12.9236958 C30.3123877,12.7172197 30.0290152,12.6184834 29.7469206,12.6567455 C24.2021281,13.3546474 21.0222142,15.8980705 19.2098091,18.4023066 L18.3601303,18.3575214 C17.7436498,18.3231922 17.1416898,18.5570095 16.7027096,19.0013079 L15.3771377,20.3579246 C15.3397517,20.3904521 15.3222607,20.4409862 15.3313038,20.4903454 C15.3403468,20.5397046 15.3745376,20.5803214 15.420898,20.5967787 Z M24.8712569,15.5967069 C25.6658482,14.8268653 26.9516742,14.8283122 27.7444305,15.59994 C28.5371868,16.3715678 28.5371868,17.6216773 27.7444305,18.3933051 C26.9516742,19.1649329 25.6658482,19.1663798 24.8712569,18.3965382 C24.4885018,18.0257051 24.2733604,17.5219726 24.2733604,16.9966226 C24.2733604,16.4712725 24.4885018,15.9675401 24.8712569,15.5967069 Z M15.2162043,27.526605 C14.8182359,27.3917079 14.3908762,27.3586851 13.9757658,27.4307543 C13.9007736,27.4464219 13.8227055,27.4238002 13.7690261,27.3708477 C13.701964,27.306327 13.6837939,27.208204 13.7235433,27.1252304 C14.163899,26.2106554 15.3319786,24.371521 17.4469263,25.8572061 C17.4692712,25.8765255 17.4820416,25.9041214 17.4820416,25.9330879 C17.4820416,25.9620544 17.4692712,25.9896503 17.4469263,26.0089697 C16.872677,26.4457833 16.5479624,27.1205174 16.5724171,27.8261382 C16.5756095,27.9108505 16.6459707,27.9788121 16.7336741,27.9818955 C17.4610423,28.0101425 18.1591455,27.7033757 18.6150058,27.1551837 C18.6350305,27.1315017 18.6650117,27.1177633 18.696668,27.1177633 C18.7283244,27.1177633 18.7583056,27.1315017 18.7783302,27.1551837 C19.0719007,27.4926579 19.8802531,28.5949403 18.98507,29.6592819 C18.5942651,30.1129771 18.0343131,30.3999027 17.4262523,30.4580374 C16.5579453,30.5478973 14.9536449,30.8214711 14.2982799,31.5443447 C14.2446755,31.6056902 14.1604649,31.6335575 14.0791753,31.6168517 C13.9978858,31.600146 13.9327147,31.5415792 13.9096091,31.4644692 C13.6780606,30.7016578 13.3183334,28.9963149 15.2162043,27.526605 Z" id="project_ico-copy" fill="#FFFFFF"></path>
                    </g>
                    <g id="Group-18-Copy-4" transform="translate(55.591297, 55.591297)">
                        <g id="Rectangle-Copy-4">
                            <use fill="black" fill-opacity="1" filter="url(#filter-8)" xlink:href="#path-7"></use>
                            <use fill="#2C3449" fill-rule="evenodd" xlink:href="#path-7"></use>
                        </g>
                        <path d="M21.8816806,22.8407802 C26.3990399,22.8407802 29.5544777,25.206879 29.5544777,28.595378 L29.5544777,28.595378 L29.5544777,29.5544777 L14.2088835,29.5544777 L14.2088835,28.595378 C14.2088835,25.206879 17.3643213,22.8407802 21.8816806,22.8407802 Z M21.8816806,14.2088835 C23.9974544,14.2088835 25.7180791,15.9295082 25.7180791,18.045282 C25.7180791,20.1600967 23.9974544,21.8816806 21.8816806,21.8816806 C19.7659068,21.8816806 18.045282,20.1600967 18.045282,18.045282 C18.045282,15.9295082 19.7659068,14.2088835 21.8816806,14.2088835 Z" id="profile_ico-copy-4" fill="#FFFFFF"></path>
                    </g>
                    <g id="Group-18-Copy-3" transform="translate(111.182593, 55.591297)">
                        <g id="Rectangle-Copy-4">
                            <use fill="black" fill-opacity="1" filter="url(#filter-10)" xlink:href="#path-9"></use>
                            <use fill="#FFB800" fill-rule="evenodd" xlink:href="#path-9"></use>
                        </g>
                        <path d="M24.7702716,30.3040557 L22.3986499,34.2567586 L20.0270281,30.3040557 L24.7702716,30.3040557 Z M24.7702716,15.8108117 L24.7702716,28.9864881 L20.0270281,28.9864881 L20.0270281,15.8108117 L24.7702716,15.8108117 Z M22.3986499,10.5405411 C23.7077851,10.5405411 24.7702716,11.8106763 24.7702716,13.3785818 L24.7702716,13.3785818 L24.7702716,14.493244 L20.0270281,14.493244 L20.0270281,13.3785818 C20.0270281,11.8106763 21.0895147,10.5405411 22.3986499,10.5405411 Z" id="method_ico-copy" fill="#FFFFFF" transform="translate(22.398650, 22.398650) rotate(50.000000) translate(-22.398650, -22.398650) "></path>
                    </g>
                </g>
            </g>
        </g>
    </g>
</svg>