<?xml version="1.0" encoding="UTF-8"?>
<svg width="153px" height="126px" viewBox="0 0 153 126" version="1.1" xmlns="http://www.w3.org/2000/svg" xmlns:xlink="http://www.w3.org/1999/xlink">
    <!-- Generator: Sketch 61.2 (89653) - https://sketch.com -->
    <title>general score</title>
    <desc>Created with Sketch.</desc>
    <g id="Workspace" stroke="none" stroke-width="1" fill="none" fill-rule="evenodd">
        <g id="1---Landing-Copy-3" transform="translate(-928.000000, -1201.000000)">
            <g id="general-score" transform="translate(933.000000, 1210.000000)">
                <path d="M133.615408,111.661988 C140.870851,100.370806 145.07908,86.9363263 145.07908,72.519237 C145.07908,32.4679683 112.602021,1.42108547e-14 72.5395398,1.42108547e-14 C51.1323123,1.42108547e-14 31.890918,9.27043825 18.613061,24.0146734 C16.4893341,26.3729401 14.5181688,28.8712397 12.7151045,31.4940372 C10.8479896,34.2100049 9.16113081,37.0594727 7.67178298,40.0251905 C2.76317171,49.7996404 0,60.8368424 0,72.519237 C0,86.9174854 4.19723665,100.335691 11.435242,111.61771 M18.613061,24.0146734 C16.4893341,26.3729401 14.5181688,28.8712397 12.7151045,31.4940372 C10.8479896,34.2100049 9.16113081,37.0594727 7.67178298,40.0251905 C2.76317171,49.7996404 0,60.8368424 0,72.519237 C0,86.9174854 4.19723665,100.335691 11.435242,111.61771" id="Shape-Copy-7" stroke="#E8EAF0" stroke-width="4.89030605" fill-opacity="0" fill="#D8D8D8" fill-rule="nonzero"></path>
                <path d="M97.0362009,4.23926204 C89.3839017,1.49504907 81.1363633,1.42108547e-14 72.5395398,1.42108547e-14 C51.1323123,1.42108547e-14 31.890918,9.27043825 18.613061,24.0146734 C16.4893341,26.3729401 14.5181688,28.8712397 12.7151045,31.4940372 C10.8479896,34.2100049 9.16113081,37.0594727 7.67178298,40.0251905 C2.76317171,49.7996404 0,60.8368424 0,72.519237 C0,86.9174854 4.19723665,100.335691 11.435242,111.61771 M18.613061,24.0146734 C16.4893341,26.3729401 14.5181688,28.8712397 12.7151045,31.4940372 C10.8479896,34.2100049 9.16113081,37.0594727 7.67178298,40.0251905 C2.76317171,49.7996404 0,60.8368424 0,72.519237 C0,86.9174854 4.19723665,100.335691 11.435242,111.61771" id="Shape-Copy-8" stroke="#24E084" stroke-width="10" fill-opacity="0" fill="#D8D8D8" fill-rule="nonzero" stroke-linecap="round"></path>
                <circle id="Oval" stroke="#24E084" stroke-width="10" fill="#FFFFFF" fill-rule="nonzero" cx="98.7053571" cy="6.70535706" r="10.7053571"></circle>
            </g>
        </g>
    </g>
</svg>
