<?xml version="1.0" encoding="UTF-8"?>
<svg width="248px" height="291px" viewBox="0 0 248 291" version="1.1" xmlns="http://www.w3.org/2000/svg" xmlns:xlink="http://www.w3.org/1999/xlink">
    <title>Group 2</title>
    <g id="Page-1" stroke="none" stroke-width="1" fill="none" fill-rule="evenodd">
        <g id="Group-2">
            <g id="logo-bob-loading" fill-rule="nonzero">
                <g id="bob_round_blue">
                    <circle id="Oval-2" fill="#248BFE" cx="124" cy="124" r="124"></circle>
                    <g id="bob_blue_logo" transform="translate(45.000000, 86.000000)" fill="#FFFFFF">
                        <path d="M47.5603036,50.3885069 C47.5603036,46.9266644 44.7935846,44.1203187 41.3806246,44.1203187 C37.9676646,44.1203187 35.2009455,46.9266644 35.2009455,50.3885069 C35.2009455,57.0102715 30.1767734,62.3976358 24.0014845,62.3976358 C17.8261957,62.3976358 12.8020235,57.0102715 12.8020235,50.3885069 C12.8020235,43.7667423 17.8261957,38.3784873 24.0014845,38.3784873 C26.148304,38.3784873 28.2319042,39.0313123 30.0283838,40.2648219 C32.8548099,42.2072655 36.6971338,41.457363 38.6103933,38.590455 C40.5245309,35.7244378 39.7852172,31.8270818 36.9596692,29.8855287 C33.1094429,27.2403854 28.6287804,25.842111 24.0014845,25.842111 C19.9501859,25.842111 16.1350814,26.9135276 12.8020235,28.7980809 L12.8020235,6.32861239 C12.8020235,2.8667699 10.0353044,0.0604242074 6.62234447,0.0604242074 C3.20938443,0.0604242074 0.442665413,2.8667699 0.442665413,6.32861239 L0.442665413,50.3885069 C0.442665413,63.923269 11.0116902,74.934012 24.0014845,74.934012 C36.9912788,74.934012 47.5603036,63.923269 47.5603036,50.3885069 Z" id="Fill-143"></path>
                        <rect id="Rectangle-5" x="109.110286" y="3.12969948" width="12.1233651" height="52.9066667" rx="5.81747471"></rect>
                        <path d="M78.3794415,74.892202 C64.8496697,74.892202 53.8816226,63.9231784 53.8816226,50.392202 C53.8816226,36.8612257 64.8496697,25.892202 78.3794415,25.892202 C91.9092133,25.892202 102.87726,36.8612257 102.87726,50.392202 C102.87726,63.9231784 91.9092133,74.892202 78.3794415,74.892202 Z M78.3794415,62.642202 C85.1443274,62.642202 90.628351,57.1576902 90.628351,50.392202 C90.628351,43.6267138 85.1443274,38.142202 78.3794415,38.142202 C71.6145556,38.142202 66.1305321,43.6267138 66.1305321,50.392202 C66.1305321,57.1576902 71.6145556,62.642202 78.3794415,62.642202 Z" id="Combined-Shape"></path>
                        <path d="M133.610286,74.892202 C120.079309,74.892202 109.110286,63.9231784 109.110286,50.392202 C109.110286,36.8612257 120.079309,25.892202 133.610286,25.892202 C147.141262,25.892202 158.110286,36.8612257 158.110286,50.392202 C158.110286,63.9231784 147.141262,74.892202 133.610286,74.892202 Z M133.610286,62.642202 C140.375774,62.642202 145.860286,57.1576902 145.860286,50.392202 C145.860286,43.6267138 140.375774,38.142202 133.610286,38.142202 C126.844798,38.142202 121.360286,43.6267138 121.360286,50.392202 C121.360286,57.1576902 126.844798,62.642202 133.610286,62.642202 Z" id="Combined-Shape"></path>
                    </g>
                </g>
            </g>
            <text id="Loading..." font-family="Lato-Bold, Lato" font-size="13" font-weight="bold" letter-spacing="3.1" fill="#21293D">
                <tspan x="74.43675" y="288">LOADING...</tspan>
            </text>
        </g>
    </g>
</svg>