<?xml version="1.0" encoding="UTF-8"?>
<svg width="31px" height="29px" viewBox="0 0 31 29" version="1.1" xmlns="http://www.w3.org/2000/svg" xmlns:xlink="http://www.w3.org/1999/xlink">
    <!-- Generator: Sketch 47 (45396) - http://www.bohemiancoding.com/sketch -->
    <title>love-heart_picto</title>
    <desc>Created with Sketch.</desc>
    <defs></defs>
    <g id="Product" stroke="none" stroke-width="1" fill="none" fill-rule="evenodd">
        <g id="Transparency-Copy-3" transform="translate(-304.000000, -6011.000000)" fill-rule="nonzero" fill="#ff1f4e">
            <path d="M332.494057,6013.50444 C330.959886,6011.97763 328.749433,6011 326.425532,6011 C325.056695,6011 323.770085,6011.31438 322.533163,6011.94447 C321.296681,6012.575 320.291929,6013.43679 319.5,6014.53203 C318.708071,6013.43679 317.703319,6012.575 316.465078,6011.94447 C315.228156,6011.31438 313.943305,6011 312.574468,6011 C310.248809,6011 308.040113,6011.97763 306.505943,6013.50444 C304.972213,6015.02947 304,6017.25048 304,6019.5891 C304,6021.19727 304.339901,6022.75856 304.75939,6023.9334 C304.966936,6024.51529 305.279575,6025.14759 305.698624,6025.79006 C306.121191,6026.44093 306.505943,6026.98347 306.835731,6027.41547 C307.165518,6027.84526 307.636454,6028.38603 308.270085,6029.00595 C308.905475,6029.6294 309.42434,6030.11844 309.803816,6030.46554 C310.183291,6030.81441 310.760638,6031.32909 311.51827,6031.99058 C312.392426,6032.7542 313.015943,6033.32239 313.414326,6033.68319 C313.806113,6034.0356 314.371149,6034.57814 315.11295,6035.29136 C316.614582,6036.73371 317.715191,6038.06198 318.757759,6039.58525 C318.952113,6039.87044 319.202752,6040 319.5,6040 C319.812638,6040 320.083943,6039.87177 320.27478,6039.58525 C320.94095,6038.57843 321.712213,6037.54907 322.61583,6036.53518 C323.526043,6035.51067 324.285433,6034.71433 324.891801,6034.14614 C325.504766,6033.57088 326.387716,6032.76791 327.530099,6031.74208 C328.235844,6031.10801 328.799121,6030.63135 329.179035,6030.28425 C329.558511,6029.93538 330.053191,6029.45519 330.663078,6028.84013 C331.272525,6028.22729 331.755333,6027.70023 332.096993,6027.26513 C332.447447,6026.8212 332.818567,6026.28396 333.235858,6025.64149 C334.088028,6024.32693 334.460468,6023.28739 334.768269,6021.8278 C334.92261,6021.09866 335,6020.35096 335,6019.5891 C335,6017.25048 334.026028,6015.02947 332.494057,6013.50444 Z" id="love-heart_picto"></path>
        </g>
    </g>
</svg>
