<svg xmlns="http://www.w3.org/2000/svg" width="456" height="502" viewBox="0 0 456 502">
    <g fill="none" fill-rule="evenodd" opacity=".2" transform="rotate(-20 253.336 247.664)">
        <circle cx="250" cy="250" r="250" fill="#58BBFB"/>
        <path fill="#FFF" fill-rule="nonzero" d="M298.989 288.25c.811 5.323 1.006 12.757 1.006 12.757.087 5.034-.966 65.778-.966 73.632 0 14.398-82.538 26.573-102.24 25.264-19.7-1.309-24.625-5.63-27.088-15.707-2.463-10.076 9.85-18.324 9.85-18.324s-19.7 3.926-23.394-13.09c-3.694-17.015 18.47-19.633 18.47-19.633-20.933 0-24.627-6.545-24.627-19.634s22.164-15.707 22.164-15.707-13.545-1.309-14.776-15.707c-1.231-14.398 17.238-17.792 22.164-17.792 3.693 0 11.643-.019 16.233 0 29.632.12 26.862-5.768 26.862-5.768s-13.544-52.356-2.462-69.372 20.932-5.631 22.163-3.013c2.463 7.853 1.253 15.776 3.123 23.857 7.717 33.353 39.866 62.446 50.963 71.669.986.82 1.979 2.79 2.555 6.569zm14.989-9.63h33.583a2.44 2.44 0 0 1 2.439 2.44v97.535a2.44 2.44 0 0 1-2.44 2.44h-33.582a2.44 2.44 0 0 1-2.44-2.44V281.06a2.44 2.44 0 0 1 2.44-2.44z"/>
        <path fill="#FFF" d="M150 226.334L125.279 240 130 211.056l-20-20.499 27.64-4.223L150 160l12.36 26.334 27.64 4.223-20 20.499L174.721 240zM315 228.043L293.369 240l4.131-25.326-17.5-17.936 24.184-3.695L315 170l10.816 23.043L350 196.738l-17.5 17.936L336.631 240zM230 146.334L205.279 160 210 131.056l-20-20.499 27.64-4.223L230 80l12.36 26.334 27.64 4.223-20 20.499L254.721 160z"/>
    </g>
</svg>
