<svg xmlns="http://www.w3.org/2000/svg" width="18" height="18" viewBox="0 0 18 18">
    <path fill="#828896" fill-rule="evenodd" d="M13.5 16.2h1.8v-4.5h-1.8v4.5zm-3.6 0h1.8v-2.7H9.9v2.7zm-3.6 0h1.8v-4.5H6.3v4.5zm-3.6 0h1.8v-2.7H2.7v2.7zm11.7-7.722L16.573 6.3H18v9.9c0 .999-.807 1.8-1.8 1.8H1.8C.807 18 0 17.199 0 16.2V8.1h3.073L4.5 6.678 7.275 9.45l3.6-4.5L14.4 8.478zM16.2 0c.993 0 1.8.81 1.8 1.8v2.7h-2.173L14.4 5.931l-3.675-3.672-3.6 4.5L4.5 4.131 2.327 6.3H0V1.8C0 .81.807 0 1.8 0h14.4z"/>
</svg>
