<svg xmlns="http://www.w3.org/2000/svg" width="18" height="20" viewBox="0 0 18 20">
    <path fill="#828896" fill-rule="evenodd" d="M1.811 8.378l2.23.947c-.252.649-.452 1.318-.6 2l-.084.393 3.196 3.274.384-.085a12.66 12.66 0 0 0 1.955-.614l.925 2.282a.142.142 0 0 0 .236.047l1.397-1.43a2.391 2.391 0 0 0 .673-1.788l-.05-.918c2.587-1.956 5.205-5.384 5.918-11.368a.998.998 0 0 0-.27-.828.948.948 0 0 0-.808-.281C11.068.744 7.716 3.425 5.805 6.065l-.895-.047a2.277 2.277 0 0 0-1.748.679l-1.397 1.43a.15.15 0 0 0 .046.251zm9.962-5.27a2.186 2.186 0 0 1 3.029.003 2.043 2.043 0 0 1 0 2.945 2.186 2.186 0 0 1-3.029.003 2.055 2.055 0 0 1-.63-1.476c0-.553.227-1.084.63-1.475zM1.595 15.683a2.66 2.66 0 0 0-1.307-.1.24.24 0 0 1-.218-.064.224.224 0 0 1-.048-.259c.464-.964 1.695-2.903 3.925-1.336.023.02.037.049.037.08 0 .03-.014.06-.037.08a2.308 2.308 0 0 0-.922 1.915c.003.09.078.161.17.164a2.455 2.455 0 0 0 1.983-.871.113.113 0 0 1 .086-.04c.034 0 .065.015.086.04.31.356 1.162 1.517.218 2.64a2.479 2.479 0 0 1-1.643.841c-.915.095-2.606.384-3.297 1.146a.242.242 0 0 1-.231.076.234.234 0 0 1-.179-.16c-.244-.805-.623-2.602 1.377-4.152z"/>
</svg>
