<?xml version="1.0" encoding="UTF-8"?>
<svg width="90px" height="90px" viewBox="0 0 90 90" version="1.1" xmlns="http://www.w3.org/2000/svg" xmlns:xlink="http://www.w3.org/1999/xlink">
    <!-- Generator: Sketch 48.2 (47327) - http://www.bohemiancoding.com/sketch -->
    <title>rocket</title>
    <desc>Created with Sketch.</desc>
    <defs></defs>
    <g id="Landing-page-Copy" stroke="none" stroke-width="1" fill="none" fill-rule="evenodd" transform="translate(-675.000000, -1508.000000)">
        <g id="Group-12" transform="translate(675.000000, 1508.000000)">
            <g id="rocket">
                <path d="M11.5129219,78.4002079 C31.4912325,76.5981664 30.6956081,66.1593573 30.6956081,66.1593573 L27.3684206,62.7977127 L27.3365137,62.7655577 L24.0094969,59.403913 C24.0094969,59.403913 13.55172,58.472949 11.4811856,78.3680529 L11.44143,78.4071834 L11.4772612,78.4036106 L11.4731662,78.4391682 L11.5129219,78.4002079" id="Fill-19" fill="#EC9B3A"></path>
                <polyline id="Fill-20" fill="#C23537" points="21.6335438 57.3783176 33.7224956 69.2669943 37.5820331 65.3612665 25.4952994 53.4717391 21.6335438 57.3783176"></polyline>
                <path d="M47.6664825,42.4218147 C36.0090412,30.9569376 17.4075037,30.9191682 6.11912437,42.3410019 C3.49610625,44.9952363 1.5062775,48.0366919 0.1330875,51.2816257 C10.8169425,46.6009452 23.853375,48.6597164 32.8018031,57.461172 C41.7504019,66.2638185 43.9990687,79.2374291 39.4563487,89.9579773 C42.6896925,88.5440076 45.709755,86.5165406 48.3344794,83.8626465 C59.6233706,72.4403025 59.3235825,53.8873724 47.6664825,42.4218147" id="Fill-21" fill="#2C4056"></path>
                <path d="M37.5032044,63.4574858 C42.3733538,71.5809641 43.0505644,81.4716068 39.4563488,89.9579773 C42.6896925,88.5440076 45.709755,86.5165406 48.3344794,83.8626465 C57.8176463,74.265482 59.1176381,59.6358034 52.3781213,48.4063894 L37.5032044,63.4574858" id="Fill-22" fill="#12161A"></path>
                <path d="M41.2752112,22.8671456 C31.6413825,32.6153875 24.9298481,43.6057656 21.5832094,53.9533837 C24.6525825,55.5334026 27.5496244,57.5950662 30.1453425,60.1492628 C32.7412312,62.7020983 34.8489619,65.561172 36.4775775,68.6024575 C46.7986837,65.1157656 57.72039,58.2665784 67.3535362,48.519017 C82.6574044,33.0354442 90.6056287,14.4124197 89.3677444,0.226786389 C75.1307944,-0.807618147 56.5782262,7.38255198 41.2752112,22.8671456" id="Fill-23" fill="#FCFAF9"></path>
                <path d="M89.3677444,0.226786389 C87.7430531,0.108884688 29.6965987,59.7244423 29.6965987,59.7244423 C29.8460663,59.866673 29.9977519,60.00431 30.1453425,60.1492628 C32.7412312,62.7020983 34.8489619,65.561172 36.4775775,68.6024575 C46.7986838,65.1157656 57.72039,58.2665784 67.3535363,48.519017 C82.6574044,33.0354442 90.6056288,14.4124197 89.3677444,0.226786389" id="Fill-24" fill="#C1C0BB"></path>
                <path d="M31.5275756,53.1680529 C25.16241,59.6077316 20.7906562,66.3014178 19.7450663,70.6717769 C24.1098244,69.5672779 30.7583981,65.1118526 37.1232225,58.6718336 C43.4878762,52.2326654 47.8594594,45.5365974 48.9053906,41.1675992 C44.5394381,42.2722684 37.8917175,46.7282042 31.5275756,53.1680529" id="Fill-25" fill="#ff4fa7"></path>
                <path d="M19.8025669,70.4631947 C19.785675,70.5322684 19.7614463,70.6047448 19.7450663,70.6717769 C24.1098244,69.5672779 30.7583981,65.1118526 37.1232225,58.6718336 C43.4878762,52.2326654 47.8594594,45.5365974 48.9053906,41.1675992 C48.8385056,41.1858034 48.7642837,41.2114934 48.6973987,41.2266352 L19.8025669,70.4631947" id="Fill-26" fill="#12161A"></path>
                <path d="M64.9422638,5.73584121 C68.2779825,8.61482042 71.6015869,11.6605293 74.8801463,14.8855577 C78.1575113,18.1097353 81.2738063,21.3915879 84.20412,24.6790548 C88.1979394,16.0465406 90.0057113,7.53992439 89.3677444,0.226786389 C82.0276275,-0.30657845 73.5386925,1.6305482 64.9422638,5.73584121" id="Fill-27" fill="#DF5539"></path>
                <path d="M75.1958025,15.2011531 C78.3552656,18.3235917 81.3688444,21.498431 84.20412,24.6790548 C88.1979394,16.0465406 90.0057113,7.53992439 89.3677444,0.226786389 C89.23551,0.217258979 89.105835,0.209943289 88.9729181,0.202117202 L75.1958025,15.2011531" id="Fill-28" fill="#C23537"></path>
                <path d="M67.0902619,22.929414 L67.0098975,22.8496219 C65.4677888,21.3315312 63.432915,20.492949 61.2806513,20.4886957 C59.1287288,20.4841021 57.1208138,21.3134972 55.6271625,22.8247826 C52.5823594,25.9067297 52.6292813,30.9649338 55.7317556,34.0999622 L55.8116081,34.179414 C59.0002481,37.3156333 64.1065425,37.3253308 67.1936606,34.2008507 C70.2386344,31.1195841 70.1917125,26.0632514 67.0902619,22.929414" id="Fill-29" fill="#EC9B3A"></path>
                <path d="M65.6495044,24.2253119 C63.2356725,21.8495841 59.3689688,21.8420983 57.0319181,24.2065974 C54.6933319,26.5739887 54.7566338,30.4279962 57.1718306,32.8032136 C59.5851506,35.1770699 63.4501481,35.1862571 65.788905,32.8195463 C68.1252731,30.4552174 68.0633363,26.598828 65.6495044,24.2253119" id="Fill-30" fill="#266B64"></path>
                <path d="M11.5129219,78.4002079 C31.4912325,76.5981664 30.6956081,66.1593573 30.6956081,66.1593573 L27.3684206,62.7977127 L27.3365137,62.7655577 L24.0094969,59.4040832 C24.0094969,59.4040832 13.55172,58.472949 11.4811856,78.3680529 L11.44143,78.4071834 L11.4772612,78.4036106 L11.4731662,78.4393384 L11.5129219,78.4002079" id="Fill-62" fill="#C37F2E"></path>
                <path d="M27.3684206,62.7977127 L24.0094969,59.4040832 C24.0094969,59.4040832 13.55172,58.472949 11.4811856,78.3680529 L11.44143,78.4071834 L11.5129219,78.4002079 L27.3684206,62.7977127 Z" id="Fill-62" fill="#EC9B3A"></path>
                <polyline id="Fill-63" fill="#C23537" points="21.6335438 57.3783176 33.7224956 69.2669943 37.5820331 65.3612665 25.4952994 53.4717391 21.6335438 57.3783176"></polyline>
                <path d="M6.11912437,42.3410019 C3.49610625,44.9952363 1.5062775,48.0366919 0.1330875,51.2816257 C10.8169425,46.6009452 23.853375,48.6597164 32.8018031,57.461172 C41.7504019,66.2638185 43.9990687,79.2374291 39.4563487,89.9579773 C42.6896925,88.5440076 45.709755,86.5165406 48.3344794,83.8626465 C59.6233706,72.4403025 59.3235825,53.8873724 47.6664825,42.4218147 C36.0090412,30.9569376 17.4075037,30.9191682 6.11912437,42.3410019 Z" id="Fill-64" fill="#DF5539"></path>
                <path d="M37.5032044,63.4574858 C42.3733538,71.5809641 43.0505644,81.4716068 39.4563488,89.9579773 C42.6896925,88.5440076 45.709755,86.5165406 48.3344794,83.8626465 C57.8176463,74.265482 59.1176381,59.6358034 52.3781213,48.4063894 L37.5032044,63.4574858" id="Fill-65" fill="#B23436"></path>
                <path d="M41.2752112,22.8671456 C31.6413825,32.6153875 24.9298481,43.6057656 21.5832094,53.9533837 C24.6525825,55.5334026 27.5496244,57.5950662 30.1453425,60.1492628 C32.7412312,62.7020983 34.8489619,65.561172 36.4775775,68.6024575 C46.7986837,65.1157656 57.72039,58.2665784 67.3535362,48.519017 C82.6574044,33.0354442 90.6056287,14.4124197 89.3677444,0.226786389 C75.1307944,-0.807618147 56.5782262,7.38255198 41.2752112,22.8671456" id="Fill-66" fill="#1888ff"></path>
                <path d="M67.3535363,48.519017 C82.6574044,33.0354442 90.6056288,14.4124197 89.3677444,0.226786389 C75.1307944,-0.807618147 56.5782263,7.38255198 41.2752113,22.8671456 L67.3535363,48.519017 Z" id="Fill-66" fill="#EAEAEA"></path>
                <path d="M64.9185469,5.70589792 C63.53256,6.34882798 62.5617038,6.91043478 62.5617038,6.91043478 C62.504715,6.89733459 74.7803306,16.5142344 82.9131713,27.3593195 C82.9131713,27.3593195 83.9369213,25.3604348 84.20412,24.6790548 C84.0294,17.9276938 74.1737588,6.00754253 64.9185469,5.70589792" id="Fill-67" fill="#2C4056"></path>
                <path d="M31.5275756,53.1680529 C25.16241,59.6077316 20.7906562,66.3014178 19.7450663,70.6717769 C24.1098244,69.5672779 30.7583981,65.1118526 37.1232225,58.6718336 C43.4878762,52.2326654 47.8594594,45.5365974 48.9053906,41.1675992 C44.5394381,42.2722684 37.8917175,46.7282042 31.5275756,53.1680529" id="Fill-68" fill="#DF5539"></path>
                <path d="M19.8025669,70.4631947 C19.785675,70.5322684 19.7614463,70.6047448 19.7450663,70.6717769 C24.1098244,69.5672779 30.7583981,65.1118526 37.1232225,58.6718336 C43.4878762,52.2326654 47.8594594,45.5365974 48.9053906,41.1675992 C48.8385056,41.1858034 48.7642837,41.2114934 48.6973987,41.2266352 L19.8025669,70.4631947" id="Fill-69" fill="#B23436"></path>
                <path d="M64.9014844,5.71542533 C68.2372031,8.59440454 71.6015869,11.6605293 74.8801462,14.8855577 C78.1575112,18.1097353 81.2738062,21.3915879 84.20412,24.6790548 C88.1979394,16.0465406 90.0057112,7.53992439 89.3677444,0.226786389 C82.0276275,-0.30657845 73.4979131,1.61013233 64.9014844,5.71542533" id="Fill-70" fill="#DF5539"></path>
                <path d="M75.1958025,15.2011531 C78.3552656,18.3235917 81.3688444,21.498431 84.20412,24.6790548 C88.1979394,16.0465406 90.0057113,7.53992439 89.3677444,0.226786389 C89.23551,0.217258979 89.105835,0.209943289 88.9729181,0.202117202 L75.1958025,15.2011531" id="Fill-71" fill="#C23537"></path>
                <path d="M74.3498437,14.4187146 C77.5093069,17.5411531 81.3688444,21.5071078 84.20412,24.6875614 C88.1979394,16.0550473 90.0057112,7.548431 89.3677444,0.235463138 C89.23551,0.225765595 89.105835,0.218449905 88.9729181,0.210623819 L74.3498437,14.4187146" id="Fill-72" fill="#C23537"></path>
                <path d="M67.0902619,22.929414 L67.0098975,22.8496219 C65.4677888,21.3315312 63.432915,20.492949 61.2806513,20.4886957 C59.1287288,20.4841021 57.1208138,21.3134972 55.6271625,22.8247826 C52.5823594,25.9067297 52.6292813,30.9649338 55.7317556,34.0999622 L55.8116081,34.179414 C59.0002481,37.3156333 64.1065425,37.3253308 67.1936606,34.2008507 C70.2386344,31.1195841 70.1917125,26.0632514 67.0902619,22.929414" id="Fill-73" fill="#EC9B3A"></path>
                <path d="M65.6495044,24.2253119 C63.2356725,21.8495841 59.3689688,21.8420983 57.0319181,24.2065974 C54.6933319,26.5739887 54.7566338,30.4279962 57.1718306,32.8032136 C59.5851506,35.1770699 63.4501481,35.1862571 65.788905,32.8195463 C68.1252731,30.4552174 68.0633363,26.598828 65.6495044,24.2253119" id="Fill-74" fill="#2C4056"></path>
                <path d="M32.6287894,62.8599811 C34.1205637,61.5848393 35.6294006,60.1831191 37.1232225,58.6718336 C43.4878763,52.2326654 47.8594594,45.5365974 48.9053906,41.1675992 C48.42201,41.2899244 47.9108175,41.4532514 47.375055,41.655879 C49.9028644,39.0817769 52.5714394,36.3691871 55.28796,33.6142344 C55.4282138,33.7806238 55.5761456,33.9425898 55.7317556,34.0999622 C57.4098525,35.7514367 59.4899419,36.5377883 61.55604,36.5379584 C63.6120713,36.5379584 65.6539406,35.7592628 67.1936606,34.2008507 C70.2386344,31.1195841 70.1917125,26.0632514 67.0902619,22.929414 C66.8283525,22.6708129 66.6401531,22.5017013 66.44547,22.3419471 C68.62128,20.1537051 70.7459025,18.0241588 72.7684913,16.0060491 C76.1422594,19.303724 79.8190575,23.2359924 82.9017394,27.3441777 C79.1846738,34.5809263 73.9527994,41.842344 67.3535363,48.519017 C63.7504481,52.1649527 59.9664975,55.4058034 56.1018413,58.2163894 C50.6440594,62.1854064 45.024525,65.2971267 39.5203331,67.4838374 C38.5015313,67.8885822 37.4868244,68.2616824 36.4775775,68.6024575 C35.4038344,66.5972779 34.1215875,64.6712098 32.6287894,62.8599811 Z" id="Fill-75" fill-opacity="0.200000003" fill="#0E0E0E"></path>
                <path d="M82.9017394,27.3441777 C79.8190575,23.2359924 76.1422594,19.303724 72.7684912,16.0060491 C73.3047656,15.470983 73.8347269,14.9430624 74.3558156,14.4244991 C77.5127194,17.5447259 81.3674794,21.5057467 84.2007075,24.6836484 C83.7903544,25.5698677 83.35782,26.456087 82.9017394,27.3441777" id="Fill-76" fill="#2A3A4F"></path>
                <path d="M74.8595006,13.9236295 C79.9475381,8.86559546 84.2216944,4.69139887 86.7925013,2.32911153 L74.8595006,13.9236295" id="Fill-79" fill="#D14E36"></path>
                <path d="M89.346075,6.52628959 C89.3473687,6.51162729 89.3486625,6.49653375 89.3499562,6.48187146 C89.3490937,6.49610251 89.3473687,6.51205854 89.346075,6.52628959" id="Fill-80" fill="#DDDBD6"></path>
                <path d="M89.3477813,6.48017013 C89.5931591,5.3557656 89.7160636,4.24973535 89.7152012,3.16514178 C89.7152012,3.16241966 89.7152012,3.15952741 89.7152012,3.15663516 C89.7143387,2.16119093 89.6091151,1.18378072 89.3982368,0.226786389 C89.6108401,1.18956522 89.7160636,2.17293006 89.7160636,3.17415879 C89.7156324,4.25654064 89.5927279,5.35865784 89.3477813,6.48017013" id="Fill-81" fill="#DDDBD6"></path>
                <path d="M89.7464754,3.16514178 C89.7456129,2.16969754 89.6403894,1.19228733 89.4295111,0.235463138 C89.3954428,0.234442344 89.3613745,0.23342155 89.3273062,0.232570888 C89.3618058,0.228657845 89.3919929,0.226616257 89.417005,0.226616257 C89.4213174,0.226616257 89.4256299,0.226786389 89.4295111,0.226786389 C89.6403894,1.18378072 89.7456129,2.16119093 89.7464754,3.15663516 C89.7464754,3.15952741 89.7464754,3.16241966 89.7464754,3.16514178" id="Fill-82" fill="#B23436"></path>
                <path d="M84.2007075,24.6836484 C81.3674794,21.5057467 77.5127194,17.5447259 74.3558156,14.4244991 C74.5252463,14.2558979 74.6917763,14.0903592 74.8595006,13.9236295 L86.7925013,2.32911153 C88.1808769,1.05345936 89.0729044,0.305217391 89.3273063,0.232570888 C89.3407856,0.23342155 89.354265,0.234442344 89.3677444,0.235463138 C89.45118,1.19228733 89.4928125,2.16969754 89.4931538,3.16514178 C89.493495,4.24973535 89.4448669,5.3557656 89.3477813,6.48017013 L89.3476106,6.48187146 C89.3470988,6.48765595 89.3465869,6.49361059 89.346075,6.49939509 C88.8495563,12.2221361 87.1021856,18.4156333 84.2007075,24.6836484" id="Fill-83" fill="#B23436"></path>
                <path d="M61.55604,36.5379584 C59.4899419,36.5377883 57.4098525,35.7514367 55.8116081,34.179414 L55.7317556,34.0999622 C55.5761456,33.9425898 55.4282138,33.7806238 55.28796,33.6142344 C55.7419931,33.1538563 56.1987563,32.6907561 56.6548369,32.2285066 C56.8131769,32.4280718 56.9855081,32.6199811 57.1718306,32.8032136 C58.3817325,33.9932892 59.9564306,34.5890926 61.5208913,34.5890926 C63.0769913,34.5890926 64.6226831,33.9997543 65.788905,32.8195463 C68.1252731,30.4552174 68.0633363,26.598828 65.6495044,24.2253119 C65.4654,24.044121 65.2727644,23.8767108 65.0731331,23.7230813 C65.5329675,23.2599811 65.98956,22.8004537 66.44547,22.3419471 C66.6401531,22.5017013 66.8283525,22.6708129 67.0098975,22.8496219 L67.0902619,22.929414 C70.1917125,26.0632514 70.2386344,31.1195841 67.1936606,34.2008507 C65.6539406,35.7592628 63.6120713,36.5379584 61.55604,36.5379584" id="Fill-84" fill="#D38D37"></path>
                <path d="M61.5208912,34.5890926 C59.9564306,34.5890926 58.3817325,33.9932892 57.1718306,32.8032136 C56.9855081,32.6199811 56.8131769,32.4280718 56.6548369,32.2285066 C59.4600825,29.3859357 62.2992825,26.5163138 65.0731331,23.7230813 C65.2727644,23.8767108 65.4654,24.044121 65.6495044,24.2253119 C68.0633363,26.598828 68.1252731,30.4552174 65.788905,32.8195463 C64.6226831,33.9997543 63.0769912,34.5890926 61.5208912,34.5890926" id="Fill-85" fill="#202C3C"></path>
            </g>
        </g>
    </g>
</svg>
