<svg xmlns="http://www.w3.org/2000/svg" xmlns:xlink="http://www.w3.org/1999/xlink" width="131" height="160" viewBox="0 0 131 160">
    <defs>
        <path id="a" d="M0 0h130v160H0z"/>
        <rect id="c" width="110" height="110" rx="55"/>
    </defs>
    <g fill="none" fill-rule="evenodd" transform="translate(.317)">
        <mask id="b" fill="#fff">
            <use xlink:href="#a"/>
        </mask>
        <use fill="#FFF" xlink:href="#a"/>
        <g mask="url(#b)">
            <g transform="translate(9 32)">
                <mask id="d" fill="#fff">
                    <use xlink:href="#c"/>
                </mask>
                <use fill="#8EE8D0" xlink:href="#c"/>
                <g mask="url(#d)">
                    <path fill="#7ABBCF" d="M20.943 63.285l13.477 3.087-2.449 10.598L18.5 73.883c-2.668-.61-4.276-3.477-3.601-6.404.675-2.927 3.382-4.804 6.044-4.194"/>
                    <path fill="#7ABBCF" d="M24.226 60.813c4.7 1.076 7.255 5.03 7.348 5.259.364.896-.027 1.976-.867 2.41-.841.434-1.814.063-2.178-.832a4.162 4.162 0 0 0-.378-.447c-.238-.258-.589-.603-1.032-.967-.894-.729-2.165-1.537-3.714-1.89-.887-.204-1.423-1.16-1.198-2.135.225-.976 1.132-1.602 2.019-1.398"/>
                    <path fill="#E5E6E3" d="M60.25 81.179a6.798 6.798 0 0 1-.337-.068l-32.377-3.884L30.5 64.358l28.73 3.204s18.886-29.41 23.46-31.32c3.284-1.37 12.571.003 9.466 9.03-4.124 11.993-26.042 33.993-26.042 33.993a6.561 6.561 0 0 1-5.865 1.914"/>
                    <path fill="#59585D" d="M28.635 76.326a20.45 20.45 0 0 0 13.285-4.88c4.177-3.542 6.726-8.493 7.163-13.94.443-5.449-1.278-10.74-4.832-14.903-3.555-4.161-8.533-6.695-14.001-7.133l-2.31-.185-.371 4.599 2.31.185c4.237.34 8.09 2.302 10.843 5.525a15.722 15.722 0 0 1 3.747 11.542c-.708 8.71-8.4 15.23-17.145 14.525a15.836 15.836 0 0 1-10.843-5.525l-1.503-1.757-3.528 2.99 1.503 1.757c3.554 4.161 8.526 6.695 14 7.133.563.046 1.126.067 1.682.067M14.826 51.47s-.94.656-1.82-.593c-.88-1.248.06-1.904.06-1.904l3.97-2.768 1.762 2.497-3.972 2.768"/>
                    <path fill="#8E8F8B" d="M17.66 50.577l.959-.669-2.794-3.976-.96.67 2.794 3.975M14.826 52.054a.58.58 0 0 0 .477-.918l-1.755-2.498a.586.586 0 0 0-.96.67l1.755 2.497c.112.162.298.25.483.25"/>
                    <path fill="#59585D" d="M19.4 55.628s-.741.877-1.913-.103c-1.172-.98-.437-1.855-.437-1.855l3.118-3.698 2.35 1.96-3.118 3.696"/>
                    <path fill="#8E8F8B" d="M21.909 54.035l.755-.894-3.74-3.12-.755.894 3.74 3.12M19.4 56.212c.166 0 .331-.07.45-.208a.587.587 0 0 0-.073-.822l-2.35-1.96a.582.582 0 0 0-.82.072.576.576 0 0 0 .072.822l2.344 1.96a.582.582 0 0 0 .377.136"/>
                    <path fill="#59585D" d="M24.749 58.723s-.49 1.037-1.874.392c-1.39-.644-.9-1.68-.9-1.68l2.046-4.374 2.773 1.288-2.045 4.374"/>
                    <path fill="#8E8F8B" d="M26.755 56.538l.496-1.058-4.422-2.051-.49 1.057 4.416 2.052M24.749 59.307a.583.583 0 0 0 .245-1.113l-2.774-1.288a.59.59 0 0 0-.781.282.588.588 0 0 0 .285.776l2.773 1.288c.08.038.166.055.252.055M38.584 35.871l-5.09-4.25 10.452-12.4 5.09 4.25-10.452 12.4"/>
                    <path fill="#59585D" d="M26.212 54.484l-8.977-7.502L36.07 24.631l8.983 7.501-18.84 22.352"/>
                    <path fill="#E5E6E3" d="M49.48 25.014c.338 0 .669-.142.9-.418.417-.493.351-1.23-.145-1.643L44.25 17.95a1.17 1.17 0 0 0-1.649.144 1.161 1.161 0 0 0 .14 1.644l5.99 5.002c.219.183.483.273.748.273M45.502 33.675a1.168 1.168 0 0 0 .754-2.061l-9.883-8.253a1.172 1.172 0 0 0-1.648.145c-.417.493-.351 1.23.145 1.643l9.877 8.253c.218.184.483.273.755.273M20.492 51.963c-3.938-3.287-5.66-6.86-5.66-6.86l1.146-1.364 13.47 11.257-1.158 1.37s-3.872-1.12-7.798-4.403"/>
                    <path fill="#8E8F8B" d="M29.793 68.717H4.638a.66.66 0 0 1-.662-.659v-3.295a.66.66 0 0 1 .662-.66h25.155c.364 0 .662.296.662.66v3.295c0 .364-.298.66-.662.66"/>
                    <path fill="#FFFFFE" d="M9.775 64.104h14.557v-2.021H9.775z"/>
                    <path fill="#D1D0CB" d="M9.775 62.083v2.02h14.557l-14.557-2.02"/>
                    <path fill="#59585D" d="M44.793 85.582H-1.32c-.731 0-1.324-.59-1.324-1.318l1.324-4.783c0-.728.593-1.318 1.324-1.318h43.465c.735 0 1.324.59 1.324 1.318l1.324 4.783c0 .728-.589 1.318-1.324 1.318"/>
                    <path fill="#E5E6E3" d="M26.973 71.33l-5.27 10.05c-1.078 1.868.272 4.202 2.437 4.202h10.538c2.165 0 3.522-2.334 2.437-4.202l-5.27-10.05c-1.079-1.868-3.786-1.868-4.872 0"/>
                    <path fill="#59585D" d="M31.024 74.22a1.993 1.993 0 0 1-2.714.723 1.975 1.975 0 0 1-.728-2.7 1.992 1.992 0 0 1 2.714-.724 1.974 1.974 0 0 1 .728 2.7M36.274 39.05a2.322 2.322 0 0 1-3.164.844 2.3 2.3 0 0 1-.848-3.15 2.323 2.323 0 0 1 3.164-.845 2.3 2.3 0 0 1 .848 3.15"/>
                    <path fill="#E5E6E3" d="M34.268 33.283a4.653 4.653 0 0 0-4.012 2.307 4.608 4.608 0 0 0 1.695 6.302 4.65 4.65 0 0 0 2.317.618 4.653 4.653 0 0 0 4.012-2.307 4.607 4.607 0 0 0-1.695-6.3 4.643 4.643 0 0 0-2.317-.62zm0 2.307c.397 0 .794.1 1.158.31a2.3 2.3 0 0 1 .848 3.15 2.314 2.314 0 0 1-2.006 1.154c-.397 0-.794-.1-1.158-.31a2.3 2.3 0 0 1-.848-3.15 2.314 2.314 0 0 1 2.006-1.154z"/>
                    <path fill="#FFFFFE" d="M101.326 48.583L88.86 57.278 69.346 29.535l7.54-15.713 24.44 34.761"/>
                    <path fill="#FFFFFE" d="M70.676 31.427l5.389 7.658 8.01-15.125-4.382-6.141-9.017 13.608"/>
                    <path fill="#FFFFFE" d="M76.217 125.735c0 1.318 43.028 1.318 43.028 0 0 0 6.58-80.992-30.821-97.283L76.217 38.75c-4.733 6.182.814 30.264.662 35.457l-.662 51.528"/>
                    <path fill="#FFFFFE" d="M76.217 125.735c0 1.318 43.028 1.318 43.028 0 0 0 6.58-80.992-30.821-97.283L76.217 38.75c-4.733 6.182.814 30.264.662 35.457l-.662 51.528"/>
                    <path fill="#FFFFFE" d="M76.217 125.735c0 1.318 43.028 1.318 43.028 0 0 0 6.58-80.992-30.821-97.283L76.217 38.75c-4.733 6.182.814 30.264.662 35.457l-.662 51.528"/>
                    <path fill="#FFFFFE" d="M88.808 26.42l3.945 4.304-13.69 12.63H76.45l-2.039 8.33s-.98-7.924 1.079-11.66c2.052-3.735 13.319-13.603 13.319-13.603"/>
                    <path fill="#E9A871" d="M101.326 48.583L88.86 57.278 69.346 29.535l7.54-15.713 24.44 34.761"/>
                    <path fill="#F1C9B2" d="M76.019 39.027l-2.417-3.44 2.417 3.44M76.065 39.085l-.046-.058.046.058M84.048 24.01l-4.355-6.191 4.382 6.141-.027.05"/>
                    <path fill="#DC8353" d="M76.065 39.085l-.046-.058-2.417-3.44c4.449-4.543 7.421-8.744 5.098-13.695l-.702-1.51 1.695-2.563 4.355 6.191-7.983 15.075"/>
                    <path fill="#FFFFFE" d="M76.217 125.735c0 1.318 43.028 1.318 43.028 0 0 0 6.58-80.992-30.821-97.283L76.217 38.75c-4.733 6.182.814 30.264.662 35.457l-.662 51.528"/>
                    <path fill="#FFFFFE" d="M76.217 125.735c0 1.318 43.028 1.318 43.028 0 0 0 6.58-80.992-30.821-97.283L76.217 38.75c-4.733 6.182.814 30.264.662 35.457l-.662 51.528"/>
                    <path fill="#E5E6E3" d="M88.808 26.42l3.945 4.304-13.69 12.63H76.45l-2.039 8.33s-.98-7.924 1.079-11.66c2.052-3.735 13.319-13.603 13.319-13.603"/>
                    <path fill="#7ABBCF" d="M27.013 73.235l15.192.781-.622 11.947-15.192-.782c-3-.154-5.296-2.954-5.124-6.252.172-3.3 2.74-5.849 5.746-5.694"/>
                    <path fill="#7ABBCF" d="M30.091 69.933c5.296.272 8.824 4.07 8.97 4.3.562.902.35 2.144-.477 2.775-.827.63-1.953.413-2.522-.486-.007-.019-.185-.18-.49-.413a11.513 11.513 0 0 0-1.31-.85c-1.1-.621-2.635-1.255-4.376-1.344-1-.052-1.768-.985-1.708-2.084.053-1.1.913-1.95 1.913-1.898"/>
                    <path fill="#F8F7F5" d="M68.605 85.808c-.113 0-.226-.003-.338-.01l-11.657-.202H36.36l.675-13.187 28.193.166s16.464-30.026 20.634-32.698c2.992-1.918 13.041-1.51 11.558 7.915-1.973 12.524-23.367 35.117-23.367 35.117a6.555 6.555 0 0 1-5.448 2.9"/>
                    <path fill="#EDC5AE" d="M51.221 30.89c-.225-2.486-.49-7.065.073-11.181L42.76 1.49c26.525-12.316 29.405 6.611 30 7.72l.173.377L78.7 21.892c2.694 5.747-1.735 10.482-7.342 15.913-3.899 3.78-10.4 2.544-12.696-2.368l-2.337-4.976-3.23 1.5c-.828.386-1.794-.161-1.874-1.072"/>
                    <path fill="#E9A871" d="M71.358 37.805c-3.111 3.02-7.884 2.84-10.85.145-.059-.058-.119-.112-.172-.172a7.714 7.714 0 0 1-1.68-2.342l-.24-.516-.118-.25-.828-1.771-.112-.25-1.026-2.188-3.237 1.497c-.828.392-1.801-.155-1.88-1.068-.219-2.487-.484-7.063.072-11.183L46.581 9.644 42.76 1.49c26.525-12.316 29.405 6.608 30 7.719l.173.376L78.7 21.892c2.694 5.745-1.735 10.48-7.342 15.913"/>
                    <path fill="#45372D" d="M37.115.469c1.343.015 2.535-.492 3.521-1.153a4.905 4.905 0 0 1-1.734-1.627c-.066-.108.02-.243.145-.241 2.31.026 4.052-2.87 5.283-3.894 8.639-11.938 18.33-11.29 18.33-11.29C87.1-19.849 92.84 16.24 79.05 22.642L72.934 9.587l-9.87-7.21L50.142 8.39C41.861 11.15 37.46 1.483 36.975.71a.158.158 0 0 1 .14-.24"/>
                    <path fill="#E9A871" d="M72.934 9.587a3.287 3.287 0 0 0-1.596 4.38l1.45 3.106a3.322 3.322 0 0 0 4.402 1.594 3.295 3.295 0 0 0 1.602-4.38l-1.456-3.106a3.32 3.32 0 0 0-4.402-1.594"/>
                    <path fill="#323138" d="M53.366 16.898c.258-1.012 1.377-2.597 5.256-4.398 5.627-2.611 6.93.168 7.354 1.081 1.35 2.88 1.92 5.863-3.025 8.158-4.336 2.012-6.758.378-9.056-2.695-.53-.709-.708-1.43-.53-2.146m-1.237 1.541c.139.476.37.944.708 1.392 2.211 2.957 5.21 5.639 10.678 3.102 6.117-2.84 5.018-7.016 3.66-9.909a6.006 6.006 0 0 0-.76-1.235l6.857-2.186-1.092-2.328-9.228 2.83c-1.277-.059-2.873.267-4.885 1.2-3.336 1.548-5.302 3.236-5.892 5.017-.642-.04-1.29-.128-2.403.36.285 1.522.934 2.001.947 2.035.629-.266 1.092-.32 1.41-.278"/>
                    <path fill="#D88051" d="M58.112 20.46a2.739 2.739 0 0 1-2.688-3.302 2.75 2.75 0 0 1 3.258-2.105 2.739 2.739 0 0 1 2.118 3.241 2.75 2.75 0 0 1-2.688 2.166"/>
                    <path fill="#2D2119" d="M55.544 16.476a2.739 2.739 0 0 0 2.118 3.242 2.747 2.747 0 0 0 3.257-2.105 2.739 2.739 0 0 0-2.118-3.242 2.748 2.748 0 0 0-3.257 2.105"/>
                    <path fill="#FFFFFE" d="M56.2 16.921c-.08.37.158.732.529.81.37.08.735-.157.814-.526a.688.688 0 0 0-1.344-.284"/>
                    <path fill="#8E8F8B" d="M-21 94.705h81.673v-9.887H-21z"/>
                </g>
            </g>
        </g>
        <g mask="url(#b)">
            <path fill="#7ABBCF" d="M29.943 95.285l13.477 3.087-2.449 10.598-13.471-3.087c-2.668-.61-4.276-3.477-3.601-6.404.675-2.927 3.382-4.804 6.044-4.194"/>
            <path fill="#7ABBCF" d="M33.226 92.813c4.7 1.076 7.255 5.03 7.348 5.259.364.896-.027 1.976-.867 2.41-.841.434-1.814.063-2.178-.832a4.162 4.162 0 0 0-.378-.447c-.238-.258-.589-.603-1.032-.967-.894-.729-2.165-1.537-3.714-1.89-.887-.204-1.423-1.16-1.198-2.135.225-.976 1.132-1.602 2.019-1.398"/>
            <path fill="#E5E6E3" d="M69.25 113.179a6.798 6.798 0 0 1-.337-.068l-32.377-3.884L39.5 96.358l28.73 3.204s18.886-29.41 23.46-31.32c3.284-1.37 12.571.003 9.466 9.03-4.124 11.993-26.042 33.993-26.042 33.993a6.561 6.561 0 0 1-5.865 1.914"/>
            <path fill="#59585D" d="M37.635 108.326a20.45 20.45 0 0 0 13.285-4.88c4.177-3.542 6.726-8.493 7.163-13.94.443-5.449-1.278-10.74-4.832-14.903-3.555-4.161-8.533-6.695-14.001-7.133l-2.31-.185-.371 4.599 2.31.185c4.237.34 8.09 2.302 10.843 5.525a15.722 15.722 0 0 1 3.747 11.542c-.708 8.71-8.4 15.23-17.145 14.525a15.836 15.836 0 0 1-10.843-5.525l-1.503-1.757-3.528 2.99 1.503 1.757c3.554 4.161 8.526 6.695 14 7.133.563.046 1.126.067 1.682.067M23.826 83.47s-.94.656-1.82-.593c-.88-1.248.06-1.904.06-1.904l3.97-2.768 1.762 2.497-3.972 2.768"/>
            <path fill="#8E8F8B" d="M26.66 82.577l.959-.669-2.794-3.976-.96.67 2.794 3.975M23.826 84.054a.58.58 0 0 0 .477-.918l-1.755-2.498a.586.586 0 0 0-.96.67l1.755 2.497c.112.162.298.25.483.25"/>
            <path fill="#59585D" d="M28.4 87.628s-.741.877-1.913-.103c-1.172-.98-.437-1.855-.437-1.855l3.118-3.698 2.35 1.96-3.118 3.696"/>
            <path fill="#8E8F8B" d="M30.909 86.035l.755-.894-3.74-3.12-.755.894 3.74 3.12M28.4 88.212c.166 0 .331-.07.45-.208a.587.587 0 0 0-.073-.822l-2.35-1.96a.582.582 0 0 0-.82.072.576.576 0 0 0 .072.822l2.344 1.96a.582.582 0 0 0 .377.136"/>
            <path fill="#59585D" d="M33.749 90.723s-.49 1.037-1.874.392c-1.39-.644-.9-1.68-.9-1.68l2.046-4.374 2.773 1.288-2.045 4.374"/>
            <path fill="#8E8F8B" d="M35.755 88.538l.496-1.058-4.422-2.051-.49 1.057 4.416 2.052M33.749 91.307a.583.583 0 0 0 .245-1.113l-2.774-1.288a.59.59 0 0 0-.781.282.588.588 0 0 0 .285.776l2.773 1.288c.08.038.166.055.252.055M47.584 67.871l-5.09-4.25 10.452-12.4 5.09 4.25-10.452 12.4"/>
            <path fill="#59585D" d="M35.212 86.484l-8.977-7.502L45.07 56.631l8.983 7.501-18.84 22.352"/>
            <path fill="#E5E6E3" d="M58.48 57.014c.338 0 .669-.142.9-.418.417-.493.351-1.23-.145-1.643L53.25 49.95a1.17 1.17 0 0 0-1.649.144 1.161 1.161 0 0 0 .14 1.644l5.99 5.002c.219.183.483.273.748.273M54.502 65.675a1.168 1.168 0 0 0 .754-2.061l-9.883-8.253a1.172 1.172 0 0 0-1.648.145c-.417.493-.351 1.23.145 1.643l9.877 8.253c.218.184.483.273.755.273M29.492 83.963c-3.938-3.287-5.66-6.86-5.66-6.86l1.146-1.364 13.47 11.257-1.158 1.37s-3.872-1.12-7.798-4.403"/>
            <path fill="#8E8F8B" d="M38.793 100.717H13.638a.66.66 0 0 1-.662-.659v-3.295a.66.66 0 0 1 .662-.66h25.155c.364 0 .662.296.662.66v3.295c0 .364-.298.66-.662.66"/>
            <path fill="#FFFFFE" d="M18.775 96.104h14.557v-2.021H18.775z"/>
            <path fill="#D1D0CB" d="M18.775 94.083v2.02h14.557l-14.557-2.02"/>
            <path fill="#59585D" d="M7.68 117.582c-.731 0-1.324-.59-1.324-1.318l1.324-4.783c0-.728.593-1.318 1.324-1.318h43.465c.735 0 1.324.59 1.324 1.318l1.324 4.783c0 .728-.589 1.318-1.324 1.318H7.68z"/>
            <path fill="#E5E6E3" d="M35.973 103.33l-5.27 10.05c-1.078 1.868.272 4.202 2.437 4.202h10.538c2.165 0 3.522-2.334 2.437-4.202l-5.27-10.05c-1.079-1.868-3.786-1.868-4.872 0"/>
            <path fill="#59585D" d="M40.024 106.22a1.993 1.993 0 0 1-2.714.723 1.975 1.975 0 0 1-.728-2.7 1.992 1.992 0 0 1 2.714-.724 1.974 1.974 0 0 1 .728 2.7M45.274 71.05a2.322 2.322 0 0 1-3.164.844 2.3 2.3 0 0 1-.848-3.15 2.323 2.323 0 0 1 3.164-.845 2.3 2.3 0 0 1 .848 3.15"/>
            <path fill="#E5E6E3" d="M43.268 65.283a4.653 4.653 0 0 0-4.012 2.307 4.608 4.608 0 0 0 1.695 6.302 4.65 4.65 0 0 0 2.317.618 4.653 4.653 0 0 0 4.012-2.307 4.607 4.607 0 0 0-1.695-6.3 4.643 4.643 0 0 0-2.317-.62zm0 2.307c.397 0 .794.1 1.158.31a2.3 2.3 0 0 1 .848 3.15 2.314 2.314 0 0 1-2.006 1.154c-.397 0-.794-.1-1.158-.31a2.3 2.3 0 0 1-.848-3.15 2.314 2.314 0 0 1 2.006-1.154z"/>
            <path fill="#FFFFFE" d="M110.326 80.583L97.86 89.278 78.346 61.535l7.54-15.713 24.44 34.761"/>
            <path fill="#FFFFFE" d="M79.676 63.427l5.389 7.658 8.01-15.125-4.382-6.141-9.017 13.608"/>
            <path fill="#FFFFFE" d="M85.217 157.735c0 1.318 43.028 1.318 43.028 0 0 0 6.58-80.992-30.821-97.283L85.217 70.75c-4.733 6.182.814 30.264.662 35.457l-.662 51.528"/>
            <path fill="#FFFFFE" d="M85.217 157.735c0 1.318 43.028 1.318 43.028 0 0 0 6.58-80.992-30.821-97.283L85.217 70.75c-4.733 6.182.814 30.264.662 35.457l-.662 51.528"/>
            <path fill="#FFFFFE" d="M85.217 157.735c0 1.318 43.028 1.318 43.028 0 0 0 6.58-80.992-30.821-97.283L85.217 70.75c-4.733 6.182.814 30.264.662 35.457l-.662 51.528"/>
            <path fill="#FFFFFE" d="M97.808 58.42l3.945 4.304-13.69 12.63H85.45l-2.039 8.33s-.98-7.924 1.079-11.66c2.052-3.735 13.319-13.603 13.319-13.603"/>
            <path fill="#E9A871" d="M110.326 80.583L97.86 89.278 78.346 61.535l7.54-15.713 24.44 34.761"/>
            <path fill="#F1C9B2" d="M85.019 71.027l-2.417-3.44 2.417 3.44M85.065 71.085l-.046-.058.046.058M93.048 56.01l-4.355-6.191 4.382 6.141-.027.05"/>
            <path fill="#DC8353" d="M85.065 71.085l-.046-.058-2.417-3.44c4.449-4.543 7.421-8.744 5.098-13.695l-.702-1.51 1.695-2.563 4.355 6.191-7.983 15.075"/>
            <path fill="#FFFFFE" d="M85.217 157.735c0 1.318 43.028 1.318 43.028 0 0 0 6.58-80.992-30.821-97.283L85.217 70.75c-4.733 6.182.814 30.264.662 35.457l-.662 51.528"/>
            <path fill="#FFFFFE" d="M85.217 157.735c0 1.318 43.028 1.318 43.028 0 0 0 6.58-80.992-30.821-97.283L85.217 70.75c-4.733 6.182.814 30.264.662 35.457l-.662 51.528"/>
            <path fill="#E5E6E3" d="M97.808 58.42l3.945 4.304-13.69 12.63H85.45l-2.039 8.33s-.98-7.924 1.079-11.66c2.052-3.735 13.319-13.603 13.319-13.603"/>
            <path fill="#7ABBCF" d="M36.013 105.235l15.192.781-.622 11.947-15.192-.782c-3-.154-5.296-2.954-5.124-6.252.172-3.3 2.74-5.849 5.746-5.694"/>
            <path fill="#7ABBCF" d="M39.091 101.933c5.296.272 8.824 4.07 8.97 4.3.562.902.35 2.144-.477 2.775-.827.63-1.953.413-2.522-.486-.007-.019-.185-.18-.49-.413a11.513 11.513 0 0 0-1.31-.85c-1.1-.621-2.635-1.255-4.376-1.344-1-.052-1.768-.985-1.708-2.084.053-1.1.913-1.95 1.913-1.898"/>
            <path fill="#F8F7F5" d="M77.605 117.808c-.113 0-.226-.003-.338-.01l-11.657-.202H45.36l.675-13.187 28.193.166s16.464-30.026 20.634-32.698c2.992-1.918 13.041-1.51 11.558 7.915-1.973 12.524-23.367 35.117-23.367 35.117a6.555 6.555 0 0 1-5.448 2.9"/>
            <path fill="#EDC5AE" d="M60.221 62.89c-.225-2.486-.49-7.065.073-11.181L51.76 33.49c26.525-12.316 29.405 6.611 30 7.72l.173.377L87.7 53.892c2.694 5.747-1.735 10.482-7.342 15.913-3.899 3.78-10.4 2.544-12.696-2.368l-2.337-4.976-3.23 1.5c-.828.386-1.794-.161-1.874-1.072"/>
            <path fill="#E9A871" d="M80.358 69.805c-3.111 3.02-7.884 2.84-10.85.145-.059-.058-.119-.112-.172-.172a7.714 7.714 0 0 1-1.68-2.342l-.24-.516-.118-.25-.828-1.771-.112-.25-1.026-2.188-3.237 1.497c-.828.392-1.801-.155-1.88-1.068-.219-2.487-.484-7.063.072-11.183l-4.706-10.063-3.82-8.153c26.525-12.316 29.405 6.608 30 7.719l.173.376L87.7 53.892c2.694 5.745-1.735 10.48-7.342 15.913"/>
            <path fill="#45372D" d="M46.115 32.469c1.343.015 2.535-.492 3.521-1.153a4.905 4.905 0 0 1-1.734-1.627c-.066-.108.02-.243.145-.241 2.31.026 4.052-2.87 5.283-3.894 8.639-11.938 18.33-11.29 18.33-11.29 24.44-2.113 30.18 33.975 16.39 40.378l-6.116-13.055-9.87-7.21-12.922 6.012c-8.281 2.761-12.683-6.906-13.167-7.68a.158.158 0 0 1 .14-.24"/>
            <path fill="#E9A871" d="M81.934 41.587a3.287 3.287 0 0 0-1.596 4.38l1.45 3.106a3.322 3.322 0 0 0 4.402 1.594 3.295 3.295 0 0 0 1.602-4.38l-1.456-3.106a3.32 3.32 0 0 0-4.402-1.594"/>
            <path fill="#323138" d="M62.366 48.898c.258-1.012 1.377-2.597 5.256-4.398 5.627-2.611 6.93.168 7.354 1.081 1.35 2.88 1.92 5.863-3.025 8.158-4.336 2.012-6.758.378-9.056-2.695-.53-.709-.708-1.43-.53-2.146m-1.237 1.541c.139.476.37.944.708 1.392 2.211 2.957 5.21 5.639 10.678 3.102 6.117-2.84 5.018-7.016 3.66-9.909a6.006 6.006 0 0 0-.76-1.235l6.857-2.186-1.092-2.328-9.228 2.83c-1.277-.059-2.873.267-4.885 1.2-3.336 1.548-5.302 3.236-5.892 5.017-.642-.04-1.29-.128-2.403.36.285 1.522.934 2.001.947 2.035.629-.266 1.092-.32 1.41-.278"/>
            <path fill="#D88051" d="M67.112 52.46a2.739 2.739 0 0 1-2.688-3.302 2.75 2.75 0 0 1 3.258-2.105 2.739 2.739 0 0 1 2.118 3.241 2.75 2.75 0 0 1-2.688 2.166"/>
            <path fill="#2D2119" d="M64.544 48.476a2.739 2.739 0 0 0 2.118 3.242 2.747 2.747 0 0 0 3.257-2.105 2.739 2.739 0 0 0-2.118-3.242 2.748 2.748 0 0 0-3.257 2.105"/>
            <path fill="#FFFFFE" d="M65.2 48.921c-.08.37.158.732.529.81.37.08.735-.157.814-.526a.688.688 0 0 0-1.344-.284"/>
        </g>
    </g>
</svg>
