<svg xmlns="http://www.w3.org/2000/svg" xmlns:xlink="http://www.w3.org/1999/xlink" width="131" height="160" viewBox="0 0 131 160">
    <defs>
        <path id="a" d="M0 0h130v160H0z"/>
        <rect id="c" width="110" height="110" rx="55"/>
        <path id="e" d="M36.037 4.526C18.166 4.526 3.292 2.769.126.449c3.166 2.32 18.04 4.076 35.911 4.076 17.873 0 32.748-1.756 35.913-4.077-3.165 2.321-18.04 4.077-35.913 4.077M71.955.446c0-.001 0-.003.005-.004-.005.002-.005.003-.005.005M.121.446L.116.44.12.446"/>
        <path id="g" d="M55 0c30.376 0 55 24.624 55 55v20c0 30.376-24.624 55-55 55S0 105.376 0 75V55C0 24.624 24.624 0 55 0z"/>
        <path id="i" d="M36.037 4.526C18.166 4.526 3.292 2.769.126.449c3.166 2.32 18.04 4.076 35.911 4.076 17.873 0 32.748-1.756 35.913-4.077-3.165 2.321-18.04 4.077-35.913 4.077M71.955.446c0-.001 0-.003.005-.004-.005.002-.005.003-.005.005M.121.446L.116.44.12.446"/>
    </defs>
    <g fill="none" fill-rule="evenodd" transform="translate(.317)">
        <mask id="b" fill="#fff">
            <use xlink:href="#a"/>
        </mask>
        <use fill="#FFF" xlink:href="#a"/>
        <g mask="url(#b)">
            <g transform="translate(10 32)">
                <mask id="d" fill="#fff">
                    <use xlink:href="#c"/>
                </mask>
                <use fill="#FEE390" xlink:href="#c"/>
                <g mask="url(#d)">
                    <g transform="translate(47 108)">
                        <mask id="f" fill="#fff">
                            <use xlink:href="#e"/>
                        </mask>
                        <path d="M36.037 4.526C18.166 4.526 3.292 2.769.126.449c3.166 2.32 18.04 4.076 35.911 4.076 17.873 0 32.748-1.756 35.913-4.077-3.165 2.321-18.04 4.077-35.913 4.077M71.955.446c0-.001 0-.003.005-.004-.005.002-.005.003-.005.005M.121.446L.116.44.12.446" mask="url(#f)"/>
                    </g>
                    <path fill="#E9A871" d="M92 77.535l-2.018-.955V70H77.027v6.58L75 77.477l.54 18.662h1.487V99h12.955v-2.861h1.478L92 77.535"/>
                    <path fill="#F1C9B1" d="M90.136 76L90 75.987v-4.98l.021-.007.115 5"/>
                    <path fill="#DC8353" d="M90 76l-13-2.55v-2.444c2.228 1.52 4.6 2.443 6.495 2.443 1.898 0 4.274-.925 6.505-2.449v5"/>
                    <path fill="#7DC6DE" d="M116 108c-.665-7.34-2.486-14.286-3.558-20.677-1.043-6.239-10.005-6.24-20.664-10.323l-.487 1.865c-.842 2.46-3.002 6.485-8.13 6.485-5.786 0-7.993-5.124-8.678-7.344L74.22 77c-10.656 4.082-19.62 4.084-20.665 10.323C52.484 93.714 50.665 100.659 50 108h66"/>
                    <path fill="#3C3A41" d="M86 108l-.617-20h-3.78L81 108h5M86 84.585L84.804 87h-3.642L80 84.585 83 82l3 2.585"/>
                    <path fill="#69B7D2" d="M76.332 76L72 78.066 78.94 86 83 81.906l-5.039-4.462L76.331 76M89.672 76L83 81.903 87.06 86 94 78.062 89.672 76"/>
                    <path fill="#E9A871" d="M97.905 50.652l.445-5.836C98.35 37.184 91.09 31 83.5 31c-7.595 0-14.85 6.184-14.85 13.816l.446 5.83a2.695 2.695 0 0 0-1.128.575A2.758 2.758 0 0 0 67 53.326V56.2a2.753 2.753 0 0 0 2.733 2.761C69.733 66.168 78.351 73 83.5 73c5.15 0 13.77-6.831 13.77-14.038a2.758 2.758 0 0 0 2.73-2.761v-2.874a2.757 2.757 0 0 0-2.095-2.675"/>
                    <path fill="#F5D4BF" d="M96 63v-.001V63m.025-.042l.004-.007-.004.007m.012-.021l.104-.185-.104.185m.107-.19c.491-.9.793-1.82.856-2.747-.063.927-.365 1.848-.856 2.747"/>
                    <path fill="#E18C5A" d="M83.333 73V61.119H80s1.306-6.213 3.333-10.5L83.335 31c7.667 0 14.998 6.184 14.998 13.816l-.449 5.836A2.763 2.763 0 0 1 100 53.328V56.2c0 1.52-1.237 2.75-2.757 2.761 0 .126-.005.25-.01.375-.036.893-.206 1.78-.482 2.646l-.001.005-.059.178-.004.014-.002.007-.014.04C94.653 68.103 87.74 73 83.332 73m6.39-22.895l-.078.001a2.188 2.188 0 0 0-2.116 2.257 2.19 2.19 0 0 0 2.269 2.106 2.188 2.188 0 0 0 2.116-2.258 2.19 2.19 0 0 0-2.191-2.106"/>
                    <path fill="#DD8454" d="M76.999 54a2 2 0 1 1 .003-4 2 2 0 0 1-.003 4"/>
                    <path fill="#2D211A" d="M78.999 51.93a2 2 0 1 1-3.998.14A2 2 0 0 1 79 51.93"/>
                    <path fill="#FFFFFE" d="M78 51.482a.5.5 0 1 1-1 .036.5.5 0 0 1 1-.036"/>
                    <path fill="#D66F43" d="M88.999 54a2 2 0 1 1 .003-4 2 2 0 0 1-.003 4"/>
                    <path fill="#2D211A" d="M90.999 51.93a2 2 0 1 1-3.997.14A2 2 0 0 1 91 51.93"/>
                    <path fill="#FFFFFE" d="M91 51.482a.5.5 0 1 1-1 .036.5.5 0 0 1 1-.036"/>
                    <path fill="#E05844" d="M88 64c0 2.21-2.238 4-5 4-2.761 0-5-1.79-5-4h10"/>
                    <path fill="#FFFFFE" d="M86.467 66h-6.934c-.294 0-.533-.299-.533-.667V64h8v1.333c0 .368-.239.667-.533.667"/>
                    <path fill="#2D2119" d="M83.5 26c-24.565.37-14.427 28-14.427 28s-1.269-15.136 5.236-14.21c3.998.57 6.962.763 9.19.747 2.229.016 5.193-.177 9.191-.746C99.194 38.864 97.928 54 97.928 54S108.064 26.37 83.5 26"/>
                    <path fill="#3C3A41" d="M91.856 56.87c-4 0-5.255-2.143-5.908-5.362-.151-.741.159-1.086.55-1.576.553-.695 1.777-1.237 5.358-1.237 5.189 0 5.189 2.064 5.189 2.928 0 2.725-.629 5.247-5.19 5.247zm-10.804-5.362c-.653 3.219-1.908 5.362-5.908 5.362-4.56 0-5.189-2.522-5.189-5.247 0-.864 0-2.928 5.19-2.928 3.58 0 4.804.542 5.357 1.237.391.49.7.835.55 1.576zM99 47.83h-3.017c-.948-.507-2.273-.83-4.127-.83-3.078 0-5.169.601-6.245 1.774-.508-.283-1.26-.602-2.111-.602-.85 0-1.603.319-2.11.602C80.312 47.6 78.221 47 75.143 47c-1.854 0-3.18.323-4.127.83H68v2.202l.99.355a5.204 5.204 0 0 0-.142 1.236c0 2.738.653 6.377 6.296 6.377 5.041 0 6.363-3.165 6.992-6.262.095-.47.106-.917.042-1.337.246-.16.651-.3 1.322-.3.67 0 1.076.14 1.322.3-.064.42-.054.867.042 1.337.628 3.097 1.95 6.262 6.992 6.262 5.644 0 6.299-3.64 6.299-6.377 0-.404-.046-.823-.146-1.236l.991-.355V47.83z"/>
                </g>
                <g mask="url(#d)">
                    <path fill="#2C2B30" d="M29.394 65.648h18.37l-.235 6.845H29.573l-.179-6.845"/>
                    <path fill="#2D211A" d="M70.489 34.848c.267-.319.49-.674.67-1.054a5.267 5.267 0 0 0 .942-3.01 5.296 5.296 0 0 0-2.605-4.554c.03-.23.05-.462.05-.699a5.386 5.386 0 0 0-.905-2.993c.605-.886.96-1.955.96-3.108 0-2.3-1.41-4.27-3.416-5.105a5.206 5.206 0 0 0-2.12-5.294c.169-.466.265-.965.265-1.49 0-2.445-1.992-4.428-4.448-4.428-.35 0-.687.043-1.013.12A4.652 4.652 0 0 0 52.819.28a4.206 4.206 0 0 0-3.706-2.246 5.96 5.96 0 0 0-6.966-4.465 6.086 6.086 0 0 0-5.125-2.798 6.084 6.084 0 0 0-5.968 4.863 4.68 4.68 0 0 0-2.822 1.678 4.969 4.969 0 0 0-3.222-1.183 4.976 4.976 0 0 0-4.44 2.723c-3.228.032-5.836 2.646-5.836 5.868 0 .438.052.864.144 1.275-1.671.537-2.887 2.079-2.887 3.92 0 .156.03.304.046.455-1.918.533-3.326 2.28-3.326 4.36a4.5 4.5 0 0 0 .787 2.546 4.523 4.523 0 0 0-1.64 3.488l.006.13c-2.025.98-3.425 3.043-3.425 5.437 0 1.744.746 3.31 1.932 4.415a5.048 5.048 0 0 0 .696 5.17 4.112 4.112 0 0 0-.867 2.526c0 1.265.57 2.396 1.467 3.157a5.054 5.054 0 0 0-.407 1.993 5.09 5.09 0 0 0 3.214 4.723 4.446 4.446 0 0 0-.212 1.355c0 1.822 1.1 3.387 2.672 4.079a4.53 4.53 0 0 0-.04.571c0 2.494 2.03 4.516 4.535 4.516.076 0 .15-.007.224-.01a5.464 5.464 0 0 0 6.44 4.877 4.23 4.23 0 0 0 5.065 4.083 4.914 4.914 0 0 0 4.236 2.42c.859 0 1.664-.22 2.366-.604a5.78 5.78 0 0 0 3.902 1.512 5.784 5.784 0 0 0 5.74-5.023 4.175 4.175 0 0 0 2.557-1.207 4.475 4.475 0 0 0 6.846-1.775c.31.054.628.088.954.088 3.023 0 5.474-2.44 5.474-5.45 0-.2-.012-.397-.033-.591a4.937 4.937 0 0 0 2.685-3.966 5.41 5.41 0 0 0 3.204-4.933c0-.287-.03-.567-.072-.843a5.267 5.267 0 0 0 1.805-4.474 4.93 4.93 0 0 0 3.14-4.585 4.904 4.904 0 0 0-1.473-3.507"/>
                    <path fill="#B38156" d="M50.128 67.7l-3.85-.815v-9.78H30.88v9.78l-3.85.815 3.85 24.203h15.399l3.85-24.203"/>
                    <path fill="#AB6741" d="M46.279 66.884l-15.4-5.394v-2.798c2.54 1.833 5.266 2.976 7.778 2.976 2.46 0 5.126-1.098 7.622-2.865v8.082"/>
                    <path fill="#FFFFFE" d="M23.062 109.916h31.034V85.003H23.062z"/>
                    <path fill="#E05844" d="M22.996 109.916H54.03V85.003H22.996z"/>
                    <path fill="#3B3940" d="M74.917 109.916c-.114-7.05-.28-12.628-.518-14.725-.824-7.238-2.636-15.805-9.039-21.924-5.507-5.262-12.183-6.285-17.8-6.345l-.002.016-.07-.016-5.089 23.28v19.714h32.518M29.67 66.922c-5.616.06-12.293 1.083-17.8 6.345-6.402 6.12-8.215 14.686-9.038 21.924-.24 2.097-.404 7.675-.52 14.725H34.76V90.2L29.67 66.924v-.002"/>
                    <path fill="#2C2B30" d="M20.377 71.783l8.634 3.177-3.389 4.6L34.73 90.2l-5.335-24.552-9.017 6.135M56.782 71.783l-9.017-6.135-5.366 24.553 9.138-10.64-3.39-4.6 8.635-3.178"/>
                    <path fill="#B38156" d="M56.296 30.54v-7.974c0-8.47-9.846-19.168-17.64-19.168-7.793 0-17.638 10.699-17.638 19.168v7.973c-2.165 0-3.92 1.717-3.92 3.834v3.987c0 2.118 1.755 3.834 3.92 3.834 0 8.468 9.845 19.474 17.639 19.474 7.793 0 17.639-11.006 17.639-19.474 2.165 0 3.92-1.716 3.92-3.834v-3.987c0-2.117-1.755-3.834-3.92-3.834"/>
                    <path fill="#2A1C17" d="M46.279 58.803c5.407-3.832 10.017-10.814 10.017-16.61 2.165 0 3.92-1.715 3.92-3.833v-3.987 3.987c0 2.118-1.755 3.834-3.92 3.834 0 5.795-4.61 12.777-10.017 16.609"/>
                    <path fill="#A55836" d="M38.657 61.668c2.46 0 5.126-1.098 7.622-2.865-2.496 1.767-5.161 2.865-7.622 2.865"/>
                    <path fill="#2A1C17" d="M55.752 18.922c-2.166-7.605-10.39-15.524-17.095-15.524 6.705 0 14.93 7.92 17.095 15.524"/>
                    <path fill="#AD6C46" d="M38.657 61.668V47.484l-3.92-.767s1.06-6.32 3.92-12.267V3.398c6.705 0 14.93 7.92 17.095 15.524.352 1.235.544 2.46.544 3.644v7.973c2.165 0 3.92 1.717 3.92 3.834v3.987c0 2.118-1.755 3.834-3.92 3.834 0 5.795-4.61 12.777-10.017 16.609-2.496 1.767-5.162 2.865-7.622 2.865m9.626-28.97h-.108a3.034 3.034 0 0 0-2.933 3.133 3.036 3.036 0 0 0 3.146 2.92 3.033 3.033 0 0 0 2.932-3.132 3.035 3.035 0 0 0-3.037-2.922"/>
                    <path fill="#AC6741" d="M29.03 38.753a3.035 3.035 0 0 1-3.036-2.922 3.033 3.033 0 0 1 2.932-3.132c.036-.002.073-.002.108-.002 1.63 0 2.98 1.287 3.038 2.922a3.033 3.033 0 0 1-3.042 3.134"/>
                    <path fill="#2D211A" d="M32.072 34.853a3.033 3.033 0 0 1-2.933 3.131 3.035 3.035 0 0 1-3.145-2.92 3.033 3.033 0 0 1 2.932-3.132 3.036 3.036 0 0 1 3.146 2.92"/>
                    <path fill="#FFFFFE" d="M30.824 33.987a.758.758 0 0 1-.733.783.758.758 0 1 1-.053-1.513.759.759 0 0 1 .786.73"/>
                    <path fill="#2D211A" d="M32.73 32.54c-.56-1.298-1.997-2.281-3.576-2.449-.967-.105-2.783.038-4.343 2.005a1.219 1.219 0 0 1-.231 0 2.285 2.285 0 0 1-.65-.172c-.48-.193-.877-.594-.877-.594l-.11-.019-.043.127s.06.13.175.32c.113.19.29.437.517.652.224.216.492.401.717.512.112.057.213.097.29.123.071.025.147.04.134.038.21.021.401-.09.493-.266 1.022-1.42 2.388-2.12 3.848-1.964 1.288.137 2.502.955 2.95 1.99a.386.386 0 0 0 .707-.304"/>
                    <path fill="#A65837" d="M48.279 38.753a3.036 3.036 0 0 1-3.037-2.922 3.034 3.034 0 0 1 2.933-3.132c.036-.002.073-.002.108-.002 1.63 0 2.98 1.287 3.037 2.922a3.033 3.033 0 0 1-3.041 3.134"/>
                    <path fill="#2D211A" d="M51.32 34.853a3.033 3.033 0 0 1-2.932 3.131 3.035 3.035 0 0 1-3.145-2.92 3.033 3.033 0 0 1 2.932-3.132 3.036 3.036 0 0 1 3.145 2.92"/>
                    <path fill="#FFFFFE" d="M50.073 33.987a.758.758 0 0 1-.733.783.758.758 0 1 1-.053-1.513.759.759 0 0 1 .786.73"/>
                    <path fill="#2D211A" d="M44.583 32.54c.56-1.298 1.998-2.281 3.576-2.449.968-.105 2.784.038 4.344 2.005.074.006.143.008.23 0 .174-.016.415-.073.65-.172.48-.193.878-.594.878-.594l.11-.019.043.127s-.06.13-.175.32c-.113.19-.291.437-.517.652-.225.216-.492.401-.718.512a2.34 2.34 0 0 1-.289.123c-.072.025-.148.04-.135.038a.498.498 0 0 1-.492-.266c-1.022-1.42-2.389-2.12-3.847-1.964-1.29.137-2.504.955-2.95 1.99a.386.386 0 0 1-.708-.304"/>
                    <path fill="#E05844" d="M44.816 50.317c0 3.01-2.757 5.452-6.16 5.452-3.401 0-6.159-2.441-6.159-5.452h12.32"/>
                    <path fill="#FFFFFE" d="M42.952 52.361h-8.726a.769.769 0 0 1-.77-.767v-1.277h10.266v1.277a.769.769 0 0 1-.77.767"/>
                    <path fill="#E05844" d="M20.248 46.19a.769.769 0 0 1-.77-.766v-3.23c0-.424.345-.767.77-.767.425 0 .77.343.77.767v3.23a.768.768 0 0 1-.77.766M57.066 46.19a.768.768 0 0 1-.77-.766v-3.23c0-.424.345-.767.77-.767.426 0 .77.343.77.767v3.23a.768.768 0 0 1-.77.766"/>
                    <path fill="#2D211A" d="M64.056 16.028a4.418 4.418 0 0 0 .17-5.098c.62-.78.993-1.763.993-2.835 0-2.178-1.527-3.996-3.572-4.461a4.128 4.128 0 0 0-1.177-.519c.118-.401.185-.825.185-1.265 0-2.472-2.013-4.477-4.496-4.477-1.12 0-2.142.41-2.93 1.086a5.278 5.278 0 0 0-5.038-3.686c-2.916 0-5.28 2.354-5.28 5.257 0 .83.199 1.61.542 2.307a4.407 4.407 0 0 0-1.515.693l.008-.157a4.73 4.73 0 0 0-1.904-3.79c.034-.233.057-.47.057-.713 0-2.79-2.271-5.05-5.072-5.05-.095 0-.188.01-.282.014a6.13 6.13 0 0 0-5.38 1.423c-2.492.239-4.44 2.326-4.446 4.869a4.272 4.272 0 0 0-3.366 2.36 4.963 4.963 0 0 0-2.385 4.228 4.5 4.5 0 0 0-3.068 4.258c0 .371.05.73.135 1.074a5.614 5.614 0 0 0-1.732 4.056c0 1.942.984 3.653 2.482 4.669-.04.273-.068.55-.068.835 0 3.178 2.588 5.755 5.779 5.755a5.766 5.766 0 0 0 4-1.608 4.238 4.238 0 0 0 3.29-3.2l.06.002c2.448 0 4.433-1.976 4.433-4.414l-.004-.075a4.562 4.562 0 0 0 3.053-2.806c.217-.048.429-.11.636-.18a5.863 5.863 0 0 0 5.425 3.711 4.417 4.417 0 0 0 4.796 3.94c-.02.175-.034.351-.034.531 0 2.502 2.036 4.529 4.548 4.529a4.546 4.546 0 0 0 3.941-2.276 5.814 5.814 0 0 0 4.132 1.716c3.214 0 5.82-2.595 5.82-5.795a5.781 5.781 0 0 0-2.736-4.908"/>
                </g>
            </g>
        </g>
        <g mask="url(#b)">
            <g transform="translate(10 12)">
                <mask id="h" fill="#fff">
                    <use xlink:href="#g"/>
                </mask>
                <g mask="url(#h)">
                    <g transform="translate(47 128)">
                        <mask id="j" fill="#fff">
                            <use xlink:href="#i"/>
                        </mask>
                        <path d="M36.037 4.526C18.166 4.526 3.292 2.769.126.449c3.166 2.32 18.04 4.076 35.911 4.076 17.873 0 32.748-1.756 35.913-4.077-3.165 2.321-18.04 4.077-35.913 4.077M71.955.446c0-.001 0-.003.005-.004-.005.002-.005.003-.005.005M.121.446L.116.44.12.446" mask="url(#j)"/>
                    </g>
                    <path fill="#E9A871" d="M92 97.535l-2.018-.955V90H77.027v6.58L75 97.477l.54 18.662h1.487V119h12.955v-2.861h1.478L92 97.535"/>
                    <path fill="#F1C9B1" d="M90.136 96L90 95.987v-4.98l.021-.007.115 5"/>
                    <path fill="#DC8353" d="M90 96l-13-2.55v-2.444c2.228 1.52 4.6 2.443 6.495 2.443 1.898 0 4.274-.925 6.505-2.449v5"/>
                    <path fill="#7DC6DE" d="M116 128c-.665-7.34-2.486-14.286-3.558-20.677-1.043-6.239-10.005-6.24-20.664-10.323l-.487 1.865c-.842 2.46-3.002 6.485-8.13 6.485-5.786 0-7.993-5.124-8.678-7.344L74.22 97c-10.656 4.082-19.62 4.084-20.665 10.323-1.071 6.391-2.89 13.336-3.555 20.677h66"/>
                    <path fill="#3C3A41" d="M86 128l-.617-20h-3.78L81 128h5M86 104.585L84.804 107h-3.642L80 104.585 83 102l3 2.585"/>
                    <path fill="#69B7D2" d="M76.332 96L72 98.066 78.94 106l4.06-4.094-5.039-4.462L76.331 96M89.672 96L83 101.903 87.06 106 94 98.062 89.672 96"/>
                    <path fill="#E9A871" d="M97.905 70.652l.445-5.836C98.35 57.184 91.09 51 83.5 51c-7.595 0-14.85 6.184-14.85 13.816l.446 5.83a2.695 2.695 0 0 0-1.128.575A2.758 2.758 0 0 0 67 73.326V76.2a2.753 2.753 0 0 0 2.733 2.761C69.733 86.168 78.351 93 83.5 93c5.15 0 13.77-6.831 13.77-14.038a2.758 2.758 0 0 0 2.73-2.761v-2.874a2.757 2.757 0 0 0-2.095-2.675"/>
                    <path fill="#F5D4BF" d="M96 83v-.001V83m.025-.042l.004-.007-.004.007m.012-.021l.104-.185-.104.185m.107-.19c.491-.9.793-1.82.856-2.747-.063.927-.365 1.848-.856 2.747"/>
                    <path fill="#E18C5A" d="M83.333 93V81.119H80s1.306-6.213 3.333-10.5L83.335 51c7.667 0 14.998 6.184 14.998 13.816l-.449 5.836A2.763 2.763 0 0 1 100 73.328V76.2c0 1.52-1.237 2.75-2.757 2.761 0 .126-.005.25-.01.375-.036.893-.206 1.78-.482 2.646l-.001.005-.059.178-.004.014-.002.007-.014.04C94.653 88.103 87.74 93 83.332 93m6.39-22.895l-.078.001a2.188 2.188 0 0 0-2.116 2.257 2.19 2.19 0 0 0 2.269 2.106 2.188 2.188 0 0 0 2.116-2.258 2.19 2.19 0 0 0-2.191-2.106"/>
                    <path fill="#DD8454" d="M76.999 74a2 2 0 1 1 .003-4 2 2 0 0 1-.003 4"/>
                    <path fill="#2D211A" d="M78.999 71.93a2 2 0 1 1-3.998.14A2 2 0 0 1 79 71.93"/>
                    <path fill="#FFFFFE" d="M78 71.482a.5.5 0 1 1-1 .036.5.5 0 0 1 1-.036"/>
                    <path fill="#D66F43" d="M88.999 74a2 2 0 1 1 .003-4 2 2 0 0 1-.003 4"/>
                    <path fill="#2D211A" d="M90.999 71.93a2 2 0 1 1-3.997.14A2 2 0 0 1 91 71.93"/>
                    <path fill="#FFFFFE" d="M91 71.482a.5.5 0 1 1-1 .036.5.5 0 0 1 1-.036"/>
                    <path fill="#E05844" d="M88 84c0 2.21-2.238 4-5 4-2.761 0-5-1.79-5-4h10"/>
                    <path fill="#FFFFFE" d="M86.467 86h-6.934c-.294 0-.533-.299-.533-.667V84h8v1.333c0 .368-.239.667-.533.667"/>
                    <path fill="#2D2119" d="M83.5 46c-24.565.37-14.427 28-14.427 28s-1.269-15.136 5.236-14.21c3.998.57 6.962.763 9.19.747 2.229.016 5.193-.177 9.191-.746C99.194 58.864 97.928 74 97.928 74S108.064 46.37 83.5 46"/>
                    <path fill="#3C3A41" d="M91.856 76.87c-4 0-5.255-2.143-5.908-5.362-.151-.741.159-1.086.55-1.576.553-.695 1.777-1.237 5.358-1.237 5.189 0 5.189 2.064 5.189 2.928 0 2.725-.629 5.247-5.19 5.247zm-10.804-5.362c-.653 3.219-1.908 5.362-5.908 5.362-4.56 0-5.189-2.522-5.189-5.247 0-.864 0-2.928 5.19-2.928 3.58 0 4.804.542 5.357 1.237.391.49.7.835.55 1.576zM99 67.83h-3.017c-.948-.507-2.273-.83-4.127-.83-3.078 0-5.169.601-6.245 1.774-.508-.283-1.26-.602-2.111-.602-.85 0-1.603.319-2.11.602C80.312 67.6 78.221 67 75.143 67c-1.854 0-3.18.323-4.127.83H68v2.202l.99.355a5.204 5.204 0 0 0-.142 1.236c0 2.738.653 6.377 6.296 6.377 5.041 0 6.363-3.165 6.992-6.262.095-.47.106-.917.042-1.337.246-.16.651-.3 1.322-.3.67 0 1.076.14 1.322.3-.064.42-.054.867.042 1.337.628 3.097 1.95 6.262 6.992 6.262 5.644 0 6.299-3.64 6.299-6.377 0-.404-.046-.823-.146-1.236l.991-.355V67.83z"/>
                </g>
                <g mask="url(#h)">
                    <path fill="#2C2B30" d="M29.394 85.648h18.37l-.235 6.845H29.573l-.179-6.845"/>
                    <path fill="#2D211A" d="M70.489 54.848c.267-.319.49-.674.67-1.054a5.267 5.267 0 0 0 .942-3.01 5.296 5.296 0 0 0-2.605-4.554c.03-.23.05-.462.05-.699a5.386 5.386 0 0 0-.905-2.993c.605-.886.96-1.955.96-3.108 0-2.3-1.41-4.27-3.416-5.105a5.206 5.206 0 0 0-2.12-5.294c.169-.466.265-.965.265-1.49 0-2.445-1.992-4.428-4.448-4.428-.35 0-.687.043-1.013.12a4.652 4.652 0 0 0-6.05-2.953 4.206 4.206 0 0 0-3.706-2.246 5.96 5.96 0 0 0-6.966-4.465 6.086 6.086 0 0 0-5.125-2.798 6.084 6.084 0 0 0-5.968 4.863 4.68 4.68 0 0 0-2.822 1.678 4.969 4.969 0 0 0-3.222-1.183 4.976 4.976 0 0 0-4.44 2.723c-3.228.032-5.836 2.646-5.836 5.868 0 .438.052.864.144 1.275-1.671.537-2.887 2.079-2.887 3.92 0 .156.03.304.046.455-1.918.533-3.326 2.28-3.326 4.36a4.5 4.5 0 0 0 .787 2.546 4.523 4.523 0 0 0-1.64 3.488l.006.13c-2.025.98-3.425 3.043-3.425 5.437 0 1.744.746 3.31 1.932 4.415a5.048 5.048 0 0 0 .696 5.17 4.112 4.112 0 0 0-.867 2.526c0 1.265.57 2.396 1.467 3.157a5.054 5.054 0 0 0-.407 1.993 5.09 5.09 0 0 0 3.214 4.723 4.446 4.446 0 0 0-.212 1.355c0 1.822 1.1 3.387 2.672 4.079a4.53 4.53 0 0 0-.04.571c0 2.494 2.03 4.516 4.535 4.516.076 0 .15-.007.224-.01a5.464 5.464 0 0 0 6.44 4.877 4.23 4.23 0 0 0 5.065 4.083 4.914 4.914 0 0 0 4.236 2.42c.859 0 1.664-.22 2.366-.604a5.78 5.78 0 0 0 3.902 1.512 5.784 5.784 0 0 0 5.74-5.023 4.175 4.175 0 0 0 2.557-1.207 4.475 4.475 0 0 0 6.846-1.775c.31.054.628.088.954.088 3.023 0 5.474-2.44 5.474-5.45 0-.2-.012-.397-.033-.591a4.937 4.937 0 0 0 2.685-3.966 5.41 5.41 0 0 0 3.204-4.933c0-.287-.03-.567-.072-.843a5.267 5.267 0 0 0 1.805-4.474 4.93 4.93 0 0 0 3.14-4.585 4.904 4.904 0 0 0-1.473-3.507"/>
                    <path fill="#B38156" d="M50.128 87.7l-3.85-.815v-9.78H30.88v9.78l-3.85.815 3.85 24.203h15.399l3.85-24.203"/>
                    <path fill="#AB6741" d="M46.279 86.884l-15.4-5.394v-2.798c2.54 1.833 5.266 2.976 7.778 2.976 2.46 0 5.126-1.098 7.622-2.865v8.082"/>
                    <path fill="#FFFFFE" d="M23.062 129.916h31.034v-24.913H23.062z"/>
                    <path fill="#E05844" d="M22.996 129.916H54.03v-24.913H22.996z"/>
                    <path fill="#3B3940" d="M74.917 129.916c-.114-7.05-.28-12.628-.518-14.725-.824-7.238-2.636-15.805-9.039-21.924-5.507-5.262-12.183-6.285-17.8-6.345l-.002.016-.07-.016-5.089 23.28v19.714h32.518M29.67 86.922c-5.616.06-12.293 1.083-17.8 6.345-6.402 6.12-8.215 14.686-9.038 21.924-.24 2.097-.404 7.675-.52 14.725H34.76V110.2L29.67 86.924v-.002"/>
                    <path fill="#2C2B30" d="M20.377 91.783l8.634 3.177-3.389 4.6 9.107 10.64-5.335-24.552-9.017 6.135M56.782 91.783l-9.017-6.135-5.366 24.553 9.138-10.64-3.39-4.6 8.635-3.178"/>
                    <path fill="#B38156" d="M56.296 50.54v-7.974c0-8.47-9.846-19.168-17.64-19.168-7.793 0-17.638 10.699-17.638 19.168v7.973c-2.165 0-3.92 1.717-3.92 3.834v3.987c0 2.118 1.755 3.834 3.92 3.834 0 8.468 9.845 19.474 17.639 19.474 7.793 0 17.639-11.006 17.639-19.474 2.165 0 3.92-1.716 3.92-3.834v-3.987c0-2.117-1.755-3.834-3.92-3.834"/>
                    <path fill="#2A1C17" d="M46.279 78.803c5.407-3.832 10.017-10.814 10.017-16.61 2.165 0 3.92-1.715 3.92-3.833v-3.987 3.987c0 2.118-1.755 3.834-3.92 3.834 0 5.795-4.61 12.777-10.017 16.609"/>
                    <path fill="#A55836" d="M38.657 81.668c2.46 0 5.126-1.098 7.622-2.865-2.496 1.767-5.161 2.865-7.622 2.865"/>
                    <path fill="#2A1C17" d="M55.752 38.922c-2.166-7.605-10.39-15.524-17.095-15.524 6.705 0 14.93 7.92 17.095 15.524"/>
                    <path fill="#AD6C46" d="M38.657 81.668V67.484l-3.92-.767s1.06-6.32 3.92-12.267V23.398c6.705 0 14.93 7.92 17.095 15.524.352 1.235.544 2.46.544 3.644v7.973c2.165 0 3.92 1.717 3.92 3.834v3.987c0 2.118-1.755 3.834-3.92 3.834 0 5.795-4.61 12.777-10.017 16.609-2.496 1.767-5.162 2.865-7.622 2.865m9.626-28.97h-.108a3.034 3.034 0 0 0-2.933 3.133 3.036 3.036 0 0 0 3.146 2.92 3.033 3.033 0 0 0 2.932-3.132 3.035 3.035 0 0 0-3.037-2.922"/>
                    <path fill="#AC6741" d="M29.03 58.753a3.035 3.035 0 0 1-3.036-2.922 3.033 3.033 0 0 1 2.932-3.132c.036-.002.073-.002.108-.002 1.63 0 2.98 1.287 3.038 2.922a3.033 3.033 0 0 1-3.042 3.134"/>
                    <path fill="#2D211A" d="M32.072 54.853a3.033 3.033 0 0 1-2.933 3.131 3.035 3.035 0 0 1-3.145-2.92 3.033 3.033 0 0 1 2.932-3.132 3.036 3.036 0 0 1 3.146 2.92"/>
                    <path fill="#FFFFFE" d="M30.824 53.987a.758.758 0 0 1-.733.783.758.758 0 1 1-.053-1.513.759.759 0 0 1 .786.73"/>
                    <path fill="#2D211A" d="M32.73 52.54c-.56-1.298-1.997-2.281-3.576-2.449-.967-.105-2.783.038-4.343 2.005a1.219 1.219 0 0 1-.231 0 2.285 2.285 0 0 1-.65-.172c-.48-.193-.877-.594-.877-.594l-.11-.019-.043.127s.06.13.175.32c.113.19.29.437.517.652.224.216.492.401.717.512.112.057.213.097.29.123.071.025.147.04.134.038.21.021.401-.09.493-.266 1.022-1.42 2.388-2.12 3.848-1.964 1.288.137 2.502.955 2.95 1.99a.386.386 0 0 0 .707-.304"/>
                    <path fill="#A65837" d="M48.279 58.753a3.036 3.036 0 0 1-3.037-2.922 3.034 3.034 0 0 1 2.933-3.132c.036-.002.073-.002.108-.002 1.63 0 2.98 1.287 3.037 2.922a3.033 3.033 0 0 1-3.041 3.134"/>
                    <path fill="#2D211A" d="M51.32 54.853a3.033 3.033 0 0 1-2.932 3.131 3.035 3.035 0 0 1-3.145-2.92 3.033 3.033 0 0 1 2.932-3.132 3.036 3.036 0 0 1 3.145 2.92"/>
                    <path fill="#FFFFFE" d="M50.073 53.987a.758.758 0 0 1-.733.783.758.758 0 1 1-.053-1.513.759.759 0 0 1 .786.73"/>
                    <path fill="#2D211A" d="M44.583 52.54c.56-1.298 1.998-2.281 3.576-2.449.968-.105 2.784.038 4.344 2.005.074.006.143.008.23 0 .174-.016.415-.073.65-.172.48-.193.878-.594.878-.594l.11-.019.043.127s-.06.13-.175.32c-.113.19-.291.437-.517.652-.225.216-.492.401-.718.512a2.34 2.34 0 0 1-.289.123c-.072.025-.148.04-.135.038a.498.498 0 0 1-.492-.266c-1.022-1.42-2.389-2.12-3.847-1.964-1.29.137-2.504.955-2.95 1.99a.386.386 0 0 1-.708-.304"/>
                    <path fill="#E05844" d="M44.816 70.317c0 3.01-2.757 5.452-6.16 5.452-3.401 0-6.159-2.441-6.159-5.452h12.32"/>
                    <path fill="#FFFFFE" d="M42.952 72.361h-8.726a.769.769 0 0 1-.77-.767v-1.277h10.266v1.277a.769.769 0 0 1-.77.767"/>
                    <path fill="#E05844" d="M20.248 66.19a.769.769 0 0 1-.77-.766v-3.23c0-.424.345-.767.77-.767.425 0 .77.343.77.767v3.23a.768.768 0 0 1-.77.766M57.066 66.19a.768.768 0 0 1-.77-.766v-3.23c0-.424.345-.767.77-.767.426 0 .77.343.77.767v3.23a.768.768 0 0 1-.77.766"/>
                    <path fill="#2D211A" d="M64.056 36.028a4.418 4.418 0 0 0 .17-5.098c.62-.78.993-1.763.993-2.835 0-2.178-1.527-3.996-3.572-4.461a4.128 4.128 0 0 0-1.177-.519c.118-.401.185-.825.185-1.265 0-2.472-2.013-4.477-4.496-4.477-1.12 0-2.142.41-2.93 1.086a5.278 5.278 0 0 0-5.038-3.686c-2.916 0-5.28 2.354-5.28 5.257 0 .83.199 1.61.542 2.307a4.407 4.407 0 0 0-1.515.693l.008-.157a4.73 4.73 0 0 0-1.904-3.79c.034-.233.057-.47.057-.713 0-2.79-2.271-5.05-5.072-5.05-.095 0-.188.01-.282.014a6.13 6.13 0 0 0-5.38 1.423c-2.492.239-4.44 2.326-4.446 4.869a4.272 4.272 0 0 0-3.366 2.36 4.963 4.963 0 0 0-2.385 4.228 4.5 4.5 0 0 0-3.068 4.258c0 .371.05.73.135 1.074a5.614 5.614 0 0 0-1.732 4.056c0 1.942.984 3.653 2.482 4.669-.04.273-.068.55-.068.835 0 3.178 2.588 5.755 5.779 5.755a5.766 5.766 0 0 0 4-1.608 4.238 4.238 0 0 0 3.29-3.2l.06.002c2.448 0 4.433-1.976 4.433-4.414l-.004-.075a4.562 4.562 0 0 0 3.053-2.806c.217-.048.429-.11.636-.18a5.863 5.863 0 0 0 5.425 3.711 4.417 4.417 0 0 0 4.796 3.94c-.02.175-.034.351-.034.531 0 2.502 2.036 4.529 4.548 4.529a4.546 4.546 0 0 0 3.941-2.276 5.814 5.814 0 0 0 4.132 1.716c3.214 0 5.82-2.595 5.82-5.795a5.781 5.781 0 0 0-2.736-4.908"/>
                </g>
            </g>
        </g>
    </g>
</svg>
