<svg xmlns="http://www.w3.org/2000/svg" xmlns:xlink="http://www.w3.org/1999/xlink" width="360" height="159" viewBox="0 0 360 159">
    <defs>
        <path id="a" d="M3.931 5.548c-.11-.131-.433-.59-.787-1.815a8.805 8.805 0 0 1-.288-1.474 2.308 2.308 0 0 1-.008-.234c.002-.323.068-.886.527-.944l.027-.014C3.025.91 2.307.563 1.848.08L.235 3.756l-.041.207 3.737 1.585"/>
        <linearGradient id="b" x1="69.167%" x2="49.509%" y1="12.418%" y2="86.467%">
            <stop offset="0%" stop-color="#ECB380"/>
            <stop offset="100%" stop-color="#F4C296"/>
        </linearGradient>
        <path id="d" d="M15.92 16.687l-.024-10.934c-1.98-1.021-4.871-2.158-4.871-2.158-.437-1.022-.259-3.23-.259-3.23L8.326.033 5.888.366s.177 2.207-.259 3.229l.007.014C5.346 3.724 2.668 4.785.8 5.753L.78 16.687c.814 3.057 1.13 6.067.867 9.181h13.4c-.262-3.114.059-6.124.873-9.18"/>
    </defs>
    <g fill="none" fill-rule="evenodd">
        <path fill="#000" d="M6.413 115.223c.363.2.512.67.331 1.045l-4.294 8.828a.714.714 0 0 1-.993.315l-12.048-6.641a.807.807 0 0 1-.332-1.045l4.294-8.828a.712.712 0 0 1 .992-.314l12.05 6.64"/>
        <path fill="#FDB171" d="M17.964 99.216v13.752s4.907-1.965 4.66-2.593c-.25-.628.441-10.205.441-10.205l-5.1-.954"/>
        <path fill="#3357BD" d="M-10.227 118.108l4.278-8.88 11.996 6.658-4.26 8.844-12.014-6.622"/>
        <path fill="#2B2F31" d="M-9.175 115.925l.196-.408-.196.408m9.85-3.021l-.328-.182.328.182"/>
        <path fill="#5475C8" d="M-9.444 116.483l.27-.558.195-.408 8.772-3.102.554.307.328.182-10.119 3.579"/>
        <path fill="#2B2F31" d="M-8.238 119.206l-1.77-.978 1.772.977h-.002m12.378-4.378l-1.766-.98.001-.001 1.765.98"/>
        <path fill="#5475C8" d="M-8.236 119.205l-1.773-.977 12.383-4.381 1.766.98-12.376 4.378"/>
        <path fill="#582D11" d="M33.586 154.375c-.39.484-1.738 1.229-2.45 1.136-.708-.092-1.743-.787-1.88-.254-.143.527-.328 1.985.01 2.712 0 0-.166.198-.002.577.16.379 1.115.38 2.332.235 1.222-.145 4.935-.254 5.92-.672.982-.414 1.861-.918 1.941-1.411.086-.496.266-1.541-.63-1.305-.89.24-1.969.343-2.469.127-.495-.221-1.549-.551-1.998-.898-.446-.35-.614-.443-.774-.247"/>
        <path fill="#FDB171" d="M42.068 115.297c.208-.148 1.172.233 1.3.3.122.068 3.667-.52 3.85-.616.181-.097 1.237-.437 1.6-1.18.366-.743.46-.918.34-1.24-.117-.322-.14-.826-.6-.988-.464-.164-2.404.096-3.152.207-.75.11-3.218 1.787-3.218 1.787l-.12 1.73M19.224 98.524s-.992-1.824-1.959-3.966c-.965-2.14-.483-3.855.628-4.753 1.113-.897 3.551-2.076 5.101-1.66 1.553.415 2.086 3.069 2.461 4.549.373 1.483-.135 2.824-.135 2.824l-.246 1.872s-1.04.62-1.79 1.527c-.159.19-.17.709-.32.903-.165.21.181.17.101.35-.276.606.05 1.266.05 1.266l-3.89-2.912"/>
        <path fill="#E3E3E3" d="M44.781 116.18l1.411-8.124 8.164 1.263-1.413 8.125z"/>
        <path fill="#FFF" d="M52.225 117.333l-8.166-1.264 1.634-10.564 8.167 1.26-1.635 10.568"/>
        <path fill="#C9C9C9" d="M48.197 111.705l-2.4-.372.371-2.401 2.4.37-.37 2.403M52.287 110.432l-3.1-.48.083-.54 3.101.479-.084.54M52.145 111.362l-3.102-.48.082-.54 3.104.48-.084.54M52 112.294l-3.1-.481.083-.54 3.101.48-.084.54M51.858 113.223l-6.206-.96.084-.54 6.204.96-.082.54M51.713 114.154l-6.205-.96.084-.54 6.203.96-.082.54M51.568 115.085l-6.203-.96.084-.54 6.203.959-.084.54M51.426 116.014l-6.205-.96.084-.54 6.203.96-.082.54"/>
        <path fill="#FDB171" d="M42.104 112.876s.972-.968 1.74-1.073c.767-.107 1.846-1.275 2.256-1.315.408-.04.201.95-.215 1.244-.416.294-1.672 1.433-1.672 1.433l-2.025.402-.084-.691M25.074 97.39l.02-.18-1.063-1.326c-.332.255-.824.3-1.164-.122l-3.827-4.773c-.72 2.17-.116 4.76-.073 5.22.044.528-.438 1.714-1.06 2.968 1.243.57 3.038 1.043 4.342 1.465-.179-.993-.678-2.858 1.323-2.161 1.856.646 1.934-.123 1.893-.724-.266-.145-.434.022-.39-.367"/>
        <path fill="#FDB171" d="M24.336 89.376c.238.313 1.725 1.01 2.006 2.63.16.895.107.8-.063 1.087-.28.474.118 1.077.342 1.404.348.506.752.824.135 1.085-.697.29-.432.538-.242.739.142.15-.164.412-.256.488 0 0 .293.329.064.51-.224.178-.459.139-.488.328-.035.19.106.95-.264 1.184-.377.235-1.283-.036-1.759-.105-.405-.055-.953-.134-1.462.244-.454.34-1.146 2.594-1.4 1.839 0 0-1.063.026-2.27-1.187-.29-.292.552.329.752-.324.317-1.06-2.466-6.426-.634-6.375l4.035-1.17 1.504-2.377"/>
        <path fill="#000" d="M16.18 90.718c.86-1.953 1.982-3.88 4.34-3.707 2.353.169 4.748 1.274 5.121.254 0 0 .886 2.304.043 3.288-.19-.431-3.43 3.066-3.94 3.583-.51.52.01-1.137-.865-1.133-.87.003-1.557 1.7-1.326 2.52.177.628-.873 1.812-.873 1.812l-.019.536-1.154-1.59s-2.189-3.611-1.327-5.563"/>
        <path fill="#000" d="M23.735 98.718l.076.008c.476.069 1.382.34 1.76.105.164-.104.226-.315.246-.53-.002-.001-2.688-.152-3.319-1.004-.81-1.088-.475-2.388-.72-4.496-.243-2.11-.28 1.31-.28 1.31s-.364 4.006 1.58 4.407c.235.047.45.118.657.2"/>
        <path fill="#D8EBF6" d="M-8.492 151.213l4.873 4.84s8.873-11.262 10.202-12.591c1.33-1.328 9.825-15.75 9.825-15.75l-7.115-2.991s-6.189 11.857-7.186 14.013c-.997 2.158-10.599 12.479-10.599 12.479"/>
        <path fill="#D8EBF6" d="M9.712 120.582c-1.33 2.879-3.1 7.087 3.1 10.409 6.201 3.322 11.073 11.295 11.073 11.295l4.873 14.287 6.643-1.934s-4.872-13.346-6.202-16.061c-1.328-2.715-8.967-15.983-8.967-15.983l-10.52-2.013"/>
        <path fill="#00265F" d="M16.046 99.489c-2.068-.63-3.987-.157-6.202 1.257-2.213 1.415-6.839 3.52-7.874 4.778-1.032 1.258-6.939 11.002-6.939 11.002l3.84 2.2 7.254-9.368 5.668-1.777s-.448 1.98-.756 3.617c-.172.913.397 4.617.094 6.232-.327 1.743-1.188 3.182-1.188 3.182l10.29 1.983s1.675-4.536 3.541-6.932c.845-1.086 1.875-5.391 1.875-5.391s4.964 4.997 7.18 5.94c2.214.943 10.038.314 10.038.314v-4.715l-8.414-.314s-6.793-9.114-7.826-10.057c-1.033-.943-3.562-1.27-3.562-1.27l-2.55 6.655-2.55-7.61-1.919.274"/>
        <g>
            <path fill="#EE8602" d="M81.25 68.965a.518.518 0 0 1-.728.002l-8.37-8.346a.514.514 0 0 1-.001-.73l6.14-6.156c.2-.2.528-.201.727-.001l8.37 8.346a.515.515 0 0 1 0 .725l-6.138 6.16"/>
            <path fill="#001533" d="M83.799 59.856l-2.55-2.542 1.706-1.708 2.549 2.54-1.705 1.71zm2.594-2.27l-2.88-2.87c-.31-.31-.886-.235-1.288.168l-1.697 1.704c-.403.403-.475.979-.166 1.289l2.879 2.87c.31.308.884.234 1.287-.17l1.7-1.703c.4-.403.475-.98.165-1.287z"/>
            <path fill="#00265F" d="M85.389 64.81a.516.516 0 0 1-.727.003l-8.371-8.345a.52.52 0 0 1 0-.728l2-2.005c.2-.2.528-.201.727-.001l8.37 8.346a.515.515 0 0 1 0 .725l-2 2.006"/>
            <path fill="#FFF" d="M77.608 59.226l-1.047-1.043 1.043-1.047 1.047 1.045-1.043 1.045"/>
            <path fill="#00265F" d="M77.606 58.815l-.635-.634.633-.635.637.634-.635.635"/>
            <path fill="#FFF" d="M82.946 64.55L81.9 63.505l1.04-1.045 1.048 1.044-1.043 1.046"/>
            <path fill="#00265F" d="M82.946 64.139l-.635-.632.633-.637.634.634-.632.635"/>
            <path fill="#F4C297" d="M109.746 26.224c.207.286 1.512.943 1.727 2.393.119.802.076.722-.082.97-.264.419.078.964.267 1.257.3.462.653.758.094.972-.627.242-.398.47-.23.655.119.137-.158.363-.242.432 0 0 .252.297.044.45-.207.157-.412.115-.443.285-.033.168.07.85-.264 1.049-.341.202-1.14-.063-1.564-.137-.361-.06-.811.263-.99.799-.447 1.324-.332 2-.332 2s-1.385.76-2.668-1.577c-.182-.326.178-1.218.265-1.821.112-.77-.591-1.766-.587-1.805.302-2.69 3.605-3.841 3.605-3.841l1.4-2.081"/>
            <path fill="#F4C297" d="M108.828 38.667s-1.011-1.396-.873-1.937c.139-.542.727-1.797.873-2.101.145-.305 1.746.229 1.916-.483.17-.712-.11-1.11-.11-1.11l-2.27.406-1.56-1.084s-.304 1.287-1.66 1.593c0 0-.386 1.102-.521 1.44-.136.34 3.332 3.575 3.332 3.575l.873-.3M111.99 44.253c1.299.498 2.846 1.897 2.846 1.897s1.899.27 3.795 1.287c1.899 1.018 2.713 1.898 3.457 1.898.746 0 2.305-.745 3.93-.271 1.627.475 1.832 1.22 1.832 1.627 0 .405-.274 2.643-.95 2.643-.677 0-1.56-1.153-2.033-1.153-.474 0-1.898 0-2.916-.542-1.015-.543-3.523-.813-4.371-.88-.845-.068-4.371-1.423-5.59-2.78-1.22-1.355 0-3.726 0-3.726"/>
            <path fill="#F4C297" d="M102.028 43.194S95.674 47.15 95.52 47.3c-.151.154-2.592 3.203-4.422 4.473-1.828 1.273-2.592 1.984-2.795 2.848-.203.864-1.828 3-2.39 3.227-.56.229-2.083-.127-2.49-.991-.405-.864-.56-1.118 0-1.78.56-.66 1.526-1.474 2.237-1.778.71-.304.864-.61 2.034-1.73 1.168-1.117 1.576-2.641 2.54-3.607.965-.966 3.102-1.982 3.356-2.44.254-.458 2.592-3.61 3.559-4.27.965-.66 1.675-1.371 2.285-2.388.61-1.018 2.695-2.543 4.119-3.05 1.422-.51 5.285 3.658 4.219 6.658-1.07 2.999-5.744.72-5.744.72M117.58 73.428s.17 1.255.307 3.016c.135 1.763 3.086 11.47 3.629 12.487.543 1.018 2.699 3.386 3.308 3.658.61.269 2.237.948 1.696 1.76-.543.815-2.916.204-3.863-.338-.948-.542-1.993-1.166-2.333-1.301l-.1.49-2.337-1.066s-.307-1.068.203-1.881c.508-.813.863-.66.508-1.423-.356-.763-1.272-2.745-2.135-4.22-.865-1.475-3.305-4.37-3.203-6.1.102-1.727.17-3.71-.486-4.674-.658-.966.029-2.035.029-2.035l4.777 1.627M100.655 72.513s-.305 3.005-1.016 3.536c-.711.53-1.738 2.557-3.365 4.64-1.625 2.085-3.092 5.085-3.04 6.152.05 1.068 1.196 2.67 1.653 3.333.457.662 2.502 1.522 2.043 2.182-.457.66-1.834.456-2.902-.103-1.067-.56-1.405-.983-1.811-1.441-.406-.458-1.373-1.067-1.373-1.067l-.254.66-1.754-.96s-.12-1.168.389-1.981c.508-.814 1.22-.662 1.525-1.322.305-.66.799-1.975 1.408-4.11.61-2.136.668-4.537 1.483-5.554.812-1.015 3.71-3.508 3.71-3.508l3.304-.457"/>
            <path fill="#EE6101" d="M111.033 27.497s-.62.744-1.56 1.304c-.94.558-1.563 1.778-1.518 2.387 0 0-.132-.584-.591-.507-.457.077-.356.66-.381.788-.026.127-.096 1.195.37 1.27 0 0-.345-.076-.548.28-.203.356-.856.898-1.66.932 0 0-1.416-.22-2.026-1.593-.61-1.372-.685-3.533-.558-4.423.154-1.082 1.805-2.821 3.762-2.923 1.853-.095 3.794.349 4.71 2.485"/>
            <path fill="#EE6101" d="M100.629 30.31a2.046 2.046 0 1 0 4.091.003 2.046 2.046 0 0 0-4.091-.002"/>
            <path fill="#D8EBF6" d="M103.553 35.815s3.354 1.32 3.252 4.37c-.102 3.05-3.05 3.457-3.863 2.644l-.914.365s2.439 6.345 1.83 9.09c-.612 2.744-3.356 3.964-2.746 7.115.609 3.152-1.627 7.727-3.356 10.878l-1.726 3.15s8.234 5.898 21.55 0c0 0-4.371-10.571-5.082-13.214-.713-2.643-1.22-1.221-.914-4.88.303-3.66.813-6.71 1.117-7.93.305-1.22 1.526-2.745-.71-4.981-2.24-2.237-3.051-3.66-3.051-3.66s-3.81-2.862-4.317-3.37c0 0-.406.059-1.07.423"/>
            <path fill="#521509" d="M124.522 46.597l.02.005.308-.618c.043-.097.156-.161.252-.142l3.146.616c.098.019.178.12.182.226l.049.689.023.004c.096.019.158.12.139.222l-.033.159c-.02.104-.116.174-.211.156l-.002-.001-1.504 5.132c-.03.1-.131.17-.23.15l-2.631-.516c-.096-.017-.166-.121-.155-.224l.545-5.32h-.004c-.095-.02-.158-.121-.138-.226l.03-.157c.022-.104.118-.173.214-.155"/>
            <path fill="#260D08" d="M124.522 46.597l.02.005.308-.618c.043-.097.156-.161.252-.142l3.146.616c.098.019.178.12.182.226l.049.689.023.004c.096.019.158.12.139.222l-.033.159a.185.185 0 0 1-.174.157l-4.053-.794c-.076-.032-.121-.12-.103-.212l.03-.157c.022-.104.118-.173.214-.155"/>
            <path fill="#F4C297" d="M123.348 49.572s.865-.338 1.344-.202c.48.135 1.322.857 1.486 1.046.16.188-.451.388-.922.004-.244-.202-.547-.365-.547-.365s-.54.19-1.361.176c-.82-.014-.75-.318-.75-.318l.75-.341"/>
            <path fill="#00265F" d="M118.65 89.544c-.111.152-.316.319-.56.709-.51.813-.203 1.88-.203 1.88l2.338 1.068.099-.491c.34.135 1.385.759 2.333 1.3.947.543 3.32 1.154 3.863.34.54-.813-1.086-1.492-1.696-1.761-1.107.424-3.812-1.012-5.265-2.051-.641-.458-.908-.994-.908-.994M95.44 90.683c-.407-.15-.842.056-1.188-.093-4.451-1.915-3.91-4.002-3.91-4.002-.342.215-.773.328-1.117.876-.508.813-.39 1.98-.39 1.98l1.755.96.254-.66s.967.61 1.373 1.068c.406.458.744.88 1.81 1.44 1.069.56 2.446.764 2.903.104.348-.501-.742-1.116-1.49-1.673M111.55 55.756a83.935 83.935 0 0 1 .203-2.213c-1.698-.116-5.905-.512-7.833-1.7a4.11 4.11 0 0 1-.062.44c-.137.616-.383 1.152-.674 1.653 1.305.63 4.408 1.88 8.367 1.82"/>
        </g>
        <g>
            <path fill="#FDB171" d="M89.704 89.405c1.335-1.145 3.715-.344 4.583 1.275.87 1.621-.164 2.184.686 2.602.85.416 2.147 2.421 1.559 4.57 0 0 1.847-1.512 4.255-1.51 2.408 0 2.432-1.329 3.223-1.838.791-.507 1.456-1.781 2.106-1.937.647-.157 1.918-.936 2.486-.171.935 1.257.519 2.186-.5 2.895-1.018.707-1.668.463-2.361.97-.693.507-3.968 3.07-5.619 3.66-1.651.59-4.026 3.666-4.823 2.169-.8-1.494-2.958-3.496-3.445-4.208-.486-.714-.645-2.229-.805-2.671-.16-.441-3.927-3.596-1.345-5.806M83.679 121.481c-.795.203-1.044 1.482-1.601 2.715-.353.773.131 2.48-1.772 2.197-1.788-.265-2.61-.808-5.324.465-2.71 1.276-4.138.398-5.084.34-.951-.058-2.464.043-2.464.043s-.684 2.836-.557 3.32c.131.483 1.175 1.144 1.175 1.144s2.783-1.365 3.912-1.26c1.126.106 9.465.327 10.232.487 2.054.424 2.752-.6 3.924-1.799 1.873-1.917 2.396-4.641 2.396-4.641l-4.837-3.011"/>
            <path fill="#3357BD" d="M103.782 93.926l2.101 3.657-10.584 6.163-.054-5.907 8.537-3.913"/>
            <path fill="#4985E2" d="M90.387 84.845s.928 1.091 4.849 2.41c0 0 2.384 2.689 2.19 6.965-.191 4.277-1.596 7.815-2.127 9.642-.531 1.824-1.56 6.687-1.56 6.687s-5.004-.74-8.768-2.224c0 0 1.297-2.756 1.069-5.036-.228-2.281-.798-7.982-.17-11.236.627-3.252 3.277-6.433 4.517-7.208"/>
            <path fill="#FDB171" d="M96.922 75.465c.309.237.682.879.795 1.483.117.603.541.929.308 1.367-.231.437.014 1.016.496 1.492.534.529.763.869.266 1.103-.501.23-.423.184-.383.321.036.136.284.317-.006.597 0 0 .259.241.059.473-.195.236-.279.334-.127.545.153.211.467.914-.15 1.232-.621.321-1.963.137-2.11.345-.154.211.109.216-.495 1.038-.606.819-.276 2.173-.276 2.173s-3.425-.429-5.082-2.357c0 0 .68-1.577.49-2.001 0 0 .76.143.668-.223 0 0 .34-.481.231-.744 0 0 .159-.674-.127-.966 0 0 .088-.3-.096-.505-.187-.203-.334-.396-.395-.774-.064-.376 1.605-1.816 1.661-1.978.058-.158.369-.496.238-.692-.131-.197-.091-.339.028-.442.121-.102 4.007-1.487 4.007-1.487"/>
            <path fill="#000" d="M90.676 83.615c.246-1.392-.787-2.857-1.389-4.045-.6-1.187-.706-4.312 1.809-5.06 2.516-.753 5.365-.269 5.502-1.51 0 0 1.156 1.706.44 2.702 0 0-3.059 1.343-2.909 4.533l-.603.166s-.047-1.526-.881-1.39c-.79.129-.246.984-.28 1.398-.035.412-.523 1.143.346 1.068 0 0 .258.637-1.032 1.56-.597.43-1.003.578-1.003.578"/>
            <path fill="#F09F5B" d="M97.292 84.274c-.024 0-1.393-.014-2.419-.555-1.152-.603-1.566-1.635-1.566-1.635s.837 2.268 2.695 2.761c.008-.19.006-.337.068-.422.091-.13.657-.106 1.222-.149"/>
            <path fill="#00265F" d="M102.716 141.882c-.389.482-1.733 1.221-2.443 1.13-.704-.097-1.732-.788-1.869-.262-.142.529-.331 1.978.002 2.705 0 0-.161.194-.002.572.163.382 1.112.383 2.325.241 1.213-.142 4.912-.245 5.892-.655.981-.413 1.854-.914 1.938-1.407.085-.494.266-1.531-.625-1.296-.889.237-1.962.335-2.458.12-.493-.225-1.544-.552-1.987-.899-.446-.347-.614-.44-.773-.249"/>
            <path fill="#001533" d="M69.618 131.076c-.272-.509-.42-1.928-.084-2.504.338-.57 1.304-1.202.902-1.513-.4-.314-1.577-.999-2.319-.977 0 0-.111-.212-.494-.211-.382 0-.728.815-1.048 1.908-.319 1.094-1.575 4.304-1.575 5.297-.002.992.108 1.922.502 2.172.392.252 1.219.784 1.342-.066.119-.849.422-1.807.788-2.153.368-.344 1.032-1.123 1.493-1.381.456-.252.6-.365.493-.572"/>
            <path fill="#37120B" d="M84.34 114.633s-2.121 9.786-3.019 11.137l-11.111.822c-2.372 2.25-.344 5.444-.344 5.444s14.305-.58 14.796-.75c1.5-.528 4.227-5.415 5.743-10.518l-6.065-6.135"/>
            <path fill="#582D11" d="M100.289 126.145c-.362-1.043-2.335-5.212-2.341-5.226-.651-1.438-1.457-3.246-1.796-4.103-.612-1.546-2.413-6.267-2.413-6.267l-8.768-2.224c-.478.576-1.176 2.108-1.674 3.743-.822 2.694 2.073 5.034 4.319 6.53 2.245 1.499 6.66 9.756 6.66 9.756l3.162 14.829s3.165.373 6.172-1.398c0 0-3.041-14.837-3.321-15.64"/>
            <path fill="#070707" d="M107.842 121.014l-12.97 3.993a.591.591 0 0 1-.739-.39l-2.935-9.542a.592.592 0 0 1 .388-.74l12.973-3.993a.59.59 0 0 1 .736.391l2.938 9.543a.589.589 0 0 1-.391.738z"/>
            <path fill="#001533" d="M100.37 112.784L96.422 114l-.817-2.649 3.949-1.216.816 2.649zm-.905-3.852l-4.461 1.373c-.48.148-.715.773-.524 1.397l.813 2.642c.194.624.739 1.007 1.219.859l4.461-1.373c.482-.148.715-.771.523-1.397l-.811-2.641c-.194-.623-.74-1.007-1.22-.86z"/>
            <path fill="#00265F" d="M106.252 113.84a.594.594 0 0 1-.389.739l-12.972 3.994a.593.593 0 0 1-.738-.393l-.955-3.105a.592.592 0 0 1 .388-.74l12.973-3.993a.59.59 0 0 1 .736.391l.957 3.107"/>
            <path fill="#EE8602" d="M96.398 118.723l-1.625.5-.497-1.62 1.623-.499.499 1.619"/>
            <path fill="#00265F" d="M95.981 118.503l-.987.306-.302-.986.983-.304.306.984"/>
            <path fill="#EE8602" d="M104.669 116.177l-1.622.499-.498-1.619 1.621-.5.499 1.62"/>
            <path fill="#00265F" d="M104.253 115.957l-.983.303-.305-.986.986-.303.302.986"/>
            <path fill="#FDB171" d="M99.403 110.33c.404-1.156-.383-1.409-.989-2.02-.609-.607-2.509-.518-3.613-1.059-.558-.272-1.038-.484-1.58-.966a31.457 31.457 0 0 1-1.818 2.637c1.24.424 2.293.754 2.695.922 1.037.435 1.248.984 2.732 1.646 1.483.661 2.213-.123 2.573-1.16"/>
            <path fill="#3357BD" d="M88.094 87.926s-8.556 13.535-8.472 14.319c.084.787 11.289 7.083 13.671 8.404l2.317-4.227-8.529-5.254s3.306-4.215 4.58-5.877c1.275-1.662 2.634-4.236 2.634-4.236s.14-2.41-2.135-3.617c-2.181-1.159-4.066.488-4.066.488"/>
            <path fill="#00265F" d="M110.163 96.617a.39.39 0 0 1-.409.365l-3.279-.179a.388.388 0 0 1-.364-.407l.343-6.303a.389.389 0 0 1 .408-.366l3.279.18a.388.388 0 0 1 .365.407l-.343 6.303"/>
            <path fill="#FFF" d="M106.543 95.549l.276-5.049 3.279.179-.275 5.049-3.28-.179"/>
            <path fill="#4985E2" d="M109.078 90.239l-.059.053-1.004-.055-.054-.059.06-.053 1.005.055.052.059M108.442 96.465l-.151.135-.32-.016-.133-.152.018-.318.148-.135.321.017.134.149-.017.32"/>
            <path fill="#D93116" d="M108.038 92.467l-.053-.215-.076.207.129.008zm-.053.312l.007-.128.092.005-.015-.069-.202-.01-.025.065.076.005-.005.129-.315-.018.008-.129.066.004.157-.425-.04-.003.007-.127.378.022.143.568.068.004-.006.129-.394-.022z"/>
            <path fill="#AD1800" d="M108.721 92.64l-.057-.032-.06.049.049.05.066-.03.002-.037zm-.267-.286a.415.415 0 0 1 .218-.059c.118.006.265.059.256.216l-.01.192.058.004-.007.126-.211-.01-.02-.047-.136.056c-.094-.005-.191-.061-.186-.175.006-.112.104-.176.215-.17l.096.039.002-.033-.091-.062-.149.038-.035-.115zM108.881 94.243l-.03-.168v-.002l-.015-.032-.001-.002-.002-.002-.027-.022-.034.007-.013.043.044.068.035.062-.002.046-.073.146-.015.004-.007-.002h-.012l-.027-.011-.042-.07-.003-.112.004-.022.005-.096-.025-.013-.027.087-.001.012-.04.111-.07.047-.06-.017-.075-.152-.002-.008.004-.082-.026-.16-.054-.002-.026.057.023.091.028.118-.003.021-.08.191a.296.296 0 0 1-.313.125l-.089-.021-.078-.035-.096-.148.027-.207.044-.1.004-.009.055-.084-.001-.01-.009-.001-.078.081-.062.101-.056.238a.303.303 0 0 0 .133.236l.098.05.041.013.059.013.216-.025.166-.154.047-.121.002-.008.011-.048.052.087.049.03.031.007.027-.002.088-.053.062.106.035.015.026.003.014.001.016-.001.033-.007.078-.098.017-.11M108.543 93.899l.078-.045-.045-.076-.077.045.044.076M108.704 93.885l.068-.039-.039-.068-.069.038.04.069M108.635 93.739l.077-.045-.044-.078-.078.045.045.078"/>
            <path fill="#FFD35C" d="M107.346 94.187a1.248 1.248 0 0 1-.319-.907c.018-.334.165-.645.415-.868l.055.063a1.162 1.162 0 0 0-.388.809c-.017.313.089.615.299.847l-.062.056"/>
            <path fill="#FFC130" d="M109.12 94.284l-.055-.061c.232-.211.371-.499.389-.812a1.167 1.167 0 0 0-.299-.846l.062-.057c.225.25.338.572.319.907a1.251 1.251 0 0 1-.416.869"/>
            <path fill="#FFC130" d="M109.102 92.696l.013-.23.229.013-.005.082-.145-.006-.008.145-.084-.004M109.243 94.334l-.229-.011.012-.229.084.005-.009.144.146.008-.004.083"/>
            <path fill="#FFD35C" d="M107.535 92.61l-.083-.004.008-.147-.145-.007.004-.082.228.011-.012.229M107.447 94.238l-.229-.013.005-.084.145.008.007-.145.084.005-.012.229"/>
            <path fill="#FDB171" d="M105.547 92.937s.866-.837.992-1.428c.077-.35.38-.306.433-.229.054.076.289 1.42-.71 2.334l-.715-.677M110.34 91.78c-.412.076-.449.728-.496 1.572-.046.844.192 1.708.496 1.564.305-.144.596-3.245 0-3.136"/>
        </g>
        <g>
            <path fill="#F4C297" d="M291.013 49.065c.87 1.044.885 2.43-.762 4.032-1.647 1.6-6.109 4.9-7.565 4.283-2.072-.876-4.71-5.622-5.387-6.796-1.103-1.91-2.098-2.276-2.48-2.794-1.163-1.565-1.914-3.757.306-2.995.406.14 1.461 1.934 1.395 1.507-.357-2.285.664-.207.786.398.35 1.731 2.126 3.36 2.555 3.771.881.85 3.185 3.103 3.275 3.392 0 0 5.83-7.253 7.877-4.798"/>
            <path fill="#E3E3E3" d="M270.74 50.686l6.072-1.973-2.204-6.786-6.072 1.973 2.204 6.786"/>
            <path fill="#FFF" d="M271.276 50.512l6.072-1.973-2.553-7.856-6.072 1.971 2.553 7.858"/>
            <path fill="gray" d="M274.092 42.101l.036-.238.01-.003.036.213.221.68.242-.08-.427-1.31-.185.06-.269.854-.033.231-.01.003-.035-.208-.222-.685-.24.078.425 1.313.185-.06.266-.848M272.99 41.77l-.77.25.073.227.518-.169.097.305-.47.152.074.227.471-.154.102.32-.525.17.073.227.781-.254-.424-1.302M271.917 42.921l.052.24-.008.001-.102-.226-.462-.65-.168.056.013.8.05.238-.009.003-.103-.226-.394-.673-.258.084.785 1.196.172-.055-.003-.8-.034-.209.01-.003.097.192.466.645.18-.057-.07-1.429-.277.09.063.783M270.164 43.741l.012-.11.088-.105.123-.11.117-.126.071-.154-.014-.195-.086-.154-.128-.087-.16-.023-.187.035-.207.09-.147.11.15.188.107-.088.17-.078.148-.01.078.08-.014.107-.088.104-.12.111-.118.128-.072.153.014.188.091.17.138.093.175.025.202-.038c.093-.03.172-.067.237-.107l.14-.102-.152-.192-.046.042-.066.047-.08.047-.092.04-.186.017-.098-.096"/>
            <path fill="#C9C9C9" d="M273.653 45.721l1.785-.58-.58-1.786-1.786.581.581 1.785M270.374 45.257l2.308-.75-.13-.402-2.308.75.13.402M270.6 45.948l2.306-.749-.13-.402-2.307.75.131.401M270.824 46.641l2.307-.75-.13-.402-2.307.748.13.404M271.05 47.332l4.612-1.499-.13-.4-4.614 1.497.131.402M271.274 48.023l4.613-1.499-.13-.4-4.614 1.498.131.401M271.498 48.716l4.615-1.499-.13-.403-4.616 1.5.131.402M271.723 49.407l4.614-1.499-.13-.4-4.614 1.498.13.401"/>
            <path fill="#F4C297" d="M292.368 75.433c-2.63 3.898-3.773 4.951-3.967 5.923-.196.973-.654 4.566-2.273 6.224-1.62 1.657-2.938 5.684-2.683 7.33 0 0-2.876 4.768-5.917 2.32 0 0 1.58-.86 2.691-2.608.514-.809 3.066-12 3.504-13.558.435-1.556 2.303-3.777 3.318-5.918 1.018-2.14 5.327 0 5.327 0v.287"/>
            <path fill="#00265F" d="M283.445 94.91s.603 1.175.03 2.484c-.574 1.306-.77 2.378-.83 2.905l-.588-.097.512-3.11s-1.475 1.162-1.917 1.864c-.445.703-.163.987-3.185.49-1.484-.245-2.03-.9-1.643-1.434.256-.354 1.11-.628 1.704-.782 0 0 2.13 1.315 5.917-2.32"/>
            <path fill="#EDAB72" d="M303.908 92.443s-1.117-.34-1.497-.87c-1.297-1.816-1.456-5.605-3.048-7.59-1.593-1.984-2.66-1.983-2.738-3.307-.077-1.325.435-4.184.435-4.184l-4.573 1.556s-.487 1.947 0 3.6c.486 1.655 4.498 6.472 6.941 9.73 1.905 2.542 2.697 3.61 1.478 6.67h2.547l.455-5.605"/>
            <path fill="#001533" d="M303.908 92.443s1.223.506 1.631 1.87c.413 1.373.958 2.315 1.253 2.754l-.509.307-1.623-2.699s-.374 1.84-.257 2.661c.117.823.516.858-2.106 2.436-1.29.778-2.133.63-2.182-.026-.033-.435.438-1.196.791-1.698 0 0 2.477-.38 3.002-5.605"/>
            <path fill="#37120B" d="M291.178 33.12s-2.402-.468-4.16 1.77c-1.773 2.25-1.202 5.702.62 9.181 1.163 2.224 1.804 3.077 1.06 3.454-.743.38 1.86-.39 2.394-2.312.536-1.922 1.816-4.18 1.816-4.18s-1.96-5.47-2.009-5.613c-.05-.144.28-2.3.28-2.3"/>
            <path fill="#F4C297" d="M289.21 34.298c-.205.295-1.51.997-1.69 2.472-.099.818-.055.733.111.982.277.418-.053.98-.239 1.283-.29.48-.64.785-.069.988.643.23.417.466.253.658-.118.142.168.362.256.43 0 0-.248.308-.033.46.213.154.42.105.46.276.036.17-.052.864.294 1.056.352.197 1.154-.094 1.582-.178.365-.07.86-.17 1.336.148 1.517 1.02 1.488 2.213 1.488 2.213s.617.606 1.856-1.8c.174-.336-.082-.917-.187-1.527-.133-.778-.153-1.563-.184-1.589l-3.76-3.799-1.475-2.073"/>
            <path fill="#EE8602" d="M295.528 61.46s5.992 7.692 9.523 11.851c0 0-2.064 6.011-13.134 6.166V60.574l3.611.886"/>
            <path fill="#EE6101" d="M305.051 73.311s-1.465 4.87-8.963 5.868c-1.48-6.494-2.738-17.283-2.738-17.283l1-.724 1.178.288s5.992 7.692 9.523 11.851"/>
            <path fill="#F4C297" d="M290.654 43.873c.014-.144.076-1.072-.519-1.148-.352-.048-.316-.329-.214-.58l-.925-.584 2.563-.1 1.81 4.124-3.83 1.627s.396-.36.827-1.862c.158-.547.24-1.05.288-1.477"/>
            <g transform="matrix(-1 0 0 1 293.51 41.644)">
                <mask id="c" fill="#fff">
                    <use xlink:href="#a"/>
                </mask>
                <path fill="url(#b)" d="M3.931 5.548c-.11-.131-.433-.59-.787-1.815a8.805 8.805 0 0 1-.288-1.474 2.308 2.308 0 0 1-.008-.234c.002-.323.068-.886.527-.944l.027-.014C3.025.91 2.307.563 1.848.08L.235 3.756l-.041.207 3.737 1.585" mask="url(#c)"/>
            </g>
            <path fill="#EE8602" d="M288.307 61.46s-5.99 7.692-9.525 11.851c0 0 2.066 6.011 13.135 6.166V60.574l-3.61.886"/>
            <path fill="#EE8602" d="M292.76 45.35s-2.113 1.361-2.963 1.501c0 0-2.629 3.56-2.689 4.973-.059 1.413 0 2.591.884 3.77.882 1.174.235 5.687.176 6.16 0 0 4.18.47 7.36-.294 0 0 0-6.162.294-7.75.295-1.59 1.12-8.243-3.062-8.36"/>
            <path fill="#EE6101" d="M292.558 45.477c.116-.075.202-.127.202-.127 4.181.117 3.357 6.77 3.062 8.36-.294 1.588-.294 7.75-.294 7.75-.694.164-1.436.271-2.172.34l-.798-16.323"/>
            <path fill="#37120B" d="M288.424 33.75s.13 4.077 2.521 5.403c1.14.63.647 2.048.58 2.487-.232 1.453.825 6.396 5.573 4.944 0 0-3.26-1.514-1.256-5.769 1.256-2.669-.148-8.333-5.178-7.777l-2.24.711"/>
            <path fill="#260D08" d="M297.098 46.584c-1.772.545-3.026.191-3.896-.53-1.13-2.004-1.14-4.33.114-7.016 1.76-3.77-1.41-5.915-1.552-6.009 4.124.327 5.238 5.325 4.078 7.786-2.004 4.255 1.256 5.77 1.256 5.77"/>
            <path fill="#00265F" d="M303.122 69.86a3.125 3.125 0 0 1 3.057 2.514 3.099 3.099 0 0 1-.468 2.343 3.094 3.094 0 0 1-1.986 1.325c-1.674.334-3.34-.797-3.668-2.454a3.126 3.126 0 0 1 3.065-3.728zm-.008 7.254c.27 0 .541-.026.806-.079a4.1 4.1 0 0 0 2.632-1.755 4.101 4.101 0 0 0 .62-3.1 4.14 4.14 0 0 0-4.856-3.252 4.137 4.137 0 0 0-3.25 4.856 4.138 4.138 0 0 0 4.048 3.33z"/>
            <path fill="#00265F" d="M297.471 73.8c-.079-.398.217-.789.66-.877l4.787-.948 4.79-.948c.442-.089.864.161.943.558l3.336 8.423c.078.396-.217.79-.66.877l-6.393 1.265-6.393 1.267c-.443.087-.867-.162-.945-.56l-.125-9.058"/>
            <path fill="#001533" d="M308.651 71.585l.551 1.392.365 1.84a.725.725 0 0 1-.563.857l-10.303 2.04a.724.724 0 0 1-.845-.577l-.364-1.84-.02-1.498c-.08-.397.216-.788.66-.876l4.786-.948 4.79-.948c.442-.089.864.161.943.558"/>
            <path fill="#FFF" d="M302.99 76.703a.848.848 0 1 0 1.665-.33.848.848 0 0 0-1.665.33"/>
            <path fill="#F4C297" d="M292.244 47.252c-1.752.63-1.738 2.903-.327 4.971 1.411 2.066 4.621 5.198 6.213 6.463 0 0 .15 2.986 1.657 5.466 1.067 1.755 1.52 3.647 1.585 4.685.067 1.038.748 2.561 1.818 2.237 1.07-.323 1.06-2.829.632-3.413-.427-.584-1.074-1.155-1.258-2.01-.56-2.582-1.124-7.152-1.95-8.346-.786-1.132-5.72-11.003-8.37-10.053"/>
        </g>
        <g>
            <path fill="#D8EBF6" d="M187.49 56.252s-4.813 51.485 11.978 59.348h-18.695V41.638l6.717 14.614M174.054 56.252s4.813 51.485-11.978 59.348h18.697V41.638l-6.719 14.614"/>
            <path fill="#EE6101" d="M190.004 86.129c0 5.211-9.315 27.608-9.315 27.608s-9.314-23.028-9.314-28.24 4.17-9.438 9.314-9.438c5.146 0 9.315 4.855 9.315 10.07"/>
            <path fill="#EE8602" d="M186.243 85.322c0 3.107-5.554 16.456-5.554 16.456s-5.551-13.723-5.551-16.83c0-3.107 2.486-5.625 5.55-5.625 3.068 0 5.555 2.891 5.555 6"/>
            <path fill="#D8EBF6" d="M169.864 118.333a5.435 5.435 0 0 1-5.43 5.44 5.434 5.434 0 0 1-5.434-5.44c0-3.004 2.43-5.44 5.433-5.44a5.436 5.436 0 0 1 5.431 5.44"/>
            <path fill="#D8EBF6" d="M174.469 125.799a5.022 5.022 0 0 1-5.018 5.025 5.02 5.02 0 0 1-5.018-5.025 5.021 5.021 0 0 1 5.018-5.027 5.023 5.023 0 0 1 5.018 5.027M192.022 128.254a3.86 3.86 0 0 1-3.86 3.864 3.86 3.86 0 0 1-3.858-3.864 3.861 3.861 0 0 1 3.858-3.864c2.132 0 3.86 1.73 3.86 3.864M189.268 117.61a5.021 5.021 0 0 1-5.018 5.024 5.02 5.02 0 0 1-5.017-5.025 5.021 5.021 0 0 1 5.017-5.025c2.771 0 5.018 2.25 5.018 5.025M200.677 114.734a3.845 3.845 0 0 1-3.842 3.847 3.846 3.846 0 0 1-3.843-3.847 3.845 3.845 0 0 1 3.843-3.848 3.844 3.844 0 0 1 3.842 3.848M198.292 102.33a1.332 1.332 0 1 1-2.665 0 1.333 1.333 0 0 1 2.666 0M167.236 101.2a1.333 1.333 0 1 1-2.666.001 1.333 1.333 0 0 1 2.666 0M169.363 97.065a.854.854 0 1 1-1.708.002.854.854 0 0 1 1.708-.002"/>
            <path fill="#D8EBF6" d="M197.781 100.236a.981.981 0 1 1-1.963.003.981.981 0 0 1 1.963-.003"/>
            <path fill="#D8EBF6" d="M197.151 99.886a2.08 2.08 0 1 1-4.159 0 2.08 2.08 0 1 1 4.16 0M172.832 112.583a3.843 3.843 0 1 1-7.686 0 3.846 3.846 0 0 1 3.843-3.847 3.845 3.845 0 0 1 3.843 3.847"/>
            <path fill="#D8EBF6" d="M182.092 117.61c0 4.06-3.288 7.352-7.343 7.352s-7.34-3.292-7.34-7.353c0-4.062 3.285-7.352 7.34-7.352s7.343 3.29 7.343 7.352"/>
            <path fill="#D8EBF6" d="M185.606 128.254a6.503 6.503 0 0 1-6.5 6.508 6.504 6.504 0 0 1-6.498-6.508 6.504 6.504 0 0 1 6.499-6.507 6.503 6.503 0 0 1 6.499 6.507M199.03 120.772c0 4.133-3.344 7.482-7.469 7.482-4.126 0-7.47-3.349-7.47-7.482 0-4.129 3.344-7.478 7.47-7.478 4.125 0 7.47 3.35 7.47 7.478"/>
            <path fill="#D8EBF6" d="M189.174 120.772c0 3.595-2.91 6.509-6.497 6.509a6.501 6.501 0 0 1-6.498-6.509 6.502 6.502 0 0 1 6.498-6.507c3.587 0 6.497 2.915 6.497 6.507"/>
            <path fill="#2B2B2B" d="M165.69 57.549h1.084v-5.066h-1.085z"/>
            <path fill="#37120B" d="M173.959 90.997s-2.992 3.292-1.576 4.286c1.41.995 6.165-1.778 6.699-2.984.768-1.752-.413-3.978-.413-3.978l-4.71 2.676M187.612 90.997s2.987 3.292 1.573 4.286c-1.41.995-6.167-1.778-6.699-2.984-.772-1.752.415-3.978.415-3.978l4.71 2.676"/>
            <path fill="#00265F" d="M172.86 48.071s.112 15.848 0 22.882c-.113 7.04 0 20.656 0 20.656h6.849l1.065-34.127v-9.41h-7.914M188.691 48.071s-.113 15.848 0 22.882c.112 7.04 0 20.656 0 20.656h-6.847l-1.07-34.127v-9.41h7.917"/>
            <path fill="#001533" d="M177.257 48.196l-1.162 43.413h-3.235l.03-43.413h4.367M180.81 48.196v10.336l1.034 33.077h3.343l-.361-43.413h-4.017"/>
            <path fill="#FDB171" d="M194.774 50.365s.326 1.51.585 1.99c.26.479-.322 4.936-1.601 5.142-1.284.205-.73-.212-.639-1.382.096-1.168.27-2.343-.333-2.256-.599.081-.164 1.032-.65 1.412-.356.277-.47-.456-.594-1.443a14.742 14.742 0 0 1-.069-1.347c.013-1.562.484-1.81.314-2.432-.173-.628 2.987.316 2.987.316"/>
            <g transform="translate(172.461 14.185)">
                <mask id="e" fill="#fff">
                    <use xlink:href="#d"/>
                </mask>
                <path d="M15.92 16.687l-.024-10.934c-1.98-1.021-4.871-2.158-4.871-2.158-.437-1.022-.259-3.23-.259-3.23L8.326.033 5.888.366s.177 2.207-.259 3.229l.007.014C5.346 3.724 2.668 4.785.8 5.753L.78 16.687c.814 3.057 1.13 6.067.867 9.181h13.4c-.262-3.114.059-6.124.873-9.18" mask="url(#e)"/>
            </g>
            <path fill="#FDB171" d="M175.533 9.143h.107l-.134-1.046c-.227-1.733-.735-6.799 5.303-6.799 6.033 0 5.529 5.066 5.302 6.799-.04.334-.087.687-.13 1.046h.1c.92-.682.999 1.098.615 1.703-.319.505-.322.563-.512 1.112-.144.408-.38.461-.576.417-.023.242-.046.452-.06.62-.085.936-2.324 2.808-2.836 3.395-.475.548-1.269.332-1.52.321-.258-.012-.383-.02-.383-.02s-.126.008-.385.02c-.252.011-1.041.227-1.517-.32-.51-.588-2.753-2.46-2.837-3.397-.018-.167-.035-.377-.064-.62-.195.045-.429-.008-.571-.416-.19-.55-.2-.607-.514-1.112-.384-.605-.305-2.385.612-1.703"/>
            <path fill="#582D11" d="M183.703 14.55c.307-.334 1.358-1.017 1.53-2.482.097-.772.644-3.196.644-3.497 0-.208.101-.135.163.1l-.06.472-.372 3.232c-.023.242-.046.452-.06.62l-.074.269-.514.813c-.724.896-1.901 1.905-2.248 2.313-.475.548-1.269.332-1.52.321-.258-.012-.383-.02-.383-.02s-.126.008-.385.02c-.252.011-1.041.227-1.517-.32-.352-.409-1.526-1.418-2.249-2.314-.221-.348-.4-.635-.518-.813l-.073-.27c-.015-.167-.032-.377-.061-.62l-.366-3.231a29.08 29.08 0 0 1-.063-.471c.063-.236.161-.309.161-.101 0 .301.55 2.725.646 3.497.173 1.465 1.222 2.148 1.531 2.483.306.339 1.315.678 1.746.831.431.154 1.87.154 2.296 0l1.746-.831"/>
            <path fill="#582D11" d="M181.411.68l.004.001.35.012c4.924.216 4.655 4.911 4.655 4.911l-.007-.003c.04 1.182-.207 2.364-.432 3.542l-.104-.572s-.053-.572-.274-1.268l-.044-.109a5.801 5.801 0 0 0-.242-.592c-1.338-2.67-4.508-1.8-4.508-1.8s-3.172-.872-4.51 1.806a5.179 5.179 0 0 0-.239.576l-.044.125c-.226.69-.278 1.262-.278 1.262l-.098.572c-.145-.74-.294-1.478-.376-2.22l-.003-.01C174.702 2.985 176.506 0 176.506 0c-.164.453 1.471.68 4.905.68z"/>
            <path fill="#D8EBF6" d="M173.26 19.937l-.02 10.935c.81 3.041 1.124 6.036.87 9.129l.062.052h12.989l.337-.285c-.22-3.009.093-5.933.882-8.896l-.023-10.935c-1.98-1.02-4.871-2.157-4.871-2.157h-5.396l.007.014c-.29.115-2.968 1.176-4.837 2.143"/>
            <path fill="#D8EBF6" d="M188.845 48.196l.21-15.473c0-1.739-.1-1.838-.003-1.38.098.46 1.522 6.426 1.486 8.024-.016.73.109 10.774-.048 11.993l5.117-.39c.142-.414.247-9.497.258-10.393.075-4.998-1.136-7.903-2.313-13.432-1.175-5.525-1.963-6.073-2.526-6.382-.302-.163-3.274-1.368-4.99-1.92L180.81 28.6v19.597h8.036"/>
            <path fill="#C0D8E5" d="M191.845 51.257c0-.005.019-9.44-.127-11.703-.146-2.265-2.708-8.446-2.708-8.446v.01c0-.02.007.064.042.225.098.46 1.522 6.426 1.486 8.024-.016.73.109 10.774-.048 11.993l1.355-.103"/>
            <path fill="#001533" d="M189.012 31.126l.033.782c-.008-.485-.029-.726-.033-.782"/>
            <path fill="#FDB171" d="M165.371 49.595s-.623 1.413-.974 1.833c-.347.419-.672 4.9.542 5.358 1.212.46.754-.057.897-1.22.143-1.167.212-2.354.781-2.149.573.206-.047 1.042.356 1.516.294.345.549-.35.872-1.293.129-.38.293-1.106.335-1.308.304-1.53-.112-1.869.185-2.442.294-.584-2.994-.295-2.994-.295"/>
            <path fill="#D8EBF6" d="M172.775 48.196l-.215-15.473c0-1.739.101-1.838.003-1.38-.096.46-1.793 6.218-1.758 7.818.015.73-1.764 11.176-1.606 12.397l-5.12-.394c-.143-.41 1.157-10.217 1.2-11.111.29-6.024 1.61-7.38 2.786-12.908 1.176-5.525 1.964-6.073 2.526-6.382.3-.163 3.276-1.368 4.988-1.92l5.23 9.756v19.597h-8.034"/>
            <path fill="#001533" d="M172.607 31.126l-.038.782c.012-.485.032-.726.038-.782"/>
            <path fill="#C0D8E5" d="M172.563 31.343l.04-.213c-.017.035-2.493 4.847-2.974 7.838-.485 3-1.94 12.392-1.94 12.392v.082l1.51.116c-.158-1.221 1.621-11.668 1.606-12.397-.035-1.6 1.662-7.358 1.758-7.818"/>
            <path fill="#F7911E" d="M172.586 31.443l.018-.292c-.003.045-.011.135-.018.292"/>
            <path fill="#FDB171" d="M180.81 17.78v2.341l1.416-2.341h-1.415"/>
            <path fill="#FDB171" d="M180.81 17.78v2.341l-1.415-2.341h1.416"/>
            <path fill="#000" d="M168.519 69.563c0 1.27-.958.955-2.141.955-1.179 0-2.138.314-2.138-.955V57.944c0-1.27.96-.957 2.138-.957 1.183 0 2.14-.313 2.14.957v11.62"/>
        </g>
        <g>
            <path fill="#3357BD" d="M357.17 125.028l10.228 11.388 14.377-6.466 3.934 5.297s-18.119 8.212-19.083 8.116c-.965-.097-16.308-13.027-16.308-13.027l6.852-5.308"/>
            <path fill="#FDB171" d="M331.517 99.776c.047-.184.286-.836.334-.949.424-1 .043-3.848.317-4.014.273-.164 3.375.614 3.375.614s.217 1.2-.387 1.7c-.607.494-.617.646-.76 1.638-.04.294-.027.725-.002 1.361-.783-.073-2.095-.269-2.877-.35"/>
            <path fill="#FDB171" d="M335.314 96.963c.213-.355.96-1.814 1.32-2.082.36-.268.493-.493.227-.652-.633-.38-1.449.804-1.623 1.169-.174.364.9-2.932.725-3.405-.174-.467-.24-.215-.489-.544-.234-.312-.382-.435-.662-.261-.205.129-.464.117-.574.24-.117.123-.484.123-.625.367-.152.253-1.394 2.314-1.527 3.211-.133.898 3.228 1.957 3.228 1.957"/>
            <path fill="#00265F" d="M332.695 95.154a.36.36 0 0 0 .225.461l2.904 1.009a.364.364 0 0 0 .461-.223l1.938-5.584a.366.366 0 0 0-.223-.462l-2.906-1.008a.364.364 0 0 0-.46.223l-1.939 5.584"/>
            <path fill="#FFF" d="M336.211 95.513l1.551-4.474-2.905-1.008-1.552 4.474 2.906 1.008"/>
            <path fill="#4985E2" d="M335.896 90.012l.032.067.89.308.067-.031-.032-.068-.89-.307-.067.031M334.24 95.635l.08.169.285.099.17-.083.098-.283-.082-.17-.283-.097-.17.08-.098.285"/>
            <path fill="#D93116" d="M336.008 92.312l.123-.167-.008.207-.115-.04zm-.065.29l.04-.116-.083-.027.037-.055.182.063-.004.066-.066-.023-.04.114.276.096.04-.113-.059-.023.015-.422.035.012.04-.113-.337-.116-.324.443-.062-.021-.039.114.35.121z"/>
            <path fill="#AD1800" d="M335.355 92.219l.06-.008.034.065-.06.025-.045-.049.011-.033zm.332-.152l-.168-.129c-.105-.037-.25-.043-.298.097l-.06.17-.052-.017-.037.111.186.064.033-.031.098.096c.084.028.19.015.224-.086.033-.099-.029-.19-.127-.224l-.097.001.011-.031.1-.02.115.086.072-.087zM334.648 93.552l.086-.136v-.001l.024-.022.002-.002.033-.01.027.019-.004.042-.06.042-.055.042-.014.041.01.152.014.008.006.002.011.004.028.001.06-.046.043-.098.004-.019.03-.087.025-.001-.006.084-.004.013-.004.11.043.064.06.008.118-.107.004-.006.025-.072.08-.13.045.018.004.059-.053.072-.066.092-.004.018.002.195a.278.278 0 0 0 .227.218l.084.014.08-.004.134-.093.051-.188-.002-.104v-.009l-.017-.092.004-.008.007.002.04.099.02.108-.04.226-.197.159-.104.007-.039-.003-.055-.008-.179-.1-.09-.191.002-.123.002-.007.008-.046-.077.058-.054.008-.028-.005-.023-.012-.059-.076-.09.069-.037.002-.023-.007-.012-.004-.014-.007-.025-.018-.033-.113.025-.101M335.062 93.373l-.05-.066.064-.05.051.065-.065.051M334.928 93.305l-.045-.059.058-.045.045.058-.058.046M335.04 93.201l-.052-.065.067-.052.05.067-.066.05"/>
            <path fill="#FFD35C" d="M335.998 94.048c.283-.138.496-.376.598-.674a1.171 1.171 0 0 0-.05-.898l-.072.034a1.098 1.098 0 0 1-.509 1.469l.033.069"/>
            <path fill="#FFC130" d="M334.426 93.502l.07-.032a1.084 1.084 0 0 1-.049-.841c.096-.277.295-.502.557-.629l-.033-.07a1.163 1.163 0 0 0-.598.673c-.104.298-.084.616.053.899"/>
            <path fill="#FFC130" d="M335.004 92.133l.07-.203-.203-.071-.023.073.126.047-.042.128.072.026M334.301 93.503l.203.071.07-.202-.074-.026-.043.128-.129-.044-.027.073"/>
            <path fill="#FFD35C" d="M336.392 92.613l.075.028.045-.13.13.044.024-.073-.203-.072-.07.203M335.892 94.057l.204.069.023-.075-.127-.043.045-.129-.074-.025-.07.203"/>
            <path fill="#582D11" d="M338.137 152.792c.515.435 2.103.945 2.841.702.733-.249 1.688-1.199 1.946-.667.26.536.761 2.046.556 2.892 0 0 .213.171.12.608-.098.442-1.11.64-2.434.74-1.324.098-5.297.752-6.428.518-1.135-.237-2.17-.594-2.36-1.101-.195-.511-.603-1.583.397-1.514 1 .068 2.166-.049 2.651-.381.48-.342 1.535-.909 1.937-1.371.403-.463.565-.597.774-.426"/>
            <path fill="#FDB171" d="M336.148 86.766c-.29.319-.574 1.097-.58 1.783-.008.684-.41 1.125-.068 1.559.338.433.183 1.117-.252 1.734-.482.684-.666 1.101-.074 1.26.595.154.5.119.484.276-.014.157-.252.405.123.655 0 0-.238.314.025.531.262.22.374.309.25.571-.126.262-.335 1.096.405 1.321.744.232 2.18-.235 2.381-.035.211.201-.077.258.748 1.04.824.78.728 2.329.728 2.329s2.024 6.69 3.395 5.83c.908-.569 1.142-8.438 1.717-9.412 0 0-1.057-1.597-.934-2.099 0 0-.803.307-.775-.113 0 0-.467-.46-.399-.769 0 0-.308-.708-.05-1.084 0 0-.157-.312.005-.573.166-.258.29-.5.281-.926-.003-.426-2.117-1.677-2.209-1.841-.095-.163-.5-.474-.398-.715.105-.241.033-.389-.117-.479-.153-.087-4.686-.843-4.686-.843"/>
            <path fill="#000" d="M344.598 94.477c-.543-1.479.302-3.287.728-4.709.426-1.418-.07-4.867-2.976-5.194-2.907-.331-5.936.758-6.329-.574 0 0-.935 2.098.05 3.047 0 0 3.616.873 4.077 4.4l.692.065s-.246-1.684.695-1.697c.893-.015.463 1.031.582 1.476.117.446.795 1.152-.17 1.24 0 0-.158.748 1.438 1.509.738.355 1.213.437 1.213.437"/>
            <path fill="#F09F5B" d="M337.473 96.496c.025-.004 1.525-.288 2.543-1.082 1.144-.887 1.396-2.099 1.396-2.099s-.47 2.65-2.414 3.556c-.045-.209-.072-.369-.156-.45-.123-.125-.74.012-1.369.075"/>
            <path fill="#EE8602" d="M358.381 103.555a.473.473 0 1 0 .944.056.473.473 0 0 0-.944-.056M352.814 113.29a.333.333 0 0 0 .15-.444.333.333 0 0 0-.445-.147.329.329 0 0 0-.148.444.33.33 0 0 0 .443.147M351.957 110.169a.473.473 0 1 0 .055-.942.473.473 0 1 0-.055.942M352.861 106.778c.153.1.358.059.457-.095a.33.33 0 1 0-.552-.363.331.331 0 0 0 .095.458"/>
            <path fill="#EE8602" d="M359.326 103.611a.476.476 0 0 1-.5.444l.055-.945c.26.015.46.24.445.501"/>
            <path fill="#4985E2" d="M354.853 116.344s5.018 3.281 3.86 7.912c-1.158 4.632-7.526 7.526-10.033 7.913-2.51.386-7.518 1.682-7.518 1.682s.28 4.494 1.053 9.511a156.494 156.494 0 0 1 1.156 9.842l-7.264.946s-1.517-18.314-1.71-20.437c-.194-2.123-.194-4.825 3.665-6.754 3.862-1.931 8.547-4.633 8.547-4.633l-.662-1.736 8.906-4.246"/>
            <path fill="#37120B" d="M340.572 107.708s-4.012 7.599-6.238 7.31c-2.229-.289-3.213-4.053-3.213-4.053V98.291h4.064l.25 8.449 2.604-6.486 2.533 7.454"/>
            <path fill="#582D11" d="M354.853 116.344s-.964-4.244-1.06-7.623a52.045 52.045 0 0 0-.58-6.272l8.298 2.895 4.54 8.633 3.52 1.202s.405-2.505.405-4.255c0-3.64-4.2-8.533-4.7-9.054-1.034-1.071-3.803-2.604-6.389-3.28-2.586-.676-6.446-2.799-8.086-2.895-1.639-.097-3.557.675-4.192.675-.633 0-1.367-.46-1.367-.46l-3.256 8.145-2.168-6.323s-1.947 1.147-2.236 2.209c-.289 1.061.391 5.931 1.258 8.536.87 2.605 3.523 5.627 4.488 7.363.965 1.736 2.62 4.75 2.62 4.75l8.905-4.246"/>
        </g>
        <g>
            <path fill="#00265F" d="M24.938 75.498s.633.982.46 1.567c-.17.585-.173 1.988.275 2.14.447.155 1.653.222 1.653.222s1.206-.26 1.738-.046c.534.21 2.996 1.383 4.5 1.305 1.51-.08 2.193-.641 1.808-1.254-.42-.667-2.416-1.166-2.898-1.418-.48-.25-3.075-3.045-5.283-4.106l-2.253 1.59"/>
            <path fill="#9E5D26" d="M23.695 31.786s.228-.32-.031-1.303c-.258-.982.502-2.857.679-3.168.178-.314.438.235.274 1.044-.168.806-.215 1.118.08.74.297-.378 1.342-3.247 1.836-3.26.495-.01 1.168-.335 1.422-.032.255.3 1.034 1.893-.216 3.898-.9 1.443-1.237 1.384-1.674 2.087a27.93 27.93 0 0 0-.611 1.027c-.882 1.538-1.76-1.033-1.76-1.033M9.908 27.693l-2.676 4.712-1.802-4.211 4.478-.501"/>
            <path fill="#260D08" d="M9.119 18.94s2.446-5.54-3.501-6.808C.01 10.936 1.7 18.292-.386 18.07c-1.281-.135-1.007-1.364-2.282-2.407-1.15-.935-3.073-.281-3.918 1.653-1.643 3.753-1.631 6.72-3.271 4.249 0 0-.207 1.605.803 2.225.83.515 1.973.445 2.776-.984 1.785-3.173 3.556-1.52 3.86-.106.472 2.209 4.537 2.784 5.52-.107 1.482-4.372 4.217-5.09 4.82-3.44l1.197-.214"/>
            <path fill="#4985E2" d="M-.916 45.47c.616-1.436 1.04-4.413.757-5.89-.282-1.48-.725-4.497-1.038-5.973-.313-1.478-.858-2.326-.858-2.326l-7.458 2.207-6.576 6.892-3.2-2.025s5.729-7.552 8.246-9.408c.973-.717 9.08-3.188 10.212-3.387.986-.173 2.572-.268 3.39.332.818.598 1.372.978 1.926.903l2.82 4.26L9.41 28.47s1.178.095 2.047.323c.872.226 2.19 1.06 2.965 2.463.773 1.405 5.03 6.188 5.03 6.188l3.617-6.577 3.008 1.769s-4.845 9.45-5.633 10.15c-.787.698-8.256-6.592-8.256-6.592s-.447 1.927-1.267 3.863c-.82 1.937-3.815 10.139-3.815 10.139l-8.21-3.547.189-1.18"/>
            <path fill="#2B2B2B" d="M-.916 45.47s-3.62.736-3.874 4.727c-.253 3.986 2.956 5.64 6.282 6.649 3.326 1.007 12.053 4.692 12.053 4.692s3.562 5.528 5.88 8.458c2.32 2.93 4.689 6.897 4.689 6.897l4.339-3.067s-6.841-10.364-8.291-12.804c-1.45-2.441-2.215-3.616-4.325-5.223-1.826-1.39-8.732-5.602-8.732-5.602L-.916 45.47"/>
            <path fill="#9E5D26" d="M15.16 20.328c.06.417 1.064 1.834.483 3.477-.323.909-.325.798-.63.972-.508.295-.455 1.057-.416 1.472.056.652.262 1.159-.443 1.073-.793-.096-.681.272-.61.556.05.213-.364.295-.493.32 0 0 .1.452-.205.502-.302.05-.496-.112-.625.049-.127.157-.396.933-.861.955-.472.022-1.161-.702-1.567-1.012-.346-.266-.813-.627-1.48-.542-1.175.154-1.881.61-2.277.987 0 0-.802-1.23-1.45-2.298 0 0 .999-.742 1.424-1.33.543-.744.546-1.735.592-1.747l4.255-4.657 4.303 1.223"/>
            <path fill="#260D08" d="M7.625 24.263s.063-1.253.7-1.78c0 0 .715.867 1.459.94.743.075 2.282-1.538 3.298-1.7.75-.121 1.584-.065 2.194.116l.55.237s.344-4.095-2.991-5.026c-3.334-.931-6.394.933-6.825 4.608-.27 2.297-.044 3.262-.283 3.992-.142.437-.242.772.588.105.582-.47 1.129-1.01 1.31-1.492"/>
        </g>
        <g>
            <path fill="#EE8602" d="M250.427 70.832a.406.406 0 0 0-.04-.57.407.407 0 0 0-.57.041.403.403 0 1 0 .61.529M248.005 67.71a.577.577 0 1 0-.38-1.09.577.577 0 0 0 .38 1.09"/>
            <path fill="#9E5D26" d="M241.458 64.691c-.889.657-1.934 3.276-.77 5.707 0 0-2.349-1.263-5.136-.805-2.787.458-3.46-.897-4.492-1.348-1.03-.452-2.092-1.828-2.877-1.893-.784-.06-1.426-.463-1.995.506-.507.863-.623 1.838.715 2.478 1.34.645 1.848.465 2.766.932.92.468 5.15 2.34 7.191 2.725 2.05.383 6.59 3.332 7.174 1.41.584-1.924 1.678-3.923 2.08-4.862.401-.937.24-2.763.324-3.313.088-.553-4.09-2.194-4.98-1.537"/>
            <path fill="#37120B" d="M272.001 99.244c.266-.566.346-2.115-.05-2.718-.397-.599-1.48-1.229-1.063-1.588.416-.362 1.654-1.173 2.461-1.187 0 0 .105-.237.52-.256.415-.022.837.84 1.243 2.007.407 1.167 1.948 4.577 2 5.651.061 1.074-.01 2.09-.42 2.381-.412.296-1.279.916-1.459.004-.175-.912-.558-1.934-.974-2.289-.416-.352-1.18-1.159-1.694-1.413-.509-.25-.67-.362-.564-.592"/>
            <path fill="#001533" d="M231.462 67.14l9.658 2.661s.316-2.019.643-4.049c.808.211 1.61.44 2.394.723 1.291.466 2.524 1.057 3.813 1.486-1.088 3.891-2.244 7.8-2.555 8.034-.633.472-12.877-3.436-15.467-4.28l1.514-4.575"/>
            <path fill="#3357BD" d="M255.392 84.648s3.543 8.983 3.791 9.985c.142.577 12.1-.488 12.1-.488s2.001 2.66 1.206 5.751c0 0-14.408 1.38-15.63 1.3-1.223-.082-7.743-9.7-7.743-9.7l6.276-6.848"/>
            <path fill="#9E5D26" d="M240.874 58.235c.258 1.39.514 1.218.514 1.218s-.463 1.616-1.049 3.196c-.586 1.576-2.387 2.802-2.387 2.802s.461-1.868-.566-2.523c-1.028-.652-1.96-1.148-2.166-2.349l3.64-2.973 2.014.63"/>
            <path fill="#582D11" d="M246.224 111.147c.578.412 1.78.896 2.527.576.752-.32 1.676-1.402 1.992-.859.315.537.967 2.078.822 2.982 0 0 .24.165.182.633-.064.467-1.113.761-2.494.978-1.385.215-5.904 1.254-7.113 1.1-1.21-.156-1.217-.08-1.829-.758-.386-.425-.289-1.123.942-1.204 1.36-.089.877.131 1.357-.263.48-.397 2.45-2.156 2.832-2.677.387-.52.545-.674.782-.508"/>
            <path fill="#9E5D26" d="M233.413 51.31c-.299.292-.619 1.033-.666 1.695-.043.663-.453 1.068-.152 1.508.306.44.115 1.093-.34 1.67-.506.634-.707 1.03-.143 1.214.57.186.483.146.455.295-.023.152-.263.382.08.645 0 0-.246.292-.002.515.241.227.344.322.207.568-.134.244-.384 1.043.323 1.305.707.264 2.125-.106 2.312.098.19.205.768-.078 1.522.725.758.804 1.291.626 1.291.626s.605.07 2.138-2.216c0 0 .51-.582.657-1.058 0 0-.797.253-.744-.153 0 0-.428-.477-.346-.772 0 0-.256-.705.012-1.052 0 0-.13-.31.04-.555.172-.244.307-.47.323-.884.021-.412-1.955-1.743-2.04-1.909-.08-.164-.462-.487-.343-.713.113-.23.055-.374-.088-.47-.142-.096-4.496-1.083-4.496-1.083"/>
            <path fill="#260D08" d="M241.175 59.258c-.446-1.464.478-3.17.97-4.523.487-1.353.096-4.31-2.599-5.205-4.576-1.519-6.72.56-6.23 2.047 0 0 3.462 1.05 3.712 4.496l.67.1s-.148-1.645.768-1.607c.865.036.39 1.03.478 1.467.092.436.71 1.161-.228 1.192 0 0-.197.717 1.304 1.541.698.383 1.155.492 1.155.492M236.75 59.8c.384-.34.696-.587.837-1.134.078-.308.101-.945-.158-1.56 0 0-.018 1.758-1.243 1.867-1.324.117-1.58.467-1.92.62a1.325 1.325 0 0 1-1.425-.149c-.137.271-.352 1.025.334 1.281.707.264 2.125-.106 2.312.098.235-.197.877-.68 1.262-1.024"/>
            <path fill="#9E5D26" d="M235.257 60.76a3.143 3.143 0 0 0-.313.006c.477-.139 1.033-.353 1.504-.676 1.158-.797 1.188-2.014 1.188-2.014s.44 1.936-2.125 3.298a2.24 2.24 0 0 1-.254-.614"/>
            <path fill="#4985E2" d="M255.034 78.256s3.086 3.49 2.291 6.392c-.797 2.904-8.676 7.696-13.943 11.55 0 0 5.744 10.406 7.88 14.894 0 0-3.124 2.301-6.18 1.073 0 0-8.677-15.545-8.677-16.774 0-2.467 6.69-8.228 9.883-11.504l8.746-5.63"/>
            <path fill="#00265F" d="M241.388 59.453s4.14 1.128 6.484 5.642c2.344 4.515 8.064 13.65 8.064 13.65s-7.369 4.636-9.539 5.514c0 0-6.113-8.473-6.775-9.933-.66-1.46-1.88-3.308-1.982-6.583a15.581 15.581 0 0 1 .363-3.799l3.385-4.49"/>
            <path fill="#EE8602" d="M213.663 85.823a.59.59 0 0 0 .107.827l10.762 8.27a.59.59 0 0 0 .828-.109l6.082-7.917a.591.591 0 0 0-.105-.828l-10.764-8.27a.59.59 0 0 0-.826.11l-6.084 7.917"/>
            <path fill="#001533" d="M223.645 81.545l3.276 2.518 1.691-2.196-3.277-2.519-1.69 2.197zm2.194-3.293l3.701 2.844c.398.307.398.975.004 1.492l-1.684 2.192c-.4.517-1.045.685-1.443.381l-3.7-2.846c-.4-.306-.402-.972-.003-1.49l1.681-2.192c.4-.516 1.045-.687 1.444-.38z"/>
            <path fill="#00265F" d="M217.765 80.483a.593.593 0 0 0 .107.828l10.762 8.27a.595.595 0 0 0 .83-.109l1.978-2.578a.591.591 0 0 0-.105-.828l-10.764-8.27a.59.59 0 0 0-.826.11l-1.982 2.577"/>
            <path fill="#FFF" d="M225.294 88.5l1.35 1.034 1.031-1.345-1.348-1.034-1.033 1.344"/>
            <path fill="#00265F" d="M225.763 88.438l.818.63.627-.819-.814-.627-.63.816"/>
            <path fill="#FFF" d="M218.433 83.225l1.345 1.034 1.033-1.344-1.345-1.034-1.033 1.344"/>
            <path fill="#00265F" d="M218.9 83.164l.816.628.63-.819-.818-.627-.629.818"/>
            <path fill="#9E5D26" d="M225.91 78.973c.19-1.212 1.001-1.063 1.823-1.316.823-.25 2.457.724 3.686.767.621.024 1.144.063 1.85-.109.062 1.07.191 2.13.361 3.184-1.293-.21-2.379-.414-2.813-.457-1.119-.106-1.564.281-3.185.164-1.619-.114-1.895-1.15-1.723-2.233"/>
            <path fill="#FFF" d="M272.212 85.697a3.688 3.688 0 1 0 7.373 0 3.688 3.688 0 0 0-7.373 0"/>
            <path fill="#FFF" d="M274.24 87.49a2.697 2.697 0 1 0-5.394 0 2.697 2.697 0 0 0 5.393 0M277.62 89.842a1.65 1.65 0 1 0-3.3 0 1.65 1.65 0 1 0 3.3 0M269.94 105.063a2.145 2.145 0 1 0 3.428 2.579 2.145 2.145 0 0 0-3.428-2.579"/>
            <path fill="#FFF" d="M271.341 106.76a1.975 1.975 0 1 0-3.159-2.37 1.975 1.975 0 0 0 3.16 2.37"/>
            <path fill="#FFF" d="M270.727 108.756a1.207 1.207 0 1 0-1.93-1.449 1.206 1.206 0 1 0 1.931 1.449M280.81 96.798a1.975 1.975 0 1 0 .145 3.947 1.975 1.975 0 0 0-.145-3.947"/>
            <path fill="#FFF" d="M282.75 96.018a1.208 1.208 0 1 0 .086 2.415 1.208 1.208 0 0 0-.087-2.415"/>
            <path fill="#001533" d="M246.438 64.538s1.172 15.97.73 16.623c-.446.652-13.296.927-16.02.97l-.053-4.818 10-.617s-.93-5.276-1.272-7.342c-.342-2.066-.328-4.978-.328-4.978s1.014-2.192 3.59-2.184c2.47.006 3.353 2.346 3.353 2.346"/>
        </g>
    </g>
</svg>
