<?xml version="1.0" encoding="UTF-8"?>
<svg width="33px" height="33px" viewBox="0 0 33 33" version="1.1" xmlns="http://www.w3.org/2000/svg" xmlns:xlink="http://www.w3.org/1999/xlink">
    <!-- Generator: sketchtool 41 (35326) - http://www.bohemiancoding.com/sketch -->
    <title>4DD350A0-E3D1-4C7A-ABE5-DD964344FFFA</title>
    <desc>Created with sketchtool.</desc>
    <defs></defs>
    <g id="Symbols" stroke="none" stroke-width="1" fill="none" fill-rule="evenodd">
        <g id="FOOTER" transform="translate(-1358.000000, -49.000000)" fill="#FFFFFF">
            <path d="M1374.5,82 C1383.6127,82 1391,74.6126984 1391,65.5 C1391,56.3873016 1383.6127,49 1374.5,49 C1365.3873,49 1358,56.3873016 1358,65.5 C1358,74.6126984 1365.3873,82 1374.5,82 Z M1379.25424,62.7913572 C1378.90441,62.9485724 1378.52845,63.0548594 1378.13382,63.1026433 C1378.53653,62.8579593 1378.84588,62.4705905 1378.99153,62.0089495 C1378.61462,62.23553 1378.19714,62.4000342 1377.75278,62.4886464 C1377.39693,62.1044696 1376.88989,61.8644068 1376.32884,61.8644068 C1375.25148,61.8644068 1374.37807,62.7495284 1374.37807,63.8412213 C1374.37807,63.9961021 1374.39533,64.1470287 1374.42861,64.2916667 C1372.80731,64.2092478 1371.36984,63.4222189 1370.40776,62.22624 C1370.23978,62.5182315 1370.14359,62.8577687 1370.14359,63.2200783 C1370.14359,63.9059177 1370.48801,64.5109581 1371.01145,64.8654546 C1370.69167,64.8552118 1370.39083,64.7663137 1370.12789,64.6181979 C1370.1277,64.6264875 1370.1277,64.6347293 1370.1277,64.6430665 C1370.1277,65.6008406 1370.80013,66.3997797 1371.69249,66.5814348 C1371.52883,66.626646 1371.35648,66.6508477 1371.17859,66.6508477 C1371.05287,66.6508477 1370.93068,66.6383657 1370.81155,66.6154028 C1371.05978,67.4006213 1371.78026,67.9722177 1372.63388,67.9881298 C1371.96624,68.5183262 1371.12508,68.834424 1370.21115,68.834424 C1370.05365,68.834424 1369.89837,68.8249911 1369.74576,68.806697 C1370.60907,69.3676694 1371.63447,69.6949153 1372.73613,69.6949153 C1376.32428,69.6949153 1378.28647,66.6826718 1378.28647,64.070422 C1378.28647,63.9847159 1378.28459,63.8994862 1378.28083,63.8146376 C1378.66196,63.5359379 1378.9927,63.1877777 1379.25424,62.7913572 Z" id="twitter_ico"></path>
        </g>
    </g>
</svg>
