<?xml version="1.0" encoding="UTF-8"?>
<svg width="248px" height="248px" viewBox="0 0 248 248" version="1.1" xmlns="http://www.w3.org/2000/svg" xmlns:xlink="http://www.w3.org/1999/xlink">
    <title>Group</title>
    <g id="Page-1" stroke="none" stroke-width="1" fill="none" fill-rule="evenodd">
        <g id="Group" fill-rule="nonzero">
            <g id="bob_round_blue" fill="#2F2A2D">
                <circle id="Oval-2" cx="124" cy="124" r="124"></circle>
            </g>
            <path d="M61.9615,126.215 C62.0698339,126.215 62.160833,126.254 62.2345,126.332 L63.008,127.1575 C62.6266648,127.642836 62.1532528,128.011165 61.58775,128.2625 C61.0222472,128.513835 60.3495039,128.6395 59.5695,128.6395 C58.8631631,128.6395 58.2283361,128.519251 57.665,128.27875 C57.1016639,128.038249 56.6228353,127.703502 56.2285,127.2745 C55.8341647,126.845498 55.5308344,126.336336 55.3185,125.747 C55.1061656,125.157664 55,124.51417 55,123.8165 C55,123.348498 55.0509162,122.903252 55.15275,122.48075 C55.2545838,122.058248 55.402999,121.669335 55.598,121.314 C55.793001,120.958665 56.028082,120.638001 56.30325,120.352 C56.578418,120.065999 56.8893316,119.822251 57.236,119.62075 C57.5826684,119.419249 57.960748,119.265417 58.37025,119.15925 C58.779752,119.053083 59.216331,119 59.68,119 C60.0266684,119 60.3549151,119.030333 60.66475,119.091 C60.9745849,119.151667 61.263832,119.236166 61.5325,119.3445 C61.801168,119.452834 62.0492489,119.583916 62.27675,119.73775 C62.5042511,119.891584 62.7089991,120.059499 62.891,120.2415 L62.2345,121.1385 C62.1954998,121.194834 62.145667,121.244666 62.085,121.288 C62.024333,121.331334 61.9420005,121.353 61.838,121.353 C61.7339995,121.353 61.6289172,121.316167 61.52275,121.2425 C61.4165828,121.168833 61.2865841,121.0865 61.13275,120.9955 C60.9789159,120.9045 60.7860845,120.822167 60.55425,120.7485 C60.3224155,120.674833 60.0288351,120.638 59.6735,120.638 C59.2791647,120.638 58.917335,120.709499 58.588,120.8525 C58.258665,120.995501 57.9759178,121.202415 57.73975,121.47325 C57.5035822,121.744085 57.3205006,122.076665 57.1905,122.471 C57.0604994,122.865335 56.9955,123.313831 56.9955,123.8165 C56.9955,124.323503 57.065916,124.775248 57.20675,125.17175 C57.347584,125.568252 57.5404154,125.902999 57.78525,126.176 C58.0300846,126.449001 58.3160817,126.655916 58.64325,126.79675 C58.9704183,126.937584 59.3203315,127.008 59.693,127.008 C59.9140011,127.008 60.1144158,126.997167 60.29425,126.9755 C60.4740842,126.953833 60.6409159,126.917 60.79475,126.865 C60.9485841,126.813 61.0937493,126.745834 61.23025,126.6635 C61.3667507,126.581166 61.5043326,126.477167 61.643,126.3515 C61.6906669,126.3125 61.7404997,126.28 61.7925,126.254 C61.8445003,126.228 61.900833,126.215 61.9615,126.215 Z M75.186,119.104 L75.186,128.5355 L73.223,128.5355 L73.223,124.473 L69.0695,124.473 L69.0695,128.5355 L67.1065,128.5355 L67.1065,119.104 L69.0695,119.104 L69.0695,123.108 L73.223,123.108 L73.223,119.104 L75.186,119.104 Z M85.141,124.954 L84.1205,122.068 C84.059833,121.916333 83.995917,121.738668 83.92875,121.535 C83.861583,121.331332 83.797667,121.110335 83.737,120.872 C83.676333,121.114668 83.612417,121.338916 83.54525,121.54475 C83.478083,121.750584 83.414167,121.929333 83.3535,122.081 L82.3395,124.954 L85.141,124.954 Z M88.417,128.5355 L86.9025,128.5355 C86.7334992,128.5355 86.5959172,128.495417 86.48975,128.41525 C86.3835828,128.335083 86.3045003,128.232167 86.2525,128.1065 L85.6155,126.306 L81.8585,126.306 L81.2215,128.1065 C81.1781664,128.214834 81.1023339,128.313416 80.994,128.40225 C80.8856661,128.491084 80.7491675,128.5355 80.5845,128.5355 L79.057,128.5355 L82.7425,119.104 L84.738,119.104 L88.417,128.5355 Z M95.239,123.5695 C95.5553349,123.5695 95.8283322,123.529417 96.058,123.44925 C96.2876678,123.369083 96.4761659,123.258584 96.6235,123.11775 C96.7708341,122.976916 96.8791663,122.811168 96.9485,122.6205 C97.0178337,122.429832 97.0525,122.221834 97.0525,121.9965 C97.0525,121.550164 96.9040848,121.203501 96.60725,120.9565 C96.3104152,120.709499 95.8586697,120.586 95.252,120.586 L94.238,120.586 L94.238,123.5695 L95.239,123.5695 Z M99.8085,128.5355 L98.047,128.5355 C97.717665,128.5355 97.4793341,128.409835 97.332,128.1585 L95.538,125.266 C95.464333,125.153333 95.3830838,125.071 95.29425,125.019 C95.2054162,124.967 95.0743342,124.941 94.901,124.941 L94.238,124.941 L94.238,128.5355 L92.288,128.5355 L92.288,119.104 L95.252,119.104 C95.91067,119.104 96.4739977,119.172249 96.942,119.30875 C97.4100023,119.445251 97.7934985,119.634832 98.0925,119.8775 C98.3915015,120.120168 98.6103326,120.409415 98.749,120.74525 C98.8876674,121.081085 98.957,121.450498 98.957,121.8535 C98.957,122.165502 98.9125838,122.461249 98.82375,122.74075 C98.7349162,123.020251 98.6060008,123.274832 98.437,123.5045 C98.2679992,123.734168 98.0600012,123.937832 97.813,124.1155 C97.5659988,124.293168 97.2843349,124.436166 96.968,124.5445 C97.0936673,124.613834 97.2106661,124.69725 97.319,124.79475 C97.4273339,124.89225 97.5248329,125.008166 97.6115,125.1425 L99.8085,128.5355 Z M108.171,123.732 L111.408,123.732 L111.408,127.6255 C110.926998,127.976502 110.414586,128.233249 109.87075,128.39575 C109.326914,128.558251 108.75167,128.6395 108.145,128.6395 C107.369329,128.6395 106.667336,128.519251 106.039,128.27875 C105.410664,128.038249 104.873336,127.703502 104.427,127.2745 C103.980664,126.845498 103.636168,126.336336 103.3935,125.747 C103.150832,125.157664 103.0295,124.51417 103.0295,123.8165 C103.0295,123.110163 103.145416,122.462336 103.37725,121.873 C103.609084,121.283664 103.939498,120.776669 104.3685,120.352 C104.797502,119.927331 105.316414,119.595835 105.92525,119.3575 C106.534086,119.119165 107.215496,119 107.9695,119 C108.359502,119 108.723498,119.031416 109.0615,119.09425 C109.399502,119.157084 109.711499,119.243749 109.9975,119.35425 C110.283501,119.464751 110.545665,119.595833 110.784,119.7475 C111.022335,119.899167 111.238999,120.065999 111.434,120.248 L110.8685,121.119 C110.781833,121.257667 110.669167,121.342167 110.5305,121.3725 C110.391833,121.402833 110.240167,121.368167 110.0755,121.2685 C109.919499,121.173166 109.766751,121.087584 109.61725,121.01175 C109.467749,120.935916 109.308501,120.869834 109.1395,120.8135 C108.970499,120.757166 108.786334,120.713833 108.587,120.6835 C108.387666,120.653167 108.158001,120.638 107.898,120.638 C107.460331,120.638 107.063835,120.713833 106.7085,120.8655 C106.353165,121.017167 106.050918,121.231665 105.80175,121.509 C105.552582,121.786335 105.360834,122.119998 105.2265,122.51 C105.092166,122.900002 105.025,123.335498 105.025,123.8165 C105.025,124.336503 105.098666,124.801248 105.246,125.21075 C105.393334,125.620252 105.601332,125.965832 105.87,126.2475 C106.138668,126.529168 106.460415,126.743666 106.83525,126.891 C107.210085,127.038334 107.627164,127.112 108.0865,127.112 C108.398502,127.112 108.676915,127.080584 108.92175,127.01775 C109.166585,126.954916 109.405999,126.869334 109.64,126.761 L109.64,125.175 L108.574,125.175 C108.448333,125.175 108.34975,125.141417 108.27825,125.07425 C108.20675,125.007083 108.171,124.921501 108.171,124.8175 L108.171,123.732 Z M117.9635,120.6315 L117.9635,123.056 L121.1095,123.056 L121.1095,124.5315 L117.9635,124.5315 L117.9635,127.008 L122.0065,127.008 L122.0065,128.5355 L116.0005,128.5355 L116.0005,119.104 L122.0065,119.104 L122.0065,120.6315 L117.9635,120.6315 Z M136.8625,119.104 L136.8625,128.5355 L135.14,128.5355 L135.14,122.744 C135.14,122.622666 135.14325,122.492667 135.14975,122.354 C135.15625,122.215333 135.168167,122.074501 135.1855,121.9315 L132.488,127.047 C132.340666,127.328668 132.113168,127.4695 131.8055,127.4695 L131.5325,127.4695 C131.380833,127.4695 131.246501,127.43375 131.1295,127.36225 C131.012499,127.29075 130.919334,127.185667 130.85,127.047 L128.1395,121.912 C128.1525,122.063667 128.163333,122.209916 128.172,122.35075 C128.180667,122.491584 128.185,122.622666 128.185,122.744 L128.185,128.5355 L126.4625,128.5355 L126.4625,119.104 L127.9445,119.104 C128.026834,119.104 128.1005,119.106167 128.1655,119.1105 C128.2305,119.114833 128.287916,119.12675 128.33775,119.14625 C128.387584,119.16575 128.433083,119.196083 128.47425,119.23725 C128.515417,119.278417 128.5555,119.335833 128.5945,119.4095 L131.2335,124.4405 C131.315834,124.592167 131.39275,124.748166 131.46425,124.9085 C131.53575,125.068834 131.604,125.233499 131.669,125.4025 C131.734,125.229166 131.80225,125.060167 131.87375,124.8955 C131.94525,124.730833 132.022166,124.572667 132.1045,124.421 L134.724,119.4095 C134.763,119.335833 134.804166,119.278417 134.8475,119.23725 C134.890834,119.196083 134.937416,119.16575 134.98725,119.14625 C135.037084,119.12675 135.093416,119.114833 135.15625,119.1105 C135.219084,119.106167 135.293833,119.104 135.3805,119.104 L136.8625,119.104 Z M143.795,120.6315 L143.795,123.056 L146.941,123.056 L146.941,124.5315 L143.795,124.5315 L143.795,127.008 L147.838,127.008 L147.838,128.5355 L141.832,128.5355 L141.832,119.104 L147.838,119.104 L147.838,120.6315 L143.795,120.6315 Z M160.3735,119.104 L160.3735,128.5355 L159.366,128.5355 C159.214333,128.5355 159.086501,128.510584 158.9825,128.46075 C158.878499,128.410916 158.776667,128.325334 158.677,128.204 L153.9775,122.224 C153.9905,122.375667 154.00025,122.525166 154.00675,122.6725 C154.01325,122.819834 154.0165,122.956333 154.0165,123.082 L154.0165,128.5355 L152.294,128.5355 L152.294,119.104 L153.321,119.104 C153.403334,119.104 153.47375,119.10725 153.53225,119.11375 C153.59075,119.12025 153.643833,119.135417 153.6915,119.15925 C153.739167,119.183083 153.784666,119.2145 153.828,119.2535 C153.871334,119.2925 153.919,119.3445 153.971,119.4095 L158.703,125.4155 C158.685667,125.250833 158.672667,125.091584 158.664,124.93775 C158.655333,124.783916 158.651,124.637667 158.651,124.499 L158.651,119.104 L160.3735,119.104 Z M172.025,120.677 L169.269,120.677 L169.269,128.5355 L167.3125,128.5355 L167.3125,120.677 L164.5565,120.677 L164.5565,119.104 L172.025,119.104 L172.025,120.677 Z M174.8625,127.593 C174.8625,127.449999 174.889583,127.314584 174.94375,127.18675 C174.997917,127.058916 175.072666,126.948417 175.168,126.85525 C175.263334,126.762083 175.374916,126.688417 175.50275,126.63425 C175.630584,126.580083 175.770333,126.553 175.922,126.553 C176.069334,126.553 176.207999,126.580083 176.338,126.63425 C176.468001,126.688417 176.580666,126.762083 176.676,126.85525 C176.771334,126.948417 176.846083,127.058916 176.90025,127.18675 C176.954417,127.314584 176.9815,127.449999 176.9815,127.593 C176.9815,127.740334 176.954417,127.876833 176.90025,128.0025 C176.846083,128.128167 176.771334,128.237583 176.676,128.33075 C176.580666,128.423917 176.468001,128.4965 176.338,128.5485 C176.207999,128.6005 176.069334,128.6265 175.922,128.6265 C175.770333,128.6265 175.630584,128.6005 175.50275,128.5485 C175.374916,128.4965 175.263334,128.423917 175.168,128.33075 C175.072666,128.237583 174.997917,128.128167 174.94375,128.0025 C174.889583,127.876833 174.8625,127.740334 174.8625,127.593 Z M180.9565,127.593 C180.9565,127.449999 180.983583,127.314584 181.03775,127.18675 C181.091917,127.058916 181.166666,126.948417 181.262,126.85525 C181.357334,126.762083 181.468916,126.688417 181.59675,126.63425 C181.724584,126.580083 181.864333,126.553 182.016,126.553 C182.163334,126.553 182.301999,126.580083 182.432,126.63425 C182.562001,126.688417 182.674666,126.762083 182.77,126.85525 C182.865334,126.948417 182.940083,127.058916 182.99425,127.18675 C183.048417,127.314584 183.0755,127.449999 183.0755,127.593 C183.0755,127.740334 183.048417,127.876833 182.99425,128.0025 C182.940083,128.128167 182.865334,128.237583 182.77,128.33075 C182.674666,128.423917 182.562001,128.4965 182.432,128.5485 C182.301999,128.6005 182.163334,128.6265 182.016,128.6265 C181.864333,128.6265 181.724584,128.6005 181.59675,128.5485 C181.468916,128.4965 181.357334,128.423917 181.262,128.33075 C181.166666,128.237583 181.091917,128.128167 181.03775,128.0025 C180.983583,127.876833 180.9565,127.740334 180.9565,127.593 Z M187.0505,127.593 C187.0505,127.449999 187.077583,127.314584 187.13175,127.18675 C187.185917,127.058916 187.260666,126.948417 187.356,126.85525 C187.451334,126.762083 187.562916,126.688417 187.69075,126.63425 C187.818584,126.580083 187.958333,126.553 188.11,126.553 C188.257334,126.553 188.395999,126.580083 188.526,126.63425 C188.656001,126.688417 188.768666,126.762083 188.864,126.85525 C188.959334,126.948417 189.034083,127.058916 189.08825,127.18675 C189.142417,127.314584 189.1695,127.449999 189.1695,127.593 C189.1695,127.740334 189.142417,127.876833 189.08825,128.0025 C189.034083,128.128167 188.959334,128.237583 188.864,128.33075 C188.768666,128.423917 188.656001,128.4965 188.526,128.5485 C188.395999,128.6005 188.257334,128.6265 188.11,128.6265 C187.958333,128.6265 187.818584,128.6005 187.69075,128.5485 C187.562916,128.4965 187.451334,128.423917 187.356,128.33075 C187.260666,128.237583 187.185917,128.128167 187.13175,128.0025 C187.077583,127.876833 187.0505,127.740334 187.0505,127.593 Z" id="chargement..." fill="#FFFFFF"></path>
        </g>
    </g>
</svg>