<svg width="36" height="35" viewBox="0 0 36 35" fill="none" xmlns="http://www.w3.org/2000/svg">
<rect x="0.5" width="35" height="35" rx="17.5" fill="#F4ECFF"/>
<path d="M25.9894 7.65381H18.0069C17.7429 7.65381 17.4814 7.70583 17.2374 7.8069C16.9934 7.90797 16.7718 8.05611 16.5851 8.24286C16.3984 8.42961 16.2503 8.65131 16.1493 8.8953C16.0483 9.13929 15.9963 9.40079 15.9964 9.66486V23.3225H12.0219V17.4934C12.026 17.2267 11.9771 16.9618 11.8779 16.7142C11.7787 16.4666 11.6312 16.2413 11.4441 16.0512C11.257 15.8611 11.0339 15.7102 10.7879 15.6072C10.5418 15.5041 10.2778 15.4511 10.0111 15.4511C9.74433 15.4511 9.48027 15.5041 9.23424 15.6072C8.98822 15.7102 8.76515 15.8611 8.57802 16.0512C8.39088 16.2413 8.24343 16.4666 8.14424 16.7142C8.04505 16.9618 7.9961 17.2267 8.00024 17.4934V25.3355C8.00024 25.5996 8.05226 25.8611 8.15333 26.105C8.25441 26.349 8.40255 26.5707 8.5893 26.7574C8.77605 26.9441 8.99775 27.0922 9.24173 27.1932C9.48572 27.2942 9.74722 27.3461 10.0113 27.3461H18.0069C18.2711 27.3462 18.5326 27.2943 18.7767 27.1933C19.0208 27.0923 19.2426 26.9443 19.4294 26.7576C19.6162 26.5709 19.7645 26.3492 19.8656 26.1052C19.9668 25.8612 20.0189 25.5996 20.0189 25.3355V11.6754H23.9784V17.4914C23.9866 18.0193 24.202 18.5228 24.5783 18.8932C24.9545 19.2636 25.4612 19.4712 25.9892 19.4712C26.5171 19.4712 27.0239 19.2636 27.4001 18.8932C27.7763 18.5228 27.9918 18.0193 28 17.4914V9.66486C28.0001 9.40079 27.9481 9.13929 27.8471 8.8953C27.7461 8.65131 27.598 8.42961 27.4113 8.24286C27.2246 8.05611 27.0029 7.90797 26.759 7.8069C26.515 7.70583 26.2535 7.65381 25.9894 7.65381Z" fill="#B39FCC"/>
<path d="M25.9894 7.65381H18.0069C17.7429 7.65381 17.4814 7.70583 17.2374 7.8069C16.9934 7.90797 16.7718 8.05611 16.5851 8.24286C16.3984 8.42961 16.2503 8.65131 16.1493 8.8953C16.0483 9.13929 15.9963 9.40079 15.9964 9.66486V23.3225H12.0219V17.4934C12.026 17.2267 11.9771 16.9618 11.8779 16.7142C11.7787 16.4666 11.6312 16.2413 11.4441 16.0512C11.257 15.8611 11.0339 15.7102 10.7879 15.6072C10.5418 15.5041 10.2778 15.4511 10.0111 15.4511C9.74433 15.4511 9.48027 15.5041 9.23424 15.6072C8.98822 15.7102 8.76515 15.8611 8.57802 16.0512C8.39088 16.2413 8.24343 16.4666 8.14424 16.7142C8.04505 16.9618 7.9961 17.2267 8.00024 17.4934V25.3355C8.00024 25.5996 8.05226 25.8611 8.15333 26.105C8.25441 26.349 8.40255 26.5707 8.5893 26.7574C8.77605 26.9441 8.99775 27.0922 9.24173 27.1932C9.48572 27.2942 9.74722 27.3461 10.0113 27.3461H18.0069C18.2711 27.3462 18.5326 27.2943 18.7767 27.1933C19.0208 27.0923 19.2426 26.9443 19.4294 26.7576C19.6162 26.5709 19.7645 26.3492 19.8656 26.1052C19.9668 25.8612 20.0189 25.5996 20.0189 25.3355V11.6754H23.9784V17.4914C23.9866 18.0193 24.202 18.5228 24.5783 18.8932C24.9545 19.2636 25.4612 19.4712 25.9892 19.4712C26.5171 19.4712 27.0239 19.2636 27.4001 18.8932C27.7763 18.5228 27.9918 18.0193 28 17.4914V9.66486C28.0001 9.40079 27.9481 9.13929 27.8471 8.8953C27.7461 8.65131 27.598 8.42961 27.4113 8.24286C27.2246 8.05611 27.0029 7.90797 26.759 7.8069C26.515 7.70583 26.2535 7.65381 25.9894 7.65381Z" fill="#B39FCC"/>
<path d="M18.0079 27.3291C19.11 27.3291 20.0034 26.4357 20.0034 25.3336C20.0034 24.2316 19.11 23.3381 18.0079 23.3381C16.9058 23.3381 16.0124 24.2316 16.0124 25.3336C16.0124 26.4357 16.9058 27.3291 18.0079 27.3291Z" fill="#010101"/>
<path d="M25.9894 19.4869C27.0915 19.4869 27.9849 18.5934 27.9849 17.4914C27.9849 16.3893 27.0915 15.4958 25.9894 15.4958C24.8873 15.4958 23.9939 16.3893 23.9939 17.4914C23.9939 18.5934 24.8873 19.4869 25.9894 19.4869Z" fill="#010101"/>
<path d="M10.0113 19.4869C11.1134 19.4869 12.0068 18.5934 12.0068 17.4914C12.0068 16.3893 11.1134 15.4958 10.0113 15.4958C8.90923 15.4958 8.01581 16.3893 8.01581 17.4914C8.01581 18.5934 8.90923 19.4869 10.0113 19.4869Z" fill="#010101"/>
<path d="M10.0113 27.3291C11.1134 27.3291 12.0068 26.4357 12.0068 25.3336C12.0068 24.2316 11.1134 23.3381 10.0113 23.3381C8.90923 23.3381 8.01581 24.2316 8.01581 25.3336C8.01581 26.4357 8.90923 27.3291 10.0113 27.3291Z" fill="#010101"/>
<path d="M25.9894 11.6604C27.0915 11.6604 27.9849 10.767 27.9849 9.66494C27.9849 8.56285 27.0915 7.66943 25.9894 7.66943C24.8873 7.66943 23.9939 8.56285 23.9939 9.66494C23.9939 10.767 24.8873 11.6604 25.9894 11.6604Z" fill="#010101"/>
<path d="M18.0079 11.6604C19.11 11.6604 20.0034 10.767 20.0034 9.66494C20.0034 8.56285 19.11 7.66943 18.0079 7.66943C16.9058 7.66943 16.0124 8.56285 16.0124 9.66494C16.0124 10.767 16.9058 11.6604 18.0079 11.6604Z" fill="#010101"/>
<path d="M18.0079 19.4869C19.11 19.4869 20.0034 18.5934 20.0034 17.4914C20.0034 16.3893 19.11 15.4958 18.0079 15.4958C16.9058 15.4958 16.0124 16.3893 16.0124 17.4914C16.0124 18.5934 16.9058 19.4869 18.0079 19.4869Z" fill="#010101"/>
</svg>
