<svg xmlns="http://www.w3.org/2000/svg" width="40" height="40" viewBox="0 0 40 40">
    <g fill="none" fill-rule="evenodd">
        <path fill="#E37AA6" d="M0 20C0 8.954 8.954 0 20 0s20 8.954 20 20-8.954 20-20 20S0 31.046 0 20"/>
        <path fill="#D66B98" d="M23.337 7.966L21.606 9.44l3.194 3.189-1.989 1.605 4.549 4.555.04.822 10.091 10.086a19.852 19.852 0 0 0 2.069-5.508L23.337 7.966M23.429 39.703a20.03 20.03 0 0 0 13.691-9.354L23.789 17.017l-2.669.074-5.194-5.194-3.675 2.977 5.709 5.715-7.377 6.268 12.846 12.846"/>
        <path fill="#DA3737" d="M25.149 22.531c.714-4.337-1.835-6.731-3.972-6.685-4.108.097-4.863 3.725-4.863 3.725s-2.983-2.485-6.285-.045C6.84 21.886 8.72 29.72 20.28 30.754l4.869-8.223"/>
        <path fill="#FFF" d="M30.577 24.806c-2.388-2.28-4.874-.646-4.874-.646s-.28-3.109-3.549-3.6c-3.268-.486-5.805 5.029-.708 12.297 8.388-.6 11.525-5.771 9.131-8.051M15.846 15.926c1.325-2.72.285-4.635-.857-4.297-1.143.331-1.086 1.4-1.086 1.4s-1.017-.475-1.76.457c-.743.925.514 2.714 3.703 2.44"/>
        <path fill="#DA3737" d="M29 20.617c1.651-1.366 1.543-2.903.709-3.023-.835-.12-1.109.583-1.109.583s-.514-.6-1.269-.223c-.748.383-.462 1.903 1.669 2.663M23.337 7.966c-.434-.429-.903-.137-.903-.137s-.045-.578-.651-.68c-.606-.103-1.097.92-.177 2.291 1.565-.086 2.171-1.04 1.731-1.474"/>
        <path fill="#FFF" d="M22.606 12.703c-.612.286-.423 1.508 1.257 2.171 1.36-1.04 1.314-2.274.651-2.394-.663-.12-.903.44-.903.44s-.394-.497-1.005-.217"/>
    </g>
</svg>
