<svg xmlns="http://www.w3.org/2000/svg" width="40" height="40" viewBox="0 0 40 40">
    <g fill="none" fill-rule="evenodd">
        <path fill="#772B27" d="M0 20C0 8.954 8.954 0 20 0c11.045 0 20 8.954 20 20s-8.955 20-20 20C8.954 40 0 31.046 0 20"/>
        <path fill="#C5C4BF" d="M30.56 11.559a1.496 1.496 0 0 1-2.12 0 1.496 1.496 0 0 1 0-2.118 1.496 1.496 0 0 1 2.12 0c.586.582.586 1.53 0 2.118zm1.34-3.463a3.762 3.762 0 0 0-5.31 0L7 27.69 12.31 33 31.9 13.406a3.754 3.754 0 0 0 0-5.31z"/>
        <path fill="#FFFFFE" d="M26.67 8.127L7 28.267 9.666 31l19.4-19.868a1.506 1.506 0 0 1 0-2.096 1.423 1.423 0 0 1 2.052 0L32 8.127a3.715 3.715 0 0 0-5.33 0"/>
        <path fill="#393A37" d="M8 26.35l.348-.35L10 27.65l-.348.35L8 26.35M9 24.517L9.513 24 11 25.49l-.513.51L9 24.517M11 24.35l.347-.35L13 25.655l-.347.345L11 24.35M13 22.51l.257-.51.743 1.483-.257.517L13 22.51M14 20.517l.348-.517L16 22.475l-.348.525L14 20.517M16 19.258l.256-.258.744.742-.257.258-.743-.742M16 17.525l.522-.525L19 19.483l-.522.517L16 17.525M18 16.258l.513-.258 1.487.745-.513.255L18 16.258M20 15.345l.348-.345L22 16.65l-.348.35L20 15.345M21 13.51l.513-.51L23 14.483l-.514.517L21 13.51M23 12.345l.348-.345L25 13.65l-.348.35L23 12.345M24 10.517l.513-.517L26 11.49l-.513.51L24 10.517"/>
    </g>
</svg>
