<svg xmlns="http://www.w3.org/2000/svg" xmlns:xlink="http://www.w3.org/1999/xlink" width="40" height="40" viewBox="0 0 40 40">
    <defs>
        <path id="a" d="M.405.341h10.597V16.24H.405z"/>
        <path id="c" d="M.128.042h3.736v2.983H.128z"/>
        <path id="e" d="M.228.43h3.727v2.068H.228z"/>
    </defs>
    <g fill="none" fill-rule="evenodd">
        <path fill="#8F5D93" d="M40 20c0 11.046-8.954 20-20 20C8.955 40 0 31.046 0 20S8.955 0 20 0c11.046 0 20 8.954 20 20"/>
        <path fill="#CC4040" d="M9.23 21.01s2.823-5.153 6.421-6.953c0 0 1.563-.504 2.446.101l7.01 5.027s1.743 2.17-.476 5.39c0 0-1.291 2.162-3.523 4.937l-.569-.43s-.103-2.49-.963-4.8l-4.556-3.615s-1.716-1.315-5.183.828l-.608-.484z"/>
        <path fill="#E53838" d="M19.664 24.53c.11-.157.22-.314.328-.472.489-.722.932-1.473 1.45-2.176.854-1.157 1.831-2.244 2.587-3.47l-5.932-4.254c-.883-.605-2.445-.101-2.445-.101-3.6 1.8-6.423 6.954-6.423 6.954l.608.485c3.467-2.144 5.183-.83 5.183-.83l4.556 3.616c.03.083.06.165.088.248"/>
        <path fill="#932222" d="M25.107 19.185l-.461-.313-.613.84c.82.646 1.18 2.192.535 3.482-.673 1.345-2.517 3.83-3.036 4.585-.194.28-.993 1.302-.993 1.302l.569.431c2.231-2.775 3.523-4.937 3.523-4.937 2.22-3.221.476-5.39.476-5.39"/>
        <path fill="#ADADAD" d="M26.137 13.356a1.82 1.82 0 0 1-2.523.396 1.775 1.775 0 0 1-.415-2.493 1.82 1.82 0 0 1 2.523-.396c.811.579.998 1.695.415 2.493zM24.214 8.59c-.692.358-2.76 1.466-5.668 5.472 0 0-2.259 3.223-4.06 6.152 0 0-.086.401.148.722l5.059 3.463s.364.26.696-.111c0 0 7.361-8.406 8.006-12.674L24.214 8.59z"/>
        <g transform="translate(14.066 8.248)">
            <mask id="b" fill="#fff">
                <use xlink:href="#a"/>
            </mask>
            <path fill="#F2F2F2" d="M3.618 13.257c-.829-.606-1.185-1.06-1.018-1.638.158-.556.975-2.338 1.428-3.056 1.9-3.01 6.183-6.96 6.974-7.581l-.854-.64C9.456.7 7.388 1.807 4.48 5.812c0 0-2.258 3.223-4.06 6.153 0 0-.085.401.148.722l5.059 3.462s.364.26.696-.11c0 0 .154-.177.42-.49-.885-.698-2.21-1.622-3.125-2.293" mask="url(#b)"/>
        </g>
        <path fill="#4E5560" d="M23.592 11.54a1.817 1.817 0 0 1 2.307-.529 1.819 1.819 0 0 0-2.717.236 1.775 1.775 0 0 0 .63 2.625 1.77 1.77 0 0 1-.22-2.333"/>
        <path fill="#0F2947" d="M19.593 27.064l-7.55-5.326 2.395-1.514 5.939 4.207z"/>
        <path fill="#061728" d="M17.77 22.594a.772.772 0 0 1-.073.301c-.218.49.963 2.272.585 2.629-.126.12-.33.104-.466.015-.927-.611-4.643-3.355-5.606-3.907l-.167.105 7.55 5.327.784-2.633-2.608-1.837z"/>
        <path fill="#CC4040" d="M28.862 7.091s.037-.513-.341-.423c0 0-2.658.903-4.334 1.918l-.02.011 4.228 3.017s.366-2.283.467-4.523"/>
        <g transform="translate(24.615 6.944)">
            <mask id="d" fill="#fff">
                <use xlink:href="#c"/>
            </mask>
            <path fill="#F2F2F2" d="M3.864.068A.231.231 0 0 0 3.688.05S1.657.753.146 1.67l-.018.01L1.87 3.025C1.744 2.245 3.087.852 3.864.068" mask="url(#d)"/>
        </g>
        <path fill="#0F2947" d="M24.755 13.644a1.391 1.391 0 0 1-1.598-1.14 1.379 1.379 0 0 1 1.153-1.58 1.391 1.391 0 0 1 1.597 1.14 1.38 1.38 0 0 1-1.152 1.58m-.558-3.409a2.078 2.078 0 0 0-1.736 2.38 2.095 2.095 0 0 0 2.406 1.717 2.078 2.078 0 0 0 1.736-2.38 2.096 2.096 0 0 0-2.406-1.717"/>
        <g transform="translate(22.418 9.987)">
            <mask id="f" fill="#fff">
                <use xlink:href="#e"/>
            </mask>
            <path fill="#E2E2E2" d="M.515 2.476a20.885 20.885 0 0 0 3.44-.588A1.886 1.886 0 0 0 1.813.455 1.87 1.87 0 0 0 .24 2.498c.094-.006.186-.014.276-.022" mask="url(#f)"/>
        </g>
        <path fill="#932222" d="M28.788 7.15l-.56 4.142-.67-.6z"/>
        <path fill="#FFD652" d="M12.355 21.9s-1.825-.238-3.254 1.722c0 0 1.098-.706 2.5-.436 0 0-2.344.517-2.526 3.337 0 0 1.74-1.374 2.88-1.168 0 0-2.498 1.318-1.05 5.361 0 0 4.294 1.362 6.904-2.766 0 0 .956.166 1.071 2.832 0 0 1.42-1.146.627-3.81L12.355 21.9z"/>
        <path fill="#FFA92C" d="M12.788 22.148s-1.333-.069-1.765.565c0 0 1.2-.086 1.795.49 0 0-1.746.244-1.816 1.563 0 0 .82-.45 1.728-.136 0 0-1.292 1.055-.917 2.69.375 1.637.414 2.09.414 2.09s3.112.032 4.463-1.315 1.116-1.91 1.116-1.91.817.187.988.796c0 0 .428.214.297-.366l-6.303-4.467z"/>
        <path fill="#CC4040" d="M14.213 27.36l-.633-.45 7.718-10.623.632.451z"/>
    </g>
</svg>
