<svg xmlns="http://www.w3.org/2000/svg" xmlns:xlink="http://www.w3.org/1999/xlink" width="40" height="40" viewBox="0 0 40 40">
    <defs>
        <path id="a" d="M.582 24.796C-2.052 14.076 4.506 3.237 15.23.588 25.955-2.06 36.784 4.483 39.418 15.204c2.634 10.72-3.924 21.559-14.648 24.208C14.045 42.06 3.216 35.517.582 24.796"/>
        <path id="b" d="M10.233 11.005H40v26.511H10.233z"/>
    </defs>
    <g fill="none" fill-rule="evenodd">
        <use fill="#40AE66" xlink:href="#a"/>
        <mask id="c" fill="#fff">
            <use xlink:href="#b"/>
        </mask>
        <path fill="#03A357" d="M23.545 11.005l-1.334 7.12-11.918 10.857s13.694 7.122 18.411 8.633c.258.012 11.296-3.31 11.296-18.35-4.348-2.515-16.455-8.26-16.455-8.26z" mask="url(#c)"/>
        <path fill="#C59759" d="M16.647 18.556s3.052-.933 4.522-4.114c0 0 .376-.968.537-2.246 0 0-.022-.864.409-1.13 0 0 1.057-.53 2.02.305 0 0 .747.764.758 1.854 0 0 .112 1.097-.172 2.108 0 0-.317 1.295-.868 2.147l1.992.017h1.41s1.49-.116 1.739 1.057c0 0 .326 1.422-.448 2.053l.071.061s1.143.247 1.014 1.273c0 0 .171 1.24-1.313 1.355l-.005.011s.934.173.762 1.542c0 0-.214 1.154-1.194 1.11l-.005-.012s.29.338.265 1.057c0 0 .017 1.35-1.394 1.61l-2.83-.062-2.52.008s-1.095.048-2-.34c0 0-2.165-1.097-2.709-1.113l-.157-.024.116-8.527z" mask="url(#c)"/>
        <path fill="#EFB470" d="M17.39 19.178s2.686-.78 4.001-3.656c0 0 .545-.82.808-3.295 0 0 .023-.34.42-.462 0 0 .407-.074.838.419 0 0 .705.722.613 1.965 0 0-.028 1.07-.282 1.985 0 0-.28.985-.774 1.756v.55l4.734.015s1.013-.746.958 1.026c0 0-.036.952-.951.974l-1.529.007v.785l1.613.007s1.6-.856 1.536.943c0 0 .056.707-.846.879l-2.317-.007-.007.806 1.758-.48s1.369.128.898 1.497c0 0-.213.855-1.445.833l-1.81-.007v.843h1.508s.624-.946.62.735c0 0-.022.772-.938.943l-2.901-.021-2.255.007s-.979.043-1.789-.308c0 0-1.937-.992-2.423-1.006l-.14-.022.102-7.71z" mask="url(#c)"/>
        <path fill="#EFB470" d="M24.202 15.623c.253-.902.281-1.958.281-1.958.092-1.226-.612-1.937-.612-1.937-.432-.487-1.053-.423-1.053-.423-.055.016-.1.074-.14.098.138.056.516.133.686.325 0 0 .704.711.612 1.937 0 0-.027 1.056-.281 1.958 0 0-.282.972-.775 1.733v.542l.509.002-.002-.544c.493-.761.775-1.733.775-1.733" mask="url(#c)"/>
        <path fill="#FDCC8C" d="M17.306 18.626s2.686-.77 4.001-3.606c0 0 .544-.808.808-3.25 0 0 .022-.336.42-.456 0 0 .406-.073.838.413 0 0 .704.712.613 1.938 0 0-.028 1.056-.282 1.958 0 0-.281.972-.775 1.733v.542l4.734.014s1.014.134.937 1.057c0 0-.014.894-.93.916l-1.528.007v.775l1.613.007s1.492.027 1.449.967c0 0 .056.698-.846.867l-2.23-.045-.008.796 1.261.007s1.465.003 1.395.856c0 0 .081.779-.898.94l-2.356.014v.831h1.507s.641.085.62.726c0 0-.021.76-.937.93l-2.902-.022-2.254.007s-.98.043-1.79-.302c0 0-1.937-.98-2.422-.994l-.141-.02.103-7.606z" mask="url(#c)"/>
        <path fill="#FFF" d="M11.647 28.37h5.733V17.76h-5.733z" mask="url(#c)"/>
        <path fill="#383F42" d="M10.345 29.087h5.734V17.244h-5.734z" mask="url(#c)"/>
        <path fill="#595A5B" d="M10.858 24.297h4.708v-6.455h-4.708z" mask="url(#c)"/>
        <path fill="#E6E7E8" d="M21.73 13.377s.118-.876.159-1.805c.002-.064.11-.322.29-.343.47-.056 1.129.002 1.22.46 0 0 .294 1.46.085 1.7a.59.59 0 0 1-.395.17c-1.465.043-1.358-.182-1.358-.182" mask="url(#c)"/>
        <path fill="#895E2F" d="M14.514 26.455c.226 0 .426.102.555.261l.413-.36a1.277 1.277 0 0 0-.968-.438c-.388 0-.736.17-.967.438l.413.36c.129-.159.329-.261.554-.261" mask="url(#c)"/>
        <path fill="#FFDA64" d="M13.809 27.137c0-.159.057-.305.15-.42l-.412-.361a1.186 1.186 0 0 0 .066 1.632l.413-.36a.667.667 0 0 1-.217-.491M15.482 26.356l-.413.36a.665.665 0 0 1-.066.912l.413.36a1.19 1.19 0 0 0 .066-1.633" mask="url(#c)"/>
        <path fill="#895E2F" d="M14.514 27.818a.714.714 0 0 1-.488-.19l-.413.36c.229.227.548.368.901.368.354 0 .673-.141.902-.368l-.413-.36a.715.715 0 0 1-.489.19" mask="url(#c)"/>
        <path fill="#EDC649" d="M14.026 27.628a.718.718 0 0 0 .977 0l-.489-.427-.488.427z" mask="url(#c)"/>
        <path fill="#B59230" d="M13.96 26.716a.662.662 0 0 0 .066.912l.489-.427-.555-.485z" mask="url(#c)"/>
        <path fill="#EDC649" d="M14.514 26.455a.712.712 0 0 0-.554.261l.554.485.555-.485a.712.712 0 0 0-.555-.261" mask="url(#c)"/>
        <path fill="#B59230" d="M15.003 27.628a.666.666 0 0 0 .066-.911l-.555.484.49.427z" mask="url(#c)"/>
    </g>
</svg>
