<svg xmlns="http://www.w3.org/2000/svg" xmlns:xlink="http://www.w3.org/1999/xlink" width="40" height="40" viewBox="0 0 40 40">
    <defs>
        <path id="a" d="M.164.42H7.93v8.813H.164z"/>
        <path id="c" d="M.124.42h1.99v9.304H.124z"/>
        <path id="e" d="M.311.095h1.4V9.41H.31z"/>
        <path id="g" d="M.123.422h1.471v1.212H.124z"/>
    </defs>
    <g fill="none" fill-rule="evenodd">
        <path fill="#E8EDEA" d="M40 20c0 11.046-8.955 20-20 20C8.954 40 0 31.046 0 20S8.954 0 20 0c11.045 0 20 8.954 20 20"/>
        <path fill="#191E1E" d="M20.803 34.02l.03-.59c2.667-.152 4.636-.732 5.854-1.722.978-.796 1.253-1.666 1.435-2.24l.034-.108c.276-.857.28-3.63.26-4.627l.631-.013c.004.15.074 3.701-.29 4.833l-.033.104c-.38 1.206-1.124 4.193-7.921 4.363"/>
        <g transform="translate(20.889 24.543)">
            <mask id="b" fill="#fff">
                <use xlink:href="#a"/>
            </mask>
            <path fill="#33373A" d="M.17 9.11c2.61-.173 4.553-.766 5.778-1.762 1.033-.84 1.32-1.75 1.51-2.353l.035-.107c.292-.907.284-3.642.274-4.466L7.925.42c.02 1.328-.017 3.695-.283 4.518l-.065.209c-.197.632-.495 1.587-1.535 2.428C4.8 8.578 2.824 9.136.164 9.233L.17 9.11z" mask="url(#b)"/>
        </g>
        <path fill="#191E1E" d="M10.968 15.347l.41 6.357-.298.148-.6-7.353zM28.415 14.977l-.468 6.242.304.135.482-6.222z"/>
        <path fill="#53585B" d="M10.432 15.764l-.137-.501s.17-4.7 4.056-6.994c0 0 2.318-1.485 5.815-1.277 0 0 3.502-.246 6.224 2.267 0 0 1.195 1.018 1.982 2.94 0 0 .492 1.119.668 2.583l-.105.58-.882-2.248L26.69 11l-2.474-1.872-2.801-.633-4.11-.02-2.038.818-1.785.99-1.533 1.865-.45.993-.387 1.167-.68 1.457z"/>
        <path fill="#891D1D" d="M27.166 22.397s.211.478.657-1.468l.583.305s-.12 1.836-.597 4.273c0 0-.717 1.116-1.196.778l.553-3.888z"/>
        <path fill="#C9503D" d="M25.452 27.904c-.036.292 1.172-.388 1.208-.68l.685-5.57c.035-.292-.994-1.056-1.03-.765l-.863 7.015z"/>
        <path fill="#F97769" d="M25.702 23.967c-.01.088 1.127-.024 1.138-.113l.209-1.697c.01-.089-1.073-.416-1.083-.328l-.264 2.138z"/>
        <path stroke="#FFF" stroke-width=".5" d="M24.79 20.166l.052-.002a1.823 1.823 0 0 0-.13.015.303.303 0 0 1 .078-.013z"/>
        <path fill="#191E1E" d="M24.348 19.415a1.447 1.447 0 0 1 .196.01l.728.09c.454.276 1.375.836 1.275 1.647l-.82 6.68c-.209.704-1.22 1.137-1.637 1.289l-.729-.09a1.51 1.51 0 0 1-.185-.035.29.29 0 0 1-.187-.307l1.111-9.033a.29.29 0 0 1 .248-.251"/>
        <g transform="translate(23.111 19.21)">
            <mask id="d" fill="#fff">
                <use xlink:href="#c"/>
            </mask>
            <path fill="#33373A" d="M1.391.422a.88.88 0 0 1 .154.006l.569.07L.979 9.724l-.57-.07-.069-.012a.824.824 0 0 1-.074-.018c-.096-.042-.156-.16-.14-.29L1.192.667c.015-.127.1-.225.2-.245" mask="url(#d)"/>
        </g>
        <path fill="#33373A" d="M23.108 28.208a1.062 1.062 0 0 1-2.107-.259l.988-8.036a1.062 1.062 0 1 1 2.108.26l-.989 8.035z"/>
        <path fill="#4C4F51" d="M23.065 19.221c-.496-.061-.808.235-.878.805l-.967 7.862c-.07.57.16.932.657.993l1.188-9.66z"/>
        <path fill="#891D1D" d="M11.974 21.894s-.242.463-.559-1.508l-.602.265s-.002 1.84.314 4.304c0 0 .64 1.16 1.142.856l-.295-3.917z"/>
        <path fill="#C9503D" d="M13.32 27.503c.016.292-1.144-.466-1.16-.76l-.315-5.603c-.017-.293 1.061-.987 1.078-.694l.397 7.057z"/>
        <path fill="#F97769" d="M13.33 23.557c.005.09-1.122-.098-1.127-.187l-.096-1.708c-.005-.09 1.098-.344 1.103-.255l.12 2.15z"/>
        <path stroke="#FFF" stroke-width=".5" d="M14.492 19.825l-.052-.005c.044.006.087.014.13.023a.29.29 0 0 0-.078-.018z"/>
        <path fill="#191E1E" d="M14.983 19.105a1.424 1.424 0 0 0-.13-.005l-.066.002-.733.042c-.47.245-1.427.743-1.381 1.56l.377 6.718c.162.717 1.142 1.216 1.549 1.395l.732-.041a1.478 1.478 0 0 0 .186-.023.292.292 0 0 0 .208-.294l-.511-9.087a.291.291 0 0 0-.23-.267"/>
        <g transform="translate(13.778 19.21)">
            <mask id="f" fill="#fff">
                <use xlink:href="#e"/>
            </mask>
            <path fill="#33373A" d="M1.037.1A.978.978 0 0 0 .935.096L.883.096.311.128.833 9.41l.572-.032a.905.905 0 0 0 .146-.02c.098-.036.166-.15.159-.28L1.22.36C1.213.23 1.136.128 1.037.1" mask="url(#f)"/>
        </g>
        <path fill="#33373A" d="M15.638 27.96a1.062 1.062 0 0 0 2.12-.118l-.454-8.084a1.061 1.061 0 1 0-2.12.12l.454 8.083z"/>
        <path fill="#4C4F51" d="M16.276 18.996c.5-.028.79.288.823.861l.445 7.909c.032.573-.222.92-.722.948l-.546-9.718z"/>
        <path fill="#191E1E" d="M28.935 15.362l-.622-.257s-.382-2.223-1.985-3.864c0 0-1.441-1.585-3.96-2.019 0 0-2.299-.496-4.93-.018 0 0-1.743.197-3.741 1.544 0 0-1.044.652-1.919 2.372 0 0-.482.594-.676 1.925l-.028.797-.642-.078s.073-2.802 2.47-5.507c0 0 2.247-2.612 6.32-2.562 0 0 4.993-.454 7.42 2.629 0 0 2.068 1.892 2.293 5.038M29.632 24.954l-1.78.145.32-2.11 1.623.628z"/>
        <g transform="translate(28 22.765)">
            <mask id="h" fill="#fff">
                <use xlink:href="#g"/>
            </mask>
            <path fill="#33373A" d="M1.568 1.614l-1.445.02L.307.422l1.287.542z" mask="url(#h)"/>
        </g>
        <path fill="#191E1E" d="M21.463 33.72c-.028.84-1.835 1.288-2.769 1.257-.934-.03-1.668-.736-1.64-1.575.028-.838.807-1.493 1.74-1.462.935.03 2.696.942 2.669 1.78"/>
        <path fill="#33373A" d="M20.014 32.826c.003.334-1.003.582-1.337.585a.604.604 0 1 1-.013-1.208c.334-.003 1.346.29 1.35.623"/>
    </g>
</svg>
