<svg xmlns="http://www.w3.org/2000/svg" xmlns:xlink="http://www.w3.org/1999/xlink" width="40" height="40" viewBox="0 0 40 40">
    <defs>
        <path id="a" d="M.366.028h1.68v1.996H.365z"/>
        <path id="c" d="M.15.284h.894V1.3H.151z"/>
        <path id="e" d="M.224.34h1.54v4.105H.224z"/>
        <path id="g" d="M.166.058H5.51v8.248H.166z"/>
        <path id="i" d="M.389.399h3.233v2.805H.39z"/>
        <path id="k" d="M.024.1h2.833v1.496H.024z"/>
    </defs>
    <g fill="none" fill-rule="evenodd">
        <path fill="#2C89BE" d="M40 20c0 11.046-8.954 20-20 20C8.955 40 0 31.046 0 20S8.955 0 20 0c11.046 0 20 8.954 20 20"/>
        <path fill="#283A4D" d="M15.88 26.65c.192.277.534.372.766.212l.485-.335c.232-.16.265-.514.074-.791l-.416-.604c-.191-.276-.534-.371-.766-.212l-.485.336c-.232.16-.265.514-.074.79l.417.604z"/>
        <g transform="translate(15.111 24.876)">
            <mask id="b" fill="#fff">
                <use xlink:href="#a"/>
            </mask>
            <path fill="#4F6477" d="M.912.045L.426.38a.45.45 0 0 0-.06.052l1.099 1.592a.408.408 0 0 0 .07-.038l.486-.336c.009-.005.016-.012.025-.019L.939.028a.55.55 0 0 0-.027.017" mask="url(#b)"/>
        </g>
        <g transform="translate(15.556 24.876)">
            <mask id="d" fill="#fff">
                <use xlink:href="#c"/>
            </mask>
            <path fill="#778EA0" d="M.5.294L.19.508A.306.306 0 0 0 .15.54l.525.76a.33.33 0 0 0 .044-.026l.309-.213.016-.012L.516.284l-.017.01" mask="url(#d)"/>
        </g>
        <path fill="#ABAFB2" d="M14.612 23.964l-2.223.682c-.29.088-.46.378-.377.646l1.806 5.893c.06.196.237.325.441.347a.591.591 0 0 0 .233-.022l.405-.124 3.611-1.073c.29-.09.46-.379.377-.647l-3.598-5.377c-.082-.268-.384-.414-.675-.325"/>
        <path fill="#637787" d="M25.299 15.42c-.639-.577-1.495-.823-2.306-.574-1.296.397-1.982 1.908-1.533 3.376.45 1.467 1.866 2.335 3.162 1.938.81-.249 1.382-.932 1.587-1.768l-.91-2.971z"/>
        <g transform="translate(24.444 14.654)">
            <mask id="f" fill="#fff">
                <use xlink:href="#e"/>
            </mask>
            <path fill="#E6E9EC" d="M.224.34L1.48 4.445c.126-.217.222-.455.283-.707L.854.767A2.716 2.716 0 0 0 .224.34" mask="url(#f)"/>
        </g>
        <path fill="#E6E9EC" d="M14.32 23.988l-2.224.68c-.29.09-.46.38-.377.648l1.806 5.892c.06.196.237.326.441.347a.585.585 0 0 0 .233-.022l.405-.124 3.611-1.073c.29-.09.46-.379.377-.647l-3.597-5.377c-.083-.268-.385-.413-.676-.324"/>
        <path fill="#3A3D3F" d="M33.023 14.613l-5.273 1.616-.191-.623 5.273-1.616z"/>
        <path fill="#E6E9EC" d="M33.023 14.613l-5.273 1.616-.191-.623 5.273-1.616zM29.556 8.734l-2.586 4.871-.576-.305 2.586-4.871zM33.004 21.448l-4.872-2.587.306-.575 4.871 2.586zM20.968 10.813s-1.263 3.94-5.233 5.002l-2.303.706 2.26 7.373 2.303-.705s3.673-1.24 7.134 1.228l-1.555-8.525-2.606-5.08z"/>
        <path fill="#F5F8FA" d="M21.135 11.408c-1.224 3.91-5.382 4.99-5.382 4.99l-1.978.607.388 1.27 1.98-.606c4.056-1.147 5.433-4.976 5.433-4.976l-.083-.96-.358-.325z"/>
        <path fill="#1B2630" d="M26.7 23.936a.828.828 0 0 1-.54 1.038.828.828 0 0 1-1.031-.557L20.984 10.89a.827.827 0 0 1 .54-1.038.828.828 0 0 1 1.032.556L26.7 23.936z"/>
        <path fill="#283A4D" d="M21.493 9.862a.828.828 0 0 0-.51 1.027l4.146 13.528c.132.43.573.676.997.565l-4.633-15.12z"/>
        <path fill="#6A8449" d="M11.012 21.545l-2.59.793a.287.287 0 0 1-.168-.548l2.59-.793a.287.287 0 0 1 .168.548zm.481 1.232a.287.287 0 0 1-.233.332l-2.668.465a.286.286 0 1 1-.099-.565l2.668-.465a.286.286 0 0 1 .332.233zm-.842 1.548c0 .158-.086.286-.19.286l-1.796-.006c-.106 0-.19-.128-.19-.287 0-.158.086-.286.191-.286l1.796.005c.105 0 .19.129.19.288zm-3.449-4.593l1.485-1.01c.087-.06.23-.001.318.13.09.13.092.285.005.344l-1.485 1.01c-.087.06-.23.001-.319-.13s-.09-.285-.004-.344zm3.299-.086a.287.287 0 0 1-.145.38l-2.471 1.108a.287.287 0 0 1-.235-.524l2.471-1.108a.288.288 0 0 1 .38.144zm.261-2.519c-.055.013-.346.101-.401.118l-2.123 1.12c-1.291 1.115-1.74 2.153-1.493 3.205v.002l.2-.061c.17-.053.355.055.412.24l.164.536.032.105.165.537c.057.184-.036.377-.208.43l-.199.06v.002c.386 1.01 1.34 1.618 3.034 1.82l2.385-.263c.055-.017.346-.107.399-.128l2.818-.862-1.168-3.81-.032-.105-1.167-3.809-2.818.863z"/>
        <g transform="translate(10.222 16.432)">
            <mask id="h" fill="#fff">
                <use xlink:href="#g"/>
            </mask>
            <path fill="#A5C47A" d="M.578.884C.525.896.247.98.194.997l-.028.014 2.236 7.295.03-.003a13.6 13.6 0 0 0 .382-.122l2.695-.826L3.273.058.578.884z" mask="url(#h)"/>
        </g>
        <g transform="translate(10.667 17.765)">
            <mask id="j" fill="#fff">
                <use xlink:href="#i"/>
            </mask>
            <path fill="#D2E8B1" d="M.736 1.095l-.323.098-.024.009.613 2.002.025-.006.322-.1 2.273-.696L3.01.399l-2.273.696z" mask="url(#j)"/>
        </g>
        <g transform="translate(10.667 16.876)">
            <mask id="l" fill="#fff">
                <use xlink:href="#k"/>
            </mask>
            <path fill="#D2E8B1" d="M.372.795L.048.894.024.902l.213.694.025-.007.322-.1L2.857.794 2.644.1.372.795z" mask="url(#l)"/>
        </g>
        <path fill="#283A4D" d="M7.811 23.233l-.53-1.727a.325.325 0 0 0-.404-.216l-.2.062.72 2.346.2-.06a.324.324 0 0 0 .214-.405"/>
    </g>
</svg>
