<svg xmlns="http://www.w3.org/2000/svg" width="40" height="40" viewBox="0 0 40 40">
    <g fill="none" fill-rule="evenodd">
        <path fill="#E6762B" d="M0 20C0 8.954 8.954 0 20 0s20 8.954 20 20-8.954 20-20 20S0 31.046 0 20"/>
        <path fill="#DC502A" d="M13.817 31.817l8.092 8.09c9.245-.876 16.657-8.045 17.902-17.178L24.44 7.362 13.817 31.817"/>
        <path fill="#C0C0BB" d="M22.097 6.685l-6.668 2.25 7.08 20.987 6.668-2.25a2.144 2.144 0 0 0 1.349-2.713L24.81 8.027a2.139 2.139 0 0 0-2.714-1.342"/>
        <path fill="#FFFFFE" d="M9.629 10.89l.091 9.855 3.406 10.083a2.139 2.139 0 0 0 2.708 1.346l6.675-2.252-7.08-20.988-5.8 1.957"/>
        <path fill="#4265A1" d="M22.131 12.296l-10.262 3.46-.629-1.865 10.263-3.461.628 1.866"/>
        <path fill="#C0C0BB" d="M9.629 10.89l2.611 1.588a2.142 2.142 0 0 1 .72 2.94L9.817 20.79l-.188-9.9"/>
        <path fill="#61625E" d="M26.154 19.374l-13.2 4.453-.314-.933 13.2-4.452.314.932M24.977 15.876l-13.206 4.453-.314-.933 13.206-4.453.314.933M18.8 24.71l-4.983 1.682.314.933 4.989-1.681-.32-.933"/>
        <path fill="#7F2023" d="M24.051 25.021l-1.622 5.404 1.885-1.111 1.766 1.635-.28-5.622-1.749-.306"/>
        <path fill="#7F2023" d="M26.954 25.08l4.56 3.32-2.171.256-.412 2.37-3.188-4.64 1.211-1.305"/>
        <path fill="#B6252B" d="M28.503 23.252c-.132-.391-.594-.63-1.24-.707.011-.65-.166-1.141-.532-1.323-.371-.184-.868-.027-1.377.375-.451-.465-.925-.69-1.314-.557-.389.132-.629.594-.709 1.239-.645-.01-1.137.165-1.32.535-.182.369-.028.865.378 1.376-.469.453-.692.923-.56 1.313.131.391.594.63 1.24.708-.012.65.165 1.14.531 1.324.371.183.869.024 1.377-.378.452.468.926.69 1.314.558.395-.131.629-.593.709-1.238.651.01 1.137-.164 1.32-.535.189-.37.029-.865-.371-1.376.462-.453.685-.924.554-1.314"/>
    </g>
</svg>
