<svg xmlns="http://www.w3.org/2000/svg" xmlns:xlink="http://www.w3.org/1999/xlink" width="40" height="40" viewBox="0 0 40 40">
    <defs>
        <path id="a" d="M.26.578h28v28h-28z"/>
        <path id="c" d="M.328.317H23.6v18.77H.328z"/>
        <path id="e" d="M.412.426h5.305v3.983H.412z"/>
        <path id="g" d="M.232.241h2.995v2.126H.232z"/>
        <path id="i" d="M.01.202h2.995v2.126H.01z"/>
        <path id="k" d="M.222.163h2.995v2.126H.222z"/>
        <path id="m" d="M.083.1h2.995v2.126H.083z"/>
        <path id="o" d="M.345.207h17.248v17.52H.345z"/>
    </defs>
    <g fill="none" fill-rule="evenodd">
        <path fill="#4A7596" d="M40 20c0 11.046-8.954 20-20 20S0 31.046 0 20 8.954 0 20 0s20 8.954 20 20"/>
        <g transform="translate(11.74 10.422)">
            <mask id="b" fill="#fff">
                <use xlink:href="#a"/>
            </mask>
            <path fill="#335875" d="M28.26 9.938c0-.172-.001-.344-.006-.514C25.058 7.079 16.13.578 16.13.578l-4.828 12.164L.26 18.884s8.485 5.918 14.073 9.694c8.066-2.46 13.927-9.874 13.927-18.64" mask="url(#b)"/>
        </g>
        <g transform="translate(8.26 10.422)">
            <mask id="d" fill="#fff">
                <use xlink:href="#c"/>
            </mask>
            <path fill="#000" d="M19.9.647a.976.976 0 0 0-.994-.295L1.042 5.34A.976.976 0 0 0 .364 6.54l3.254 11.66a.97.97 0 0 0 .41.555c.24.271.62.399.993.295l17.865-4.987a.975.975 0 0 0 .677-1.202L20.31 1.202a.967.967 0 0 0-.41-.555" mask="url(#d)"/>
        </g>
        <path fill="#B54E4E" d="M31.363 23.024a.976.976 0 0 1-.678 1.202L12.82 29.212a.976.976 0 0 1-1.203-.677l-3.254-11.66a.977.977 0 0 1 .678-1.202l17.865-4.986a.975.975 0 0 1 1.202.678l3.255 11.659z"/>
        <path fill="#F99" d="M31.163 22.851a.977.977 0 0 1-.678 1.203L12.62 29.041a.977.977 0 0 1-1.203-.678l-3.254-11.66a.976.976 0 0 1 .678-1.202l17.865-4.987a.976.976 0 0 1 1.202.678l3.255 11.66z"/>
        <path fill="#ED5F5F" d="M30.957 22.106l-19.811 5.53-.12-.43 19.812-5.529z"/>
        <path fill="#BC3F3F" d="M22.099 21.961L13.1 24.472l-.144-.517 8.997-2.51zM30.457 22.977l-8.997 2.511-.145-.517 8.998-2.511z"/>
        <g transform="translate(23.913 17.379)">
            <mask id="f" fill="#fff">
                <use xlink:href="#e"/>
            </mask>
            <path fill="#FFF" d="M5.706 2.896a.293.293 0 0 1-.203.36l-4.09 1.142a.293.293 0 0 1-.36-.204l-.63-2.256a.293.293 0 0 1 .203-.36L4.716.436a.293.293 0 0 1 .36.204l.63 2.256z" mask="url(#f)"/>
        </g>
        <g transform="translate(10.435 21.292)">
            <mask id="h" fill="#fff">
                <use xlink:href="#g"/>
            </mask>
            <path fill="#F9F9F9" d="M3.227 1.64l-2.604.727L.232.968 2.837.241z" mask="url(#h)"/>
        </g>
        <g transform="translate(13.913 20.422)">
            <mask id="j" fill="#fff">
                <use xlink:href="#i"/>
            </mask>
            <path fill="#F9F9F9" d="M3.005 1.6L.4 2.329.01.929 2.613.202z" mask="url(#j)"/>
        </g>
        <g transform="translate(16.957 19.553)">
            <mask id="l" fill="#fff">
                <use xlink:href="#k"/>
            </mask>
            <path fill="#F9F9F9" d="M3.217 1.562l-2.604.727L.222.89 2.827.163z" mask="url(#l)"/>
        </g>
        <g transform="translate(20.435 18.683)">
            <mask id="n" fill="#fff">
                <use xlink:href="#m"/>
            </mask>
            <path fill="#F9F9F9" d="M3.078 1.5l-2.605.726L.083.827 2.688.1z" mask="url(#n)"/>
        </g>
        <path fill="#4472CC" d="M21.581 15.655l1.23.046.66 1.04.424-1.156 1.192-.306-.967-.76.077-1.229-1.022.686-1.145-.453.336 1.184-.785.948zm1.944 1.59l-.84-1.324-1.566-.058 1-1.208-.429-1.509 1.458.578 1.302-.873-.1 1.564 1.234.969-1.519.39-.54 1.471z"/>
        <path fill="#94E261" d="M27.232 14.336l-1.355.348-.483 1.314-.75-1.182-1.397-.052.892-1.078-.382-1.347 1.3.516 1.163-.78-.088 1.397z"/>
        <g transform="translate(8.26 10.857)">
            <mask id="p" fill="#fff">
                <use xlink:href="#o"/>
            </mask>
            <path fill="#FFBABA" d="M3.987 17.727c.178-.735.565-1.434.932-2.076.225-.394.462-.78.688-1.172.264-.46.517-.926.788-1.382 1.67-2.81 3.668-5.415 5.889-7.812A63.992 63.992 0 0 1 17.593.207L1.028 4.83a.934.934 0 0 0-.649 1.151l3.114 11.157c.076.269.26.476.494.589" mask="url(#p)"/>
        </g>
    </g>
</svg>
