<svg xmlns="http://www.w3.org/2000/svg" xmlns:xlink="http://www.w3.org/1999/xlink" width="40" height="40" viewBox="0 0 40 40">
    <defs>
        <circle id="a" cx="20" cy="20" r="20"/>
        <path id="c" d="M.007 0H60v60H.007z"/>
    </defs>
    <g fill="none" fill-rule="evenodd">
        <mask id="b" fill="#fff">
            <use xlink:href="#a"/>
        </mask>
        <use fill="#D8D8D8" xlink:href="#a"/>
        <g mask="url(#b)">
            <g transform="translate(-11 -2)">
                <mask id="d" fill="#fff">
                    <use xlink:href="#c"/>
                </mask>
                <path fill="#F8F4EC" d="M.007 60H60V0H.007z" mask="url(#d)"/>
            </g>
            <path fill="#813B58" d="M19.616 20.358h3.85c1.032 0 1.97.42 2.649 1.1a3.74 3.74 0 0 1 1.1 2.647v1.496h-2.169v-1.496c0-.432-.178-.827-.465-1.115a1.574 1.574 0 0 0-1.115-.464h-3.85v-2.168"/>
            <path fill="#EC9565" d="M17.447 42.406h1.446v-4.761h-1.446z"/>
            <path fill="#2B2C2A" d="M19.616 7.259c2.842 0 5.169 2.326 5.169 5.17v4.924c0 2.843-2.327 5.169-5.17 5.169s-5.17-2.326-5.17-5.169V12.43c0-2.844 2.327-5.17 5.17-5.17"/>
            <path fill="#813B58" d="M23.93 20.358c.434 0 .829-.178 1.115-.466a1.57 1.57 0 0 0 .465-1.115v-5.502h2.169v5.502c0 1.033-.422 1.97-1.1 2.649a3.742 3.742 0 0 1-2.649 1.1v-2.168"/>
            <path fill="#813B58" d="M19.616 20.358h7.39c1.03 0 1.968.42 2.647 1.1.68.678 1.1 1.616 1.1 2.647v2.399c0 .149.062.284.162.384a.54.54 0 0 0 .769 0c.098-.1.16-.235.16-.384V22.28h2.169v4.224c0 .747-.305 1.425-.797 1.917a2.705 2.705 0 0 1-3.835 0 2.704 2.704 0 0 1-.797-1.917v-2.399c0-.432-.178-.827-.464-1.115a1.58 1.58 0 0 0-1.115-.464h-7.39v-2.168M13.337 22.526a3.743 3.743 0 0 1-2.649-1.1 3.743 3.743 0 0 1-1.1-2.649v-5.502h2.169v5.502c0 .434.177.829.465 1.115.286.288.681.466 1.115.466v2.168"/>
            <path fill="#813B58" d="M7.386 22.28v4.224c0 .149.062.284.162.384a.54.54 0 0 0 .77 0c.099-.1.16-.235.16-.384v-2.399c0-1.03.422-1.969 1.1-2.647.68-.68 1.616-1.1 2.648-1.1h7.39v2.168h-7.39c-.433 0-.828.178-1.114.464a1.574 1.574 0 0 0-.466 1.115v2.399c0 .747-.305 1.425-.796 1.917a2.705 2.705 0 0 1-3.836 0 2.705 2.705 0 0 1-.797-1.917V22.28h2.169"/>
            <path fill="#813B58" d="M19.616 22.526h-3.852c-.433 0-.828.178-1.114.464a1.579 1.579 0 0 0-.464 1.115v7.2h-2.17v-7.2c0-1.03.422-1.969 1.101-2.647a3.73 3.73 0 0 1 2.647-1.1h3.852v2.168"/>
            <path fill="#479EA1" d="M24.488 37.645c.044-.447.067-.901.067-1.36 0-2.996-.965-5.766-2.598-8.02h-4.683a13.619 13.619 0 0 0-2.53 9.38h9.744"/>
            <path fill="#EC9565" d="M20.339 42.406h1.446v-4.761h-1.446z"/>
            <path fill="#813B58" d="M17.274 27.679h4.683l.25-1.997a1.363 1.363 0 0 0 .31-2.475l.238-1.911v-.938h-6.28v.938l.24 1.911a1.361 1.361 0 0 0 .31 2.475l.249 1.997"/>
            <path fill="#FFFFFE" d="M17.274 28.265h4.683v-.586h-4.683zM19.616 20.358h-1.507l1.507 5.196 1.506-5.196h-1.506"/>
            <path fill="#C3714A" d="M18.54 20.358h2.152v-3.615H18.54zM16.001 12.767c.596 0 1.085.488 1.085 1.085 0 .595-.489 1.084-1.085 1.084a1.087 1.087 0 0 1-1.084-1.084c0-.597.487-1.085 1.084-1.085M23.23 12.767c.596 0 1.085.488 1.085 1.085 0 .595-.489 1.084-1.085 1.084a1.087 1.087 0 0 1-1.084-1.084c0-.597.487-1.085 1.084-1.085"/>
            <path fill="#EC9565" d="M19.616 8.791a3.625 3.625 0 0 1 3.614 3.615v2.891a3.625 3.625 0 0 1-3.614 3.615A3.625 3.625 0 0 1 16 15.297v-2.891a3.625 3.625 0 0 1 3.615-3.615"/>
            <path fill="#C3714A" d="M19.16 15.647h.91a.352.352 0 0 0 0-.703h-.91a.352.352 0 0 0 0 .703"/>
            <path fill="#E36565" d="M17.791 16.315c.386.859 1.06 1.427 1.825 1.427.765 0 1.437-.568 1.823-1.427h-3.648"/>
            <path fill="#2D2E2C" d="M16.905 13.129h1.084c.099 0 .181-.081.181-.181 0-.1-.082-.18-.18-.18h-1.085a.18.18 0 0 0 0 .36M21.242 13.129h1.085c.098 0 .18-.081.18-.181 0-.1-.082-.18-.18-.18h-1.085a.18.18 0 1 0 0 .36M17.447 14.097h-.491a.491.491 0 1 1 .981 0h-.49M21.785 14.097h-.492a.491.491 0 1 1 .982 0h-.49"/>
            <path fill="#FFFFFE" d="M17.791 16.315a2.17 2.17 0 0 0 3.648 0h-3.648"/>
            <path fill="#C3714A" d="M19.616 21.432c.591 0 1.074-.483 1.074-1.074 0-.592-.483-1.075-1.074-1.075a1.076 1.076 0 0 0 0 2.148"/>
            <path fill="#E36565" d="M17.791 16.315c.386-.261 1.06-.434 1.825-.434.765 0 1.437.173 1.823.434h-3.648"/>
            <path fill="#C3714A" d="M19.616 13.14c.211 0 .385.174.385.386v1.735a.387.387 0 0 1-.385.386.387.387 0 0 1-.386-.386v-1.735c0-.212.173-.386.386-.386"/>
            <path fill="#2B2C2A" d="M19.616 8.256a4.208 4.208 0 0 1 4.194 4.195l-2.028-2.282-6.362 2.282a4.208 4.208 0 0 1 4.196-4.195"/>
            <path fill="#F8C949" d="M9.011 34.629h8.175c.215 0 .391.176.391.392v5.492a.393.393 0 0 1-.391.392H9.01a.393.393 0 0 1-.393-.392v-5.492c0-.216.176-.392.393-.392"/>
            <path fill="#FFFFFE" d="M16.912 34.983V37c0 .986-.806 1.793-1.793 1.793h-4.035A1.798 1.798 0 0 1 9.292 37v-2.241a.45.45 0 0 1 .448-.45h6.724a.45.45 0 0 1 .448.45v.224M11.97 33.413h2.263v-.578h-2.262z"/>
            <path fill="#2D2E2C" d="M11.97 32.835h-.213a.235.235 0 0 0-.235.234v1.24h.449v-1.474M14.447 32.835h-.214v1.474h.448v-1.24a.235.235 0 0 0-.234-.234M14.895 40.905h.897v-6.596h-.897z"/>
            <path fill="#ECA639" d="M15.344 37.878c.063 0 .114.05.114.114v.204h.185v-.597h-.002.002-.599v.597h.184v-.204c0-.064.052-.114.116-.114zm-.3-.579h.599c.08 0 .156.034.211.087.053.055.087.13.087.213v.597a.3.3 0 0 1-.087.21h-.001a.299.299 0 0 1-.21.089h-.599a.3.3 0 0 1-.299-.3V37.6a.3.3 0 0 1 .088-.212v-.001a.303.303 0 0 1 .211-.087z"/>
            <path fill="#797A76" d="M15.344 38.638c.085 0 .154.07.154.155a.155.155 0 1 1-.154-.155zm0 .897a.155.155 0 0 1 0 .31.155.155 0 1 1 0-.31z"/>
            <path fill="#2D2E2C" d="M10.412 40.905h.896v-6.596h-.896z"/>
            <path fill="#ECA639" d="M10.86 37.878c.064 0 .114.05.114.114v.204h.186v-.597c-.002 0 0 0 0 0h-.599v.597h.184v-.204c0-.064.052-.114.115-.114zm-.299-.579h.599a.3.3 0 0 1 .21.087c.054.055.087.13.087.213v.597a.301.301 0 0 1-.086.21h-.002a.298.298 0 0 1-.21.089h-.598a.3.3 0 0 1-.3-.3V37.6a.3.3 0 0 1 .089-.212v-.001a.303.303 0 0 1 .211-.087z"/>
            <path fill="#797A76" d="M10.86 38.638c.086 0 .155.07.155.155a.155.155 0 1 1-.155-.155zm0 .897a.155.155 0 0 1 0 .31.155.155 0 1 1 0-.31z"/>
            <path fill="#C3714A" d="M32.206 22.834a.363.363 0 0 0 .361-.361v-1.445a.363.363 0 0 0-.361-.361c-.2 0-.362.163-.362.361v1.445c0 .2.162.361.362.361"/>
            <path fill="#C3714A" d="M32.929 23.64a1.088 1.088 0 0 1-1.085-1.085c0-.597.488-1.084 1.085-1.084h1.002c.232 0 .42.19.42.422v1.326c0 .231-.188.42-.42.42h-1.002"/>
            <path fill="#DBD6CB" d="M38.305 20.45h1.017c.14 0 .254-.114.254-.253a.255.255 0 0 0-.254-.254h-1.017a.255.255 0 0 0-.254.254c0 .139.114.253.254.253M38.56 19.18l.719-.718a.254.254 0 1 0-.36-.359l-.719.718a.257.257 0 0 0 0 .36c.1.098.26.098.36 0M38.56 21.214l.719.718a.255.255 0 0 1 0 .359.257.257 0 0 1-.36 0l-.719-.719a.254.254 0 1 1 .36-.359"/>
            <path fill="#BE252B" d="M31.603 19.736h-.198a.264.264 0 0 0-.263.263v.396c0 .145.118.262.263.262h.198v-.921"/>
            <path fill="#D8383A" d="M33.987 20.197v-1.016l3.05-1.524v2.54h-3.05"/>
            <path fill="#BE252B" d="M33.987 20.197v1.017l3.05 1.523v-2.54h-3.05"/>
            <path fill="#E05656" d="M37.29 17.402c.14 0 .253.115.253.255v5.08a.254.254 0 0 1-.507 0v-5.08c0-.14.114-.255.253-.255"/>
            <path fill="#D8383A" d="M37.543 20.197v2.54a.254.254 0 0 1-.507 0v-2.54h.507"/>
            <path fill="#E05656" d="M32.025 19.18h1.962v2.034h-1.962a.58.58 0 0 1-.578-.579v-.876a.58.58 0 0 1 .578-.578"/>
            <path fill="#D8383A" d="M31.447 20.197h2.54v1.017h-1.962a.58.58 0 0 1-.578-.579v-.438M32.463 22.894h1.016v-1.68h-1.016z"/>
            <path fill="#BE252B" d="M32.185 21.214v.198c0 .144.118.261.262.261h1.048a.263.263 0 0 0 .262-.261v-.198h-1.572M32.342 23.212h1.257a.16.16 0 0 0 .16-.16.159.159 0 0 0-.16-.158h-1.257a.16.16 0 0 0-.16.159c0 .086.073.159.16.159"/>
            <path fill="#EC9564" d="M33.93 21.47c-.595 0-1.082.488-1.082 1.085 0 .596.487 1.085 1.083 1.085.232 0 .42-.19.42-.421v-1.326a.422.422 0 0 0-.42-.422"/>
            <path fill="#C3714A" d="M26.764 14.36c.597 0 1.084-.49 1.084-1.085 0-.597-.487-1.085-1.084-1.085h-1.002c-.231 0-.42.19-.42.421v1.327c0 .232.189.421.42.421h1.002"/>
            <path fill="#C3714A" d="M25.703 13.554a.363.363 0 0 0 .361-.362v-1.446a.363.363 0 0 0-.361-.361c-.2 0-.362.163-.362.361v1.446c0 .2.162.362.362.362"/>
            <path fill="#C3714A" d="M26.626 14.36a1.088 1.088 0 0 1-1.084-1.085c0-.597.487-1.085 1.084-1.085h1.002c.233 0 .421.19.421.421v1.327c0 .232-.188.421-.42.421h-1.003"/>
            <path fill="#2D2E2C" d="M25.76 10.269h1.77c.097 0 .176.08.176.178v3.185c0 .097-.079.176-.176.176h-1.77a.177.177 0 0 1-.176-.176v-3.185c0-.099.08-.178.176-.178"/>
            <path fill="#464644" d="M25.76 13.101h1.77v-2.478h-1.77z"/>
            <path fill="#91928E" d="M26.512 13.322h.266c.073 0 .133.06.133.132 0 .074-.06.133-.133.133h-.266a.134.134 0 0 1-.133-.133c0-.072.061-.132.133-.132"/>
            <path fill="#5F605C" d="M26.628 10.776l-.717.718a.072.072 0 0 0 0 .102.072.072 0 0 0 .102 0l.718-.717a.075.075 0 0 0 0-.103.074.074 0 0 0-.103 0zm-.318.01l-.389.391a.072.072 0 0 0 0 .103.074.074 0 0 0 .103 0l.389-.39a.072.072 0 0 0 0-.103.074.074 0 0 0-.103 0z"/>
            <path fill="#EC9564" d="M27.628 12.19c-.595 0-1.084.488-1.084 1.085 0 .595.489 1.084 1.084 1.084.233 0 .421-.19.421-.42V12.61a.421.421 0 0 0-.42-.42"/>
            <path fill="#EC9565" d="M11.034 12.432a.335.335 0 0 1-.67-.023v-1.614a.39.39 0 0 0-.389-.387.39.39 0 0 0-.387.387v2.806c0 .2.153.366.348.386v.002h1.472a.362.362 0 0 0 .349-.362v-1.195h-.723"/>
            <path fill="#DAD1C4" d="M10.883 10.934H10v.812l.272.51a.231.231 0 0 0 .208.124h.807c.09 0 .166-.046.208-.125l.273-.509v-.812h-.885"/>
            <path fill="#FFF9EC" d="M10 11.34h1.768a.203.203 0 0 0 0-.406H10a.203.203 0 0 0 0 .406"/>
            <path fill="#F8C949" d="M10.883 10.934H10c0-1.36-1.148-1.49-1.148-2.844a2.03 2.03 0 0 1 4.063 0c0 1.353-1.147 1.484-1.147 2.844h-.885"/>
            <path fill="#ECA639" d="M10.883 6.06a2.03 2.03 0 0 1 2.032 2.03c0 1.353-1.147 1.484-1.147 2.844h-.885V6.06"/>
            <path fill="#FFF9EC" d="M10 12.017h1.768a.203.203 0 0 0 0-.406H10a.203.203 0 0 0 0 .406"/>
            <path fill="#FFFFFE" d="M10.082 7.7a.407.407 0 1 0 0-.813.407.407 0 0 0 0 .813"/>
            <path fill="#EC9565" d="M11.395 11.603a.363.363 0 0 0-.361.362v.467h.723v-.467a.363.363 0 0 0-.362-.362"/>
            <path fill="#C3714A" d="M7.01 22.571a.361.361 0 0 1-.36-.361v-1.446c0-.198.162-.362.36-.362.2 0 .362.164.362.362v1.446c0 .2-.162.361-.362.361"/>
            <path fill="#C3714A" d="M6.289 23.375c.597 0 1.083-.489 1.083-1.083 0-.597-.486-1.084-1.083-1.084H5.285c-.231 0-.42.19-.42.42v1.326c0 .233.189.421.42.421H6.29"/>
            <path fill="#FFFFFE" d="M5.641 24.915h5.283v-6.603H5.64z"/>
            <path fill="#DBD6CB" d="M6.49 19.528h3.585v-.422H6.49zM6.49 20.372h3.585v-.422H6.49zM6.49 21.216h3.585v-.422H6.49zM6.49 22.06h3.585v-.421H6.49zM6.49 24.121h3.585v-1.638H6.49z"/>
            <path fill="#EC9564" d="M5.285 21.208c.596 0 1.085.487 1.085 1.084 0 .594-.489 1.083-1.085 1.083a.421.421 0 0 1-.42-.42v-1.327c0-.23.189-.42.42-.42"/>
            <path fill="#EC9565" d="M14.184 31.983l.002-.678h-2.17l-.002 1.291v1.053c0 .231.188.42.42.42h1.326c.233 0 .421-.189.421-.42v-.944h.315a.362.362 0 0 0 .362-.36c0-.2-.164-.362-.362-.362h-.312"/>
            <path fill="#813B58" d="M25.046 25.265v1.221c0 .434-.182.829-.47 1.115a1.574 1.574 0 0 1-1.114.464h-.783v2.169h.783c1.032 0 1.969-.42 2.648-1.1a3.74 3.74 0 0 0 1.105-2.648v-1.221h-2.169"/>
            <path fill="#EC9565" d="M22.742 28.066h-.032l-.017-.001h-1.816a.362.362 0 1 0 0 .723h.793l-.001.006a1.087 1.087 0 0 0 .668 1.38 1.089 1.089 0 0 0 1.38-.669 1.065 1.065 0 0 0-.017-.752l-.357-1.203a.363.363 0 0 0-.45-.244.363.363 0 0 0-.244.45l.093.31"/>
        </g>
    </g>
</svg>
