<svg xmlns="http://www.w3.org/2000/svg" xmlns:xlink="http://www.w3.org/1999/xlink" width="40" height="40" viewBox="0 0 40 40">
    <defs>
        <path id="a" d="M.309.068h1.543v2.136H.309z"/>
        <path id="c" d="M.24.039h5.894v7.923H.24z"/>
        <path id="e" d="M.43.156h5.894v4.488H.43z"/>
    </defs>
    <g fill="none" fill-rule="evenodd">
        <path fill="#727270" d="M40 20c0 11.046-8.954 20-20 20S0 31.046 0 20 8.954 0 20 0s20 8.954 20 20"/>
        <path fill="#FF5050" d="M22.681 8.9l-.003 1.762s-.561.015-1.335-.263c-.774-.278-1.193-.267-1.285-.202l.015-1.792s.71.034 1.457.309c.747.274 1.09.213 1.151.187"/>
        <g transform="translate(20.444 8.432)">
            <mask id="b" fill="#fff">
                <use xlink:href="#a"/>
            </mask>
            <path fill="#FFABAB" d="M1.077.282c.205.075.379.125.525.157.046.299.224 1.579.25 1.765a4.609 4.609 0 0 1-.962-.237 5.715 5.715 0 0 0-.319-.104L.31.068c.229.046.496.114.768.214" mask="url(#b)"/>
        </g>
        <path fill="#5C6E80" d="M19.774 12.32h.316V7.922h-.316z"/>
        <path fill="#939FAA" d="M19.873 12.32h.119V7.922h-.119z"/>
        <path fill="#3B4F5E" d="M11.202 17.137h18.08v-1.21h-18.08z"/>
        <path fill="#C7CCC8" d="M23.351 30.524h5.894v-7.831h-5.894zM23.097 22.192h5.894v-5.16h-5.894z"/>
        <path fill="#FFF" d="M11.457 22.192h5.894v-5.16h-5.894z"/>
        <path fill="#3B4F5E" d="M23.351 22.693h6.185V21.48H23.35z"/>
        <g transform="translate(23.111 22.654)">
            <mask id="d" fill="#fff">
                <use xlink:href="#c"/>
            </mask>
            <path fill="#A3A3A3" d="M6.134.039H.24V7.963h1.385V.618h4.51z" mask="url(#d)"/>
        </g>
        <g transform="translate(22.667 16.876)">
            <mask id="f" fill="#fff">
                <use xlink:href="#e"/>
            </mask>
            <path fill="#A3A3A3" d="M6.324.156H.43v4.489h1.613V.734h4.281z" mask="url(#f)"/>
        </g>
        <path fill="#3B4F5E" d="M10.451 22.693h6.185V21.48h-6.185z"/>
        <path fill="#D6D199" d="M10.74 23.258h5.896v-.565h-5.897z"/>
        <path fill="#FFF" d="M10.74 30.458h5.896v-7.765h-5.897z"/>
        <path fill="#3B4F5E" d="M10.451 32.064h19.07v-1.606h-19.07z"/>
        <path fill="#E7EFE8" d="M24.075 13.993l-3.744-1.324-.255.127-4.201 1.197V30.48h8.2z"/>
        <path fill="#637987" d="M12.026 26.482h1.034v-2.376h-1.034zM13.801 26.482h1.035v-2.376h-1.035zM12.026 29.627h1.034v-2.376h-1.034zM13.801 29.627h1.035v-2.376h-1.035z"/>
        <path fill="#3B4F5E" d="M25.256 26.482h1.035v-2.376h-1.035zM27.032 26.482h1.034v-2.376h-1.034zM25.256 29.627h1.035v-2.376h-1.035zM27.032 29.627h1.034v-2.376h-1.034zM25.256 19.262h1.035v-1.199h-1.035zM27.032 19.262h1.034v-1.199h-1.034zM25.256 20.85h1.035v-1.2h-1.035zM27.032 20.85h1.034v-1.2h-1.034z"/>
        <path fill="#637987" d="M12.365 19.262h1.034v-1.199h-1.034zM14.14 19.262h1.034v-1.199H14.14zM12.365 20.85h1.034v-1.2h-1.034zM14.14 20.85h1.034v-1.2H14.14zM16.817 16.527h1.035v-1.199h-1.035zM18.592 16.527h1.035v-1.199h-1.035zM16.817 18.114h1.035v-1.199h-1.035zM18.592 18.114h1.035v-1.199h-1.035zM20.21 16.527h1.034v-1.199H20.21zM21.985 16.527h1.034v-1.199h-1.034zM20.21 18.114h1.034v-1.199H20.21zM21.985 18.114h1.034v-1.199h-1.034zM16.817 21.022h1.035v-1.199h-1.035zM18.592 21.022h1.035v-1.199h-1.035zM16.817 22.61h1.035v-1.2h-1.035zM18.592 22.61h1.035v-1.2h-1.035zM20.21 21.022h1.034v-1.199H20.21zM21.985 21.022h1.034v-1.199h-1.034zM20.21 22.61h1.034v-1.2H20.21zM21.985 22.61h1.034v-1.2h-1.034zM16.817 24.839h1.035v-1.2h-1.035zM18.592 24.839h1.035v-1.2h-1.035zM16.817 26.426h1.035v-1.2h-1.035zM18.592 26.426h1.035v-1.2h-1.035zM20.21 24.839h1.034v-1.2H20.21zM21.985 24.839h1.034v-1.2h-1.034zM20.21 26.426h1.034v-1.2H20.21zM21.985 26.426h1.034v-1.2h-1.034z"/>
        <path fill="#3B4F5E" d="M24.38 14.794l-4.522-1.226-4.437 1.226v-1.426l4.51-1.272 4.45 1.272z"/>
        <path fill="#688496" d="M10.451 31.037h19.07v-.579h-19.07z"/>
        <path fill="#637987" d="M18.232 30.542h3.562v-3.626h-3.562z"/>
    </g>
</svg>
