<svg xmlns="http://www.w3.org/2000/svg" width="40" height="40" viewBox="0 0 40 40">
    <g fill="none" fill-rule="evenodd">
        <path fill="#DE4A3F" d="M0 20C0 8.954 8.954 0 20 0s20 8.954 20 20-8.954 20-20 20S0 31.046 0 20"/>
        <path fill="#CA362B" d="M9.96 29.063l-2.817.977 9.708 9.714c1.029.16 2.08.246 3.149.246 11.046 0 20-8.954 20-20 0-.206-.011-.411-.017-.617l-9.166-9.166L9.96 29.063"/>
        <path fill="#49AED7" d="M23.829 7.674c4.988 0 9.028 3.103 9.028 6.932 0 1.263-.446 2.451-1.223 3.474l.017-.006s-.765 3.092 1.206 5.006c-4.531-.063-6.446-1.834-6.446-1.834-.817.183-1.68.291-2.582.291-4.989 0-9.029-3.103-9.029-6.931 0-3.829 4.04-6.932 9.029-6.932"/>
        <path fill="#FFFFFE" d="M25.577 11.057l-2.548-.84-1.24.697s-.418 1.412-.389 1.686c-.274.189-.331.646-.234.891.097.252.377.4.56.378.405 1.068.96 1.805 2.103 1.805 1.222 0 1.617-.56 2.051-1.794.097.251.583.24.743-.366.074-.268.006-.765-.263-.76-.091-.234-.783-1.697-.783-1.697"/>
        <path fill="#1C5D90" d="M26.417 11.194a.859.859 0 0 0-.12-.24c-.177-.325-.537-.685-1.183-1.028-.251-.28-.76-.435-1.285-.475-.56-.034-1.155.069-1.48.315-.423.32-.686.703-.755.96a.889.889 0 0 0-.354.468c-.166.515-.183 1.303.4 2.286.069.12-.006-.554.166-1.309.108-.468.24-.76.297-1 .503.115 1.171.12 1.726.04.314-.045.588-.12.777-.205.611.703.851.354 1.188.954.023.069.04.137.057.211.178.755.098 1.429.166 1.309.583-.983.566-1.771.4-2.286"/>
        <path fill="#FFFFFE" d="M27.783 17.057c-.137-.331-1.052-.714-1.897-.714-.406 0-1.812.503-1.812.503h-.491s-1.423-.503-1.806-.503c-.891 0-1.766.383-1.903.714-.24.566-.457 2.269-.457 2.269s.703.108 1.606.217c.166-.737.366-1.372.366-1.372v1.412c.834.097 1.76.177 2.44.177.68 0 1.605-.08 2.44-.177V18.17s.2.635.365 1.372c.903-.109 1.612-.217 1.612-.217s-.223-1.703-.463-2.269"/>
        <path fill="#1C5D90" d="M22.811 19.509l-.497-.492.497-.491.492.491-.492.492M23.829 19.509l-.492-.492.492-.491.491.491-.491.492M24.851 19.509l-.491-.492.491-.491.492.491-.492.492M22.154 15.697c-.211.143-.485.366-.554.509-.063.468.571 1.531.971 1.783.235-.429.692-.898 1.012-1.143a3.561 3.561 0 0 1-1.429-1.149M25.509 15.697a3.637 3.637 0 0 1-1.435 1.149c.326.245.777.714 1.012 1.143.4-.252 1.04-1.315.971-1.783-.068-.143-.343-.366-.548-.509"/>
        <path fill="#EB8D2D" d="M16.171 14.634c-4.988 0-9.028 3.103-9.028 6.932 0 1.263.446 2.451 1.217 3.474l-.011-.006s.765 3.092-1.206 5.006c4.526-.063 6.446-1.834 6.446-1.834.817.183 1.68.291 2.582.291 4.989 0 9.029-3.103 9.029-6.931 0-3.829-4.04-6.932-9.029-6.932"/>
        <path fill="#853C25" d="M12.349 25.817a9.475 9.475 0 0 0 3.822.846 9.474 9.474 0 0 0 3.823-.846c.115-1.663-.308-3.594-1.12-4.017-.034-.017-.068-.04-.108-.063-.195-1.028-.383-2.811-.355-3.566.035-1.005-.388-2.434-2.24-2.434-1.857 0-2.28 1.429-2.24 2.434.029.755-.165 2.538-.36 3.572-.034.017-.068.04-.108.057-.806.423-1.229 2.354-1.114 4.017"/>
        <path fill="#FFFFFE" d="M17.943 18.709c-.057.274-.217.474-.36.457a3.517 3.517 0 0 1-.377.857c-.035.046-.063.091-.097.137-.006.006-.006.011-.012.011-.028.04-.063.08-.091.115-.006.005-.012.011-.012.017a1.891 1.891 0 0 1-.234.2c-.006.006-.011.006-.017.011a.994.994 0 0 1-.103.063c-.017.006-.029.012-.04.017-.034.012-.063.023-.091.035l-.052.017c-.028.005-.063.017-.091.023-.017 0-.035.005-.046.005-.051.006-.097.006-.149.006-.051 0-.097 0-.148-.006-.017 0-.029-.005-.046-.005-.034-.006-.063-.018-.097-.023-.017-.006-.029-.012-.046-.017-.028-.012-.063-.023-.091-.035-.012-.005-.029-.011-.04-.017a.994.994 0 0 1-.103-.063c-.006-.005-.011-.005-.017-.011a1.55 1.55 0 0 1-.234-.2c-.006-.006-.006-.012-.012-.017a.89.89 0 0 1-.091-.115c-.006 0-.012-.005-.017-.011-.029-.046-.063-.091-.092-.137a3.517 3.517 0 0 1-.377-.857c-.143.017-.303-.183-.36-.457-.057-.286.017-.538.16-.566h.017c0-.057.006-.12.006-.177.417.028 1.017-.132 1.514-.503.229-.172.469-.286.697-.326a1.844 1.844 0 0 1-.891.892c.366-.086 1.04-.463 1.246-.886a.829.829 0 0 1 .525.388c.063.189.092.395.086.612h.017c.149.028.223.28.166.566M18.257 25.04s.229-.577.463-.577c.229 0 .463.577.463.577h-.926"/>
        <path fill="#FFFFFE" d="M13.697 21.977c.48-.234 1.023-.726 1.434-1.251.012.725.052 1.731.189 2.714l.44.377c.126.109.263.16.4.16a.67.67 0 0 0 .417-.171l.452-.406c.137-1.017.171-2.051.182-2.777.418.56.995 1.108 1.509 1.354-.349.406-.794.509-.794.509s.057.268.64.383c-.309.702-1.315 3.045-2.36 3.565-1.04-.52-2.04-2.863-2.355-3.565.583-.115.64-.383.64-.383s-.445-.103-.794-.509"/>
        <path fill="#734625" d="M16.897 24.166c-.154.765-.383 1.474-.726 1.96-.342-.486-.571-1.183-.725-1.937.205.171.451.274.714.274.274 0 .531-.109.737-.297"/>
    </g>
</svg>
