<svg xmlns="http://www.w3.org/2000/svg" xmlns:xlink="http://www.w3.org/1999/xlink" width="40" height="40" viewBox="0 0 40 40">
    <defs>
        <path id="a" d="M40 20c0 11.046-8.955 20-20 20S0 31.046 0 20 8.955 0 20 0s20 8.954 20 20"/>
        <path id="c" d="M.41.423h33.334v26.223H.411z"/>
        <path id="e" d="M.375.078H15.82v12.257H.375z"/>
        <path id="g" d="M.136.36h1.867v1.934H.136z"/>
        <path id="i" d="M.281.23h2.631v2.633H.282z"/>
        <path id="k" d="M.318.092h2.478v2.696H.318z"/>
        <path id="m" d="M.272.264H10.58v5.903H.272z"/>
        <path id="o" d="M.332.129h1.431v1.436H.332z"/>
        <path id="q" d="M.393.084h4.69v8.083H.393z"/>
        <path id="s" d="M.379.123h3.738v8.941H.379z"/>
        <path id="u" d="M.378.15H2.42v2.04H.38z"/>
    </defs>
    <g fill="none" fill-rule="evenodd">
        <mask id="b" fill="#fff">
            <use xlink:href="#a"/>
        </mask>
        <use fill="#772B27" xlink:href="#a"/>
        <g mask="url(#b)">
            <g transform="translate(6.222 12.876)">
                <mask id="d" fill="#fff">
                    <use xlink:href="#c"/>
                </mask>
                <path fill="#612220" d="M25.497.423L14.405 5.178.41 11.245l16.848 15.4c8.864-1.512 15.719-8.609 16.485-17.369.025-.281-8.247-8.853-8.247-8.853" mask="url(#d)"/>
            </g>
        </g>
        <path fill="#D18B5D" d="M25.86 16.588s1.253.559 1.995 1.95c.742 1.393.653 3.77.653 3.77s-.724 1.267-1.746 1.478c-1.021.212-5.629 3.72-5.629 3.72l-5.008-6.6 2.95-3.451 6.785-.867z" mask="url(#b)"/>
        <g mask="url(#b)">
            <g transform="translate(11.556 15.543)">
                <mask id="f" fill="#fff">
                    <use xlink:href="#e"/>
                </mask>
                <path fill="#000" d="M10.919 12.253l.044-.014a46.592 46.592 0 0 0 2.196-1.712c.59-.497 1.17-.997 1.65-1.605.171-.217.404-.574.63-.726.117-.08.234-.11.381-.24l-.892-.79s-2.769-2.26-3.786-3.462c-1.016-1.202-2.086-1.07-2.413-1-.326.069-.581.007-.581.007L2.438.078S.195 6.005.385 6.28c.19.275 2.4 1.334 3.368 2.458.969 1.123 5.317 3.373 5.317 3.373 1.235.353 1.648.199 1.848.142" mask="url(#f)"/>
            </g>
        </g>
        <path fill="#FFC299" d="M13.44 15.73l5.712 2.633s.254.061.581-.008c.327-.07 1.396-.202 2.413 1 1.017 1.203 3.786 3.462 3.786 3.462l1.298 1.096s.05.578-.136.843c-.185.265-.88.906-1.268.731 0 0 .335.512-.057.795-.392.283-.728.727-1.503.419 0 0-.343.86-1.798.859 0 0-.267.267-.546.345-.2.056-.612.21-1.848-.142 0 0-4.348-2.25-5.317-3.374-.968-1.123-3.178-2.183-3.368-2.457-.19-.275 2.052-6.203 2.052-6.203" mask="url(#b)"/>
        <g mask="url(#b)">
            <g transform="translate(13.333 22.654)">
                <mask id="h" fill="#fff">
                    <use xlink:href="#g"/>
                </mask>
                <path fill="#000" d="M.476.361s-.494.541-.29.981c.203.44.789.972 1.036.952.248-.022.92-.516.755-.896C1.77.916 1.264.336.477.36" mask="url(#h)"/>
            </g>
        </g>
        <g mask="url(#b)">
            <g transform="translate(14.667 23.543)">
                <mask id="j" fill="#fff">
                    <use xlink:href="#i"/>
                </mask>
                <path fill="#000" d="M.585.915s.789-.633 1.018-.68C1.732.21 2.843.23 2.91 1.232 2.981 2.313 1.714 2.83 1.714 2.83s-.896.212-1.2-.427C.026 1.375.434 1.093.585.915" mask="url(#j)"/>
            </g>
        </g>
        <g mask="url(#b)">
            <g transform="translate(16.444 24.432)">
                <mask id="l" fill="#fff">
                    <use xlink:href="#k"/>
                </mask>
                <path fill="#000" d="M.318 1.785s0-.252.183-.432c.182-.18.69-.794.745-.909.056-.114.363-.381.64-.35.277.031.887.232.91.888.022.657-.342.754-.402.836-.058.081-.23.634-.525.79-.294.157-.799.38-1.299-.175-.23-.254-.252-.648-.252-.648" mask="url(#l)"/>
            </g>
        </g>
        <path fill="#FFC299" d="M13.44 15.73s.3.099 1.373.008c1.073-.092 3.856-.12 5.006.199 1.15.318 2.022 1.782 1.785 1.927-.238.145-1.554.797-2.256.856-.702.06-5.475-1.323-5.599-1.312-.124.01-.536.045-.308-1.679" mask="url(#b)"/>
        <g mask="url(#b)">
            <g transform="translate(16.444 15.098)">
                <mask id="n" fill="#fff">
                    <use xlink:href="#m"/>
                </mask>
                <path fill="#000" d="M9.227 1.464L6.347.836S5.165.146 4.553.28c-.612.135-1.43.786-1.674.849-.244.062-1.987.584-2.004.877-.016.292-.352 1.734-.41 2.03-.058.295-.622 1.965.499 1.953 1.121-.012 2.374-1.906 2.29-2.398l.733-.187s.602-.339 2.056 1.118C7.497 5.98 8.52 6.536 9.466 5.916c.945-.62 2.05-2.942-.24-4.452" mask="url(#n)"/>
            </g>
        </g>
        <path fill="#D18B5D" d="M25.375 16.255l-2.88-.629s-1.182-.69-1.794-.554c-.612.135-1.43.786-1.673.848-.245.063-1.988.585-2.005.878-.017.292-.351 1.733-.41 2.03-.057.295-.623 1.965.5 1.953 1.12-.012 2.373-1.906 2.29-2.398l.732-.187s.905-.118 2.359 1.338c1.454 1.457 2.472 1.702 3.417 1.082.945-.621 1.754-2.851-.536-4.361M13.396 23.3s-.468.51-.275.926c.192.416.746.92.98.9.234-.02.868-.487.713-.847-.195-.454-.674-1.003-1.418-.98" mask="url(#b)"/>
        <g mask="url(#b)">
            <g transform="translate(18.222 26.21)">
                <mask id="p" fill="#fff">
                    <use xlink:href="#o"/>
                </mask>
                <path fill="#000" d="M.594.13S.214.531.37.86c.155.326.604.72.794.704.19-.016.706-.384.581-.667C1.586.54 1.199.11.594.13" mask="url(#p)"/>
            </g>
        </g>
        <path fill="#D18B5D" d="M18.202 26.305s-.38.403-.225.73c.155.327.603.722.793.705.19-.016.707-.384.582-.667-.158-.357-.546-.788-1.15-.768M14.759 24.663s.745-.598.961-.642c.122-.025 1.172-.006 1.234.94.068 1.023-1.129 1.51-1.129 1.51s-.847.201-1.134-.403c-.46-.97-.075-1.236.068-1.405" mask="url(#b)"/>
        <path fill="#D18B5D" d="M16.186 26.325s0-.238.173-.409c.172-.17.651-.75.705-.858.052-.108.342-.36.604-.331.262.03.838.219.86.84.02.62-.324.712-.38.789-.055.077-.218.6-.496.747-.278.148-.755.358-1.228-.165-.217-.241-.238-.613-.238-.613M25.91 25.494l-2.087-1.402-1.856-1.95s.184.54.088.714c-.096.174-.83.015-.83.015s.129.21.408.242c.28.032.72-.005.72-.005l1.234 1.142 2.35 1.574-.027-.33zM24.295 26.712l-2.147-1.453-2.226-2.389s.185.539.088.714c-.095.174-.83.014-.83.014s.129.211.409.243c.28.032 1.25.365 1.25.365l1.101 1.21 2.176 1.477.179-.181zM22.459 27.61l-1.583-1.07-1.64-1.761s.135.397.065.526c-.071.129-.612.01-.612.01s.095.156.3.18c.207.023.923.269.923.269l.81.891 1.577 1.03.16-.074z" mask="url(#b)"/>
        <path fill="#FFF" d="M25.345 15.794l2.726-1.057 3.234 7.498-1.743 1.172-3.992-7.201z" mask="url(#b)"/>
        <g mask="url(#b)">
            <g transform="translate(26.222 14.654)">
                <mask id="r" fill="#fff">
                    <use xlink:href="#q"/>
                </mask>
                <path fill="#000" d="M4.212 8.167l.871-.586L1.85.084.393.648c1.34 2.472 2.633 4.97 3.819 7.519" mask="url(#r)"/>
            </g>
        </g>
        <path fill="#1C2223" d="M31.806 12.889l-4.469 1.698 4.33 9.626 1.657-1.107z" mask="url(#b)"/>
        <path fill="#FFF" d="M13.987 14.971l-3.06-.638-2.104 8.475 2.044.932 2.955-8.295z" mask="url(#b)"/>
        <g mask="url(#b)">
            <g transform="translate(8.444 14.21)">
                <mask id="t" fill="#fff">
                    <use xlink:href="#s"/>
                </mask>
                <path fill="#000" d="M1.4 9.064L.379 8.598 2.483.123l1.634.341c-.983 2.842-1.91 5.704-2.717 8.6" mask="url(#t)"/>
            </g>
        </g>
        <path fill="#FFE5A4" d="M6.663 13.034l5.012 1.012-2.889 10.912-1.94-.879z" mask="url(#b)"/>
        <g mask="url(#b)">
            <g transform="translate(7.556 15.098)">
                <mask id="v" fill="#fff">
                    <use xlink:href="#u"/>
                </mask>
                <path fill="#000" d="M2.416 1.084a1.02 1.02 0 1 1-2.034.172 1.02 1.02 0 0 1 2.034-.172" mask="url(#v)"/>
            </g>
        </g>
        <path fill="#F4F4F4" d="M16.646 18.653s-.424 1.373-.21 1.554l.56-.105s.291-.935.308-1.078c.016-.144-.15-.414-.658-.371" mask="url(#b)"/>
        <path fill="#EDE6E2" d="M13.332 23.856s.722.217.932.912c0 0-.296.2-.473.13s-.286-.172-.556-.524c-.119-.155.038-.485.097-.518M18.171 26.844s.5.15.647.632c0 0-.207.138-.329.09-.122-.049-.198-.12-.385-.363-.082-.108.026-.337.067-.36M15.788 24.216s.17-.066.593.38c.406.426.287.582.287.582s-.157.59-.689.7c-.318.06-1.01-.7-.915-1.06.108-.407.724-.602.724-.602M17.412 24.989s.096-.037.447.247c.405.325.398.492.398.492s.038.281-.492.582c-.189-.055-.866-.477-.837-.654.084-.52.484-.667.484-.667" mask="url(#b)"/>
        <path fill="#D3D3D3" d="M9.768 16.05a1.02 1.02 0 1 1-2.033.173 1.02 1.02 0 0 1 2.033-.173" mask="url(#b)"/>
    </g>
</svg>
