<svg xmlns="http://www.w3.org/2000/svg" xmlns:xlink="http://www.w3.org/1999/xlink" width="40" height="40" viewBox="0 0 40 40">
    <defs>
        <path id="a" d="M.225.028h31.383v34.589H.225z"/>
    </defs>
    <g fill="none" fill-rule="evenodd">
        <path fill="#E8EDEA" d="M20 40C8.954 40 0 31.046 0 20S8.954 0 20 0s20 8.954 20 20-8.954 20-20 20z"/>
        <g transform="translate(8.182 4.532)">
            <mask id="b" fill="#fff">
                <use xlink:href="#a"/>
            </mask>
            <path fill="#D6DCD8" d="M31.608 17.448C26.381 12.34 19.194 5.345 18.254 4.588c-.55-.443-1.244-.391-1.244-.391-1.011.041-1.871 4.4-1.871 4.4C11.762 2.842 10.774.761 9.904.326c-2.879-1.44-.881 2.784-.881 2.784l1.846 4.518c-2.183-1.736-8.295-6.18-9.663-5.911C-.461 2.046.5 3.533.5 3.533c.58.97 8.445 7.009 8.445 7.009-4.569-1.217-5.887.613-5.887.613-1.622 2.137-1.519 5.725-1.519 5.725.34 1.117 1.73.507 1.73.507.91-.292 1.645-3.101 1.645-3.101.828-.764 1.587-1.533 3.297-.299 1.895 1.367 1.939 3.705 1.939 3.705a1.977 1.977 0 0 1-1.253 1.879c-.517.074-2.277.357-3.766-.528-1.295-.768-2.36-.932-2.828-.925-.116.002-.423.025-.546.079-1.213.526-.765 1.398-.765 1.398.25.61 1.788 1.77 2.586 2.342.182.131 7.956 7.387 13.621 12.68 7.755-2.176 13.592-8.934 14.41-17.169" mask="url(#b)"/>
        </g>
        <path fill="#030110" d="M22.978 36.944l-2.249-3.665 10.604-6.768 2.276 3.857z"/>
        <path fill="#E7AA8E" d="M20.545 29.873s-.632.27-3.378-1.766c-.12-.09-.565-.312-.86-.355-.561-.082-2.237-.53-3.396-.8-.254-.059-.863-.276-1.151-.482-.798-.572-2.337-1.732-2.586-2.342 0 0-.448-.873.765-1.4.123-.052.43-.076.546-.078.468-.007 1.533.158 2.828.926 1.489.884 3.25.602 3.766.527 0 0 1.231-.409 1.253-1.88 0 0-.044-2.336-1.94-3.704-1.709-1.233-2.468-.465-3.296.299 0 0-.734 2.81-1.644 3.1 0 0-1.391.611-1.731-.505 0 0-.103-3.589 1.518-5.725 0 0 1.32-1.83 5.888-.614 0 0-7.865-6.037-8.445-7.009 0 0-.96-1.487.706-1.815 1.368-.269 7.48 4.175 9.663 5.912l-1.847-4.519s-1.997-4.224.882-2.784c.87.434 1.858 2.517 5.234 8.27 0 0 .86-4.358 1.872-4.4 0 0 1.543-.266 1.213 2.023 0 0-.254 4.342-.559 6.495 0 0 .238.173 2.233 6.356 0 0 .065 2.89-3.033 5.182-3.097 2.291-4.5 1.088-4.5 1.088"/>
        <path fill="#FFF" d="M19.811 29.89l1.744 2.878 8.777-5.605s-1.28-2.293-2.278-3.731c-2.714 3.73-8.243 6.458-8.243 6.458"/>
    </g>
</svg>
