<svg xmlns="http://www.w3.org/2000/svg" width="40" height="40" viewBox="0 0 40 40">
    <g fill="none" fill-rule="evenodd">
        <path fill="#6D5996" d="M0 20C0 8.954 8.954 0 20 0s20 8.954 20 20-8.954 20-20 20S0 31.046 0 20"/>
        <path fill="#584086" d="M11.029 30.286l9.691 9.697c9.469-.337 17.251-7.246 18.937-16.309L24.023 8.04l-2.314-.651-1.755-1.749-.571 2.4-2.434-.897 1.48 1.474L12 15.451l5.594 5.618-1.463 7.48-5.102 1.737"/>
        <path fill="#EDA12D" d="M24.023 8.04c-.32 6.669-2.012 12.731-4.64 17.497h4.828c-.662-1.263-.057-2.937 1.629-7.823 1.234-3.571.497-7.605-1.817-9.674"/>
        <path fill="#F6CE22" d="M20.84 6.68c-.783-1.143-2.109-2.109-2.109-2.109s-.182 1.749 0 2.172c-.725-.726-1.537-.692-2.171-.783 0 .617.303 1.383 1.086 1.749 0 0-2.469.537-3.012 1.862-.543 1.326-3.977 4.04-3.074 5.366.903 1.32 2.474 1.623 3.737.6 1.263-1.023 3.132-1.806 2.772.063-.36 1.863-4.4 6.566-3.555 9.937h4.869c2.628-4.766 4.32-10.828 4.64-17.497a5.305 5.305 0 0 0-3.183-1.36"/>
        <path fill="#B5682F" d="M25.286 25.48h-5.903v1.44h5.903c.4 0 .725-.32.725-.72 0-.4-.325-.72-.725-.72"/>
        <path fill="#D87C2E" d="M13.6 25.48c-.4 0-.726.32-.726.72 0 .4.326.72.726.72h5.783v-1.44H13.6"/>
        <path fill="#EDA12D" d="M26.046 26.811h-6.663v3.475h8.474c.76 0-1.051-3.475-1.811-3.475"/>
        <path fill="#F6CE22" d="M12.834 26.811c-.76 0-2.565 3.475-1.805 3.475h8.354V26.81h-6.549"/>
        <path fill="#B5682F" d="M15.463 10.703c-.229-.423.046-1.012.606-1.309.56-.297 1.194-.194 1.422.229.223.428-.045 1.011-.605 1.308-.56.303-1.195.2-1.423-.228"/>
    </g>
</svg>
