<svg xmlns="http://www.w3.org/2000/svg" xmlns:xlink="http://www.w3.org/1999/xlink" width="40" height="40" viewBox="0 0 40 40">
    <defs>
        <path id="a" d="M.087.36H34.06v28.304H.087z"/>
        <path id="c" d="M.238.007h19.04v13.428H.238z"/>
        <path id="e" d="M.3.408h28.952V1.72H.3z"/>
        <path id="g" d="M.076.306H26.87v.621H.076z"/>
    </defs>
    <g fill="none" fill-rule="evenodd">
        <path fill="#F9C45A" d="M.276 19.994C.276 9.104 9.104.276 19.994.276s19.717 8.828 19.717 19.718S30.883 39.71 19.994 39.71C9.104 39.711.276 30.884.276 19.994"/>
        <g transform="translate(5.652 10.857)">
            <mask id="b" fill="#fff">
                <use xlink:href="#a"/>
            </mask>
            <path fill="#DDAD4D" d="M34.059 9.137c0-.298-.008-.593-.021-.887L24.424.36 6.992 13.138.087 16.322l16.99 12.342c9.595-1.331 16.982-9.566 16.982-19.527" mask="url(#b)"/>
        </g>
        <path fill="#080C0C" d="M29.536 24.116H10.537V11.932h18.999v12.184zm-.095-13.034H10.546c-.522 0-.947.45-.947 1.007l-.003 12.858c.005.002.011.001.008.001l.06-.003h20.723V12.089c.046-.82-.31-1.02-.946-1.007z"/>
        <g transform="translate(9.565 11.292)">
            <mask id="d" fill="#fff">
                <use xlink:href="#c"/>
            </mask>
            <path fill="#1A2123" d="M18.786 13.042H.765V.422h3.283l-.46-.415H.98c-.408 0-.74.355-.74.79L.238 13.435h19.04l-.492-.393" mask="url(#d)"/>
        </g>
        <path fill="#E1E8E8" d="M18.17 11.924h-7.66v12.23H29.56v-12.23z"/>
        <path fill="#497AC1" d="M10.534 12.9h18.958v-.968H10.534z"/>
        <path fill="#6B7F4C" d="M10.994 16.997h18.084v-3.193H10.994z"/>
        <path fill="#A5A8A5" d="M18.226 18.28h5.652v-.436h-5.652zM16.424 19.151h7.454v-.435h-7.454zM16.424 19.95h7.454v-.436h-7.454zM16.424 20.747h7.454v-.435h-7.454zM18.226 21.667h5.652v-.436h-5.652zM10.902 22.465h12.976v-.435H10.902zM10.902 23.264h12.976v-.436H10.902zM10.902 24.062h12.976v-.435H10.902z"/>
        <path fill="#B3BAC4" d="M11.04 20.965h4.51v-3.193h-4.51z"/>
        <path fill="#456596" d="M25.903 23.723h2.945v-5.419h-2.945v5.42zm-.138.145h3.22v-6.29h-3.22v6.29z"/>
        <path fill="#FF8B78" d="M11.317 16.66h2.393v-2.565h-2.393z"/>
        <path fill="#5B1919" d="M5.31 25.829v.875c0 .483.534.874 1.194.874h26.98c.66 0 1.194-.391 1.194-.874v-.875H5.31z"/>
        <g transform="translate(5.217 25.64)">
            <mask id="f" fill="#fff">
                <use xlink:href="#e"/>
            </mask>
            <path fill="#1A2123" d="M1.286 1.72C.752 1.72.3 1.42.3 1.064V.408h28.952v.656c0 .356-.451.656-.985.656H1.287z" mask="url(#f)"/>
        </g>
        <path fill="#6D6262" d="M34.678 25.829l-4.29-.884-20.792.002-4.286.882z"/>
        <g transform="translate(6.522 24.77)">
            <mask id="h" fill="#fff">
                <use xlink:href="#g"/>
            </mask>
            <path fill="#1A2123" d="M.076.927l3.01-.619L23.854.306l3.016.621z" mask="url(#h)"/>
        </g>
        <path fill="#282323" d="M31.429 25.659l-2.572-.544-17.73.002-2.566.542z"/>
    </g>
</svg>
