<svg xmlns="http://www.w3.org/2000/svg" width="40" height="40" viewBox="0 0 40 40">
    <g fill="none" fill-rule="evenodd">
        <path fill="#425C8F" d="M0 20C0 8.954 8.954 0 20 0s20 8.954 20 20-8.954 20-20 20S0 31.046 0 20"/>
        <path fill="#2D4470" d="M39.971 21.04l-9.131-9.137-.989-.217-1.457-1.583-1.245.966-1.698-1.692-3.165 3.766-3.143 3.617-3.823-3.206-.177.126-.737-.737-.286.76-1.103-1.103s-.703 1.189-.788 1.474c-.086.286-1.583 1.069-1.583 1.069L9.4 15.017l.994.994-1.211.423.8.8-.452.589.76.76-.148.314 2.091 2.097-.588 1.366-2.857 3.177-1.646.24 1.326 1.326-.846.6 1.251 1.251-.074.349 10.686 10.686c.171 0 .343.011.514.011 10.697 0 19.434-8.4 19.971-18.96"/>
        <path fill="#7DB6BC" d="M32.857 17.497v-.72l-1.611-.417a7.109 7.109 0 0 0-.172-.857l1.332-1.006-.275-.663-1.651.229a6.98 6.98 0 0 0-.486-.726l.846-1.434-.509-.509-1.44.846a5.183 5.183 0 0 0-.725-.486l.228-1.651-.657-.274-1.011 1.325a6.803 6.803 0 0 0-.852-.171l-.423-1.606h-.354v5.2a2.56 2.56 0 1 1 0 5.12v5.2h.354l.423-1.611c.292-.035.577-.092.852-.166l1.011 1.326.657-.275-.228-1.651c.257-.143.497-.303.725-.486l1.44.846.509-.509-.846-1.44c.177-.222.337-.468.486-.72l1.651.229.275-.663-1.332-1.006c.075-.28.132-.565.172-.857l1.611-.417"/>
        <path fill="#AAD6DA" d="M22.531 17.137a2.564 2.564 0 0 1 2.566-2.56v-5.2h-.36l-.423 1.606c-.291.04-.577.097-.851.171L22.457 9.83l-.663.274.223 1.651a5.89 5.89 0 0 0-.72.486l-1.434-.846-.514.509.845 1.434a6.177 6.177 0 0 0-.485.726l-1.652-.229-.268.663 1.325 1.006c-.074.28-.131.566-.171.857l-1.612.417v.72l1.612.417c.04.292.097.577.171.857l-1.325 1.006.268.663 1.652-.229c.142.252.308.498.485.72l-.845 1.44.514.509 1.434-.846c.229.183.474.343.72.486l-.223 1.651.663.275 1.006-1.326c.274.074.56.131.851.166l.423 1.611h.36v-5.2a2.56 2.56 0 0 1-2.566-2.56"/>
        <path fill="#649EA3" d="M16.514 16.434v-.343l-.76-.194a4.248 4.248 0 0 0-.08-.406l.623-.474-.131-.314-.777.108a2.751 2.751 0 0 0-.229-.342l.4-.675-.24-.24-.68.395a3.574 3.574 0 0 0-.343-.229l.109-.777-.309-.132-.474.629a3.183 3.183 0 0 0-.406-.08l-.2-.76h-.166v2.451c.669 0 1.206.543 1.206 1.212 0 .668-.537 1.211-1.206 1.211v2.452h.166l.2-.76c.137-.017.274-.046.406-.08l.474.628.309-.131-.109-.777c.12-.069.234-.149.343-.229l.68.394.24-.234-.4-.68c.086-.108.16-.223.229-.343l.777.109.131-.314-.623-.475c.035-.131.057-.268.08-.4l.76-.2"/>
        <path fill="#7DB6BC" d="M12.846 17.474a1.21 1.21 0 0 1 0-2.423l.005-2.451h-.171l-.2.76a3.097 3.097 0 0 0-.4.08l-.48-.629-.309.132.103.777a3.487 3.487 0 0 0-.337.229l-.68-.395-.24.24.4.675c-.086.108-.16.222-.228.342l-.778-.108-.131.314.623.474a2.998 2.998 0 0 0-.08.406l-.76.194v.343l.76.2c.017.137.046.269.08.4l-.623.475.131.314.778-.109c.068.12.142.235.228.343l-.4.68.24.234.68-.394c.103.08.223.16.337.229l-.103.777.309.131.48-.628c.131.034.263.063.4.08l.2.76h.171v-2.452h-.005M17.314 25.777v-.474l-1.057-.274a3.594 3.594 0 0 0-.108-.56l.868-.658-.177-.434-1.08.149a3.83 3.83 0 0 0-.32-.475l.554-.942-.331-.332-.943.549a5.241 5.241 0 0 0-.474-.315l.148-1.08-.434-.182-.663.874a3.53 3.53 0 0 0-.554-.114l-.28-1.058h-.234v3.406a1.68 1.68 0 1 1 0 3.36v3.406h.234l.28-1.057c.188-.023.377-.057.554-.109l.663.869.434-.177-.148-1.08c.165-.098.32-.2.474-.32l.943.554.331-.332-.554-.942a3.83 3.83 0 0 0 .32-.475l1.08.149.177-.434-.868-.658c.051-.182.085-.371.108-.56l1.057-.274"/>
        <path fill="#AAD6DA" d="M10.554 25.537c0-.926.749-1.68 1.675-1.68v-3.406h-.235l-.274 1.058a3.602 3.602 0 0 0-.56.114l-.663-.874-.428.182.148 1.08c-.166.098-.326.2-.474.315l-.943-.549-.331.332.548.942a3.789 3.789 0 0 0-.314.475l-1.08-.149-.183.434.869.658a4.41 4.41 0 0 0-.109.56l-1.057.274v.474l1.057.274c.023.189.063.378.109.56l-.869.658.183.434 1.08-.149c.091.166.2.326.314.475l-.548.942.331.332.943-.554c.148.12.308.222.474.32l-.148 1.08.428.177.663-.869c.183.052.366.086.56.109l.274 1.057h.235v-3.406a1.674 1.674 0 0 1-1.675-1.68"/>
    </g>
</svg>
