<svg xmlns="http://www.w3.org/2000/svg" width="40" height="40" viewBox="0 0 40 40">
    <g fill="none" fill-rule="evenodd">
        <path fill="#E8EDEA" d="M0 20C0 8.954 8.954 0 20 0s20 8.954 20 20-8.954 20-20 20S0 31.046 0 20"/>
        <path fill="#B3BAB9" d="M17.857 31.52l7.692 7.691c6.76-1.948 12.051-7.36 13.817-14.194l-8.349-7.663-13.16 14.166"/>
        <path fill="#26588F" d="M26.834 13.166l-5.457-5.457a1.917 1.917 0 0 0-1.28-.555v12.749l6.737-6.737"/>
        <path fill="#2B6C9A" d="M18.606 7.726l-5.44 5.44-2.915 5.171 4.503 4.274L20 20l.097-.097V7.154a1.95 1.95 0 0 0-1.491.572"/>
        <path fill="#96AC3C" d="M26.834 26.834l5.457-5.457c.766-.771.749-2-.022-2.771l-5.435-5.44-2.697 2.697c-.617-.617-.526-1.697-1.057-2.234-.537-.532-1.457-.698-2.451.297-.995.994-.835 1.92-.298 2.451.532.537 1.612.446 2.229 1.063L20 20l6.834 6.834"/>
        <path fill="#4D322C" d="M26.834 26.834l-2.697-2.697c.617-.617 1.697-.526 2.234-1.057.532-.537.698-1.463-.297-2.451-.994-.995-1.92-.835-2.451-.298-.537.532-.446 1.612-1.063 2.229l-2.463-2.469v12.755a1.958 1.958 0 0 0 1.297-.577l5.44-5.435"/>
        <path fill="#663B35" d="M20 20l-6.834 6.834 5.457 5.452a1.91 1.91 0 0 0 1.474.56V20.09L20 20"/>
        <path fill="#DCAD3E" d="M17.44 17.44c-.617.611-.526 1.691-1.063 2.229-.531.537-1.457.697-2.451-.298-.995-.994-.829-1.914-.297-2.451.537-.537 1.617-.446 2.234-1.057l-2.697-2.697-5.457 5.457c-.766.771-.749 2 .022 2.771l5.435 5.44 2.697-2.697c.617.617.526 1.697 1.057 2.234.537.532 1.457.698 2.451-.297.995-.994.835-1.92.298-2.451-.538-.537-1.618-.446-2.229-1.063L20 20l-2.56-2.56"/>
    </g>
</svg>
