<svg xmlns="http://www.w3.org/2000/svg" width="40" height="40" viewBox="0 0 40 40">
    <g fill="none" fill-rule="evenodd">
        <path fill="#ADBFD8" d="M0 20C0 8.954 8.954 0 20 0s20 8.954 20 20-8.954 20-20 20S0 31.046 0 20"/>
        <path fill="#8AA2C5" d="M10.446 29.553l10.428 10.425C31.514 39.52 40 30.753 40 20c0-1.407-.149-2.78-.423-4.106l-9.211-9.212-19.92 22.87"/>
        <path fill="#BE282B" d="M28.629 11.37L10.446 29.553a12.83 12.83 0 0 0 9.091 3.765c7.103 0 12.857-5.756 12.857-12.857 0-3.55-1.434-6.764-3.765-9.091"/>
        <path fill="#CF4143" d="M19.537 7.603c-7.097 0-12.857 5.758-12.857 12.858 0 3.55 1.44 6.765 3.766 9.092L28.629 11.37a12.806 12.806 0 0 0-9.092-3.767"/>
        <path fill="#CDCCC7" d="M19.537 30.747A10.283 10.283 0 0 0 29.823 20.46c0-2.84-1.149-5.412-3.012-7.274L12.27 27.734a10.235 10.235 0 0 0 7.268 3.013"/>
        <path fill="#FFFFFE" d="M9.251 20.461a10.25 10.25 0 0 0 3.018 7.273L26.81 13.187a10.258 10.258 0 0 0-7.274-3.012c-5.68 0-10.286 4.606-10.286 10.286"/>
        <path fill="#BE282B" d="M19.537 28.175a7.713 7.713 0 0 0 7.714-7.714c0-2.13-.862-4.059-2.257-5.455l-10.908 10.91a7.687 7.687 0 0 0 5.451 2.26"/>
        <path fill="#CF4143" d="M19.537 12.746a7.717 7.717 0 0 0-7.714 7.715c0 2.13.868 4.058 2.263 5.455l10.908-10.91a7.689 7.689 0 0 0-5.457-2.26"/>
        <path fill="#CDCCC7" d="M19.537 25.604a5.144 5.144 0 0 0 5.143-5.143c0-1.42-.571-2.706-1.503-3.637l-7.274 7.273a5.128 5.128 0 0 0 3.634 1.507"/>
        <path fill="#FFFFFE" d="M19.537 15.318a5.143 5.143 0 0 0-3.634 8.78l7.274-7.274a5.133 5.133 0 0 0-3.64-1.506"/>
        <path fill="#CB8F31" d="M19.537 23.033a2.57 2.57 0 0 0 2.572-2.572c0-.71-.286-1.353-.749-1.819l-3.64 3.637a2.568 2.568 0 0 0 1.817.754"/>
        <path fill="#F1AE2B" d="M19.537 17.89a2.574 2.574 0 0 0-2.571 2.571c0 .71.291 1.353.754 1.818l3.64-3.637a2.573 2.573 0 0 0-1.823-.753"/>
        <path fill="#202A2F" d="M20.149 18.685l9.32-9.319 1.165 1.165-9.32 9.32s-1.263 1.122-1.777.61c-.508-.513.612-1.776.612-1.776"/>
        <path fill="#CB8F31" d="M26.697 13.303l3.269-.312 3.354-3.354-2.669-.285-3.954 3.951"/>
        <path fill="#F1AE2B" d="M30.366 6.682l-3.355 3.355-.314 3.266 3.954-3.951-.285-2.67"/>
    </g>
</svg>
