<svg xmlns="http://www.w3.org/2000/svg" xmlns:xlink="http://www.w3.org/1999/xlink" width="40" height="40" viewBox="0 0 40 40">
    <defs>
        <path id="a" d="M.153.243h17.22v1.594H.153z"/>
        <path id="c" d="M.297.15h19.06v2.764H.297z"/>
        <path id="e" d="M.363.205h16.084v1.74H.363z"/>
        <path id="g" d="M.113.25h5.49v6.968H.114z"/>
        <path id="i" d="M.422.173h1.952v2.824H.422z"/>
        <path id="k" d="M.124.31H9.46V11.53H.124z"/>
    </defs>
    <g fill="none" fill-rule="evenodd">
        <path fill="#6D5996" d="M40 20c0 11.046-8.954 20-20 20C8.955 40 0 31.046 0 20S8.955 0 20 0c11.046 0 20 8.954 20 20"/>
        <path fill="#DCC396" d="M10.737 17.784l-.211 10.528-.033.001v.55l.527-.38zM10.737 17.784l.131-6.532v-.002c.036-.009.071-.02.106-.031h-.41l.173 6.565z"/>
        <path fill="#E5E5E5" d="M27.731 11.24h-.005l.002-.122-.347.03v.093l-16.513.01-.305-.033h-.076l.008 20.686 17.272.013z"/>
        <g transform="translate(10.222 11.098)">
            <mask id="b" fill="#fff">
                <use xlink:href="#a"/>
            </mask>
            <path fill="#1C1D1B" d="M.153 1.837h17.22V.243H.154z" mask="url(#b)"/>
        </g>
        <path fill="#999" d="M16.458 15.021h8.958v-.567h-8.958zM16.458 18.763h8.958v-.567h-8.958zM16.401 22.25h8.958v-.567h-8.958zM16.175 26.077h8.958v-.567h-8.958z"/>
        <path stroke="#231F20" stroke-linecap="round" stroke-linejoin="round" stroke-width=".5" d="M10.902 12.527h.085"/>
        <path stroke="#231F20" stroke-dasharray="0.1666666666666667,0.6666666666666666" stroke-linecap="round" stroke-linejoin="round" stroke-width=".5" d="M11.654 12.528l15.498.027"/>
        <path stroke="#231F20" stroke-linecap="round" stroke-linejoin="round" stroke-width=".5" d="M27.486 12.555h.084"/>
        <path stroke="#15181C" stroke-linecap="round" stroke-width=".51" d="M12.32 16.439l.893.875 2.508-2.633M12.32 19.84l.893.876 2.508-2.633M12.32 23.242l.893.876 2.508-2.633"/>
        <path fill="#F6CA45" d="M28.524 8.514a.824.824 0 0 0-.67-.324H11.696c-1.701-.114-2.066.672-2.066 1.27v.792c.132.666.36 1.085.94 1.094l17.026-.01c.482 0 .898-.25 1.094-.612-.076-.736-.16-1.47-.166-2.21"/>
        <g transform="translate(9.333 8.432)">
            <mask id="d" fill="#fff">
                <use xlink:href="#c"/>
            </mask>
            <path fill="#D7942F" d="M17.112 2.444c-1.698-.01-12.902-.076-15.635.075C.006 2.601.632.275.667.15c-.284.255-.37.59-.37.88v.79c.131.667.36 1.086.94 1.096l17.026-.01c.481 0 .897-.25 1.094-.613l-.066-.635c-1.868.116-.352.797-2.179.787" mask="url(#d)"/>
        </g>
        <g transform="translate(9.778 8.432)">
            <mask id="f" fill="#fff">
                <use xlink:href="#e"/>
            </mask>
            <path fill="#F6CA45" d="M16.016 1.188c0-.376.165-.72.431-.977H2.428C.728.15.363.581.363.91v.434c.131.366.36.596.94.601l14.954-.004a1.319 1.319 0 0 1-.241-.753" mask="url(#f)"/>
        </g>
        <path fill="#474C45" d="M27.577 11.161v-.002.002h-.411c-.577-.195-.997-.782-.997-1.478 0-.856.634-1.55 1.417-1.55.086 0 .17.01.252.026l.005-.026s.804.368.804 2.07l1.65 18.185-1.51-.075-1.134-17.152h-.076z"/>
        <path fill="#373A35" d="M28.483 8.442c-.349-.24-.64-.31-.64-.31l-.005.027a1.313 1.313 0 0 0-.252-.026c-.783 0-1.417.694-1.417 1.55 0 .434.164.827.427 1.108a1.692 1.692 0 0 1-.03-.314c0-.857.634-1.55 1.416-1.55.087 0 .171.01.252.025l.005-.025s.126.029.31.117c-.027-.2-.051-.4-.066-.602M28.05 11.955h-.255l-.067-.737v.737h-.022l.022.338-.006 16.02 1.55.032-.516-5.728z"/>
        <path fill="#E84F4F" d="M27.622 14.457l-2.192-1.692c-.099-.076-.283-.003-.412.164l-3.706 4.802-.008.01-4.276 5.563 1.318 1.882 1.18.11 4.332-5.595.003-.002 3.706-4.802c.129-.167.153-.364.055-.44"/>
        <g transform="translate(17.778 15.987)">
            <mask id="h" fill="#fff">
                <use xlink:href="#g"/>
            </mask>
            <path fill="#F3F3F3" d="M5.529.29c.1.078.1.247-.002.378L.555 7.083c-.102.131-.266.174-.367.096-.1-.078-.1-.247.002-.378L5.163.386c.101-.132.265-.174.366-.096" mask="url(#h)"/>
        </g>
        <path fill="#F3F3F3" d="M26.497 16.264l.369-.49-2.54-1.913-.37.49z"/>
        <path fill="#FFF" d="M26.208 16.545l.142-.188-2.506-1.886-.142.187z"/>
        <path fill="#D8A956" d="M16.422 25.82l.606-2.516.737-.032.039.697.85-.076.037.76.76-.037.075.68-2.204 1.107z"/>
        <g transform="translate(16 23.098)">
            <mask id="j" fill="#fff">
                <use xlink:href="#i"/>
            </mask>
            <path fill="#F7CC89" d="M2.374.82l-.57.05-.038-.697-.738.033-.606 2.516.425.275c.52-.673 1.03-1.36 1.527-2.177" mask="url(#j)"/>
        </g>
        <path fill="#231F20" d="M16.437 25.85l-.329 1.207 1.194-.646z"/>
        <g transform="translate(18.222 13.765)">
            <mask id="l" fill="#fff">
                <use xlink:href="#k"/>
            </mask>
            <path fill="#020000" d="M9.4.692L8.904.309.124 11.421l1.18.11 4.332-5.595.003-.002 3.706-4.802c.129-.167.153-.364.055-.44" mask="url(#l)"/>
        </g>
    </g>
</svg>
