<svg xmlns="http://www.w3.org/2000/svg" xmlns:xlink="http://www.w3.org/1999/xlink" width="40" height="40" viewBox="0 0 40 40">
    <defs>
        <circle id="a" cx="20" cy="20" r="20"/>
        <path id="c" d="M0 40h40V0H0z"/>
    </defs>
    <g fill="none" fill-rule="evenodd">
        <mask id="b" fill="#fff">
            <use xlink:href="#a"/>
        </mask>
        <use fill="#D8D8D8" xlink:href="#a"/>
        <g mask="url(#b)">
            <mask id="d" fill="#fff">
                <use xlink:href="#c"/>
            </mask>
            <use fill="#8A674A" xlink:href="#c"/>
            <path fill="#58402D" d="M40 22.53L36.3 35.3l-11.51 4.198-9.982-7.157 3.088-1.406.18-5.162-3.155-7.031.399-3.593.406-1.374.577-.967 1.683 1.585 1.008-3.756 2.22 1.87.52-2.674 1.975 1.682.764-.845z" mask="url(#d)"/>
            <path fill="#FAD6A3" d="M23.627 10.296c-.642 0-1.162.528-1.162 1.162v9.308a1.162 1.162 0 1 0 2.325 0v-9.308c0-.634-.529-1.162-1.163-1.162M20.904 9.45c-.642 0-1.17.562-1.17 1.253v9.982c0 .682.528 1.243 1.17 1.243.634 0 1.163-.56 1.163-1.243v-9.982c0-.691-.529-1.252-1.163-1.252M18.173 10.296c-.634 0-1.162.528-1.162 1.162v9.308a1.167 1.167 0 0 0 2.333 0v-9.308c0-.634-.529-1.162-1.171-1.162M15.45 12.442c-.634 0-1.163.52-1.163 1.162v7.162a1.162 1.162 0 1 0 2.325 0v-7.162c0-.642-.52-1.162-1.162-1.162M29.277 21.189a1.165 1.165 0 0 0-1.634-.204l-5.658 4.398a1.164 1.164 0 0 0-.203 1.634 1.17 1.17 0 0 0 1.634.203l5.65-4.398c.512-.398.6-1.13.21-1.633" mask="url(#d)"/>
            <path fill="#FAD6A3" d="M14.287 19.148H24.79v6.032a3.677 3.677 0 0 1-3.666 3.666h-3.17a3.677 3.677 0 0 1-3.667-3.666v-6.032" mask="url(#d)"/>
            <path fill="#FAD6A3" d="M16.01 28.846h7.056v-1.91h-7.055z" mask="url(#d)"/>
            <path fill="#EBEBE7" d="M15.32 30.154h8.437v-1.308H15.32z" mask="url(#d)"/>
            <path fill="#64A7AA" d="M14.808 32.341h9.462v-2.187h-9.462z" mask="url(#d)"/>
        </g>
    </g>
</svg>
