<svg xmlns="http://www.w3.org/2000/svg" xmlns:xlink="http://www.w3.org/1999/xlink" width="40" height="40" viewBox="0 0 40 40">
    <defs>
        <path id="a" d="M.389.374h3.78v1.74H.388z"/>
        <path id="c" d="M.19.207h20.089V9.37H.189z"/>
        <path id="e" d="M.345.233H23.38v2.231H.345z"/>
        <path id="g" d="M.06.366h4.69v1.747H.06z"/>
        <path id="i" d="M.208.167h2.107v.943H.208z"/>
        <path id="k" d="M.397.27h2.108v.942H.397z"/>
        <path id="m" d="M.13.27h2.108v.942H.13z"/>
    </defs>
    <g fill="none" fill-rule="evenodd">
        <path fill="#87D1FF" d="M40 20c0 11.046-8.954 20-20 20C8.955 40 0 31.046 0 20S8.955 0 20 0c11.046 0 20 8.954 20 20"/>
        <path fill="#7CC0EA" d="M27.424 9l-15.07 19.58-4.15 1.165L20.118 40C31.054 39.82 40 30.89 40 19.093 35.485 15.143 27.424 9 27.424 9z"/>
        <path fill="#D39775" d="M23.704 15.736h3.647v-4.043h-3.647z"/>
        <g transform="translate(23.076 11.325)">
            <mask id="b" fill="#fff">
                <use xlink:href="#a"/>
            </mask>
            <path fill="#000" d="M4.168.374l-2.767 1.74-.93-.781L.39.374z" mask="url(#b)"/>
        </g>
        <path fill="#A37440" d="M27.84 11.024c0 .372-.283.675-.63.675h-3.457c-.348 0-.63-.303-.63-.675v-.45c0-.373.282-.675.63-.675h3.458c.346 0 .628.302.628.675v.45z"/>
        <path fill="#704E25" d="M27.84 11.024c0 .372-.242.675-.538.675h-2.954c-.297 0-.537-.303-.537-.675v-.45c0-.373.24-.675.537-.675h2.954c.296 0 .537.302.537.675v.45z"/>
        <path fill="#D39775" d="M27.058 18.572l-7.9-7.017-.176.154v-.105l-8 6.94V28.796s.005.153.173.294c.205.216.517.234.517.234h14.785s.667-.073.596-.96l.005-9.792z"/>
        <path fill="#AA775E" d="M12.944 29.324h5.423v-8.856h-5.423z"/>
        <path fill="#422D1F" d="M20.119 24.591h4.703v-4.733h-4.703z"/>
        <path fill="#915B36" d="M20.274 24.435h4.393v-4.421h-4.393z"/>
        <path fill="#A37440" d="M8.243 17.674L18.321 8.64s.612-.684 1.908.468l9.754 8.782s.612 2.123-1.656 1.764l-9.176-8.099-9.36 8.14s-2.628.318-1.548-2.021"/>
        <path fill="#704E25" d="M9.79 19.694s-1.554-.46-.733-1.972l10.126-9.19s.632.116 1.684 1.15l9.116 8.208s.574 2.007-1.706 1.82l-9.19-8.155-9.296 8.14z"/>
        <g transform="translate(8.728 10.455)">
            <mask id="d" fill="#fff">
                <use xlink:href="#c"/>
            </mask>
            <path fill="#000" d="M20.279 9.06L10.057.206.487 8.592s-.132-.04-.298-.132c.249.522.873.708.873.708l9.297-8.14 9.19 8.154c.514.454.658-.05.73-.122" mask="url(#d)"/>
        </g>
        <path fill="#FFF" d="M22.724 21.863h1.388v-1.371h-1.388zM22.724 23.975h1.388v-1.371h-1.388zM20.732 21.863h1.388v-1.371h-1.388zM20.732 23.975h1.388v-1.371h-1.388z"/>
        <path fill="#704E25" d="M8.203 30.745H31.24v-2.231H8.203z"/>
        <path fill="#A37440" d="M8.203 28.946h22.1v-.432h-22.1z"/>
        <g transform="translate(7.859 28.281)">
            <mask id="f" fill="#fff">
                <use xlink:href="#e"/>
            </mask>
            <path fill="#000" d="M23.38 2.464H.345v-.648h22.027V.233h1.008z" mask="url(#f)"/>
        </g>
        <g transform="translate(23.076 9.585)">
            <mask id="h" fill="#fff">
                <use xlink:href="#g"/>
            </mask>
            <path fill="#000" d="M4.364.366c.016.06.026.125.026.19v.45c0 .373-.281.676-.629.676H.304a.59.59 0 0 1-.243-.053c.076.28.317.485.603.485H4.12c.347 0 .629-.302.629-.675v-.45c0-.28-.16-.52-.386-.623" mask="url(#h)"/>
        </g>
        <path fill="#422D1F" d="M13.636 28.572h4.098v-7.217h-4.098z"/>
        <path fill="#915B36" d="M13.772 28.458h3.768V25.18h-3.768z"/>
        <path fill="#FFF" d="M13.897 24.987h1.685v-3.188h-1.685zM15.798 24.987h1.685v-3.188h-1.685z"/>
        <path fill="#422D1F" d="M16.93 15.072h2.107v-.944h-2.108z"/>
        <g transform="translate(17.859 15.238)">
            <mask id="j" fill="#fff">
                <use xlink:href="#i"/>
            </mask>
            <path fill="#422D1F" d="M.207 1.11h2.108V.167H.207z" mask="url(#j)"/>
        </g>
        <path fill="#422D1F" d="M15.626 16.32h2.108v-.944h-2.108z"/>
        <g transform="translate(24.38 26.977)">
            <mask id="l" fill="#fff">
                <use xlink:href="#k"/>
            </mask>
            <path fill="#422D1F" d="M.397 1.212h2.108V.269H.397z" mask="url(#l)"/>
        </g>
        <path fill="#422D1F" d="M23.613 27.024h2.107v-.943h-2.107z"/>
        <g transform="translate(22.207 26.977)">
            <mask id="n" fill="#fff">
                <use xlink:href="#m"/>
            </mask>
            <path fill="#422D1F" d="M.13 1.212h2.108V.269H.13z" mask="url(#n)"/>
        </g>
        <path fill="#422D1F" d="M11.3 19.925h2.107v-.943H11.3zM11.078 21.09h1.276v-.944h-1.276z"/>
    </g>
</svg>
