<svg xmlns="http://www.w3.org/2000/svg" xmlns:xlink="http://www.w3.org/1999/xlink" width="40" height="40" viewBox="0 0 40 40">
    <defs>
        <path id="a" d="M.01.061h20.41v.455H.01z"/>
    </defs>
    <g fill="none" fill-rule="evenodd">
        <path fill="#505050" d="M40 20c0 11.046-8.954 20-20 20C8.955 40 0 31.046 0 20S8.955 0 20 0c11.046 0 20 8.954 20 20"/>
        <path fill="#1B1C1C" d="M10.517 23.245h19.044V9.69H10.517z"/>
        <path fill="#D6D6D6" d="M10.517 22.65h19.044V10.285H10.517z"/>
        <path fill="#844F34" d="M9.599 9.873h20.79v-1.19H9.599zM19.398 30.023h1.19v-6.595h-1.19z"/>
        <path fill="#D3935F" d="M19.611 29.597h.595v-5.294h-.595z"/>
        <path fill="#844F34" d="M15.46 31.305h8.976v-1.65H15.46zM9.599 24.252h20.79v-1.19H9.599z"/>
        <path fill="#231A1A" d="M25.23 15.777l-2.864 2.484-.097.083-.092-.094-4.414-4.525-2.349 2.221-.207.196-.202-.213-4.065-4.274.562-.519 3.74 4.187 2.368-2.103.176-.157.155.168 4.35 4.737 2.91-2.384.08-.065.045.09 2.776 5.396z"/>
        <path fill="#B73030" d="M16.026 15.605a.808.808 0 1 0-1.615 0 .808.808 0 0 0 1.615 0"/>
        <path fill="#F9F9F9" d="M15.814 15.605a.595.595 0 1 0-1.191 0 .595.595 0 0 0 1.19 0"/>
        <path fill="#231A1A" d="M15.6 15.605a.382.382 0 1 0-.764 0 .382.382 0 0 0 .765 0"/>
        <path fill="#B73030" d="M18.535 13.436a.808.808 0 1 0-1.615 0 .808.808 0 0 0 1.615 0"/>
        <path fill="#F9F9F9" d="M18.322 13.436a.596.596 0 1 0-1.19 0 .596.596 0 0 0 1.19 0"/>
        <path fill="#231A1A" d="M18.11 13.436a.383.383 0 1 0-.766 0 .383.383 0 0 0 .766 0"/>
        <path fill="#B73030" d="M23.127 18.071a.808.808 0 1 0-1.616 0 .808.808 0 0 0 1.616 0"/>
        <path fill="#F9F9F9" d="M22.915 18.071a.596.596 0 1 0-1.191 0 .596.596 0 0 0 1.19 0"/>
        <path fill="#231A1A" d="M22.702 18.071a.383.383 0 1 0-.765 0 .383.383 0 0 0 .765 0"/>
        <path fill="#B73030" d="M26.019 15.732a.807.807 0 1 0-1.615 0 .807.807 0 0 0 1.615 0"/>
        <path fill="#F9F9F9" d="M25.806 15.732a.595.595 0 1 0-1.19 0 .595.595 0 0 0 1.19 0"/>
        <path fill="#231A1A" d="M25.594 15.732a.383.383 0 1 0-.765 0 .383.383 0 0 0 .765 0"/>
        <path fill="#B73030" d="M28.868 20.92a.808.808 0 1 0-1.615 0 .808.808 0 0 0 1.615 0"/>
        <path fill="#F9F9F9" d="M28.655 20.92a.595.595 0 1 0-1.19 0 .595.595 0 0 0 1.19 0"/>
        <path fill="#231A1A" d="M28.443 20.92a.383.383 0 1 0-.766 0 .383.383 0 0 0 .766 0"/>
        <path fill="#D3935F" d="M15.741 30.794h7.74v-.935h-7.74zM9.703 23.765h20.41v-.456H9.704z"/>
        <g transform="translate(9.778 8.876)">
            <mask id="b" fill="#fff">
                <use xlink:href="#a"/>
            </mask>
            <path fill="#D3935F" d="M.01.516h20.411V.061H.011z" mask="url(#b)"/>
        </g>
    </g>
</svg>
