<svg xmlns="http://www.w3.org/2000/svg" width="40" height="40" viewBox="0 0 40 40">
    <g fill="none" fill-rule="evenodd">
        <path fill="#E6762B" d="M0 20C0 8.954 8.954 0 20 0s20 8.954 20 20-8.954 20-20 20S0 31.046 0 20"/>
        <path fill="#DC502A" d="M12.189 8.777l3.228 3.234 1.012 5.486 3.08 3.086-4.366 8.606-.783 2.651-2.703 1.589 6.486 6.48c.611.057 1.228.091 1.857.091 11.046 0 20-8.954 20-20 0-.417-.017-.829-.04-1.24L28.343 7.143 12.189 8.777"/>
        <path fill="#49AED7" d="M13.131 10.811H20V8.777h-6.869z"/>
        <path fill="#2D8CC0" d="M11.657 7.143H20V9.17h-6.703c-.817 0-1.64-.411-1.64-2.028"/>
        <path fill="#49AED7" d="M13.131 31.223H20v-2.034h-6.869z"/>
        <path fill="#F2F2EF" d="M13.131 10.811s.92 5.366 4.2 7.378c.378.228 1.36.828 1.36 1.811s-.982 1.583-1.36 1.811c-3.28 2.012-4.2 7.378-4.2 7.378H20V10.81h-6.869"/>
        <path fill="#2D8CC0" d="M11.657 32.857H20V30.83h-6.703c-.817 0-1.64.411-1.64 2.028"/>
        <path fill="#EDA12D" d="M15.514 14.143c.566 1.16 1.36 2.326 2.457 3 .486.291 1.538 1.188 1.538 2.857 0 1.669.085 5.509-1.629 6.331-1.72.818-2.88 1.572-3.52 2.858H20V14.143h-4.486"/>
        <path fill="#249ABF" d="M20 10.811h6.869V8.777H20z"/>
        <path fill="#1C7793" d="M28.343 7.143H20V9.17h6.703c.823 0 1.64-.411 1.64-2.028"/>
        <path fill="#249ABF" d="M20 31.223h6.869v-2.034H20z"/>
        <path fill="#CDCCC7" d="M26.869 10.811s-.92 5.366-4.2 7.378c-.378.228-1.36.828-1.36 1.811s.982 1.583 1.36 1.811c3.28 2.012 4.2 7.378 4.2 7.378H20V10.81h6.869"/>
        <path fill="#1C7793" d="M28.343 32.857H20V30.83h6.703c.823 0 1.64.411 1.64 2.028"/>
        <path fill="#D8862F" d="M24.486 14.143c-.56 1.16-1.36 2.326-2.457 3-.486.291-1.538 1.188-1.538 2.857 0 1.669-.085 5.509 1.629 6.331 1.72.818 2.88 1.572 3.526 2.858H20V14.143h4.486"/>
    </g>
</svg>
