<svg xmlns="http://www.w3.org/2000/svg" xmlns:xlink="http://www.w3.org/1999/xlink" width="40" height="40" viewBox="0 0 40 40">
    <defs>
        <path id="a" d="M0 0h31v27H0z"/>
        <path id="c" d="M.342.412h.582V4.09H.342z"/>
        <path id="e" d="M.102.167h5.226v5.368H.102z"/>
        <path id="g" d="M.04.26h2.906v.893H.04z"/>
        <path id="i" d="M.228.378h2.906v.892H.228z"/>
    </defs>
    <g fill="none" fill-rule="evenodd">
        <path fill="#D8C29D" d="M.582 24.796C-2.052 14.076 4.506 3.237 15.23.588 25.955-2.06 36.784 4.483 39.418 15.204c2.634 10.72-3.924 21.559-14.648 24.208C14.045 42.06 3.216 35.517.582 24.796"/>
        <g transform="translate(9 13)">
            <mask id="b" fill="#fff">
                <use xlink:href="#a"/>
            </mask>
            <path fill="#BAA37D" d="M21.344.993L0 16.622s9.629 7.894 13.257 10.262c.835-.1 1.67-.27 2.513-.472C24.839 24.234 30.738 16.179 31 7.184c-.522-.28-9.246-6.407-9.246-6.407l-.41.216z" mask="url(#b)"/>
        </g>
        <path fill="#6D461F" d="M31.288 28.499c0 .563-.445 1.019-.993 1.019H9.243c-.549 0-.993-.456-.993-1.02V14.56c0-.562.444-1.018.993-1.018h21.052c.548 0 .993.456.993 1.018V28.5z"/>
        <path fill="#443221" d="M14.366 13.542H9.243c-.548 0-.993.456-.993 1.019v3.737c2.06-1.558 4.15-3.078 6.116-4.756M29.556 17.275c.583.473 1.16.955 1.732 1.442V14.56c0-.562-.445-1.018-.993-1.018h-5.002c1.27 1.405 2.8 2.544 4.263 3.733"/>
        <path fill="#CEBB9B" d="M10.696 29.433h2.587V13.541h-2.587z"/>
        <path fill="#FCDFAE" d="M10.377 29.476h.637V13.5h-.637z"/>
        <path fill="#997233" d="M12.645 29.518h.638V13.54h-.638z"/>
        <path fill="#CEBB9B" d="M26.042 29.518h2.588V13.54h-2.588z"/>
        <path fill="#BF8F3A" d="M10.377 14.321h2.906v-.892h-2.906z"/>
        <path fill="#EFC550" d="M10.377 13.89h2.906v-.461h-2.906z"/>
        <g transform="translate(13.933 13.169)">
            <mask id="d" fill="#fff">
                <use xlink:href="#c"/>
            </mask>
            <path fill="#000" d="M.342 3.732c0 .198.13.357.29.357.161 0 .292-.16.292-.357V.412H.342v3.32z" mask="url(#d)"/>
        </g>
        <path fill="#E2CF59" d="M14.042 16.862c0 .197.13.357.29.357.161 0 .292-.16.292-.357v-3.32h-.582v3.32z"/>
        <path fill="#443221" d="M15.002 13.542v-.797s-.301-.145 0-.435c0 0 3.208-3.297 7.638-1.16 0 0 1.896 1.087 1.896 1.268 0 0 .159.164-.089.218l.074.906h-.98v-.96s-1.593-1.377-4.25-1.178c0 0-2.41.272-3.35 1.123l-.015 1.015h-.924z"/>
        <path fill="#6D461F" d="M17.16 11.88s-.716-.173-.427-.76c0 0 2.7-1.545 5.907.03 0 0 .22.61-.316.73 0 0-1.707-1.027-5.164 0"/>
        <path fill="#513528" d="M8.351 29.023h22.836s-.1.402-.496.486l-21.712.048s-.526-.086-.628-.534"/>
        <path fill="#997233" d="M28.062 29.023h.638V13.54h-.638z"/>
        <path fill="#FCDFAE" d="M25.882 29.023h.638V13.617h-.638z"/>
        <path fill="#7A7878" d="M15.25 13.542h.23v-.743s-.053.018 0-.181c.054-.2.886-.737.886-.737s.09-.224-.106-.224h-.106l-1.046.816s-.142.29.177.434l-.035.635z"/>
        <g transform="translate(11.685 14.987)">
            <mask id="f" fill="#fff">
                <use xlink:href="#e"/>
            </mask>
            <path fill="#000" d="M5.328 2.851c0 1.483-1.17 2.684-2.613 2.684S.102 4.334.102 2.851C.102 1.37 1.272.167 2.715.167S5.328 1.37 5.328 2.851" mask="url(#f)"/>
        </g>
        <path fill="#F4F4DE" d="M16.9 17.72c0 1.42-1.119 2.569-2.5 2.569s-2.5-1.15-2.5-2.568c0-1.419 1.119-2.569 2.5-2.569s2.5 1.15 2.5 2.569"/>
        <path fill="#323147" d="M13.138 16.965h2.404v-.396h-2.404zM13.138 17.75h2.404v-.397h-2.404zM13.138 18.534h2.404v-.397h-2.404z"/>
        <g transform="translate(10.337 13.169)">
            <mask id="h" fill="#fff">
                <use xlink:href="#g"/>
            </mask>
            <path fill="#9B671C" d="M2.79.26v.657H.04v.236h2.906V.26z" mask="url(#h)"/>
        </g>
        <path fill="#BF8F3A" d="M25.845 14.44h2.907v-.894h-2.907z"/>
        <path fill="#EFC550" d="M25.845 14.008h2.907v-.462h-2.907z"/>
        <g transform="translate(25.618 13.169)">
            <mask id="j" fill="#fff">
                <use xlink:href="#i"/>
            </mask>
            <path fill="#9B671C" d="M2.979.378v.657H.228v.235h2.906V.378z" mask="url(#j)"/>
        </g>
    </g>
</svg>
