<svg xmlns="http://www.w3.org/2000/svg" width="40" height="40" viewBox="0 0 40 40">
    <g fill="none" fill-rule="evenodd">
        <path fill="#87D1FF" d="M40 20c0 11.046-8.954 20-20 20C8.955 40 0 31.046 0 20 0 8.955 8.955 0 20 0c11.046 0 20 8.955 20 20"/>
        <path fill="#FFF" d="M26.111 23.901c-.242 0-.476.029-.697.082a3.456 3.456 0 0 0-1.22-1.956c1.184-.68 1.98-1.934 1.98-3.371 0-2.158-1.794-3.908-4.005-3.908-1.422 0-2.67.725-3.38 1.815a5.763 5.763 0 0 0-8.733 3.34 4.277 4.277 0 0 0-.96-.109c-2.137 0-3.813 1.488-4.277 3.362-.966 3.902 2.745 5.05 2.918 5.028l3.008.008 14.098.014c.17.027.66.013.833-.022l.092-.02c.112.014.227.02.343.02 1.406 0 2.545-.958 2.545-2.141s-1.14-2.142-2.545-2.142M31.2 14.06c-.11 0-.216.012-.317.036-.08-.359-.28-.672-.556-.892.54-.309.902-.881.902-1.536 0-.984-.817-1.782-1.825-1.782-.649 0-1.218.33-1.541.827a2.627 2.627 0 0 0-3.982 1.523 1.945 1.945 0 0 0-.438-.05c-.708 0-1.687.707-1.624 1.266 1.055-.435 2.51-.006 3.563.7a4.98 4.98 0 0 1 1.677 1.867l3.564.003c.078.012.3.006.38-.01l.042-.009c.051.006.103.01.156.01.64 0 1.16-.438 1.16-.977 0-.54-.52-.977-1.16-.977"/>
    </g>
</svg>
