<svg xmlns="http://www.w3.org/2000/svg" xmlns:xlink="http://www.w3.org/1999/xlink" width="40" height="40" viewBox="0 0 40 40">
    <defs>
        <path id="a" d="M.088.137h32.347v32.454H.088z"/>
        <path id="b" d="M.225.23h19.306v9.791H.225z"/>
        <path id="d" d="M.244.092h19.29v6.635H.245z"/>
        <path id="f" d="M.05.143h2.821v2.779H.051z"/>
    </defs>
    <g fill="none" fill-rule="evenodd">
        <path fill="#2C89BE" d="M40 19.78c0 10.925-8.955 19.78-20 19.78-11.046 0-20-8.855-20-19.78C0 8.856 8.954 0 20 0c11.045 0 20 8.856 20 19.78"/>
        <path fill="#ACBFC1" d="M10.244 16.953s-.227-.96.926-1.82l7.164-6.979s.762-.88 1.339-.92c0 0 .74-.08 1.317.44l1.441 1.38 5.394 5.32 1.133 1.06s.679.68.576 1.519l-1.359 1.76-8.297 5.6-9.634-7.36z"/>
        <g transform="translate(10 7)">
            <mask id="c" fill="#fff">
                <use xlink:href="#b"/>
            </mask>
            <path fill="#F4F4F4" d="M1.272 8.53l7.164-6.98S9.198.67 9.775.63c0 0 .74-.08 1.317.44l1.442 1.38 5.394 5.32 1.131 1.06s.302.301.472.75c-.087-.659-.574-1.147-.574-1.147l-1.131-1.06-5.395-5.319L10.99.674c-.576-.52-1.317-.44-1.317-.44-.577.04-1.339.92-1.339.92L1.17 8.134C.017 8.993.243 9.952.243 9.952l.09.068c.03-.354.204-.943.939-1.491" mask="url(#c)"/>
        </g>
        <path fill="#DBDCDD" d="M27.805 21.577c0 .594-.495 1.076-1.105 1.076l-6.595.76-7.069-.76c-.61 0-1.104-.482-1.104-1.076V8.946l12.682.048.514 1.38c.61 0 .762.106.762.7l1.915 1.06v9.443z"/>
        <path fill="#FCFCFC" d="M12.34 18.296V9.342l12.421.047-.147-.395-12.682-.048v9.097c.155.057.287.148.408.253"/>
        <g transform="translate(10 16.325)">
            <mask id="e" fill="#fff">
                <use xlink:href="#d"/>
            </mask>
            <path fill="#6C675F" d="M19.475.091l-9.66 6.014L.254.125.243.628l9.656 6.1 9.635-6.1s.01-.371-.059-.537" mask="url(#e)"/>
        </g>
        <path stroke="#231F20" stroke-width=".5" d="M20.183 22.872l2.261-1.431zM19.904 23.05l-6.468-4.08-3.192-2.017 9.655 6.1z"/>
        <path fill="#E0E5E8" d="M10.573 28.752h-.005c.16.131.367.21.592.21h17.452c.24 0 .457-.09.621-.235L19.9 23.052l-9.326 5.7z"/>
        <path stroke="#231F20" stroke-width=".5" d="M26.343 18.973l-.008.005.009-.005z"/>
        <path fill="#ECEEEE" d="M19.9 23.053l-9.656-6.1v2.816a.827.827 0 0 0-.007.104v8.189c0 .277.129.525.332.69h.004l9.326-5.7z"/>
        <path stroke="#231F20" stroke-width=".5" d="M26.335 18.978l-3.89 2.463 3.89-2.463zM29.534 16.953l-3.191 2.02zM20.183 22.873l-.28.177.005.002z"/>
        <path fill="#BEC4C6" d="M29.536 28.062v-8.19l-.002-.034v-2.885l-3.19 2.02-.009.005-3.89 2.463-2.262 1.432-.275.18-.004-.003-.005.003 9.334 5.674a.887.887 0 0 0 .303-.665"/>
        <path fill="#878787" d="M14.507 16.913h10.818v-.42H14.507zM14.507 17.904h10.818v-.42H14.507zM14.507 18.896h10.818v-.42H14.507zM25.325 19.467H14.507l.545.42h9.593z"/>
        <path fill="#ED9F2D" d="M14.62 15.436h3.992v-4.494h-3.991z"/>
        <path fill="#DBDCDD" d="M18.15 14.253c-.135-.5-.948-.66-.948-.66l-.17-.201c.26-.153.438-.461.438-.818 0-.508-.36-.92-.803-.92-.444 0-.803.412-.803.92 0 .36.182.672.445.822l-.25.217c-.854.24-.854.57-.854.57-.103.14.051.34.051.34l2.738.01c.237 0 .155-.28.155-.28"/>
        <path fill="#ED4523" d="M17.655 28.222h.957v-.48h-.957z"/>
        <path fill="#6ECEF4" d="M21.134 28.222h.957v-.48h-.957zM14.206 28.222h.957v-.48h-.957z"/>
        <path fill="#ED4523" d="M24.572 28.222h.958v-.48h-.958z"/>
        <path stroke="#231F20" stroke-width=".5" d="M11.401 17.757l-.437-.276z"/>
        <path fill="#ED4523" d="M12.24 27.742h-.188a.656.656 0 0 1-.583-.34h-.505v.165c0 .309.222.567.52.636a.693.693 0 0 0 .16.019h.627v-.48h-.032z"/>
        <path fill="#6ECEF4" d="M10.964 25.082h.437v-.96h-.437zM11.401 17.757l-.437-.276v.932h.437z"/>
        <path fill="#ED4523" d="M10.964 21.722h.437v-.96h-.437z"/>
        <path fill="#6ECEF4" d="M28.216 27.402a.634.634 0 0 1-.308.282v.538h.04a.7.7 0 0 0 .257-.05.655.655 0 0 0 .423-.605v-.165h-.412z"/>
        <path fill="#ED4523" d="M28.283 25.082h.345v-.96h-.345z"/>
        <path fill="#6ECEF4" d="M28.283 21.803h.345v-.96h-.345z"/>
        <path fill="#ED4523" d="M28.628 18.493v-.959l-.345.218v.74z"/>
        <g transform="translate(24.933 11.835)">
            <mask id="g" fill="#fff">
                <use xlink:href="#f"/>
            </mask>
            <path fill="#878787" d="M.05.142l2.821 2.78V.232z" mask="url(#g)"/>
        </g>
        <path fill="#A0A7B5" d="M24.62 8.958l.01 2.46s-.03.38.422.56l2.82.09-3.252-3.11z"/>
    </g>
</svg>
