<svg xmlns="http://www.w3.org/2000/svg" xmlns:xlink="http://www.w3.org/1999/xlink" width="40" height="40" viewBox="0 0 40 40">
    <defs>
        <path id="a" d="M.244.356H9.83v.44H.244z"/>
        <path id="c" d="M.244.23H9.83v.44H.244z"/>
        <path id="e" d="M.244.104H9.83v.44H.244z"/>
        <path id="g" d="M.318.3h9.587v.44H.318z"/>
        <path id="i" d="M.318.175h9.587v.44H.318z"/>
        <path id="k" d="M.318.048h9.587v.44H.318z"/>
    </defs>
    <g fill="none" fill-rule="evenodd">
        <path fill="#2C89BE" d="M40 20c0 11.046-8.954 20-20 20C8.955 40 0 31.046 0 20S8.955 0 20 0c11.046 0 20 8.954 20 20"/>
        <path fill="#1D76A5" d="M39.99 20.025c0-1.302-.125-2.574-.363-3.806-.015-.078-1.028-4.05-2.219-6.005-4.592-1.106-16.073-3.657-16.073-3.657l-1.956 12.416-8.164 2.977s4.932 1.616 7.654 2.806c.31.136.134 6.72-.085 9.015-.089.932-1.328 1.077-1.19 1.106 9.78 2.04 12.248 2.572 12.356 2.51 6-3.46 10.04-9.939 10.04-17.362"/>
        <path fill="#513626" d="M17.957 34.605h3.44V6.53h-3.44z"/>
        <path fill="#61412A" d="M18.601 34.605h1.75V7.193h-1.75z"/>
        <path fill="#EDA12D" d="M28.582 19.32l-1.535-1.327c-.562-.554-.923-.52-.923-.52l-1.673.013-13.304-.424.012.19c-.078 0 .063-.027.228.092.162.054.534.351.837.65l1.535 1.325s.532.437-.01.881c-.542.445-.03-.008-.03-.008l-1.653 1.435-.956-.02s.033.375.365.423a.958.958 0 0 0 .266.038h12.71l1.652.004c.251 0 .592-.277.592-.277l1.847-1.603s-.512.453.03.008c.542-.444.01-.88.01-.88"/>
        <path fill="#F6CE22" d="M28.23 18.863l-1.536-1.326c-.562-.554-.923-.52-.923-.52l-1.673.013h-12.71a.974.974 0 0 0-.225.026c.161.055.405.183.708.481l1.535 1.326s.532.436-.01.881-.03-.008-.03-.008l-1.846 1.603s-.195.158-.398.235a.958.958 0 0 0 .266.038h12.71l1.653.004c.25 0 .592-.277.592-.277l1.846-1.603s-.512.453.03.008.01-.881.01-.881"/>
        <path fill="#87661B" d="M24.125 18.083c0 .159-.215.288-.479.288h-8.63c-.264 0-.478-.13-.478-.288 0-.158.214-.287.478-.287h8.63c.264 0 .479.13.479.287M24.125 19.29c0 .16-.215.288-.479.288h-8.63c-.264 0-.478-.129-.478-.287 0-.158.214-.287.478-.287h8.63c.264 0 .479.129.479.287M24.125 20.498c0 .159-.215.287-.479.287h-8.63c-.264 0-.478-.128-.478-.287 0-.158.214-.287.478-.287h8.63c.264 0 .479.13.479.287"/>
        <g transform="translate(14.222 17.32)">
            <mask id="b" fill="#fff">
                <use xlink:href="#a"/>
            </mask>
            <path fill="#E9C942" d="M.794.537h8.63c.17 0 .32.053.404.133A.187.187 0 0 0 9.83.642c0-.158-.214-.287-.478-.287H.722C.458.355.243.484.243.642c0 .057.028.109.075.154C.341.65.545.536.794.536" mask="url(#b)"/>
        </g>
        <g transform="translate(14.222 18.654)">
            <mask id="d" fill="#fff">
                <use xlink:href="#c"/>
            </mask>
            <path fill="#E9C942" d="M.794.41h8.63a.6.6 0 0 1 .404.134.198.198 0 0 0 .002-.028c0-.158-.214-.286-.478-.286H.722C.458.23.243.358.243.516c0 .057.028.11.075.154C.341.524.545.41.794.41" mask="url(#d)"/>
        </g>
        <g transform="translate(14.222 19.987)">
            <mask id="f" fill="#fff">
                <use xlink:href="#e"/>
            </mask>
            <path fill="#E9C942" d="M.794.285h8.63c.17 0 .32.053.404.133A.193.193 0 0 0 9.83.39c0-.158-.214-.286-.478-.286H.722C.458.104.243.232.243.39c0 .057.028.11.075.154.023-.146.227-.26.476-.26" mask="url(#f)"/>
        </g>
        <path fill="#EDA12D" d="M11.344 12.598l1.535-1.326c.563-.554.924-.52.924-.52l1.672.012 13.304-.424-.011.191c.078 0-.064-.028-.229.091-.16.055-.534.352-.836.65l-1.536 1.326s-.532.436.01.88c.542.446.03-.008.03-.008l1.653 1.435.956-.02s-.032.376-.365.424a.958.958 0 0 1-.265.037h-12.71l-1.653.004c-.251 0-.592-.276-.592-.276l-1.847-1.604s.512.454-.03.009-.01-.881-.01-.881"/>
        <path fill="#F6CE22" d="M11.697 12.141l1.535-1.325c.562-.555.924-.52.924-.52l1.672.012h12.71c.078 0 .154.01.225.027-.16.054-.405.182-.707.48l-1.536 1.326s-.532.437.01.882.03-.009.03-.009l1.847 1.603s.194.158.397.235a.958.958 0 0 1-.265.038h-12.71l-1.653.004c-.251 0-.592-.277-.592-.277l-1.847-1.603s.512.454-.03.009-.01-.882-.01-.882"/>
        <path fill="#87661B" d="M15.802 11.362c0 .158.214.287.478.287h8.63c.264 0 .479-.129.479-.287 0-.158-.215-.287-.479-.287h-8.63c-.264 0-.478.129-.478.287M15.802 12.57c0 .158.214.286.478.286h8.63c.264 0 .479-.128.479-.287 0-.158-.215-.287-.479-.287h-8.63c-.264 0-.478.13-.478.287M15.802 13.777c0 .158.214.286.478.286h8.63c.264 0 .479-.128.479-.286 0-.158-.215-.287-.479-.287h-8.63c-.264 0-.478.129-.478.287"/>
        <g transform="translate(15.556 10.654)">
            <mask id="h" fill="#fff">
                <use xlink:href="#g"/>
            </mask>
            <path fill="#E9C942" d="M9.354.481H.724c-.17 0-.319.054-.403.134A.15.15 0 0 1 .318.587C.318.43.532.301.797.301h8.63c.264 0 .478.128.478.286a.212.212 0 0 1-.075.154C9.807.595 9.603.48 9.354.48" mask="url(#h)"/>
        </g>
        <g transform="translate(15.556 11.987)">
            <mask id="j" fill="#fff">
                <use xlink:href="#i"/>
            </mask>
            <path fill="#E9C942" d="M9.354.356H.724c-.17 0-.319.053-.403.133A.15.15 0 0 1 .318.461c0-.158.214-.286.479-.286h8.63c.264 0 .478.128.478.286a.212.212 0 0 1-.075.154c-.023-.146-.227-.26-.476-.26" mask="url(#j)"/>
        </g>
        <g transform="translate(15.556 13.32)">
            <mask id="l" fill="#fff">
                <use xlink:href="#k"/>
            </mask>
            <path fill="#E9C942" d="M9.354.23H.724C.554.23.405.283.321.364A.15.15 0 0 1 .318.336c0-.16.214-.287.479-.287h8.63c.264 0 .478.128.478.287a.212.212 0 0 1-.075.153c-.023-.145-.227-.26-.476-.26" mask="url(#l)"/>
        </g>
        <path fill="#39AC73" d="M17.503 34.96s-.501-1.494-1.541-1.721c0 0 2.15.12 2.413 1.72 0 0-.274-2.198-1.385-2.867 0 0 1.852-.012 2.222 2.676 0 0 .024-2.736.574-3.8 0 0 .537 1.016.585 3.932 0 0 .239-2.689 2.259-2.796 0 0-1.28.752-1.447 2.856 0 0 .419-1.661 2.474-1.71 0 0-.824-.07-1.554 1.71h-4.6z"/>
    </g>
</svg>
