<svg xmlns="http://www.w3.org/2000/svg" width="40" height="40" viewBox="0 0 40 40">
    <g fill="none" fill-rule="evenodd">
        <path fill="#F9C45A" d="M0 20C0 8.954 8.954 0 20 0s20 8.954 20 20-8.954 20-20 20S0 31.046 0 20"/>
        <path fill="#DDAD4D" d="M39.463 24.589l-13.44-13.446-1.972 4.303-1.748 1.537-6.017-6.017L8.37 27.269 21.074 39.97c8.989-.48 16.395-6.885 18.389-15.382"/>
        <path fill="#263034" d="M15.24 10.634c-.794 0-1.463.509-1.72 1.212l-1.303 2.657 4.846 1.223.006-3.263a1.827 1.827 0 0 0-1.829-1.829"/>
        <path fill="#394448" d="M14.417 12.6a3.914 3.914 0 0 0-3.674 2.594L7.96 20.87l10.36 2.622.006-6.982a3.907 3.907 0 0 0-3.909-3.909"/>
        <path fill="#263034" d="M7.143 23.777a5.59 5.59 0 1 1 11.183 0 5.59 5.59 0 0 1-5.595 5.589 5.59 5.59 0 0 1-5.588-5.589"/>
        <path fill="#4FC0E2" d="M8.371 23.777a4.36 4.36 0 0 1 8.72 0 4.354 4.354 0 0 1-4.36 4.354 4.358 4.358 0 0 1-4.36-4.354"/>
        <path fill="#263034" d="M24.76 10.634c.794 0 1.463.509 1.72 1.212l1.303 2.657-4.846 1.223-.006-3.263c0-1.012.818-1.829 1.829-1.829"/>
        <path fill="#394448" d="M25.583 12.6a3.914 3.914 0 0 1 3.674 2.594h.006l2.777 5.675-10.354 2.622-.012-6.982a3.907 3.907 0 0 1 3.909-3.909"/>
        <path fill="#263034" d="M32.857 23.777a5.59 5.59 0 1 0-11.183 0 5.59 5.59 0 0 0 5.595 5.589 5.59 5.59 0 0 0 5.588-5.589"/>
        <path fill="#4FC0E2" d="M31.629 23.777a4.36 4.36 0 0 0-8.72 0 4.354 4.354 0 0 0 4.36 4.354 4.358 4.358 0 0 0 4.36-4.354"/>
        <path fill="#465255" d="M18.046 16.777a1.953 1.953 0 1 1 3.908 0v3.543h-3.908v-3.543"/>
        <path fill="#263034" d="M18.046 20.149a1.953 1.953 0 1 1 3.908 0A1.952 1.952 0 0 1 20 22.097a1.952 1.952 0 0 1-1.954-1.948"/>
        <path fill="#CDEAEF" d="M9.954 22.097a1.474 1.474 0 1 1 2.949 0 1.474 1.474 0 0 1-2.949 0M9.514 24.783c0-.554.452-1.006 1.012-1.006a1.008 1.008 0 1 1 0 2.017 1.01 1.01 0 0 1-1.012-1.011M24.486 22.097a1.478 1.478 0 0 1 2.954 0c0 .817-.663 1.474-1.474 1.474-.817 0-1.48-.657-1.48-1.474M24.051 24.783a1.008 1.008 0 1 1 1.006 1.011 1.008 1.008 0 0 1-1.006-1.011"/>
    </g>
</svg>
