<svg xmlns="http://www.w3.org/2000/svg" xmlns:xlink="http://www.w3.org/1999/xlink" width="40" height="40" viewBox="0 0 40 40">
    <defs>
        <path id="a" d="M0 .013h30.667v31.11H0z"/>
    </defs>
    <g fill="none" fill-rule="evenodd">
        <path fill="#DE4A3F" d="M40 20c0 11.046-8.954 20-20 20S0 31.046 0 20 8.954 0 20 0s20 8.954 20 20"/>
        <g transform="translate(9.333 8.432)">
            <mask id="b" fill="#fff">
                <use xlink:href="#a"/>
            </mask>
            <path fill="#CA362B" d="M29.832 5.803L21.204.013 3.678 20.096 0 23.908l13.055 7.216c9.91-1.115 17.612-9.482 17.612-19.64 0-1.974-.293-3.881-.835-5.68z" mask="url(#b)"/>
        </g>
        <path fill="#216600" d="M30.862 9.051a.807.807 0 0 0-.805-.808H9.828a.806.806 0 0 0-.805.808v.727l13.646 1.408 8.193-1.408v-.727z"/>
        <path fill="#FFF" d="M9.023 9.778v22.76h21.84v-5.01h-.001V9.779z"/>
        <path fill="#5E874D" d="M30.869 9.792v4.364H9.019V9.792"/>
        <path fill="#B7E6A1" d="M30.869 9.78v.476H9.019V9.78"/>
        <path fill="#1B4C00" d="M26.142 10.775c0-.52.437-.943.976-.943.54 0 .976.423.976.943s-.437.943-.976.943c-.54 0-.976-.423-.976-.943"/>
        <path fill="#A7A8AB" d="M27.771 10.652c0 .35-.29.635-.647.635a.64.64 0 0 1-.646-.635V8.084a.64.64 0 0 1 .646-.636c.358 0 .647.285.647.636v2.568z"/>
        <path fill="#CECECE" d="M26.94 10.916a.27.27 0 0 1-.276-.264V8.084a.27.27 0 0 1 .276-.265.27.27 0 0 1 .276.265v2.568a.271.271 0 0 1-.276.264"/>
        <path fill="#1B4C00" d="M12.067 10.775c0-.52.437-.943.976-.943.54 0 .977.423.977.943s-.438.943-.977.943c-.539 0-.976-.423-.976-.943"/>
        <path fill="#A7A8AB" d="M13.696 10.652a.64.64 0 0 1-.646.635.641.641 0 0 1-.647-.635V8.084c0-.351.29-.636.647-.636a.64.64 0 0 1 .646.636v2.568z"/>
        <path fill="#CECECE" d="M12.865 10.916a.271.271 0 0 1-.277-.264V8.084c0-.146.124-.265.277-.265a.27.27 0 0 1 .276.265v2.568a.27.27 0 0 1-.276.264"/>
        <path fill="#A7A8AB" d="M19.374 19.18c0 .553-.174 1.11-.52 1.674l-3.008 4.796h3.349V27h-5.121a172.25 172.25 0 0 0-.017-1.154l.017-.196-.01-.005 3.348-5.308c.267-.42.4-.802.4-1.147 0-.259-.085-.49-.255-.695a.8.8 0 0 0-.64-.307c-.714 0-1.071.566-1.071 1.697V20.838H14.22v-1.675c0-.671.238-1.246.715-1.723a2.348 2.348 0 0 1 1.723-.715h.423c.618 0 1.154.255 1.61.764.455.51.683 1.073.683 1.69M25.812 23.05l-.017 1.365h-.698V27h-1.545v-2.585h-3.56l-.017-1.366 3.675-6.162h1.798l-3.636 6.162h1.74v-1.74l1.545.017v1.723z"/>
    </g>
</svg>
