<svg xmlns="http://www.w3.org/2000/svg" xmlns:xlink="http://www.w3.org/1999/xlink" width="40" height="40" viewBox="0 0 40 40">
    <defs>
        <path id="a" d="M.047.026h9.202v5.319H.047z"/>
        <path id="c" d="M.03.135h7.725V3.57H.03z"/>
        <path id="e" d="M.023.373h1.665v2.208H.023z"/>
        <path id="g" d="M.297.032H14.31v3.336H.297z"/>
        <path id="i" d="M.299.551h.263v.186H.299z"/>
        <path id="k" d="M.068.256h1.256v1.19H.068z"/>
    </defs>
    <g fill="none" fill-rule="evenodd">
        <path fill="#DE4A3F" d="M.582 24.796C-2.052 14.076 4.506 3.237 15.23.588 25.955-2.06 36.784 4.483 39.418 15.204c2.634 10.72-3.924 21.559-14.648 24.208C14.045 42.06 3.216 35.516.582 24.796"/>
        <path fill="#FCC659" d="M33.428 26.542c.196.52-.096 1.113-.652 1.323l-17.241 6.498c-.557.21-1.167-.042-1.363-.563L6.56 13.6c-.197-.52.096-1.113.651-1.322L24.452 5.78c.556-.21 1.166.042 1.363.562l7.613 20.2z"/>
        <path fill="#F7FBFF" d="M31.559 24.86a.991.991 0 0 1-.578 1.279L15.85 31.84a.992.992 0 0 1-1.277-.578l-6.295-16.7a.991.991 0 0 1 .578-1.278l15.13-5.702a.992.992 0 0 1 1.277.578l6.295 16.7z"/>
        <path fill="gray" d="M31.514 24.742a.988.988 0 0 1-.58 1.271l-15.13 5.703a.988.988 0 0 1-1.275-.572L8.277 14.557a.988.988 0 0 1 .58-1.271l15.13-5.703a.989.989 0 0 1 1.275.572l6.252 16.587z"/>
        <path fill="#F7FBFF" d="M31.463 24.606a.984.984 0 0 1-.583 1.265l-15.13 5.702a.985.985 0 0 1-1.272-.564l-6.204-16.46a.984.984 0 0 1 .583-1.263l15.13-5.703a.984.984 0 0 1 1.272.564l6.204 16.46z"/>
        <path fill="gray" d="M31.4 24.437a.98.98 0 0 1-.587 1.255l-15.13 5.703a.98.98 0 0 1-1.27-.556L8.272 14.541a.98.98 0 0 1 .586-1.256l15.13-5.702a.98.98 0 0 1 1.269.555l6.143 16.3z"/>
        <path fill="#FFFFF3" d="M31.28 24.123a.98.98 0 0 1-.586 1.255l-15.13 5.702a.98.98 0 0 1-1.269-.555L8.152 14.226a.98.98 0 0 1 .587-1.255l15.13-5.702a.979.979 0 0 1 1.268.555l6.144 16.299z"/>
        <path fill="#000" d="M21.427 9.675a.28.28 0 1 1 .523-.197.28.28 0 0 1-.523.197M24.377 8.563a.28.28 0 1 1 .524-.197.28.28 0 0 1-.524.197M8.867 14.41a.28.28 0 1 1 .522-.198.28.28 0 0 1-.522.197M11.817 13.298a.28.28 0 1 1 .523-.198.28.28 0 0 1-.523.198"/>
        <path fill="#717F80" d="M24.722 8.433a.165.165 0 0 1-.096.213l-2.867 1.08a.166.166 0 0 1-.117-.31l2.867-1.079a.166.166 0 0 1 .213.096"/>
        <path fill="#F7FBFF" d="M24.248 8.619a.083.083 0 0 1-.048.106l-1.986.749a.083.083 0 0 1-.059-.155l1.987-.749a.083.083 0 0 1 .106.049"/>
        <path fill="#74CEBC" d="M26.395 11.05l.037.099L9.418 17.56l-.037-.098zM27.728 14.588l.038.098-17.014 6.412-.038-.099zM28.173 15.768l.037.098-17.014 6.411-.037-.098zM28.617 16.947l.037.098-17.014 6.411-.036-.098zM29.062 18.126l.037.098-17.014 6.411-.037-.098zM30.395 21.664l.037.098-17.014 6.41-.036-.097zM30.84 22.843l.037.098-17.014 6.411-.037-.098zM31.284 24.022l.037.098-17.014 6.411-.037-.098z"/>
        <path fill="#B23B26" d="M17.98 30.132l-.143.054-5.734-15.212.143-.054zM18.19 30.053l-.144.054-5.733-15.212.142-.054z"/>
        <path fill="#B23B26" d="M25.93 9.936l.054.143-17.014 6.41-.054-.142zM25.85 9.727l.055.142L8.89 16.28l-.054-.142z"/>
        <g transform="translate(11.628 7.428)">
            <mask id="b" fill="#fff">
                <use xlink:href="#a"/>
            </mask>
            <path fill="#000" d="M9.15.988c.284.754-.064 1.584-.778 1.853L1.954 5.26C1.24 5.53.43 5.136.146 4.382-.139 3.628.21 2.798.925 2.53L7.342.111c.714-.27 1.524.123 1.808.877" mask="url(#b)"/>
        </g>
        <path fill="#7F7F7F" d="M18.83 7.322l-1.844.695c.158-.398.174-.862.007-1.305-.343-.912-1.326-1.386-2.194-1.058-.869.327-1.294 1.331-.95 2.243.166.443.485.781.867.976l-2.261.852c-.71.268-1.055 1.096-.77 1.85.284.754 1.09 1.148 1.8.881l6.375-2.403c.71-.268 1.054-1.096.77-1.85-.284-.754-1.09-1.148-1.8-.881"/>
        <g transform="translate(12.093 7.428)">
            <mask id="d" fill="#fff">
                <use xlink:href="#c"/>
            </mask>
            <path fill="#DDD" d="M7.734.37c.12.32-.277.766-.888.996l-5.491 2.07C.744 3.666.15 3.594.03 3.274c0 0 .277-.766.888-.997L6.409.207c.61-.23 1.325.163 1.325.163" mask="url(#d)"/>
        </g>
        <g transform="translate(13.953 5.568)">
            <mask id="f" fill="#fff">
                <use xlink:href="#e"/>
            </mask>
            <path fill="#DDD" d="M1.66 1.636c-.12.603-.576 1.022-1.02.934-.444-.088-.708-.648-.589-1.252.12-.602.576-1.02 1.02-.933.444.088.708.648.589 1.251" mask="url(#f)"/>
        </g>
        <path stroke="#494545" stroke-dasharray="0.3516278987707094,0.1758139493853547" stroke-width=".5" d="M12.693 18.329a1.26 1.26 0 1 1-2.36.888 1.26 1.26 0 0 1 2.36-.888z"/>
        <path fill="#4BA35C" d="M10.858 18.442l1.415.651s.061-1.346.686-2.627l-.132-.074s-.546.683-1.097 1.875l-.731-.186-.141.361z"/>
        <path stroke="#494545" stroke-dasharray="0.3516278987707094,0.1758139493853547" stroke-width=".5" d="M15.364 25.417a1.26 1.26 0 1 1-2.359.889 1.26 1.26 0 0 1 2.36-.889z"/>
        <path fill="#4BA35C" d="M13.455 25.334l1.415.651s.062-1.346.686-2.628l-.131-.073s-.546.683-1.097 1.875l-.732-.186-.14.361z"/>
        <path fill="#717F80" d="M12.161 13.168a.165.165 0 0 1-.096.213l-2.867 1.08a.165.165 0 0 1-.116-.31l2.866-1.08c.086-.032.181.011.213.097"/>
        <path fill="#F7FBFF" d="M11.688 13.353a.082.082 0 0 1-.049.106l-1.986.749a.083.083 0 0 1-.059-.154l1.987-.75a.083.083 0 0 1 .107.049"/>
        <g opacity=".2" transform="translate(19.07 21.847)">
            <mask id="h" fill="#fff">
                <use xlink:href="#g"/>
            </mask>
            <path fill="#000" d="M14.298.79c-.066-.485-.328-.485-.328-.485L12.477.51l-.024-.166-.612-.312L5.51.914l.001.011c-.53.39-2.199.736-2.945.393l-.949.427-.93.788.002.019-.138.03s-.258.102-.254.156c.004.053.277.083.277.083l.152-.002.001.013 1.126.481.993.053v.002l.003-.002h.008v-.005c.594-.437 2.29-.709 2.948-.293l5.94-.824.068.364-3.853.557.026.194 4.08-.56-.019-.597.062-.01.042-.005.508-.416-.032-.221 1.486-.204s.252-.07.185-.555" mask="url(#h)"/>
        </g>
        <path fill="#171816" d="M22.773 13.28l-1.018-.255.484-1.936s.097-.243.572-.124c.475.12.446.379.446.379l-.484 1.936z"/>
        <path fill="#28408C" d="M21.71 12.512l1.401.34.197.627-1.543 6.217-2.11-.528 1.538-6.204z"/>
        <path fill="#D8D8D2" d="M23.298 13.52l.01-.042-.197-.626-1.401-.34-.505.484z"/>
        <path fill="#757474" d="M19.39 24.203l-.032.189s0 .277.05.293c.051.016.18-.226.18-.226l.07-.178-.083-.173-.186.095z"/>
        <g transform="translate(19.07 23.708)">
            <mask id="j" fill="#fff">
                <use xlink:href="#i"/>
            </mask>
            <path fill="#CECECE" d="M.321.55L.298.683l.217.054.047-.125z" mask="url(#j)"/>
        </g>
        <path fill="#D8D8D2" d="M19.666 19.17c.165.638-.135 2.316-.731 2.882l2.007.501c-.19-.708.188-2.399.823-2.857l-2.099-.525z"/>
        <path fill="#2F4926" d="M23.263 13.572l-.075.3.385.077-.917 3.783.19.047.999-3.993z"/>
        <path fill="#28408C" d="M18.935 22.052l.043 1.039.386 1.157.292.073.866-.866.423-.912z"/>
        <g transform="translate(19.07 22.777)">
            <mask id="l" fill="#fff">
                <use xlink:href="#k"/>
            </mask>
            <path fill="#2FA948" d="M.068.256v.01l.27 1.118.244.061.742-.875z" mask="url(#l)"/>
        </g>
        <path fill="#CECECE" d="M19.38 24.415s-.001.205.02.246l.037-.232-.057-.014z"/>
        <path fill="#565554" d="M19.512 24.447l-.086.228.134-.219z"/>
    </g>
</svg>
